<?xml version="1.0" encoding="utf-8"?>
<!-- Generator: Adobe Illustrator 19.2.1, SVG Export Plug-In . SVG Version: 6.00 Build 0)  -->
<svg version="1.1" id="Icons" xmlns="http://www.w3.org/2000/svg" xmlns:xlink="http://www.w3.org/1999/xlink" x="0px" y="0px"
	 viewBox="0 0 50 50" style="enable-background:new 0 0 50 50;" xml:space="preserve">
<g>
	<g>
		<g>
			<path d="M41.7,23.5c-1.1-6.4-6.6-11.2-13.2-11.4c-1.7-3-4.9-4.9-8.4-4.9c-4.1,0-7.8,2.6-9.1,6.5C9,13.5,7,14.5,5.8,16.2
				C2.5,16.5,0,19.2,0,22.6c0,2,0.9,3.9,2.5,5.1C1,29.3,0,31.5,0,33.9c0,4.9,4,8.9,8.9,8.9h31.5c5.3,0,9.7-4.3,9.7-9.7
				C50,28.3,46.4,24.2,41.7,23.5z M1.6,22.6c0-2.6,2.1-4.8,4.7-4.8l0.5,0L7,17.3c0.9-1.5,2.6-2.3,4.4-1.9l0.8,0.2l0.2-0.8
				c0.9-3.5,4.1-6,7.8-6c2.6,0,5,1.3,6.5,3.3c-5.4,0.6-9.9,4.4-11.5,9.6c-0.2,0-0.4,0-0.6,0c-2.4,0-4.7,1.2-6,3.2
				c-1.7,0.1-3.4,0.7-4.7,1.6C2.4,25.7,1.6,24.2,1.6,22.6z M40.3,41.1H8.9c-4,0-7.3-3.3-7.3-7.3s3.3-7.3,7.2-7.3l0.6,0l0.2-0.4
				c1-1.7,2.9-2.8,4.9-2.8c0.3,0,0.7,0,1.1,0.1l0.7,0.1l0.2-0.7c1.3-5.4,6.2-9.2,11.7-9.2c6.1,0,11.3,4.6,12,10.6l0.1,0.5
				c0,0.3,0,0.7,0,1c0,6.7-5.4,12.1-12.1,12.1v1.6c7.6,0,13.7-6.1,13.7-13.7c0-0.2,0-0.4,0-0.6c3.7,0.7,6.5,4,6.5,7.9
				C48.4,37.5,44.8,41.1,40.3,41.1z"/>
		</g>
	</g>
</g>
</svg>
