<?xml version="1.0" encoding="utf-8"?>
<!-- Generator: Adobe Illustrator 19.2.1, SVG Export Plug-In . SVG Version: 6.00 Build 0)  -->
<svg version="1.1" id="Icons" xmlns="http://www.w3.org/2000/svg" xmlns:xlink="http://www.w3.org/1999/xlink" x="0px" y="0px"
	 viewBox="0 0 50 50" style="enable-background:new 0 0 50 50;" xml:space="preserve">
<g>
	<g>
		<g>
			<path d="M41.7,21.1c-1.1-6.5-6.8-11.4-13.5-11.4c-6.1,0-11.4,4-13.1,9.7c-0.2,0-0.4,0-0.6,0c-2.4,0-4.7,1.2-6,3.2
				C3.8,22.8,0,26.7,0,31.5c0,4.9,4,8.9,8.9,8.9h31.5c5.3,0,9.7-4.3,9.7-9.7C50,25.8,46.4,21.8,41.7,21.1z M40.3,38.7H8.9
				c-4,0-7.3-3.3-7.3-7.3s3.3-7.3,7.2-7.3l0.6,0l0.2-0.4c1-1.7,2.9-2.8,4.9-2.8c0.3,0,0.7,0,1.1,0.1l0.7,0.1l0.2-0.7
				c1.3-5.4,6.2-9.2,11.7-9.2c6.1,0,11.3,4.6,12,10.6l0.1,0.5c0,0.3,0,0.7,0,1c0,6.7-5.4,12.1-12.1,12.1v1.6
				c7.6,0,13.7-6.1,13.7-13.7c0-0.2,0-0.4,0-0.6c3.7,0.7,6.5,4,6.5,7.9C48.4,35.1,44.8,38.7,40.3,38.7z"/>
		</g>
	</g>
</g>
</svg>
