<?xml version="1.0" encoding="utf-8"?>
<!-- Generator: Adobe Illustrator 19.2.1, SVG Export Plug-In . SVG Version: 6.00 Build 0)  -->
<svg version="1.1" id="Icons" xmlns="http://www.w3.org/2000/svg" xmlns:xlink="http://www.w3.org/1999/xlink" x="0px" y="0px"
	 viewBox="0 0 50 50" style="enable-background:new 0 0 50 50;" xml:space="preserve">
<g>
	<g>
		<g>
			<g>
				<path d="M50,24.5c0-1.1-0.9-1.9-2-1.9c-0.7,0-1.3,0.4-1.7,1c-3.1,5.1-8.9,7.8-14.8,6.9c-7.1-1.1-12.2-7.2-12.1-14.5
					c0.1-5.7,2.9-10.3,7.8-12.6c0.6-0.3,1-0.9,1-1.5c0-0.9-0.7-1.6-1.6-1.7C26.1,0,25.6,0,25,0C18.1,0,11.5,2.9,6.8,7.9
					C2,13-0.4,19.7,0.1,26.7C0.9,39.2,10.9,49.2,23.5,50c0.5,0,1,0,1.5,0c6.4,0,12.4-2.4,17.1-6.8C47.2,38.4,50,32,50,25
					C50,24.8,50,24.7,50,24.5z M41,42c-4.7,4.5-10.9,6.7-17.5,6.3C11.8,47.7,2.4,38.3,1.7,26.6C1.2,20,3.5,13.8,7.9,9
					C12.4,4.3,18.6,1.6,25,1.6c0.5,0,1,0,1.5,0c0.1,0,0.1,0,0.1,0.1c0,0,0,0.1-0.1,0.1c-5.4,2.6-8.7,7.8-8.7,14.1
					c-0.1,8.1,5.5,14.9,13.4,16.2c6.6,1.1,13.1-2,16.5-7.7v0c0.2-0.3,0.7-0.2,0.7,0.2c0,0.2,0,0.3,0,0.5C48.4,31.5,45.8,37.6,41,42z
					"/>
				<rect x="33.9" y="0" width="1.6" height="2.4"/>
				<rect x="35.5" y="2.4" width="2.4" height="1.6"/>
				<rect x="33.9" y="4" width="1.6" height="2.4"/>
				<rect x="31.4" y="2.4" width="2.4" height="1.6"/>
				<rect x="40.3" y="11.3" width="1.6" height="2.4"/>
				<rect x="41.9" y="13.7" width="2.4" height="1.6"/>
				<rect x="40.3" y="15.3" width="1.6" height="2.4"/>
				<rect x="37.9" y="13.7" width="2.4" height="1.6"/>
				<rect x="29" y="10.5" width="1.6" height="1.6"/>
				<rect x="30.6" y="12.1" width="1.6" height="1.6"/>
				<rect x="29" y="13.7" width="1.6" height="1.6"/>
				<rect x="27.4" y="12.1" width="1.6" height="1.6"/>
			</g>
		</g>
	</g>
</g>
</svg>
