<?xml version="1.0" encoding="utf-8"?>
<!-- Generator: Adobe Illustrator 19.2.1, SVG Export Plug-In . SVG Version: 6.00 Build 0)  -->
<svg version="1.1" id="Icons" xmlns="http://www.w3.org/2000/svg" xmlns:xlink="http://www.w3.org/1999/xlink" x="0px" y="0px"
	 viewBox="0 0 50 50" style="enable-background:new 0 0 50 50;" xml:space="preserve">
<g>
	<g>
		<g>
			<g>
				<path d="M41.7,15.4C40.6,8.9,34.9,4,28.2,4c-6.1,0-11.4,4-13.1,9.7c-0.2,0-0.4,0-0.6,0c-2.4,0-4.7,1.2-6,3.2
					C3.8,17.1,0,21,0,25.8c0,4.9,4,8.9,8.9,8.9h4.1c0,0.2,0,0.4,0,0.6c0.6,5.6,5.1,10,10.6,10.6c0.5,0.1,0.9,0.1,1.4,0.1
					c5.9,0,11-4.3,12-10.2c0.1-0.4,0-0.7-0.1-1.1h3.5c5.3,0,9.7-4.3,9.7-9.7C50,20.2,46.4,16.1,41.7,15.4z M35.4,35.5
					c-0.9,5.5-6,9.4-11.6,8.8c-4.8-0.5-8.7-4.4-9.2-9.2c-0.6-5.6,3.2-10.7,8.8-11.6c0,0,0.1,0,0.1,0c0.2,0,0.4,0.1,0.5,0.2
					c0.1,0.1,0.3,0.3,0.3,0.6c0,0.2-0.1,0.4-0.2,0.5c-1.3,1.7-1.7,3.8-1.3,5.8c0.6,2.7,2.8,5,5.5,5.5c2.1,0.4,4.2,0,5.8-1.3
					c0.1-0.1,0.3-0.2,0.5-0.2c0.3,0,0.5,0.2,0.6,0.3C35.3,35,35.4,35.2,35.4,35.5z M40.3,33.1h-5.6v0c-0.5,0-1,0.1-1.5,0.5
					c-1.3,1-2.9,1.3-4.5,1c-2.1-0.4-3.8-2.2-4.3-4.3c-0.3-1.6,0-3.2,1-4.5c0.3-0.4,0.5-0.9,0.5-1.5c0-0.7-0.3-1.3-0.8-1.8
					c-0.5-0.4-1.2-0.6-1.9-0.5c-5.7,0.9-9.8,5.6-10.2,11.1H8.9c-4,0-7.3-3.3-7.3-7.3s3.3-7.3,7.2-7.3l0.6,0l0.2-0.4
					c1-1.7,2.9-2.8,4.9-2.8c0.3,0,0.7,0,1.1,0.1l0.7,0.1l0.2-0.7c1.3-5.4,6.2-9.2,11.7-9.2c6.1,0,11.3,4.6,12,10.6l0.1,0.7L41,17
					c4.2,0.3,7.4,3.9,7.4,8C48.4,29.4,44.8,33.1,40.3,33.1z"/>
				<rect x="28.2" y="22.6" width="1.6" height="1.6"/>
				<rect x="29.8" y="21" width="1.6" height="1.6"/>
				<rect x="31.5" y="22.6" width="1.6" height="1.6"/>
				<rect x="29.8" y="24.2" width="1.6" height="1.6"/>
				<rect x="33.1" y="27.4" width="1.6" height="1.6"/>
				<rect x="34.7" y="25.8" width="1.6" height="1.6"/>
				<rect x="36.3" y="27.4" width="1.6" height="1.6"/>
				<rect x="34.7" y="29" width="1.6" height="1.6"/>
			</g>
		</g>
	</g>
</g>
</svg>
