<?xml version="1.0" encoding="utf-8"?>
<!-- Generator: Adobe Illustrator 19.2.1, SVG Export Plug-In . SVG Version: 6.00 Build 0)  -->
<svg version="1.1" id="Icons" xmlns="http://www.w3.org/2000/svg" xmlns:xlink="http://www.w3.org/1999/xlink" x="0px" y="0px"
	 viewBox="0 0 50 50" style="enable-background:new 0 0 50 50;" xml:space="preserve">
<g>
	<g>
		<g>
			<g>
				<g>
					<path d="M41.5,21.3c-1.1-6.4-6.7-11.2-13.3-11.2c-4.8,0-9.2,2.6-11.6,6.6c-1.9-1.3-3.2-3.3-3.5-5.6c-0.3-2.9,0.9-5.6,3.2-7.3
						c0.5-0.3,0.7-0.8,0.7-1.4c0-0.5-0.2-0.9-0.5-1.2c-0.3-0.3-0.8-0.5-1.2-0.5c-0.2,0-0.4,0-0.5,0C10.8,0.7,7,2.5,4.3,5.5
						c-2.7,3-4.1,7-3.8,11.1c0.2,3,1.3,5.8,3.1,8.2c-1.9,1.6-3.2,4-3.2,6.7c0,4.8,3.9,8.7,8.7,8.7v-1.6c-3.9,0-7.1-3.2-7.1-7.1
						s3.2-7.1,7.1-7.1l0.5,0L9.9,24c1-1.7,2.8-2.8,4.8-2.8c0.3,0,0.7,0,1,0.1l0.7,0.1l0.2-0.7c1.3-5.3,6.1-9,11.5-9
						c6,0,11.1,4.5,11.8,10.4l0.1,0.5c0,0.3,0,0.7,0,1c0,6.6-5.3,11.9-11.9,11.9v1.6c7.4,0,13.5-6.1,13.5-13.5c0-0.2,0-0.4,0-0.6
						c3.6,0.7,6.4,4,6.4,7.8c0,4.4-3.6,7.9-7.9,7.9v1.6c5.3,0,9.5-4.3,9.5-9.5C49.6,26,46.1,22,41.5,21.3z M15.3,19.6
						c-2.6-0.2-5.1,1-6.5,3.2c-1.4,0.1-2.7,0.5-3.9,1.1c-1.7-2.1-2.7-4.7-2.8-7.4c-0.2-3.7,1-7.2,3.4-9.9c2.5-2.7,5.8-4.3,9.5-4.5
						c0.1,0,0.2,0,0.4,0c0,0,0,0,0,0c0,0,0.1,0,0.1,0s0,0.1,0,0.1c0,0.1-0.1,0.1-0.1,0.1c-2.8,2-4.2,5.3-3.8,8.8
						c0.3,2.8,1.9,5.3,4.3,6.9C15.7,18.6,15.5,19.1,15.3,19.6z"/>
					<rect x="21.8" y="0.6" width="1.6" height="1.6"/>
					<rect x="23.4" y="2.1" width="1.6" height="1.6"/>
					<rect x="21.8" y="3.7" width="1.6" height="1.6"/>
					<rect x="20.2" y="2.1" width="1.6" height="1.6"/>
					<rect x="18.7" y="6.9" width="1.6" height="1.6"/>
					<rect x="20.2" y="8.5" width="1.6" height="1.6"/>
					<rect x="18.7" y="10.1" width="1.6" height="1.6"/>
					<rect x="17.1" y="8.5" width="1.6" height="1.6"/>
				</g>
			</g>
		</g>
	</g>
	<path d="M18.2,41.8L18.2,41.8c0-0.5-0.1-0.9-0.3-1.2L16,37.5l-1.9,3.1c-0.2,0.3-0.3,0.7-0.3,1.1v0.1c0,1.2,1,2.2,2.2,2.2
		S18.2,43,18.2,41.8z M17.1,41.8c0,0.6-0.5,1.1-1.1,1.1c-0.6,0-1.1-0.5-1.1-1.1v-0.1c0-0.2,0.1-0.4,0.2-0.6l0.9-1.6l0.9,1.6
		C17.1,41.3,17.1,41.5,17.1,41.8L17.1,41.8z"/>
	<path d="M23.7,41.8L23.7,41.8c0-0.5-0.1-0.9-0.3-1.2l-1.9-3.1l-1.9,3.1c-0.2,0.3-0.3,0.7-0.3,1.1v0.1c0,1.2,1,2.2,2.2,2.2
		C22.7,44,23.7,43,23.7,41.8z M22.6,41.8c0,0.6-0.5,1.1-1.1,1.1c-0.6,0-1.1-0.5-1.1-1.1v-0.1c0-0.2,0.1-0.4,0.2-0.6l0.9-1.6l0.9,1.6
		C22.5,41.3,22.6,41.5,22.6,41.8L22.6,41.8z"/>
	<path d="M29.1,41.8L29.1,41.8c0-0.5-0.1-0.9-0.3-1.2L27,37.5l-1.9,3.1c-0.2,0.3-0.3,0.7-0.3,1.1v0.1c0,1.2,1,2.2,2.2,2.2
		S29.1,43,29.1,41.8z M28,41.8c0,0.6-0.5,1.1-1.1,1.1c-0.6,0-1.1-0.5-1.1-1.1v-0.1c0-0.2,0.1-0.4,0.2-0.6l0.9-1.6l0.9,1.6
		C28,41.3,28,41.5,28,41.8L28,41.8z"/>
	<path d="M32.4,37.5l-1.9,3.1c-0.2,0.3-0.3,0.7-0.3,1.1v0.1c0,1.2,1,2.2,2.2,2.2c1.2,0,2.2-1,2.2-2.2v-0.1c0-0.4-0.1-0.8-0.3-1.1
		L32.4,37.5z M33.5,41.8c0,0.6-0.5,1.1-1.1,1.1s-1.1-0.5-1.1-1.1v-0.1c0-0.2,0.1-0.4,0.2-0.6l0.9-1.6l0.9,1.6
		C33.4,41.3,33.5,41.5,33.5,41.8L33.5,41.8z"/>
	<path d="M13.3,42.9L11.4,46c-0.2,0.3-0.3,0.7-0.3,1.1v0.1c0,1.2,1,2.2,2.2,2.2s2.2-1,2.2-2.2v-0.1c0-0.4-0.1-0.8-0.3-1.1L13.3,42.9
		z M14.4,47.3c0,0.6-0.5,1.1-1.1,1.1c-0.6,0-1.1-0.5-1.1-1.1v-0.1c0-0.2,0.1-0.4,0.2-0.6l0.9-1.6l0.9,1.6
		C14.4,46.8,14.4,47,14.4,47.3L14.4,47.3z"/>
	<path d="M18.8,42.9L16.9,46c-0.2,0.3-0.3,0.7-0.3,1.1v0.1c0,1.2,1,2.2,2.2,2.2c1.2,0,2.2-1,2.2-2.2v-0.1c0-0.4-0.1-0.8-0.3-1.1
		L18.8,42.9z M19.9,47.3c0,0.6-0.5,1.1-1.1,1.1c-0.6,0-1.1-0.5-1.1-1.1v-0.1c0-0.2,0.1-0.4,0.2-0.6l0.9-1.6l0.9,1.6
		C19.8,46.8,19.9,47,19.9,47.3L19.9,47.3z"/>
	<path d="M24.2,42.9L22.4,46c-0.2,0.3-0.3,0.7-0.3,1.1v0.1c0,1.2,1,2.2,2.2,2.2s2.2-1,2.2-2.2v-0.1c0-0.4-0.1-0.8-0.3-1.1L24.2,42.9
		z M25.3,47.3c0,0.6-0.5,1.1-1.1,1.1c-0.6,0-1.1-0.5-1.1-1.1v-0.1c0-0.2,0.1-0.4,0.2-0.6l0.9-1.6l0.9,1.6
		C25.3,46.8,25.3,47,25.3,47.3L25.3,47.3z"/>
	<path d="M29.7,42.9L27.8,46c-0.2,0.3-0.3,0.7-0.3,1.1v0.1c0,1.2,1,2.2,2.2,2.2s2.2-1,2.2-2.2v-0.1c0-0.4-0.1-0.8-0.3-1.1L29.7,42.9
		z M30.8,47.3c0,0.6-0.5,1.1-1.1,1.1c-0.6,0-1.1-0.5-1.1-1.1v-0.1c0-0.2,0.1-0.4,0.2-0.6l0.9-1.6l0.9,1.6
		C30.7,46.8,30.8,47,30.8,47.3L30.8,47.3z"/>
</g>
</svg>
