<?xml version="1.0" encoding="utf-8"?>
<!-- Generator: Adobe Illustrator 19.2.1, SVG Export Plug-In . SVG Version: 6.00 Build 0)  -->
<svg version="1.1" id="Icons" xmlns="http://www.w3.org/2000/svg" xmlns:xlink="http://www.w3.org/1999/xlink" x="0px" y="0px"
	 viewBox="0 0 50 50" style="enable-background:new 0 0 50 50;" xml:space="preserve">
<g>
	<g>
		<g>
			<g>
				<path d="M41.7,25.9c-1.1-6.5-6.8-11.4-13.5-11.4c-4.9,0-9.3,2.6-11.8,6.7c-2-1.3-3.2-3.4-3.5-5.7c-0.3-2.9,0.9-5.7,3.2-7.4
					c0.5-0.3,0.7-0.9,0.7-1.4c0-0.5-0.2-0.9-0.5-1.2c-0.3-0.3-0.8-0.5-1.3-0.5c-0.2,0-0.4,0-0.5,0c-4.2,0.2-8,2-10.8,5.1
					C1.1,13-0.2,17,0,21.2c0.2,3,1.3,5.9,3.2,8.3c-2,1.6-3.2,4.1-3.2,6.8c0,4.9,4,8.9,8.9,8.9h31.5c5.3,0,9.7-4.3,9.7-9.7
					C50,30.7,46.4,26.6,41.7,25.9z M1.6,21.1c-0.2-3.7,1-7.3,3.5-10.1c2.5-2.8,5.9-4.4,9.6-4.5c0.1,0,0.2,0,0.4,0c0,0,0,0,0,0
					c0.1,0,0.1,0,0.1,0s0,0.1,0,0.1c0,0.1-0.1,0.1-0.1,0.1c-2.8,2.1-4.3,5.4-3.9,8.9c0.3,2.9,2,5.4,4.4,7c-0.2,0.5-0.4,1-0.6,1.6
					c-2.7-0.2-5.2,1-6.6,3.2c-1.4,0.1-2.8,0.5-3.9,1.1C2.8,26.4,1.8,23.8,1.6,21.1z M40.3,43.5H8.9c-4,0-7.3-3.3-7.3-7.3
					S4.9,29,8.8,29l0.6,0l0.2-0.4c1-1.7,2.9-2.8,4.9-2.8c0.3,0,0.7,0,1,0.1l0.7,0.1l0.2-0.7c1.3-5.4,6.2-9.2,11.7-9.2
					c6.1,0,11.3,4.6,12,10.6l0.1,0.5c0,0.3,0,0.7,0,1c0,6.7-5.4,12.1-12.1,12.1v1.6c7.6,0,13.7-6.1,13.7-13.7c0-0.2,0-0.4,0-0.6
					c3.7,0.7,6.5,4,6.5,7.9C48.4,39.9,44.8,43.5,40.3,43.5z"/>
				<rect x="21.8" y="4.8" width="1.6" height="1.6"/>
				<rect x="23.4" y="6.5" width="1.6" height="1.6"/>
				<rect x="21.8" y="8.1" width="1.6" height="1.6"/>
				<rect x="20.2" y="6.5" width="1.6" height="1.6"/>
				<rect x="18.5" y="11.3" width="1.6" height="1.6"/>
				<rect x="20.2" y="12.9" width="1.6" height="1.6"/>
				<rect x="18.5" y="14.5" width="1.6" height="1.6"/>
				<rect x="16.9" y="12.9" width="1.6" height="1.6"/>
			</g>
		</g>
	</g>
</g>
</svg>
