<?xml version="1.0" encoding="utf-8"?>
<!-- Generator: Adobe Illustrator 19.2.1, SVG Export Plug-In . SVG Version: 6.00 Build 0)  -->
<svg version="1.1" id="Icons" xmlns="http://www.w3.org/2000/svg" xmlns:xlink="http://www.w3.org/1999/xlink" x="0px" y="0px"
	 viewBox="0 0 50 50" style="enable-background:new 0 0 50 50;" xml:space="preserve">
<g>
	<g>
		<g>
			<g>
				<path d="M41.7,17.9c-1.1-6.4-6.6-11.2-13.2-11.4c-1.7-3-4.9-4.9-8.4-4.9c-4.1,0-7.8,2.6-9.1,6.5C8.9,7.9,7,8.8,5.8,10.5
					c-3.3,0.3-5.8,3-5.8,6.4c0,2,0.9,3.9,2.5,5.1C1,23.6,0,25.8,0,28.2c0,4.9,4,8.9,8.9,8.9h31.5c5.3,0,9.7-4.3,9.7-9.7
					C50,22.6,46.4,18.5,41.7,17.9z M1.6,16.9c0-2.6,2.1-4.8,4.7-4.8l0.5,0L7,11.7c0.7-1.2,2.1-2,3.5-2c0.3,0,0.6,0,0.9,0.1l0.8,0.2
					l0.2-0.8c0.9-3.5,4.1-6,7.8-6c2.6,0,5,1.3,6.5,3.3c-5.4,0.6-9.9,4.4-11.5,9.6c-2.7-0.2-5.2,1-6.6,3.2C6.7,19.4,5.1,20,3.8,21
					C2.4,20.1,1.6,18.6,1.6,16.9z M40.3,35.5H8.9c-4,0-7.3-3.3-7.3-7.3S4.9,21,8.8,21l0.6,0l0.2-0.4c1-1.7,2.9-2.8,4.9-2.8
					c0.3,0,0.7,0,1,0.1l0.7,0.1l0.2-0.7c1.3-5.4,6.2-9.2,11.7-9.2c6.1,0,11.3,4.6,12,10.6l0.1,0.5c0,0.3,0,0.7,0,1
					c0,6.7-5.4,12.1-12.1,12.1v1.6c7.6,0,13.7-6.1,13.7-13.7c0-0.2,0-0.4,0-0.6c3.7,0.7,6.5,4,6.5,7.9
					C48.4,31.9,44.8,35.5,40.3,35.5z"/>
				<path d="M12.9,38.8l-2.8,4.6c-0.3,0.5-0.5,1.1-0.5,1.7v0.1c0,1.8,1.4,3.2,3.2,3.2s3.2-1.4,3.2-3.2V45c0-0.6-0.2-1.2-0.5-1.7
					L12.9,38.8z M14.5,45.2c0,0.9-0.7,1.6-1.6,1.6c-0.9,0-1.6-0.7-1.6-1.6V45c0-0.3,0.1-0.6,0.2-0.8l1.4-2.3l1.4,2.3
					c0.2,0.3,0.2,0.5,0.2,0.8V45.2z"/>
				<path d="M21,38.8l-2.8,4.6c-0.3,0.5-0.5,1.1-0.5,1.7v0.1c0,1.8,1.4,3.2,3.2,3.2s3.2-1.4,3.2-3.2V45c0-0.6-0.2-1.2-0.5-1.7
					L21,38.8z M22.6,45.2c0,0.9-0.7,1.6-1.6,1.6c-0.9,0-1.6-0.7-1.6-1.6V45c0-0.3,0.1-0.6,0.2-0.8l1.4-2.3l1.4,2.3
					c0.2,0.3,0.2,0.5,0.2,0.8V45.2z"/>
				<path d="M29,38.8l-2.8,4.6c-0.3,0.5-0.5,1.1-0.5,1.7v0.1c0,1.8,1.4,3.2,3.2,3.2c1.8,0,3.2-1.4,3.2-3.2V45c0-0.6-0.2-1.2-0.5-1.7
					L29,38.8z M30.6,45.2c0,0.9-0.7,1.6-1.6,1.6c-0.9,0-1.6-0.7-1.6-1.6V45c0-0.3,0.1-0.6,0.2-0.8l1.4-2.3l1.4,2.3
					c0.2,0.3,0.2,0.5,0.2,0.8V45.2z"/>
				<path d="M37.1,38.8l-2.8,4.6c-0.3,0.5-0.5,1.1-0.5,1.7v0.1c0,1.8,1.4,3.2,3.2,3.2s3.2-1.4,3.2-3.2V45c0-0.6-0.2-1.2-0.5-1.7
					L37.1,38.8z M38.7,45.2c0,0.9-0.7,1.6-1.6,1.6c-0.9,0-1.6-0.7-1.6-1.6V45c0-0.3,0.1-0.6,0.2-0.8l1.4-2.3l1.4,2.3
					c0.2,0.3,0.2,0.5,0.2,0.8V45.2z"/>
			</g>
		</g>
	</g>
</g>
</svg>
