<?xml version="1.0" encoding="utf-8"?>
<!-- Generator: Adobe Illustrator 19.2.1, SVG Export Plug-In . SVG Version: 6.00 Build 0)  -->
<svg version="1.1" id="Icons" xmlns="http://www.w3.org/2000/svg" xmlns:xlink="http://www.w3.org/1999/xlink" x="0px" y="0px"
	 viewBox="0 0 50 50" style="enable-background:new 0 0 50 50;" xml:space="preserve">
<g>
	<g>
		<g>
			<g>
				<path d="M41.7,11.4C40.6,4.9,34.9,0,28.2,0c-6.1,0-11.4,4-13.1,9.7c-0.2,0-0.4,0-0.6,0c-2.4,0-4.7,1.2-6,3.2
					C3.8,13.1,0,17,0,21.8c0,4.9,4,8.9,8.9,8.9h31.5c5.3,0,9.7-4.3,9.7-9.7C50,16.2,46.4,12.1,41.7,11.4z M40.3,29H8.9
					c-4,0-7.3-3.3-7.3-7.3s3.3-7.3,7.2-7.3l0.6,0l0.2-0.4c1-1.7,2.9-2.8,4.9-2.8c0.3,0,0.7,0,1.1,0.1l0.7,0.1l0.2-0.7
					c1.3-5.4,6.2-9.2,11.7-9.2c6.1,0,11.3,4.6,12,10.6l0.1,0.5c0,0.3,0,0.7,0,1c0,6.7-5.4,12.1-12.1,12.1v1.6
					c7.6,0,13.7-6.1,13.7-13.7c0-0.2,0-0.4,0-0.6c3.7,0.7,6.5,4,6.5,7.9C48.4,25.4,44.8,29,40.3,29z"/>
				<path d="M16.1,38.7v-0.1c0-0.6-0.2-1.2-0.5-1.7l-2.8-4.6l-2.8,4.6c-0.3,0.5-0.5,1.1-0.5,1.7v0.1c0,1.8,1.4,3.2,3.2,3.2
					S16.1,40.5,16.1,38.7z M14.5,38.7c0,0.9-0.7,1.6-1.6,1.6c-0.9,0-1.6-0.7-1.6-1.6v-0.1c0-0.3,0.1-0.6,0.2-0.8l1.4-2.3l1.4,2.3
					c0.2,0.3,0.2,0.5,0.2,0.8V38.7z"/>
				<path d="M24.2,38.7v-0.1c0-0.6-0.2-1.2-0.5-1.7L21,32.3l-2.8,4.6c-0.3,0.5-0.5,1.1-0.5,1.7v0.1c0,1.8,1.4,3.2,3.2,3.2
					S24.2,40.5,24.2,38.7z M22.6,38.7c0,0.9-0.7,1.6-1.6,1.6c-0.9,0-1.6-0.7-1.6-1.6v-0.1c0-0.3,0.1-0.6,0.2-0.8l1.4-2.3l1.4,2.3
					c0.1,0.3,0.2,0.5,0.2,0.8V38.7z"/>
				<path d="M32.3,38.7v-0.1c0-0.6-0.2-1.2-0.5-1.7L29,32.3l-2.8,4.6c-0.3,0.5-0.5,1.1-0.5,1.7v0.1c0,1.8,1.4,3.2,3.2,3.2
					C30.8,41.9,32.3,40.5,32.3,38.7z M30.6,38.7c0,0.9-0.7,1.6-1.6,1.6c-0.9,0-1.6-0.7-1.6-1.6v-0.1c0-0.3,0.1-0.6,0.2-0.8l1.4-2.3
					l1.4,2.3c0.1,0.3,0.2,0.5,0.2,0.8V38.7z"/>
				<path d="M37.1,32.3l-2.8,4.6c-0.3,0.5-0.5,1.1-0.5,1.7v0.1c0,1.8,1.4,3.2,3.2,3.2s3.2-1.4,3.2-3.2v-0.1c0-0.6-0.2-1.2-0.5-1.7
					L37.1,32.3z M38.7,38.7c0,0.9-0.7,1.6-1.6,1.6c-0.9,0-1.6-0.7-1.6-1.6v-0.1c0-0.3,0.1-0.6,0.2-0.8l1.4-2.3l1.4,2.3
					c0.2,0.3,0.2,0.5,0.2,0.8V38.7z"/>
				<path d="M8.9,40.4L6.1,45c-0.3,0.5-0.5,1.1-0.5,1.7v0.1c0,1.8,1.4,3.2,3.2,3.2s3.2-1.4,3.2-3.2v-0.1c0-0.6-0.2-1.2-0.5-1.7
					L8.9,40.4z M10.5,46.8c0,0.9-0.7,1.6-1.6,1.6s-1.6-0.7-1.6-1.6v-0.1c0-0.3,0.1-0.6,0.2-0.8l1.4-2.3l1.4,2.3
					c0.2,0.2,0.2,0.5,0.2,0.8V46.8z"/>
				<path d="M16.9,40.4L14.2,45c-0.3,0.5-0.5,1.1-0.5,1.7v0.1c0,1.8,1.4,3.2,3.2,3.2s3.2-1.4,3.2-3.2v-0.1c0-0.6-0.2-1.2-0.5-1.7
					L16.9,40.4z M18.5,46.8c0,0.9-0.7,1.6-1.6,1.6s-1.6-0.7-1.6-1.6v-0.1c0-0.3,0.1-0.6,0.2-0.8l1.4-2.3l1.4,2.3
					c0.2,0.2,0.2,0.5,0.2,0.8V46.8z"/>
				<path d="M25,40.4L22.2,45c-0.3,0.5-0.5,1.1-0.5,1.7v0.1c0,1.8,1.4,3.2,3.2,3.2c1.8,0,3.2-1.4,3.2-3.2v-0.1
					c0-0.6-0.2-1.2-0.5-1.7L25,40.4z M26.6,46.8c0,0.9-0.7,1.6-1.6,1.6s-1.6-0.7-1.6-1.6v-0.1c0-0.3,0.1-0.6,0.2-0.8l1.4-2.3
					l1.4,2.3c0.2,0.2,0.2,0.5,0.2,0.8V46.8z"/>
				<path d="M33.1,40.4L30.3,45c-0.3,0.5-0.5,1.1-0.5,1.7v0.1c0,1.8,1.4,3.2,3.2,3.2c1.8,0,3.2-1.4,3.2-3.2v-0.1
					c0-0.6-0.2-1.2-0.5-1.7L33.1,40.4z M34.7,46.8c0,0.9-0.7,1.6-1.6,1.6c-0.9,0-1.6-0.7-1.6-1.6v-0.1c0-0.3,0.1-0.6,0.2-0.8
					l1.4-2.3l1.4,2.3c0.1,0.2,0.2,0.5,0.2,0.8V46.8z"/>
			</g>
		</g>
	</g>
</g>
</svg>
