<?xml version="1.0" encoding="utf-8"?>
<!-- Generator: Adobe Illustrator 19.2.1, SVG Export Plug-In . SVG Version: 6.00 Build 0)  -->
<svg version="1.1" id="Icons" xmlns="http://www.w3.org/2000/svg" xmlns:xlink="http://www.w3.org/1999/xlink" x="0px" y="0px"
	 viewBox="0 0 50 50" style="enable-background:new 0 0 50 50;" xml:space="preserve">
<g>
	<g>
		<g>
			<g>
				<path d="M41.7,11.4C40.6,4.9,34.9,0,28.2,0c-6.1,0-11.4,4-13.1,9.7c-2.7-0.2-5.2,1-6.6,3.2C3.8,13.1,0,17,0,21.8
					c0,4.9,4,8.9,8.9,8.9h31.5c5.3,0,9.7-4.3,9.7-9.7C50,16.2,46.4,12.1,41.7,11.4z M40.3,29H8.9c-4,0-7.3-3.3-7.3-7.3
					s3.3-7.3,7.2-7.3l0.6,0l0.2-0.4c1-1.7,2.9-2.8,4.9-2.8c0.3,0,0.7,0,1,0.1l0.7,0.1l0.2-0.7c1.3-5.4,6.2-9.2,11.7-9.2
					c6.1,0,11.3,4.6,12,10.6l0.1,0.5c0,0.3,0,0.7,0,1c0,6.7-5.4,12.1-12.1,12.1v1.6c7.6,0,13.7-6.1,13.7-13.7c0-0.2,0-0.4,0-0.6
					c3.7,0.7,6.5,4,6.5,7.9C48.4,25.4,44.8,29,40.3,29z"/>
				<polygon points="18.2,33.1 16.1,34.2 16.1,32.3 14.5,32.3 14.5,34.2 12.5,33.1 11.7,34.6 13.5,35.5 11.7,36.4 12.5,37.8 
					14.5,36.8 14.5,38.7 16.1,38.7 16.1,36.8 18.2,37.8 18.9,36.4 17.1,35.5 18.9,34.6 				"/>
				<polygon points="18.2,41.2 16.1,42.2 16.1,40.3 14.5,40.3 14.5,42.2 12.5,41.2 11.7,42.7 13.5,43.5 11.7,44.4 12.5,45.9 
					14.5,44.9 14.5,46.8 16.1,46.8 16.1,44.9 18.2,45.9 18.9,44.4 17.1,43.5 18.9,42.7 				"/>
				<polygon points="37.5,33.1 35.5,34.2 35.5,32.3 33.9,32.3 33.9,34.2 31.8,33.1 31.1,34.6 32.9,35.5 31.1,36.4 31.8,37.8 
					33.9,36.8 33.9,38.7 35.5,38.7 35.5,36.8 37.5,37.8 38.3,36.4 36.5,35.5 38.3,34.6 				"/>
				<polygon points="37.5,41.2 35.5,42.2 35.5,40.3 33.9,40.3 33.9,42.2 31.8,41.2 31.1,42.7 32.9,43.5 31.1,44.4 31.8,45.9 
					33.9,44.9 33.9,46.8 35.5,46.8 35.5,44.9 37.5,45.9 38.3,44.4 36.5,43.5 38.3,42.7 				"/>
				<polygon points="27.9,36.4 25.8,37.4 25.8,35.5 24.2,35.5 24.2,37.4 22.1,36.4 21.4,37.8 23.2,38.7 21.4,39.6 22.1,41 24.2,40 
					24.2,41.9 25.8,41.9 25.8,40 27.9,41 28.6,39.6 26.8,38.7 28.6,37.8 				"/>
				<polygon points="27.9,44.4 25.8,45.5 25.8,43.5 24.2,43.5 24.2,45.5 22.1,44.4 21.4,45.9 23.2,46.8 21.4,47.7 22.1,49.1 
					24.2,48.1 24.2,50 25.8,50 25.8,48.1 27.9,49.1 28.6,47.7 26.8,46.8 28.6,45.9 				"/>
			</g>
		</g>
	</g>
</g>
</svg>
