<?xml version="1.0" encoding="utf-8"?>
<!-- Generator: Adobe Illustrator 19.2.1, SVG Export Plug-In . SVG Version: 6.00 Build 0)  -->
<svg version="1.1" id="Icons" xmlns="http://www.w3.org/2000/svg" xmlns:xlink="http://www.w3.org/1999/xlink" x="0px" y="0px"
	 viewBox="0 0 50 50" style="enable-background:new 0 0 50 50;" xml:space="preserve">
<g>
	<g>
		<g>
			<g>
				<path d="M41.7,17c-1.1-6.4-6.6-11.2-13.2-11.4c-1.7-3-4.9-4.9-8.4-4.9c-4.1,0-7.8,2.6-9.1,6.5C9,7.1,7,8,5.8,9.7
					C2.5,10,0,12.8,0,16.1c0,2,1,3.9,2.5,5.1C1,22.8,0,25,0,27.4c0,4.9,4,8.9,8.9,8.9h31.5c5.3,0,9.7-4.3,9.7-9.7
					C50,21.8,46.4,17.7,41.7,17z M1.6,16.1c0-2.6,2.1-4.8,4.7-4.8l0.5,0L7,10.9C7.9,9.4,9.6,8.6,11.4,9l0.8,0.2l0.2-0.8
					c0.9-3.5,4.1-6,7.8-6c2.6,0,5,1.3,6.5,3.3c-5.4,0.6-9.9,4.4-11.5,9.6c-0.2,0-0.4,0-0.6,0c-2.4,0-4.7,1.2-6,3.2
					c-1.7,0.1-3.4,0.7-4.7,1.6C2.4,19.3,1.6,17.8,1.6,16.1z M40.3,34.7H8.9c-4,0-7.3-3.3-7.3-7.3c0-4,3.3-7.3,7.2-7.3l0.6,0l0.2-0.4
					c1-1.7,2.9-2.8,4.9-2.8c0.3,0,0.7,0,1.1,0.1l0.7,0.1l0.2-0.7c1.3-5.4,6.2-9.2,11.7-9.2c6.1,0,11.3,4.6,12,10.6l0.1,0.5
					c0,0.3,0,0.7,0,1c0,6.7-5.4,12.1-12.1,12.1v1.6c7.6,0,13.7-6.2,13.7-13.7c0-0.2,0-0.4,0-0.6c3.7,0.7,6.5,4,6.5,7.9
					C48.4,31.1,44.8,34.7,40.3,34.7z"/>
				<polygon points="18.2,40.4 16.1,41.4 16.1,39.5 14.5,39.5 14.5,41.4 12.5,40.4 11.7,41.9 13.5,42.7 11.7,43.6 12.5,45.1 
					14.5,44 14.5,46 16.1,46 16.1,44 18.2,45.1 18.9,43.6 17.1,42.7 18.9,41.9 				"/>
				<polygon points="37.5,40.4 35.5,41.4 35.5,39.5 33.9,39.5 33.9,41.4 31.8,40.4 31.1,41.9 32.9,42.7 31.1,43.6 31.8,45.1 
					33.9,44 33.9,46 35.5,46 35.5,44 37.5,45.1 38.3,43.6 36.5,42.7 38.3,41.9 				"/>
				<polygon points="27.9,43.6 25.8,44.7 25.8,42.7 24.2,42.7 24.2,44.7 22.1,43.6 21.4,45.1 23.2,46 21.4,46.9 22.1,48.3 
					24.2,47.3 24.2,49.2 25.8,49.2 25.8,47.3 27.9,48.3 28.6,46.9 26.8,46 28.6,45.1 				"/>
			</g>
		</g>
	</g>
</g>
</svg>
