<?xml version="1.0" encoding="utf-8"?>
<!-- Generator: Adobe Illustrator 19.2.1, SVG Export Plug-In . SVG Version: 6.00 Build 0)  -->
<svg version="1.1" id="Icons" xmlns="http://www.w3.org/2000/svg" xmlns:xlink="http://www.w3.org/1999/xlink" x="0px" y="0px"
	 viewBox="0 0 50 50" style="enable-background:new 0 0 50 50;" xml:space="preserve">
<g>
	<g>
		<g>
			<g>
				<rect x="16.6" y="4.7" transform="matrix(0.9239 -0.3827 0.3827 0.9239 -1.2546 7.1874)" width="1.6" height="4"/>
				<rect x="5.9" y="15.4" transform="matrix(0.3827 -0.9239 0.9239 0.3827 -11.9471 16.996)" width="1.6" height="4"/>
				<rect x="4.7" y="31.8" transform="matrix(0.9239 -0.3827 0.3827 0.9239 -11.9488 5.0621)" width="4" height="1.6"/>
				<rect x="15.4" y="42.5" transform="matrix(0.3828 -0.9238 0.9238 0.3828 -29.2013 42.8064)" width="4" height="1.6"/>
				<rect x="31.8" y="41.2" transform="matrix(0.9239 -0.3827 0.3827 0.9239 -14.0716 15.7541)" width="1.6" height="4"/>
				<rect x="42.4" y="30.5" transform="matrix(0.3827 -0.9239 0.9239 0.3827 -3.3815 60.0611)" width="1.6" height="4"/>
				<rect x="41.2" y="16.6" transform="matrix(0.9239 -0.3827 0.3827 0.9239 -3.3822 17.8789)" width="4" height="1.6"/>
				<rect x="30.5" y="5.9" transform="matrix(0.3828 -0.9238 0.9238 0.3828 13.8655 34.2414)" width="4" height="1.6"/>
				<path d="M25,8.9C16.1,8.9,8.9,16.1,8.9,25S16.1,41.1,25,41.1S41.1,33.9,41.1,25S33.9,8.9,25,8.9z M25,39.5
					c-8,0-14.5-6.5-14.5-14.5S17,10.5,25,10.5S39.5,17,39.5,25S33,39.5,25,39.5z"/>
				<rect x="24.2" y="0" width="1.6" height="7.3"/>
				<rect x="9.1" y="6.3" transform="matrix(0.7071 -0.7071 0.7071 0.7071 -4.0961 9.8893)" width="1.6" height="7.3"/>
				<rect x="0" y="24.2" width="7.3" height="1.6"/>
				<rect x="6.3" y="39.3" transform="matrix(0.7071 -0.7071 0.7071 0.7071 -25.4672 18.7409)" width="7.3" height="1.6"/>
				<rect x="24.2" y="42.7" width="1.6" height="7.3"/>
				<rect x="39.3" y="36.5" transform="matrix(0.7071 -0.7071 0.7071 0.7071 -16.6163 40.1096)" width="1.6" height="7.3"/>
				<rect x="42.7" y="24.2" width="7.3" height="1.6"/>
				<rect x="36.5" y="9.1" transform="matrix(0.7071 -0.7071 0.7071 0.7071 4.7562 31.2592)" width="7.3" height="1.6"/>
			</g>
		</g>
	</g>
</g>
</svg>
