<?xml version="1.0" encoding="utf-8"?>
<!-- Generator: Adobe Illustrator 19.2.1, SVG Export Plug-In . SVG Version: 6.00 Build 0)  -->
<svg version="1.1" id="Icons" xmlns="http://www.w3.org/2000/svg" xmlns:xlink="http://www.w3.org/1999/xlink" x="0px" y="0px"
	 viewBox="0 0 50 50" style="enable-background:new 0 0 50 50;" xml:space="preserve">
<g>
	<g>
		<g>
			<g>
				<path d="M25,41.9c4.9,0,8.9-4,8.9-8.9c0-4.9-4-8.9-8.9-8.9s-8.9,4-8.9,8.9C16.1,38,20.1,41.9,25,41.9z M25,25.8
					c4,0,7.3,3.3,7.3,7.3S29,40.3,25,40.3s-7.3-3.3-7.3-7.3S21,25.8,25,25.8z"/>
				<rect x="24.2" y="19.4" width="1.6" height="3.2"/>
				<rect x="18.1" y="21" transform="matrix(0.866 -0.5 0.5 0.866 -8.7563 12.5024)" width="1.6" height="3.2"/>
				<rect x="13.7" y="25.4" transform="matrix(0.5 -0.866 0.866 0.5 -16.1365 26.0862)" width="1.6" height="3.2"/>
				<rect x="11.3" y="32.3" width="3.2" height="1.6"/>
				<rect x="12.9" y="38.3" transform="matrix(0.8661 -0.4999 0.4999 0.8661 -17.6066 12.4981)" width="3.2" height="1.6"/>
				<rect x="17.3" y="42.7" transform="matrix(0.4999 -0.8661 0.8661 0.4999 -28.2282 38.1914)" width="3.2" height="1.6"/>
				<rect x="24.2" y="43.5" width="1.6" height="3.2"/>
				<rect x="30.2" y="41.9" transform="matrix(0.866 -0.5 0.5 0.866 -17.612 21.3593)" width="1.6" height="3.2"/>
				<rect x="34.7" y="37.5" transform="matrix(0.5 -0.866 0.866 0.5 -16.1389 50.2803)" width="1.6" height="3.2"/>
				<rect x="35.5" y="32.3" width="3.2" height="1.6"/>
				<rect x="33.9" y="26.2" transform="matrix(0.8661 -0.4999 0.4999 0.8661 -8.7547 21.3522)" width="3.2" height="1.6"/>
				<rect x="29.4" y="20.2" transform="matrix(0.5 -0.866 0.866 0.5 -2.6417 37.3751)" width="3.2" height="1.6"/>
				<path d="M41.7,14.6C40.6,8.1,34.9,3.2,28.2,3.2c-6.1,0-11.4,4-13.1,9.7c-2.7-0.2-5.2,1-6.6,3.2C3.8,16.3,0,20.2,0,25
					c0,4.9,4,8.9,8.9,8.9h0.8v-1.6H8.9c-4,0-7.3-3.3-7.3-7.3s3.3-7.3,7.2-7.3l0.6,0l0.2-0.4c1-1.7,2.9-2.8,4.9-2.8
					c0.3,0,0.7,0,1,0.1l0.7,0.1l0.2-0.7c1.3-5.4,6.2-9.2,11.7-9.2c6.1,0,11.3,4.6,12,10.6l0.1,0.7l0.7,0.1c4.2,0.3,7.4,3.9,7.4,8
					c0,4.4-3.6,8.1-8.1,8.1v1.6c5.3,0,9.7-4.3,9.7-9.7C50,19.4,46.4,15.3,41.7,14.6z"/>
			</g>
		</g>
	</g>
</g>
</svg>
