<?xml version="1.0" encoding="utf-8"?>
<!-- Generator: Adobe Illustrator 19.2.1, SVG Export Plug-In . SVG Version: 6.00 Build 0)  -->
<svg version="1.1" id="Icons" xmlns="http://www.w3.org/2000/svg" xmlns:xlink="http://www.w3.org/1999/xlink" x="0px" y="0px"
	 viewBox="0 0 50 50" style="enable-background:new 0 0 50 50;" xml:space="preserve">
<g>
	<g>
		<g>
			<g>
				<path d="M41.7,25.9c-1.1-6.5-6.8-11.4-13.5-11.4c-1.2,0-2.4,0.2-3.5,0.5c-2-2.8-5.1-4.5-8.6-4.5c-5.8,0-10.5,4.7-10.5,10.5
					c0,2.4,0.8,4.7,2.3,6.5C3.5,28,0,31.7,0,36.3c0,4.9,4,8.9,8.9,8.9h31.5c5.3,0,9.7-4.3,9.7-9.7C50,30.7,46.4,26.6,41.7,25.9z
					 M7.3,21c0-4.9,4-8.9,8.9-8.9c2.8,0,5.3,1.3,7,3.4c-3.8,1.5-6.7,4.7-8,8.7c-0.2,0-0.4,0-0.6,0c-2,0-3.9,0.9-5.3,2.3
					C7.9,24.9,7.3,23,7.3,21z M40.3,43.5H8.9c-4,0-7.3-3.3-7.3-7.3S4.9,29,8.8,29l0.6,0l0.2-0.4c1-1.7,2.9-2.8,4.9-2.8
					c0.3,0,0.7,0,1.1,0.1l0.7,0.1l0.2-0.7c1.3-5.4,6.2-9.2,11.7-9.2c6.1,0,11.3,4.6,12,10.6l0.1,0.5c0,0.3,0,0.7,0,1
					c0,6.7-5.4,12.1-12.1,12.1v1.6c7.6,0,13.7-6.1,13.7-13.7c0-0.2,0-0.4,0-0.6c3.7,0.7,6.5,4,6.5,7.9
					C48.4,39.9,44.8,43.5,40.3,43.5z"/>
				<rect y="20.2" width="4" height="1.6"/>
				<rect x="24.1" y="10.2" transform="matrix(0.7071 -0.7071 0.7071 0.7071 -0.1233 21.6795)" width="4" height="1.6"/>
				<rect x="15.3" y="4.8" width="1.6" height="4"/>
				<rect x="5.3" y="9" transform="matrix(0.7071 -0.7072 0.7072 0.7071 -5.9679 7.5652)" width="1.6" height="4"/>
				<rect x="10.2" y="7.5" transform="matrix(0.9238 -0.3828 0.3828 0.9238 -2.4795 4.8856)" width="1.6" height="2.4"/>
				<rect x="3" y="14.7" transform="matrix(0.3827 -0.9239 0.9239 0.3827 -12.3009 13.3493)" width="1.6" height="2.4"/>
				<rect x="2.6" y="25.2" transform="matrix(0.9238 -0.3828 0.3828 0.9238 -9.6827 3.452)" width="2.4" height="1.6"/>
				<rect x="20" y="7.9" transform="matrix(0.3828 -0.9238 0.9238 0.3828 5.0837 24.9577)" width="2.4" height="1.6"/>
			</g>
		</g>
	</g>
</g>
</svg>
