<?xml version="1.0" encoding="utf-8"?>
<!-- Generator: Adobe Illustrator 19.2.1, SVG Export Plug-In . SVG Version: 6.00 Build 0)  -->
<svg version="1.1" id="Icons" xmlns="http://www.w3.org/2000/svg" xmlns:xlink="http://www.w3.org/1999/xlink" x="0px" y="0px"
	 viewBox="0 0 50 50" style="enable-background:new 0 0 50 50;" xml:space="preserve">
<g>
	<g>
		<g>
			<g>
				<g>
					<path d="M41.7,21.5c-1.1-6.5-6.8-11.4-13.5-11.4c-1.2,0-2.4,0.2-3.5,0.5c-2-2.8-5.1-4.5-8.6-4.5c-5.8,0-10.5,4.7-10.5,10.5
						c0,2.4,0.8,4.7,2.3,6.5C3.5,23.5,0,27.3,0,31.9c0,4.9,4,8.9,8.9,8.9v-1.6c-4,0-7.3-3.3-7.3-7.3s3.3-7.3,7.2-7.3l0.6,0l0.2-0.4
						c1-1.7,2.9-2.8,4.9-2.8c0.3,0,0.7,0,1.1,0.1l0.7,0.1l0.2-0.7c1.3-5.4,6.2-9.2,11.7-9.2c6.1,0,11.3,4.6,12,10.6l0.1,0.5
						c0,0.3,0,0.7,0,1c0,6.7-5.4,12.1-12.1,12.1v1.6c7.6,0,13.7-6.1,13.7-13.7c0-0.2,0-0.4,0-0.6c3.7,0.7,6.5,4,6.5,7.9
						c0,4.4-3.6,8.1-8.1,8.1v1.6c5.3,0,9.7-4.3,9.7-9.7C50,26.3,46.4,22.2,41.7,21.5z M15.1,19.8c-0.2,0-0.4,0-0.6,0
						c-2,0-3.9,0.9-5.3,2.3c-1.3-1.6-2-3.5-2-5.6c0-4.9,4-8.9,8.9-8.9c2.8,0,5.3,1.3,7,3.4C19.3,12.6,16.4,15.7,15.1,19.8z"/>
					<rect x="0" y="15.7" width="4" height="1.6"/>
					<rect x="24.1" y="5.8" transform="matrix(0.7071 -0.7071 0.7071 0.7071 3.007 20.3831)" width="4" height="1.6"/>
					<rect x="15.3" y="0.4" width="1.6" height="4"/>
					<rect x="5.3" y="4.5" transform="matrix(0.7071 -0.7072 0.7072 0.7071 -2.8353 6.2704)" width="1.6" height="4"/>
					<rect x="10.2" y="3" transform="matrix(0.9238 -0.3828 0.3828 0.9238 -0.7835 4.5483)" width="1.6" height="2.4"/>
					<rect x="3" y="10.2" transform="matrix(0.3827 -0.9239 0.9239 0.3827 -8.2036 10.6136)" width="1.6" height="2.4"/>
					<rect x="2.6" y="20.8" transform="matrix(0.9238 -0.3828 0.3828 0.9238 -7.9875 3.115)" width="2.4" height="1.6"/>
					<rect x="20" y="3.4" transform="matrix(0.3828 -0.9238 0.9238 0.3828 9.1766 22.2236)" width="2.4" height="1.6"/>
				</g>
			</g>
		</g>
	</g>
	<path d="M19.4,42.5L19.4,42.5c0-0.5-0.1-0.8-0.3-1.1l-1.7-2.9l-1.7,2.9c-0.2,0.3-0.3,0.7-0.3,1v0.1c0,1.1,0.9,2,2,2
		S19.4,43.7,19.4,42.5z M18.4,42.5c0,0.6-0.5,1-1,1s-1-0.5-1-1v-0.1c0-0.2,0-0.4,0.1-0.5l0.9-1.4l0.9,1.4
		C18.3,42.1,18.4,42.3,18.4,42.5L18.4,42.5z"/>
	<path d="M24.4,42.5L24.4,42.5c0-0.5-0.1-0.8-0.3-1.1l-1.7-2.9l-1.7,2.9c-0.2,0.3-0.3,0.7-0.3,1v0.1c0,1.1,0.9,2,2,2
		C23.5,44.6,24.4,43.7,24.4,42.5z M23.4,42.5c0,0.6-0.5,1-1,1s-1-0.5-1-1v-0.1c0-0.2,0-0.4,0.1-0.5l0.9-1.4l0.9,1.4
		C23.4,42.1,23.4,42.3,23.4,42.5L23.4,42.5z"/>
	<path d="M29.5,42.5L29.5,42.5c0-0.5-0.1-0.8-0.3-1.1l-1.7-2.9l-1.7,2.9c-0.2,0.3-0.3,0.7-0.3,1v0.1c0,1.1,0.9,2,2,2
		C28.6,44.6,29.5,43.7,29.5,42.5z M28.5,42.5c0,0.6-0.5,1-1,1s-1-0.5-1-1v-0.1c0-0.2,0-0.4,0.1-0.5l0.9-1.4l0.9,1.4
		C28.4,42.1,28.5,42.3,28.5,42.5L28.5,42.5z"/>
	<path d="M32.5,38.5l-1.7,2.9c-0.2,0.3-0.3,0.7-0.3,1v0.1c0,1.1,0.9,2,2,2c1.1,0,2-0.9,2-2v-0.1c0-0.4-0.1-0.7-0.3-1L32.5,38.5z
		 M33.5,42.5c0,0.6-0.5,1-1,1c-0.6,0-1-0.5-1-1v-0.1c0-0.2,0-0.4,0.1-0.5l0.9-1.4l0.9,1.4C33.4,42.1,33.5,42.3,33.5,42.5L33.5,42.5z
		"/>
	<path d="M14.9,43.6l-1.7,2.9c-0.2,0.3-0.3,0.7-0.3,1v0.1c0,1.1,0.9,2,2,2s2-0.9,2-2v-0.1c0-0.4-0.1-0.7-0.3-1L14.9,43.6z
		 M15.9,47.6c0,0.6-0.5,1-1,1c-0.6,0-1-0.5-1-1v-0.1c0-0.2,0-0.4,0.1-0.5l0.9-1.4l0.9,1.4C15.8,47.1,15.9,47.3,15.9,47.6L15.9,47.6z
		"/>
	<path d="M19.9,43.6l-1.7,2.9c-0.2,0.3-0.3,0.7-0.3,1v0.1c0,1.1,0.9,2,2,2c1.1,0,2-0.9,2-2v-0.1c0-0.4-0.1-0.7-0.3-1L19.9,43.6z
		 M20.9,47.6c0,0.6-0.5,1-1,1s-1-0.5-1-1v-0.1c0-0.2,0-0.4,0.1-0.5l0.9-1.4l0.9,1.4C20.8,47.1,20.9,47.3,20.9,47.6L20.9,47.6z"/>
	<path d="M24.9,43.6l-1.7,2.9c-0.2,0.3-0.3,0.7-0.3,1v0.1c0,1.1,0.9,2,2,2c1.1,0,2-0.9,2-2v-0.1c0-0.4-0.1-0.7-0.3-1L24.9,43.6z
		 M25.9,47.6c0,0.6-0.5,1-1,1c-0.6,0-1-0.5-1-1v-0.1c0-0.2,0-0.4,0.1-0.5l0.9-1.4l0.9,1.4C25.9,47.1,25.9,47.3,25.9,47.6L25.9,47.6z
		"/>
	<path d="M30,43.6l-1.7,2.9c-0.2,0.3-0.3,0.7-0.3,1v0.1c0,1.1,0.9,2,2,2s2-0.9,2-2v-0.1c0-0.4-0.1-0.7-0.3-1L30,43.6z M31,47.6
		c0,0.6-0.5,1-1,1s-1-0.5-1-1v-0.1c0-0.2,0-0.4,0.1-0.5l0.9-1.4l0.9,1.4C30.9,47.1,31,47.3,31,47.6L31,47.6z"/>
</g>
</svg>
