<?xml version="1.0" encoding="utf-8"?>
<!-- Generator: Adobe Illustrator 19.2.1, SVG Export Plug-In . SVG Version: 6.00 Build 0)  -->
<svg version="1.1" id="Icons" xmlns="http://www.w3.org/2000/svg" xmlns:xlink="http://www.w3.org/1999/xlink" x="0px" y="0px"
	 viewBox="0 0 50 50" style="enable-background:new 0 0 50 50;" xml:space="preserve">
<g>
	<g>
		<g>
			<g>
				<path d="M30.6,30.7V29H29v2.6l0.4,0.2c2.7,1.6,4.4,4.5,4.4,7.7c0,2.4-1,4.7-2.7,6.4c-1.8,1.7-4.1,2.6-6.5,2.5
					c-4.6-0.2-8.4-4.1-8.5-8.7c-0.1-3.2,1.6-6.3,4.4-7.9l0.4-0.2v-26c0-2.2,1.8-4,4-4s4,1.8,4,4v5.6h1.6V5.6C30.6,2.5,28.1,0,25,0
					s-5.6,2.5-5.6,5.6v25c-3.1,2-4.9,5.4-4.8,9.1c0.1,5.4,4.6,10,10.1,10.2c0.1,0,0.3,0,0.4,0c2.7,0,5.3-1,7.3-2.9
					c2.1-2,3.2-4.7,3.2-7.6C35.5,36,33.6,32.6,30.6,30.7z"/>
				<rect x="29" y="25.8" width="4.8" height="1.6"/>
				<rect x="29" y="22.6" width="4.8" height="1.6"/>
				<rect x="29" y="19.4" width="4.8" height="1.6"/>
				<rect x="29" y="16.1" width="4.8" height="1.6"/>
				<rect x="29" y="12.9" width="4.8" height="1.6"/>
			</g>
		</g>
	</g>
</g>
<g>
	<path d="M27,32.7V10h-4v22.7c-3,1-5,3.7-5,6.8c0,4,3.2,7.3,7.2,7.3c4,0,7-3.3,7-7.3C32.1,36.4,30,33.7,27,32.7z M26.2,42.6
		c-0.2,0.2-0.4,0.3-0.6,0.4c-0.2,0.1-0.5,0.2-0.7,0.3c-0.3,0.1-0.5,0.1-0.8,0.1c-0.5,0-1-0.1-1.5-0.3c-0.5-0.2-0.8-0.4-1.2-0.8
		s-0.6-0.7-0.8-1.2c-0.2-0.5-0.3-1-0.3-1.5s0.1-1,0.3-1.5c0.2-0.5,0.4-0.8,0.8-1.2s0.7-0.6,1.2-0.8c0.4-0.2,0.9-0.3,1.5-0.3
		c0.4,0,0.9,0.1,1.3,0.3c0.4,0.2,0.8,0.5,1.1,0.9l-0.6,0.5c-0.1-0.1-0.2-0.2-0.3-0.3s-0.3-0.2-0.4-0.3c-0.2-0.1-0.3-0.2-0.5-0.2
		s-0.4-0.1-0.6-0.1c-0.5,0-0.9,0.1-1.2,0.2c-0.4,0.2-0.7,0.4-0.9,0.7c-0.2,0.3-0.4,0.6-0.6,1s-0.2,0.8-0.2,1.2s0.1,0.8,0.2,1.2
		s0.3,0.7,0.6,1c0.2,0.3,0.6,0.5,0.9,0.7c0.4,0.2,0.8,0.2,1.2,0.2c0.2,0,0.4,0,0.6,0c0.2,0,0.4-0.1,0.5-0.2c0.2-0.1,0.3-0.2,0.5-0.3
		c0.2-0.1,0.3-0.3,0.4-0.5l0.6,0.4C26.6,42.3,26.4,42.4,26.2,42.6z M30,38.6c-0.1,0.1-0.3,0.2-0.5,0.3c-0.2,0.1-0.4,0.1-0.6,0.1
		s-0.4,0-0.6-0.1c-0.2-0.1-0.3-0.2-0.5-0.3c-0.1-0.1-0.2-0.3-0.3-0.5c-0.1-0.2-0.1-0.4-0.1-0.6s0-0.4,0.1-0.6
		c0.1-0.2,0.2-0.3,0.3-0.5c0.1-0.1,0.3-0.2,0.5-0.3c0.2-0.1,0.4-0.1,0.6-0.1s0.4,0,0.6,0.1c0.2,0.1,0.3,0.2,0.5,0.3s0.2,0.3,0.3,0.5
		c0.1,0.2,0.1,0.4,0.1,0.6s0,0.4-0.1,0.6C30.3,38.3,30.1,38.4,30,38.6z"/>
	<path d="M29.7,36.8c-0.1-0.1-0.2-0.2-0.3-0.2c-0.1-0.1-0.3-0.1-0.4-0.1s-0.3,0-0.4,0.1c-0.1,0.1-0.2,0.1-0.3,0.2
		c-0.1,0.1-0.2,0.2-0.2,0.3s-0.1,0.3-0.1,0.4s0,0.3,0.1,0.4s0.1,0.2,0.2,0.3c0.1,0.1,0.2,0.2,0.3,0.2c0.1,0.1,0.3,0.1,0.4,0.1
		s0.3,0,0.4-0.1c0.1-0.1,0.2-0.1,0.3-0.2c0.1-0.1,0.2-0.2,0.2-0.3c0.1-0.1,0.1-0.3,0.1-0.4s0-0.3-0.1-0.4
		C29.8,37,29.7,36.9,29.7,36.8z"/>
</g>
</svg>
