<?xml version="1.0" encoding="utf-8"?>
<!-- Generator: Adobe Illustrator 19.2.1, SVG Export Plug-In . SVG Version: 6.00 Build 0)  -->
<svg version="1.1" id="Icons" xmlns="http://www.w3.org/2000/svg" xmlns:xlink="http://www.w3.org/1999/xlink" x="0px" y="0px"
	 viewBox="0 0 50 50" style="enable-background:new 0 0 50 50;" xml:space="preserve">
<g>
	<g>
		<g>
			<g>
				<g>
					<path d="M41.6,11.5C40.5,5,34.9,0.2,28.2,0.2c-6,0-11.3,3.9-13,9.6c-0.2,0-0.4,0-0.6,0c-2.4,0-4.7,1.2-6,3.2
						c-4.7,0.2-8.4,4.1-8.4,8.8c0,4.9,4,8.8,8.8,8.8h31.2c5.3,0,9.6-4.3,9.6-9.6C49.8,16.2,46.3,12.2,41.6,11.5z M40.2,29H9
						c-4,0-7.2-3.2-7.2-7.2S5,14.6,9,14.6l0.6,0l0.2-0.4c1-1.7,2.9-2.8,4.8-2.8c0.3,0,0.7,0,1,0.1l0.7,0.1l0.2-0.7
						c1.3-5.4,6.1-9.1,11.6-9.1c6.1,0,11.2,4.5,11.9,10.5l0.1,0.5c0,0.3,0,0.7,0,1c0,6.6-5.4,12-12,12v1.6c7.5,0,13.6-6.1,13.6-13.6
						c0-0.2,0-0.4,0-0.6c3.7,0.7,6.4,4,6.4,7.8C48.2,25.4,44.6,29,40.2,29z"/>
					<path d="M13.4,38.6v-0.1c0-0.6-0.2-1.2-0.5-1.6l-2.7-4.6l-2.7,4.6C7.2,37.3,7,37.9,7,38.5v0.1c0,1.8,1.4,3.2,3.2,3.2
						S13.4,40.4,13.4,38.6z M11.8,38.6c0,0.9-0.7,1.6-1.6,1.6c-0.9,0-1.6-0.7-1.6-1.6v-0.1c0-0.3,0.1-0.6,0.2-0.8l1.4-2.3l1.4,2.3
						c0.1,0.2,0.2,0.5,0.2,0.8V38.6z"/>
					<path d="M27.8,32.2l-2.7,4.6c-0.3,0.5-0.5,1.1-0.5,1.6v0.1c0,1.8,1.4,3.2,3.2,3.2c1.8,0,3.2-1.4,3.2-3.2v-0.1
						c0-0.6-0.2-1.2-0.5-1.6L27.8,32.2z M29.4,38.6c0,0.9-0.7,1.6-1.6,1.6s-1.6-0.7-1.6-1.6v-0.1c0-0.3,0.1-0.6,0.2-0.8l1.4-2.3
						l1.4,2.3c0.1,0.2,0.2,0.5,0.2,0.8V38.6z"/>
					<path d="M44.8,32.2l-2.7,4.6c-0.3,0.5-0.5,1.1-0.5,1.6v0.1c0,1.8,1.4,3.2,3.2,3.2s3.2-1.4,3.2-3.2v-0.1c0-0.6-0.2-1.2-0.5-1.6
						L44.8,32.2z M46.4,38.6c0,0.9-0.7,1.6-1.6,1.6s-1.6-0.7-1.6-1.6v-0.1c0-0.3,0.1-0.6,0.2-0.8l1.4-2.3l1.4,2.3
						c0.1,0.2,0.2,0.5,0.2,0.8V38.6z"/>
					<path d="M6.2,40.3l-2.7,4.6C3.2,45.3,3,45.9,3,46.5v0.1c0,1.8,1.4,3.2,3.2,3.2s3.2-1.4,3.2-3.2v-0.1c0-0.6-0.2-1.2-0.5-1.6
						L6.2,40.3z M7.8,46.6c0,0.9-0.7,1.6-1.6,1.6s-1.6-0.7-1.6-1.6v-0.1c0-0.3,0.1-0.6,0.2-0.8l1.4-2.3l1.4,2.3
						c0.1,0.2,0.2,0.5,0.2,0.8V46.6z"/>
					<path d="M23.8,40.3L21,44.8c-0.3,0.5-0.5,1.1-0.5,1.6v0.1c0,1.8,1.4,3.2,3.2,3.2s3.2-1.4,3.2-3.2v-0.1c0-0.6-0.2-1.2-0.5-1.6
						L23.8,40.3z M25.4,46.6c0,0.9-0.7,1.6-1.6,1.6s-1.6-0.7-1.6-1.6v-0.1c0-0.3,0.1-0.6,0.2-0.8l1.4-2.3l1.4,2.3
						c0.1,0.2,0.2,0.5,0.2,0.8V46.6z"/>
					<path d="M40.8,40.3l-2.7,4.6c-0.3,0.5-0.5,1.1-0.5,1.6v0.1c0,1.8,1.4,3.2,3.2,3.2s3.2-1.4,3.2-3.2v-0.1c0-0.6-0.2-1.2-0.5-1.6
						L40.8,40.3z M42.4,46.6c0,0.9-0.7,1.6-1.6,1.6s-1.6-0.7-1.6-1.6v-0.1c0-0.3,0.1-0.6,0.2-0.8l1.4-2.3l1.4,2.3
						c0.1,0.2,0.2,0.5,0.2,0.8V46.6z"/>
					<polygon points="34.6,39.4 38.7,32.6 37.3,31.8 31.8,41 36.5,41 31.7,48.6 33,49.4 39.4,39.4 					"/>
				</g>
			</g>
		</g>
	</g>
	<polygon points="16.6,39.2 20.6,32.4 19.3,31.5 13.7,40.8 18.5,40.8 13.7,48.3 15,49.2 21.4,39.2 	"/>
</g>
</svg>
