<?xml version="1.0" encoding="utf-8"?>
<!-- Generator: Adobe Illustrator 19.2.1, SVG Export Plug-In . SVG Version: 6.00 Build 0)  -->
<svg version="1.1" id="Icons" xmlns="http://www.w3.org/2000/svg" xmlns:xlink="http://www.w3.org/1999/xlink" x="0px" y="0px"
	 viewBox="0 0 50 50" style="enable-background:new 0 0 50 50;" xml:space="preserve">
<g>
	<g>
		<g>
			<g>
				<path d="M8.9,30.6h31.5c5.3,0,9.7-4.3,9.7-9.7c0-4.8-3.6-8.9-8.3-9.6C40.6,4.9,34.9,0,28.2,0c-6.1,0-11.4,4-13.1,9.7
					c-2.7-0.2-5.2,1-6.6,3.2C3.8,13.1,0,17,0,21.8C0,26.7,4,30.6,8.9,30.6z M8.8,14.5l0.6,0l0.2-0.4c1-1.7,2.9-2.8,4.9-2.8
					c0.3,0,0.7,0,1,0.1l0.7,0.1l0.2-0.7c1.3-5.4,6.2-9.2,11.7-9.2c6.1,0,11.3,4.6,12,10.6l0.1,0.5c0,0.3,0,0.7,0,1
					c0,6.7-5.4,12.1-12.1,12.1v1.6c7.6,0,13.7-6.1,13.7-13.7c0-0.2,0-0.4,0-0.6c3.7,0.7,6.5,4,6.5,7.9c0,4.4-3.6,8.1-8.1,8.1H8.9
					c-4,0-7.3-3.3-7.3-7.3S4.9,14.5,8.8,14.5z"/>
				<path d="M43.5,36.3c0-2.2-1.8-4-4-4c-2.2,0-4,1.8-4,4v0.8h1.6v-0.8c0-1.3,1.1-2.4,2.4-2.4s2.4,1.1,2.4,2.4s-1.1,2.4-2.4,2.4H2.4
					v1.6h37.1C41.7,40.3,43.5,38.5,43.5,36.3z"/>
				<path d="M46,41.9H8.9v1.6H46c1.3,0,2.4,1.1,2.4,2.4s-1.1,2.4-2.4,2.4s-2.4-1.1-2.4-2.4v-0.8h-1.6V46c0,2.2,1.8,4,4,4
					c2.2,0,4-1.8,4-4C50,43.7,48.2,41.9,46,41.9z"/>
				<rect x="32.3" y="35.5" width="1.6" height="1.6"/>
				<rect x="29" y="35.5" width="1.6" height="1.6"/>
				<rect x="25.8" y="35.5" width="1.6" height="1.6"/>
				<rect x="38.7" y="45.2" width="1.6" height="1.6"/>
				<rect x="35.5" y="45.2" width="1.6" height="1.6"/>
				<rect x="32.3" y="45.2" width="1.6" height="1.6"/>
			</g>
		</g>
	</g>
</g>
</svg>
