<!-- Generated by IcoMoon.io -->
<svg version="1.1" xmlns="http://www.w3.org/2000/svg" width="32" height="32" viewBox="0 0 32 32">
<title>basketball-basket</title>
<path d="M12.288 13.312h7.488v5.312h-7.488v-5.312z"></path>
<path d="M10.112 11.2v7.488h1.088v-5.888c0-0.32 0.256-0.512 0.512-0.512h8.512c0.32 0 0.512 0.256 0.512 0.512v5.888h1.088v-7.488h-11.712z"></path>
<path d="M31.488 0h-30.976c-0.256 0-0.512 0.256-0.512 0.512v23.488c0 0.32 0.256 0.512 0.512 0.512h10.56c0.64 1.472 1.216 3.584 1.216 6.4 0 0.192 0.064 0.32 0.192 0.448s0.32 0.128 0.512 0.064l1.344-0.448 1.408 0.896c0.064 0.128 0.128 0.128 0.256 0.128s0.192 0 0.32-0.064l1.408-0.896 1.344 0.448c0.192 0.064 0.32 0 0.512-0.064 0.128-0.128 0.192-0.256 0.192-0.448 0-2.816 0.576-4.928 1.216-6.4h10.56c0.32 0 0.512-0.256 0.512-0.512v-23.552c-0.064-0.256-0.32-0.512-0.576-0.512zM11.776 23.552c-0.32-0.704-0.704-1.28-1.024-1.664h1.792c-0.064 0.576-0.384 1.152-0.768 1.664zM12.672 25.536c-0.064-0.128-0.128-0.256-0.192-0.384-0.064-0.192-0.128-0.384-0.192-0.576 0.32-0.384 0.64-0.832 0.896-1.28 0.128 0.512 0.384 0.96 0.64 1.472-0.384 0.32-0.704 0.576-1.152 0.768zM16.832 26.624c0.256-0.256 0.512-0.576 0.768-0.896 0.32 0.256 0.704 0.512 1.088 0.704-0.192 0.256-0.448 0.512-0.64 0.768-0.448-0.128-0.832-0.32-1.216-0.576zM17.216 28.032c-0.384 0.32-0.768 0.64-1.216 0.896-0.448-0.256-0.832-0.576-1.216-0.896 0.448-0.192 0.832-0.448 1.216-0.704 0.384 0.256 0.768 0.512 1.216 0.704zM17.472 23.936c-0.448-0.64-0.704-1.344-0.832-2.112h1.472c-0.128 0.768-0.32 1.472-0.64 2.112zM16.832 24.96c-0.256 0.384-0.576 0.704-0.832 0.96-0.32-0.32-0.576-0.64-0.832-0.96 0.32-0.448 0.64-0.896 0.832-1.408 0.192 0.512 0.512 0.96 0.832 1.408zM14.528 23.936c-0.32-0.64-0.512-1.344-0.64-2.112h1.472c-0.128 0.832-0.384 1.536-0.832 2.112zM14.4 25.728c0.256 0.32 0.512 0.576 0.768 0.896-0.384 0.256-0.768 0.448-1.216 0.64-0.256-0.256-0.448-0.512-0.64-0.768 0.384-0.256 0.768-0.512 1.088-0.768zM13.952 30.016l-0.576 0.192c0-0.576-0.064-1.088-0.128-1.6 0.128-0.064 0.32-0.064 0.448-0.128 0.384 0.384 0.832 0.768 1.28 1.088-0.32 0.128-0.704 0.32-1.024 0.448zM16 30.848l-0.512-0.32c0.192-0.064 0.384-0.192 0.512-0.256 0.192 0.128 0.32 0.192 0.512 0.256l-0.512 0.32zM18.688 30.208l-0.576-0.192c-0.384-0.128-0.704-0.32-1.024-0.448 0.448-0.32 0.896-0.704 1.28-1.088 0.128 0.064 0.32 0.064 0.448 0.128-0.064 0.512-0.128 1.024-0.128 1.6zM19.52 25.216c-0.064 0.128-0.128 0.256-0.192 0.384-0.384-0.192-0.768-0.448-1.088-0.768 0.256-0.448 0.448-0.96 0.64-1.472 0.256 0.448 0.512 0.896 0.896 1.28-0.128 0.192-0.192 0.384-0.256 0.576zM20.224 23.552c-0.384-0.512-0.64-1.088-0.832-1.664h1.792c-0.256 0.384-0.64 0.96-0.96 1.664zM29.312 22.4h-7.168c0.32-0.448 0.576-0.64 0.576-0.64 0.192-0.128 0.256-0.384 0.128-0.576-0.064-0.192-0.256-0.32-0.512-0.32h-12.736c-0.192 0-0.448 0.128-0.512 0.32s0 0.448 0.128 0.576c0 0 0.256 0.192 0.576 0.64h-7.104c-0.32 0-0.512-0.256-0.512-0.512v-19.2c0-0.32 0.256-0.512 0.512-0.512h26.688c0.32 0 0.512 0.256 0.512 0.512v19.2c0 0.256-0.256 0.512-0.576 0.512z"></path>
<path d="M3.2 3.2v18.112h4.8v-2.112c0-0.32 0.256-0.512 0.512-0.512h0.512v-8c0-0.32 0.256-0.512 0.512-0.512h12.8c0.32 0 0.512 0.256 0.512 0.512v8h0.512c0.32 0 0.512 0.256 0.512 0.512v2.112h4.928v-18.112h-25.6z"></path>
</svg>
