<!-- Generated by IcoMoon.io -->
<svg version="1.1" xmlns="http://www.w3.org/2000/svg" width="32" height="32" viewBox="0 0 32 32">
<title>beer</title>
<path d="M24.896 11.648h-2.24v2.56h2.24c0.896 0 1.664 0.768 1.664 1.664v7.168c0 0.896-0.704 1.664-1.664 1.664h-2.24v2.56h2.24c2.304 0 4.16-1.92 4.16-4.224v-7.168c0.064-2.304-1.856-4.224-4.16-4.224z"></path>
<path d="M18.496 8.704c-0.896 1.408-2.432 2.496-4.288 2.688-0.192 0-0.448 0-0.64 0-1.408 0-2.752-0.512-3.776-1.408-0.384-0.384-0.768-0.832-0.96-1.28h-5.248v21.76c0 0.832 0.704 1.536 1.536 1.536h14.912c0.832 0 1.472-0.704 1.472-1.536v-21.76h-3.008zM8.32 28.544c0 0.32-0.256 0.576-0.576 0.576s-0.576-0.256-0.576-0.576v-10.432c0-0.32 0.256-0.576 0.576-0.576s0.576 0.256 0.576 0.576v10.432zM13.184 28.544c0 0.32-0.256 0.576-0.576 0.576s-0.576-0.256-0.576-0.576v-9.408c0-0.32 0.256-0.576 0.576-0.576s0.576 0.256 0.576 0.576v9.408zM17.728 28.544c0 0.32-0.256 0.576-0.576 0.576s-0.576-0.256-0.576-0.576v-10.432c0-0.32 0.256-0.576 0.576-0.576s0.576 0.256 0.576 0.576v10.432z"></path>
<path d="M18.368 2.368c-0.96 0-1.856 0.32-2.496 0.96-0.128 0.128-0.384 0.192-0.576 0.128s-0.32-0.192-0.384-0.384c-0.64-1.856-2.368-3.072-4.288-3.072-2.048 0-3.84 1.344-4.352 3.328-0.064 0.256-0.384 0.448-0.64 0.448-0.128 0-0.192 0-0.32 0-1.28 0-2.304 1.088-2.304 2.368 0 0.512 0.192 1.024 0.448 1.408h5.056c-0.064-0.256-0.064-0.448-0.064-0.704 0-0.32 0.256-0.64 0.576-0.64s0.576 0.256 0.64 0.576c0 0.896 0.384 1.728 1.088 2.304 0.96 0.832 2.24 1.28 3.52 1.088 2.048-0.192 3.648-1.792 3.968-3.776 0.064-0.32 0.384-0.512 0.704-0.512 0.32 0.064 0.512 0.384 0.512 0.704-0.064 0.32-0.128 0.576-0.192 0.896h2.752c0.192-0.512 0.256-0.96 0.256-1.408-0.192-2.048-1.856-3.712-3.904-3.712z"></path>
</svg>
