<!-- Generated by IcoMoon.io -->
<svg version="1.1" xmlns="http://www.w3.org/2000/svg" width="32" height="32" viewBox="0 0 32 32">
<title>bread-croissant</title>
<path d="M27.264 0.64c-0.448-0.448-1.024-0.64-1.856-0.64-2.112 0-5.376 1.536-9.088 4.352-3.968 2.816-9.152 8.512-10.56 10.368-4.288 5.504-5.888 9.984-4.224 11.648 0.448 0.448 1.024 0.64 1.856 0.64v0c3.328 0 9.344-3.84 15.040-9.472 3.456-3.456 6.272-7.104 7.936-10.24 1.664-3.2 1.984-5.568 0.896-6.656zM9.984 19.328c-0.96-0.32-2.048-0.896-3.2-1.6-0.512-0.32-1.024-0.64-1.472-1.024 0.32-0.448 0.64-0.832 0.96-1.28 0.512 0.256 1.024 0.512 1.472 0.832 1.152 0.704 2.176 1.536 2.816 2.24 0.704 0.704 0.768 1.024 0.768 1.088-0.064 0-0.384 0.064-1.344-0.256zM17.408 13.312c0 0-0.128 0.064-0.384 0.064s-0.704-0.064-1.536-0.32c-1.28-0.448-2.816-1.152-4.352-2.176-0.192-0.128-0.448-0.256-0.64-0.448 0.64-0.64 1.28-1.28 1.92-1.856 0.064 0 0.128 0.064 0.128 0.064 1.536 0.96 2.88 2.048 3.84 2.944 0.896 1.088 1.088 1.664 1.024 1.728zM21.888 6.464c0 0-0.064 0.064-0.256 0.064s-0.512-0.064-1.088-0.256c-0.96-0.32-2.048-0.896-3.2-1.6 0 0-0.064 0-0.064-0.064 0.512-0.384 1.088-0.768 1.6-1.088 2.24 1.6 3.072 2.816 3.008 2.944z"></path>
<path d="M26.88 30.272v0 0c0.128-0.064 2.56-1.856 3.264-3.712l-7.808-5.504-2.432 1.728 2.368 9.216c2.048 0 4.544-1.6 4.608-1.728z"></path>
<path d="M23.36 20.416l6.592 4.608c0.64-1.024 0.96-2.112 1.152-2.88 0.128-0.512 0-1.088-0.32-1.472-0.064-0.064-0.128-0.192-0.192-0.256l-6.656-1.024-0.576 1.024z"></path>
<path d="M17.856 31.296c0.768 0.128 1.856 0.192 3.072 0l-1.984-7.808-1.088 0.128-1.408 6.592c0.064 0.064 0.064 0.192 0.128 0.256 0.256 0.448 0.704 0.704 1.28 0.832z"></path>
<path d="M14.656 28.992c0.256 0.192 0.512 0.32 0.768 0.384l1.088-4.928c-1.024-0.064-1.984-0.32-2.56-0.576-0.384-0.128-0.832-0.064-1.152 0.128 0 0-0.064 0.064-0.064 0.064-0.384 0.256-0.512 0.704-0.448 1.152 0.128 1.536 0.96 2.88 2.368 3.776z"></path>
<path d="M30.144 19.2c0-0.256-0.064-0.512-0.128-0.832-0.32-1.6-1.28-2.88-2.688-3.648-0.384-0.192-0.832-0.192-1.216 0.064 0 0-0.064 0.064-0.064 0.064-0.32 0.256-0.576 0.64-0.576 1.024 0 0.64-0.064 1.664-0.384 2.624l5.056 0.704z"></path>
</svg>
