<!-- Generated by IcoMoon.io -->
<svg version="1.1" xmlns="http://www.w3.org/2000/svg" width="32" height="32" viewBox="0 0 32 32">
<title>butcher-shop</title>
<path d="M7.488 9.024v2.432c0 0.192 0.192 0.384 0.384 0.384h1.152c0.192 0 0.384-0.192 0.384-0.384v-2.432c-0.32 0.128-0.64 0.192-0.96 0.192s-0.64-0.128-0.96-0.192z"></path>
<path d="M14.528 2.24c-0.192 0.128-0.32 0.32-0.384 0.512-0.192 0.448-0.64 0.64-1.024 0.64 0 0 0 0 0 0h4.352c0.064 0.064 0.192 0.064 0.256 0.064 0 0 0 0 0 0 0.128 0 0.192-0.064 0.256-0.064h1.472c0.192-0.064 0.448-0.128 0.64-0.064 0.064 0 0.064 0.064 0.128 0.064h0.128c-0.064-0.064-0.192-0.064-0.256-0.128-0.32-0.256-0.512-0.704-0.384-1.088h-1.6c-0.256-0.832-0.704-1.28-1.152-1.472-0.256-0.128-0.576-0.064-0.704 0.256-0.128 0.256-0.064 0.576 0.256 0.704 0.192 0.064 0.384 0.256 0.512 0.512h-0.64c-0.064 0-0.064-0.064-0.128-0.064-0.32-0.192-0.512-0.512-0.576-0.832-0.128 0.384-0.384 0.64-0.768 0.704-0.128 0.128-0.256 0.192-0.384 0.256z"></path>
<path d="M11.008 3.392h1.6c0.064 0 0.128-0.064 0.192-0.064 0 0 0.064 0 0.064 0-0.064 0-0.064 0-0.128-0.064-0.448-0.192-0.704-0.64-0.64-1.088h-2.56c0.576 0.256 1.088 0.704 1.472 1.216z"></path>
<path d="M7.36 2.24h-6.784c-0.32 0-0.576 0.256-0.576 0.576s0.256 0.576 0.576 0.576h5.312c0.384-0.512 0.896-0.96 1.472-1.152z"></path>
<path d="M6.016 5.632c0 1.536 1.088 2.816 2.432 2.816s2.432-1.28 2.432-2.816c0-1.536-1.088-2.816-2.432-2.816s-2.432 1.216-2.432 2.816z"></path>
<path d="M10.688 9.408c0 0-0.192 0-0.448 0v6.656h1.408v-2.112l0.832 1.216c0.192 0.32 0.576 0.512 0.96 0.512 0.064 0 0.064 0 0.128 0l2.688-0.32c0.64-0.064 1.088-0.64 1.024-1.28s-0.64-1.088-1.28-1.024l-1.984 0.256-2.24-3.328c-0.32-0.448-0.704-0.576-1.088-0.576z"></path>
<path d="M25.536 7.488c0.256 0 0.448-0.192 0.512-0.384 0 0 0.128-0.448 0.192-1.152 0-0.32-0.192-0.576-0.512-0.576-0.256 0-0.576 0.192-0.576 0.512-0.064 0.576-0.128 0.96-0.128 0.96-0.064 0.256 0.128 0.576 0.384 0.64 0 0 0.064 0 0.128 0z"></path>
<path d="M19.52 7.040c0.256 0 0.512-0.256 0.512-0.512 0-0.704 0.128-1.408 0.32-2.048 0.064-0.256-0.064-0.576-0.384-0.64s-0.576 0.064-0.64 0.384c-0.192 0.704-0.32 1.472-0.32 2.24-0.064 0.32 0.192 0.576 0.512 0.576 0 0 0 0 0 0z"></path>
<path d="M20.736 2.944c0.192 0 0.32-0.064 0.448-0.192 0.384-0.512 0.896-0.832 1.408-0.896 0.256 0 0.448-0.256 0.448-0.576s-0.256-0.512-0.576-0.512c-0.832 0.064-1.6 0.512-2.176 1.28-0.192 0.256-0.128 0.576 0.128 0.768 0.064 0.128 0.192 0.128 0.32 0.128z"></path>
<path d="M20.224 11.328c0.064 0 0.128 0 0.256-0.064 0.256-0.128 0.384-0.448 0.256-0.704-0.256-0.512-0.448-1.216-0.576-1.92-0.064-0.32-0.32-0.512-0.64-0.448s-0.512 0.32-0.448 0.64c0.128 0.832 0.32 1.6 0.64 2.24 0.128 0.128 0.32 0.256 0.512 0.256z"></path>
<path d="M17.6 4.544c-0.256-0.064-0.576 0.064-0.64 0.384-0.192 0.576-0.448 1.216-0.768 1.92-0.128 0.256 0 0.576 0.256 0.704 0.064 0.064 0.128 0.064 0.192 0.064 0.192 0 0.384-0.128 0.512-0.32 0.32-0.704 0.576-1.408 0.768-2.048 0.128-0.32-0.064-0.576-0.32-0.704z"></path>
<path d="M12.992 8.768c0.32 1.216 0.64 2.048 0.64 2.112 0.064 0.192 0.256 0.32 0.512 0.32 0.064 0 0.128 0 0.192-0.064 0.256-0.128 0.384-0.384 0.32-0.704 0 0-0.32-0.832-0.64-1.984-0.064-0.256-0.384-0.448-0.64-0.384-0.32 0.128-0.512 0.448-0.384 0.704z"></path>
<path d="M12.8 3.904c0 0 0 0 0 0-0.32 0-0.512 0.256-0.512 0.512 0 0.64 0.064 1.408 0.192 2.24 0.064 0.256 0.256 0.448 0.512 0.448 0 0 0.064 0 0.064 0 0.32-0.064 0.512-0.32 0.448-0.64-0.128-0.768-0.192-1.408-0.192-2.048 0-0.256-0.256-0.512-0.512-0.512z"></path>
<path d="M12.928 2.816c0.064 0 0.128 0.064 0.192 0.064 0.192 0 0.384-0.128 0.512-0.32 0.256-0.576 0.64-0.896 1.152-1.024 0.256-0.064 0.448-0.384 0.384-0.64s-0.32-0.448-0.64-0.384c-0.896 0.192-1.536 0.768-1.92 1.664-0.064 0.256 0.064 0.576 0.32 0.64z"></path>
<path d="M29.056 17.536h-17.472v-0.704h-1.024v0.704h-4.16v-0.704h-1.088v0.704h-1.792c-0.128 0-0.192 0-0.256 0 0.064-0.064 0.128-0.128 0.192-0.192l1.984-3.2v1.856h1.344v-6.592c-0.256 0-0.448 0-0.448 0-0.448 0-0.832 0.192-1.088 0.512l-3.84 6.208c-0.32 0.576-0.192 1.28 0.384 1.6 0.128 0.128 0.32 0.192 0.512 0.192-0.512 0.384-0.896 0.96-0.896 1.664v11.648c0 0.256 0.192 0.448 0.448 0.448h1.344c0.256 0 0.448-0.192 0.448-0.448v-5.76h1.6v3.968c0 0.768 0.64 1.408 1.408 1.408s1.408-0.64 1.408-1.408v-3.904h0.576v3.904c0 0.768 0.64 1.408 1.408 1.408s1.408-0.64 1.408-1.408v-3.968h17.28v5.76c0 0.256 0.192 0.448 0.448 0.448h1.344c0.256 0 0.448-0.192 0.448-0.448v-11.648c0.128-1.088-0.768-2.048-1.92-2.048z"></path>
<path d="M26.944 11.712h-0.128c-1.664 0-3.008 0.704-3.008 1.536 0 0.896 1.408 1.664 3.072 1.664h0.128c1.664 0 3.008-0.704 3.008-1.536 0-0.896-1.408-1.664-3.072-1.664zM27.52 14.464c-0.576 0-1.024-0.256-1.024-0.64 0-0.32 0.512-0.576 1.088-0.576s1.024 0.256 1.024 0.64c0 0.384-0.512 0.64-1.088 0.576z"></path>
<path d="M30.72 3.392h0.704c0.32 0 0.576-0.256 0.576-0.576s-0.256-0.576-0.576-0.576h-1.088c0.064-0.768 0.256-0.896 0.256-0.896 0.064 0 0.128 0 0.192 0.064 0.256 0.128 0.576 0.128 0.704-0.128 0.192-0.256 0.128-0.576-0.128-0.768s-0.832-0.384-1.344-0.064c-0.448 0.256-0.768 0.896-0.832 1.792h-3.776c-0.192-0.256-0.384-0.512-0.64-0.768-0.128-0.192-0.448-0.128-0.64 0.128-0.128 0.192-0.128 0.448 0 0.64h-0.576c-0.064-0.128-0.064-0.32-0.064-0.448-0.064 0.192-0.192 0.384-0.384 0.448-0.128 0.128-0.32 0.192-0.512 0.192-0.128 0-0.576 0.064-1.024 0.64-0.128 0.192-0.32 0.256-0.512 0.32h3.904c0 0.192 0.064 0.32 0.128 0.448 0.064 0.256 0.256 0.448 0.512 0.448 0.064 0 0.064 0 0.128 0 0.256-0.064 0.448-0.32 0.384-0.64 0-0.064-0.064-0.128-0.064-0.192h2.944c-0.192 1.664-0.96 3.904-3.52 5.952-0.832 0.64-1.728 1.472-2.368 2.24-0.128 0.128-0.256 0.32-0.32 0.448-0.064 0-0.064 0-0.128 0-0.256 0-0.512-0.064-0.768-0.192s-0.576-0.064-0.704 0.256c-0.128 0.256-0.064 0.576 0.256 0.704 0.256 0.128 0.576 0.192 0.896 0.256-0.064 0.192-0.064 0.384-0.064 0.512 0 1.088 1.088 2.048 4.096 2.624 7.040 1.408 5.504-6.4 5.504-6.4s-0.768-5.504-1.152-6.464zM27.008 15.424h-0.128c-2.048-0.064-3.584-1.024-3.584-2.176s1.6-2.048 3.52-2.048h0.128c2.048 0.064 3.584 1.024 3.584 2.176s-1.6 2.048-3.52 2.048z"></path>
</svg>
