<!-- Generated by IcoMoon.io -->
<svg version="1.1" xmlns="http://www.w3.org/2000/svg" width="32" height="32" viewBox="0 0 32 32">
<title>cocktail</title>
<path d="M25.92 9.664c0 0 0-0.064-0.064-0.064-0.064-0.064-0.128-0.192-0.256-0.192 0 0 0 0 0 0s0 0 0 0c-0.064 0-0.192-0.064-0.256-0.064 0 0-0.064 0-0.064 0-0.064 0-0.128 0-0.192 0.064-0.064 0-0.128 0.064-0.192 0.064 0 0-0.064 0-0.064 0l-0.256 0.256c-0.064 0-0.128 0.064-0.192 0.064s-0.128 0.064-0.256 0.064c-0.128 0-0.256 0.064-0.384 0.064s-0.192 0.064-0.32 0.064c-0.128 0-0.32 0.064-0.512 0.064-0.128 0-0.256 0.064-0.448 0.064s-0.448 0.064-0.64 0.064c-0.192 0-0.32 0.064-0.512 0.064-0.256 0-0.512 0.064-0.768 0.064-0.192 0-0.384 0.064-0.576 0.064-0.32 0-0.64 0.064-0.96 0.064-0.192 0-0.384 0-0.64 0.064-0.384 0-0.768 0-1.216 0.064-0.192 0-0.384 0-0.576 0-0.64 0-1.28 0-1.984 0-0.64 0-1.216 0-1.792 0-0.192 0-0.384 0-0.512 0s-0.32 0-0.448 0l-0.832-1.216c1.088-0.064 2.304-0.064 3.584-0.064h2.688c0.384 0 0.64-0.32 0.64-0.64s-0.32-0.64-0.64-0.64h-2.688c-1.472 0-3.072 0-4.544 0.128l-2.176-3.072 5.76-3.84c0.256-0.192 0.384-0.448 0.256-0.768-0.064-0.256-0.32-0.448-0.64-0.448h-9.216c-0.256 0-0.512 0.192-0.64 0.448l-2.688 8c-0.064 0.256 0 0.576 0.256 0.768 0.128 0.064 0.256 0.128 0.384 0.128s0.256-0.064 0.384-0.128l5.12-3.456 1.728 2.432c-2.496 0.192-4.544 0.64-5.056 1.344 0 0-0.064 0.064-0.064 0.064-0.064 0.128-0.128 0.192-0.128 0.32s0.064 0.192 0.064 0.32c0 0 0.064 0.064 0.064 0.064 0.064 0.064 0.064 0.128 0.192 0.192 0 0 0 0 0 0l10.304 10.304v7.104c-5.312 0.64-5.312 1.472-5.312 1.92 0 1.92 4.992 1.984 6.016 1.984s6.016-0.128 6.016-1.984c0-0.512 0-1.28-5.312-1.92v-6.976l10.304-10.304c0 0 0 0 0 0 0.064-0.064 0.128-0.128 0.192-0.192 0 0 0.064-0.064 0.064-0.064 0.064-0.128 0.064-0.192 0.064-0.32 0-0.192 0-0.256-0.064-0.384zM9.728 10.496c-0.192 0-0.32 0-0.512-0.064-0.32 0-0.576-0.064-0.896-0.064-0.128 0-0.256 0-0.384-0.064-0.384-0.064-0.768-0.064-1.088-0.128-0.064 0-0.128 0-0.192 0-0.256-0.064-0.512-0.064-0.704-0.128-0.064 0-0.192 0-0.256-0.064-0.128 0-0.192-0.064-0.32-0.064 0.832-0.192 2.24-0.384 4.032-0.512l0.768 1.024c-0.128 0.128-0.256 0.064-0.448 0.064z"></path>
<path d="M25.344 3.968c-3.008 0-5.632 2.432-6.016 5.312 2.368-0.128 4.032-0.512 4.672-0.64 0.384-0.384 0.768-0.64 1.344-0.64 0.256 0 0.512 0.064 0.768 0.128 0.768 0.32 1.216 1.024 1.216 1.856 0 0.64-0.32 1.216-0.832 1.664l-2.752 2.752-0.128 0.64c-0.064 0.192 0 0.384 0.064 0.512 0.128 0.128 0.256 0.256 0.448 0.256 0.384 0.064 0.832 0.128 1.216 0.128 3.328 0 6.016-2.688 6.016-6.016s-2.688-5.952-6.016-5.952z"></path>
</svg>
