<!-- Generated by IcoMoon.io -->
<svg version="1.1" xmlns="http://www.w3.org/2000/svg" width="32" height="32" viewBox="0 0 32 32">
<title>forest</title>
<path d="M30.848 18.496c-0.32 0-0.64 0-1.024 0-0.704 0-1.536 0.064-2.496 0.128l-0.064-3.648c0.384 0.128 0.768 0.192 1.216 0.192 1.984 0 3.584-1.6 3.584-3.584 0-1.152-0.512-2.176-1.408-2.816 0-0.192 0.064-0.32 0.064-0.512 0-1.344-0.832-2.496-2.112-2.944 0.128-0.32 0.192-0.704 0.192-1.088 0-1.728-1.408-3.072-3.072-3.072s-3.072 1.408-3.072 3.072c0 0 0 0.064 0 0.064-1.6 0.192-2.816 1.536-2.816 3.072 0 0.768 0.32 1.536 0.832 2.048-0.704 0.64-1.088 1.6-1.088 2.56 0 1.984 1.6 3.584 3.584 3.584 0.448 0 0.832-0.064 1.216-0.192l-0.064 3.712c-1.92 0.384-4.16 0.96-6.72 1.92-5.248 1.92-9.408 4.288-11.456 5.504-1.408 0.832-2.56 1.664-3.456 2.368-1.28 1.024-1.344 1.344-1.28 1.6 0.064 0.192 0.192 0.384 0.512 0.384h28.8c0 0 0.064 0 0.128 0 0.192 0 0.448 0 0.768-0.256 0.192-0.192 0.512-0.512 0.512-1.152v-9.792c-0.128-0.512-0.32-1.088-1.28-1.152z"></path>
<path d="M15.936 19.264c0.192-0.064 0.32-0.256 0.32-0.448s-0.064-0.32-0.192-0.448c-1.664-1.024-4.16-1.92-6.72-2.56l-0.064-3.072c0.256 0.064 0.512 0.128 0.832 0.128 1.536 0 2.752-1.216 2.752-2.752 0-0.832-0.384-1.664-1.088-2.176 0-0.128 0-0.256 0-0.384 0-1.024-0.64-1.856-1.536-2.24 0.064-0.256 0.128-0.512 0.128-0.768 0-1.344-1.088-2.368-2.368-2.368-1.344 0-2.368 1.088-2.368 2.368-1.152 0.256-2.048 1.216-2.048 2.432 0 0.576 0.192 1.088 0.576 1.536-0.512 0.512-0.768 1.216-0.768 1.92 0 1.536 1.216 2.752 2.752 2.752 0.256 0 0.576-0.064 0.832-0.128l-0.064 2.24c-1.472-0.256-2.88-0.448-3.968-0.448-1.92 0-2.88 0.448-2.88 1.344v10.816c0 0.448 0.256 0.64 0.512 0.64 0.192 0 0.384-0.128 0.384-0.128 0.128-0.128 0.256-0.192 0.384-0.256 0.96-0.768 2.176-1.6 3.648-2.496 1.856-1.28 5.888-3.584 10.944-5.504z"></path>
</svg>
