<!-- Generated by IcoMoon.io -->
<svg version="1.1" xmlns="http://www.w3.org/2000/svg" width="32" height="32" viewBox="0 0 32 32">
<title>fruits</title>
<path d="M16.448 18.048c0.064-0.448 0.256-0.896 0.512-1.28 0.192-0.32 0.512-0.576 0.768-0.768-0.064-0.128-0.064-0.256-0.064-0.384-0.128-0.832 0.064-1.6 0.512-2.24-0.64-0.448-1.088-1.152-1.216-1.984-0.064-0.512 0-1.024 0.128-1.536 0 0 0 0 0 0-2.944-2.56-5.44-1.408-6.72-0.704-0.64 0.384-1.152 0.512-1.472 0.576-0.32 0-0.832 0.064-1.536-0.128-1.408-0.256-4.16-0.512-6.144 2.816-0.704 1.152-0.448 3.328 0.384 5.568l14.848 0.064zM4.864 11.776c0.896-0.512 1.728 0.896 0.832 1.408-1.408 0.768-1.6 2.176-0.576 3.392 0.64 0.832-0.512 1.984-1.152 1.152-1.664-1.984-1.536-4.608 0.896-5.952z"></path>
<path d="M4.544 2.88c-0.768-0.512-1.344 0.768-0.576 1.216 2.112 1.344 3.648 1.984 4.096 4.608 0.128 0.896 1.536 0.768 1.344-0.128-0.064-0.256-0.128-0.576-0.192-0.832-0.448-0.128-0.96-0.512-1.28-1.472-0.128-0.384-0.128-0.704-0.128-1.024-0.832-0.832-1.92-1.536-3.264-2.368z"></path>
<path d="M19.648 18.048c-0.448-0.192-0.896-0.448-1.216-0.832-0.128-0.192-0.256-0.32-0.384-0.576-0.192 0.128-0.384 0.32-0.512 0.512-0.192 0.256-0.32 0.576-0.384 0.896h2.496z"></path>
<path d="M22.208 18.048c0 0 0-0.064 0-0.064-0.064 0-0.064 0.064-0.128 0.064h0.128z"></path>
<path d="M21.696 13.632c-0.32 0.192-0.704 0.384-1.152 0.448-0.192 0-0.32 0.064-0.512 0.064-0.448 0-0.896-0.128-1.344-0.32-0.064 0.128-0.128 0.192-0.192 0.32-0.192 0.448-0.32 0.96-0.192 1.472 0 0.064 0 0.128 0.064 0.128 0 0.128 0.064 0.192 0.064 0.32 0 0.064 0.064 0.064 0.064 0.128s0.064 0.128 0.064 0.128c0.448 0.768 1.216 1.28 2.176 1.28 0.128 0 0.256 0 0.384-0.064 0.192 0 0.384-0.064 0.512-0.128 0.064-0.064 0.192-0.064 0.256-0.128 0-0.064 0-0.128-0.064-0.128 0 0 0 0 0 0-0.064-0.192-0.064-0.384-0.064-0.576 0-0.64 0.192-1.216 0.576-1.728-0.256-0.32-0.448-0.768-0.64-1.216z"></path>
<path d="M22.528 17.024c0 0.064 0 0.064 0 0.128s0 0.064 0 0.128 0 0.128 0.064 0.192c0 0.064 0.064 0.064 0.064 0.128s0.064 0.128 0.064 0.192 0.128 0.192 0.192 0.32h3.968c0-0.064 0.064-0.064 0.064-0.128-0.704-0.448-1.28-1.216-1.408-2.112 0-0.064 0-0.064 0-0.128-0.128 0.064-0.32 0.064-0.448 0.128-0.192 0-0.32 0.064-0.512 0.064-0.32 0-0.576-0.064-0.896-0.128-0.128 0-0.192-0.064-0.32-0.128s-0.192-0.064-0.32-0.128c-0.064-0.064-0.192-0.128-0.256-0.192-0.32 0.448-0.448 1.024-0.384 1.6 0.128 0 0.128 0 0.128 0.064z"></path>
<path d="M21.632 12.16c0.128-0.64 0.448-1.216 0.896-1.664-0.192-1.152-1.216-2.048-2.432-2.048-0.128 0-0.256 0-0.384 0.064-0.64 0.128-1.216 0.448-1.6 1.024-0.192 0.32-0.384 0.64-0.448 1.024-0.064 0.256-0.064 0.576 0 0.832 0.064 0.576 0.384 1.024 0.768 1.408 0.064 0.064 0.128 0.128 0.192 0.192s0.192 0.128 0.256 0.192c0.128 0.064 0.192 0.128 0.32 0.128 0.256 0.128 0.576 0.128 0.832 0.128 0.128 0 0.256 0 0.384-0.064 0.384-0.064 0.768-0.256 1.088-0.512 0 0 0 0 0-0.064 0-0.128 0-0.192 0-0.32 0.064-0.064 0.128-0.192 0.128-0.32z"></path>
<path d="M23.104 14.592c0 0 0.064 0.064 0.064 0.064 0.064 0.064 0.128 0.128 0.192 0.128 0.064 0.064 0.128 0.064 0.192 0.128 0.128 0.064 0.192 0.128 0.32 0.128 0.256 0.064 0.512 0.128 0.832 0.128 0.128 0 0.256 0 0.384-0.064 0.192 0 0.384-0.064 0.576-0.192 0-0.256 0.064-0.448 0.128-0.64 0.064-0.128 0.064-0.192 0.128-0.32s0.128-0.192 0.192-0.32c0.064-0.064 0.064-0.128 0.128-0.256 0.256-0.384 0.576-0.64 0.96-0.832 0-0.128 0-0.192 0-0.32-0.128-0.832-0.704-1.536-1.472-1.856 0-0.128 0.064-0.192 0.064-0.32 0.064-0.128 0.064-0.192 0.128-0.32 0.704-1.792 2.176-3.072 3.84-4.096 0.704-0.448 0.192-1.6-0.512-1.152-2.048 1.28-3.776 2.816-4.544 5.056-0.064 0.128-0.064 0.256-0.128 0.32-0.064 0.128-0.064 0.192-0.064 0.32-0.064 0-0.064 0-0.128 0-0.448 0.064-0.832 0.256-1.152 0.512-0.128 0.064-0.192 0.192-0.32 0.32-0.32 0.384-0.512 0.832-0.576 1.344 0 0.064 0 0.192 0 0.256s0 0.064 0 0.128c0 0.128 0 0.192 0 0.32 0 0 0 0 0 0 0 0.064 0 0.064 0 0.064 0.064 0.448 0.32 0.832 0.576 1.088 0 0.256 0.128 0.32 0.192 0.384z"></path>
<path d="M27.648 17.472c0.128 0.064 0.192 0.064 0.32 0.128 0.256 0.064 0.512 0.128 0.832 0.128 0.128 0 0.256 0 0.384-0.064 0.64-0.128 1.216-0.448 1.6-1.024 0.384-0.512 0.512-1.216 0.448-1.856-0.192-1.216-1.216-2.048-2.432-2.048-0.128 0-0.256 0-0.384 0.064-0.192 0-0.384 0.064-0.576 0.192-0.128 0.064-0.256 0.128-0.384 0.192-0.128 0.128-0.32 0.192-0.448 0.32s-0.192 0.192-0.256 0.32c-0.064 0.064-0.064 0.128-0.064 0.128-0.064 0.064-0.128 0.192-0.192 0.32 0 0.064-0.064 0.128-0.064 0.192s-0.064 0.128-0.064 0.128c-0.064 0.128-0.064 0.256-0.064 0.384s0 0.256 0 0.384c0 0.128 0 0.192 0 0.32 0.128 0.704 0.512 1.28 1.024 1.6 0.128 0.128 0.192 0.192 0.32 0.192z"></path>
<path d="M27.328 8.704c-1.856 3.2 3.264 3.52 4.672 2.176 0 0-2.88-5.312-4.672-2.176z"></path>
<path d="M15.552 29.248c8.576 0 15.552-2.048 15.552-10.624h-31.104c0 8.576 6.976 10.624 15.552 10.624z"></path>
<path d="M12.416 4.608c-0.384-0.064-1.088-0.128-1.792-0.128-1.088 0-1.856 0.192-2.112 0.64-0.192 0.192-0.192 0.512-0.064 0.896 0 0.064 0 0.064 0 0.128 0.128 0.384 0.32 0.64 0.512 0.832s0.448 0.32 0.768 0.32c1.024 0 2.24-1.28 2.688-2.688z"></path>
</svg>
