<!-- Generated by IcoMoon.io -->
<svg version="1.1" xmlns="http://www.w3.org/2000/svg" width="32" height="32" viewBox="0 0 32 32">
<title>groceries</title>
<path d="M24 4.544h-2.304c-1.28 0-2.304 1.024-2.304 2.304v0.064c1.408 0.768 2.24 2.24 2.304 3.84 0.32 0.128 0.576 0.32 0.768 0.64 0.128 0.192 0.384 0.256 0.64 0.128 0.064-0.064 0.064-0.064 0.128-0.128 0.448-0.768 1.408-0.96 2.176-0.512 0.064 0.064 0.192 0.128 0.256 0.192l0.64-0.768v-3.456c0-1.28-1.024-2.304-2.304-2.304z"></path>
<path d="M24 0h-2.304c-0.32 0-0.576 0.256-0.576 0.576v0 0.576h3.456v-0.576c0-0.32-0.256-0.576-0.576-0.576z"></path>
<path d="M13.696 3.968c0-0.96-0.768-1.728-1.728-1.728s-1.728 0.768-1.728 1.728v6.784c0.704-0.32 1.536 0 1.92 0.64v0c0.064 0.128 0.256 0.192 0.448 0.192-0.256-1.344 0.128-2.752 1.088-3.776v-3.84zM11.008 5.888l0.576-0.576c0.256-0.192 0.576-0.192 0.832 0 0.192 0.192 0.192 0.576 0 0.832l-0.576 0.576c-0.256 0.192-0.576 0.192-0.832 0-0.192-0.256-0.192-0.64 0-0.832zM12.416 8.384l-0.576 0.576c-0.256 0.192-0.576 0.192-0.832 0-0.192-0.192-0.192-0.576 0-0.832l0.576-0.576c0.256-0.192 0.576-0.192 0.832 0 0.192 0.256 0.192 0.64 0 0.832z"></path>
<path d="M22.848 2.304c-0.32 0-0.576 0.256-0.576 0.576v0.576h1.152v-0.576c0-0.32-0.256-0.576-0.576-0.576z"></path>
<path d="M26.048 12.352c-0.064 0.064-0.128 0.064-0.128 0.128 0 0 0 0 0 0-0.064 0-0.064 0.064-0.128 0.064-0.128 0.064-0.256 0.064-0.384-0.064-0.064 0-0.064-0.064-0.128-0.064 0 0 0 0 0 0-0.064-0.064-0.064-0.128-0.128-0.128l-0.192-0.256c-0.128-0.192-0.384-0.256-0.576-0.128-0.064 0.064-0.128 0.064-0.128 0.128-0.448 0.768-1.408 0.96-2.176 0.512-0.192-0.128-0.384-0.32-0.512-0.512s-0.384-0.256-0.64-0.128c-0.064 0.064-0.064 0.064-0.128 0.128-0.448 0.768-1.408 0.96-2.176 0.512-0.192-0.128-0.384-0.32-0.512-0.512s-0.384-0.256-0.64-0.128c-0.064 0.064-0.064 0.064-0.128 0.128-0.448 0.768-1.408 0.96-2.176 0.512-0.192-0.128-0.384-0.32-0.512-0.512s-0.384-0.256-0.64-0.128c-0.064 0.064-0.064 0.064-0.128 0.128-0.448 0.768-1.408 0.96-2.176 0.512-0.192-0.128-0.384-0.32-0.512-0.512s-0.384-0.256-0.64-0.128c-0.064 0.064-0.064 0.064-0.128 0.128-0.064 0.128-0.192 0.256-0.384 0.384-0.064 0.064-0.064 0.064-0.128 0.128-0.704 0.448-1.664 0.256-2.176-0.448 0 0 0-0.064-0.064-0.064-0.128-0.192-0.384-0.256-0.64-0.128-0.064 0.064-0.064 0.064-0.128 0.128l-0.192 0.32c0 0-0.064 0.064-0.064 0.064s-0.064 0.064-0.064 0.064c0 0 0 0 0 0-0.064 0-0.064 0.064-0.128 0.064 0 0-0.064 0.064-0.064 0.064-0.064 0-0.064 0-0.128 0s-0.064 0-0.128 0c0 0-0.064 0-0.064 0-0.064 0-0.064 0-0.128-0.064 0 0 0 0 0 0s-0.064-0.064-0.064-0.064c0 0-0.064-0.064-0.064-0.064l-1.408-1.664v17.6c0 0.384 0.128 0.768 0.384 1.088l1.28 1.536c0.512 0.64 1.344 1.024 2.176 1.024h15.104c0.832 0 1.664-0.384 2.176-1.024l1.28-1.536c0.256-0.32 0.384-0.704 0.384-1.088v-17.664l-1.152 1.664zM6.848 28.032c0 0.32-0.256 0.576-0.576 0.576s-0.576-0.256-0.576-0.576v-12.608c0-0.32 0.256-0.576 0.576-0.576s0.576 0.256 0.576 0.576v12.608zM26.304 28.032c0 0.32-0.256 0.576-0.576 0.576s-0.576-0.256-0.576-0.576v-12.608c0-0.32 0.256-0.576 0.576-0.576s0.576 0.256 0.576 0.576v12.608z"></path>
<path d="M18.624 7.744c-1.344-0.64-2.88-0.32-3.904 0.704-0.64 0.64-0.96 1.472-0.96 2.304 0.704-0.32 1.536 0 1.92 0.64v0c0.128 0.192 0.384 0.256 0.64 0.128 0.064-0.064 0.064-0.064 0.128-0.128 0.448-0.768 1.408-0.96 2.176-0.512 0.192 0.128 0.384 0.32 0.512 0.512s0.384 0.256 0.64 0.128c0.064-0.064 0.064-0.064 0.128-0.128 0.192-0.32 0.448-0.512 0.768-0.64-0.128-1.28-0.896-2.432-2.048-3.008z"></path>
<path d="M7.424 0c-0.96 0-1.728 0.768-1.728 1.728v8.576l0.64 0.768c0.32-0.256 0.64-0.448 1.088-0.448 0.576 0 1.088 0.256 1.344 0.768 0.064 0.128 0.192 0.192 0.384 0.192v-9.856c0-0.96-0.768-1.728-1.728-1.728zM6.464 3.584l0.576-0.576c0.256-0.192 0.576-0.192 0.832 0 0.192 0.192 0.192 0.576 0 0.832l-0.576 0.576c-0.256 0.192-0.576 0.192-0.832 0-0.256-0.256-0.256-0.576 0-0.832zM6.464 5.888l0.576-0.576c0.256-0.192 0.576-0.192 0.832 0 0.192 0.192 0.192 0.576 0 0.832l-0.576 0.576c-0.256 0.192-0.576 0.192-0.832 0-0.256-0.256-0.256-0.64 0-0.832zM7.808 8.384l-0.576 0.576c-0.256 0.192-0.576 0.192-0.832 0-0.192-0.192-0.192-0.576 0-0.832l0.576-0.576c0.256-0.192 0.576-0.192 0.832 0 0.256 0.256 0.256 0.64 0 0.832z"></path>
</svg>
