<!-- Generated by IcoMoon.io -->
<svg version="1.1" xmlns="http://www.w3.org/2000/svg" width="32" height="32" viewBox="0 0 32 32">
<title>hair-cutter-comb</title>
<path d="M24.512 17.984v0 0c-0.192 0-0.384-0.064-0.576-0.064 0 0 0 0 0 0-0.192 0-0.384-0.064-0.576-0.064-0.128 0-0.256 0-0.384 0-0.064 0-0.064 0-0.128 0s-0.192 0-0.256 0.064c-0.064 0-0.064 0-0.128 0s-0.192 0.064-0.256 0.064c-0.064 0-0.064 0-0.128 0-0.128 0.064-0.256 0.064-0.32 0.128 0 0 0 0 0 0v0c-0.192 0.064-0.32 0.192-0.512 0.32v0 0c-0.128 0.064-0.256 0.192-0.32 0.256 0 0-0.064 0.064-0.064 0.064v0c-0.128 0.128-0.256 0.256-0.32 0.384v0 0c-0.128 0.192-0.256 0.384-0.384 0.64-0.064-0.128-0.192-0.256-0.384-0.448v0c-0.128-0.128-0.256-0.32-0.384-0.512-0.256-0.32-0.576-0.704-0.896-1.088-0.192-0.256-0.384-0.448-0.576-0.704v0c-0.192-0.256-0.384-0.512-0.64-0.768v0c0 0 0 0-0.064-0.064v0c-0.448-0.512-0.896-1.088-1.344-1.664 2.304-5.312 4.544-11.52 4.16-14.528-0.384 0.832-3.264 7.104-5.76 12.544-3.776-4.608-7.936-9.728-8.512-10.432 0.384 2.944 3.904 8.192 7.36 12.672-1.024 2.176-1.856 4.032-2.368 5.12-0.128-0.128-0.192-0.256-0.32-0.32-0.64-0.64-1.536-0.896-2.432-0.896-1.408 0-2.944 0.704-4.096 1.984-1.92 2.112-2.112 5.12-0.448 6.656 0.64 0.64 1.536 0.896 2.432 0.896 1.408 0 2.944-0.704 4.096-1.984 0.704-0.768 1.152-1.6 1.408-2.432v0.064c0 0 1.536-3.008 3.328-6.976 0.448 0.576 0.96 1.152 1.344 1.728v0c0 0 0.064 0.064 0.064 0.064 0.064 0.064 0.128 0.128 0.128 0.192 0 0 0 0 0 0v0c0.192 0.256 0.448 0.512 0.64 0.768v0c0 0 0 0 0 0 0.384 0.512 0.768 0.96 1.152 1.344v0c0 0 0 0.064 0.064 0.064 0.192 0.256 0.448 0.512 0.64 0.704 0 0 0 0 0 0v0c0.256 0.32 0.448 0.576 0.64 0.768v0c0 0 0 0 0 0 0.32 0.32 0.448 0.576 0.448 0.576v-0.128c0.256 0.832 0.704 1.664 1.344 2.368v0 0c1.152 1.28 2.688 1.984 4.096 1.984 0.896 0 1.792-0.32 2.432-0.896 1.664-1.536 1.472-4.544-0.448-6.656-0.64-0.896-1.728-1.472-2.752-1.792zM9.408 23.232c-0.192 0.576-0.512 1.152-0.896 1.6-0.768 0.832-1.728 1.28-2.56 1.28-0.448 0-0.832-0.128-1.088-0.384-0.832-0.768-0.576-2.496 0.576-3.712 0.768-0.832 1.728-1.28 2.56-1.28 0.448 0 0.832 0.128 1.088 0.384 0.064 0.064 0.064 0.064 0.128 0.128l0.576 0.704-0.384 1.28zM14.592 15.36c-0.256 0-0.512-0.256-0.512-0.512s0.256-0.512 0.512-0.512c0.256 0 0.512 0.256 0.512 0.512 0 0.32-0.256 0.512-0.512 0.512zM26.496 24.96c-0.256 0.256-0.64 0.384-1.088 0.384-0.896 0-1.856-0.512-2.56-1.28-0.256-0.256-0.448-0.512-0.576-0.832 0.448-1.024 0.96-2.176 1.408-3.264 0.768 0.128 1.6 0.576 2.24 1.28 1.152 1.216 1.408 2.944 0.576 3.712z"></path>
<path d="M24.128 0c-0.192 0-0.256 0.128-0.064 0.256 1.024 0.64 1.984 1.216 2.624 1.856l-2.88-1.216-0.256 0.384 3.712 1.6c0.128 0.192 0.192 0.448 0.256 0.64l-4.16-1.792-0.192 0.448 4.416 1.92c0 0.192 0 0.32 0 0.512l-4.544-2.048-0.192 0.448 4.672 2.048c-0.064 0.128-0.064 0.256-0.128 0.32l-4.672-2.048-0.192 0.448 4.736 2.048c-0.064 0.128-0.128 0.256-0.192 0.384l-4.736-2.048-0.192 0.448 4.736 2.048c-0.064 0.128-0.128 0.256-0.192 0.448l-4.736-2.048-0.192 0.448 4.736 2.048c-0.064 0.128-0.128 0.256-0.192 0.448l-4.736-2.048-0.192 0.448 4.736 2.048c0 0 0 0.064 0 0.064s-0.064 0.128-0.128 0.32l-4.736-2.048-0.192 0.448 4.736 2.048c-0.064 0.128-0.128 0.256-0.192 0.448l-4.736-2.048-0.192 0.448 4.736 2.048c-0.064 0.128-0.064 0.192-0.128 0.32l-4.736-2.176-0.192 0.448 4.736 2.048c-0.064 0.128-0.128 0.256-0.192 0.384l-4.736-2.048-0.192 0.448 4.736 2.048c-0.064 0.128-0.128 0.256-0.192 0.448l-4.672-2.048-0.192 0.448 4.736 2.048c-0.064 0.128-0.128 0.256-0.192 0.448l-4.736-2.112-0.192 0.448 4.736 2.048c-0.064 0.128-0.128 0.256-0.192 0.384l-4.736-2.048-0.192 0.448 4.736 2.048c-0.064 0.128-0.128 0.256-0.192 0.448l-4.736-2.048-0.192 0.448 4.736 2.048c-0.064 0.128-0.128 0.256-0.128 0.384l-4.736-2.048-0.192 0.448 4.736 2.048c-0.064 0.128-0.128 0.256-0.192 0.384l-4.736-2.048-0.192 0.448 4.736 2.048c-0.064 0.128-0.128 0.256-0.128 0.32l-4.736-2.048-0.192 0.448 4.544 1.984c0.384-0.128 0.832-0.192 1.28-0.192s0.96 0.064 1.472 0.192c1.856-4.288 3.456-8.064 3.456-8.064 0.576-1.344 1.024-2.432 1.28-2.88 1.024-2.368-1.664-5.952-5.376-6.528z"></path>
<path d="M20.16 18.56c0.064-0.128 0.192-0.192 0.256-0.256 0 0 0.064-0.064 0.064-0.064l-1.344-0.576 0.64 0.768 0.384 0.128z"></path>
<path d="M19.456 23.616l-4.672-1.984-0.192 0.448 4.736 2.048c-0.064 0.128-0.128 0.32-0.192 0.448l-4.736-2.048-0.192 0.448 4.736 2.048c-0.064 0.128-0.128 0.256-0.192 0.384l-4.672-2.048-0.192 0.448 4.736 2.048c-0.064 0.128-0.128 0.32-0.192 0.448l-4.736-2.048-0.192 0.448 4.736 2.048c-0.064 0.128-0.128 0.256-0.128 0.384l-4.736-2.176-0.192 0.448 4.736 2.048c-0.064 0.128-0.128 0.256-0.192 0.384l-4.736-2.048-0.192 0.448 4.736 2.048c-0.064 0.192-0.128 0.32-0.192 0.448l-4.736-2.048-0.192 0.448 4.672 2.048c-0.064 0.128-0.128 0.32-0.192 0.448l-4.608-2.112-0.192 0.448 4.608 1.984c-0.128 0.128-0.192 0.256-0.32 0.32l-4.416-1.92-0.256 0.448 4.16 1.792c-0.192 0.128-0.448 0.192-0.64 0.256l-3.712-1.664-0.192 0.448 2.88 1.216c-0.96 0-2.048-0.256-3.264-0.64-0.128-0.064-0.192 0.128 0 0.256 2.944 2.304 7.36 1.792 8.384-0.512 0.256-0.576 0.896-2.048 1.664-3.904-0.064-0.064-0.128-0.128-0.192-0.192-0.576-0.64-1.024-1.408-1.344-2.24z"></path>
<path d="M21.44 17.6l-3.584-1.536 0.576 0.768 2.432 1.024c0.256-0.128 0.384-0.192 0.576-0.256z"></path>
<path d="M14.976 21.184l3.776 1.6c-0.192-0.256-0.448-0.512-0.704-0.832l-2.88-1.216-0.192 0.448z"></path>
<path d="M15.68 19.648l0.64 0.256c-0.128-0.192-0.32-0.384-0.512-0.576l-0.128 0.32z"></path>
<path d="M15.36 20.352l2.112 0.896c-0.192-0.256-0.448-0.512-0.64-0.768l-1.216-0.512-0.256 0.384z"></path>
</svg>
