<!-- Generated by IcoMoon.io -->
<svg version="1.1" xmlns="http://www.w3.org/2000/svg" width="32" height="32" viewBox="0 0 32 32">
<title>ice-cream</title>
<path d="M15.424 16.64c-0.064-0.064-0.064-0.128-0.064-0.192-0.832-0.064-1.664-0.256-2.496-0.576-0.576 0.64-1.28 1.088-2.048 1.344l5.184 14.784 5.184-14.72c-0.576-0.192-1.088-0.512-1.536-0.896v1.536c0 0.704-1.088 0.704-1.088 0v-0.832c-0.256 0.192-0.512 0.32-0.768 0.384v4.736c0 0.704-1.088 0.704-1.088 0v-4.736c-0.512-0.064-0.96-0.384-1.28-0.832z"></path>
<path d="M5.056 12.608c0 2.304 1.856 4.224 4.224 4.224 0.512 0 0.96-0.064 1.408-0.256 0.832-0.32 1.536-0.832 2.048-1.536 1.024 0.448 2.176 0.768 3.328 0.768 1.216 0 2.304-0.256 3.328-0.768 0.512 0.704 1.216 1.28 2.048 1.536 0.448 0.128 0.896 0.256 1.408 0.256 2.304 0 4.224-1.856 4.224-4.224 0-1.92-1.344-3.584-3.136-4.032 0-0.192 0-0.448 0-0.64-0.064-4.416-3.584-7.936-7.936-7.936s-7.872 3.52-7.872 7.872c0 0.192 0 0.448 0 0.64-1.792 0.512-3.072 2.176-3.072 4.096z"></path>
</svg>
