<!-- Generated by IcoMoon.io -->
<svg version="1.1" xmlns="http://www.w3.org/2000/svg" width="32" height="32" viewBox="0 0 32 32">
<title>magazine</title>
<path d="M27.264 19.328l-11.456 6.784-0.128-3.584 9.536-6.4c0.128-0.064 0.128-0.192 0.064-0.32s-0.192-0.128-0.32-0.064l-9.344 6.272-0.064-2.176c0 0 0 0 0 0s0-0.064 0-0.064l9.28-6.656c0.128-0.064 0.128-0.192 0.064-0.32s-0.192-0.128-0.32-0.064l-9.024 6.528-0.064-2.112c0.064 0 0.064 0.064 0.128 0.064s0.064 0 0.128-0.064l8.768-6.208c0.128-0.064 0.128-0.192 0.064-0.32s-0.192-0.128-0.32-0.064l-8.768 6.208c0 0 0 0 0 0l-0.128-2.304c0 0 0 0 0.064 0s0.064 0 0.128-0.064l8.768-6.208c0.128-0.064 0.128-0.192 0.064-0.32s-0.192-0.128-0.32-0.064l-8.704 6.144-0.128-1.792c0 0 0.064 0 0.064 0l8.768-6.208c0.128-0.064 0.128-0.192 0.064-0.32s-0.192-0.128-0.32-0.064l-8.64 6.080-0.064-1.856 10.112-7.104 2.048 16.64z"></path>
<path d="M3.712 2.624c0 0 0 0 0 0v0l11.008 7.232 0.064 1.792-8.96-5.376c-0.064-0.064-0.256 0-0.32 0.064-0.064 0.128 0 0.256 0.064 0.32l9.216 5.504 0.064 1.792-9.024-5.376c-0.128-0.064-0.256 0-0.32 0.064-0.064 0.128 0 0.256 0.064 0.32l9.216 5.568c0 0 0.064 0 0.064 0l0.064 2.304-9.088-5.568c-0.128-0.064-0.256 0-0.32 0.064-0.064 0.128 0 0.256 0.064 0.32l9.216 5.568c0.064 0 0.064 0.064 0.128 0.064 0 0 0.064 0 0.064 0l0.064 2.048-8.768-5.312c-0.128-0.064-0.256 0-0.32 0.064-0.064 0.128 0 0.256 0.064 0.32l9.088 5.44 0.064 2.24-8.896-5.312c-0.128-0.064-0.256 0-0.32 0.064-0.064 0.128 0 0.256 0.064 0.32l9.152 5.504 0.064 1.408 0.128 2.176-11.648-6.272 0.256-17.152c0-0.064-0.128-0.192-0.256-0.192z"></path>
<path d="M3.328 20.288l11.904 6.4c0.064 0 0.064 0 0.128 0h0.256c0.064 0 0.064 0 0.128 0 0 0 0 0 0 0l11.904-7.104c0.064-0.064 0.128-0.128 0.128-0.192l-1.792-14.208c0 0 0.064 0 0.064 0l1.728-0.128 2.432 18.944-14.592 4.288-14.016-6.784 0.896-17.92 1.024-0.832c0 0 0 0.064 0 0.064l-0.32 17.28c0 0.128 0.064 0.192 0.128 0.192z"></path>
<path d="M1.536 2.048l1.152 0.832-0.576 0.384c-0.064 0.064-0.064 0.128-0.064 0.192l-0.896 18.176c0 0.064 0.064 0.192 0.128 0.192l14.208 6.976c0 0 0.064 0 0.128 0 0 0 0.064 0 0.064 0l14.912-4.352c0.128 0 0.192-0.128 0.192-0.256l-2.56-19.392c0-0.128-0.128-0.192-0.256-0.192l-1.984 0.128c0 0-0.064 0-0.064 0l-0.064-0.384 3.008-0.256 3.136 20.928-16.064 4.992-15.936-7.68 1.536-20.288z"></path>
</svg>
