<!-- Generated by IcoMoon.io -->
<svg version="1.1" xmlns="http://www.w3.org/2000/svg" width="32" height="32" viewBox="0 0 32 32">
<title>petanque</title>
<path d="M15.36 2.112c0.32-0.384 0.256-1.216 0.192-1.92 0 0 0-0.064 0-0.064-0.448-0.128-0.832-0.128-1.28-0.128-1.6 0-3.2 0.32-4.608 0.832 1.024 0.512 2.624 1.344 4.352 2.56 0.64-0.512 1.088-0.96 1.344-1.28z"></path>
<path d="M21.952 9.536c-0.64 0.064-1.152 0.192-1.664 0.32 2.24 3.84 3.072 8.768 3.264 12.288 2.176-2.24 3.584-5.248 3.712-8.576-1.472-1.856-3.456-4.224-5.312-4.032z"></path>
<path d="M8.768 6.208c1.536-0.32 3.008-1.088 4.16-1.92-2.432-1.664-4.48-2.56-4.864-2.688-2.496 1.344-4.48 3.52-5.696 6.144 1.536-0.576 3.2-0.896 4.8-1.216 0.576-0.128 1.088-0.192 1.6-0.32z"></path>
<path d="M17.792 6.592c0.128 0.128 0.256 0.256 0.384 0.448 0.512 0.512 0.96 1.088 1.408 1.728 0.64-0.256 1.344-0.384 2.176-0.512 2.048-0.256 3.84 1.408 5.44 3.136-0.32-2.688-1.472-5.12-3.2-7.040-0.96 0.128-1.984 0.32-3.072 0.64-0.704 0.192-1.792 0.768-3.136 1.6z"></path>
<path d="M16.064 13.312c0.512-1.792 1.152-3.136 2.368-3.968-0.384-0.512-0.768-1.024-1.152-1.472-0.192-0.192-0.384-0.384-0.576-0.576-4.864 3.264-11.456 9.28-12.032 14.528 1.984 2.176 4.736 3.712 7.808 4.096 1.152-2.24 2.176-6.784 2.816-9.472 0.32-1.28 0.576-2.432 0.768-3.136z"></path>
<path d="M10.624 10.432c1.664-1.536 3.456-2.944 5.056-4.032-0.512-0.448-1.088-0.896-1.6-1.344-1.344 1.024-3.136 1.984-4.992 2.432-0.512 0.128-1.088 0.192-1.6 0.32-2.048 0.384-4.032 0.768-5.696 1.664-0.32 1.088-0.512 2.304-0.512 3.52 0 2.752 0.896 5.312 2.304 7.424 0.96-3.712 4.224-7.424 7.040-9.984z"></path>
<path d="M16.832 5.632c1.536-0.96 2.88-1.664 3.776-1.92 0.768-0.256 1.536-0.384 2.24-0.512-1.664-1.472-3.712-2.496-5.952-2.944 0.064 0.896 0.064 1.92-0.448 2.624-0.256 0.32-0.704 0.832-1.28 1.344 0.512 0.448 1.088 0.896 1.664 1.408z"></path>
<path d="M17.344 13.696c-0.192 0.704-0.448 1.792-0.768 3.072-0.896 3.776-1.728 7.168-2.688 9.28 0.128 0 0.256 0 0.448 0 3.008 0 5.824-1.024 8.064-2.752-0.064-3.712-0.96-8.96-3.2-12.8-0.96 0.576-1.408 1.6-1.856 3.2z"></path>
<path d="M30.72 28.544c0 1.909-1.547 3.456-3.456 3.456s-3.456-1.547-3.456-3.456c0-1.909 1.547-3.456 3.456-3.456s3.456 1.547 3.456 3.456z"></path>
</svg>
