<!-- Generated by IcoMoon.io -->
<svg version="1.1" xmlns="http://www.w3.org/2000/svg" width="32" height="32" viewBox="0 0 32 32">
<title>pharmacy</title>
<path d="M31.36 13.312c-2.944-1.152-4.096-3.2-4.992-4.8-0.704-1.28-1.408-2.496-2.816-2.752-1.472-0.256-3.328 0.64-6.592 3.2v-3.52c1.088-0.384 1.856-1.408 1.856-2.624 0-1.536-1.28-2.816-2.816-2.816s-2.816 1.28-2.816 2.816c0 1.216 0.768 2.24 1.856 2.624v3.52c-3.52-2.816-4.736-3.52-6.528-3.2-1.408 0.256-2.112 1.472-2.816 2.752-0.96 1.6-2.112 3.648-5.056 4.8-0.448 0.192-0.64 0.576-0.576 1.024s0.448 0.768 0.896 0.768h1.856c0.064 0 4.096-0.064 6.144-5.056 0.192-0.448 0.768-0.704 1.216-0.512s0.704 0.768 0.512 1.216c-0.832 2.048-1.984 3.392-3.136 4.352h2.112c0.896-0.768 1.6-1.664 1.6-2.816 0-0.512 0.448-0.96 0.96-0.96s0.96 0.448 0.96 0.96c0 1.088-0.384 1.984-0.896 2.816h2.816v1.856h-2.816c-1.536 0-2.816 1.28-2.816 2.816s1.28 2.816 2.816 2.816h2.816v1.856h-0.96c-1.536 0-2.816 1.28-2.816 2.816s1.28 2.816 2.816 2.816h0.96v0.96c0 0.512 0.448 0.96 0.96 0.96s0.96-0.448 0.96-0.96v-0.96h0.96c0.512 0 0.96-0.448 0.96-0.96s-0.448-0.96-0.96-0.96h-0.96v-1.856h0.96c1.536 0 2.816-1.28 2.816-2.816s-1.28-2.816-2.816-2.816h-0.96v-1.856h2.816c1.088 0 1.984-0.576 2.432-1.472-0.512-0.32-1.088-0.768-1.536-1.216-0.064 0.448-0.448 0.768-0.896 0.768h-2.816v-1.856h2.816c-0.576-0.832-0.896-1.728-0.896-2.816 0-0.512 0.448-0.96 0.96-0.96s0.96 0.448 0.96 0.96c0 1.152 0.704 2.048 1.6 2.816h2.112c-1.152-0.896-2.304-2.304-3.136-4.352-0.192-0.448 0-1.024 0.512-1.216 0.448-0.192 1.024 0 1.216 0.512 2.048 4.992 6.144 5.056 6.144 5.056h1.856c0.448 0 0.832-0.32 0.896-0.768-0.064-0.32-0.32-0.768-0.704-0.96zM15.040 28.224h-0.96c-0.512 0-0.96-0.448-0.96-0.96s0.448-0.96 0.96-0.96h0.96v1.92zM15.040 20.736h-2.816c-0.512 0-0.96-0.448-0.96-0.96s0.448-0.96 0.96-0.96h2.816v1.92zM17.856 22.656c0.512 0 0.96 0.448 0.96 0.96s-0.448 0.96-0.96 0.96h-0.96v-1.856h0.96z"></path>
</svg>
