<!-- Generated by IcoMoon.io -->
<svg version="1.1" xmlns="http://www.w3.org/2000/svg" width="32" height="32" viewBox="0 0 32 32">
<title>pizza</title>
<path d="M31.488 10.304c0 0 0 0 0 0-0.128-0.512-0.256-0.96-0.448-1.344l-1.536 1.28c0.192 0.384 0.448 0.832 0.64 1.216l0.704 2.048c-0.064 0.384-0.128 0.768-0.32 1.088-0.64 1.28-1.92 1.728-1.92 1.792l-9.792 3.968c0-0.384-0.064-0.768-0.192-1.216 0-0.064 0-0.128 0-0.128l11.136-4.608c0.064 0 0.128-0.064 0.192-0.064l-0.832-2.368c-0.192-0.448-0.448-0.96-0.704-1.408 0 0 0 0 0 0s0 0 0-0.064c-0.448-0.832-1.024-1.6-1.792-2.368 0 0-0.064 0-0.064 0-0.064-0.064-0.128-0.128-0.192-0.192-0.768-0.704-1.728-1.344-2.944-1.856-0.064 0-0.128 0-0.128 0-0.064 0-0.064-0.064-0.128-0.064-0.96-0.384-2.112-0.704-3.456-0.96 0 0-0.064 0-0.064 0-0.064 0-0.128 0-0.192-0.064 0 0 0 0 0 0-1.984-0.448-4.416-0.512-7.36-0.384 0 0 0 0 0 0s0 0 0 0c-2.368 0.192-5.056 0.512-8.128 1.024l-0.704 0.064-0.768 9.856c-1.024 0.64-3.072 2.368-2.304 5.184 0.256 1.024 0.768 1.6 1.344 1.728 0.128 0 0.32 0.128 0.256 0.32-0.192 1.344-0.576 3.84-0.576 5.312 0 0.704 0.192 1.28 0.64 1.664 0.64 0.64 1.664 0.768 2.176 0.768 0.192 0 0.32 0 0.32 0 0.192 0 1.92-0.192 2.496-1.344 0.32-0.704 0.192-1.6-0.512-2.624l8.96-3.648c0 0 0 0 0 0 0.128 0.064 0.192 0.128 0.32 0.128 0 0 0.064 0 0.064 0 0.128 0.064 0.256 0.064 0.448 0.064 0.064 0 0.128 0 0.256 0v0c0 0 0.064 0 0.064 0 0.192 0 0.32 0 0.512-0.064 0.064 0 0.128-0.064 0.192-0.064s0.192-0.064 0.256-0.064c0.064 0 0.128-0.064 0.256-0.128 0.064-0.064 0.128-0.064 0.192-0.128s0.128-0.064 0.192-0.128 0.192-0.192 0.32-0.32c0 0 0 0 0.064-0.064 0.192-0.192 0.32-0.448 0.384-0.768 0 0 0 0 0 0l10.304-4.16c0.064 0 1.728-0.576 2.56-2.304 0.512-1.152 0.448-2.752-0.192-4.608zM5.632 24.832c0.128-0.384 0.512-0.704 1.216-0.96l7.232-3.008c0 0.384 0.128 0.832 0.32 1.216l-8.704 3.52c-0.128-0.32-0.128-0.576-0.064-0.768zM13.568 17.472c0-0.32 0.128-0.64 0.32-0.832 0.192-0.256 0.512-0.384 0.832-0.384 0 0 0.064-0.064 0.064-0.128 0-0.64 0.512-1.216 1.152-1.216 0 0 0.064-0.064 0.064-0.128 0-0.32 0.256-0.576 0.512-0.576 0.32 0 0.576 0.256 0.576 0.512 0 0.64-0.512 1.216-1.152 1.216 0 0-0.064 0.064-0.064 0.128 0 0.64-0.512 1.216-1.152 1.216-0.064 0-0.064 0.064-0.064 0.128 0 0.32-0.256 0.576-0.512 0.576 0 0 0 0 0 0-0.32 0-0.576-0.256-0.576-0.512zM22.848 8.64c0.448 0 1.024 0 1.536 0.256 0.448 0.192 1.024 0.704 1.024 1.856 0 1.856-1.856 3.328-4.224 3.328-1.984 0-3.648 0-3.648-2.24 0-2.112 4.416-3.2 5.312-3.2zM14.144 5.376c0.384-0.064 0.768 0 1.088 0.192s0.576 0.512 0.64 0.896c0.064 0.192 0.256 0.256 0.448 0.256 0.384-0.064 0.768 0 1.088 0.192s0.576 0.512 0.64 0.896c0 0.128 0.128 0.192 0.128 0.192 0.064 0.064 0.192 0.064 0.32 0.064 0.32-0.064 0.576 0.128 0.64 0.448s-0.128 0.576-0.448 0.64c-0.128 0-0.192 0-0.32 0-0.256 0-0.576-0.064-0.768-0.192-0.32-0.192-0.576-0.512-0.64-0.896 0-0.128-0.128-0.192-0.128-0.192-0.064-0.064-0.192-0.064-0.32-0.064-0.768 0.192-1.6-0.32-1.728-1.088 0-0.128-0.128-0.192-0.128-0.192-0.064-0.064-0.192-0.064-0.32-0.064-0.32 0.064-0.576-0.128-0.64-0.448-0.064-0.256 0.128-0.576 0.448-0.64zM14.464 11.456c0.128 0.064 0.192 0 0.256 0 0.064-0.064 0.192-0.128 0.192-0.192 0.128-0.256 0.448-0.384 0.704-0.256s0.384 0.448 0.256 0.704c-0.128 0.384-0.448 0.64-0.768 0.768-0.384 0.128-0.768 0.128-1.088 0-0.128-0.064-0.192 0-0.256 0-0.064 0.064-0.192 0.128-0.192 0.192-0.32 0.768-1.152 1.088-1.92 0.768-0.128-0.064-0.192 0-0.256 0-0.064 0.064-0.192 0.128-0.192 0.192-0.064 0.192-0.32 0.32-0.512 0.32-0.064 0-0.128 0-0.192-0.064-0.256-0.128-0.384-0.448-0.256-0.704 0.128-0.384 0.448-0.64 0.768-0.768 0.384-0.128 0.768-0.128 1.088 0 0.192 0.064 0.384 0 0.448-0.192 0.128-0.384 0.448-0.64 0.768-0.768 0.448-0.192 0.832-0.192 1.152 0zM10.624 5.888c0.768 0 2.56 0 2.56 2.112 0 1.856-1.856 3.328-4.224 3.328-1.984 0-3.648 0-3.648-2.24 0-2.048 4.416-3.2 5.312-3.2zM4.032 17.984c0-2.048 4.416-3.2 5.312-3.2 0.768 0 2.56 0 2.56 2.112 0 1.856-1.856 3.328-4.224 3.328-1.92 0-3.648 0-3.648-2.24z"></path>
<path d="M20.608 11.968c0 0.318-0.258 0.576-0.576 0.576s-0.576-0.258-0.576-0.576c0-0.318 0.258-0.576 0.576-0.576s0.576 0.258 0.576 0.576z"></path>
<path d="M23.424 10.496c0 0.318-0.258 0.576-0.576 0.576s-0.576-0.258-0.576-0.576c0-0.318 0.258-0.576 0.576-0.576s0.576 0.258 0.576 0.576z"></path>
<path d="M22.72 11.904c0 0.318-0.258 0.576-0.576 0.576s-0.576-0.258-0.576-0.576c0-0.318 0.258-0.576 0.576-0.576s0.576 0.258 0.576 0.576z"></path>
<path d="M8.384 9.344c0 0.318-0.258 0.576-0.576 0.576s-0.576-0.258-0.576-0.576c0-0.318 0.258-0.576 0.576-0.576s0.576 0.258 0.576 0.576z"></path>
<path d="M11.584 8.64c0 0.318-0.258 0.576-0.576 0.576s-0.576-0.258-0.576-0.576c0-0.318 0.258-0.576 0.576-0.576s0.576 0.258 0.576 0.576z"></path>
<path d="M9.792 8.064c0 0.318-0.258 0.576-0.576 0.576s-0.576-0.258-0.576-0.576c0-0.318 0.258-0.576 0.576-0.576s0.576 0.258 0.576 0.576z"></path>
<path d="M7.168 18.176c0 0.318-0.258 0.576-0.576 0.576s-0.576-0.258-0.576-0.576c0-0.318 0.258-0.576 0.576-0.576s0.576 0.258 0.576 0.576z"></path>
<path d="M8.96 16.896c0 0.318-0.258 0.576-0.576 0.576s-0.576-0.258-0.576-0.576c0-0.318 0.258-0.576 0.576-0.576s0.576 0.258 0.576 0.576z"></path>
<path d="M9.792 17.984c0 0.318-0.258 0.576-0.576 0.576s-0.576-0.258-0.576-0.576c0-0.318 0.258-0.576 0.576-0.576s0.576 0.258 0.576 0.576z"></path>
<path d="M7.104 4.032v-2.048c-0.448 0.064-0.832 0.128-1.216 0.192-1.28 0.192-2.24 1.152-2.56 2.368l0.384-0.064c1.216-0.128 2.368-0.32 3.392-0.448z"></path>
<path d="M27.968 4.864c-0.832-0.64-1.792-1.216-2.944-1.664l-0.832 1.984c0.96 0.448 1.792 0.96 2.496 1.536l1.28-1.856z"></path>
<path d="M11.52 1.536c-1.152 0.064-2.304 0.192-3.264 0.32v2.048c1.152-0.128 2.24-0.256 3.264-0.32v-2.048z"></path>
<path d="M20.032 1.856c-1.152-0.192-2.304-0.32-3.584-0.32v2.048c1.024 0.064 1.984 0.128 2.88 0.256l0.704-1.984z"></path>
<path d="M24 2.816c-0.896-0.32-1.856-0.576-2.88-0.768l-0.768 1.92c1.024 0.192 1.984 0.448 2.752 0.768l0.896-1.92z"></path>
<path d="M15.36 3.456v-1.984c-0.256 0-0.448 0-0.704 0-0.704 0-1.408 0-2.048 0.064v2.048c0.96-0.128 1.856-0.128 2.752-0.128z"></path>
<path d="M28.928 9.28l1.664-1.344c-0.448-0.896-1.088-1.664-1.792-2.368l-1.28 1.92c0.576 0.576 1.024 1.152 1.408 1.792z"></path>
</svg>
