<!-- Generated by IcoMoon.io -->
<svg version="1.1" xmlns="http://www.w3.org/2000/svg" width="32" height="32" viewBox="0 0 32 32">
<title>postcard</title>
<path d="M0 4.544v22.912h32v-22.912h-32zM22.912 8.256h5.312v5.312h-5.312v-5.312zM4.288 7.744h4.288c0.32 0 0.512 0.256 0.512 0.512 0 0.32-0.256 0.512-0.512 0.512h-4.288c-0.32 0-0.512-0.256-0.512-0.512-0.064-0.256 0.192-0.512 0.512-0.512zM4.288 10.368h10.688c0.32 0 0.512 0.256 0.512 0.512s-0.256 0.512-0.512 0.512h-10.688c-0.32 0-0.512-0.256-0.512-0.512s0.192-0.512 0.512-0.512zM3.712 13.568c0-0.32 0.256-0.512 0.512-0.512h10.688c0.32 0 0.512 0.256 0.512 0.512s-0.256 0.512-0.512 0.512h-10.624c-0.32 0.064-0.576-0.192-0.576-0.512zM15.488 24.256c-1.792 0-3.2-1.408-3.2-3.2s1.408-3.2 3.2-3.2 3.2 1.408 3.2 3.2c0 1.792-1.472 3.2-3.2 3.2zM28.672 22.976c-0.384 0.448-0.896 0.704-1.472 0.704s-1.088-0.256-1.472-0.704c-0.384-0.448-0.96-0.448-1.344 0s-0.896 0.704-1.472 0.704c-0.576 0-1.088-0.256-1.472-0.704s-0.96-0.448-1.344 0c-0.192 0.256-0.512 0.256-0.768 0.064s-0.256-0.512-0.064-0.768c0.384-0.448 0.896-0.704 1.472-0.704s1.088 0.256 1.472 0.704c0.384 0.448 0.96 0.448 1.344 0s0.896-0.704 1.472-0.704c0.576 0 1.088 0.256 1.472 0.704s0.96 0.448 1.344 0c0.192-0.256 0.512-0.256 0.768-0.064 0.256 0.256 0.256 0.576 0.064 0.768zM28.672 19.776c-0.384 0.448-0.896 0.704-1.472 0.704s-1.088-0.256-1.472-0.704c-0.384-0.448-0.96-0.448-1.344 0s-0.896 0.704-1.472 0.704c-0.576 0-1.088-0.256-1.472-0.704s-0.96-0.448-1.344 0c-0.192 0.256-0.512 0.256-0.768 0.064s-0.256-0.512-0.064-0.768c0.384-0.448 0.896-0.704 1.472-0.704s1.088 0.256 1.472 0.704c0.384 0.448 0.96 0.448 1.344 0s0.896-0.704 1.472-0.704c0.576 0 1.088 0.256 1.472 0.704s0.96 0.448 1.344 0c0.192-0.256 0.512-0.256 0.768-0.064 0.256 0.256 0.256 0.576 0.064 0.768z"></path>
</svg>
