<!-- Generated by IcoMoon.io -->
<svg version="1.1" xmlns="http://www.w3.org/2000/svg" width="32" height="32" viewBox="0 0 32 32">
<title>shopping-bag</title>
<path d="M25.792 7.488v0 0l-2.624-1.088-0.64 0.128c-0.704-3.136-2.56-5.376-4.864-5.376-0.256 0-0.512 0.064-0.768 0.128-0.832-0.832-1.856-1.28-3.008-1.28-3.456 0-5.12 4.608-5.12 8.64l-3.136 0.512-0.32 21.056 4.224 1.792 17.152-2.624-0.896-21.888zM20.352 6.848l-1.28 0.192c-0.064-1.344-0.256-2.496-0.704-3.52 0.832 0.448 1.6 1.664 1.984 3.328zM16.896 7.36l-2.048 0.32c0.256-1.6 0.768-2.816 1.408-3.584 0.384 0.896 0.576 2.048 0.64 3.264zM12.544 9.408l-3.648 0.512-2.304-0.384 6.016-0.896c0 0.192 0 0.448 0 0.704-0.064 0-0.064 0-0.064 0.064zM10.944 8.32c0.128-3.264 1.408-6.144 2.944-6.144 0.384 0 0.704 0.064 1.024 0.256-1.216 1.216-2.048 3.264-2.24 5.632l-1.728 0.256zM13.888 12.608c-0.704 0-1.28-0.576-1.28-1.28s0.576-1.28 1.28-1.28c0.704 0 1.28 0.576 1.28 1.28 0.064 0.704-0.512 1.28-1.28 1.28zM14.72 9.088c0-0.32 0-0.576 0.064-0.832l5.696-0.896c0.064 0.256 0.064 0.512 0.128 0.832l-5.888 0.896zM22.272 11.328c-0.704 0-1.28-0.576-1.28-1.28s0.576-1.28 1.28-1.28c0.704 0 1.28 0.576 1.28 1.28s-0.576 1.28-1.28 1.28zM22.72 7.872c-0.064-0.32-0.128-0.576-0.192-0.896l0.576-0.128 1.664 0.704-2.048 0.32z"></path>
</svg>
