<!-- Generated by IcoMoon.io -->
<svg version="1.1" xmlns="http://www.w3.org/2000/svg" width="32" height="32" viewBox="0 0 32 32">
<title>soccer-field</title>
<path d="M14.016 4.672v1.28h-1.088v0.704h5.696v-0.704h-1.152v-1.28h-3.456zM16.896 5.632h-2.304v-0.448h2.304v0.448z"></path>
<path d="M15.744 11.776c1.984 0 3.648 1.088 3.84 2.496h8.512l-2.24-6.784c-0.32-0.896-1.28-1.6-2.176-1.6h-2.048l0.32 3.264h-4.16c-0.192 0.256-0.768 0.768-1.984 0.768 0 0 0 0-0.064 0-1.216 0-1.792-0.512-1.984-0.768h-4.288l0.32-3.264h-2.112c-0.896 0-1.856 0.704-2.176 1.6l-1.984 6.784h8.384c0.128-1.408 1.792-2.496 3.84-2.496z"></path>
<path d="M16.832 9.216h-2.304c0.256 0.128 0.64 0.256 1.152 0.256 0.576 0 0.896-0.128 1.152-0.256z"></path>
<path d="M19.136 5.952v1.28h-6.784v-1.28h-2.112l-0.192 2.688h11.2l-0.192-2.688h0.256z"></path>
<path d="M15.744 16.768c1.664 0 3.072-0.832 3.264-1.92h-6.528c0.192 1.088 1.6 1.92 3.264 1.92z"></path>
<path d="M15.744 12.352c-1.664 0-3.072 0.832-3.264 1.984h6.592c-0.256-1.152-1.664-1.984-3.328-1.984z"></path>
<path d="M13.696 26.752h4.352v0.576h-4.352v-0.576z"></path>
<path d="M28.288 14.848h-8.704c-0.192 1.408-1.856 2.496-3.84 2.496s-3.648-1.088-3.84-2.496h-8.576l-3.264 10.88c-0.256 0.896 0.256 1.6 1.216 1.6h6.4l-0.256-0.064 0.64-4.928h4.992c0.256-0.256 1.216-0.896 2.816-0.896 1.728 0 2.56 0.64 2.816 0.896h4.992l0.768 4.928-0.256 0.064h6.592c0.896 0 1.408-0.704 1.152-1.6l-3.648-10.88z"></path>
<path d="M20.416 27.328l-0.32-1.408h-8.128l-0.192 1.408h1.408v-1.088h5.504v1.088z"></path>
<path d="M8 27.328h3.2l0.32-1.984h9.024l0.448 1.92-0.256 0.064h3.136l-0.64-4.352h-14.656z"></path>
<path d="M14.144 22.4h3.52c-0.384-0.192-0.96-0.32-1.792-0.32-0.704 0-1.28 0.128-1.728 0.32z"></path>
</svg>
