<!-- Generated by IcoMoon.io -->
<svg version="1.1" xmlns="http://www.w3.org/2000/svg" width="32" height="32" viewBox="0 0 32 32">
<title>tennis-racket</title>
<path d="M22.592 13.888c-0.448 0.32-0.768 0.768-0.896 1.344-0.192 0.64-0.064 1.344 0.256 1.92 0.448-0.448 0.896-1.024 1.024-1.472 0.064-0.512-0.128-1.216-0.384-1.792z"></path>
<path d="M26.496 16.512c0.128-0.512 0.064-1.088-0.128-1.536-0.448 0.32-0.96 0.832-1.088 1.344-0.128 0.448 0 1.088 0.128 1.664 0.512-0.32 0.896-0.832 1.088-1.472z"></path>
<path d="M26.048 14.464c-0.32-0.448-0.832-0.832-1.408-0.96s-1.152-0.064-1.6 0.128c0.32 0.64 0.576 1.472 0.384 2.24-0.128 0.64-0.704 1.28-1.216 1.792 0.32 0.32 0.704 0.576 1.152 0.704 0.512 0.128 0.96 0.064 1.408-0.064-0.192-0.704-0.32-1.472-0.192-2.112 0.32-0.768 0.96-1.344 1.472-1.728z"></path>
<path d="M16.128 17.088c2.432-1.216 4.288-3.712 4.8-6.912 0.832-4.864-1.984-9.408-6.208-10.112s-8.32 2.752-9.152 7.616c-0.512 3.072 0.384 6.080 2.24 8 0.896 1.728 1.856 3.968 1.856 5.44-0.256 0.256-0.448 0.576-0.512 0.96l-0.192 1.024c0.64 0.064 2.048 0 3.712-1.024 0-0.128-0.064-0.256-0.128-0.384 0.512-1.344 2.112-3.2 3.584-4.608zM11.776 20.8c-0.128-0.064-0.256-0.128-0.448-0.128h-0.128c-0.128 0-0.256 0-0.384 0-0.128-1.088-0.512-2.304-1.024-3.456 0.64 0.32 1.28 0.576 1.984 0.64 0.704 0.128 1.344 0.128 2.048 0-0.832 0.96-1.664 1.984-2.048 2.944z"></path>
<path d="M11.968 27.392c-1.728 0.896-3.136 0.96-3.776 0.896l-0.256 1.664c0 0 0 0 0 0 0.704 0.064 2.112 0 3.84-1.088l0.192-1.472z"></path>
<path d="M12.736 22.784c-1.728 0.896-3.136 0.96-3.776 0.896l-0.256 1.728c0.704 0.064 2.112 0 3.84-1.088l0.192-1.536z"></path>
<path d="M12.352 25.088c-1.728 0.896-3.136 0.96-3.776 0.896l-0.256 1.728c0.704 0.064 2.112 0 3.84-1.088l0.192-1.536z"></path>
<path d="M9.28 31.936h0.128c0.96 0.128 1.856-0.512 1.984-1.408l0.128-0.896c-1.6 0.896-2.944 0.96-3.712 0.896 0.192 0.704 0.768 1.28 1.472 1.408z"></path>
</svg>
