<!-- Generated by IcoMoon.io -->
<svg version="1.1" xmlns="http://www.w3.org/2000/svg" width="32" height="32" viewBox="0 0 32 32">
<title>walk-dog</title>
<path d="M15.040 2.88c0 1.52-1.232 2.752-2.752 2.752s-2.752-1.232-2.752-2.752c0-1.52 1.232-2.752 2.752-2.752s2.752 1.232 2.752 2.752z"></path>
<path d="M32 21.184c0-0.064-0.064-0.192-0.192-0.192l-1.152-0.448 0.256-0.384c0.064-0.064 0.064-0.192 0.064-0.256s-0.128-0.192-0.192-0.192l-1.344-0.576c-0.128-0.576-0.512-1.024-0.768-1.28-0.064-0.064-0.064-0.064-0.128-0.064s-0.064 0.064-0.064 0.128l-0.32 1.408c-0.128 0.064-0.192 0.192-0.256 0.32-0.064 0.064 0 0-0.576 1.408l-0.384 0.64c-3.776-0.768-6.464-2.176-8.128-3.2-0.896-0.576-1.536-1.088-2.048-1.472 0.256-0.576 0-1.28-0.512-1.536l-3.712-2.112-0.32-4.736 1.28 3.904 0.704-3.584c0.192-1.024-0.448-1.984-1.472-2.176l-3.264-0.64c-0.32-0.064-0.512-0.064-0.832 0l-5.376 1.728c-0.384 0.128-0.64 0.384-0.768 0.704s-0.128 0.768 0.064 1.088l2.56 4.352c0.192 0.32 0.512 0.512 0.832 0.576l-0.448 2.432 0.384 4.736-4.608 0.64c-0.832 0.128-1.408 0.896-1.28 1.664 0.128 0.832 0.896 1.408 1.664 1.28l6.016-0.832c0.768-0.128 1.344-0.768 1.28-1.536l-0.32-5.44 0.768 0.128 1.856 5.44 0.896 7.424c0.128 0.832 0.832 1.408 1.664 1.28s1.408-0.832 1.28-1.664l-0.96-7.552c0-0.128-0.064-0.192-0.064-0.32l-1.6-4.8-2.368-1.344c-1.024-0.576-1.28-1.664-1.216-2.24l0.832-4.992 0.32 5.184c0 0.384 0.256 0.768 0.64 1.024 0.448 0.256 3.776 2.176 4.288 2.432 0.32 0.192 0.64 0.192 0.96 0.128 0.512 0.448 1.216 1.024 2.176 1.664 1.6 1.024 4.16 2.368 7.68 3.2l-4.992 0.768c-0.384 0.064-0.768 0.192-1.024 0.448l-1.216-0.64c-0.128-0.064-0.384-0.064-0.512 0.064-0.128 0.192-0.128 0.384 0.064 0.576l0.896 0.832c-0.192 0.384-0.128 0.704-0.128 1.024 0.192 2.112 0.128 2.88 0.128 2.944-0.128 0.064-0.256 0.192-0.384 0.32-0.512 0.512-0.384 0.96-0.448 2.56 0 0.128 0.064 0.32 0.256 0.32 0.192 0.064 0.384 0 0.448-0.192 0.576-1.664 0.512-1.536 0.576-1.6s0.192-0.064 0.192-0.064c0 0 0 0 0 0s0.064 0 0.064 0c-0.064 0 0 0 0 0 0.448-0.128 0.704-0.192 0.96-0.768 0.256-0.512 0.448-1.408 0.64-1.984l3.456 0.064c0.128 0.192 0.32 0.384 0.512 0.512l0.576 3.968c0 0.128 0.128 0.256 0.256 0.256 0.192 0 0.32-0.064 0.384-0.256l0.704-3.904c0.704-0.448 1.152-1.28 1.152-2.304 0-0.192 0-0.384-0.064-0.576l0.832-2.624 0.832 0.32c0.512 0.192 1.088 0.064 1.408-0.384l0.512-0.64c0.128-0.192 0.128-0.256 0.128-0.384zM6.592 11.584l-1.024-1.792 1.472-0.448-0.448 2.24z"></path>
</svg>
