<!-- Generated by IcoMoon.io -->
<svg version="1.1" xmlns="http://www.w3.org/2000/svg" width="32" height="32" viewBox="0 0 32 32">
<title>calendar-appointment</title>
<path d="M32 24.832l-0.192-0.96-4.48-21.056-0.256-1.088-1.088 0.256-1.408 0.32c-0.256-0.64-0.64-1.152-1.152-1.6-0.512-0.384-1.152-0.384-1.6 0-0.576 0.512-0.64 1.408-0.576 2.176 0 0.064 0 0.128 0 0.192l-0.896 0.256c0-0.064-0.064-0.128-0.128-0.192-0.256-0.512-0.576-1.024-1.024-1.344-0.512-0.384-1.152-0.384-1.6 0-0.512 0.448-0.64 1.344-0.576 2.048 0 0.064 0 0.192 0 0.256 0 0 0 0 0 0.064l-1.024 0.256c0 0 0-0.064 0-0.064-0.064-0.064-0.064-0.192-0.128-0.256-0.256-0.512-0.576-0.896-1.024-1.216-0.512-0.384-1.152-0.384-1.6 0-0.512 0.448-0.576 1.216-0.64 1.92 0 0.064 0 0.192 0 0.256s0 0.128 0 0.128l-0.96 0.256c0-0.064-0.064-0.128-0.064-0.192-0.064-0.064-0.064-0.192-0.128-0.256-0.256-0.448-0.512-0.832-0.96-1.088-0.512-0.384-1.152-0.384-1.6 0-0.448 0.512-0.576 1.216-0.576 1.856 0 0.064 0 0.192 0 0.256s0 0.192 0 0.256l-0.256 0.128-0.704 0.128c-0.064-0.064-0.064-0.192-0.128-0.256s-0.064-0.192-0.128-0.256c-0.256-0.384-0.512-0.704-0.896-1.024-0.448-0.32-1.088-0.384-1.6 0.064-0.448 0.384-0.576 1.024-0.576 1.664 0 0.064 0 0.192 0 0.256s0 0.192 0 0.256l-2.112 0.512-1.92 19.52 6.72-1.984 0.128 0.512 0.064 0.384-5.44 1.728-1.472 0.512 1.408 0.576 6.464 2.56 0.128 0.064h0.064l0.192-0.064 13.12-3.648 0.512-0.128 9.152-2.56 0.96-0.384zM22.528 1.536c0.064-0.064 0.064-0.064 0.064-0.064 0.128 0 0.256 0.128 0.384 0.256 0.192 0.192 0.32 0.448 0.448 0.704 0 0.064 0.064 0.064 0.064 0.128l-1.28 0.32c0-0.064 0-0.128 0-0.192 0.064-0.448 0.128-0.896 0.32-1.152zM18.24 2.624c0.064-0.064 0.064-0.064 0 0 0.192 0 0.32 0.064 0.448 0.192 0.192 0.192 0.32 0.384 0.384 0.576 0.064 0.064 0.064 0.128 0.128 0.256l-0.64 0.192-0.512 0.128c0 0 0 0 0 0 0-0.064-0.064-0.192-0.064-0.256 0.064-0.448 0.064-0.832 0.256-1.088zM13.696 4.608c0-0.32 0.064-0.704 0.256-0.896 0.064-0.064 0.064-0.064 0.064-0.064 0.128 0 0.256 0.128 0.384 0.256s0.256 0.256 0.32 0.448c0.064 0.064 0.128 0.192 0.128 0.256 0 0 0.064 0.064 0.064 0.064l-1.28 0.32c0-0.064 0-0.064 0-0.128 0.064-0.064 0.064-0.192 0.064-0.256zM9.664 4.8c0.064-0.064 0.064-0.064 0.064-0.064 0.128 0 0.256 0.128 0.384 0.256s0.192 0.192 0.256 0.32c0.064 0.064 0.128 0.192 0.128 0.256 0.064 0.064 0.064 0.128 0.128 0.192 0 0 0 0 0 0l-1.152 0.256c0-0.064-0.064-0.128-0.064-0.256 0-0.064 0-0.192 0-0.256 0.064-0.256 0.064-0.576 0.256-0.704zM5.056 6.784c0-0.064 0-0.192 0-0.256 0.064-0.256 0.128-0.448 0.256-0.64 0.064-0.064 0.064-0.064 0.064-0.064 0.128 0 0.256 0.128 0.384 0.256 0.064 0.064 0.128 0.128 0.192 0.192s0.128 0.128 0.192 0.256c0.064 0.064 0.128 0.192 0.128 0.256l-1.216 0.256c0-0.128 0-0.192 0-0.256zM21.632 26.624l-0.256 0.064-0.256 0.128-12.224 3.392-0.768-3.776-0.128-0.512-0.064-0.384-0.128-0.512-3.52-16.576 2.368-0.576c0.064 0.576 0.064 1.216-0.064 1.792-0.128 0.704 0.896 0.96 1.024 0.256 0.192-0.704 0.192-1.536 0.064-2.304l3.264-0.832c0.064 0.576 0.064 1.216-0.064 1.792-0.128 0.704 0.896 0.96 1.024 0.256 0.192-0.704 0.192-1.536 0.064-2.304l3.264-0.832c0.064 0.576 0.064 1.216-0.064 1.728-0.128 0.704 0.896 0.96 1.024 0.256 0.192-0.704 0.192-1.536 0.064-2.304l3.264-0.832c0.064 0.576 0.064 1.216-0.064 1.728-0.128 0.704 0.896 0.96 1.024 0.256 0.192-0.704 0.192-1.472 0.064-2.24l3.264-0.832c0 0.064 0 0.128 0 0.192 0.064 0.512 0 1.088-0.064 1.536-0.128 0.704 0.896 0.96 1.024 0.256 0.192-0.512 0.192-1.344 0.064-2.112l1.408-0.32 4.48 21.056-9.088 2.56zM12.16 20.672l-3.264 0.768-0.768-3.264 3.264-0.768 0.768 3.264zM12.864 20.48l-0.768-3.264 3.264-0.768 0.768 3.264-3.264 0.768zM16.064 16.192l3.264-0.768 0.768 3.264-3.264 0.768-0.768-3.264zM23.296 14.464l0.768 3.264-1.472 0.32-1.792 0.448-0.768-3.264 2.88-0.704 0.384-0.064zM24 14.208l3.264-0.768 0.768 3.264-3.264 0.768-0.768-3.264zM15.808 15.552l-0.768-3.264 3.264-0.768 0.768 3.264-3.264 0.768zM19.776 14.528l-0.768-3.264 3.264-0.768 0.32 1.408 0.384 1.664 0.064 0.192h-0.064l-0.512 0.128-2.688 0.64zM26.24 9.472l0.768 3.264-3.264 0.768-0.576-2.24-0.192-0.832v-0.192h0.064l0.256-0.064 2.944-0.704zM13.184 24.512l0.064 0.192-3.328 0.832-0.064-0.192-0.064-0.384-0.128-0.512-0.512-2.24 3.264-0.768 0.512 2.112 0.192 0.768 0.064 0.192zM17.152 23.552l0.064 0.128-2.048 0.512-1.216 0.32-0.064-0.192-0.064-0.256-0.064-0.192-0.128-0.512-0.512-2.112 3.264-0.768 0.448 1.92 0.128 0.512 0.064 0.128 0.128 0.512zM20.928 21.696l0.256 0.96-0.576 0.128-0.512 0.128-2.176 0.512-0.064-0.128-0.128-0.512-0.064-0.128-0.128-0.512-0.448-1.92 3.264-0.768 0.512 2.048 0.064 0.192z"></path>
</svg>
