<!-- Generated by IcoMoon.io -->
<svg version="1.1" xmlns="http://www.w3.org/2000/svg" width="32" height="32" viewBox="0 0 32 32">
<title>calendar</title>
<path d="M31.36 3.264h-3.584v-2.624c0-0.384-0.32-0.64-0.64-0.64h-3.904c-0.384 0-0.64 0.32-0.64 0.64v2.624h-3.904v-2.624c0-0.384-0.32-0.64-0.64-0.64h-3.904c-0.384 0-0.64 0.32-0.64 0.64v2.624h-3.904v-2.624c0-0.384-0.32-0.64-0.64-0.64h-4.032c-0.384 0-0.64 0.32-0.64 0.64v2.624h-3.648c-0.384 0-0.64 0.32-0.64 0.64v6.208h32v-6.208c0-0.32-0.32-0.64-0.64-0.64zM8.192 5.248h-2.624v-3.968h2.624v3.968zM17.28 5.248h-2.56v-3.968h2.56v3.968zM26.432 5.248h-2.624v-3.968h2.624v3.968z"></path>
<path d="M0 31.36c0 0.384 0.32 0.64 0.64 0.64h30.72c0.384 0 0.64-0.32 0.64-0.64v-19.776h-32v19.776zM23.68 13.952c0-0.256 0.192-0.512 0.512-0.512h3.264c0.256 0 0.512 0.192 0.512 0.512v3.264c0 0.256-0.192 0.512-0.512 0.512h-3.264c-0.256 0-0.512-0.192-0.512-0.512v-3.264zM23.68 19.84c0-0.256 0.192-0.512 0.512-0.512h3.264c0.256 0 0.512 0.192 0.512 0.512v3.264c0 0.256-0.192 0.512-0.512 0.512h-3.264c-0.256 0-0.512-0.192-0.512-0.512v-3.264zM23.68 25.728c0-0.256 0.192-0.512 0.512-0.512h3.264c0.256 0 0.512 0.192 0.512 0.512v3.264c0 0.256-0.192 0.512-0.512 0.512h-3.264c-0.256 0-0.512-0.192-0.512-0.512v-3.264zM17.152 13.952c0-0.256 0.192-0.512 0.512-0.512h3.264c0.256 0 0.512 0.192 0.512 0.512v3.264c0 0.256-0.192 0.512-0.512 0.512h-3.264c-0.256 0-0.512-0.192-0.512-0.512v-3.264zM17.152 19.84c0-0.256 0.192-0.512 0.512-0.512h3.264c0.256 0 0.512 0.192 0.512 0.512v3.264c0 0.256-0.192 0.512-0.512 0.512h-3.264c-0.256 0-0.512-0.192-0.512-0.512v-3.264zM17.152 25.728c0-0.256 0.192-0.512 0.512-0.512h3.264c0.256 0 0.512 0.192 0.512 0.512v3.264c0 0.256-0.192 0.512-0.512 0.512h-3.264c-0.256 0-0.512-0.192-0.512-0.512v-3.264zM10.624 13.952c0-0.256 0.192-0.512 0.512-0.512h3.264c0.256 0 0.512 0.192 0.512 0.512v3.264c0 0.256-0.192 0.512-0.512 0.512h-3.264c-0.256 0-0.512-0.192-0.512-0.512v-3.264zM10.624 19.84c0-0.256 0.192-0.512 0.512-0.512h3.264c0.256 0 0.512 0.192 0.512 0.512v3.264c0 0.256-0.192 0.512-0.512 0.512h-3.264c-0.256 0-0.512-0.192-0.512-0.512v-3.264zM10.624 25.728c0-0.256 0.192-0.512 0.512-0.512h3.264c0.256 0 0.512 0.192 0.512 0.512v3.264c0 0.256-0.192 0.512-0.512 0.512h-3.264c-0.256 0-0.512-0.192-0.512-0.512v-3.264zM4.096 13.952c0-0.256 0.192-0.512 0.512-0.512h3.264c0.256 0 0.512 0.192 0.512 0.512v3.264c0 0.256-0.192 0.512-0.512 0.512h-3.328c-0.256 0-0.512-0.192-0.512-0.512v-3.264zM4.096 19.84c0-0.256 0.192-0.512 0.512-0.512h3.264c0.256 0 0.512 0.192 0.512 0.512v3.264c0 0.256-0.192 0.512-0.512 0.512h-3.328c-0.256 0-0.512-0.192-0.512-0.512v-3.264zM4.096 25.728c0-0.256 0.192-0.512 0.512-0.512h3.264c0.256 0 0.512 0.192 0.512 0.512v3.264c0 0.256-0.192 0.512-0.512 0.512h-3.328c-0.256 0-0.512-0.192-0.512-0.512v-3.264z"></path>
</svg>
