<!-- Generated by IcoMoon.io -->
<svg version="1.1" xmlns="http://www.w3.org/2000/svg" width="32" height="32" viewBox="0 0 32 32">
<title>castle</title>
<path d="M29.376 20.992c-0.32 0-0.576 0.256-0.576 0.576v1.152c0 0.128-0.128 0.256-0.256 0.256h-1.024c-0.128 0-0.256-0.128-0.256-0.256v-1.152c0-0.32-0.256-0.576-0.576-0.576h-1.984c-0.32 0-0.576 0.256-0.576 0.576v1.472h-0.896l0.832 8.896v0.128h7.936c0-4.608 0-6.080 0-10.432 0-0.32-0.256-0.576-0.576-0.576l-2.048-0.064z"></path>
<path d="M8 21.568c0-0.32-0.256-0.576-0.576-0.576h-2.048c-0.32 0-0.576 0.256-0.576 0.576v1.152c0 0.128-0.128 0.256-0.256 0.256h-1.088c-0.128 0.064-0.256-0.064-0.256-0.256v-1.152c0-0.32-0.256-0.576-0.576-0.576h-2.048c-0.32 0-0.576 0.256-0.576 0.576 0 4.352 0 5.824 0 10.432h8.384v-0.128l0.832-8.832h-1.216v-1.472z"></path>
<path d="M20.416 7.104h-2.048v1.6h-1.216v-1.6h-2.048v1.6h-1.216v-1.6h-1.984v3.712l1.088 1.472-0.384 3.008h7.040l-0.32-3.008 1.088-1.472z"></path>
<path d="M22.848 19.008v-2.24c0-0.192-0.192-0.384-0.384-0.384h-1.088c-0.192 0-0.384 0.192-0.384 0.384v1.088h-1.088v-1.088c0-0.192-0.192-0.384-0.384-0.384h-1.088c-0.192 0-0.384 0.192-0.384 0.384v1.088h-1.088v-1.088c0-0.192-0.192-0.384-0.384-0.384h-1.088c-0.128 0-0.192 0.064-0.256 0.128s-0.128 0.192-0.128 0.256v1.088h-1.088v-1.088c0-0.192-0.192-0.384-0.384-0.384h-1.088c-0.192 0-0.384 0.192-0.384 0.384v1.088h-1.088v-1.088c0-0.192-0.192-0.384-0.384-0.384h-1.088c-0.192 0-0.384 0.192-0.384 0.384v2.24l1.088 1.408-0.832 11.584h13.376l-1.088-11.584 1.088-1.408z"></path>
<path d="M16.128 0l-5.504 6.016h11.008z"></path>
</svg>
