<!-- Generated by IcoMoon.io -->
<svg version="1.1" xmlns="http://www.w3.org/2000/svg" width="32" height="32" viewBox="0 0 32 32">
<title>clock</title>
<path d="M16 0c-8.832 0-16 7.168-16 16s7.168 16 16 16 16-7.168 16-16c0-8.832-7.168-16-16-16zM16.704 30.592v-2.816c0-0.384-0.32-0.704-0.704-0.704s-0.704 0.32-0.704 0.704v2.816c-7.552-0.384-13.568-6.4-13.888-13.888h2.816c0.384 0 0.704-0.32 0.704-0.704s-0.32-0.704-0.704-0.704h-2.816c0.384-7.552 6.4-13.568 13.888-13.888v2.816c0 0.384 0.32 0.704 0.704 0.704s0.704-0.32 0.704-0.704v-2.816c7.552 0.384 13.568 6.4 13.888 13.888h-2.816c-0.384 0-0.704 0.32-0.704 0.704s0.32 0.704 0.704 0.704v0h2.816c-0.32 7.488-6.4 13.504-13.888 13.888z"></path>
<path d="M23.232 22.4l-6.528-6.656v-6.976c0-0.384-0.32-0.704-0.704-0.704s-0.704 0.32-0.704 0.704v7.232c0 0.192 0.064 0.384 0.192 0.512l6.72 6.848c0.256 0.256 0.704 0.256 0.96 0s0.32-0.704 0.064-0.96z"></path>
</svg>
