<!-- Generated by IcoMoon.io -->
<svg version="1.1" xmlns="http://www.w3.org/2000/svg" width="32" height="32" viewBox="0 0 32 32">
<title>close</title>
<path d="M16 0c-8.832 0-16 7.168-16 16s7.168 16 16 16c4.16 0 8.064-1.6 11.072-4.48 0.256-0.256 0.256-0.64 0-0.896s-0.64-0.256-0.896 0c-2.752 2.624-6.336 4.096-10.176 4.096-8.128 0-14.72-6.592-14.72-14.72s6.592-14.72 14.72-14.72 14.72 6.592 14.72 14.72c0 1.856-0.32 3.584-0.96 5.312-0.128 0.32 0.064 0.704 0.384 0.832s0.704-0.064 0.832-0.384c0.704-1.856 1.088-3.776 1.088-5.76-0.064-8.832-7.232-16-16.064-16z"></path>
<path d="M18.176 17.408c-0.256-0.256-0.64-0.256-0.896 0s-0.256 0.64 0 0.896l5.12 4.992c0.128 0.128 0.32 0.192 0.448 0.192 0.192 0 0.32-0.064 0.448-0.192 0.256-0.256 0.256-0.64 0-0.896l-5.12-4.992z"></path>
<path d="M13.568 14.528c0.128 0.128 0.32 0.192 0.448 0.192s0.32-0.064 0.448-0.192c0.256-0.256 0.256-0.64 0-0.896l-4.864-4.928c-0.256-0.256-0.64-0.256-0.896 0s-0.256 0.64 0 0.896l4.864 4.928z"></path>
<path d="M23.296 8.704c-0.256-0.256-0.64-0.256-0.896 0l-13.696 13.696c-0.256 0.256-0.256 0.64 0 0.896 0.128 0.128 0.32 0.192 0.448 0.192 0.192 0 0.32-0.064 0.448-0.192l13.696-13.696c0.256-0.256 0.256-0.64 0-0.896z"></path>
</svg>
