<!-- Generated by IcoMoon.io -->
<svg version="1.1" xmlns="http://www.w3.org/2000/svg" width="32" height="32" viewBox="0 0 32 32">
<title>contact-mobile</title>
<path d="M10.88 10.24h10.24v11.52h-10.24v-11.52z"></path>
<path d="M19.84 7.040h-7.68c-0.64 0-1.28 0.64-1.28 1.28v1.28h10.24v-1.28c0-0.64-0.64-1.28-1.28-1.28zM16.768 8.96h-1.536c-0.192 0-0.384-0.448-0.384-0.64s0.192-0.64 0.384-0.64h1.536c0.192 0 0.384 0.448 0.384 0.64s-0.192 0.64-0.384 0.64z"></path>
<path d="M10.88 23.68c0 0.64 0.64 1.28 1.28 1.28h7.68c0.64 0 1.28-0.64 1.28-1.28v-1.28h-10.24v1.28zM16 23.296c0.192 0 0.384 0.192 0.384 0.384s-0.192 0.384-0.384 0.384-0.384-0.192-0.384-0.384 0.192-0.384 0.384-0.384z"></path>
<path d="M15.936 0c-8.768 0-15.936 7.168-15.936 15.936s7.168 16.064 15.936 16.064 16.064-7.296 16.064-16.064-7.296-15.936-16.064-15.936zM21.76 23.68c0 1.088-0.832 1.92-1.92 1.92h-7.68c-1.088 0-1.92-0.832-1.92-1.92v-15.36c0-1.088 0.832-1.92 1.92-1.92h7.68c1.088 0 1.92 0.832 1.92 1.92v15.36z"></path>
</svg>
