<!-- Generated by IcoMoon.io -->
<svg version="1.1" xmlns="http://www.w3.org/2000/svg" width="32" height="32" viewBox="0 0 32 32">
<title>contact-mail</title>
<path d="M16.064 13.12c-1.536 0-2.816 1.28-2.816 2.816s1.28 2.816 2.816 2.816 2.816-1.28 2.816-2.816-1.28-2.816-2.816-2.816z"></path>
<path d="M15.936 0c-8.768 0-15.936 7.168-15.936 15.936s7.168 16.064 15.936 16.064 16.064-7.296 16.064-16.064-7.296-15.936-16.064-15.936zM22.656 20.608c-1.28 0-2.368-0.64-3.072-1.6-0.832 0.96-2.112 1.6-3.52 1.6-2.56 0-4.672-2.112-4.672-4.672s2.112-4.672 4.672-4.672c1.088 0 2.048 0.384 2.816 0.96v0c0-0.512 0.448-0.96 0.96-0.96s0.96 0.448 0.96 0.96c0 2.112 0 2.624 0 4.672 0 1.024 0.832 1.856 1.856 1.856s1.856-0.832 1.856-1.856c0-6.272-4.16-9.344-8.448-9.344-4.672 0-8.448 3.776-8.448 8.448s3.776 8.448 8.448 8.448c1.856 0 3.648-0.576 5.12-1.728 0.96-0.768 2.112 0.704 1.152 1.472-1.792 1.408-3.968 2.112-6.272 2.112-5.696-0.064-10.304-4.672-10.304-10.368s4.608-10.304 10.304-10.304c5.184 0 10.304 3.84 10.304 11.264 0 2.048-1.664 3.712-3.712 3.712z"></path>
</svg>
