<!-- Generated by IcoMoon.io -->
<svg version="1.1" xmlns="http://www.w3.org/2000/svg" width="32" height="32" viewBox="0 0 32 32">
<title>contact-phone</title>
<path d="M15.936 0c-8.768 0-15.936 7.168-15.936 15.936s7.168 16.064 15.936 16.064 16.064-7.296 16.064-16.064-7.296-15.936-16.064-15.936zM25.344 23.104c-0.448 0.512-1.152 1.408-1.472 1.728-0.576 0.576-1.28 0.832-2.496 0.832-1.344 0-6.464-2.496-9.408-5.568-3.072-3.008-5.568-8.064-5.568-9.472 0-1.152 0.256-1.92 0.832-2.496 0.256-0.256 1.088-0.96 1.728-1.472 0.256-0.192 0.576-0.32 0.896-0.256s0.576 0.192 0.768 0.448l2.88 3.712c0.512 0.64 0.512 1.472 0.128 2.176l-0.384 0.704c-0.256 0.384-0.192 0.896 0.064 1.28 0.384 0.512 1.088 1.344 1.856 2.112s1.6 1.472 2.176 1.856c0.384 0.32 0.896 0.32 1.28 0.064l0.704-0.384c0.704-0.384 1.536-0.32 2.176 0.128l3.712 2.88c0.256 0.192 0.384 0.448 0.448 0.768-0.064 0.384-0.128 0.704-0.32 0.96z"></path>
<path d="M20.992 19.136c-0.384-0.32-0.768-0.32-1.216-0.064l-0.576 0.384c0 0 0 0 0 0-0.64 0.384-1.664 0.32-2.24-0.128s-1.472-1.152-2.304-1.92c-0.832-0.832-1.536-1.664-1.92-2.176-0.512-0.64-0.576-1.472-0.128-2.176l0.384-0.704c0.256-0.448 0.192-0.96-0.064-1.28l-2.88-3.712c-0.064-0.064-0.192-0.128-0.256-0.128 0 0 0 0-0.064 0s-0.192 0-0.256 0.064c-0.896 0.704-1.472 1.216-1.664 1.408-0.32 0.32-0.576 0.768-0.576 1.92 0 1.024 2.368 6.016 5.312 8.832 2.88 3.008 7.808 5.376 8.832 5.376 1.216 0 1.664-0.256 1.92-0.576 0.192-0.192 0.704-0.832 1.408-1.664 0.064-0.064 0.128-0.192 0.064-0.32 0-0.128-0.064-0.192-0.128-0.256l-3.648-2.88z"></path>
</svg>
