<!-- Generated by IcoMoon.io -->
<svg version="1.1" xmlns="http://www.w3.org/2000/svg" width="32" height="32" viewBox="0 0 32 32">
<title>distance</title>
<path d="M26.688 6.656c-2.944 0-5.312 2.368-5.312 5.312 0 1.984 2.304 5.568 3.712 7.616-0.064 0.064-0.192 0.128-0.192 0.256-0.128 0.32 0 0.704 0.256 0.832-0.32 0.192-0.384 0.576-0.256 0.896 0.128 0.256 0.384 0.384 0.576 0.384 0.128 0 0.192 0 0.32-0.064l1.216-0.576c0.064-0.064 0.192-0.128 0.256-0.192 0.512-0.64 4.8-6.336 4.8-9.088-0.064-2.944-2.432-5.376-5.376-5.376zM26.688 13.312c-0.704 0-1.344-0.576-1.344-1.344s0.576-1.344 1.344-1.344 1.344 0.576 1.344 1.344-0.64 1.344-1.344 1.344z"></path>
<path d="M6.976 30.208c1.408-2.048 3.712-5.568 3.712-7.552 0-2.944-2.368-5.312-5.312-5.312s-5.312 2.368-5.312 5.312c0 2.752 4.288 8.448 4.8 9.088 0.064 0.128 0.256 0.256 0.448 0.256 0.128 0 0.192 0 0.32-0.064v0l1.216-0.576c0.32-0.192 0.448-0.576 0.32-0.896-0.064-0.128-0.128-0.192-0.192-0.256zM5.312 24c-0.704 0-1.344-0.576-1.344-1.344s0.576-1.344 1.344-1.344 1.344 0.576 1.344 1.344-0.576 1.344-1.344 1.344z"></path>
<path d="M14.656 25.92l-2.112 1.024c-0.32 0.192-0.448 0.576-0.32 0.896 0.128 0.256 0.384 0.384 0.576 0.384 0.128 0 0.192 0 0.32-0.064l2.112-1.024c0.32-0.192 0.448-0.576 0.32-0.896-0.192-0.32-0.576-0.448-0.896-0.32z"></path>
<path d="M23.040 21.696l-2.112 1.024c-0.32 0.192-0.448 0.576-0.32 0.896 0.128 0.256 0.384 0.384 0.576 0.384 0.128 0 0.192 0 0.32-0.064l2.112-1.024c0.32-0.192 0.448-0.576 0.32-0.896s-0.512-0.448-0.896-0.32z"></path>
<path d="M10.432 28.032l-2.112 1.024c-0.32 0.192-0.448 0.576-0.32 0.896 0.128 0.256 0.384 0.384 0.576 0.384 0.128 0 0.192 0 0.32-0.064l2.112-1.024c0.32-0.192 0.448-0.576 0.32-0.896s-0.576-0.448-0.896-0.32z"></path>
<path d="M18.88 23.808l-2.112 1.024c-0.32 0.192-0.448 0.576-0.32 0.896 0.128 0.256 0.384 0.384 0.576 0.384 0.128 0 0.192 0 0.32-0.064l2.112-1.024c0.32-0.192 0.448-0.576 0.32-0.896-0.192-0.32-0.576-0.448-0.896-0.32z"></path>
<path d="M22.976 19.648c0.256 0 0.512-0.128 0.576-0.384 0.128-0.32 0-0.704-0.32-0.896l-2.368-1.088c-0.32-0.128-0.704 0-0.896 0.32-0.128 0.32 0 0.704 0.32 0.896l2.432 1.088c0.128 0.064 0.192 0.064 0.256 0.064z"></path>
<path d="M15.040 15.36c-0.128 0.32 0 0.704 0.32 0.896l2.432 1.088c0.064 0.064 0.192 0.064 0.256 0.064 0.256 0 0.512-0.128 0.576-0.384 0.128-0.32 0-0.704-0.32-0.896l-2.432-1.088c-0.256-0.128-0.64 0-0.832 0.32z"></path>
<path d="M13.184 15.232c0.256 0 0.512-0.128 0.576-0.384 0.128-0.32 0-0.704-0.32-0.896l-0.448-0.192c1.28-1.728 4.288-6.080 4.288-8.384 0-2.944-2.368-5.312-5.312-5.312s-5.312 2.368-5.312 5.312c0 2.752 4.288 8.448 4.8 9.088 0.064 0.064 0.128 0.128 0.256 0.192 0 0 0 0 0 0l1.216 0.576c0.128-0.064 0.192 0 0.256 0zM10.688 5.312c0-0.704 0.576-1.344 1.344-1.344s1.344 0.576 1.344 1.344-0.576 1.344-1.344 1.344-1.344-0.576-1.344-1.344z"></path>
</svg>
