<!-- Generated by IcoMoon.io -->
<svg version="1.1" xmlns="http://www.w3.org/2000/svg" width="32" height="32" viewBox="0 0 32 32">
<title>family</title>
<path d="M18.24 18.304c0.064-0.256 0.064-0.576 0.064-0.896 0-0.256 0-0.576 0-0.832 0-0.64 0-1.216-0.064-1.856-0.064-1.152-0.128-2.304-0.256-3.456-0.064-0.512-0.128-1.024-0.192-1.536v0c1.344-0.832 2.56-1.92 3.456-3.2 0.384-0.512 0.64-1.088 0.896-1.728 0.192-0.448 0.32-0.96 0.448-1.472s-0.192-1.024-0.704-1.152c-0.512-0.128-1.024 0.128-1.152 0.64-0.064 0.256-0.192 0.512-0.32 0.768-0.192 0.384-0.384 0.768-0.64 1.088-0.448 0.64-0.96 1.152-1.536 1.6-0.704 0.512-1.408 0.96-2.24 1.28-1.024 0.32-1.856 0.384-3.2 0.128-1.536-0.32-3.136-0.96-4.288-2.048-0.32-0.32-0.576-0.64-0.832-0.96-0.192-0.256-0.32-0.512-0.448-0.768-0.256-0.448-0.832-0.576-1.28-0.384-0.448 0.256-0.64 0.768-0.448 1.216 0.256 0.32 0.384 0.576 0.512 0.832 0.192 0.384 0.448 0.768 0.704 1.088 0.512 0.704 1.152 1.28 1.856 1.856 0.832 0.64 1.792 1.152 2.816 1.536 0 0.512 0.064 1.088 0.064 1.6 0.064 1.088 0.064 2.24 0.128 3.328 0 0.576 0.064 1.088 0.064 1.664s0 1.216 0.128 1.792c0.064 0.32 0.128 0.576 0.32 0.896 0 1.728-0.128 3.456-0.32 5.184-0.128 0.896-0.192 1.728-0.384 2.624-0.128 0.768-0.256 1.536-0.448 2.368 0 0.064 0 0.128 0 0.128-0.128 0.64 0.32 1.216 0.896 1.344s1.216-0.256 1.408-0.832c0.192-0.64 0.384-1.28 0.576-1.984 0.256-0.832 0.448-1.664 0.64-2.56 0.384-1.536 0.64-3.072 0.832-4.608 0.128 0 0.32-0.064 0.448-0.064 0.512 1.664 0.768 3.456 0.768 5.248 0 1.216-0.128 2.368-0.32 3.584-0.128 0.64 0.32 1.216 0.896 1.344s1.216-0.256 1.408-0.832c0.192-0.64 0.32-1.28 0.448-1.984 0.192-0.832 0.256-1.728 0.32-2.624s0.064-1.856 0-2.752c-0.192-1.536-0.512-3.072-1.024-4.608z"></path>
<path d="M19.2 22.976c0 0.256 0-0.064 0 0v0z"></path>
<path d="M12.608 6.592c0.512 0.32 1.152 0.512 1.792 0.512 1.216 0 2.432-0.768 2.944-1.856 0.512-1.152 0.32-2.56-0.512-3.456-0.832-0.96-2.176-1.344-3.392-1.024-1.152 0.384-2.048 1.408-2.24 2.624-0.256 1.216 0.32 2.496 1.408 3.2z"></path>
<path d="M25.024 13.312c0.128 0 0.32 0.064 0.448 0.064 0.64 0 1.216-0.256 1.664-0.64 0.448-0.448 0.704-1.024 0.768-1.6 0-0.64-0.192-1.216-0.576-1.728-0.384-0.448-0.96-0.768-1.6-0.832s-1.216 0.128-1.728 0.512c-0.448 0.384-0.768 0.96-0.896 1.536-0.064 0.64 0.064 1.28 0.448 1.792 0.32 0.448 0.832 0.768 1.472 0.896z"></path>
<path d="M31.488 9.664c-0.384-0.064-0.704 0.128-0.832 0.448s-0.192 0.576-0.32 0.832c-0.192 0.384-0.448 0.704-0.704 1.024-0.576 0.64-1.28 1.152-2.048 1.536-0.256 0.128-0.512 0.192-0.704 0.32-0.832 0.256-1.664 0.256-2.496 0-0.384-0.128-0.704-0.256-1.088-0.448s-0.768-0.448-1.088-0.704c-0.448-0.384-0.832-0.768-1.152-1.28-0.256-0.384-0.448-0.832-0.576-1.28-0.128-0.384-0.512-0.576-0.896-0.448-0.32 0.128-0.576 0.512-0.512 0.832s0.128 0.64 0.256 0.896c0.128 0.384 0.32 0.768 0.512 1.152 0.448 0.768 1.024 1.408 1.664 1.984 0.512 0.384 1.024 0.768 1.6 1.088 0 0.192 0 0.448 0 0.64 0 0.32 0 0.704 0 1.024 0 0.896 0.064 1.728 0.064 2.624 0 0.576 0 1.216 0.192 1.728l-0.832 8.768c-0.064 0.448 0.32 0.896 0.768 0.96s0.896-0.256 0.96-0.704l1.28-6.72 0.896 6.72c0.064 0.448 0.512 0.832 0.96 0.768s0.832-0.448 0.768-0.896l-0.384-8.768c0.128-0.32 0.192-0.64 0.192-1.024 0-0.512 0-1.024-0.064-1.536 0-0.832-0.064-1.728-0.064-2.56 0-0.32 0-0.64-0.064-0.96 0.768-0.384 1.536-0.96 2.176-1.6 0.512-0.512 0.96-1.088 1.28-1.728 0.32-0.576 0.512-1.152 0.64-1.792 0.192-0.448-0.064-0.832-0.384-0.896z"></path>
<path d="M30.080 14.016c-0.128 0.064 0.064-0.064 0 0v0z"></path>
<path d="M5.056 18.368c0 0 0.064 0 0.064 0 0.64 0 1.216-0.384 1.472-0.96 0.32-0.576 0.256-1.216-0.064-1.792-0.32-0.512-0.896-0.832-1.536-0.832s-1.216 0.384-1.536 0.896c-0.32 0.576-0.32 1.216 0 1.792 0.384 0.576 1.024 0.896 1.6 0.896z"></path>
<path d="M8.832 17.408c-0.384 0.32-0.832 0.64-1.344 0.896-3.904 1.664-5.632-1.024-6.144-1.856-0.128-0.256-0.256-0.512-0.32-0.768s-0.384-0.448-0.64-0.32c0.064 0 0.128-0.064 0 0s-0.064 0 0 0c-0.256 0.064-0.384 0.384-0.32 0.64 0 0 0 0.064 0 0.064 0.192 0.768 0.512 1.536 1.024 2.112 0.512 0.64 1.216 1.152 1.984 1.536l-0.128 2.88-1.024 3.84c0 0.128 0 0.192 0.064 0.256 0.064 0.128 0.128 0.192 0.256 0.192h0.704l-0.192 3.84c0 0.32 0.256 0.64 0.576 0.704 0.32 0 0.64-0.256 0.704-0.576l0.576-3.968h0.32l0.768 3.968c0 0.32 0.32 0.512 0.704 0.512 0.32-0.064 0.576-0.384 0.576-0.704l-0.384-3.776h0.704c0.128 0 0.192-0.064 0.256-0.128s0.064-0.192 0.064-0.256l-1.152-3.968 0.064-2.56c0.64-0.064 1.216-0.32 1.728-0.704 0.256-0.192 0.512-0.384 0.704-0.576s0.32-0.32 0.512-0.512c0.192-0.192 0.192-0.512 0-0.704-0.128-0.256-0.448-0.256-0.64-0.064z"></path>
</svg>
