<!-- Generated by IcoMoon.io -->
<svg version="1.1" xmlns="http://www.w3.org/2000/svg" width="32" height="32" viewBox="0 0 32 32">
<title>gps</title>
<path d="M9.472 4.352c-2.816 0-5.12 2.304-5.12 5.12s2.304 5.12 5.12 5.12 5.12-2.304 5.12-5.12-2.304-5.12-5.12-5.12zM9.472 13.056c-1.984 0-3.648-1.6-3.648-3.648s1.6-3.648 3.648-3.648 3.648 1.6 3.648 3.648-1.664 3.648-3.648 3.648z"></path>
<path d="M13.184 29.76v0c-0.448-0.128-0.832-0.32-1.28-0.576-0.32-0.256-0.768-0.192-1.024 0.192-0.256 0.32-0.192 0.768 0.192 1.024 0.064 0 0.064 0.064 0.128 0.064 0.448 0.256 0.96 0.512 1.472 0.704 0.064 0 0.192 0.064 0.256 0.064 0.384 0 0.704-0.32 0.704-0.704 0.064-0.384-0.128-0.64-0.448-0.768z"></path>
<path d="M23.36 16c0.064 0 0.064 0 0 0 0.384 0.192 0.768 0.064 1.024-0.256 0.256-0.384 0.512-0.768 0.832-1.152 0.256-0.32 0.192-0.768-0.064-1.024-0.32-0.256-0.768-0.192-1.024 0.064-0.384 0.384-0.64 0.832-0.96 1.344-0.256 0.384-0.128 0.832 0.192 1.024z"></path>
<path d="M9.536 0c0 0-0.064 0-0.064 0-5.248 0-9.472 4.224-9.472 9.472 0 0 0 0.064 0 0.064 0 7.744 9.472 15.168 9.472 15.168s9.408-7.424 9.408-15.168c0.064-5.248-4.16-9.472-9.344-9.536zM9.472 22.784c-1.28-1.152-2.496-2.368-3.648-3.712-1.984-2.368-4.352-6.016-4.352-9.6 0-4.352 3.584-7.936 8-7.936s8 3.584 8 8c0 5.568-5.76 11.264-8 13.248z"></path>
<path d="M17.472 30.528c-0.512 0-1.024-0.064-1.472-0.128-0.384-0.064-0.768 0.256-0.832 0.64 0 0 0 0 0 0-0.064 0.384 0.256 0.768 0.64 0.832 0 0 0 0 0 0 0.512 0.064 1.024 0.128 1.536 0.128h0.064c0.384 0 0.768-0.32 0.768-0.704s-0.32-0.768-0.704-0.768z"></path>
<path d="M10.304 27.328c-0.064-0.128-0.128-0.32-0.128-0.448 0-0.384-0.32-0.704-0.704-0.704s-0.704 0.32-0.704 0.704c0 0.32 0.064 0.64 0.192 0.96 0.128 0.256 0.384 0.448 0.704 0.448 0.064 0 0.192 0 0.256-0.064 0.32-0.064 0.512-0.512 0.384-0.896 0 0 0 0 0 0z"></path>
<path d="M27.648 10.496c-0.384 0.32-0.832 0.64-1.216 0.96-0.32 0.256-0.32 0.704-0.064 1.024 0.256 0.256 0.64 0.32 0.96 0.128 0.384-0.32 0.768-0.64 1.152-0.896 0.32-0.256 0.384-0.704 0.128-1.024s-0.64-0.384-0.96-0.192z"></path>
<path d="M27.712 24.96c0 0.064 0 0.064 0 0v0c-0.384 0.064-0.64 0.448-0.576 0.896 0 0 0 0 0 0 0.064 0.256 0.064 0.448 0.064 0.704 0 0.192 0 0.384-0.064 0.512-0.064 0.384 0.192 0.768 0.576 0.832h0.128c0.384 0 0.64-0.256 0.704-0.576 0.064-0.256 0.064-0.512 0.064-0.832s-0.064-0.64-0.128-0.96c0.064-0.384-0.32-0.64-0.768-0.576z"></path>
<path d="M21.824 30.336v0c-0.448 0.064-0.96 0.128-1.472 0.128-0.384 0-0.704 0.32-0.704 0.768 0 0.384 0.32 0.704 0.768 0.704h0.064c0.512 0 1.088-0.064 1.536-0.128 0.384-0.064 0.704-0.448 0.64-0.832s-0.448-0.704-0.832-0.64z"></path>
<path d="M31.872 8.768v0c-0.192-0.384-0.576-0.512-0.96-0.32 0 0 0 0 0 0s-0.256 0.128-0.64 0.384c-0.32 0.192-0.448 0.64-0.256 1.024 0.192 0.32 0.64 0.448 1.024 0.256l0.64-0.32c0.256-0.256 0.384-0.64 0.192-1.024z"></path>
<path d="M24.128 19.328v0c-0.192-0.32-0.32-0.704-0.384-1.152-0.064-0.384-0.384-0.704-0.832-0.64-0.384 0.064-0.704 0.384-0.64 0.832 0.064 0.576 0.256 1.152 0.576 1.728 0.192 0.32 0.64 0.448 1.024 0.256 0.32-0.256 0.448-0.704 0.256-1.024z"></path>
<path d="M27.136 22.656c0-0.064-0.064-0.064 0 0v0c-0.384-0.448-0.704-0.896-1.088-1.28-0.256-0.32-0.704-0.32-1.024-0.064s-0.32 0.704-0.064 1.024c0 0 0.064 0.064 0.064 0.064 0.32 0.32 0.64 0.704 0.96 1.088 0.256 0.32 0.704 0.384 1.024 0.192 0.256-0.256 0.32-0.704 0.128-1.024z"></path>
<path d="M25.792 28.992c0 0 0 0.064 0 0v0c-0.448 0.32-0.832 0.512-1.216 0.704-0.384 0.128-0.576 0.576-0.384 0.96 0.128 0.384 0.576 0.576 0.96 0.384 0.512-0.192 1.024-0.448 1.472-0.768 0.32-0.192 0.448-0.64 0.256-1.024-0.256-0.384-0.704-0.448-1.088-0.256z"></path>
</svg>
