<!-- Generated by IcoMoon.io -->
<svg version="1.1" xmlns="http://www.w3.org/2000/svg" width="32" height="32" viewBox="0 0 32 32">
<title>help</title>
<path d="M20.16 10.88c-0.192-0.448-0.512-0.896-0.96-1.216v0c-0.384-0.32-0.832-0.576-1.344-0.704-0.512-0.192-1.088-0.256-1.664-0.256-0.704 0-1.344 0.128-1.984 0.32-0.576 0.192-1.088 0.576-1.472 0.96-0.448 0.448-0.768 0.96-0.96 1.536-0.192 0.64-0.32 1.28-0.32 1.92v0.192h1.6v-0.192c0-0.448 0.064-0.896 0.192-1.344 0.128-0.384 0.32-0.768 0.576-1.024 0.256-0.32 0.576-0.576 0.96-0.704 0.448-0.192 0.896-0.256 1.344-0.256 0.384 0 0.704 0.064 1.024 0.192s0.576 0.256 0.832 0.512c0.256 0.192 0.448 0.448 0.576 0.768s0.256 0.64 0.256 1.024c0 0.448-0.128 0.896-0.384 1.28s-0.512 0.768-0.896 1.088c-0.448 0.384-0.768 0.704-1.088 1.024-0.256 0.32-0.512 0.64-0.704 0.96-0.192 0.384-0.32 0.768-0.384 1.152-0.128 0.512-0.128 1.088-0.128 1.6v0.128h1.6v-0.192c0-0.576 0.064-1.024 0.064-1.344 0-0.256 0.128-0.512 0.192-0.704 0.128-0.256 0.32-0.448 0.512-0.64 0.256-0.256 0.576-0.576 1.024-0.96 0.512-0.448 0.896-0.96 1.28-1.472 0.384-0.576 0.512-1.28 0.512-1.92 0.128-0.64 0-1.216-0.256-1.728z"></path>
<path d="M15.104 20.864h2.048v2.432h-2.048v-2.432z"></path>
<path d="M16 0c-8.832 0-16 7.168-16 16s7.168 16 16 16 16-7.168 16-16-7.168-16-16-16zM16 30.528c-8.064 0-14.528-6.464-14.528-14.528s6.464-14.528 14.528-14.528 14.528 6.464 14.528 14.528-6.464 14.528-14.528 14.528z"></path>
</svg>
