<!-- Generated by IcoMoon.io -->
<svg version="1.1" xmlns="http://www.w3.org/2000/svg" width="32" height="32" viewBox="0 0 32 32">
<title>info</title>
<path d="M18.112 22.528c-0.32 0-0.64-0.064-0.96-0.192-0.192-0.192-0.32-0.512-0.256-0.768 0-0.256 0.064-0.512 0.064-0.704 0.064-0.256 0.128-0.576 0.192-0.832l0.832-2.944c0.064-0.32 0.128-0.576 0.192-0.896 0-0.32 0.064-0.576 0.064-0.704 0-0.576-0.256-1.152-0.704-1.536-0.576-0.448-1.216-0.64-1.92-0.576-0.512 0-0.96 0.064-1.472 0.256-0.512 0.128-1.024 0.32-1.6 0.576l-0.256 0.96c0.192-0.064 0.384-0.128 0.576-0.192s0.448-0.128 0.704-0.128c0.32-0.064 0.64 0.064 0.896 0.256 0.192 0.192 0.256 0.512 0.256 0.768s0 0.512-0.064 0.704c-0.064 0.256-0.128 0.512-0.192 0.832l-0.896 2.944c-0.064 0.256-0.128 0.576-0.192 0.832 0.064 0.256 0.064 0.512 0.064 0.704 0 0.576 0.256 1.152 0.704 1.536 0.576 0.448 1.28 0.64 1.92 0.576 0.512 0 0.96-0.064 1.472-0.192 0.384-0.128 0.96-0.32 1.664-0.576l0.256-0.896c-0.192 0.064-0.384 0.128-0.576 0.192-0.256 0-0.512 0-0.768 0z"></path>
<path d="M19.072 8.576c-0.384-0.384-0.896-0.576-1.472-0.576-0.512 0-1.088 0.192-1.472 0.576-0.704 0.64-0.832 1.728-0.192 2.432 0.064 0.064 0.128 0.128 0.192 0.192 0.832 0.768 2.112 0.768 2.88 0 0.704-0.64 0.832-1.728 0.192-2.432-0.064-0.128-0.064-0.192-0.128-0.192z"></path>
<path d="M16 0c-8.832 0-16 7.168-16 16s7.168 16 16 16 16-7.168 16-16-7.168-16-16-16zM16 30.528c-8.064 0-14.528-6.464-14.528-14.528s6.464-14.528 14.528-14.528 14.528 6.464 14.528 14.528-6.464 14.528-14.528 14.528z"></path>
</svg>
