<!-- Generated by IcoMoon.io -->
<svg version="1.1" xmlns="http://www.w3.org/2000/svg" width="32" height="32" viewBox="0 0 32 32">
<title>link-reddit</title>
<path d="M24.512 9.088c0.64 0 1.152-0.512 1.152-1.152s-0.512-1.152-1.152-1.152-1.152 0.512-1.152 1.152c0 0.64 0.512 1.152 1.152 1.152z"></path>
<path d="M19.84 15.936c-0.96 0-1.792 0.768-1.792 1.728s0.832 1.728 1.792 1.728 1.728-0.768 1.728-1.728-0.832-1.728-1.728-1.728z"></path>
<path d="M13.952 17.664c0-0.96-0.768-1.728-1.728-1.728s-1.728 0.768-1.728 1.728c0 0.96 0.832 1.728 1.728 1.728 0.96-0.064 1.728-0.832 1.728-1.728z"></path>
<path d="M19.2 21.696c-0.64 0.576-1.664 0.896-3.2 0.896 0 0 0 0 0 0s0 0 0 0c-1.536 0-2.624-0.32-3.2-0.896-0.256-0.256-0.704-0.256-0.96 0s-0.256 0.704 0 0.96c0.896 0.896 2.24 1.28 4.224 1.28 0 0 0 0 0 0s0 0 0 0c1.92 0 3.328-0.448 4.224-1.28 0.256-0.256 0.256-0.704 0-0.96-0.32-0.32-0.768-0.32-1.088 0z"></path>
<path d="M24.32 0h-16.64c-4.224 0-7.68 3.456-7.68 7.68v16.64c0 4.224 3.456 7.68 7.68 7.68h16.64c4.224 0 7.68-3.456 7.68-7.68v-16.64c0-4.224-3.456-7.68-7.68-7.68zM27.392 18.304c0 0.192 0.064 0.448 0.064 0.64 0 2.112-1.216 4.032-3.456 5.44-2.176 1.344-4.992 2.112-8 2.112s-5.824-0.768-8-2.112c-2.304-1.408-3.52-3.328-3.52-5.376 0-0.256 0-0.512 0.064-0.704-0.832-0.576-1.344-1.472-1.344-2.56 0-1.664 1.408-3.008 3.072-3.008 0.704 0 1.344 0.256 1.92 0.64 1.984-1.216 4.608-1.92 7.36-1.984l1.664-5.12c0.064-0.32 0.448-0.512 0.768-0.448l4.224 0.96c0.448-0.832 1.28-1.344 2.304-1.344 1.408 0 2.56 1.152 2.56 2.496 0 1.408-1.152 2.496-2.56 2.496-1.344 0-2.496-1.024-2.56-2.368l-3.648-0.832-1.344 4.16c2.56 0.128 4.928 0.832 6.784 1.984 0.512-0.448 1.216-0.704 1.92-0.704 1.728 0 3.072 1.344 3.072 3.008 0.064 1.152-0.512 2.112-1.344 2.624z"></path>
</svg>
