<!-- Generated by IcoMoon.io -->
<svg version="1.1" xmlns="http://www.w3.org/2000/svg" width="32" height="32" viewBox="0 0 32 32">
<title>link-google-plus</title>
<path d="M24.32 0h-16.64c-4.224 0-7.68 3.456-7.68 7.68v16.64c0 4.224 3.456 7.68 7.68 7.68h16.64c4.224 0 7.68-3.456 7.68-7.68v-16.64c0-4.224-3.456-7.68-7.68-7.68zM11.328 24c-4.48 0-8.128-3.584-8.128-8s3.648-8 8.128-8c2.176 0 4.032 0.768 5.44 2.112l-2.176 2.048c-0.576-0.576-1.664-1.216-3.264-1.216-2.752 0-5.056 2.24-5.056 5.056s2.24 5.056 5.056 5.056c3.2 0 4.416-2.304 4.608-3.456h-4.608v-2.752h7.68c0.064 0.384 0.128 0.832 0.128 1.344 0 4.544-3.072 7.808-7.808 7.808zM28.8 16.96h-2.432v2.368h-2.432v-2.368h-2.432v-2.368h2.432v-2.368h2.432v2.368h2.432v2.368z"></path>
</svg>
