<!-- Generated by IcoMoon.io -->
<svg version="1.1" xmlns="http://www.w3.org/2000/svg" width="32" height="32" viewBox="0 0 32 32">
<title>link-google-plus</title>
<path fill="#000" d="M24.32 0h-16.64c-4.224 0-7.68 3.456-7.68 7.68v16.64c0 4.224 3.456 7.68 7.68 7.68h16.64c4.224 0 7.68-3.456 7.68-7.68v-16.64c0-4.224-3.456-7.68-7.68-7.68z"></path>
<path fill="#fff" d="M11.328 14.848v2.752h4.608c-0.192 1.152-1.408 3.456-4.608 3.456-2.752 0-5.056-2.24-5.056-5.056s2.24-5.056 5.056-5.056c1.6 0 2.624 0.64 3.264 1.216l2.24-2.112c-1.408-1.28-3.264-2.112-5.44-2.112-4.544 0.064-8.192 3.648-8.192 8.064s3.648 8 8.128 8c4.672 0 7.808-3.264 7.808-7.808 0-0.512-0.064-0.896-0.128-1.344h-7.68z"></path>
<path fill="#fff" d="M28.8 14.656h-2.432v-2.368h-2.432v2.368h-2.432v2.368h2.432v2.368h2.432v-2.368h2.432v-2.368z"></path>
</svg>
