<!-- Generated by IcoMoon.io -->
<svg version="1.1" xmlns="http://www.w3.org/2000/svg" width="32" height="32" viewBox="0 0 32 32">
<title>link-tripadvisor</title>
<path d="M22.4 11.584c-2.816 0-5.12 2.56-5.12 5.696s2.304 5.696 5.12 5.696c2.816 0 5.12-2.56 5.12-5.696s-2.304-5.696-5.12-5.696zM22.4 20.672c-1.728 0-3.072-1.536-3.072-3.456s1.408-3.456 3.072-3.456c1.728 0 3.072 1.536 3.072 3.456s-1.408 3.456-3.072 3.456z"></path>
<path d="M22.4 14.848c-1.152 0-2.112 1.088-2.112 2.368s0.96 2.368 2.112 2.368c1.152 0 2.112-1.088 2.112-2.368s-0.96-2.368-2.112-2.368zM22.208 18.368c-0.576 0-1.024-0.512-1.024-1.152s0.448-1.152 1.024-1.152c0.576 0 1.024 0.512 1.024 1.152s-0.448 1.152-1.024 1.152z"></path>
<path d="M9.536 14.848c-1.152 0-2.112 1.088-2.112 2.368s0.96 2.368 2.112 2.368c1.216 0 2.112-1.088 2.112-2.368 0.064-1.28-0.896-2.368-2.112-2.368zM9.408 18.368c-0.576 0-1.024-0.512-1.024-1.152s0.448-1.152 1.024-1.152c0.576 0 1.024 0.512 1.024 1.152s-0.448 1.152-1.024 1.152z"></path>
<path d="M22.144 10.24c-1.856-0.896-3.904-1.344-6.144-1.344-2.304 0-4.544 0.448-6.336 1.344 3.52 0 6.336 3.136 6.336 7.040 0-3.84 2.752-6.976 6.144-7.040z"></path>
<path d="M9.6 11.584c-2.816 0-5.12 2.56-5.12 5.696s2.304 5.696 5.12 5.696c2.816 0 5.12-2.56 5.12-5.696 0.064-3.136-2.24-5.696-5.12-5.696zM9.536 20.672c-1.728 0-3.072-1.536-3.072-3.456s1.408-3.456 3.072-3.456c1.728 0 3.072 1.536 3.072 3.456 0.064 1.92-1.344 3.456-3.072 3.456z"></path>
<path d="M24.32 0h-16.64c-4.224 0-7.68 3.456-7.68 7.68v16.64c0 4.224 3.456 7.68 7.68 7.68h16.64c4.224 0 7.68-3.456 7.68-7.68v-16.64c0-4.224-3.456-7.68-7.68-7.68zM28.736 17.28c0 3.904-2.88 7.040-6.4 7.040-1.984 0-3.776-1.024-4.928-2.624-0.512 0.704-1.408 2.24-1.408 2.24-0.128-0.384-0.96-1.6-1.408-2.24-1.216 1.6-2.944 2.624-4.992 2.624-3.52 0-6.4-3.136-6.4-7.040 0-1.536 0.448-3.008 1.216-4.16-0.128-0.768-0.64-1.984-1.28-2.816h4.032c2.24-1.6 5.44-2.624 8.832-2.624s6.336 1.024 8.512 2.624h4.288c-0.64 0.832-1.152 2.048-1.28 2.816 0.768 1.152 1.216 2.624 1.216 4.16z"></path>
</svg>
