<!-- Generated by IcoMoon.io -->
<svg version="1.1" xmlns="http://www.w3.org/2000/svg" width="32" height="32" viewBox="0 0 32 32">
<title>link-pinterest</title>
<path d="M24.32 0h-16.64c-4.224 0-7.68 3.456-7.68 7.68v16.64c0 4.224 3.456 7.68 7.68 7.68h16.64c4.224 0 7.68-3.456 7.68-7.68v-16.64c0-4.224-3.456-7.68-7.68-7.68zM17.984 21.696c-1.6 0-3.072-0.832-3.584-1.856 0 0-0.832 3.392-1.024 4.032-0.64 2.304-2.496 4.608-2.688 4.8-0.128 0.128-0.32 0.064-0.32-0.064-0.064-0.32-0.512-3.2 0.064-5.568 0.256-1.216 1.92-8 1.92-8s-0.448-0.96-0.448-2.304c0-2.176 1.28-3.776 2.816-3.776 1.344 0 1.984 1.024 1.984 2.176 0 1.344-0.832 3.328-1.28 5.248-0.384 1.536 0.768 2.816 2.304 2.816 2.816 0 4.672-3.584 4.672-7.808 0-3.2-2.176-5.632-6.144-5.632-4.48 0-7.232 3.328-7.232 7.040 0 1.28 0.384 2.176 0.96 2.88 0.256 0.32 0.32 0.448 0.192 0.832-0.064 0.256-0.256 0.896-0.32 1.152-0.128 0.384-0.384 0.512-0.768 0.384-2.048-0.832-3.008-3.072-3.008-5.632 0-4.224 3.52-9.216 10.496-9.216 5.632 0 9.344 4.032 9.344 8.448 0 5.76-3.2 10.048-7.936 10.048z"></path>
</svg>
