<!-- Generated by IcoMoon.io -->
<svg version="1.1" xmlns="http://www.w3.org/2000/svg" width="32" height="32" viewBox="0 0 32 32">
<title>link-tumblr</title>
<path d="M24.32 0h-16.64c-4.224 0-7.68 3.456-7.68 7.68v16.64c0 4.224 3.456 7.68 7.68 7.68h16.64c4.224 0 7.68-3.456 7.68-7.68v-16.64c0-4.224-3.456-7.68-7.68-7.68zM24.32 27.392c-1.152 0.512-2.176 0.896-3.136 1.088s-1.92 0.32-3.008 0.32c-1.216 0-2.304-0.128-3.264-0.448s-1.728-0.704-2.432-1.28c-0.64-0.576-1.152-1.152-1.408-1.728-0.256-0.64-0.384-1.536-0.384-2.688v-8.96h-3.008v-3.648c1.088-0.32 1.984-0.768 2.752-1.408s1.344-1.344 1.792-2.176c0.448-0.832 0.768-1.92 0.96-3.264h3.84v6.464h6.4v4.032h-6.4v6.592c0 1.472 0.064 2.432 0.256 2.88s0.448 0.768 0.896 1.024c0.576 0.32 1.28 0.512 2.048 0.512 1.344 0 2.752-0.448 4.096-1.28v3.968z"></path>
</svg>
