<!-- Generated by IcoMoon.io -->
<svg version="1.1" xmlns="http://www.w3.org/2000/svg" width="32" height="32" viewBox="0 0 32 32">
<title>link-yelp</title>
<path d="M24.32 0h-16.64c-4.224 0-7.68 3.456-7.68 7.68v16.64c0 4.224 3.456 7.68 7.68 7.68h16.64c4.224 0 7.68-3.456 7.68-7.68v-16.64c0-4.224-3.456-7.68-7.68-7.68zM7.168 21.248c-0.32 0-0.64-0.192-0.768-0.512-0.128-0.256-0.192-0.64-0.256-1.088-0.128-1.408 0.064-3.52 0.448-4.16 0.192-0.32 0.512-0.448 0.832-0.448 0.192 0 0.384 0.064 4.608 1.792 0 0 1.216 0.512 1.216 0.512 0.448 0.192 0.704 0.64 0.704 1.152s-0.32 0.896-0.768 1.024c0 0-1.728 0.576-1.728 0.576-3.968 1.152-4.096 1.152-4.288 1.152zM16.064 23.872c0 4.032 0 4.16-0.064 4.352-0.128 0.32-0.384 0.512-0.768 0.576-1.024 0.192-4.288-1.024-4.992-1.792-0.128-0.192-0.192-0.32-0.256-0.512 0-0.128 0-0.256 0.064-0.384 0.064-0.192 0.192-0.384 3.136-3.776 0 0 0.832-1.024 0.832-1.024 0.32-0.384 0.832-0.448 1.28-0.32 0.448 0.192 0.768 0.576 0.704 1.024 0.064 0.064 0.064 1.856 0.064 1.856zM15.36 15.424c-0.192 0.064-0.832 0.256-1.664-1.024 0 0-5.376-8.32-5.504-8.576-0.064-0.32 0-0.64 0.256-0.896 0.832-0.832 5.12-1.984 6.272-1.728 0.384 0.064 0.64 0.32 0.704 0.64 0.064 0.384 0.576 8.064 0.64 9.792 0.128 1.536-0.512 1.728-0.704 1.792zM18.112 15.808c0 0 1.088-1.472 1.088-1.472 2.368-3.2 2.496-3.392 2.688-3.456 0.256-0.192 0.64-0.192 0.96-0.064 0.96 0.448 2.88 3.264 2.944 4.288 0 0 0 0 0 0.064 0 0.384-0.128 0.64-0.384 0.832-0.192 0.128-0.32 0.192-4.8 1.216-0.704 0.192-1.088 0.256-1.344 0.32 0 0 0-0.064 0-0.064-0.448 0.128-0.96-0.064-1.216-0.512-0.256-0.32-0.256-0.768 0.064-1.152zM25.92 22.72c-0.128 1.024-2.304 3.712-3.264 4.096-0.32 0.128-0.64 0.128-0.896-0.128-0.192-0.128-0.32-0.384-2.688-4.096l-0.704-1.088c-0.256-0.384-0.192-0.896 0.128-1.344 0.32-0.384 0.768-0.512 1.216-0.384 0 0 1.728 0.576 1.728 0.576 3.904 1.28 4.032 1.28 4.224 1.408 0.192 0.256 0.32 0.576 0.256 0.96z"></path>
</svg>
