<!-- Generated by IcoMoon.io -->
<svg version="1.1" xmlns="http://www.w3.org/2000/svg" width="32" height="32" viewBox="0 0 32 32">
<title>link-facebook</title>
<path d="M24.32 0h-16.64c-4.224 0-7.68 3.456-7.68 7.68v16.64c0 4.224 3.456 7.68 7.68 7.68h16.64c4.224 0 7.68-3.456 7.68-7.68v-16.64c0-4.224-3.456-7.68-7.68-7.68zM21.888 16h-3.776v12.8h-5.696v-12.8h-2.816v-4.416h2.816v-2.624c0-3.584 1.6-5.76 6.144-5.76h3.84v4.416h-2.368c-1.792 0-1.92 0.64-1.92 1.792v2.176h4.288l-0.512 4.416z"></path>
</svg>
