<!-- Generated by IcoMoon.io -->
<svg version="1.1" xmlns="http://www.w3.org/2000/svg" width="32" height="32" viewBox="0 0 32 32">
<title>link-mail</title>
<path d="M24.32 0h-16.64c-4.224 0-7.68 3.456-7.68 7.68v16.64c0 4.224 3.456 7.68 7.68 7.68h16.64c4.224 0 7.68-3.456 7.68-7.68v-16.64c0-4.224-3.456-7.68-7.68-7.68zM28.8 23.424c0 0.576-0.192 1.088-0.64 1.536s-0.96 0.64-1.6 0.64h-21.056c-0.64 0-1.152-0.192-1.6-0.64s-0.64-0.96-0.64-1.536v-10.816c0.448 0.448 0.896 0.832 1.472 1.216 3.456 2.24 5.824 3.776 7.104 4.736 0.512 0.384 0.96 0.704 1.344 0.896 0.32 0.192 0.768 0.448 1.344 0.64s1.088 0.32 1.6 0.32v0 0c0.512 0 1.024-0.128 1.6-0.32s1.024-0.448 1.344-0.64c0.32-0.192 0.768-0.512 1.344-0.896 1.6-1.088 3.968-2.688 7.104-4.736 0.512-0.384 1.024-0.768 1.408-1.216v10.816zM28.096 10.624c-0.448 0.64-1.024 1.216-1.728 1.664-3.584 2.368-5.824 3.84-6.656 4.416-0.064 0.064-0.32 0.192-0.576 0.384-0.32 0.192-0.576 0.384-0.768 0.512s-0.448 0.256-0.768 0.448c-0.32 0.192-0.576 0.256-0.832 0.384-0.256 0.064-0.512 0.128-0.704 0.128v0 0c-0.192 0-0.448-0.064-0.704-0.128s-0.512-0.192-0.832-0.384c-0.32-0.192-0.512-0.32-0.768-0.448-0.192-0.128-0.448-0.32-0.768-0.512s-0.512-0.384-0.576-0.384c-0.896-0.576-2.112-1.408-3.712-2.496s-2.624-1.728-2.944-1.92c-0.576-0.384-1.152-0.896-1.664-1.6s-0.896-1.216-0.896-1.792c0-0.704 0.192-1.28 0.576-1.792 0.384-0.448 0.96-0.704 1.728-0.704h21.056c0.64 0 1.152 0.192 1.6 0.64s0.704 0.96 0.704 1.536c-0.064 0.704-0.32 1.408-0.768 2.048z"></path>
</svg>
