<!-- Generated by IcoMoon.io -->
<svg version="1.1" xmlns="http://www.w3.org/2000/svg" width="32" height="32" viewBox="0 0 32 32">
<title>link-instagram</title>
<path d="M20.288 16c0 2.368-1.92 4.288-4.288 4.288s-4.288-1.92-4.288-4.288c0-2.368 1.92-4.288 4.288-4.288s4.288 1.92 4.288 4.288z"></path>
<path d="M6.016 23.552c0.256 0.576 0.512 1.024 0.96 1.472s0.896 0.704 1.472 0.96c0.448 0.192 1.152 0.384 2.368 0.448 1.344 0.064 1.728 0.064 5.184 0.064s3.84 0 5.184-0.064c1.216-0.064 1.92-0.256 2.368-0.448 0.576-0.256 1.024-0.512 1.472-0.96s0.704-0.896 0.96-1.472c0.192-0.448 0.384-1.152 0.448-2.368 0.064-1.344 0.064-1.728 0.064-5.184 0-3.392 0-3.84-0.064-5.184-0.064-1.216-0.256-1.92-0.448-2.368-0.256-0.576-0.512-1.024-0.96-1.472s-0.896-0.704-1.472-0.96c-0.448-0.192-1.152-0.384-2.368-0.448-1.344-0.064-1.792-0.064-5.184-0.064s-3.84 0-5.184 0.064c-1.216 0.064-1.92 0.256-2.368 0.448-0.576 0.256-1.024 0.512-1.472 0.96s-0.704 0.896-0.96 1.472c-0.192 0.448-0.384 1.152-0.448 2.368-0.064 1.344-0.064 1.792-0.064 5.184s0 3.84 0.064 5.184c0.064 1.216 0.256 1.92 0.448 2.368zM22.784 7.616c0.832 0 1.536 0.704 1.536 1.536s-0.704 1.536-1.536 1.536c-0.832 0-1.536-0.704-1.536-1.536 0.064-0.832 0.704-1.536 1.536-1.536zM16 9.472c3.648 0 6.592 2.944 6.592 6.592s-2.944 6.592-6.592 6.592c-3.648 0-6.592-2.944-6.592-6.592 0.064-3.648 3.008-6.592 6.592-6.592z"></path>
<path d="M7.68 32h16.64c4.224 0 7.68-3.456 7.68-7.68v-16.64c0-4.224-3.456-7.68-7.68-7.68h-16.64c-4.224 0-7.68 3.456-7.68 7.68v16.64c0 4.224 3.456 7.68 7.68 7.68zM3.264 10.752c0.064-1.344 0.256-2.304 0.576-3.136s0.768-1.536 1.472-2.24c0.704-0.704 1.408-1.152 2.24-1.472s1.728-0.512 3.136-0.576c1.408-0.128 1.856-0.128 5.312-0.128s3.904 0 5.248 0.064c1.344 0.064 2.304 0.256 3.136 0.576s1.536 0.768 2.24 1.472c0.704 0.704 1.152 1.408 1.472 2.24s0.512 1.728 0.576 3.136c0.128 1.408 0.128 1.856 0.128 5.312s0 3.904-0.064 5.248c-0.064 1.344-0.256 2.304-0.576 3.136s-0.768 1.536-1.472 2.24c-0.704 0.704-1.408 1.152-2.24 1.472s-1.728 0.512-3.136 0.576c-1.408 0.128-1.856 0.128-5.312 0.128s-3.904 0-5.248-0.064c-1.344-0.064-2.304-0.256-3.136-0.576s-1.536-0.768-2.24-1.472c-0.704-0.704-1.152-1.408-1.472-2.24s-0.512-1.728-0.576-3.136c-0.128-1.408-0.128-1.856-0.128-5.312s0-3.904 0.064-5.248z"></path>
</svg>
