<!-- Generated by IcoMoon.io -->
<svg version="1.1" xmlns="http://www.w3.org/2000/svg" width="32" height="32" viewBox="0 0 32 32">
<title>link-telegram</title>
<path d="M24.32 0h-16.64c-4.224 0-7.68 3.456-7.68 7.68v16.64c0 4.224 3.456 7.68 7.68 7.68h16.64c4.224 0 7.68-3.456 7.68-7.68v-16.64c0-4.224-3.456-7.68-7.68-7.68zM28.8 4.288l-3.648 21.952c-0.064 0.256-0.192 0.512-0.448 0.64-0.128 0.064-0.256 0.128-0.448 0.128-0.128 0-0.192 0-0.32-0.064l-6.464-2.624-3.456 4.224c-0.192 0.192-0.384 0.32-0.704 0.32-0.128 0-0.256 0-0.32-0.064-0.192-0.064-0.32-0.192-0.448-0.32s-0.192-0.32-0.192-0.512v-4.992l12.352-15.104-15.296 13.12-5.632-2.304c-0.384-0.128-0.576-0.384-0.576-0.832 0-0.384 0.128-0.64 0.448-0.832l23.808-13.696c0.128-0.064 0.256-0.128 0.448-0.128s0.384 0.064 0.512 0.128c0.32 0.256 0.448 0.576 0.384 0.96z"></path>
</svg>
