<!-- Generated by IcoMoon.io -->
<svg version="1.1" xmlns="http://www.w3.org/2000/svg" width="32" height="32" viewBox="0 0 32 32">
<title>link-phone</title>
<path d="M7.68 32h16.64c4.224 0 7.68-3.456 7.68-7.68v-16.64c0-4.224-3.456-7.68-7.68-7.68h-16.64c-4.224 0-7.68 3.456-7.68 7.68v16.64c0 4.224 3.456 7.68 7.68 7.68zM8.32 3.2c1.728 0 6.848 5.12 5.12 6.848s-3.392 1.728-3.392 3.392c0 1.728 1.728 3.392 3.392 5.12 1.728 1.728 3.392 3.392 5.12 3.392s1.728-1.728 3.392-3.392c1.728-1.728 6.848 3.392 6.848 5.12s-5.12 5.12-5.12 5.12c-3.392 0-10.304-3.52-13.632-6.848s-6.848-10.24-6.848-13.632c0 0 3.392-5.12 5.12-5.12z"></path>
</svg>
