<!-- Generated by IcoMoon.io -->
<svg version="1.1" xmlns="http://www.w3.org/2000/svg" width="32" height="32" viewBox="0 0 32 32">
<title>link-flikr</title>
<path d="M24.32 0h-16.64c-4.224 0-7.68 3.456-7.68 7.68v16.64c0 4.224 3.456 7.68 7.68 7.68h16.64c4.224 0 7.68-3.456 7.68-7.68v-16.64c0-4.224-3.456-7.68-7.68-7.68zM8.832 22.080c-3.136 0-5.632-2.752-5.632-6.080s2.496-6.080 5.632-6.080c3.136 0 5.632 2.752 5.632 6.080s-2.496 6.080-5.632 6.080zM23.168 22.080c-3.136 0-5.632-2.752-5.632-6.080s2.496-6.080 5.632-6.080c3.136 0 5.632 2.752 5.632 6.080s-2.496 6.080-5.632 6.080z"></path>
</svg>
