<!-- Generated by IcoMoon.io -->
<svg version="1.1" xmlns="http://www.w3.org/2000/svg" width="32" height="32" viewBox="0 0 32 32">
<title>link</title>
<path d="M29.888 2.112c-2.816-2.816-7.424-2.816-10.24 0l-5.568 5.568c-0.256 0.256-0.256 0.64 0 0.832s0.64 0.256 0.832 0l5.568-5.568c1.152-1.152 2.624-1.792 4.288-1.792 1.6 0 3.136 0.64 4.288 1.792s1.792 2.624 1.792 4.288-0.64 3.136-1.792 4.288l-7.296 7.232c-2.368 2.368-6.208 2.368-8.512 0-0.256-0.256-0.64-0.256-0.832 0s-0.256 0.64 0 0.832c1.408 1.408 3.264 2.112 5.12 2.112s3.712-0.704 5.12-2.112l7.232-7.232c1.344-1.344 2.112-3.2 2.112-5.12s-0.768-3.776-2.112-5.12z"></path>
<path d="M16.192 24.32l-4.672 4.736c-1.152 1.152-2.624 1.792-4.288 1.792s-3.136-0.64-4.288-1.792c-2.304-2.368-2.304-6.208 0-8.576l6.848-6.848c2.368-2.368 6.208-2.368 8.512 0 0.256 0.256 0.64 0.256 0.832 0s0.256-0.64 0-0.832c-2.816-2.816-7.424-2.816-10.24 0l-6.784 6.848c-1.344 1.344-2.112 3.2-2.112 5.12s0.768 3.776 2.112 5.12c1.344 1.344 3.2 2.112 5.12 2.112s3.776-0.768 5.12-2.112l4.672-4.672c0.256-0.256 0.256-0.64 0-0.832-0.192-0.32-0.576-0.256-0.832-0.064z"></path>
</svg>
