<!-- Generated by IcoMoon.io -->
<svg version="1.1" xmlns="http://www.w3.org/2000/svg" width="32" height="32" viewBox="0 0 32 32">
<title>link-skype</title>
<path d="M24.32 0h-16.64c-4.224 0-7.68 3.456-7.68 7.68v16.64c0 4.224 3.456 7.68 7.68 7.68h16.64c4.224 0 7.68-3.456 7.68-7.68v-16.64c0-4.224-3.456-7.68-7.68-7.68zM21.696 28.8c-1.216 0-2.368-0.32-3.328-0.832-0.704 0.128-1.472 0.192-2.24 0.192-6.72 0-12.224-5.376-12.224-12.032 0-0.832 0.064-1.664 0.256-2.432-0.64-1.024-0.96-2.24-0.96-3.52 0-3.84 3.2-6.976 7.104-6.976 1.408 0 2.688 0.384 3.776 1.088 0.704-0.128 1.408-0.192 2.112-0.192 6.72 0 12.224 5.376 12.224 12.032 0 0.896-0.128 1.728-0.256 2.56 0.448 0.96 0.768 1.984 0.768 3.072-0.128 3.904-3.328 7.040-7.232 7.040z"></path>
<path d="M21.312 15.616c-0.576-0.384-1.28-0.704-2.112-0.96s-1.728-0.512-2.688-0.704c-0.768-0.192-1.344-0.32-1.664-0.384s-0.64-0.192-0.96-0.384c-0.32-0.128-0.576-0.32-0.704-0.576-0.192-0.192-0.256-0.448-0.256-0.704 0-0.448 0.256-0.832 0.768-1.152s1.216-0.512 2.112-0.512c0.96 0 1.6 0.128 2.048 0.448s0.768 0.768 1.088 1.344c0.256 0.448 0.512 0.768 0.704 0.96 0.256 0.192 0.576 0.32 1.024 0.32 0.512 0 0.896-0.192 1.28-0.512 0.32-0.32 0.512-0.704 0.512-1.152s-0.128-0.896-0.384-1.344c-0.256-0.448-0.64-0.896-1.216-1.344-0.512-0.384-1.216-0.768-2.048-0.96-0.832-0.256-1.728-0.384-2.88-0.384-1.344 0-2.56 0.192-3.584 0.576s-1.856 0.896-2.368 1.6c-0.576 0.704-0.832 1.536-0.832 2.432 0 0.96 0.256 1.792 0.768 2.432s1.216 1.152 2.112 1.536c0.832 0.384 1.92 0.704 3.2 0.96 0.96 0.192 1.664 0.384 2.24 0.576 0.512 0.192 0.96 0.384 1.28 0.704s0.448 0.64 0.448 1.152c0 0.576-0.32 1.088-0.896 1.472-0.64 0.448-1.472 0.64-2.432 0.64-0.704 0-1.344-0.128-1.792-0.32s-0.768-0.448-1.024-0.768c-0.256-0.32-0.512-0.704-0.704-1.216-0.192-0.448-0.448-0.768-0.704-1.024-0.32-0.256-0.64-0.384-1.088-0.384-0.512 0-0.96 0.128-1.28 0.448s-0.512 0.704-0.512 1.152c0 0.704 0.256 1.408 0.768 2.176 0.512 0.704 1.216 1.344 1.984 1.792 1.152 0.576 2.624 0.896 4.352 0.896 1.472 0 2.752-0.192 3.84-0.64s1.92-1.088 2.496-1.856c0.576-0.768 0.832-1.664 0.832-2.688 0-0.832-0.192-1.536-0.512-2.112-0.192-0.704-0.64-1.152-1.216-1.536z"></path>
</svg>
