<!-- Generated by IcoMoon.io -->
<svg version="1.1" xmlns="http://www.w3.org/2000/svg" width="32" height="32" viewBox="0 0 32 32">
<title>link-wikipedia</title>
<path d="M24.32 0h-16.64c-4.224 0-7.68 3.456-7.68 7.68v16.64c0 4.224 3.456 7.68 7.68 7.68h16.64c4.224 0 7.68-3.456 7.68-7.68v-16.64c0-4.224-3.456-7.68-7.68-7.68zM28.736 8.192c-0.064 0.128-0.128 0.128-0.192 0.128-0.576 0.064-1.024 0.256-1.408 0.576s-0.704 0.896-1.088 1.792l-5.824 13.44c-0.064 0.128-0.128 0.192-0.32 0.192-0.128 0-0.256-0.064-0.32-0.192l-3.264-6.976-3.776 6.976c-0.064 0.128-0.192 0.192-0.32 0.192-0.192 0-0.256-0.064-0.32-0.192l-5.696-13.44c-0.32-0.832-0.704-1.408-1.088-1.728s-0.96-0.512-1.664-0.64c-0.064 0-0.128-0.064-0.192-0.128-0.064 0-0.064-0.128-0.064-0.192 0-0.192 0.064-0.32 0.192-0.32 0.512 0 1.024 0 1.6 0.064 0.512 0.064 1.024 0.064 1.472 0.064s1.024 0 1.664-0.064c0.64-0.064 1.216-0.064 1.728-0.064 0.128 0 0.192 0.128 0.192 0.32s-0.064 0.32-0.128 0.32c-0.512 0.064-0.896 0.192-1.216 0.384-0.32 0.256-0.448 0.512-0.448 0.896 0 0.192 0.064 0.448 0.192 0.704l4.736 10.944 2.688-5.184-2.496-5.376c-0.448-0.96-0.832-1.6-1.088-1.856-0.32-0.256-0.704-0.448-1.28-0.512-0.064 0-0.128-0.064-0.128-0.128-0.064-0.064-0.064-0.128-0.064-0.256 0-0.192 0.064-0.32 0.128-0.32 0.512 0 0.96 0 1.408 0.064 0.384 0.064 0.832 0.064 1.28 0.064s0.96 0 1.472-0.064c0.512-0.064 1.024-0.064 1.536-0.064 0.128 0 0.192 0.128 0.192 0.32s-0.064 0.32-0.128 0.32c-1.024 0.064-1.536 0.384-1.536 0.896 0 0.256 0.128 0.576 0.384 1.088l1.664 3.456 1.664-3.136c0.256-0.448 0.32-0.832 0.32-1.152 0-0.704-0.512-1.088-1.536-1.152-0.064 0-0.128-0.128-0.128-0.32 0-0.064 0-0.128 0.064-0.192s0.064-0.128 0.128-0.128c0.384 0 0.832 0 1.344 0.064s0.896 0.064 1.28 0.064c0.256 0 0.576 0 1.024-0.064 0.576-0.064 1.088-0.064 1.472-0.064 0.064 0 0.128 0.064 0.128 0.256 0 0.256-0.064 0.384-0.256 0.384-0.576 0.064-1.088 0.256-1.408 0.512-0.384 0.256-0.832 0.896-1.344 1.856l-2.176 4.16 2.944 6.208 4.224-10.368c0.128-0.384 0.256-0.704 0.256-1.024 0-0.768-0.512-1.152-1.536-1.216-0.064 0-0.128-0.128-0.128-0.32s0.064-0.32 0.192-0.32c0.384 0 0.832 0 1.344 0.064 0.448 0.064 0.896 0.064 1.216 0.064s0.704 0 1.152-0.064c0.448-0.064 0.896-0.064 1.216-0.064 0.128 0 0.128 0.064 0.128 0.256 0 0.064 0 0.128-0.064 0.192z"></path>
</svg>
