<!-- Generated by IcoMoon.io -->
<svg version="1.1" xmlns="http://www.w3.org/2000/svg" width="32" height="32" viewBox="0 0 32 32">
<title>link-url</title>
<path d="M24.32 0h-16.64c-4.224 0-7.68 3.456-7.68 7.68v16.64c0 4.224 3.456 7.68 7.68 7.68h16.64c4.224 0 7.68-3.456 7.68-7.68v-16.64c0-4.224-3.456-7.68-7.68-7.68zM17.152 23.424l-3.584 3.584c-1.152 1.152-2.688 1.792-4.288 1.792s-3.136-0.64-4.288-1.792c-1.152-1.152-1.792-2.624-1.792-4.288 0-1.6 0.64-3.136 1.792-4.288l5.248-5.248c1.152-1.152 2.688-1.792 4.288-1.792 0 0 0 0 0 0 1.6 0 3.136 0.64 4.288 1.792 0.192 0.192 0.256 0.448 0.256 0.704s-0.128 0.512-0.256 0.704c-0.384 0.384-0.96 0.384-1.344 0-1.6-1.6-4.288-1.6-5.888 0l-5.248 5.248c-1.6 1.6-1.6 4.224 0 5.888 0.768 0.768 1.856 1.216 2.944 1.216s2.176-0.448 2.944-1.216l3.584-3.584c0.384-0.384 0.96-0.384 1.344 0 0.192 0.192 0.256 0.448 0.256 0.704 0.064 0.128-0.064 0.384-0.256 0.576zM27.008 13.568l-5.568 5.568c-1.152 1.152-2.688 1.792-4.288 1.792s-3.136-0.64-4.288-1.792c-0.384-0.384-0.384-0.96 0-1.344s0.96-0.384 1.344 0c1.6 1.6 4.288 1.6 5.888 0l5.568-5.568c0.768-0.768 1.216-1.856 1.216-2.944s-0.448-2.176-1.216-2.944c-0.768-0.768-1.792-1.216-2.944-1.216-1.088 0-2.176 0.448-2.944 1.216l-4.288 4.288c-0.384 0.384-0.96 0.384-1.344 0-0.192-0.192-0.256-0.448-0.256-0.704s0.128-0.512 0.256-0.704l4.288-4.288c1.152-1.088 2.688-1.728 4.288-1.728 0 0 0 0 0 0 1.6 0 3.136 0.64 4.288 1.792s1.792 2.624 1.792 4.288c0 1.6-0.64 3.136-1.792 4.288z"></path>
</svg>
