<!-- Generated by IcoMoon.io -->
<svg version="1.1" xmlns="http://www.w3.org/2000/svg" width="32" height="32" viewBox="0 0 32 32">
<title>link-twitter</title>
<path d="M24.32 0h-16.64c-4.224 0-7.68 3.456-7.68 7.68v16.64c0 4.224 3.456 7.68 7.68 7.68h16.64c4.224 0 7.68-3.456 7.68-7.68v-16.64c0-4.224-3.456-7.68-7.68-7.68zM26.176 10.368c0 0.256 0 0.512 0 0.704 0 7.488-5.312 16.064-14.912 16.064-2.944 0-5.696-0.96-8.064-2.56 0.384 0.064 0.832 0.064 1.28 0.064 2.432 0 4.736-0.896 6.528-2.432-2.304-0.064-4.224-1.664-4.928-3.904 0.32 0.064 0.64 0.128 0.96 0.128 0.512 0 0.96-0.064 1.408-0.192-2.432-0.512-4.224-2.816-4.224-5.568v-0.064c0.704 0.448 1.536 0.704 2.368 0.704-1.408-1.024-2.368-2.752-2.368-4.736 0-1.024 0.256-1.984 0.704-2.816 2.56 3.392 6.464 5.696 10.816 5.888-0.064-0.384-0.128-0.832-0.128-1.28 0-3.136 2.368-5.632 5.248-5.632 1.536 0 2.88 0.704 3.84 1.792 1.216-0.256 2.304-0.704 3.328-1.344-0.384 1.344-1.216 2.432-2.304 3.136 1.088-0.128 2.048-0.448 3.008-0.896-0.64 1.152-1.536 2.176-2.56 2.944z"></path>
</svg>
