<!-- Generated by IcoMoon.io -->
<svg version="1.1" xmlns="http://www.w3.org/2000/svg" width="32" height="32" viewBox="0 0 32 32">
<title>link-youtube</title>
<path d="M7.68 32h16.64c4.224 0 7.68-3.456 7.68-7.68v-16.64c0-4.224-3.456-7.68-7.68-7.68h-16.64c-4.224 0-7.68 3.456-7.68 7.68v16.64c0 4.224 3.456 7.68 7.68 7.68zM3.2 11.456c0-4.416 4.416-4.416 4.416-4.416h16.768c4.416 0 4.416 4.416 4.416 4.416v9.152c0 4.416-4.416 4.416-4.416 4.416h-16.768c-4.416-0.064-4.416-4.48-4.416-4.48v-9.088z"></path>
<path d="M12.608 11.136v9.792l8.384-4.928z"></path>
</svg>
