<!-- Generated by IcoMoon.io -->
<svg version="1.1" xmlns="http://www.w3.org/2000/svg" width="32" height="32" viewBox="0 0 32 32">
<title>map</title>
<path d="M15.296 20.032c0.192 0.192 0.448 0.256 0.704 0.256s0.512-0.064 0.704-0.256c0.256-0.256 6.272-5.632 6.272-11.2 0-3.84-3.136-6.976-6.976-6.976s-6.976 3.136-6.976 6.976c0 5.568 6.016 10.944 6.272 11.2zM16 6.976c1.024 0 1.792 0.832 1.792 1.856s-0.832 1.856-1.792 1.856c-1.024 0-1.792-0.832-1.792-1.856s0.768-1.856 1.792-1.856z"></path>
<path d="M29.44 20.032l-0.832-2.816c-0.128-0.448-0.576-0.768-1.024-0.768h-5.76c-0.192 0.32-0.448 0.64-0.64 0.96-1.6 2.176-3.264 3.648-3.456 3.84-0.448 0.384-1.088 0.64-1.728 0.64s-1.216-0.256-1.728-0.64c-0.192-0.192-1.856-1.664-3.456-3.84-0.256-0.32-0.448-0.64-0.64-0.96h-5.76c-0.448 0-0.896 0.32-1.024 0.768l-0.96 3.392 21.632 3.968 5.376-4.544z"></path>
<path d="M31.936 28.8l-2.048-7.232-10.304 8.576h11.328c0.32 0 0.64-0.128 0.832-0.448 0.256-0.256 0.32-0.576 0.192-0.896z"></path>
<path d="M5.248 22.592l-3.264-0.576-1.92 6.784c-0.064 0.32 0 0.704 0.192 0.96s0.512 0.448 0.832 0.448h4.16v-7.616z"></path>
<path d="M6.784 22.912v7.232h10.496l5.248-4.352z"></path>
</svg>
