<!-- Generated by IcoMoon.io -->
<svg version="1.1" xmlns="http://www.w3.org/2000/svg" width="32" height="32" viewBox="0 0 32 32">
<title>pics</title>
<path d="M29.12 3.264h-20.736c-1.6 0-2.88 1.28-2.88 2.88v1.024l-3.328 0.896c-0.768 0.192-1.408 0.64-1.728 1.344s-0.512 1.472-0.32 2.176l4.032 15.040c0.192 0.768 0.64 1.408 1.344 1.728 0.448 0.256 0.96 0.384 1.472 0.384 0.256 0 0.512 0 0.768-0.064l13.184-3.52h8.256c1.6 0 2.88-1.28 2.88-2.88v-16.128c-0.064-1.6-1.344-2.88-2.944-2.88zM7.36 27.584c-0.448 0.128-0.896 0.064-1.344-0.192-0.384-0.256-0.704-0.576-0.832-1.088l-3.968-15.040c-0.128-0.448-0.064-0.896 0.192-1.344 0.256-0.384 0.576-0.704 1.088-0.832l3.008-0.768v13.952c0 1.6 1.28 2.88 2.88 2.88h8l-9.024 2.432zM30.848 22.272c0 0.96-0.768 1.728-1.728 1.728h-20.736c-0.96 0-1.728-0.768-1.728-1.728v-16.128c0-0.96 0.768-1.728 1.728-1.728h20.736c0.96 0 1.728 0.768 1.728 1.728v8.192l-2.752-2.752c-0.448-0.448-1.152-0.448-1.6 0l-6.592 6.528-3.328-3.328c-0.448-0.448-1.152-0.448-1.6 0l-2.816 2.816c-0.256 0.256-0.256 0.576 0 0.832s0.576 0.256 0.832 0l2.816-2.816 3.328 3.328-2.304 2.304c-0.256 0.256-0.256 0.576 0 0.832 0.128 0.128 0.256 0.192 0.384 0.192s0.32-0.064 0.384-0.192l9.728-9.728 3.456 3.456c0 0 0.064 0.064 0.128 0.064l-0.064 6.4z"></path>
<path d="M10.688 18.944l-0.576 0.576c-0.256 0.256-0.256 0.576 0 0.832 0.128 0.128 0.256 0.192 0.384 0.192s0.32-0.064 0.384-0.192l0.576-0.576c0.256-0.256 0.256-0.576 0-0.832-0.192-0.192-0.512-0.192-0.768 0z"></path>
<path d="M14.72 9.6c0-1.6-1.28-2.88-2.88-2.88s-2.88 1.28-2.88 2.88 1.28 2.88 2.88 2.88 2.88-1.344 2.88-2.88zM11.84 11.328c-0.96 0-1.728-0.768-1.728-1.728s0.768-1.728 1.728-1.728 1.728 0.768 1.728 1.728-0.768 1.728-1.728 1.728z"></path>
</svg>
