<!-- Generated by IcoMoon.io -->
<svg version="1.1" xmlns="http://www.w3.org/2000/svg" width="32" height="32" viewBox="0 0 32 32">
<title>pool</title>
<path d="M19.584 18.56c0 0 0 0 0 0 0.512 0 0.896-0.384 0.896-0.832 0.064-2.112 0.192-5.76 0.064-8.896 0.064-0.064 0-0.576-0.064-0.704-0.128-2.304-0.448-4.288-1.024-4.864-0.256-0.192-0.576-0.32-0.896-0.32-1.92 0-2.496 2.24-2.56 3.52 0 0.448 0.32 0.896 0.832 0.896s0.896-0.32 0.896-0.832c0-0.448 0.192-1.472 0.576-1.792 0.192 0.512 0.32 1.6 0.384 2.944h-5.632c-0.128-2.112-0.448-3.84-0.96-4.416-0.256-0.256-0.512-0.384-0.832-0.384-1.92 0-2.496 2.24-2.56 3.52 0 0.448 0.32 0.896 0.832 0.896s0.896-0.32 0.896-0.832c0-0.448 0.192-1.472 0.576-1.792 0.32 1.024 0.512 4.16 0.512 7.616-0.064 0.064-0.064 0.512 0 0.576 0 1.536-0.064 3.136-0.128 4.672 0 0.448 0.32 0.896 0.832 0.896 0 0 0 0 0.064 0 0.448 0 0.832-0.384 0.832-0.832 0.064-1.088 0.064-2.56 0.128-4.16h5.632c0 1.344-0.064 2.752-0.128 4.096-0.064 0.576 0.32 0.96 0.832 1.024zM13.184 11.84c0-0.832 0-1.6-0.064-2.432h5.632c0 0.768 0.064 1.536 0.064 2.432h-5.632z"></path>
<path d="M31.488 18.624c-0.064-0.192-0.704-1.984-2.112-3.072-1.664-1.344-4.544-2.304-8-2.816 0 0.768 0 1.6 0 2.304 2.88 0.448 5.248 1.28 6.592 2.304 0.768 0.576 1.216 1.6 1.408 2.048 0.064 0.192 0.064 0.448 0.064 0.704 0 1.728-2.048 3.2-4.544 3.2-0.576 0-1.152-0.064-1.664-0.256-0.832-0.256-2.368-0.512-3.84-0.512-0.256 0-0.512 0-0.704 0-0.832 0.064-1.664 0.064-2.496 0.064 0 0 0 0 0 0-0.896 0-1.728 0-2.624-0.064-0.256 0-0.512 0-0.832 0-1.28 0-2.816 0.192-3.904 0.512-0.576 0.128-1.152 0.256-1.728 0.256-2.496 0-4.544-1.408-4.544-3.2 0-0.32 0.064-0.64 0.192-0.96 0.256-0.512 1.216-1.664 2.176-2.24 1.344-0.768 3.264-1.408 5.568-1.792 0-0.512 0-0.96 0-1.472-0.064-0.128-0.064-0.256-0.064-0.384s0-0.256 0.064-0.384c0 0 0 0 0-0.064-2.752 0.448-5.12 1.216-6.784 2.176-1.344 0.832-2.624 2.304-3.072 3.2-0.256 0.576-0.448 1.216-0.448 1.856-0.256 1.28-0.704 4.416 0.96 6.656 1.152 1.536 3.008 2.368 5.568 2.368h21.376c1.408-0.256 2.432-0.96 3.072-2.112 1.088-1.856 0.768-4.48 0.448-6.144 0.064-0.256 0.064-0.512 0.064-0.768 0.064-0.448 0-0.96-0.192-1.408z"></path>
</svg>
