<!-- Generated by IcoMoon.io -->
<svg version="1.1" xmlns="http://www.w3.org/2000/svg" width="32" height="32" viewBox="0 0 32 32">
<title>pricetag</title>
<path d="M26.304 0c-3.136 0-5.696 2.56-5.696 5.696 0 1.28 0.576 4.032 0.64 4.352 0.128 0.512 0.64 0.832 1.152 0.704s0.832-0.64 0.768-1.152c-0.192-0.768-0.576-3.072-0.576-3.968 0-2.112 1.728-3.776 3.776-3.776 2.112 0.064 3.712 1.792 3.712 4.288 0 4.288-1.92 7.552-1.92 7.552-0.256 0.448-0.128 1.024 0.32 1.28 0.128 0.064 0.32 0.128 0.512 0.128 0.32 0 0.64-0.192 0.832-0.448 0.064-0.128 2.24-3.712 2.24-8.576-0.064-3.456-2.496-6.080-5.76-6.080z"></path>
<path d="M24.384 5.568c-0.32-0.064-0.64-0.064-0.96-0.128 0 0.064 0 0.192 0 0.256 0 0.384 0.128 1.216 0.256 1.984 0.704 0.448 1.152 1.28 1.152 2.112 0 1.472-1.152 2.624-2.624 2.624s-2.624-1.152-2.624-2.624c0-0.512 0.192-1.024 0.448-1.472-0.128-0.96-0.32-1.984-0.32-2.688 0-0.192 0.064-0.32 0.064-0.512-2.688-0.128-5.056-0.128-5.312 0.064l-13.824 13.888c-0.832 0.832-0.832 2.24 0 3.072l9.216 9.216c0.832 0.832 2.24 0.832 3.072 0l13.824-13.824c0.64-0.64 0.064-6.784-0.32-9.92-0.192-1.856-0.192-1.856-2.048-2.048zM18.816 19.52c-0.064-0.96-0.448-1.792-1.152-2.496s-1.536-1.152-2.368-1.344c-0.512-0.064-1.088-0.064-1.728 0.064s-1.152 0.384-1.6 0.704l4.48 4.48-1.088 0.704-4.352-4.352c-0.128 0.064-0.192 0.192-0.256 0.256-0.32 0.32-0.512 0.512-0.576 0.64l4.224 4.224-1.088 0.704-3.904-3.904c-0.832 1.216-1.088 2.368-0.832 3.456 0.192 0.832 0.576 1.472 1.152 2.112 0.832 0.832 1.664 1.216 2.56 1.28l-1.344 1.344c-0.832-0.32-1.536-0.768-2.176-1.408-1.984-1.984-2.496-4.16-1.536-6.464 0.192-0.448 0.448-1.024 0.832-1.6l-1.024-1.024 1.088-0.704 0.704 0.704c0.192-0.192 0.384-0.384 0.576-0.64 0.064-0.064 0.192-0.192 0.256-0.256l-0.832-0.832 1.088-0.704 0.768 0.768c1.728-1.152 3.456-1.472 5.184-0.96 1.088 0.32 2.048 0.896 2.88 1.728s1.344 1.664 1.536 2.56l-1.472 0.96z"></path>
</svg>
