<!-- Generated by IcoMoon.io -->
<svg version="1.1" xmlns="http://www.w3.org/2000/svg" width="32" height="32" viewBox="0 0 32 32">
<title>pricing-normal</title>
<path fill="#000" d="M13.888 6.976l-8.768 15.104c-0.768 1.344-0.32 3.008 1.024 3.776l8.384 4.8c-0.192-0.448-0.256-0.96-0.256-1.408v-17.472c0-1.6 0.64-3.072 1.728-4.224l3.52-3.648-2.624 0.768c-1.28 0.32-2.368 1.152-3.008 2.304z"></path>
<path opacity="0.5" fill="#000" d="M1.472 16.896c-1.088 1.088-1.088 2.816 0 3.904l2.24 2.176c0.064-0.512 0.256-1.024 0.512-1.472 1.28-2.176 6.976-12.032 10.048-17.344-0.384 0.32 0.256-0.32-12.8 12.736z"></path>
<path opacity="0.5" fill="#000" d="M3.84 9.28c-0.768 0.384-1.024 1.344-0.64 2.112l0.832 1.536c0.128-0.256 0.32-0.512 0.512-0.704 1.088-0.96 5.76-5.376 8.32-7.744-0.192 0.128 0.256-0.128-9.024 4.8z"></path>
<path fill="#000" d="M29.952 8.32l-3.072-3.2c-0.704 0.768-1.536 1.344-2.496 1.728-0.192 0.576-0.832 0.896-1.408 0.64-0.576-0.192-0.896-0.832-0.64-1.408 0.128-0.448 0.576-0.704 1.024-0.704 0.32 0 0.576 0.128 0.832 0.384 0.32-0.128 0.64-0.32 0.96-0.576s0.704-0.576 0.96-0.896c1.024-1.216 1.728-2.624 1.92-4.224l-1.088-0.064c-0.192 1.28-0.768 2.496-1.6 3.52-1.088-1.088-2.816-1.088-3.904-0.064 0 0-0.064 0.064-0.064 0.064l-4.672 4.8c-0.896 0.896-1.408 2.176-1.408 3.456v17.472c0 1.536 1.216 2.752 2.752 2.752h10.496c1.536 0 2.752-1.216 2.752-2.752v-17.472c0.064-1.28-0.448-2.496-1.344-3.456zM24.896 25.6c-1.6 0-3.072-0.64-4.096-1.792-0.768-0.832-1.28-1.984-1.472-3.456h-1.216v-0.96h1.152c0-0.128 0-0.192 0-0.32 0-0.32 0-0.64 0.064-0.896h-1.216v-1.024h1.344c0.256-1.408 0.832-2.56 1.664-3.392 1.024-1.088 2.304-1.664 3.968-1.664 1.216 0 2.112 0.32 2.688 0.64l-0.448 1.344c-0.512-0.32-1.344-0.576-2.24-0.576-1.088 0-1.984 0.384-2.624 1.088-0.576 0.576-1.024 1.472-1.216 2.56h5.632v1.024h-5.76c0 0.256-0.064 0.576-0.064 0.832 0 0.128 0 0.192 0 0.384h5.824v0.96h-5.76c0.192 1.152 0.576 2.048 1.088 2.624 0.768 0.768 1.728 1.152 2.816 1.152s1.984-0.384 2.432-0.64l0.32 1.28c-0.512 0.384-1.536 0.832-2.88 0.832z"></path>
</svg>
