<!-- Generated by IcoMoon.io -->
<svg version="1.1" xmlns="http://www.w3.org/2000/svg" width="32" height="32" viewBox="0 0 32 32">
<title>pricetag-outline</title>
<path d="M27.712 19.52c-0.256-0.128-0.576-0.064-0.704 0.192l-6.144 10.432c-0.448 0.768-1.408 1.024-2.176 0.576l-1.216-0.768c-0.256-0.192-0.576-0.064-0.768 0.128-0.192 0.256-0.064 0.576 0.128 0.768l1.216 0.768c0.448 0.256 0.896 0.384 1.344 0.384 0.896 0 1.792-0.448 2.304-1.344l6.144-10.432c0.192-0.192 0.128-0.512-0.128-0.704z"></path>
<path d="M29.312 0h-8.512c-1.664 0-2.88 0.512-4.16 1.728-0.192 0.192-0.192 0.576 0 0.768s0.576 0.192 0.768 0c1.024-1.024 1.984-1.472 3.392-1.472h8.576c0.896 0 1.6 0.704 1.6 1.6v8.576c0 1.408-0.384 2.304-1.472 3.392l-15.872 15.872c-0.576 0.576-1.664 0.576-2.24 0l-9.856-9.792c-0.32-0.32-0.448-0.704-0.448-1.152s0.192-0.832 0.448-1.152l14.336-14.336c0.192 0.064 0.448 0.128 0.64 0.192 2.176 0.576 3.904 1.152 5.184 1.728-0.256 0.448-0.384 0.96-0.384 1.536 0 1.792 1.408 3.2 3.2 3.2s3.2-1.408 3.2-3.2-1.408-3.2-3.2-3.2c-0.32 0-0.512 0.256-0.512 0.512s0.256 0.512 0.512 0.512c1.152 0 2.112 0.96 2.112 2.112s-0.96 2.112-2.112 2.112c-1.152 0-2.112-0.96-2.112-2.112 0-0.384 0.128-0.768 0.32-1.088 0.896 0.448 1.472 0.832 1.728 1.024-0.128 0-0.256 0.064-0.448 0.064-0.32 0-0.512 0.256-0.512 0.576 0 0.256 0.256 0.512 0.512 0.512 0 0 0 0 0.064 0 0.32 0 1.344-0.128 1.536-0.832 0.512-1.92-7.232-4.032-8.768-4.48-2.368-0.64-4.672-1.088-6.4-1.216-2.176-0.192-3.2 0.064-3.456 0.768-0.064 0.384-0.32 1.28 3.968 3.008 0.256 0.128 0.576 0 0.704-0.32 0.128-0.256 0-0.576-0.32-0.704-2.112-0.832-2.944-1.408-3.264-1.728 0.64-0.192 2.88-0.128 6.528 0.704l-13.824 13.888c-0.512 0.512-0.768 1.152-0.768 1.92 0 0.704 0.256 1.408 0.768 1.92l9.792 9.792c0.512 0.512 1.152 0.768 1.856 0.768s1.408-0.256 1.92-0.768l15.936-15.872c1.216-1.216 1.728-2.432 1.728-4.096v-8.576c0-1.472-1.216-2.688-2.688-2.688z"></path>
<path d="M16.768 16c-0.576-0.512-1.216-0.832-1.856-0.896-0.384-0.064-0.832 0-1.28 0.128s-0.832 0.32-1.152 0.64l3.584 3.136-0.768 0.576-3.52-3.072c-0.064 0.064-0.128 0.128-0.192 0.192-0.256 0.256-0.384 0.448-0.448 0.512l3.392 2.944-0.768 0.576-3.136-2.752c-0.576 0.96-0.704 1.792-0.448 2.624 0.192 0.576 0.512 1.088 1.024 1.536 0.64 0.576 1.344 0.832 1.984 0.832l-0.96 1.088c-0.64-0.192-1.216-0.512-1.728-0.96-1.6-1.408-2.112-2.944-1.472-4.8 0.128-0.384 0.32-0.768 0.576-1.216l-0.832-0.704 0.768-0.576 0.576 0.512c0.128-0.128 0.256-0.32 0.384-0.512 0.064-0.064 0.128-0.128 0.192-0.192l-0.704-0.576 0.768-0.576 0.64 0.512c1.216-0.96 2.496-1.28 3.84-0.96 0.832 0.192 1.6 0.576 2.304 1.152 0.64 0.576 1.088 1.216 1.28 1.856l-1.088 0.768c-0.064-0.704-0.448-1.28-0.96-1.792z"></path>
</svg>
