<!-- Generated by IcoMoon.io -->
<svg version="1.1" xmlns="http://www.w3.org/2000/svg" width="32" height="32" viewBox="0 0 32 32">
<title>pricing-free</title>
<path d="M13.888 6.976l-8.768 15.104c-0.768 1.344-0.32 3.008 1.024 3.776l8.384 4.8c-0.192-0.448-0.256-0.96-0.256-1.408v-17.472c0-1.6 0.64-3.072 1.728-4.224l3.52-3.648-2.624 0.768c-1.28 0.32-2.368 1.152-3.008 2.304z"></path>
<path d="M1.472 16.896c-1.088 1.088-1.088 2.816 0 3.904l2.24 2.176c0.064-0.512 0.256-1.024 0.512-1.472 1.28-2.176 6.976-12.032 10.048-17.344-0.384 0.32 0.256-0.32-12.8 12.736z"></path>
<path d="M3.84 9.28c-0.768 0.384-1.024 1.344-0.64 2.112l0.832 1.536c0.128-0.256 0.32-0.512 0.512-0.704 1.088-0.96 5.76-5.376 8.32-7.744-0.192 0.128 0.256-0.128-9.024 4.8z"></path>
<path d="M29.952 8.32l-3.072-3.2c-0.704 0.768-1.536 1.344-2.496 1.728-0.192 0.576-0.832 0.896-1.408 0.64-0.576-0.192-0.896-0.832-0.64-1.408 0.128-0.448 0.576-0.704 1.024-0.704 0.32 0 0.576 0.128 0.832 0.384 0.32-0.128 0.64-0.32 0.96-0.576s0.704-0.576 0.96-0.896c1.024-1.216 1.728-2.624 1.92-4.224l-1.088-0.064c-0.192 1.28-0.768 2.496-1.6 3.52-1.088-1.088-2.816-1.088-3.904-0.064 0 0-0.064 0.064-0.064 0.064l-4.672 4.8c-0.896 0.896-1.408 2.176-1.408 3.456v17.472c0 1.536 1.216 2.752 2.752 2.752h10.496c1.536 0 2.752-1.216 2.752-2.752v-17.472c0.064-1.28-0.448-2.496-1.344-3.456zM26.432 30.72h-6.656v-4.48h1.344v3.008h1.344v-2.752h1.344v2.752h2.56v1.472zM26.432 21.632l-2.688 1.408v0.704h2.624v1.472h-6.592v-2.56c0-0.32 0.064-0.64 0.128-0.96s0.192-0.576 0.32-0.768c0.128-0.256 0.384-0.384 0.64-0.576 0.256-0.128 0.576-0.192 0.96-0.192 0.448 0 0.896 0.128 1.216 0.384s0.512 0.576 0.64 1.088l2.816-1.664v1.664zM26.432 19.072h-6.656v-4.544h1.344v3.072h1.28v-2.88h1.344v2.88h1.344v-3.2h1.344v4.672zM26.432 13.184h-6.656v-4.544h1.344v3.072h1.28v-2.88h1.344v2.88h1.344v-3.2h1.344v4.672z"></path>
<path d="M22.464 22.080c-0.064-0.128-0.128-0.192-0.192-0.32-0.128-0.064-0.256-0.128-0.448-0.128s-0.32 0.064-0.384 0.128c-0.128 0.064-0.192 0.128-0.256 0.256s-0.064 0.256-0.128 0.384c0 0.128 0 0.256 0 0.384v0.96h1.536v-0.832c0-0.128 0-0.256 0-0.448-0.064-0.128-0.128-0.256-0.128-0.384z"></path>
</svg>
