<!-- Generated by IcoMoon.io -->
<svg version="1.1" xmlns="http://www.w3.org/2000/svg" width="32" height="32" viewBox="0 0 32 32">
<title>ratings-outline</title>
<path d="M30.848 20.672c-0.064-0.064-0.192-0.128-0.256-0.128l-5.504-1.28-0.64-1.088 5.76-6.592c0.192-0.256 0.192-0.576 0-0.832-0.064-0.064-0.192-0.128-0.256-0.128l-9.28-2.176-5.056-8.128c-0.128-0.256-0.512-0.384-0.768-0.192-0.064 0.064-0.192 0.128-0.192 0.192l-4.928 8.128-9.28 2.176c-0.32 0.064-0.512 0.384-0.448 0.704 0 0.064 0.064 0.192 0.128 0.256l6.272 7.168-0.832 9.472c0 0.32 0.192 0.576 0.512 0.64 0.064 0 0.192 0 0.256-0.064l8.768-3.712 0.704 0.32 0.32 0.32-0.512 5.632c0 0.32 0.192 0.576 0.512 0.64 0.064 0 0.192 0 0.256-0.064l5.184-2.176 5.12 2.176c0.256 0.128 0.64 0.064 0.768-0.256 0.064-0.128 0.064-0.192 0.064-0.32l-0.512-5.632 3.712-4.224c0.32-0.256 0.32-0.64 0.128-0.832zM6.784 27.392l0.768-8.768c0-0.192-0.064-0.32-0.192-0.448l-5.696-6.656 8.576-1.984c0.192-0.064 0.32-0.128 0.384-0.32l4.544-7.552 4.544 7.552c0.064 0.128 0.192 0.256 0.384 0.256l8.512 2.048-4.864 5.632-1.6-2.688c-0.128-0.256-0.512-0.384-0.768-0.192-0.064 0.064-0.192 0.128-0.192 0.192l-2.88 4.864-5.504 1.28c-0.32 0.064-0.512 0.384-0.448 0.704 0 0.064 0.064 0.192 0.128 0.256l2.24 2.56-7.936 3.264zM26.112 25.152c-0.128 0.128-0.128 0.256-0.128 0.448l0.448 4.928-4.544-1.92c-0.128-0.064-0.32-0.064-0.448 0l-4.544 1.92 0.448-4.864c0-0.192-0.064-0.32-0.192-0.448l-3.2-3.712 4.8-1.088c0.192-0.064 0.32-0.128 0.384-0.32l2.496-4.16 2.56 4.224c0.064 0.128 0.192 0.256 0.384 0.256v0l4.8 1.088-3.264 3.648z"></path>
</svg>
