<!-- Generated by IcoMoon.io -->
<svg version="1.1" xmlns="http://www.w3.org/2000/svg" width="32" height="32" viewBox="0 0 32 32">
<title>ratings</title>
<path d="M30.656 10.752c-0.064-0.064-0.192-0.128-0.256-0.128l-9.28-2.176-4.992-8.192c-0.128-0.256-0.512-0.32-0.768-0.192-0.064 0.064-0.128 0.128-0.192 0.192l-4.928 8.192-9.28 2.176c-0.32 0.064-0.512 0.384-0.448 0.704 0 0.064 0.064 0.192 0.128 0.256l6.272 7.232-0.896 9.408c0 0.32 0.192 0.576 0.512 0.64 0.128 0 0.192 0 0.256-0.064l8.064-3.392-2.752-3.2c-0.64-0.704-0.512-1.792 0.192-2.368 0.192-0.192 0.448-0.32 0.704-0.384l5.056-1.152 2.688-4.416c0.512-0.768 1.536-1.024 2.304-0.576 0.256 0.128 0.448 0.32 0.576 0.576l2.048 3.392 4.992-5.76c0.192-0.192 0.192-0.576 0-0.768z"></path>
<path d="M31.296 20.672c-0.064-0.064-0.192-0.128-0.256-0.128l-5.504-1.28-2.88-4.8c-0.192-0.256-0.512-0.384-0.832-0.192-0.064 0.064-0.128 0.128-0.192 0.192l-2.944 4.8-5.504 1.28c-0.32 0.064-0.512 0.384-0.448 0.704 0 0.064 0.064 0.192 0.128 0.256l3.712 4.288-0.448 5.568c0 0.32 0.192 0.576 0.512 0.64 0.128 0 0.192 0 0.256-0.064l5.184-2.176 5.12 2.176c0.256 0.128 0.64 0.064 0.768-0.256 0.192-0.064 0.192-0.192 0.192-0.32l-0.512-5.632 3.648-4.224c0.256-0.256 0.256-0.576 0-0.832z"></path>
</svg>
