<!-- Generated by IcoMoon.io -->
<svg version="1.1" xmlns="http://www.w3.org/2000/svg" width="32" height="32" viewBox="0 0 32 32">
<title>relaxing</title>
<path d="M30.016 24.96c0.32-0.896-0.192-1.92-1.152-2.176-4.096-1.28-5.824-8.576-6.272-11.264-0.064-0.384-0.256-0.768-0.256-0.768-0.768-1.408-3.584-2.112-3.904-2.112-0.576-0.064-0.64-0.512-0.704-0.64 1.024-0.704 1.664-2.368 1.664-3.904 0-2.304-0.192-4.096-3.264-4.096-0.064 0-0.192 0-0.256 0-3.072 0-3.328 1.792-3.328 4.096 0 1.536 0.704 3.2 1.664 3.904 0 0.128-0.128 0.576-0.704 0.64-0.32 0.064-3.648 0.832-4.096 2.496 0 0-0.064 0.256-0.064 0.448 0 0-0.32 2.56-1.344 5.248-0.896 2.304-2.432 5.248-4.928 6.016-0.896 0.256-1.408 1.28-1.152 2.176 0.256 0.704 0.896 1.216 1.664 1.216-1.472 0.832-1.664 1.984-1.664 2.624 0 0.256 0.128 1.024 0.704 1.728 0.576 0.64 1.6 1.408 3.52 1.408 0.32 0 0.576 0 0.96-0.064 1.28-0.128 2.624-0.32 3.904-0.576 0.448-0.064 0.896-0.128 1.408-0.192 0.64-0.064 1.728-0.128 3.328-0.192h0.512c1.6 0 2.688 0.064 3.328 0.192 0.448 0.064 0.896 0.128 1.408 0.192 1.28 0.192 2.624 0.384 3.904 0.576 0.32 0.064 0.64 0.064 0.96 0.064 1.984 0 3.008-0.768 3.52-1.408 0.576-0.704 0.704-1.536 0.704-1.728 0-0.64-0.192-1.792-1.664-2.624 0 0 0 0 0 0 0.64-0.064 1.344-0.512 1.6-1.28zM9.6 24.768c-0.896 0.256-1.088 0.32-1.856 0.384-0.256 0.064-0.576 0.064-0.96 0.128s-0.768 0.128-1.088 0.192c2.304-1.28 4.096-3.648 5.504-7.104 0.064 0.704 0.128 1.408 0.128 2.24 0 2.688-1.408 4.032-1.728 4.16zM25.152 25.28c-0.384-0.064-0.704-0.128-0.96-0.128-2.368-0.32-3.584-1.856-3.584-4.544 0-0.832 0.064-1.664 0.128-2.304 1.344 3.52 3.2 5.952 5.568 7.232-0.32-0.128-0.704-0.192-1.152-0.256z"></path>
</svg>
