<!-- Generated by IcoMoon.io -->
<svg version="1.1" xmlns="http://www.w3.org/2000/svg" width="32" height="32" viewBox="0 0 32 32">
<title>restaurant</title>
<path d="M16 2.496c-7.424 0-13.504 6.080-13.504 13.504 0 5.376 3.136 9.984 7.68 12.16l0.448-8.192c0 0-0.768-0.256-0.96-0.32-1.664-0.768-2.88-2.944-2.88-5.76 0-3.072 2.432-5.76 4.736-5.76 0 0 0 0 0 0s0 0 0 0c2.304 0 4.736 2.688 4.736 5.76 0 2.816-1.216 4.992-2.88 5.76 0 0-0.96 0.384-0.96 0.384l0.384 9.024c1.024 0.256 2.112 0.384 3.2 0.384 1.472 0 2.944-0.256 4.288-0.704l0.448-8.064c-1.088-0.256-2.048-0.96-2.624-1.792-0.704-1.088 0.576-10.752 0.576-10.752h0.832v9.088h0.832v-9.088h0.896v9.088h0.832v-9.088h0.96v9.088h0.832v-9.088h0.64c0 0 1.28 9.664 0.576 10.752-0.576 0.896-1.536 1.6-2.624 1.792 0 0-0.064 0-0.064 0l0.384 6.976c4.032-2.368 6.72-6.656 6.72-11.648 0-7.424-6.080-13.504-13.504-13.504z"></path>
<path d="M8.704 12.544c0.064-0.192 0.128-0.384 0.128-0.384 0-0.064 0-0.128-0.128-0.192-0.064-0.064-0.192 0-0.192 0.064 0 0-0.064 0.128-0.256 0.384-0.128 0.192-0.256 0.512-0.384 0.832-0.064 0.32-0.192 0.768-0.256 1.216 0 0.256 0 0.512 0 0.704 0 0.256 0.064 0.512 0.128 0.768 0.256 0.768 0.448 1.472 1.216 2.176 0.256 0.256 0.448 0.384 0.64 0.512l0.064 0.064c0.064 0 0.064 0.064 0.128 0.064 0.128 0.064 0.256 0.128 0.256 0.128 0.064 0 0.128 0 0.192-0.064 0-0.064 0-0.128-0.064-0.192 0 0-0.064-0.064-0.192-0.192-0.064-0.064-0.128-0.192-0.256-0.32-0.064-0.064-0.128-0.192-0.192-0.32-0.384-0.576-0.576-1.344-0.832-2.112-0.064-0.192-0.128-0.384-0.128-0.576s-0.064-0.448-0.064-0.64c0-0.448 0-0.832 0.064-1.152s0.064-0.576 0.128-0.768z"></path>
<path d="M16 0c-8.832 0-16 7.168-16 16s7.168 16 16 16c8.832 0 16-7.168 16-16s-7.168-16-16-16zM16 30.784c-8.192 0-14.784-6.592-14.784-14.784s6.592-14.784 14.784-14.784c8.192 0 14.784 6.656 14.784 14.784 0 8.192-6.592 14.784-14.784 14.784z"></path>
</svg>
