<!-- Generated by IcoMoon.io -->
<svg version="1.1" xmlns="http://www.w3.org/2000/svg" width="32" height="32" viewBox="0 0 32 32">
<title>shopping</title>
<path d="M4.416 0.576v5.12l2.496-2.56z"></path>
<path d="M10.048 10.112c-0.64 0-1.216 0.512-1.216 1.216 0 0.512 0.32 0.96 0.832 1.152v-1.152c0-0.192 0.192-0.384 0.384-0.384s0.384 0.192 0.384 0.384v1.152c0.448-0.128 0.832-0.576 0.832-1.152 0-0.64-0.576-1.216-1.216-1.216z"></path>
<path d="M21.952 10.112c-0.64 0-1.216 0.512-1.216 1.216 0 0.512 0.32 0.96 0.832 1.152v-1.152c0-0.192 0.192-0.384 0.384-0.384s0.384 0.192 0.384 0.384v1.152c0.448-0.128 0.832-0.576 0.832-1.152 0-0.64-0.576-1.216-1.216-1.216z"></path>
<path d="M7.808 3.2c0 0 0 0 0 0 0 0.064 0 0.064 0 0.064s0 0 0 0.064c0 0 0 0 0 0s0 0 0 0 0 0 0 0l-2.88 2.944h22.144l-2.752-2.88c0 0 0 0 0 0s0 0 0 0 0 0 0-0.064c0 0 0 0 0-0.064 0 0 0 0 0-0.064 0 0 0 0 0-0.064 0 0 0 0 0-0.064 0 0 0 0 0-0.064s0 0 0-0.064 0 0 0-0.064c0 0 0 0 0-0.064 0 0 0 0 0-0.064 0 0 0 0 0-0.064 0 0 0 0 0-0.064 0 0 0 0 0 0s0 0 0 0l2.752-2.624h-22.144l2.752 2.88c0 0 0 0 0 0s0 0 0 0 0 0 0 0.064c0 0 0 0 0 0.064 0 0 0 0 0 0.064 0 0 0 0 0 0.064 0 0 0 0 0 0.064 0 0 0 0 0 0.064 0.128-0.128 0.128-0.128 0.128-0.064 0 0 0 0 0 0z"></path>
<path d="M25.088 3.136l2.496 2.56v-5.12z"></path>
<path d="M28.48 29.504h-24.96l-0.128 2.496h25.216z"></path>
<path d="M27.584 7.040h-23.168l-0.896 21.76h24.896l-0.832-21.76zM22.336 13.248v2.24c0 3.456-2.816 6.336-6.336 6.336-3.456 0-6.336-2.816-6.336-6.336v-2.24c-0.896-0.192-1.6-0.96-1.6-1.92 0-1.088 0.896-1.984 1.984-1.984s1.984 0.896 1.984 1.984c0 0.96-0.704 1.728-1.6 1.92v2.176c0 0 0 0 0 0 0 3.072 2.496 5.568 5.568 5.568s5.568-2.496 5.568-5.568v-2.24c-0.896-0.192-1.6-0.96-1.6-1.92 0-1.088 0.896-1.984 1.984-1.984s1.984 0.896 1.984 1.984c-0.064 1.024-0.704 1.792-1.6 1.984z"></path>
</svg>
