<!-- Generated by IcoMoon.io -->
<svg version="1.1" xmlns="http://www.w3.org/2000/svg" width="32" height="32" viewBox="0 0 32 32">
<title>social-gplus</title>
<path d="M21.824 10.88h-1.472v2.24h-2.176v1.408h2.176v2.176h1.472v-2.176h2.176v-1.408h-2.176z"></path>
<path d="M16 0c-8.832 0-16 7.168-16 16s7.168 16 16 16 16-7.168 16-16-7.168-16-16-16zM16 30.528c-8.064 0-14.528-6.464-14.528-14.528s6.464-14.528 14.528-14.528 14.528 6.464 14.528 14.528-6.464 14.528-14.528 14.528z"></path>
<path d="M16.064 16.576v0c-0.32-0.192-0.576-0.512-0.704-0.832 0-0.192 0-0.32 0.512-0.704 0.64-0.512 1.024-1.216 1.024-2.048 0-0.576-0.192-1.152-0.512-1.664h0.256l1.536-1.216h-4.16c-1.6-0.064-3.008 1.216-3.136 2.816-0.064 1.472 1.152 2.752 2.624 2.816 0 0 0 0 0 0 0 0.128 0 0.192 0 0.32 0 0.192 0.064 0.448 0.128 0.64-1.92 0-3.52 1.28-3.52 2.752 0 1.344 1.536 2.304 3.648 2.304 2.304 0 3.52-1.472 3.52-2.752 0.128-0.96-0.384-1.92-1.216-2.432zM12.672 12.928v0c-0.064-0.448 0-0.96 0.32-1.344 0.128-0.192 0.384-0.256 0.576-0.256v0c0.704 0 1.344 0.832 1.472 1.856 0.128 0.512 0 1.024-0.32 1.408-0.128 0.192-0.384 0.256-0.64 0.256-0.64-0.064-1.28-0.896-1.408-1.92zM13.824 20.672c-0.96 0.064-1.792-0.576-1.856-1.536 0 0 0 0 0 0 0-0.768 0.96-1.472 2.048-1.472 0.256 0 0.448 0.064 0.704 0.128l0.192 0.128c0.576 0.384 0.832 0.64 0.96 0.96 0 0.064 0 0.192 0 0.256 0 1.024-0.704 1.536-2.048 1.536z"></path>
</svg>
