<!-- Generated by IcoMoon.io -->
<svg version="1.1" xmlns="http://www.w3.org/2000/svg" width="32" height="32" viewBox="0 0 32 32">
<title>social-twitter</title>
<path d="M23.616 10.368c-0.576 0.32-1.216 0.576-1.92 0.704-0.576-0.576-1.344-0.96-2.176-0.96-1.6 0-2.944 1.28-3.008 2.88 0 0.256 0 0.448 0.064 0.64-2.368-0.128-4.608-1.216-6.144-3.072-0.256 0.448-0.384 0.96-0.384 1.472 0 0.96 0.512 1.92 1.344 2.432-0.448 0-0.96-0.128-1.344-0.384 0 0 0 0 0 0.064 0 1.408 1.024 2.624 2.368 2.88-0.448 0.256-0.896 0.256-1.344 0.192 0.384 1.216 1.536 2.048 2.816 2.048-1.024 0.832-2.368 1.28-3.712 1.28-0.256 0-0.512 0-0.704-0.064 1.344 0.896 2.944 1.344 4.544 1.344 4.608 0.064 8.448-3.584 8.512-8.192 0-0.064 0-0.128 0-0.128 0-0.128 0-0.256 0-0.384 0.576-0.448 1.088-0.96 1.472-1.536-0.576 0.256-1.152 0.384-1.728 0.448 0.64-0.384 1.088-0.96 1.344-1.664z"></path>
<path d="M16 0c-8.832 0-16 7.168-16 16s7.168 16 16 16 16-7.168 16-16-7.168-16-16-16zM16 30.528c-8.064 0-14.528-6.528-14.528-14.528s6.464-14.528 14.528-14.528 14.528 6.464 14.528 14.528-6.528 14.528-14.528 14.528z"></path>
</svg>
