<!-- Generated by IcoMoon.io -->
<svg version="1.1" xmlns="http://www.w3.org/2000/svg" width="32" height="32" viewBox="0 0 32 32">
<title>social-youtube</title>
<path d="M15.36 13.056h0.32c0.64 0 1.216-0.512 1.216-1.216v-1.92c0-0.64-0.512-1.152-1.216-1.152h-0.32c-0.64 0-1.216 0.512-1.216 1.216v1.92c0.064 0.64 0.576 1.152 1.216 1.152zM15.040 9.856c0-0.256 0.192-0.448 0.448-0.448s0.448 0.192 0.448 0.448v2.112c0 0.256-0.192 0.448-0.448 0.448s-0.448-0.192-0.448-0.448v-2.112z"></path>
<path d="M11.84 12.992h1.024v-2.368l1.216-3.264h-0.96l-0.768 2.176-0.704-2.176h-1.088l1.28 3.264z"></path>
<path d="M18.368 13.056c0.448-0.064 0.832-0.256 1.152-0.512v0.448h0.896v-4.224h-0.896v3.264c0 0-0.32 0.32-0.576 0.32s-0.32-0.256-0.32-0.256v-3.392h-0.896v3.712c0 0.384 0.32 0.64 0.64 0.64z"></path>
<path d="M17.792 17.92c-0.192 0-0.32 0.064-0.448 0.256v2.944c0.128 0.128 0.256 0.192 0.448 0.192 0.448 0 0.448-0.512 0.448-0.512v-2.432c0 0.064-0.128-0.448-0.448-0.448z"></path>
<path d="M16 0c-8.832 0-16 7.168-16 16s7.168 16 16 16 16-7.168 16-16-7.168-16-16-16zM16 30.528c-8.064 0-14.528-6.464-14.528-14.528s6.464-14.528 14.528-14.528 14.528 6.464 14.528 14.528-6.464 14.528-14.528 14.528z"></path>
<path d="M21.248 17.92c-0.448 0-0.448 0.512-0.448 0.512v0.64h0.896v-0.64c0 0 0-0.512-0.448-0.512z"></path>
<path d="M21.568 13.952c0 0-0.064 0 0 0v0c-0.064 0-2.816-0.128-5.568-0.128s-5.504 0.128-5.504 0.128c-1.216-0.064-2.24 0.896-2.24 2.112 0 0 0 0.064 0 0.064-0.128 0.896-0.192 1.856-0.256 2.752 0 0.96 0.064 1.856 0.256 2.816 0 1.216 0.96 2.176 2.176 2.176 0 0 0.064 0 0.064 0s2.688 0.128 5.504 0.128 5.504-0.128 5.504-0.128c1.216 0.064 2.24-0.896 2.24-2.112 0 0 0-0.064 0-0.064 0.128-0.896 0.192-1.856 0.256-2.816 0-0.96-0.064-1.856-0.256-2.816 0-1.152-0.96-2.112-2.176-2.112zM12.736 16.384h-1.088v5.632h-1.088v-5.632h-1.088v-0.96h3.328l-0.064 0.96zM15.616 22.080h-0.896v-0.448c-0.32 0.32-0.704 0.448-1.152 0.512-0.32 0-0.64-0.256-0.704-0.576v-4.416h0.96v4.16c0 0 0 0.192 0.32 0.192s0.576-0.384 0.576-0.384v-4.032h0.896v4.992zM18.304 22.144c-0.384 0-0.768-0.192-0.96-0.512v0.384h-0.96v-6.528h0.896v2.112c0.256-0.256 0.576-0.448 0.96-0.512 0.576 0 0.832 0.512 0.832 1.152v2.688c0.064 0.064 0.064 1.216-0.768 1.216zM22.656 19.776h-1.856v1.088c0 0 0 0.512 0.448 0.512s0.448-0.512 0.448-0.512v-0.512h0.96v0.768c-0.128 0.64-0.704 1.088-1.344 1.024-0.64 0.064-1.28-0.384-1.472-1.024v-2.816c0-0.704 0.576-1.28 1.28-1.216 0.064 0 0.128 0 0.128 0 0.64-0.064 1.28 0.384 1.344 1.024 0 0.064 0 0.128 0 0.192l0.064 1.472z"></path>
</svg>
