<!-- Generated by IcoMoon.io -->
<svg version="1.1" xmlns="http://www.w3.org/2000/svg" width="32" height="32" viewBox="0 0 32 32">
<title>social-facebook</title>
<path d="M14.528 12.352v1.472h-1.472v2.176h1.472v6.528h2.88v-6.528h1.92l0.256-2.176h-2.176v-1.28c0-0.576 0.064-0.896 0.96-0.896h1.216v-2.176h-1.92c-2.304 0-3.136 1.088-3.136 2.88z"></path>
<path d="M16 0c-8.832 0-16 7.168-16 16s7.168 16 16 16 16-7.168 16-16-7.168-16-16-16zM16 30.528c-8.064 0-14.528-6.464-14.528-14.528s6.464-14.528 14.528-14.528 14.528 6.464 14.528 14.528-6.464 14.528-14.528 14.528z"></path>
</svg>
