<!-- Generated by IcoMoon.io -->
<svg version="1.1" xmlns="http://www.w3.org/2000/svg" width="32" height="32" viewBox="0 0 32 32">
<title>social-instagram</title>
<path d="M16 0c-8.832 0-16 7.168-16 16s7.168 16 16 16 16-7.168 16-16-7.168-16-16-16zM16 30.528c-8.064 0-14.528-6.464-14.528-14.528s6.464-14.528 14.528-14.528 14.528 6.464 14.528 14.528-6.464 14.528-14.528 14.528z"></path>
<path d="M20.352 8.704h-8.704c-1.6 0-2.88 1.28-2.88 2.88v8.704c0 1.6 1.28 2.88 2.88 2.88h8.704c1.6 0 2.88-1.28 2.88-2.88v-8.64c0.064-1.6-1.28-2.944-2.88-2.944zM18.88 10.88h2.24v2.176h-2.176v-2.176zM16 13.12c1.6 0 2.88 1.28 2.88 2.88s-1.28 2.88-2.88 2.88-2.88-1.28-2.88-2.88 1.28-2.88 2.88-2.88zM21.824 20.352c0 0.832-0.64 1.472-1.472 1.472h-8.704c-0.832 0-1.472-0.64-1.472-1.472v-5.12h1.536c-0.448 2.368 1.152 4.672 3.52 5.056s4.672-1.152 5.056-3.52c0.064-0.256 0.064-0.576 0.064-0.832s0-0.512-0.064-0.704h1.536v5.12z"></path>
</svg>
