<!-- Generated by IcoMoon.io -->
<svg version="1.1" xmlns="http://www.w3.org/2000/svg" width="32" height="32" viewBox="0 0 32 32">
<title>sun-empty</title>
<path d="M5.504 16c0-0.768-0.64-1.344-1.344-1.344h-2.816c-0.704 0-1.344 0.576-1.344 1.344s0.64 1.344 1.344 1.344h2.752c0.768 0 1.408-0.576 1.408-1.344zM6.848 23.744c-0.384 0-0.704 0.128-0.96 0.384l-1.856 1.856c-0.192 0.256-0.384 0.64-0.384 0.96 0 0.768 0.64 1.344 1.344 1.344 0.384 0 0.704-0.128 0.96-0.384l1.856-1.856c0.256-0.256 0.384-0.576 0.384-0.96 0.064-0.704-0.576-1.344-1.344-1.344zM16 5.504c0.768 0 1.344-0.64 1.344-1.344v-2.816c0-0.704-0.576-1.344-1.344-1.344s-1.344 0.64-1.344 1.344v2.752c0 0.768 0.576 1.408 1.344 1.408zM25.152 8.256c0.384 0 0.704-0.128 0.96-0.384l1.856-1.856c0.192-0.256 0.384-0.64 0.384-0.96 0-0.768-0.64-1.344-1.344-1.344-0.384 0-0.704 0.128-0.96 0.384l-1.856 1.856c-0.256 0.256-0.384 0.576-0.384 0.96-0.064 0.704 0.576 1.344 1.344 1.344zM5.888 7.808c0.256 0.256 0.576 0.384 0.96 0.384 0.768 0 1.344-0.64 1.344-1.344 0-0.384-0.128-0.704-0.384-0.96l-1.792-1.856c-0.256-0.192-0.64-0.384-0.96-0.384-0.768 0-1.344 0.64-1.344 1.344-0.064 0.384 0.128 0.768 0.32 1.024l1.856 1.792zM30.656 14.656h-2.752c-0.768 0-1.344 0.64-1.344 1.344s0.64 1.344 1.344 1.344h2.752c0.768 0 1.344-0.64 1.344-1.344 0-0.768-0.64-1.344-1.344-1.344zM26.112 24.192c-0.256-0.256-0.576-0.384-0.96-0.384-0.768 0-1.344 0.64-1.344 1.344 0 0.384 0.128 0.704 0.384 0.96l1.856 1.856c0.256 0.256 0.576 0.384 0.96 0.384 0.768 0 1.344-0.64 1.344-1.344 0-0.384-0.128-0.704-0.384-0.96l-1.856-1.856zM16 26.496c-0.768 0-1.344 0.64-1.344 1.344v2.752c0 0.768 0.64 1.344 1.344 1.344s1.344-0.64 1.344-1.344v-2.752c0-0.704-0.576-1.344-1.344-1.344zM16 6.4c-5.312 0-9.6 4.288-9.6 9.6s4.288 9.6 9.6 9.6 9.6-4.288 9.6-9.6-4.288-9.6-9.6-9.6zM16 24.384c-4.608 0-8.384-3.776-8.384-8.384s3.776-8.384 8.384-8.384 8.384 3.776 8.384 8.384-3.776 8.384-8.384 8.384z"></path>
</svg>
