<!-- Generated by IcoMoon.io -->
<svg version="1.1" xmlns="http://www.w3.org/2000/svg" width="32" height="32" viewBox="0 0 32 32">
<title>target</title>
<path d="M31.68 6.4l-3.968 3.968h-4.544l-0.768 0.704-5.952 5.952c-0.192 0.192-0.512 0.32-0.768 0.32-0.32 0-0.576-0.128-0.832-0.32-0.384-0.448-0.384-1.152 0.064-1.6l6.528-6.528v-4.672l3.904-3.904c0.192-0.064 0.256-0.064 0.256-0.128 0 0 0 0 0 0 0.064 0 0.064-0.064 0.128-0.064 0 0 0 0 0 0 0.064 0 0.064-0.064 0.128-0.064 0 0 0 0 0 0 0.064 0 0.064 0 0.128 0 0 0 0 0 0 0 0.064 0 0.064 0 0.128 0 0 0 0 0 0 0 0.064 0 0.064 0 0.128 0 0 0 0 0 0 0 0.064 0 0.064 0 0.128 0 0 0 0 0 0 0 0.064 0 0.064 0 0.128 0.064 0 0 0 0 0 0 0.064 0 0.064 0 0.064 0.064 0 0 0 0 0 0 0.064 0 0.064 0.064 0.128 0.064 0 0 0 0 0 0s0.064 0.064 0.064 0.064c0 0 0 0 0 0s0.064 0.064 0.064 0.064c0 0 0 0 0 0s0.064 0.064 0.064 0.128c0 0 0 0 0 0 0 0.064 0.064 0.064 0.064 0.128 0 0 0 0 0 0 0 0.064 0 0.064 0 0.128 0 0 0 0 0 0.064s0 0.064 0 0.128l0.064 3.712h0.064l3.648 0.064c0.192 0 0.384 0.064 0.512 0.128 0.064 0.064 0.128 0.064 0.128 0.128 0.064 0.064 0.128 0.128 0.192 0.192s0.064 0.192 0.128 0.256c0.32 0.384 0.256 0.704 0 0.96zM15.552 7.744c-4.8 0-8.768 3.904-8.768 8.768s3.904 8.768 8.768 8.768 8.768-3.968 8.768-8.768c0-1.216-0.256-2.304-0.704-3.328l-3.136 3.136c0 0.064 0 0.128 0 0.192 0 2.688-2.24 4.928-4.928 4.928s-4.928-2.24-4.928-4.928c0-2.688 2.176-4.928 4.864-4.928l3.2-3.2c-0.896-0.448-1.984-0.64-3.136-0.64zM29.376 11.968c-0.448 0.448-1.024 0.704-1.664 0.704h-1.792c0.448 1.216 0.704 2.496 0.704 3.84 0 6.080-4.992 11.072-11.072 11.072s-11.072-4.992-11.072-11.072 4.992-11.072 11.072-11.072c1.28 0 2.56 0.256 3.712 0.64v-1.856c0-0.64 0.256-1.216 0.704-1.664l0.704-0.704c-1.6-0.576-3.328-0.896-5.12-0.896-8.512 0.064-15.488 6.976-15.488 15.552s6.976 15.488 15.488 15.488 15.488-6.976 15.488-15.488c0-1.856-0.32-3.648-0.96-5.312l-0.704 0.768z"></path>
</svg>
