<!-- Generated by IcoMoon.io -->
<svg version="1.1" xmlns="http://www.w3.org/2000/svg" width="32" height="32" viewBox="0 0 32 32">
<title>temperature</title>
<path d="M20.16 2.752c-0.256-0.512-0.576-1.024-0.96-1.408s-0.896-0.704-1.408-0.96c-0.576-0.256-1.216-0.384-1.792-0.384s-1.216 0.128-1.728 0.384c-0.512 0.256-1.024 0.576-1.408 0.96s-0.704 0.896-0.96 1.408c-0.256 0.512-0.384 1.152-0.384 1.728v15.168c-0.64 0.576-1.216 1.216-1.664 1.984-0.576 1.024-0.896 2.176-0.896 3.392 0 0.96 0.192 1.856 0.576 2.752 0.384 0.832 0.832 1.6 1.472 2.24s1.408 1.152 2.24 1.472c0.832 0.384 1.792 0.576 2.752 0.576s1.856-0.192 2.752-0.576c0.832-0.384 1.6-0.832 2.24-1.472s1.152-1.408 1.472-2.24c0.384-0.832 0.576-1.792 0.576-2.752 0-1.152-0.32-2.368-0.896-3.392-0.448-0.768-0.96-1.408-1.664-1.984v-15.168c0-0.576-0.128-1.216-0.32-1.728zM21.504 25.024c0 3.072-2.496 5.504-5.504 5.504s-5.504-2.496-5.504-5.504c0-1.92 1.024-3.648 2.496-4.608v-15.936c0-1.664 1.344-3.008 3.008-3.008v0c1.664 0 3.008 1.344 3.008 3.008v0.192h-2.624c-0.384 0-0.768 0.32-0.768 0.768s0.32 0.768 0.768 0.768h2.624v1.472h-2.624c-0.384 0-0.768 0.32-0.768 0.768 0 0.384 0.32 0.768 0.768 0.768h2.624v1.472h-2.624c-0.384 0-0.768 0.32-0.768 0.768 0 0.384 0.32 0.768 0.768 0.768h2.624v8.32c1.536 0.832 2.496 2.496 2.496 4.48z"></path>
<path d="M18.368 21.376l-0.512-0.32v-5.952c0-1.024-0.832-1.856-1.856-1.856s-1.856 0.832-1.856 1.856v5.952l-0.512 0.32c-1.216 0.832-1.984 2.176-1.984 3.648 0 1.152 0.448 2.24 1.28 3.072s1.92 1.28 3.072 1.28c1.152 0 2.24-0.448 3.072-1.28s1.28-1.92 1.28-3.072c0-1.472-0.704-2.88-1.984-3.648z"></path>
</svg>
