<!-- Generated by IcoMoon.io -->
<svg version="1.1" xmlns="http://www.w3.org/2000/svg" width="32" height="32" viewBox="0 0 32 32">
<title>translate</title>
<path d="M28.8 4.8h-14.592l-1.408-4.8h-9.6c-1.792 0-3.2 1.408-3.2 3.2v20.8c0 1.792 1.408 3.2 3.2 3.2h11.2l1.6 4.8h12.8c1.792 0 3.2-1.408 3.2-3.2v-20.8c0-1.792-1.408-3.2-3.2-3.2zM8.256 20.16c-3.584 0-6.528-2.944-6.528-6.528s2.944-6.592 6.528-6.592c1.664 0 3.2 0.576 4.352 1.728l0.128 0.128-1.984 1.856-0.128-0.064c-0.448-0.448-1.216-0.96-2.432-0.96-2.112 0-3.776 1.728-3.776 3.904s1.728 3.904 3.776 3.904c2.176 0 3.136-1.408 3.392-2.368h-3.52v-2.496h6.336v0.128c0.064 0.32 0.064 0.64 0.064 0.96 0.064 3.776-2.496 6.4-6.208 6.4zM17.088 14.528h6.4c0 0-0.512 2.112-2.496 4.352-0.832-0.96-1.472-1.92-1.792-2.688h-1.6l-0.512-1.664zM19.84 20.16l-0.832 0.832-1.088-3.584c0.512 0.96 1.152 1.856 1.92 2.752zM30.4 28.8c0 0.896-0.704 1.6-1.6 1.6h-11.2l3.2-3.2-1.28-4.416 1.472-1.472 4.288 4.288 1.152-1.152-4.352-4.288c1.408-1.664 2.56-3.584 3.072-5.632h2.048v-1.664h-5.824v-1.664h-1.664v1.664h-3.136l-1.92-6.464h14.144c0.896 0 1.6 0.704 1.6 1.6v20.8z"></path>
</svg>
