<?xml version="1.0" encoding="utf-8"?>
<!-- Generator: Adobe Illustrator 19.2.1, SVG Export Plug-In . SVG Version: 6.00 Build 0)  -->
<svg version="1.1" id="Icons" xmlns="http://www.w3.org/2000/svg" xmlns:xlink="http://www.w3.org/1999/xlink" x="0px" y="0px"
	 viewBox="0 0 50 50" style="enable-background:new 0 0 50 50;" xml:space="preserve">
<style type="text/css">
	.st0{fill:none;}
	.st1{fill:#030104;}
</style>
<g>
	<g>
		<path d="M50,38.8l-0.3-1.5l-7-32.9l-0.4-1.7l-1.7,0.4l-2.2,0.5c-0.4-1-1-1.8-1.8-2.5c-0.8-0.6-1.8-0.6-2.5,0
			c-0.9,0.8-1,2.2-0.9,3.4c0,0.1,0,0.2,0,0.3l-1.4,0.4c0-0.1-0.1-0.2-0.2-0.3c-0.4-0.8-0.9-1.6-1.6-2.1c-0.8-0.6-1.8-0.6-2.5,0
			c-0.8,0.7-1,2.1-0.9,3.2c0,0.1,0,0.3,0,0.4c0,0,0,0,0,0.1L25,6.9c0,0,0-0.1,0-0.1c-0.1-0.1-0.1-0.3-0.2-0.4
			c-0.4-0.8-0.9-1.4-1.6-1.9c-0.8-0.6-1.8-0.6-2.5,0c-0.8,0.7-0.9,1.9-1,3c0,0.1,0,0.3,0,0.4c0,0.1,0,0.2,0,0.2l-1.5,0.4
			c0-0.1-0.1-0.2-0.1-0.3c-0.1-0.1-0.1-0.3-0.2-0.4c-0.4-0.7-0.8-1.3-1.5-1.7c-0.8-0.6-1.8-0.6-2.5,0C13.2,6.9,13,8,13,9
			c0,0.1,0,0.3,0,0.4c0,0.1,0,0.3,0,0.4L12.6,10l-1.1,0.2c-0.1-0.1-0.1-0.3-0.2-0.4c-0.1-0.1-0.1-0.3-0.2-0.4
			c-0.4-0.6-0.8-1.1-1.4-1.6C9,7.3,8,7.2,7.2,7.9c-0.7,0.6-0.9,1.6-0.9,2.6c0,0.1,0,0.3,0,0.4c0,0.1,0,0.3,0,0.4L3,12.1L0,42.6
			l10.5-3.1l0.1,0.4l0.1,0.4l0.1,0.6l-8.5,2.7L0,44.4l2.2,0.9l10.1,4l0.2,0.1l0,0l0,0l0.1,0l0.3-0.1l20.5-5.7l0.8-0.2l0,0l14.3-4
			L50,38.8z M35.2,2.4c0.1-0.1,0.1-0.1,0.1-0.1c0.2,0,0.4,0.2,0.6,0.4c0.3,0.3,0.5,0.7,0.7,1.1c0,0.1,0.1,0.1,0.1,0.2l-2,0.5
			c0-0.1,0-0.2,0-0.3C34.8,3.5,34.9,2.8,35.2,2.4z M28.5,4.1C28.6,4,28.6,4,28.5,4.1c0.3,0,0.5,0.1,0.7,0.3c0.3,0.3,0.5,0.6,0.6,0.9
			c0.1,0.1,0.1,0.2,0.2,0.4l-1,0.3l-0.8,0.2c0,0,0,0,0,0c0-0.1-0.1-0.3-0.1-0.4C28.2,5.1,28.2,4.5,28.5,4.1z M21.4,7.2
			c0-0.5,0.1-1.1,0.4-1.4c0.1-0.1,0.1-0.1,0.1-0.1c0.2,0,0.4,0.2,0.6,0.4c0.2,0.2,0.4,0.4,0.5,0.7c0.1,0.1,0.2,0.3,0.2,0.4
			c0,0,0.1,0.1,0.1,0.1l-2,0.5c0-0.1,0-0.1,0-0.2C21.4,7.5,21.4,7.3,21.4,7.2z M15.1,7.5c0.1-0.1,0.1-0.1,0.1-0.1
			c0.2,0,0.4,0.2,0.6,0.4c0.2,0.2,0.3,0.3,0.4,0.5c0.1,0.1,0.2,0.3,0.2,0.4c0.1,0.1,0.1,0.2,0.2,0.3c0,0,0,0,0,0l-1.8,0.4
			c0-0.1-0.1-0.2-0.1-0.4c0-0.1,0-0.3,0-0.4C14.8,8.2,14.8,7.7,15.1,7.5z M7.9,10.6c0-0.1,0-0.3,0-0.4c0.1-0.4,0.2-0.7,0.4-1
			c0.1-0.1,0.1-0.1,0.1-0.1c0.2,0,0.4,0.2,0.6,0.4c0.1,0.1,0.2,0.2,0.3,0.3c0.1,0.1,0.2,0.2,0.3,0.4c0.1,0.1,0.2,0.3,0.2,0.4L7.9,11
			C7.9,10.8,7.9,10.7,7.9,10.6z M33.8,41.6l-0.4,0.1L33,41.9l-19.1,5.3l-1.2-5.9l-0.1-0.4l-0.1-0.4l-0.1-0.6l-0.1-0.4l-0.1-0.4
			L6.7,13.2l3.7-0.9c0.1,0.9,0.1,1.9-0.1,2.8c-0.2,1.1,1.4,1.5,1.6,0.4c0.3-1.1,0.3-2.4,0.1-3.6l5.1-1.3c0.1,0.9,0.1,1.9-0.1,2.8
			c-0.2,1.1,1.4,1.5,1.6,0.4c0.3-1.1,0.3-2.4,0.1-3.6l5.1-1.3c0.1,0.9,0.1,1.9-0.1,2.7c-0.2,1.1,1.4,1.5,1.6,0.4
			c0.3-1.1,0.3-2.4,0.1-3.6l5.1-1.3c0.1,0.9,0.1,1.9-0.1,2.7c-0.2,1.1,1.4,1.5,1.6,0.4c0.3-1.1,0.3-2.3,0.1-3.5l4.3-1.1l0.4-0.1
			l0.4-0.1c0,0.1,0,0.2,0,0.3c0.1,0.8,0,1.7-0.1,2.4c-0.2,1.1,1.4,1.5,1.6,0.4C39,7.7,39,6.4,38.8,5.2L41,4.7l7,32.9L33.8,41.6z
			 M19,32.3l-5.1,1.2l-1.2-5.1l5.1-1.2L19,32.3z M20.1,32l-1.2-5.1l5.1-1.2l1.2,5.1L20.1,32z M25.1,25.3l5.1-1.2l1.2,5.1l-5.1,1.2
			L25.1,25.3z M36.4,22.6l1.2,5.1l-2.3,0.5l-0.4,0.1l-0.4,0.1l-2,0.5l-1.2-5.1l3.7-0.9l0.4-0.1l0.4-0.1L36.4,22.6z M37.5,22.2
			l5.1-1.2l1.2,5.1l-5.1,1.2L37.5,22.2z M24.7,24.3l-1.2-5.1l5.1-1.2l1.2,5.1L24.7,24.3z M30.9,22.7l-1.2-5.1l5.1-1.2l0.5,2.2
			l0.3,1.3l0.3,1.3l0.1,0.3l-0.1,0l-0.4,0.1l-0.4,0.1L30.9,22.7z M41,14.8l1.2,5.1l-5.1,1.2l-0.9-3.5l-0.3-1.3L35.9,16l0.1,0
			l0.4-0.1L41,14.8z M20.6,38.3l0.1,0.3l-3.6,0.9l-1.6,0.4l-0.1-0.3L15.3,39l-0.1-0.4l-0.1-0.4l-0.8-3.5l5.1-1.2l0.8,3.3l0.1,0.4
			l0.1,0.4l0.1,0.4L20.6,38.3z M26.8,36.8l0.1,0.2l-3.2,0.8l-1.9,0.5l-0.1-0.3l-0.1-0.4l-0.1-0.3l-0.1-0.4l-0.1-0.4l-0.8-3.3
			l5.1-1.2l0.7,3l0.1,0.4l0.1,0.4l0.1,0.2l0.1,0.4L26.8,36.8z M32.7,33.9l0.4,1.5l-0.9,0.2l-0.4,0.1l-0.4,0.1l-3.4,0.8l-0.1-0.2
			L27.8,36l-0.1-0.4l-0.1-0.2L27.5,35l-0.1-0.4l-0.7-3l5.1-1.2l0.7,2.8l0.1,0.4L32.7,33.9z"/>
	</g>
</g>
</svg>
