<?xml version="1.0" encoding="utf-8"?>
<!-- Generator: Adobe Illustrator 19.2.1, SVG Export Plug-In . SVG Version: 6.00 Build 0)  -->
<svg version="1.1" id="Icons" xmlns="http://www.w3.org/2000/svg" xmlns:xlink="http://www.w3.org/1999/xlink" x="0px" y="0px"
	 viewBox="0 0 50 50" style="enable-background:new 0 0 50 50;" xml:space="preserve">
<style type="text/css">
	.st0{fill:none;}
	.st1{fill:#030104;}
</style>
<g>
	<g>
		<g>
			<g>
				<path d="M49,5.1h-5.6V1c0-0.6-0.5-1-1-1h-6.1c-0.6,0-1,0.5-1,1v4.1h-6.1V1c0-0.6-0.5-1-1-1h-6.1c-0.6,0-1,0.5-1,1v4.1h-6.1V1
					c0-0.6-0.5-1-1-1H7.7c-0.6,0-1,0.5-1,1v4.1H1c-0.6,0-1,0.5-1,1v9.7h50V6.1C50,5.6,49.5,5.1,49,5.1z M12.8,8.2H8.7V2h4.1V8.2z
					 M27,8.2H23V2H27V8.2z M41.3,8.2h-4.1V2h4.1V8.2z"/>
				<path d="M0,49c0,0.6,0.5,1,1,1h48c0.6,0,1-0.5,1-1V18.1H0V49z M37,21.8c0-0.4,0.3-0.8,0.8-0.8h5.1c0.4,0,0.8,0.3,0.8,0.8v5.1
					c0,0.4-0.3,0.8-0.8,0.8h-5.1c-0.4,0-0.8-0.3-0.8-0.8V21.8z M37,31c0-0.4,0.3-0.8,0.8-0.8h5.1c0.4,0,0.8,0.3,0.8,0.8v5.1
					c0,0.4-0.3,0.8-0.8,0.8h-5.1c-0.4,0-0.8-0.3-0.8-0.8V31z M37,40.2c0-0.4,0.3-0.8,0.8-0.8h5.1c0.4,0,0.8,0.3,0.8,0.8v5.1
					c0,0.4-0.3,0.8-0.8,0.8h-5.1c-0.4,0-0.8-0.3-0.8-0.8V40.2z M26.8,21.8c0-0.4,0.3-0.8,0.8-0.8h5.1c0.4,0,0.8,0.3,0.8,0.8v5.1
					c0,0.4-0.3,0.8-0.8,0.8h-5.1c-0.4,0-0.8-0.3-0.8-0.8V21.8z M26.8,31c0-0.4,0.3-0.8,0.8-0.8h5.1c0.4,0,0.8,0.3,0.8,0.8v5.1
					c0,0.4-0.3,0.8-0.8,0.8h-5.1c-0.4,0-0.8-0.3-0.8-0.8V31z M26.8,40.2c0-0.4,0.3-0.8,0.8-0.8h5.1c0.4,0,0.8,0.3,0.8,0.8v5.1
					c0,0.4-0.3,0.8-0.8,0.8h-5.1c-0.4,0-0.8-0.3-0.8-0.8V40.2z M16.6,21.8c0-0.4,0.3-0.8,0.8-0.8h5.1c0.4,0,0.8,0.3,0.8,0.8v5.1
					c0,0.4-0.3,0.8-0.8,0.8h-5.1c-0.4,0-0.8-0.3-0.8-0.8V21.8z M16.6,31c0-0.4,0.3-0.8,0.8-0.8h5.1c0.4,0,0.8,0.3,0.8,0.8v5.1
					c0,0.4-0.3,0.8-0.8,0.8h-5.1c-0.4,0-0.8-0.3-0.8-0.8V31z M16.6,40.2c0-0.4,0.3-0.8,0.8-0.8h5.1c0.4,0,0.8,0.3,0.8,0.8v5.1
					c0,0.4-0.3,0.8-0.8,0.8h-5.1c-0.4,0-0.8-0.3-0.8-0.8V40.2z M6.4,21.8c0-0.4,0.3-0.8,0.8-0.8h5.1c0.4,0,0.8,0.3,0.8,0.8v5.1
					c0,0.4-0.3,0.8-0.8,0.8H7.1c-0.4,0-0.8-0.3-0.8-0.8V21.8z M6.4,31c0-0.4,0.3-0.8,0.8-0.8h5.1c0.4,0,0.8,0.3,0.8,0.8v5.1
					c0,0.4-0.3,0.8-0.8,0.8H7.1c-0.4,0-0.8-0.3-0.8-0.8V31z M6.4,40.2c0-0.4,0.3-0.8,0.8-0.8h5.1c0.4,0,0.8,0.3,0.8,0.8v5.1
					c0,0.4-0.3,0.8-0.8,0.8H7.1c-0.4,0-0.8-0.3-0.8-0.8V40.2z"/>
			</g>
		</g>
	</g>
</g>
</svg>
