<?xml version="1.0" encoding="utf-8"?>
<!-- Generator: Adobe Illustrator 19.2.1, SVG Export Plug-In . SVG Version: 6.00 Build 0)  -->
<svg version="1.1" id="Icons" xmlns="http://www.w3.org/2000/svg" xmlns:xlink="http://www.w3.org/1999/xlink" x="0px" y="0px"
	 viewBox="0 0 50 50" style="enable-background:new 0 0 50 50;" xml:space="preserve">
<style type="text/css">
	.st0{fill:none;}
	.st1{fill:#030104;}
</style>
<g>
	<g>
		<path d="M45.9,32.8c-0.5,0-0.9,0.4-0.9,0.9v1.8c0,0.2-0.2,0.4-0.4,0.4h-1.6c-0.2,0-0.4-0.2-0.4-0.4v-1.8c0-0.5-0.4-0.9-0.9-0.9
			h-3.1c-0.5,0-0.9,0.4-0.9,0.9V36h-1.4l1.3,13.9l0,0.2H50c0-7.2,0-9.5,0-16.3c0-0.5-0.4-0.9-0.9-0.9L45.9,32.8L45.9,32.8z"/>
		<path d="M12.5,33.7c0-0.5-0.4-0.9-0.9-0.9H8.4c-0.5,0-0.9,0.4-0.9,0.9v1.8c0,0.2-0.2,0.4-0.4,0.4H5.4C5.2,36,5,35.8,5,35.5v-1.8
			c0-0.5-0.4-0.9-0.9-0.9H0.9c-0.5,0-0.9,0.4-0.9,0.9c0,6.8,0,9.1,0,16.3h13.1l0-0.2L14.4,36h-1.9L12.5,33.7L12.5,33.7z"/>
		<polygon points="31.9,11.1 31.8,11.1 28.7,11.1 28.7,11.1 28.7,13.6 26.8,13.6 26.8,11.1 23.6,11.1 23.6,13.6 21.7,13.6 
			21.7,11.1 18.6,11.1 18.6,16.9 20.3,19.2 19.7,23.9 22.1,23.9 23.8,23.9 23.8,23.9 26.7,23.9 28.3,23.9 28.3,23.9 30.7,23.9 
			30.2,19.2 31.9,16.9 		"/>
		<g>
			<path d="M35.7,29.7v-3.5c0-0.3-0.3-0.6-0.6-0.6h-1.7c-0.3,0-0.6,0.3-0.6,0.6v1.7h-1.7v-1.7c0-0.3-0.3-0.6-0.6-0.6h-1.7
				c-0.3,0-0.6,0.3-0.6,0.6v1.7h-1.7l0-1.7c0-0.3-0.3-0.6-0.6-0.6h-1.7c-0.2,0-0.3,0.1-0.4,0.2c-0.1,0.1-0.2,0.3-0.2,0.4l0,1.7h-1.7
				v-1.7c0-0.3-0.3-0.6-0.6-0.6h-1.7c-0.3,0-0.6,0.3-0.6,0.6v1.7h-1.7v-1.7c0-0.3-0.3-0.6-0.6-0.6h-1.7c-0.3,0-0.6,0.3-0.6,0.6v3.5
				l1.7,2.2h0L14.8,50h20.9L34,31.9h0L35.7,29.7z"/>
		</g>
		<polygon points="25.2,0 16.6,9.4 33.8,9.4 		"/>
	</g>
</g>
</svg>
