<?xml version="1.0" encoding="utf-8"?>
<!-- Generator: Adobe Illustrator 19.2.1, SVG Export Plug-In . SVG Version: 6.00 Build 0)  -->
<svg version="1.1" id="Icons" xmlns="http://www.w3.org/2000/svg" xmlns:xlink="http://www.w3.org/1999/xlink" x="0px" y="0px"
	 viewBox="0 0 50 50" style="enable-background:new 0 0 50 50;" xml:space="preserve">
<style type="text/css">
	.st0{fill:none;}
	.st1{fill:#030104;}
</style>
<g>
	<g>
		<path d="M25,0C11.2,0,0,11.2,0,25s11.2,25,25,25c6.5,0,12.6-2.5,17.3-7c0.4-0.4,0.4-1,0-1.4c-0.4-0.4-1-0.4-1.4,0
			C36.6,45.7,31,48,25,48C12.3,48,2,37.7,2,25S12.3,2,25,2s23,10.3,23,23c0,2.9-0.5,5.6-1.5,8.3c-0.2,0.5,0.1,1.1,0.6,1.3
			c0.5,0.2,1.1-0.1,1.3-0.6c1.1-2.9,1.7-5.9,1.7-9C50,11.2,38.8,0,25,0z"/>
		<path d="M28.4,27.2c-0.4-0.4-1-0.4-1.4,0c-0.4,0.4-0.4,1,0,1.4l8,7.8c0.2,0.2,0.5,0.3,0.7,0.3c0.3,0,0.5-0.1,0.7-0.3
			c0.4-0.4,0.4-1,0-1.4L28.4,27.2z"/>
		<path d="M21.2,22.7c0.2,0.2,0.5,0.3,0.7,0.3s0.5-0.1,0.7-0.3c0.4-0.4,0.4-1,0-1.4L15,13.6c-0.4-0.4-1-0.4-1.4,0
			c-0.4,0.4-0.4,1,0,1.4L21.2,22.7z"/>
		<path d="M36.4,13.6c-0.4-0.4-1-0.4-1.4,0L13.6,35c-0.4,0.4-0.4,1,0,1.4c0.2,0.2,0.5,0.3,0.7,0.3c0.3,0,0.5-0.1,0.7-0.3L36.4,15
			C36.8,14.6,36.8,14,36.4,13.6z"/>
	</g>
</g>
</svg>
