<?xml version="1.0" encoding="utf-8"?>
<!-- Generator: Adobe Illustrator 19.2.1, SVG Export Plug-In . SVG Version: 6.00 Build 0)  -->
<svg version="1.1" id="Icons" xmlns="http://www.w3.org/2000/svg" xmlns:xlink="http://www.w3.org/1999/xlink" x="0px" y="0px"
	 viewBox="0 0 50 50" style="enable-background:new 0 0 50 50;" xml:space="preserve">
<style type="text/css">
	.st0{fill:none;}
	.st1{fill:#030104;}
</style>
<g>
	<g>
		<g>
			<path d="M25,0C11.2,0,0,11.2,0,25s11.2,25,25,25s25-11.2,25-25C50,11.2,38.8,0,25,0z M26.1,47.8v-4.4c0-0.6-0.5-1.1-1.1-1.1
				s-1.1,0.5-1.1,1.1v4.4c-11.8-0.6-21.2-10-21.7-21.7h4.4c0.6,0,1.1-0.5,1.1-1.1s-0.5-1.1-1.1-1.1H2.2c0.6-11.8,10-21.2,21.7-21.7
				v4.4c0,0.6,0.5,1.1,1.1,1.1s1.1-0.5,1.1-1.1V2.2c11.8,0.6,21.2,10,21.7,21.7h-4.4c-0.6,0-1.1,0.5-1.1,1.1s0.5,1.1,1.1,1.1h0h4.4
				C47.3,37.8,37.8,47.2,26.1,47.8z"/>
		</g>
	</g>
	<g>
		<g>
			<path d="M36.3,35L26.1,24.6V13.7c0-0.6-0.5-1.1-1.1-1.1s-1.1,0.5-1.1,1.1V25c0,0.3,0.1,0.6,0.3,0.8l10.5,10.7
				c0.4,0.4,1.1,0.4,1.5,0S36.7,35.4,36.3,35z"/>
		</g>
	</g>
</g>
</svg>
