<?xml version="1.0" encoding="utf-8"?>
<!-- Generator: Adobe Illustrator 19.2.1, SVG Export Plug-In . SVG Version: 6.00 Build 0)  -->
<svg version="1.1" id="Icons" xmlns="http://www.w3.org/2000/svg" xmlns:xlink="http://www.w3.org/1999/xlink" x="0px" y="0px"
	 viewBox="0 0 50 50" style="enable-background:new 0 0 50 50;" xml:space="preserve">
<style type="text/css">
	.st0{fill:none;}
	.st1{fill:#030104;}
</style>
<g>
	<g>
		<g>
			<path d="M25.1,20.5c-2.4,0-4.4,2-4.4,4.4s2,4.4,4.4,4.4s4.4-2,4.4-4.4S27.5,20.5,25.1,20.5z"/>
		</g>
	</g>
	<g>
		<g>
			<path d="M24.9,0C11.2,0,0,11.2,0,24.9S11.2,50,24.9,50S50,38.6,50,24.9S38.6,0,24.9,0z M35.4,32.2c-2,0-3.7-1-4.8-2.5
				c-1.3,1.5-3.3,2.5-5.5,2.5c-4,0-7.3-3.3-7.3-7.3s3.3-7.3,7.3-7.3c1.7,0,3.2,0.6,4.4,1.5v0c0-0.8,0.7-1.5,1.5-1.5
				c0.8,0,1.5,0.7,1.5,1.5c0,3.3,0,4.1,0,7.3c0,1.6,1.3,2.9,2.9,2.9s2.9-1.3,2.9-2.9c0-9.8-6.5-14.6-13.2-14.6
				c-7.3,0-13.2,5.9-13.2,13.2s5.9,13.2,13.2,13.2c2.9,0,5.7-0.9,8-2.7c1.5-1.2,3.3,1.1,1.8,2.3c-2.8,2.2-6.2,3.3-9.8,3.3
				C16.2,41,9,33.8,9,24.9S16.2,8.8,25.1,8.8c8.1,0,16.1,6,16.1,17.6C41.2,29.6,38.6,32.2,35.4,32.2z"/>
		</g>
	</g>
</g>
</svg>
