<?xml version="1.0" encoding="utf-8"?>
<!-- Generator: Adobe Illustrator 19.2.1, SVG Export Plug-In . SVG Version: 6.00 Build 0)  -->
<svg version="1.1" id="Icons" xmlns="http://www.w3.org/2000/svg" xmlns:xlink="http://www.w3.org/1999/xlink" x="0px" y="0px"
	 viewBox="0 0 50 50" style="enable-background:new 0 0 50 50;" xml:space="preserve">
<style type="text/css">
	.st0{fill:none;}
	.st1{fill:#030104;}
</style>
<g>
	<path d="M24.9,0C11.2,0,0,11.2,0,24.9S11.2,50,24.9,50S50,38.6,50,24.9S38.6,0,24.9,0z M39.6,36.1c-0.7,0.8-1.8,2.2-2.3,2.7
		c-0.9,0.9-2,1.3-3.9,1.3c-2.1,0-10.1-3.9-14.7-8.7C13.9,26.7,10,18.8,10,16.6c0-1.8,0.4-3,1.3-3.9c0.4-0.4,1.7-1.5,2.7-2.3
		c0.4-0.3,0.9-0.5,1.4-0.4c0.5,0.1,0.9,0.3,1.2,0.7l4.5,5.8c0.8,1,0.8,2.3,0.2,3.4l-0.6,1.1c-0.4,0.6-0.3,1.4,0.1,2
		c0.6,0.8,1.7,2.1,2.9,3.3c1.2,1.2,2.5,2.3,3.4,2.9c0.6,0.5,1.4,0.5,2,0.1l1.1-0.6c1.1-0.6,2.4-0.5,3.4,0.2l5.8,4.5
		c0.4,0.3,0.6,0.7,0.7,1.2C40,35.2,39.9,35.7,39.6,36.1z"/>
	<path d="M32.8,29.9c-0.6-0.5-1.2-0.5-1.9-0.1L30,30.4c0,0,0,0,0,0c-1,0.6-2.6,0.5-3.5-0.2c-0.9-0.7-2.3-1.8-3.6-3
		c-1.3-1.3-2.4-2.6-3-3.4c-0.8-1-0.9-2.3-0.2-3.4l0.6-1.1c0.4-0.7,0.3-1.5-0.1-2l-4.5-5.8c-0.1-0.1-0.3-0.2-0.4-0.2c0,0,0,0-0.1,0
		c-0.1,0-0.3,0-0.4,0.1c-1.4,1.1-2.3,1.9-2.6,2.2c-0.5,0.5-0.9,1.2-0.9,3c0,1.6,3.7,9.4,8.3,13.8c4.5,4.7,12.2,8.4,13.8,8.4
		c1.9,0,2.6-0.4,3-0.9c0.3-0.3,1.1-1.3,2.2-2.6c0.1-0.1,0.2-0.3,0.1-0.5c0-0.2-0.1-0.3-0.2-0.4L32.8,29.9z"/>
</g>
</svg>
