<?xml version="1.0" encoding="utf-8"?>
<!-- Generator: Adobe Illustrator 19.2.1, SVG Export Plug-In . SVG Version: 6.00 Build 0)  -->
<svg version="1.1" id="Icons" xmlns="http://www.w3.org/2000/svg" xmlns:xlink="http://www.w3.org/1999/xlink" x="0px" y="0px"
	 viewBox="0 0 50 50" style="enable-background:new 0 0 50 50;" xml:space="preserve">
<style type="text/css">
	.st0{fill:none;}
	.st1{fill:#030104;}
</style>
<g>
	<rect x="17" y="16" width="16" height="18"/>
	<path d="M31,11H19c-1,0-2,1-2,2v2h16v-2C33,12,32,11,31,11z M26.2,14h-2.4c-0.3,0-0.6-0.7-0.6-1s0.3-1,0.6-1h2.4
		c0.3,0,0.6,0.7,0.6,1S26.5,14,26.2,14z"/>
	<path d="M17,37c0,1,1,2,2,2h12c1,0,2-1,2-2v-2H17V37z M25,36.4c0.3,0,0.6,0.3,0.6,0.6s-0.3,0.6-0.6,0.6s-0.6-0.3-0.6-0.6
		S24.7,36.4,25,36.4z"/>
	<path d="M24.9,0C11.2,0,0,11.2,0,24.9S11.2,50,24.9,50S50,38.6,50,24.9S38.6,0,24.9,0z M34,37c0,1.7-1.3,3-3,3H19c-1.7,0-3-1.3-3-3
		V13c0-1.7,1.3-3,3-3h12c1.7,0,3,1.3,3,3V37z"/>
</g>
</svg>
