<?xml version="1.0" encoding="utf-8"?>
<!-- Generator: Adobe Illustrator 19.2.1, SVG Export Plug-In . SVG Version: 6.00 Build 0)  -->
<svg version="1.1" id="Icons" xmlns="http://www.w3.org/2000/svg" xmlns:xlink="http://www.w3.org/1999/xlink" x="0px" y="0px"
	 viewBox="0 0 50 50" style="enable-background:new 0 0 50 50;" xml:space="preserve">
<style type="text/css">
	.st0{fill:none;}
	.st1{fill:#030104;}
</style>
<g>
	<g>
		<g>
			<g>
				<path d="M41.7,10.4c-4.6,0-8.3,3.7-8.3,8.3c0,3.1,3.6,8.7,5.8,11.9c-0.1,0.1-0.3,0.2-0.3,0.4c-0.2,0.5,0,1.1,0.4,1.3
					c-0.5,0.3-0.6,0.9-0.4,1.4c0.2,0.4,0.6,0.6,0.9,0.6c0.2,0,0.3,0,0.5-0.1l1.9-0.9l0,0l0,0l0,0c0.1-0.1,0.3-0.2,0.4-0.3
					c0.8-1,7.5-9.9,7.5-14.2C50,14.2,46.3,10.4,41.7,10.4z M41.7,20.8c-1.1,0-2.1-0.9-2.1-2.1s0.9-2.1,2.1-2.1s2.1,0.9,2.1,2.1
					S42.8,20.8,41.7,20.8z"/>
				<path d="M10.9,47.2c2.2-3.2,5.8-8.7,5.8-11.8c0-4.6-3.7-8.3-8.3-8.3c-4.6,0-8.3,3.7-8.3,8.3c0,4.3,6.7,13.2,7.5,14.2
					C7.7,49.8,8,50,8.3,50c0.2,0,0.3,0,0.5-0.1l0,0l1.9-0.9c0.5-0.3,0.7-0.9,0.5-1.4C11.1,47.4,11,47.3,10.9,47.2z M8.3,37.5
					c-1.1,0-2.1-0.9-2.1-2.1s0.9-2.1,2.1-2.1s2.1,0.9,2.1,2.1S9.5,37.5,8.3,37.5z"/>
				<path d="M22.9,40.5l-3.3,1.6c-0.5,0.3-0.7,0.9-0.5,1.4c0.2,0.4,0.6,0.6,0.9,0.6c0.2,0,0.3,0,0.5-0.1l3.3-1.6
					c0.5-0.3,0.7-0.9,0.5-1.4C24,40.5,23.4,40.3,22.9,40.5z"/>
				<path d="M36,33.9l-3.3,1.6c-0.5,0.3-0.7,0.9-0.5,1.4c0.2,0.4,0.6,0.6,0.9,0.6c0.2,0,0.3,0,0.5-0.1l3.3-1.6
					c0.5-0.3,0.7-0.9,0.5-1.4C37.2,33.9,36.6,33.7,36,33.9z"/>
				<path d="M16.3,43.8L13,45.4c-0.5,0.3-0.7,0.9-0.5,1.4c0.2,0.4,0.6,0.6,0.9,0.6c0.2,0,0.3,0,0.5-0.1l3.3-1.6
					c0.5-0.3,0.7-0.9,0.5-1.4C17.5,43.8,16.8,43.6,16.3,43.8z"/>
				<path d="M29.5,37.2l-3.3,1.6c-0.5,0.3-0.7,0.9-0.5,1.4c0.2,0.4,0.6,0.6,0.9,0.6c0.2,0,0.3,0,0.5-0.1l3.3-1.6
					c0.5-0.3,0.7-0.9,0.5-1.4C30.6,37.2,30,37,29.5,37.2z"/>
				<path d="M35.9,30.7c0.4,0,0.8-0.2,0.9-0.6c0.2-0.5,0-1.1-0.5-1.4L32.6,27c-0.5-0.2-1.1,0-1.4,0.5c-0.2,0.5,0,1.1,0.5,1.4
					l3.8,1.7C35.7,30.7,35.8,30.7,35.9,30.7z"/>
				<path d="M23.5,24c-0.2,0.5,0,1.1,0.5,1.4l3.8,1.7c0.1,0.1,0.3,0.1,0.4,0.1c0.4,0,0.8-0.2,0.9-0.6c0.2-0.5,0-1.1-0.5-1.4
					l-3.8-1.7C24.4,23.3,23.8,23.5,23.5,24z"/>
				<path d="M20.6,23.8c0.4,0,0.8-0.2,0.9-0.6c0.2-0.5,0-1.1-0.5-1.4l-0.7-0.3c2-2.7,6.7-9.5,6.7-13.1c0-4.6-3.7-8.3-8.3-8.3
					s-8.3,3.7-8.3,8.3c0,4.3,6.7,13.2,7.5,14.2c0.1,0.1,0.2,0.2,0.4,0.3c0,0,0,0,0,0l1.9,0.9C20.4,23.7,20.5,23.8,20.6,23.8z
					 M16.7,8.3c0-1.1,0.9-2.1,2.1-2.1s2.1,0.9,2.1,2.1s-0.9,2.1-2.1,2.1S16.7,9.5,16.7,8.3z"/>
			</g>
		</g>
	</g>
</g>
</svg>
