<?xml version="1.0" encoding="utf-8"?>
<!-- Generator: Adobe Illustrator 19.2.1, SVG Export Plug-In . SVG Version: 6.00 Build 0)  -->
<svg version="1.1" id="Icons" xmlns="http://www.w3.org/2000/svg" xmlns:xlink="http://www.w3.org/1999/xlink" x="0px" y="0px"
	 viewBox="0 0 50 50" style="enable-background:new 0 0 50 50;" xml:space="preserve">
<style type="text/css">
	.st0{fill:none;}
	.st1{fill:#030104;}
</style>
<g>
	<g>
		<g>
			<path d="M28.5,28.6c0.1-0.4,0.1-0.9,0.1-1.4c0-0.4,0-0.9,0-1.3c0-1,0-1.9-0.1-2.9c-0.1-1.8-0.2-3.6-0.4-5.4
				c-0.1-0.8-0.2-1.6-0.3-2.4l0,0c2.1-1.3,4-3,5.4-5c0.6-0.8,1-1.7,1.4-2.7c0.3-0.7,0.5-1.5,0.7-2.3c0.2-0.8-0.3-1.6-1.1-1.8
				c-0.8-0.2-1.6,0.2-1.8,1c-0.1,0.4-0.3,0.8-0.5,1.2c-0.3,0.6-0.6,1.2-1,1.7c-0.7,1-1.5,1.8-2.4,2.5c-1.1,0.8-2.2,1.5-3.5,2
				c-1.6,0.5-2.9,0.6-5,0.2c-2.4-0.5-4.9-1.5-6.7-3.2c-0.5-0.5-0.9-1-1.3-1.5c-0.3-0.4-0.5-0.8-0.7-1.2c-0.4-0.7-1.3-0.9-2-0.6
				c-0.7,0.4-1,1.2-0.7,1.9C9,7.9,9.2,8.3,9.4,8.7c0.3,0.6,0.7,1.2,1.1,1.7c0.8,1.1,1.8,2,2.9,2.9c1.3,1,2.8,1.8,4.4,2.4
				c0,0.8,0.1,1.7,0.1,2.5c0.1,1.7,0.1,3.5,0.2,5.2c0,0.9,0.1,1.7,0.1,2.6c0,0.9,0,1.9,0.2,2.8c0.1,0.5,0.2,0.9,0.5,1.4
				c0,2.7-0.2,5.4-0.5,8.1c-0.2,1.4-0.3,2.7-0.6,4.1c-0.2,1.2-0.4,2.4-0.7,3.7c0,0.1,0,0.2,0,0.2c-0.2,1,0.5,1.9,1.4,2.1
				c0.9,0.2,1.9-0.4,2.2-1.3c0.3-1,0.6-2,0.9-3.1c0.4-1.3,0.7-2.6,1-4c0.6-2.4,1-4.8,1.3-7.2c0.2,0,0.5-0.1,0.7-0.1
				c0.8,2.6,1.2,5.4,1.2,8.2c0,1.9-0.2,3.7-0.5,5.6c-0.2,1,0.5,1.9,1.4,2.1c0.9,0.2,1.9-0.4,2.2-1.3c0.3-1,0.5-2,0.7-3.1
				c0.3-1.3,0.4-2.7,0.5-4.1c0.1-1.4,0.1-2.9,0-4.3C29.8,33.4,29.3,31,28.5,28.6z"/>
			<path d="M30,35.9C30,36.3,30,35.8,30,35.9L30,35.9z"/>
			<path d="M19.7,10.3c0.8,0.5,1.8,0.8,2.8,0.8c1.9,0,3.8-1.2,4.6-2.9c0.8-1.8,0.5-4-0.8-5.4C25,1.3,22.9,0.7,21,1.2
				c-1.8,0.6-3.2,2.2-3.5,4.1C17.1,7.2,18,9.2,19.7,10.3z"/>
			<path d="M39.1,20.8c0.2,0,0.5,0.1,0.7,0.1c1,0,1.9-0.4,2.6-1c0.7-0.7,1.1-1.6,1.2-2.5c0-1-0.3-1.9-0.9-2.7
				c-0.6-0.7-1.5-1.2-2.5-1.3c-1-0.1-1.9,0.2-2.7,0.8c-0.7,0.6-1.2,1.5-1.4,2.4c-0.1,1,0.1,2,0.7,2.8C37.3,20.1,38.1,20.6,39.1,20.8
				z"/>
			<path d="M49.2,15.1c-0.6-0.1-1.1,0.2-1.3,0.7c-0.2,0.5-0.3,0.9-0.5,1.3c-0.3,0.6-0.7,1.1-1.1,1.6c-0.9,1-2,1.8-3.2,2.4
				c-0.4,0.2-0.8,0.3-1.1,0.5c-1.3,0.4-2.6,0.4-3.9,0c-0.6-0.2-1.1-0.4-1.7-0.7c-0.6-0.3-1.2-0.7-1.7-1.1c-0.7-0.6-1.3-1.2-1.8-2
				c-0.4-0.6-0.7-1.3-0.9-2c-0.2-0.6-0.8-0.9-1.4-0.7c-0.5,0.2-0.9,0.8-0.8,1.3c0.1,0.5,0.2,1,0.4,1.4c0.2,0.6,0.5,1.2,0.8,1.8
				c0.7,1.2,1.6,2.2,2.6,3.1c0.8,0.6,1.6,1.2,2.5,1.7c0,0.3,0,0.7,0,1c0,0.5,0,1.1,0,1.6c0,1.4,0.1,2.7,0.1,4.1c0,0.9,0,1.9,0.3,2.7
				l-1.3,13.7c-0.1,0.7,0.5,1.4,1.2,1.5c0.7,0.1,1.4-0.4,1.5-1.1l2-10.5l1.4,10.5c0.1,0.7,0.8,1.3,1.5,1.2c0.7-0.1,1.3-0.7,1.2-1.4
				l-0.6-13.7c0.2-0.5,0.3-1,0.3-1.6c0-0.8,0-1.6-0.1-2.4c0-1.3-0.1-2.7-0.1-4c0-0.5,0-1-0.1-1.5c1.2-0.6,2.4-1.5,3.4-2.5
				c0.8-0.8,1.5-1.7,2-2.7c0.5-0.9,0.8-1.8,1-2.8C50.1,15.8,49.7,15.2,49.2,15.1z"/>
			<path d="M47,21.9C46.8,22,47.1,21.8,47,21.9L47,21.9z"/>
			<path d="M7.9,28.7c0,0,0.1,0,0.1,0c1,0,1.9-0.6,2.3-1.5c0.5-0.9,0.4-1.9-0.1-2.8c-0.5-0.8-1.4-1.3-2.4-1.3c-1,0-1.9,0.6-2.4,1.4
				c-0.5,0.9-0.5,1.9,0,2.8C6,28.2,7,28.7,7.9,28.7z"/>
			<path d="M13.8,27.2c-0.6,0.5-1.3,1-2.1,1.4c-6.1,2.6-8.8-1.6-9.6-2.9c-0.2-0.4-0.4-0.8-0.5-1.2c-0.1-0.4-0.6-0.7-1-0.5
				c0.1,0,0.2-0.1,0,0c-0.2,0.1-0.1,0,0,0c-0.4,0.1-0.6,0.6-0.5,1c0,0,0,0.1,0,0.1c0.3,1.2,0.8,2.4,1.6,3.3c0.8,1,1.9,1.8,3.1,2.4
				l-0.2,4.5L3,41.3c0,0.2,0,0.3,0.1,0.4C3.2,41.9,3.3,42,3.5,42h1.1l-0.3,6c0,0.5,0.4,1,0.9,1.1c0.5,0,1-0.4,1.1-0.9L7.2,42h0.5
				l1.2,6.2C8.9,48.7,9.4,49,10,49c0.5-0.1,0.9-0.6,0.9-1.1L10.3,42h1.1c0.2,0,0.3-0.1,0.4-0.2c0.1-0.1,0.1-0.3,0.1-0.4l-1.8-6.2
				l0.1-4c1-0.1,1.9-0.5,2.7-1.1c0.4-0.3,0.8-0.6,1.1-0.9c0.3-0.3,0.5-0.5,0.8-0.8c0.3-0.3,0.3-0.8,0-1.1
				C14.6,26.9,14.1,26.9,13.8,27.2z"/>
		</g>
	</g>
</g>
</svg>
