<?xml version="1.0" encoding="utf-8"?>
<!-- Generator: Adobe Illustrator 19.2.1, SVG Export Plug-In . SVG Version: 6.00 Build 0)  -->
<svg version="1.1" id="Icons" xmlns="http://www.w3.org/2000/svg" xmlns:xlink="http://www.w3.org/1999/xlink" x="0px" y="0px"
	 viewBox="0 0 50 50" style="enable-background:new 0 0 50 50;" xml:space="preserve">
<style type="text/css">
	.st0{fill:none;}
	.st1{fill:#030104;}
</style>
<g>
	<g>
		<g>
			<g>
				<path d="M14.8,6.8c-4.4,0-8,3.6-8,8s3.6,8,8,8s8-3.6,8-8S19.2,6.8,14.8,6.8z M14.8,20.4c-3.1,0-5.7-2.5-5.7-5.7s2.5-5.7,5.7-5.7
					s5.7,2.5,5.7,5.7S17.9,20.4,14.8,20.4z"/>
				<path d="M20.6,46.5L20.6,46.5c-0.7-0.2-1.3-0.5-2-0.9c-0.5-0.4-1.2-0.3-1.6,0.3c-0.4,0.5-0.3,1.2,0.3,1.6c0.1,0,0.1,0.1,0.2,0.1
					c0.7,0.4,1.5,0.8,2.3,1.1c0.1,0,0.3,0.1,0.4,0.1c0.6,0,1.1-0.5,1.1-1.1C21.4,47.1,21.1,46.7,20.6,46.5z"/>
				<path d="M36.5,25C36.6,25,36.6,25,36.5,25c0.6,0.3,1.2,0.1,1.6-0.4c0.4-0.6,0.8-1.2,1.3-1.8c0.4-0.5,0.3-1.2-0.1-1.6
					c-0.5-0.4-1.2-0.3-1.6,0.1c-0.6,0.6-1,1.3-1.5,2.1C35.8,24,36,24.7,36.5,25z"/>
				<path d="M14.9,0c0,0-0.1,0-0.1,0C6.6,0,0,6.6,0,14.8c0,0,0,0.1,0,0.1C0,27,14.8,38.6,14.8,38.6S29.5,27,29.5,14.9
					C29.6,6.7,23,0.1,14.9,0z M14.8,35.6c-2-1.8-3.9-3.7-5.7-5.8c-3.1-3.7-6.8-9.4-6.8-15C2.3,8,7.9,2.4,14.8,2.4S27.3,8,27.3,14.9
					C27.3,23.6,18.3,32.5,14.8,35.6z"/>
				<path d="M27.3,47.7c-0.8,0-1.6-0.1-2.3-0.2c-0.6-0.1-1.2,0.4-1.3,1c0,0,0,0,0,0c-0.1,0.6,0.4,1.2,1,1.3c0,0,0,0,0,0
					c0.8,0.1,1.6,0.2,2.4,0.2h0.1c0.6,0,1.2-0.5,1.2-1.1C28.4,48.3,27.9,47.7,27.3,47.7z"/>
				<path d="M16.1,42.7c-0.1-0.2-0.2-0.5-0.2-0.7c0-0.6-0.5-1.1-1.1-1.1s-1.1,0.5-1.1,1.1c0,0.5,0.1,1,0.3,1.5
					c0.2,0.4,0.6,0.7,1.1,0.7c0.1,0,0.3,0,0.4-0.1C16,44,16.3,43.3,16.1,42.7C16.1,42.7,16.1,42.7,16.1,42.7z"/>
				<path d="M43.2,16.4c-0.6,0.5-1.3,1-1.9,1.5c-0.5,0.4-0.5,1.1-0.1,1.6c0.4,0.4,1,0.5,1.5,0.2c0.6-0.5,1.2-1,1.8-1.4
					c0.5-0.4,0.6-1.1,0.2-1.6C44.3,16.2,43.7,16.1,43.2,16.4z"/>
				<path d="M43.3,39C43.3,39.1,43.3,39.1,43.3,39L43.3,39c-0.6,0.1-1,0.7-0.9,1.4c0,0,0,0,0,0c0.1,0.4,0.1,0.7,0.1,1.1
					c0,0.3,0,0.6-0.1,0.8c-0.1,0.6,0.3,1.2,0.9,1.3h0.2c0.6,0,1-0.4,1.1-0.9c0.1-0.4,0.1-0.8,0.1-1.3c0-0.5-0.1-1-0.2-1.5
					C44.6,39.3,44,38.9,43.3,39z"/>
				<path d="M34.1,47.4L34.1,47.4c-0.7,0.1-1.5,0.2-2.3,0.2c-0.6,0-1.1,0.5-1.1,1.2c0,0.6,0.5,1.1,1.2,1.1H32c0.8,0,1.7-0.1,2.4-0.2
					c0.6-0.1,1.1-0.7,1-1.3C35.3,47.8,34.7,47.3,34.1,47.4z"/>
				<path d="M49.8,13.7L49.8,13.7c-0.3-0.6-0.9-0.8-1.5-0.5c0,0,0,0,0,0c0,0-0.4,0.2-1,0.6c-0.5,0.3-0.7,1-0.4,1.6
					c0.3,0.5,1,0.7,1.6,0.4l1-0.5C49.9,14.9,50.1,14.3,49.8,13.7z"/>
				<path d="M37.7,30.2L37.7,30.2c-0.3-0.5-0.5-1.1-0.6-1.8c-0.1-0.6-0.6-1.1-1.3-1c-0.6,0.1-1.1,0.6-1,1.3c0.1,0.9,0.4,1.8,0.9,2.7
					c0.3,0.5,1,0.7,1.6,0.4C37.8,31.4,38,30.7,37.7,30.2z"/>
				<path d="M42.4,35.4C42.4,35.3,42.3,35.3,42.4,35.4L42.4,35.4c-0.6-0.7-1.1-1.4-1.7-2c-0.4-0.5-1.1-0.5-1.6-0.1
					c-0.5,0.4-0.5,1.1-0.1,1.6c0,0,0.1,0.1,0.1,0.1c0.5,0.5,1,1.1,1.5,1.7c0.4,0.5,1.1,0.6,1.6,0.3C42.6,36.6,42.7,35.9,42.4,35.4z"
					/>
				<path d="M40.3,45.3C40.3,45.3,40.3,45.4,40.3,45.3L40.3,45.3c-0.7,0.5-1.3,0.8-1.9,1.1c-0.6,0.2-0.9,0.9-0.6,1.5
					c0.2,0.6,0.9,0.9,1.5,0.6c0.8-0.3,1.6-0.7,2.3-1.2c0.5-0.3,0.7-1,0.4-1.6C41.6,45.1,40.9,45,40.3,45.3z"/>
			</g>
		</g>
	</g>
</g>
</svg>
