<?xml version="1.0" encoding="utf-8"?>
<!-- Generator: Adobe Illustrator 19.2.1, SVG Export Plug-In . SVG Version: 6.00 Build 0)  -->
<svg version="1.1" id="Icons" xmlns="http://www.w3.org/2000/svg" xmlns:xlink="http://www.w3.org/1999/xlink" x="0px" y="0px"
	 viewBox="0 0 50 50" style="enable-background:new 0 0 50 50;" xml:space="preserve">
<style type="text/css">
	.st0{fill:none;}
	.st1{fill:#030104;}
</style>
<g>
	<g>
		<g>
			<g>
				<path d="M31.5,17c-0.3-0.7-0.8-1.4-1.5-1.9l0,0c-0.6-0.5-1.3-0.9-2.1-1.1c-0.8-0.3-1.7-0.4-2.6-0.4c-1.1,0-2.1,0.2-3.1,0.5
					c-0.9,0.3-1.7,0.9-2.3,1.5c-0.7,0.7-1.2,1.5-1.5,2.4c-0.3,1-0.5,2-0.5,3v0.3h2.5v-0.3c0-0.7,0.1-1.4,0.3-2.1
					c0.2-0.6,0.5-1.2,0.9-1.6c0.4-0.5,0.9-0.9,1.5-1.1c0.7-0.3,1.4-0.4,2.1-0.4c0.6,0,1.1,0.1,1.6,0.3c0.5,0.2,0.9,0.4,1.3,0.8
					c0.4,0.3,0.7,0.7,0.9,1.2c0.2,0.5,0.4,1,0.4,1.6c0,0.7-0.2,1.4-0.6,2c-0.4,0.6-0.8,1.2-1.4,1.7c-0.7,0.6-1.2,1.1-1.7,1.6
					c-0.4,0.5-0.8,1-1.1,1.5c-0.3,0.6-0.5,1.2-0.6,1.8c-0.2,0.8-0.2,1.7-0.2,2.5V31h2.5v-0.3c0-0.9,0.1-1.6,0.1-2.1
					c0-0.4,0.2-0.8,0.3-1.1c0.2-0.4,0.5-0.7,0.8-1c0.4-0.4,0.9-0.9,1.6-1.5c0.8-0.7,1.4-1.5,2-2.3c0.6-0.9,0.8-2,0.8-3
					C32.1,18.7,31.9,17.8,31.5,17z"/>
				<rect x="23.6" y="32.6" width="3.2" height="3.8"/>
				<path d="M25,0C11.2,0,0,11.2,0,25s11.2,25,25,25s25-11.2,25-25S38.8,0,25,0z M25,47.7C12.4,47.7,2.3,37.6,2.3,25
					S12.4,2.3,25,2.3S47.7,12.4,47.7,25S37.6,47.7,25,47.7z"/>
			</g>
		</g>
	</g>
</g>
</svg>
