<?xml version="1.0" encoding="utf-8"?>
<!-- Generator: Adobe Illustrator 19.2.1, SVG Export Plug-In . SVG Version: 6.00 Build 0)  -->
<svg version="1.1" id="Icons" xmlns="http://www.w3.org/2000/svg" xmlns:xlink="http://www.w3.org/1999/xlink" x="0px" y="0px"
	 viewBox="0 0 50 50" style="enable-background:new 0 0 50 50;" xml:space="preserve">
<style type="text/css">
	.st0{fill:none;}
	.st1{fill:#030104;}
</style>
<g>
	<g>
		<g>
			<g>
				<path d="M28.3,35.2c-0.5,0-1-0.1-1.5-0.3c-0.3-0.3-0.5-0.8-0.4-1.2c0-0.4,0.1-0.8,0.1-1.1c0.1-0.4,0.2-0.9,0.3-1.3l1.3-4.6
					c0.1-0.5,0.2-0.9,0.3-1.4c0-0.5,0.1-0.9,0.1-1.1c0-0.9-0.4-1.8-1.1-2.4c-0.9-0.7-1.9-1-3-0.9c-0.8,0-1.5,0.1-2.3,0.4
					c-0.8,0.2-1.6,0.5-2.5,0.9l-0.4,1.5c0.3-0.1,0.6-0.2,0.9-0.3c0.3-0.1,0.7-0.2,1.1-0.2c0.5-0.1,1,0.1,1.4,0.4
					c0.3,0.3,0.4,0.8,0.4,1.2c0,0.4,0,0.8-0.1,1.1c-0.1,0.4-0.2,0.8-0.3,1.3l-1.4,4.6c-0.1,0.4-0.2,0.9-0.3,1.3
					C21,33.5,21,33.9,21,34.2c0,0.9,0.4,1.8,1.1,2.4c0.9,0.7,2,1,3,0.9c0.8,0,1.5-0.1,2.3-0.3c0.6-0.2,1.5-0.5,2.6-0.9l0.4-1.4
					c-0.3,0.1-0.6,0.2-0.9,0.3C29.1,35.2,28.7,35.2,28.3,35.2z"/>
				<path d="M29.8,13.4c-0.6-0.6-1.4-0.9-2.3-0.9c-0.8,0-1.7,0.3-2.3,0.9c-1.1,1-1.3,2.7-0.3,3.8c0.1,0.1,0.2,0.2,0.3,0.3
					c1.3,1.2,3.3,1.2,4.5,0c1.1-1,1.3-2.7,0.3-3.8C29.9,13.5,29.9,13.4,29.8,13.4z"/>
				<path d="M25,0C11.2,0,0,11.2,0,25s11.2,25,25,25s25-11.2,25-25S38.8,0,25,0z M25,47.7C12.4,47.7,2.3,37.6,2.3,25
					S12.4,2.3,25,2.3S47.7,12.4,47.7,25S37.6,47.7,25,47.7z"/>
			</g>
		</g>
	</g>
</g>
</svg>
