<?xml version="1.0" encoding="utf-8"?>
<!-- Generator: Adobe Illustrator 25.0.0, SVG Export Plug-In . SVG Version: 6.00 Build 0)  -->
<svg version="1.1" id="Icons" xmlns="http://www.w3.org/2000/svg" xmlns:xlink="http://www.w3.org/1999/xlink" x="0px" y="0px"
	 viewBox="0 0 50 50" style="enable-background:new 0 0 50 50;" xml:space="preserve">
<style type="text/css">
	.st0{fill:none;}
	.st1{fill:#030104;}
	.st2{opacity:0.5;}
</style>
<g>
	<circle cx="25" cy="25" r="6.7"/>
	<path d="M9.4,36.8c0.4,0.9,0.8,1.6,1.5,2.3c0.7,0.7,1.4,1.1,2.3,1.5c0.7,0.3,1.8,0.6,3.7,0.7c2.1,0.1,2.7,0.1,8.1,0.1s6,0,8.1-0.1
		c1.9-0.1,3-0.4,3.7-0.7c0.9-0.4,1.6-0.8,2.3-1.5s1.1-1.4,1.5-2.3c0.3-0.7,0.6-1.8,0.7-3.7c0.1-2.1,0.1-2.7,0.1-8.1
		c0-5.3,0-6-0.1-8.1c-0.1-1.9-0.4-3-0.7-3.7c-0.4-0.9-0.8-1.6-1.5-2.3s-1.4-1.1-2.3-1.5c-0.7-0.3-1.8-0.6-3.7-0.7
		C31,8.6,30.3,8.6,25,8.6c-5.3,0-6,0-8.1,0.1c-1.9,0.1-3,0.4-3.7,0.7c-0.9,0.4-1.6,0.8-2.3,1.5c-0.7,0.7-1.1,1.4-1.5,2.3
		c-0.3,0.7-0.6,1.8-0.7,3.7C8.6,19,8.6,19.7,8.6,25c0,5.3,0,6,0.1,8.1C8.8,35,9.1,36.1,9.4,36.8z M35.6,11.9c1.3,0,2.4,1.1,2.4,2.4
		c0,1.3-1.1,2.4-2.4,2.4c-1.3,0-2.4-1.1-2.4-2.4C33.3,13,34.3,11.9,35.6,11.9z M25,14.8c5.7,0,10.3,4.6,10.3,10.3
		c0,5.7-4.6,10.3-10.3,10.3c-5.7,0-10.3-4.6-10.3-10.3C14.8,19.4,19.4,14.8,25,14.8z"/>
	<path d="M12,50h26c6.6,0,12-5.4,12-12V12c0-6.6-5.4-12-12-12H12C5.4,0,0,5.4,0,12v26C0,44.6,5.4,50,12,50z M5.1,16.8
		c0.1-2.1,0.4-3.6,0.9-4.9c0.5-1.3,1.2-2.4,2.3-3.5c1.1-1.1,2.2-1.8,3.5-2.3c1.3-0.5,2.7-0.8,4.9-0.9C18.9,5,19.6,5,25,5
		c5.4,0,6.1,0,8.2,0.1c2.1,0.1,3.6,0.4,4.9,0.9c1.3,0.5,2.4,1.2,3.5,2.3c1.1,1.1,1.8,2.2,2.3,3.5c0.5,1.3,0.8,2.7,0.9,4.9
		C45,18.9,45,19.6,45,25c0,5.4,0,6.1-0.1,8.2c-0.1,2.1-0.4,3.6-0.9,4.9c-0.5,1.3-1.2,2.4-2.3,3.5c-1.1,1.1-2.2,1.8-3.5,2.3
		c-1.3,0.5-2.7,0.8-4.9,0.9C31.1,45,30.4,45,25,45c-5.4,0-6.1,0-8.2-0.1c-2.1-0.1-3.6-0.4-4.9-0.9c-1.3-0.5-2.4-1.2-3.5-2.3
		c-1.1-1.1-1.8-2.2-2.3-3.5c-0.5-1.3-0.8-2.7-0.9-4.9C5,31.1,5,30.4,5,25C5,19.6,5,18.9,5.1,16.8z"/>
</g>
</svg>
