<?xml version="1.0" encoding="utf-8"?>
<!-- Generator: Adobe Illustrator 25.0.0, SVG Export Plug-In . SVG Version: 6.00 Build 0)  -->
<svg version="1.1" id="Icons" xmlns="http://www.w3.org/2000/svg" xmlns:xlink="http://www.w3.org/1999/xlink" x="0px" y="0px"
	 viewBox="0 0 50 50" style="enable-background:new 0 0 50 50;" xml:space="preserve">
<style type="text/css">
	.st0{fill:none;}
	.st1{fill:#030104;}
	.st2{opacity:0.5;}
</style>
<g>
	<path d="M38.3,14.2c1,0,1.8-0.8,1.8-1.8c0-1-0.8-1.8-1.8-1.8s-1.8,0.8-1.8,1.8C36.5,13.4,37.3,14.2,38.3,14.2z"/>
	<path d="M31,24.9c-1.5,0-2.8,1.2-2.8,2.7s1.3,2.7,2.8,2.7s2.7-1.2,2.7-2.7S32.4,24.9,31,24.9z"/>
	<path d="M21.8,27.6c0-1.5-1.2-2.7-2.7-2.7c-1.5,0-2.7,1.2-2.7,2.7c0,1.5,1.3,2.7,2.7,2.7C20.6,30.2,21.8,29,21.8,27.6z"/>
	<path d="M30,33.9c-1,0.9-2.6,1.4-5,1.4c0,0,0,0,0,0c0,0,0,0,0,0c-2.4,0-4.1-0.5-5-1.4c-0.4-0.4-1.1-0.4-1.5,0
		c-0.4,0.4-0.4,1.1,0,1.5c1.4,1.4,3.5,2,6.6,2c0,0,0,0,0,0c0,0,0,0,0,0c3,0,5.2-0.7,6.6-2c0.4-0.4,0.4-1.1,0-1.5
		C31.2,33.4,30.5,33.4,30,33.9z"/>
	<path d="M38,0H12C5.4,0,0,5.4,0,12v26c0,6.6,5.4,12,12,12h26c6.6,0,12-5.4,12-12V12C50,5.4,44.6,0,38,0z M42.8,28.6
		c0,0.3,0.1,0.7,0.1,1c0,3.3-1.9,6.3-5.4,8.5c-3.4,2.1-7.8,3.3-12.5,3.3s-9.1-1.2-12.5-3.3C8.9,35.9,7,32.9,7,29.7
		c0-0.4,0-0.8,0.1-1.1C5.8,27.7,5,26.3,5,24.6c0-2.6,2.2-4.7,4.8-4.7c1.1,0,2.1,0.4,3,1c3.1-1.9,7.2-3,11.5-3.1l2.6-8
		C27,9.3,27.6,9,28.1,9.1l6.6,1.5c0.7-1.3,2-2.1,3.6-2.1c2.2,0,4,1.8,4,3.9c0,2.2-1.8,3.9-4,3.9c-2.1,0-3.9-1.6-4-3.7l-5.7-1.3
		l-2.1,6.5c4,0.2,7.7,1.3,10.6,3.1c0.8-0.7,1.9-1.1,3-1.1c2.7,0,4.8,2.1,4.8,4.7C45,26.3,44.1,27.8,42.8,28.6z"/>
</g>
</svg>
