<?xml version="1.0" encoding="utf-8"?>
<!-- Generator: Adobe Illustrator 25.0.0, SVG Export Plug-In . SVG Version: 6.00 Build 0)  -->
<svg version="1.1" id="Icons" xmlns="http://www.w3.org/2000/svg" xmlns:xlink="http://www.w3.org/1999/xlink" x="0px" y="0px"
	 viewBox="0 0 50 50" style="enable-background:new 0 0 50 50;" xml:space="preserve">
<style type="text/css">
	.st0{fill:none;}
	.st1{fill:#030104;}
	.st2{opacity:0.5;}
</style>
<g>
	<path d="M38,0H12C5.4,0,0,5.4,0,12v26c0,6.6,5.4,12,12,12h26c6.6,0,12-5.4,12-12V12C50,5.4,44.6,0,38,0z M34.2,25h-5.9v20h-8.9V25
		H15v-6.9h4.4V14c0-5.6,2.5-9,9.6-9H35v6.9h-3.7c-2.8,0-3,1-3,2.8l0,3.4H35L34.2,25z"/>
</g>
</svg>
