<?xml version="1.0" encoding="utf-8"?>
<!-- Generator: Adobe Illustrator 25.0.0, SVG Export Plug-In . SVG Version: 6.00 Build 0)  -->
<svg version="1.1" id="Icons" xmlns="http://www.w3.org/2000/svg" xmlns:xlink="http://www.w3.org/1999/xlink" x="0px" y="0px"
	 viewBox="0 0 50 50" style="enable-background:new 0 0 50 50;" xml:space="preserve">
<style type="text/css">
	.st0{fill:none;}
	.st1{fill:#030104;}
	.st2{opacity:0.5;}
</style>
<g>
	<path d="M38,0H12C5.4,0,0,5.4,0,12v26c0,6.6,5.4,12,12,12h26c6.6,0,12-5.4,12-12V12C50,5.4,44.6,0,38,0z M45,6.7L39.3,41
		c-0.1,0.4-0.3,0.8-0.7,1c-0.2,0.1-0.4,0.2-0.7,0.2c-0.2,0-0.3,0-0.5-0.1l-10.1-4.1l-5.4,6.6c-0.3,0.3-0.6,0.5-1.1,0.5
		c-0.2,0-0.4,0-0.5-0.1c-0.3-0.1-0.5-0.3-0.7-0.5c-0.2-0.2-0.3-0.5-0.3-0.8v-7.8l19.3-23.6L14.7,32.8l-8.8-3.6C5.3,29,5,28.6,5,27.9
		c0-0.6,0.2-1,0.7-1.3L42.9,5.2C43.1,5.1,43.3,5,43.6,5c0.3,0,0.6,0.1,0.8,0.2C44.9,5.6,45.1,6.1,45,6.7z"/>
</g>
</svg>
