<?xml version="1.0" encoding="utf-8"?>
<!-- Generator: Adobe Illustrator 25.0.0, SVG Export Plug-In . SVG Version: 6.00 Build 0)  -->
<svg version="1.1" id="Icons" xmlns="http://www.w3.org/2000/svg" xmlns:xlink="http://www.w3.org/1999/xlink" x="0px" y="0px"
	 viewBox="0 0 50 50" style="enable-background:new 0 0 50 50;" xml:space="preserve">
<style type="text/css">
	.st0{fill:none;}
	.st1{fill:#030104;}
	.st2{opacity:0.5;}
	.st3{fill:#FFFFFF;}
</style>
<g>
	<path d="M38,0H12C5.4,0,0,5.4,0,12v26c0,6.6,5.4,12,12,12h26c6.6,0,12-5.4,12-12V12C50,5.4,44.6,0,38,0z"/>
</g>
<path class="st3" d="M45,12.4c0,0.1,0,0.3-0.1,0.4C44.8,13,44.7,13,44.6,13c-0.9,0.1-1.6,0.4-2.2,0.9c-0.6,0.5-1.1,1.4-1.7,2.8
	l-9.1,21c-0.1,0.2-0.2,0.3-0.5,0.3c-0.2,0-0.4-0.1-0.5-0.3l-5.1-10.9l-5.9,10.9c-0.1,0.2-0.3,0.3-0.5,0.3c-0.3,0-0.4-0.1-0.5-0.3
	l-8.9-21C9.2,15.4,8.6,14.5,8,14s-1.5-0.8-2.6-1c-0.1,0-0.2-0.1-0.3-0.2C5,12.8,5,12.7,5,12.5C5,12.2,5.1,12,5.3,12
	c0.8,0,1.6,0,2.5,0.1c0.8,0.1,1.6,0.1,2.3,0.1c0.7,0,1.6,0,2.6-0.1c1-0.1,1.9-0.1,2.7-0.1c0.2,0,0.3,0.2,0.3,0.5
	c0,0.3-0.1,0.5-0.2,0.5c-0.8,0.1-1.4,0.3-1.9,0.6c-0.5,0.4-0.7,0.8-0.7,1.4c0,0.3,0.1,0.7,0.3,1.1l7.4,17.1l4.2-8.1l-3.9-8.4
	c-0.7-1.5-1.3-2.5-1.7-2.9c-0.4-0.4-1.1-0.7-2-0.8c-0.1,0-0.2-0.1-0.2-0.2c-0.1-0.1-0.1-0.2-0.1-0.4c0-0.3,0.1-0.5,0.2-0.5
	c0.8,0,1.5,0,2.2,0.1c0.6,0.1,1.3,0.1,2,0.1c0.7,0,1.5,0,2.3-0.1c0.8-0.1,1.6-0.1,2.4-0.1c0.2,0,0.3,0.2,0.3,0.5S26.1,13,26,13
	c-1.6,0.1-2.4,0.6-2.4,1.4c0,0.4,0.2,0.9,0.6,1.7l2.6,5.4l2.6-4.9c0.4-0.7,0.5-1.3,0.5-1.8c0-1.1-0.8-1.7-2.4-1.8
	c-0.1,0-0.2-0.2-0.2-0.5c0-0.1,0-0.2,0.1-0.3c0.1-0.1,0.1-0.2,0.2-0.2c0.6,0,1.3,0,2.1,0.1c0.8,0.1,1.5,0.1,2,0.1
	c0.4,0,0.9,0,1.6-0.1c0.9-0.1,1.7-0.1,2.3-0.1c0.1,0,0.2,0.1,0.2,0.4c0,0.4-0.1,0.6-0.4,0.6c-0.9,0.1-1.7,0.4-2.2,0.8
	c-0.6,0.4-1.3,1.4-2.1,2.9l-3.4,6.5l4.6,9.7L39,16.6c0.2-0.6,0.4-1.1,0.4-1.6c0-1.2-0.8-1.8-2.4-1.9c-0.1,0-0.2-0.2-0.2-0.5
	c0-0.3,0.1-0.5,0.3-0.5c0.6,0,1.3,0,2.1,0.1c0.7,0.1,1.4,0.1,1.8,0.1c0.5,0,1.1,0,1.8-0.1c0.7-0.1,1.4-0.1,1.9-0.1
	C44.9,12,45,12.1,45,12.4z"/>
</svg>
