<?xml version="1.0" encoding="utf-8"?>
<!-- Generator: Adobe Illustrator 25.0.0, SVG Export Plug-In . SVG Version: 6.00 Build 0)  -->
<svg version="1.1" id="Icons" xmlns="http://www.w3.org/2000/svg" xmlns:xlink="http://www.w3.org/1999/xlink" x="0px" y="0px"
	 viewBox="0 0 50 50" style="enable-background:new 0 0 50 50;" xml:space="preserve">
<style type="text/css">
	.st0{fill:none;}
	.st1{fill:#030104;}
	.st2{opacity:0.5;}
</style>
<g>
	<path d="M38,0H12C5.4,0,0,5.4,0,12v26c0,6.6,5.4,12,12,12h26c6.6,0,12-5.4,12-12V12C50,5.4,44.6,0,38,0z M39.3,10.1l-3.8,19
		c-0.3,1.2-0.7,3.1-3.5,3.1h-6.6c-0.3,0-0.3,0-0.5,0.3c-0.2,0.2-10.4,11.9-10.4,11.9c-0.8,0.9-2.1,0.7-2.6,0.6
		c-0.5-0.2-1.3-0.8-1.3-2.3V8.6c0-1.4,0.9-3.6,3.9-3.6h21.6C39.1,5,40,6.8,39.3,10.1z"/>
	<path d="M33.6,9.4H16.3c-0.8,0-1.3,0.7-1.3,1.3v26.5c0,0.1,0.1,0.1,0.1,0c0,0,6.4-7.6,7.1-8.4c0.7-0.9,1-1,2.1-1h5.8
		c0.8,0,1.2-0.7,1.3-1c0.1-0.4,0.8-3.9,0.9-4.6c0.1-0.7-0.5-1.4-1.2-1.4H24c-0.9,0-1.6-0.7-1.6-1.6v-1c0-0.9,0.7-1.6,1.6-1.6h8.4
		c0.6,0,1.2-0.5,1.3-1l0.9-4.7C34.8,10,34.2,9.4,33.6,9.4z"/>
</g>
</svg>
