<?xml version="1.0" encoding="utf-8"?>
<!-- Generator: Adobe Illustrator 25.0.0, SVG Export Plug-In . SVG Version: 6.00 Build 0)  -->
<svg version="1.1" id="Icons" xmlns="http://www.w3.org/2000/svg" xmlns:xlink="http://www.w3.org/1999/xlink" x="0px" y="0px"
	 viewBox="0 0 50 50" style="enable-background:new 0 0 50 50;" xml:space="preserve">
<style type="text/css">
	.st0{fill:none;}
	.st1{fill:#030104;}
	.st2{opacity:0.5;}
</style>
<g>
	<path d="M38,0H12C5.4,0,0,5.4,0,12v26c0,6.6,5.4,12,12,12h26c6.6,0,12-5.4,12-12V12C50,5.4,44.6,0,38,0z M28.1,33.9
		c-2.5,0-4.8-1.3-5.6-2.9c0,0-1.3,5.3-1.6,6.3c-1,3.6-3.9,7.2-4.2,7.5c-0.2,0.2-0.5,0.1-0.5-0.1c-0.1-0.5-0.8-5,0.1-8.7
		c0.4-1.9,3-12.5,3-12.5s-0.7-1.5-0.7-3.6c0-3.4,2-5.9,4.4-5.9c2.1,0,3.1,1.6,3.1,3.4c0,2.1-1.3,5.2-2,8.2c-0.6,2.4,1.2,4.4,3.6,4.4
		c4.4,0,7.3-5.6,7.3-12.2c0-5-3.4-8.8-9.6-8.8c-7,0-11.3,5.2-11.3,11c0,2,0.6,3.4,1.5,4.5c0.4,0.5,0.5,0.7,0.3,1.3
		c-0.1,0.4-0.4,1.4-0.5,1.8c-0.2,0.6-0.6,0.8-1.2,0.6c-3.2-1.3-4.7-4.8-4.7-8.8C9.5,12.8,15,5,25.9,5c8.8,0,14.6,6.3,14.6,13.2
		C40.5,27.2,35.5,33.9,28.1,33.9z"/>
</g>
</svg>
