<?xml version="1.0" encoding="utf-8"?>
<!-- Generator: Adobe Illustrator 25.0.0, SVG Export Plug-In . SVG Version: 6.00 Build 0)  -->
<svg version="1.1" id="Icons" xmlns="http://www.w3.org/2000/svg" xmlns:xlink="http://www.w3.org/1999/xlink" x="0px" y="0px"
	 viewBox="0 0 50 50" style="enable-background:new 0 0 50 50;" xml:space="preserve">
<style type="text/css">
	.st0{fill:none;}
	.st1{fill:#030104;}
	.st2{opacity:0.5;}
</style>
<g>
	<path d="M38,0H12C5.4,0,0,5.4,0,12v26c0,6.6,5.4,12,12,12h26c6.6,0,12-5.4,12-12V12C50,5.4,44.6,0,38,0z M11.2,33.2
		c-0.5,0-1-0.3-1.2-0.8c-0.2-0.4-0.3-1-0.4-1.7c-0.2-2.2,0.1-5.5,0.7-6.5c0.3-0.5,0.8-0.7,1.3-0.7c0.3,0,0.6,0.1,7.2,2.8
		c0,0,1.9,0.8,1.9,0.8c0.7,0.3,1.1,1,1.1,1.8c0,0.8-0.5,1.4-1.2,1.6c0,0-2.7,0.9-2.7,0.9C11.7,33.2,11.5,33.2,11.2,33.2z M25.1,37.3
		c0,6.3,0,6.5-0.1,6.8c-0.2,0.5-0.6,0.8-1.2,0.9c-1.6,0.3-6.7-1.6-7.8-2.8c-0.2-0.3-0.3-0.5-0.4-0.8c0-0.2,0-0.4,0.1-0.6
		c0.1-0.3,0.3-0.6,4.9-5.9c0,0,1.3-1.6,1.3-1.6c0.5-0.6,1.3-0.7,2-0.5c0.7,0.3,1.2,0.9,1.1,1.6C25.1,34.5,25.1,37.3,25.1,37.3z
		 M24,24.1c-0.3,0.1-1.3,0.4-2.6-1.6c0,0-8.4-13-8.6-13.4c-0.1-0.5,0-1,0.4-1.4c1.3-1.3,8-3.1,9.8-2.7c0.6,0.1,1,0.5,1.1,1
		c0.1,0.6,0.9,12.6,1,15.3C25.3,23.7,24.3,24,24,24.1z M28.3,24.7c0,0,1.7-2.3,1.7-2.3c3.7-5,3.9-5.3,4.2-5.4c0.4-0.3,1-0.3,1.5-0.1
		c1.5,0.7,4.5,5.1,4.6,6.7c0,0,0,0,0,0.1c0,0.6-0.2,1-0.6,1.3c-0.3,0.2-0.5,0.3-7.5,1.9c-1.1,0.3-1.7,0.4-2.1,0.5c0,0,0-0.1,0-0.1
		c-0.7,0.2-1.5-0.1-1.9-0.8C27.8,26,27.8,25.3,28.3,24.7z M40.5,35.5c-0.2,1.6-3.6,5.8-5.1,6.4c-0.5,0.2-1,0.2-1.4-0.2
		c-0.3-0.2-0.5-0.6-4.2-6.4l-1.1-1.7c-0.4-0.6-0.3-1.4,0.2-2.1c0.5-0.6,1.2-0.8,1.9-0.6c0,0,2.7,0.9,2.7,0.9c6.1,2,6.3,2,6.6,2.2
		C40.4,34.4,40.6,34.9,40.5,35.5z"/>
</g>
</svg>
