<?xml version="1.0" encoding="utf-8"?>
<!-- Generator: Adobe Illustrator 25.0.0, SVG Export Plug-In . SVG Version: 6.00 Build 0)  -->
<svg version="1.1" id="Icons" xmlns="http://www.w3.org/2000/svg" xmlns:xlink="http://www.w3.org/1999/xlink" x="0px" y="0px"
	 viewBox="0 0 50 50" style="enable-background:new 0 0 50 50;" xml:space="preserve">
<style type="text/css">
	.st0{fill:none;}
	.st1{fill:#030104;}
	.st2{opacity:0.5;}
</style>
<g>
	<path class="st0" d="M17.7,23.2v4.3h7.2c-0.3,1.8-2.2,5.4-7.2,5.4c-4.3,0-7.9-3.5-7.9-7.9c0-4.4,3.5-7.9,7.9-7.9
		c2.5,0,4.1,1,5.1,1.9l3.5-3.3c-2.2-2-5.1-3.3-8.5-3.3C10.7,12.5,5,18.1,5,25c0,6.9,5.7,12.5,12.7,12.5c7.3,0,12.2-5.1,12.2-12.2
		c0-0.8-0.1-1.4-0.2-2.1H17.7z"/>
	<path d="M38,0H12C5.4,0,0,5.4,0,12v26c0,6.6,5.4,12,12,12h26c6.6,0,12-5.4,12-12V12C50,5.4,44.6,0,38,0z M17.7,37.5
		C10.7,37.5,5,31.9,5,25c0-6.9,5.7-12.5,12.7-12.5c3.4,0,6.3,1.2,8.5,3.3L22.8,19c-0.9-0.9-2.6-1.9-5.1-1.9c-4.3,0-7.9,3.5-7.9,7.9
		c0,4.4,3.5,7.9,7.9,7.9c5,0,6.9-3.6,7.2-5.4h-7.2v-4.3v0v0h12c0.1,0.6,0.2,1.3,0.2,2.1C29.9,32.4,25.1,37.5,17.7,37.5z M45,26.5
		h-3.8v3.7h-3.8v-3.7h-3.8v-3.7h3.8v-3.7h3.8v3.7H45V26.5z"/>
</g>
</svg>
