<?xml version="1.0" encoding="utf-8"?>
<!-- Generator: Adobe Illustrator 25.0.0, SVG Export Plug-In . SVG Version: 6.00 Build 0)  -->
<svg version="1.1" id="Icons" xmlns="http://www.w3.org/2000/svg" xmlns:xlink="http://www.w3.org/1999/xlink" x="0px" y="0px"
	 viewBox="0 0 50 50" style="enable-background:new 0 0 50 50;" xml:space="preserve">
<style type="text/css">
	.st0{fill:none;}
	.st1{fill:#030104;}
	.st2{opacity:0.5;}
</style>
<g>
	<path d="M35,18.1c-4.4,0-8,4-8,8.9c0,4.9,3.6,8.9,8,8.9c4.4,0,8-4,8-8.9C43,22.1,39.4,18.1,35,18.1z M35,32.3
		c-2.7,0-4.8-2.4-4.8-5.4c0-3,2.2-5.4,4.8-5.4c2.7,0,4.8,2.4,4.8,5.4C39.8,29.9,37.6,32.3,35,32.3z"/>
	<path d="M35,23.2c-1.8,0-3.3,1.7-3.3,3.7c0,2,1.5,3.7,3.3,3.7c1.8,0,3.3-1.7,3.3-3.7C38.3,24.9,36.8,23.2,35,23.2z M34.7,28.7
		c-0.9,0-1.6-0.8-1.6-1.8c0-1,0.7-1.8,1.6-1.8c0.9,0,1.6,0.8,1.6,1.8C36.3,27.9,35.6,28.7,34.7,28.7z"/>
	<path d="M14.9,23.2c-1.8,0-3.3,1.7-3.3,3.7c0,2,1.5,3.7,3.3,3.7c1.9,0,3.3-1.7,3.3-3.7C18.3,24.9,16.8,23.2,14.9,23.2z M14.7,28.7
		c-0.9,0-1.6-0.8-1.6-1.8c0-1,0.7-1.8,1.6-1.8c0.9,0,1.6,0.8,1.6,1.8C16.3,27.9,15.6,28.7,14.7,28.7z"/>
	<path d="M34.6,16c-2.9-1.4-6.1-2.1-9.6-2.1c-3.6,0-7.1,0.7-9.9,2.1c5.5,0,9.9,4.9,9.9,11C25,21,29.3,16.1,34.6,16z"/>
	<path d="M15,18.1c-4.4,0-8,4-8,8.9c0,4.9,3.6,8.9,8,8.9c4.4,0,8-4,8-8.9C23.1,22.1,19.5,18.1,15,18.1z M14.9,32.3
		c-2.7,0-4.8-2.4-4.8-5.4c0-3,2.2-5.4,4.8-5.4c2.7,0,4.8,2.4,4.8,5.4C19.8,29.9,17.6,32.3,14.9,32.3z"/>
	<path d="M38,0H12C5.4,0,0,5.4,0,12v26c0,6.6,5.4,12,12,12h26c6.6,0,12-5.4,12-12V12C50,5.4,44.6,0,38,0z M44.9,27
		c0,6.1-4.5,11-10,11c-3.1,0-5.9-1.6-7.7-4.1C26.4,35,25,37.4,25,37.4c-0.2-0.6-1.5-2.5-2.2-3.5C20.9,36.4,18.2,38,15,38
		c-5.5,0-10-4.9-10-11c0-2.4,0.7-4.7,1.9-6.5c-0.2-1.2-1-3.1-2-4.4h6.3C14.7,13.6,19.7,12,25,12c5.3,0,9.9,1.6,13.3,4.1H45
		c-1,1.3-1.8,3.2-2,4.4C44.2,22.3,44.9,24.6,44.9,27z"/>
</g>
</svg>
