<?xml version="1.0" encoding="utf-8"?>
<!-- Generator: Adobe Illustrator 25.0.0, SVG Export Plug-In . SVG Version: 6.00 Build 0)  -->
<svg version="1.1" id="Icons" xmlns="http://www.w3.org/2000/svg" xmlns:xlink="http://www.w3.org/1999/xlink" x="0px" y="0px"
	 viewBox="0 0 50 50" style="enable-background:new 0 0 50 50;" xml:space="preserve">
<style type="text/css">
	.st0{fill:none;}
	.st1{fill:#030104;}
	.st2{opacity:0.5;}
</style>
<g>
</g>
<g>
	<path d="M38,0H12C5.4,0,0,5.4,0,12v26c0,6.6,5.4,12,12,12h26c6.6,0,12-5.4,12-12V12C50,5.4,44.6,0,38,0z M26.8,36.6l-5.6,5.6
		C19.4,44,17,45,14.5,45c-2.5,0-4.9-1-6.7-2.8C6,40.4,5,38.1,5,35.5c0-2.5,1-4.9,2.8-6.7l8.2-8.2c1.8-1.8,4.2-2.8,6.7-2.8
		c0,0,0,0,0,0c2.5,0,4.9,1,6.7,2.8c0.3,0.3,0.4,0.7,0.4,1.1c0,0.4-0.2,0.8-0.4,1.1c-0.6,0.6-1.5,0.6-2.1,0c-2.5-2.5-6.7-2.5-9.2,0
		l-8.2,8.2c-2.5,2.5-2.5,6.6,0,9.2c1.2,1.2,2.9,1.9,4.6,1.9c1.7,0,3.4-0.7,4.6-1.9l5.6-5.6c0.6-0.6,1.5-0.6,2.1,0
		c0.3,0.3,0.4,0.7,0.4,1.1C27.3,35.9,27.1,36.3,26.8,36.6z M42.2,21.2l-8.7,8.7c-1.8,1.8-4.2,2.8-6.7,2.8c-2.5,0-4.9-1-6.7-2.8
		c-0.6-0.6-0.6-1.5,0-2.1c0.6-0.6,1.5-0.6,2.1,0c2.5,2.5,6.7,2.5,9.2,0l8.7-8.7c1.2-1.2,1.9-2.9,1.9-4.6c0-1.7-0.7-3.4-1.9-4.6
		C38.9,8.7,37.3,8,35.5,8c-1.7,0-3.4,0.7-4.6,1.9l-6.7,6.7c-0.6,0.6-1.5,0.6-2.1,0c-0.3-0.3-0.4-0.7-0.4-1.1c0-0.4,0.2-0.8,0.4-1.1
		l6.7-6.7C30.6,6,33,5,35.5,5c0,0,0,0,0,0c2.5,0,4.9,1,6.7,2.8C44,9.6,45,11.9,45,14.5C45,17,44,19.4,42.2,21.2z"/>
</g>
</svg>
