<?xml version="1.0" encoding="utf-8"?>
<!-- Generator: Adobe Illustrator 25.0.0, SVG Export Plug-In . SVG Version: 6.00 Build 0)  -->
<svg version="1.1" id="Icons" xmlns="http://www.w3.org/2000/svg" xmlns:xlink="http://www.w3.org/1999/xlink" x="0px" y="0px"
	 viewBox="0 0 50 50" style="enable-background:new 0 0 50 50;" xml:space="preserve">
<style type="text/css">
	.st0{fill:none;}
	.st1{fill:#030104;}
	.st2{opacity:0.5;}
</style>
<g>
	<path d="M38,0H12C5.4,0,0,5.4,0,12v26c0,6.6,5.4,12,12,12h26c6.6,0,12-5.4,12-12V12C50,5.4,44.6,0,38,0z M45,36.6
		c0,0.9-0.3,1.7-1,2.4c-0.7,0.7-1.5,1-2.5,1H8.6c-1,0-1.8-0.3-2.5-1c-0.7-0.7-1-1.5-1-2.4V19.7c0.7,0.7,1.4,1.3,2.3,1.9
		c5.4,3.5,9.1,5.9,11.1,7.4c0.8,0.6,1.5,1.1,2.1,1.4c0.5,0.3,1.2,0.7,2.1,1s1.7,0.5,2.5,0.5h0h0c0.8,0,1.6-0.2,2.5-0.5
		c0.9-0.3,1.6-0.7,2.1-1c0.5-0.3,1.2-0.8,2.1-1.4c2.5-1.7,6.2-4.2,11.1-7.4c0.8-0.6,1.6-1.2,2.2-1.9V36.6z M43.9,16.6
		c-0.7,1-1.6,1.9-2.7,2.6c-5.6,3.7-9.1,6-10.4,6.9c-0.1,0.1-0.5,0.3-0.9,0.6c-0.5,0.3-0.9,0.6-1.2,0.8s-0.7,0.4-1.2,0.7
		c-0.5,0.3-0.9,0.4-1.3,0.6c-0.4,0.1-0.8,0.2-1.1,0.2h0h0c-0.3,0-0.7-0.1-1.1-0.2c-0.4-0.1-0.8-0.3-1.3-0.6
		c-0.5-0.3-0.8-0.5-1.2-0.7c-0.3-0.2-0.7-0.5-1.2-0.8c-0.5-0.3-0.8-0.6-0.9-0.6c-1.4-0.9-3.3-2.2-5.8-3.9c-2.5-1.7-4.1-2.7-4.6-3
		c-0.9-0.6-1.8-1.4-2.6-2.5S5,14.8,5,13.9c0-1.1,0.3-2,0.9-2.8C6.5,10.4,7.4,10,8.6,10h32.9c1,0,1.8,0.3,2.5,1s1.1,1.5,1.1,2.4
		C45,14.5,44.6,15.6,43.9,16.6z"/>
</g>
</svg>
