<?xml version="1.0" encoding="utf-8"?>
<!-- Generator: Adobe Illustrator 25.0.0, SVG Export Plug-In . SVG Version: 6.00 Build 0)  -->
<svg version="1.1" id="Icons" xmlns="http://www.w3.org/2000/svg" xmlns:xlink="http://www.w3.org/1999/xlink" x="0px" y="0px"
	 viewBox="0 0 50 50" style="enable-background:new 0 0 50 50;" xml:space="preserve">
<style type="text/css">
	.st0{fill:none;}
	.st1{fill:#030104;}
	.st2{opacity:0.5;}
</style>
<g>
	<path d="M12,50h26c6.6,0,12-5.4,12-12V12c0-6.6-5.4-12-12-12H12C5.4,0,0,5.4,0,12v26C0,44.6,5.4,50,12,50z M13,5
		c2.7,0,10.7,8,8,10.7c-2.7,2.7-5.3,2.7-5.3,5.3c0,2.7,2.7,5.3,5.3,8c2.7,2.7,5.3,5.3,8,5.3s2.7-2.7,5.3-5.3C37,26.3,45,34.3,45,37
		c0,2.7-8,8-8,8c-5.3,0-16.1-5.5-21.3-10.7C10.5,29.1,5,18.3,5,13C5,13,10.3,5,13,5z"/>
</g>
</svg>
