<?xml version="1.0" encoding="utf-8"?>
<!-- Generator: Adobe Illustrator 25.0.0, SVG Export Plug-In . SVG Version: 6.00 Build 0)  -->
<svg version="1.1" id="Icons" xmlns="http://www.w3.org/2000/svg" xmlns:xlink="http://www.w3.org/1999/xlink" x="0px" y="0px"
	 viewBox="0 0 50 50" style="enable-background:new 0 0 50 50;" xml:space="preserve">
<style type="text/css">
	.st0{fill:none;}
	.st1{fill:#030104;}
	.st2{opacity:0.5;}
</style>
<g>
	<path d="M38,0H12C5.4,0,0,5.4,0,12v26c0,6.6,5.4,12,12,12h26c6.6,0,12-5.4,12-12V12C50,5.4,44.6,0,38,0z M33.9,45
		c-1.9,0-3.7-0.5-5.2-1.3c-1.1,0.2-2.3,0.3-3.5,0.3C14.7,44,6.1,35.6,6.1,25.2c0-1.3,0.1-2.6,0.4-3.8c-1-1.6-1.5-3.5-1.5-5.5
		C5,9.9,10,5,16.1,5c2.2,0,4.2,0.6,5.9,1.7c1.1-0.2,2.2-0.3,3.3-0.3c10.5,0,19.1,8.4,19.1,18.8c0,1.4-0.2,2.7-0.4,4
		c0.7,1.5,1.2,3.1,1.2,4.8C45,40.1,40,45,33.9,45z"/>
	<path d="M33.3,24.4c-0.9-0.6-2-1.1-3.3-1.5c-1.3-0.4-2.7-0.8-4.2-1.1c-1.2-0.3-2.1-0.5-2.6-0.6c-0.5-0.1-1-0.3-1.5-0.6
		c-0.5-0.2-0.9-0.5-1.1-0.9c-0.3-0.3-0.4-0.7-0.4-1.1c0-0.7,0.4-1.3,1.2-1.8c0.8-0.5,1.9-0.8,3.3-0.8c1.5,0,2.5,0.2,3.2,0.7
		c0.7,0.5,1.2,1.2,1.7,2.1c0.4,0.7,0.8,1.2,1.1,1.5c0.4,0.3,0.9,0.5,1.6,0.5c0.8,0,1.4-0.3,2-0.8c0.5-0.5,0.8-1.1,0.8-1.8
		c0-0.7-0.2-1.4-0.6-2.1c-0.4-0.7-1-1.4-1.9-2.1c-0.8-0.6-1.9-1.2-3.2-1.5c-1.3-0.4-2.7-0.6-4.5-0.6c-2.1,0-4,0.3-5.6,0.9
		c-1.6,0.6-2.9,1.4-3.7,2.5c-0.9,1.1-1.3,2.4-1.3,3.8c0,1.5,0.4,2.8,1.2,3.8c0.8,1,1.9,1.8,3.3,2.4c1.3,0.6,3,1.1,5,1.5
		c1.5,0.3,2.6,0.6,3.5,0.9c0.8,0.3,1.5,0.6,2,1.1c0.5,0.5,0.7,1,0.7,1.8c0,0.9-0.5,1.7-1.4,2.3c-1,0.7-2.3,1-3.8,1
		c-1.1,0-2.1-0.2-2.8-0.5c-0.7-0.3-1.2-0.7-1.6-1.2c-0.4-0.5-0.8-1.1-1.1-1.9c-0.3-0.7-0.7-1.2-1.1-1.6c-0.5-0.4-1-0.6-1.7-0.6
		c-0.8,0-1.5,0.2-2,0.7c-0.5,0.5-0.8,1.1-0.8,1.8c0,1.1,0.4,2.2,1.2,3.4c0.8,1.1,1.9,2.1,3.1,2.8c1.8,0.9,4.1,1.4,6.8,1.4
		c2.3,0,4.3-0.3,6-1c1.7-0.7,3-1.7,3.9-2.9c0.9-1.2,1.3-2.6,1.3-4.2c0-1.3-0.3-2.4-0.8-3.3C34.9,25.7,34.2,25,33.3,24.4z"/>
</g>
</svg>
