<?xml version="1.0" encoding="utf-8"?>
<!-- Generator: Adobe Illustrator 25.0.0, SVG Export Plug-In . SVG Version: 6.00 Build 0)  -->
<svg version="1.1" id="Icons" xmlns="http://www.w3.org/2000/svg" xmlns:xlink="http://www.w3.org/1999/xlink" x="0px" y="0px"
	 viewBox="0 0 50 50" style="enable-background:new 0 0 50 50;" xml:space="preserve">
<style type="text/css">
	.st0{fill:none;}
	.st1{fill:#030104;}
	.st2{opacity:0.5;}
</style>
<g>
	<path d="M38,0H12C5.4,0,0,5.4,0,12v26c0,6.6,5.4,12,12,12h26c6.6,0,12-5.4,12-12V12C50,5.4,44.6,0,38,0z M40.9,16.2
		c0,0.4,0,0.8,0,1.1c0,11.7-8.3,25.1-23.3,25.1c-4.6,0-8.9-1.5-12.6-4c0.6,0.1,1.3,0.1,2,0.1c3.8,0,7.4-1.4,10.2-3.8
		c-3.6-0.1-6.6-2.6-7.7-6.1c0.5,0.1,1,0.2,1.5,0.2c0.8,0,1.5-0.1,2.2-0.3c-3.8-0.8-6.6-4.4-6.6-8.7v-0.1c1.1,0.7,2.4,1.1,3.7,1.1
		c-2.2-1.6-3.7-4.3-3.7-7.4c0-1.6,0.4-3.1,1.1-4.4c4,5.3,10.1,8.9,16.9,9.2c-0.1-0.6-0.2-1.3-0.2-2c0-4.9,3.7-8.8,8.2-8.8
		c2.4,0,4.5,1.1,6,2.8c1.9-0.4,3.6-1.1,5.2-2.1c-0.6,2.1-1.9,3.8-3.6,4.9c1.7-0.2,3.2-0.7,4.7-1.4C43.9,13.4,42.5,15,40.9,16.2z"/>
</g>
</svg>
