<?xml version="1.0" encoding="utf-8"?>
<!-- Generator: Adobe Illustrator 25.0.0, SVG Export Plug-In . SVG Version: 6.00 Build 0)  -->
<svg version="1.1" id="Icons" xmlns="http://www.w3.org/2000/svg" xmlns:xlink="http://www.w3.org/1999/xlink" x="0px" y="0px"
	 viewBox="0 0 50 50" style="enable-background:new 0 0 50 50;" xml:space="preserve">
<style type="text/css">
	.st0{fill:none;}
	.st1{fill:#030104;}
	.st2{opacity:0.5;}
</style>
<g>
	<path d="M38,0H12C5.4,0,0,5.4,0,12v26c0,6.6,5.4,12,12,12h26c6.6,0,12-5.4,12-12V12C50,5.4,44.6,0,38,0z M13.8,34.5
		C8.9,34.5,5,30.2,5,25c0-5.2,3.9-9.5,8.8-9.5c4.9,0,8.8,4.3,8.8,9.5C22.6,30.2,18.7,34.5,13.8,34.5z M36.2,34.5
		c-4.9,0-8.8-4.3-8.8-9.5c0-5.2,3.9-9.5,8.8-9.5c4.9,0,8.8,4.3,8.8,9.5C45,30.2,41.1,34.5,36.2,34.5z"/>
</g>
</svg>
