<?xml version="1.0" encoding="utf-8"?>
<!-- Generator: Adobe Illustrator 25.0.0, SVG Export Plug-In . SVG Version: 6.00 Build 0)  -->
<svg version="1.1" id="Icons" xmlns="http://www.w3.org/2000/svg" xmlns:xlink="http://www.w3.org/1999/xlink" x="0px" y="0px"
	 viewBox="0 0 50 50" style="enable-background:new 0 0 50 50;" xml:space="preserve">
<style type="text/css">
	.st0{fill:none;}
	.st1{fill:#030104;}
	.st2{opacity:0.5;}
	.st3{fill:#FFFFFF;}
</style>
<g>
	<path d="M38,0H12C5.4,0,0,5.4,0,12v26c0,6.6,5.4,12,12,12h26c6.6,0,12-5.4,12-12V12C50,5.4,44.6,0,38,0z"/>
</g>
<g>
	<path class="st3" d="M17.7,23.2v4.3h7.2c-0.3,1.8-2.2,5.4-7.2,5.4c-4.3,0-7.9-3.5-7.9-7.9s3.5-7.9,7.9-7.9c2.5,0,4.1,1,5.1,1.9
		l3.5-3.3c-2.2-2-5.1-3.3-8.5-3.3C10.7,12.5,5,18.1,5,25s5.7,12.5,12.7,12.5c7.3,0,12.2-5.1,12.2-12.2c0-0.8-0.1-1.4-0.2-2.1
		L17.7,23.2L17.7,23.2z"/>
	<path class="st3" d="M45,22.9h-3.8v-3.7h-3.8v3.7h-3.8v3.7h3.8v3.7h3.8v-3.7H45V22.9z"/>
</g>
</svg>
