<?xml version="1.0" encoding="utf-8"?>
<!-- Generator: Adobe Illustrator 19.2.1, SVG Export Plug-In . SVG Version: 6.00 Build 0)  -->
<svg version="1.1" id="Icons" xmlns="http://www.w3.org/2000/svg" xmlns:xlink="http://www.w3.org/1999/xlink" x="0px" y="0px"
	 viewBox="0 0 50 50" style="enable-background:new 0 0 50 50;" xml:space="preserve">
<style type="text/css">
	.st0{fill:none;}
	.st1{fill:#030104;}
</style>
<g>
	<g>
		<path d="M46.7,3.3c-4.4-4.4-11.6-4.4-16,0L22,12c-0.4,0.4-0.4,1,0,1.3s1,0.4,1.3,0L32,4.6c1.8-1.8,4.1-2.8,6.7-2.8
			c2.5,0,4.9,1,6.7,2.8c1.8,1.8,2.8,4.1,2.8,6.7s-1,4.9-2.8,6.7L34,29.3c-3.7,3.7-9.7,3.7-13.3,0c-0.4-0.4-1-0.4-1.3,0s-0.4,1,0,1.3
			c2.2,2.2,5.1,3.3,8,3.3s5.8-1.1,8-3.3l11.3-11.3c2.1-2.1,3.3-5,3.3-8C50,8.3,48.8,5.4,46.7,3.3z"/>
		<path d="M25.3,38L18,45.4c-1.8,1.8-4.1,2.8-6.7,2.8s-4.9-1-6.7-2.8C1,41.7,1,35.7,4.6,32l10.7-10.7c3.7-3.7,9.7-3.7,13.3,0
			c0.4,0.4,1,0.4,1.3,0s0.4-1,0-1.3c-4.4-4.4-11.6-4.4-16,0L3.3,30.7c-2.1,2.1-3.3,5-3.3,8c0,3,1.2,5.9,3.3,8c2.1,2.1,5,3.3,8,3.3
			c3,0,5.9-1.2,8-3.3l7.3-7.3c0.4-0.4,0.4-1,0-1.3C26.3,37.6,25.7,37.7,25.3,38z"/>
	</g>
</g>
</svg>
