<?xml version="1.0" encoding="utf-8"?>
<!-- Generator: Adobe Illustrator 25.0.0, SVG Export Plug-In . SVG Version: 6.00 Build 0)  -->
<svg version="1.1" id="Icons" xmlns="http://www.w3.org/2000/svg" xmlns:xlink="http://www.w3.org/1999/xlink" x="0px" y="0px"
	 viewBox="0 0 50 50" style="enable-background:new 0 0 50 50;" xml:space="preserve">
<style type="text/css">
	.st0{fill:none;}
	.st1{fill:#030104;}
	.st2{opacity:0.5;}
</style>
<g>
	<path d="M38,0H12C5.4,0,0,5.4,0,12v26c0,6.6,5.4,12,12,12h26c6.6,0,12-5.4,12-12V12C50,5.4,44.6,0,38,0z M38,42.8
		c-1.8,0.8-3.4,1.4-4.9,1.7c-1.5,0.3-3,0.5-4.7,0.5c-1.9,0-3.6-0.2-5.1-0.7c-1.5-0.5-2.7-1.1-3.8-2c-1-0.9-1.8-1.8-2.2-2.7
		c-0.4-1-0.6-2.4-0.6-4.2v-14H12v-5.7c1.7-0.5,3.1-1.2,4.3-2.2c1.2-1,2.1-2.1,2.8-3.4c0.7-1.3,1.2-3,1.5-5.1h6v10.1h10v6.3h-10v10.3
		c0,2.3,0.1,3.8,0.4,4.5c0.3,0.7,0.7,1.2,1.4,1.6c0.9,0.5,2,0.8,3.2,0.8c2.1,0,4.3-0.7,6.4-2V42.8z"/>
</g>
</svg>
