<?xml version="1.0" encoding="utf-8"?>
<!-- Generator: Adobe Illustrator 25.0.0, SVG Export Plug-In . SVG Version: 6.00 Build 0)  -->
<svg version="1.1" id="Icons" xmlns="http://www.w3.org/2000/svg" xmlns:xlink="http://www.w3.org/1999/xlink" x="0px" y="0px"
	 viewBox="0 0 50 50" style="enable-background:new 0 0 50 50;" xml:space="preserve">
<style type="text/css">
	.st0{fill:none;}
	.st1{fill:#030104;}
	.st2{opacity:0.5;}
</style>
<g>
	<path d="M12,50h26c6.6,0,12-5.4,12-12V12c0-6.6-5.4-12-12-12H12C5.4,0,0,5.4,0,12v26C0,44.6,5.4,50,12,50z M5,17.9
		C5,11,11.9,11,11.9,11h26.2c6.9,0,6.9,6.9,6.9,6.9v14.3c0,6.9-6.9,6.9-6.9,6.9H11.9C5,39,5,32.1,5,32.1V17.9z"/>
	<polygon points="19.7,17.4 19.7,32.7 32.8,25 	"/>
</g>
</svg>
