<?xml version="1.0" encoding="utf-8"?>
<!-- Generator: Adobe Illustrator 19.2.1, SVG Export Plug-In . SVG Version: 6.00 Build 0)  -->
<svg version="1.1" id="Icons" xmlns="http://www.w3.org/2000/svg" xmlns:xlink="http://www.w3.org/1999/xlink" x="0px" y="0px"
	 viewBox="0 0 50 50" style="enable-background:new 0 0 50 50;" xml:space="preserve">
<style type="text/css">
	.st0{fill:none;}
	.st1{fill:#030104;}
</style>
<g>
	<g>
		<path d="M23.9,31.3c0.3,0.3,0.7,0.4,1.1,0.4c0.4,0,0.8-0.1,1.1-0.4c0.4-0.4,9.8-8.8,9.8-17.5c0-6-4.9-10.9-10.9-10.9
			c-6,0-10.9,4.9-10.9,10.9C14.1,22.5,23.5,30.9,23.9,31.3z M25,10.9c1.6,0,2.8,1.3,2.8,2.9c0,1.6-1.3,2.9-2.8,2.9
			c-1.6,0-2.8-1.3-2.8-2.9C22.2,12.2,23.4,10.9,25,10.9z"/>
		<path d="M46,31.3l-1.3-4.4c-0.2-0.7-0.9-1.2-1.6-1.2h-9c-0.3,0.5-0.7,1-1,1.5c-2.5,3.4-5.1,5.7-5.4,6c-0.7,0.6-1.7,1-2.7,1
			c-1,0-1.9-0.4-2.7-1c-0.3-0.3-2.9-2.6-5.4-6c-0.4-0.5-0.7-1-1-1.5h-9c-0.7,0-1.4,0.5-1.6,1.2l-1.5,5.3l33.8,6.2L46,31.3z"/>
		<path d="M49.9,45l-3.2-11.3L30.6,47.1h17.7c0.5,0,1-0.2,1.3-0.7C50,46,50.1,45.5,49.9,45z"/>
		<path d="M8.2,35.3l-5.1-0.9L0.1,45c-0.1,0.5,0,1.1,0.3,1.5c0.3,0.4,0.8,0.7,1.3,0.7h6.5V35.3z"/>
		<polygon points="10.6,35.8 10.6,47.1 27,47.1 35.2,40.3 		"/>
	</g>
</g>
</svg>
