<?xml version="1.0" encoding="utf-8"?>
<!-- Generator: Adobe Illustrator 19.2.1, SVG Export Plug-In . SVG Version: 6.00 Build 0)  -->
<svg version="1.1" id="Icons" xmlns="http://www.w3.org/2000/svg" xmlns:xlink="http://www.w3.org/1999/xlink" x="0px" y="0px"
	 viewBox="0 0 50 50" style="enable-background:new 0 0 50 50;" xml:space="preserve">
<style type="text/css">
	.st0{fill:none;}
	.st1{fill:#030104;}
</style>
<g>
	<g>
		<g>
			<g>
				<path d="M45.5,5.1H13.1c-2.5,0-4.5,2-4.5,4.5v1.6l-5.2,1.4c-1.2,0.3-2.2,1-2.7,2.1s-0.8,2.3-0.5,3.4l6.3,23.5
					c0.3,1.2,1,2.2,2.1,2.7c0.7,0.4,1.5,0.6,2.3,0.6c0.4,0,0.8,0,1.2-0.1l20.6-5.5h12.9c2.5,0,4.5-2,4.5-4.5V9.6
					C50,7.1,48,5.1,45.5,5.1z M11.5,43.1c-0.7,0.2-1.4,0.1-2.1-0.3c-0.6-0.4-1.1-0.9-1.3-1.7L1.9,17.6c-0.2-0.7-0.1-1.4,0.3-2.1
					c0.4-0.6,0.9-1.1,1.7-1.3L8.6,13v21.8c0,2.5,2,4.5,4.5,4.5h12.5L11.5,43.1z M48.2,34.8c0,1.5-1.2,2.7-2.7,2.7H13.1
					c-1.5,0-2.7-1.2-2.7-2.7V9.6c0-1.5,1.2-2.7,2.7-2.7h32.4c1.5,0,2.7,1.2,2.7,2.7v12.8l-4.3-4.3c-0.7-0.7-1.8-0.7-2.5,0L31.1,28.3
					l0,0l-5.2-5.2c-0.7-0.7-1.8-0.7-2.5,0l-4.4,4.4c-0.4,0.4-0.4,0.9,0,1.3c0.4,0.4,0.9,0.4,1.3,0l4.4-4.4l5.2,5.2l0,0l-3.6,3.6
					c-0.4,0.4-0.4,0.9,0,1.3c0.2,0.2,0.4,0.3,0.6,0.3c0.2,0,0.5-0.1,0.6-0.3l15.2-15.2l5.4,5.4c0,0,0.1,0.1,0.2,0.1L48.2,34.8
					L48.2,34.8z"/>
				<path d="M16.7,29.6l-0.9,0.9c-0.4,0.4-0.4,0.9,0,1.3c0.2,0.2,0.4,0.3,0.6,0.3c0.2,0,0.5-0.1,0.6-0.3l0.9-0.9
					c0.4-0.4,0.4-0.9,0-1.3C17.6,29.3,17.1,29.3,16.7,29.6z"/>
				<path d="M23,15c0-2.5-2-4.5-4.5-4.5S14,12.5,14,15s2,4.5,4.5,4.5S23,17.4,23,15z M18.5,17.7c-1.5,0-2.7-1.2-2.7-2.7
					s1.2-2.7,2.7-2.7s2.7,1.2,2.7,2.7S20,17.7,18.5,17.7z"/>
			</g>
		</g>
	</g>
</g>
</svg>
