<?xml version="1.0" encoding="utf-8"?>
<!-- Generator: Adobe Illustrator 19.2.1, SVG Export Plug-In . SVG Version: 6.00 Build 0)  -->
<svg version="1.1" id="Icons" xmlns="http://www.w3.org/2000/svg" xmlns:xlink="http://www.w3.org/1999/xlink" x="0px" y="0px"
	 viewBox="0 0 50 50" style="enable-background:new 0 0 50 50;" xml:space="preserve">
<style type="text/css">
	.st0{fill:none;}
	.st1{fill:#030104;}
</style>
<g>
	<g>
		<g>
			<path d="M30.6,29C30.6,29,30.6,29,30.6,29c0.8,0,1.4-0.6,1.4-1.3c0.1-3.3,0.3-9,0.1-13.9c0.1-0.1,0-0.9-0.1-1.1
				c-0.2-3.6-0.7-6.7-1.6-7.6C30,4.8,29.5,4.6,29,4.6c-3,0-3.9,3.5-4,5.5c0,0.7,0.5,1.4,1.3,1.4c0.8,0,1.4-0.5,1.4-1.3
				c0-0.7,0.3-2.3,0.9-2.8c0.3,0.8,0.5,2.5,0.6,4.6h-8.8c-0.2-3.3-0.7-6-1.5-6.9c-0.4-0.4-0.8-0.6-1.3-0.6c-3,0-3.9,3.5-4,5.5
				c0,0.7,0.5,1.4,1.3,1.4c0.8,0,1.4-0.5,1.4-1.3c0-0.7,0.3-2.3,0.9-2.8c0.5,1.6,0.8,6.5,0.8,11.9c-0.1,0.1-0.1,0.8,0,0.9
				c0,2.4-0.1,4.9-0.2,7.3c0,0.7,0.5,1.4,1.3,1.4c0,0,0,0,0.1,0c0.7,0,1.3-0.6,1.3-1.3c0.1-1.7,0.1-4,0.2-6.5h8.8
				c0,2.1-0.1,4.3-0.2,6.4C29.2,28.3,29.8,28.9,30.6,29z M20.6,18.5c0-1.3,0-2.5-0.1-3.8h8.8c0,1.2,0.1,2.4,0.1,3.8H20.6z"/>
			<path d="M49.2,29.1c-0.1-0.3-1.1-3.1-3.3-4.8c-2.6-2.1-7.1-3.6-12.5-4.4c0,1.2,0,2.5,0,3.6c4.5,0.7,8.2,2,10.3,3.6
				c1.2,0.9,1.9,2.5,2.2,3.2C46,30.6,46,31,46,31.4c0,2.7-3.2,5-7.1,5c-0.9,0-1.8-0.1-2.6-0.4c-1.3-0.4-3.7-0.8-6-0.8
				c-0.4,0-0.8,0-1.1,0c-1.3,0.1-2.6,0.1-3.9,0.1c0,0,0,0,0,0c-1.4,0-2.7,0-4.1-0.1c-0.4,0-0.8,0-1.3,0c-2,0-4.4,0.3-6.1,0.8
				c-0.9,0.2-1.8,0.4-2.7,0.4c-3.9,0-7.1-2.2-7.1-5c0-0.5,0.1-1,0.3-1.5c0.4-0.8,1.9-2.6,3.4-3.5c2.1-1.2,5.1-2.2,8.7-2.8
				c0-0.8,0-1.5,0-2.3c-0.1-0.2-0.1-0.4-0.1-0.6c0-0.2,0-0.4,0.1-0.6c0,0,0,0,0-0.1c-4.3,0.7-8,1.9-10.6,3.4c-2.1,1.3-4.1,3.6-4.8,5
				c-0.4,0.9-0.7,1.9-0.7,2.9c-0.4,2-1.1,6.9,1.5,10.4c1.8,2.4,4.7,3.7,8.7,3.7l33.3,0l0.1,0c2.2-0.4,3.8-1.5,4.8-3.3
				c1.7-2.9,1.2-7,0.7-9.6c0.1-0.4,0.1-0.8,0.1-1.2C49.6,30.6,49.5,29.8,49.2,29.1z"/>
		</g>
	</g>
</g>
</svg>
