<?xml version="1.0" encoding="utf-8"?>
<!-- Generator: Adobe Illustrator 19.2.1, SVG Export Plug-In . SVG Version: 6.00 Build 0)  -->
<svg version="1.1" id="Icons" xmlns="http://www.w3.org/2000/svg" xmlns:xlink="http://www.w3.org/1999/xlink" x="0px" y="0px"
	 viewBox="0 0 50 50" style="enable-background:new 0 0 50 50;" xml:space="preserve">
<style type="text/css">
	.st0{fill:none;}
	.st1{fill:#030104;}
</style>
<g>
	<g>
		<g>
			<g>
				<g>
					<path d="M43.3,30.5c-0.4-0.2-0.9-0.1-1.1,0.3l-9.6,16.3c-0.7,1.2-2.2,1.6-3.4,0.9l-1.9-1.2c-0.4-0.3-0.9-0.1-1.2,0.2
						c-0.3,0.4-0.1,0.9,0.2,1.2l1.9,1.2c0.7,0.4,1.4,0.6,2.1,0.6c1.4,0,2.8-0.7,3.6-2.1l9.6-16.3C43.8,31.3,43.7,30.8,43.3,30.5z"/>
					<path d="M45.8,0H32.5C29.9,0,28,0.8,26,2.7c-0.3,0.3-0.3,0.9,0,1.2c0.3,0.3,0.9,0.3,1.2,0c1.6-1.6,3.1-2.3,5.3-2.3h13.4
						c1.4,0,2.5,1.1,2.5,2.5v13.4c0,2.2-0.6,3.6-2.3,5.3L21.3,47.6c-0.9,0.9-2.6,0.9-3.5,0L2.4,32.3c-0.5-0.5-0.7-1.1-0.7-1.8
						c0-0.7,0.3-1.3,0.7-1.8L24.8,6.3c0.3,0.1,0.7,0.2,1,0.3c3.4,0.9,6.1,1.8,8.1,2.7c-0.4,0.7-0.6,1.5-0.6,2.4c0,2.8,2.2,5,5,5
						c2.8,0,5-2.2,5-5s-2.2-5-5-5c-0.5,0-0.8,0.4-0.8,0.8s0.4,0.8,0.8,0.8c1.8,0,3.3,1.5,3.3,3.3c0,1.8-1.5,3.3-3.3,3.3
						c-1.8,0-3.3-1.5-3.3-3.3c0-0.6,0.2-1.2,0.5-1.7c1.4,0.7,2.3,1.3,2.7,1.6c-0.2,0-0.4,0.1-0.7,0.1c-0.5,0-0.8,0.4-0.8,0.9
						c0,0.4,0.4,0.8,0.8,0.8c0,0,0,0,0.1,0c0.5,0,2.1-0.2,2.4-1.3C40.8,9,28.7,5.7,26.3,5c-3.7-1-7.3-1.7-10-1.9
						c-3.4-0.3-5,0.1-5.4,1.2c-0.1,0.6-0.5,2,6.2,4.7c0.4,0.2,0.9,0,1.1-0.5c0.2-0.4,0-0.9-0.5-1.1c-3.3-1.3-4.6-2.2-5.1-2.7
						c1-0.3,4.5-0.2,10.2,1.1L1.2,27.5c-0.8,0.8-1.2,1.8-1.2,3c0,1.1,0.4,2.2,1.2,3l15.3,15.3c0.8,0.8,1.8,1.2,2.9,1.2
						c1.1,0,2.2-0.4,3-1.2L47.3,24c1.9-1.9,2.7-3.8,2.7-6.4V4.2C50,1.9,48.1,0,45.8,0z"/>
				</g>
			</g>
		</g>
	</g>
	<g>
		<path d="M26.2,25c-0.9-0.8-1.9-1.3-2.9-1.4c-0.6-0.1-1.3,0-2,0.2c-0.7,0.2-1.3,0.5-1.8,1l5.6,4.9l-1.2,0.9l-5.5-4.8
			c-0.1,0.1-0.2,0.2-0.3,0.3c-0.4,0.4-0.6,0.7-0.7,0.8l5.3,4.6l-1.2,0.9l-4.9-4.3c-0.9,1.5-1.1,2.8-0.7,4.1c0.3,0.9,0.8,1.7,1.6,2.4
			c1,0.9,2.1,1.3,3.1,1.3l-1.5,1.7c-1-0.3-1.9-0.8-2.7-1.5c-2.5-2.2-3.3-4.6-2.3-7.5c0.2-0.6,0.5-1.2,0.9-1.9l-1.3-1.1l1.2-0.9
			l0.9,0.8c0.2-0.2,0.4-0.5,0.6-0.8c0.1-0.1,0.2-0.2,0.3-0.3l-1.1-0.9l1.2-0.9l1,0.8c1.9-1.5,3.9-2,6-1.5c1.3,0.3,2.5,0.9,3.6,1.8
			c1,0.9,1.7,1.9,2,2.9l-1.7,1.2C27.6,26.7,27,25.8,26.2,25z"/>
	</g>
</g>
</svg>
