<?xml version="1.0" encoding="utf-8"?>
<!-- Generator: Adobe Illustrator 25.0.0, SVG Export Plug-In . SVG Version: 6.00 Build 0)  -->
<svg version="1.1" id="Icons" xmlns="http://www.w3.org/2000/svg" xmlns:xlink="http://www.w3.org/1999/xlink" x="0px" y="0px"
	 viewBox="0 0 50 50" style="enable-background:new 0 0 50 50;" xml:space="preserve">
<style type="text/css">
	.st0{fill:none;}
	.st1{fill:#030104;}
	.st2{opacity:0.5;}
</style>
<g>
	<path d="M21.7,10.9L8,34.5c-1.2,2.1-0.5,4.7,1.6,5.9l13.1,7.5c-0.3-0.7-0.4-1.5-0.4-2.2V18.4c0-2.5,1-4.8,2.7-6.6l5.5-5.7l-4.1,1.2
		C24.4,7.8,22.7,9.1,21.7,10.9z"/>
	<path d="M2.3,26.4c-1.7,1.7-1.7,4.4,0,6.1l3.5,3.4c0.1-0.8,0.4-1.6,0.8-2.3c2-3.4,10.9-18.8,15.7-27.1C21.7,7,22.7,6,2.3,26.4z"/>
	<path d="M6,14.5c-1.2,0.6-1.6,2.1-1,3.3l1.3,2.4c0.2-0.4,0.5-0.8,0.8-1.1c1.7-1.5,9-8.4,13-12.1C19.8,7.2,20.5,6.8,6,14.5z"/>
</g>
<g>
	<path d="M46.8,13L42,8c-1.1,1.2-2.4,2.1-3.9,2.7c-0.3,0.9-1.3,1.4-2.2,1c-0.9-0.3-1.4-1.3-1-2.2c0.2-0.7,0.9-1.1,1.6-1.1
		c0.5,0,0.9,0.2,1.3,0.6c0.5-0.2,1-0.5,1.5-0.9c0.5-0.4,1.1-0.9,1.5-1.4c1.6-1.9,2.7-4.1,3-6.6L42.1,0c-0.3,2-1.2,3.9-2.5,5.5
		c-1.7-1.7-4.4-1.7-6.1-0.1c0,0-0.1,0.1-0.1,0.1L26.1,13c-1.4,1.4-2.2,3.4-2.2,5.4v27.3c0,2.4,1.9,4.3,4.3,4.3h16.4
		c2.4,0,4.3-1.9,4.3-4.3V18.4C49,16.4,48.2,14.5,46.8,13z M41.3,48H30.9v-7H33v4.7h2.1v-4.3h2.1v4.3h4V48z M41.3,33.8L37.1,36v1.1
		h4.1v2.3H30.9v-4c0-0.5,0.1-1,0.2-1.5c0.1-0.5,0.3-0.9,0.5-1.2c0.2-0.4,0.6-0.6,1-0.9c0.4-0.2,0.9-0.3,1.5-0.3
		c0.7,0,1.4,0.2,1.9,0.6s0.8,0.9,1,1.7l4.4-2.6V33.8z M41.3,29.8H30.9v-7.1H33v4.8H35V23h2.1v4.5h2.1v-5h2.1V29.8z M41.3,20.6H30.9
		v-7.1H33v4.8H35v-4.5h2.1v4.5h2.1v-5h2.1V20.6z"/>
	<path d="M35.1,34.5c-0.1-0.2-0.2-0.3-0.3-0.5c-0.2-0.1-0.4-0.2-0.7-0.2c-0.3,0-0.5,0.1-0.6,0.2c-0.2,0.1-0.3,0.2-0.4,0.4
		c-0.1,0.2-0.1,0.4-0.2,0.6c0,0.2,0,0.4,0,0.6v1.5h2.4v-1.3c0-0.2,0-0.4,0-0.7C35.2,34.9,35.1,34.7,35.1,34.5z"/>
</g>
</svg>
