<?xml version="1.0" encoding="utf-8"?>
<!-- Generator: Adobe Illustrator 19.2.1, SVG Export Plug-In . SVG Version: 6.00 Build 0)  -->
<svg version="1.1" id="Icons" xmlns="http://www.w3.org/2000/svg" xmlns:xlink="http://www.w3.org/1999/xlink" x="0px" y="0px"
	 viewBox="0 0 50 50" style="enable-background:new 0 0 50 50;" xml:space="preserve">
<style type="text/css">
	.st0{fill:none;}
	.st1{fill:#030104;}
</style>
<g>
	<g>
		<g>
			<path d="M47.9,16.8c-0.1-0.1-0.3-0.2-0.4-0.2l-14.5-3.4L25.2,0.4C25,0,24.4-0.1,24,0.1c-0.1,0.1-0.2,0.2-0.3,0.3L16,13.2
				L1.5,16.6c-0.5,0.1-0.8,0.6-0.7,1.1c0,0.1,0.1,0.3,0.2,0.4l9.8,11.3L9.4,44.1c0,0.5,0.3,0.9,0.8,1c0.2,0,0.3,0,0.4-0.1l12.6-5.3
				l-4.3-5c-1-1.1-0.8-2.8,0.3-3.7c0.3-0.3,0.7-0.5,1.1-0.6l7.9-1.8l4.2-6.9c0.8-1.2,2.4-1.6,3.6-0.9c0.4,0.2,0.7,0.5,0.9,0.9
				l3.2,5.3l7.8-9C48.2,17.7,48.2,17.1,47.9,16.8z"/>
		</g>
	</g>
	<g>
		<g>
			<path d="M48.9,32.3c-0.1-0.1-0.3-0.2-0.4-0.2l-8.6-2l-4.5-7.5c-0.3-0.4-0.8-0.6-1.3-0.3c-0.1,0.1-0.2,0.2-0.3,0.3l-4.6,7.5
				l-8.6,2c-0.5,0.1-0.8,0.6-0.7,1.1c0,0.1,0.1,0.3,0.2,0.4l5.8,6.7L25.2,49c0,0.5,0.3,0.9,0.8,1c0.2,0,0.3,0,0.4-0.1l8.1-3.4l8,3.4
				c0.4,0.2,1,0.1,1.2-0.4C44,49.4,44,49.2,44,49l-0.8-8.8l5.7-6.6C49.3,33.2,49.3,32.7,48.9,32.3z"/>
		</g>
	</g>
</g>
</svg>
