<?xml version="1.0" encoding="utf-8"?>
<!-- Generator: Adobe Illustrator 19.2.1, SVG Export Plug-In . SVG Version: 6.00 Build 0)  -->
<svg version="1.1" id="Icons" xmlns="http://www.w3.org/2000/svg" xmlns:xlink="http://www.w3.org/1999/xlink" x="0px" y="0px"
	 viewBox="0 0 50 50" style="enable-background:new 0 0 50 50;" xml:space="preserve">
<style type="text/css">
	.st0{fill:none;}
	.st1{fill:#030104;}
</style>
<g>
	<g>
		<g>
			<path d="M48.2,32.3c-0.1-0.1-0.3-0.2-0.4-0.2l-8.6-2l-1-1.7l9-10.3c0.3-0.4,0.3-0.9,0-1.3c-0.1-0.1-0.3-0.2-0.4-0.2l-14.5-3.4
				L24.4,0.5c-0.2-0.4-0.8-0.6-1.2-0.3c-0.1,0.1-0.3,0.2-0.3,0.3l-7.7,12.7L0.7,16.6c-0.5,0.1-0.8,0.6-0.7,1.1
				c0,0.1,0.1,0.3,0.2,0.4L10,29.3L8.7,44.1c0,0.5,0.3,0.9,0.8,1c0.1,0,0.3,0,0.4-0.1l13.7-5.8l1.1,0.5l0.5,0.5L24.4,49
				c0,0.5,0.3,0.9,0.8,1c0.1,0,0.3,0,0.4-0.1l8.1-3.4l8,3.4c0.4,0.2,1,0.1,1.2-0.4c0.1-0.2,0.1-0.3,0.1-0.5l-0.8-8.8l5.8-6.6
				C48.5,33.2,48.5,32.6,48.2,32.3z M10.6,42.8l1.2-13.7c0-0.3-0.1-0.5-0.3-0.7L2.6,18L16,14.9c0.3-0.1,0.5-0.2,0.6-0.5l7.1-11.8
				l7.1,11.8c0.1,0.2,0.3,0.4,0.6,0.4L44.7,18l-7.6,8.8l-2.5-4.2c-0.2-0.4-0.8-0.6-1.2-0.3c-0.1,0.1-0.3,0.2-0.3,0.3l-4.5,7.6
				l-8.6,2c-0.5,0.1-0.8,0.6-0.7,1.1c0,0.1,0.1,0.3,0.2,0.4l3.5,4L10.6,42.8z M40.8,39.3c-0.2,0.2-0.2,0.4-0.2,0.7l0.7,7.7l-7.1-3
				c-0.2-0.1-0.5-0.1-0.7,0l-7.1,3l0.7-7.6c0-0.3-0.1-0.5-0.3-0.7l-5-5.8l7.5-1.7c0.3-0.1,0.5-0.2,0.6-0.5l3.9-6.5l4,6.6
				c0.1,0.2,0.3,0.4,0.6,0.4l0,0l7.5,1.7L40.8,39.3z"/>
		</g>
	</g>
</g>
</svg>
