<?xml version="1.0" encoding="utf-8"?>
<!-- Generator: Adobe Illustrator 25.0.0, SVG Export Plug-In . SVG Version: 6.00 Build 0)  -->
<svg version="1.1" id="Icons" xmlns="http://www.w3.org/2000/svg" xmlns:xlink="http://www.w3.org/1999/xlink" x="0px" y="0px"
	 viewBox="0 0 50 50" style="enable-background:new 0 0 50 50;" xml:space="preserve">
<style type="text/css">
	.st0{fill:none;}
	.st1{fill:#030104;}
	.st2{opacity:0.5;}
</style>
<path d="M46.9,39c0.5-1.4-0.3-3-1.8-3.4c-6.4-2-9.1-13.4-9.8-17.6c-0.1-0.6-0.4-1.2-0.4-1.2c-1.2-2.2-5.6-3.3-6.1-3.3
	c-0.9-0.1-1-0.8-1.1-1c1.6-1.1,2.6-3.7,2.6-6.1C30.3,2.8,30,0,25.2,0c-0.1,0-0.3,0-0.4,0c-4.8,0-5.2,2.8-5.2,6.4
	c0,2.4,1.1,5,2.6,6.1c0,0.2-0.2,0.9-1.1,1c-0.5,0.1-5.7,1.3-6.4,3.9c0,0-0.1,0.4-0.1,0.7c0,0-0.5,4-2.1,8.2
	c-1.4,3.6-3.8,8.2-7.7,9.4c-1.4,0.4-2.2,2-1.8,3.4c0.4,1.1,1.4,1.9,2.6,1.9c-2.3,1.3-2.6,3.1-2.6,4.1c0,0.4,0.2,1.6,1.1,2.7
	C5,48.8,6.6,50,9.6,50c0.5,0,0.9,0,1.5-0.1c2-0.2,4.1-0.5,6.1-0.9c0.7-0.1,1.4-0.2,2.2-0.3c1-0.1,2.7-0.2,5.2-0.3h0.8
	c2.5,0,4.2,0.1,5.2,0.3c0.7,0.1,1.4,0.2,2.2,0.3c2,0.3,4.1,0.6,6.1,0.9c0.5,0.1,1,0.1,1.5,0.1c3.1,0,4.7-1.2,5.5-2.2
	c0.9-1.1,1.1-2.4,1.1-2.7c0-1-0.3-2.8-2.6-4.1c0,0,0,0,0,0C45.4,40.9,46.5,40.2,46.9,39z M15,38.7c-1.4,0.4-1.7,0.5-2.9,0.6
	c-0.4,0.1-0.9,0.1-1.5,0.2c-0.6,0.1-1.2,0.2-1.7,0.3c3.6-2,6.4-5.7,8.6-11.1c0.1,1.1,0.2,2.2,0.2,3.5C17.7,36.4,15.5,38.5,15,38.7z
	 M39.3,39.5c-0.6-0.1-1.1-0.2-1.5-0.2c-3.7-0.5-5.6-2.9-5.6-7.1c0-1.3,0.1-2.6,0.2-3.6c2.1,5.5,5,9.3,8.7,11.3
	C40.6,39.7,40,39.6,39.3,39.5z"/>
</svg>
