<?xml version="1.0" encoding="utf-8"?>
<!-- Generator: Adobe Illustrator 19.2.1, SVG Export Plug-In . SVG Version: 6.00 Build 0)  -->
<svg version="1.1" id="Icons" xmlns="http://www.w3.org/2000/svg" xmlns:xlink="http://www.w3.org/1999/xlink" x="0px" y="0px"
	 viewBox="0 0 50 50" style="enable-background:new 0 0 50 50;" xml:space="preserve">
<style type="text/css">
	.st0{fill:none;}
	.st1{fill:#030104;}
</style>
<g>
	<g>
		<g>
			<path d="M25,3.9C13.4,3.9,3.9,13.4,3.9,25c0,8.4,4.9,15.6,12,19l0.7-12.8c0,0-1.2-0.4-1.5-0.5c-2.6-1.2-4.5-4.6-4.5-9
				c0-4.8,3.8-9,7.4-9c0,0,0,0,0,0c0,0,0,0,0,0c3.6,0,7.4,4.2,7.4,9c0,4.4-1.9,7.8-4.5,9c0,0-1.5,0.6-1.5,0.6L20,45.4
				c1.6,0.4,3.3,0.6,5,0.6c2.3,0,4.6-0.4,6.7-1.1l0.7-12.6c-1.7-0.4-3.2-1.5-4.1-2.8c-1.1-1.7,0.9-16.8,0.9-16.8h1.3v14.2h1.3V12.7
				h1.4v14.2h1.3V12.7h1.5v14.2h1.3V12.7h1c0,0,2,15.1,0.9,16.8c-0.9,1.4-2.4,2.5-4.1,2.8c0,0-0.1,0-0.1,0l0.6,10.9
				c6.3-3.7,10.5-10.4,10.5-18.2C46.1,13.4,36.6,3.9,25,3.9z"/>
			<path d="M13.6,19.6c0.1-0.3,0.2-0.6,0.2-0.6c0-0.1,0-0.2-0.2-0.3c-0.1-0.1-0.3,0-0.3,0.1c0,0-0.1,0.2-0.4,0.6
				c-0.2,0.3-0.4,0.8-0.6,1.3c-0.1,0.5-0.3,1.2-0.4,1.9c0,0.4,0,0.8,0,1.1c0,0.4,0.1,0.8,0.2,1.2c0.4,1.2,0.7,2.3,1.9,3.4
				c0.4,0.4,0.7,0.6,1,0.8l0.1,0.1c0.1,0,0.1,0.1,0.2,0.1c0.2,0.1,0.4,0.2,0.4,0.2c0.1,0,0.2,0,0.3-0.1c0-0.1,0-0.2-0.1-0.3
				c0,0-0.1-0.1-0.3-0.3c-0.1-0.1-0.2-0.3-0.4-0.5c-0.1-0.1-0.2-0.3-0.3-0.5c-0.6-0.9-0.9-2.1-1.3-3.3c-0.1-0.3-0.2-0.6-0.2-0.9
				c0-0.3-0.1-0.7-0.1-1c0-0.7,0-1.3,0.1-1.8C13.5,20.3,13.5,19.9,13.6,19.6z"/>
			<path d="M25,0C11.2,0,0,11.2,0,25c0,13.8,11.2,25,25,25c13.8,0,25-11.2,25-25C50,11.2,38.8,0,25,0z M25,48.1
				C12.2,48.1,1.9,37.8,1.9,25C1.9,12.2,12.2,1.9,25,1.9c12.8,0,23.1,10.4,23.1,23.1C48.1,37.8,37.8,48.1,25,48.1z"/>
		</g>
	</g>
</g>
</svg>
