<?xml version="1.0" encoding="utf-8"?>
<!-- Generator: Adobe Illustrator 19.2.1, SVG Export Plug-In . SVG Version: 6.00 Build 0)  -->
<svg version="1.1" id="Icons" xmlns="http://www.w3.org/2000/svg" xmlns:xlink="http://www.w3.org/1999/xlink" x="0px" y="0px"
	 viewBox="0 0 50 50" style="enable-background:new 0 0 50 50;" xml:space="preserve">
<style type="text/css">
	.st0{fill:none;}
	.st1{fill:#030104;}
</style>
<g>
	<g>
		<g>
			<polygon points="6.9,0.9 6.9,8.9 10.8,4.9 			"/>
		</g>
	</g>
	<g>
		<g>
			<path d="M15.7,15.8c-1,0-1.9,0.8-1.9,1.9c0,0.8,0.5,1.5,1.3,1.8v-1.8c0-0.3,0.3-0.6,0.6-0.6c0.3,0,0.6,0.3,0.6,0.6v1.8
				c0.7-0.2,1.3-0.9,1.3-1.8C17.6,16.7,16.7,15.8,15.7,15.8z"/>
		</g>
	</g>
	<g>
		<g>
			<path d="M34.3,15.8c-1,0-1.9,0.8-1.9,1.9c0,0.8,0.5,1.5,1.3,1.8v-1.8c0-0.3,0.3-0.6,0.6-0.6s0.6,0.3,0.6,0.6v1.8
				c0.7-0.2,1.3-0.9,1.3-1.8C36.2,16.7,35.3,15.8,34.3,15.8z"/>
		</g>
	</g>
	<g>
		<g>
			<path d="M12.2,5C12.2,5,12.2,5,12.2,5c0,0.1,0,0.1,0,0.1c0,0,0,0,0,0.1c0,0,0,0,0,0c0,0,0,0,0,0c0,0,0,0,0,0L7.7,9.8h34.6L38,5.3
				c0,0,0,0,0,0c0,0,0,0,0,0c0,0,0,0,0-0.1c0,0,0,0,0-0.1c0,0,0,0,0-0.1c0,0,0,0,0-0.1c0,0,0,0,0-0.1c0,0,0,0,0-0.1s0,0,0-0.1
				c0,0,0,0,0-0.1c0,0,0,0,0-0.1c0,0,0,0,0-0.1c0,0,0,0,0-0.1c0,0,0,0,0-0.1c0,0,0,0,0,0c0,0,0,0,0,0L42.3,0H7.7L12,4.5c0,0,0,0,0,0
				c0,0,0,0,0,0c0,0,0,0,0,0.1c0,0,0,0,0,0.1c0,0,0,0,0,0.1c0,0,0,0,0,0.1c0,0,0,0,0,0.1c0,0,0,0,0,0.1C12.2,4.9,12.2,4.9,12.2,5
				C12.2,5,12.2,5,12.2,5z"/>
		</g>
	</g>
	<g>
		<g>
			<polygon points="39.2,4.9 43.1,8.9 43.1,0.9 			"/>
		</g>
	</g>
	<g>
		<g>
			<polygon points="44.5,46.1 5.5,46.1 5.3,50 44.7,50 			"/>
		</g>
	</g>
	<g>
		<g>
			<path d="M43.1,11H6.9L5.5,45h38.9L43.1,11z M34.9,20.7v3.5c0,5.4-4.4,9.9-9.9,9.9c-5.4,0-9.9-4.4-9.9-9.9v-3.5
				c-1.4-0.3-2.5-1.5-2.5-3c0-1.7,1.4-3.1,3.1-3.1c1.7,0,3.1,1.4,3.1,3.1c0,1.5-1.1,2.7-2.5,3v3.4c0,0,0,0,0,0
				c0,4.8,3.9,8.7,8.7,8.7s8.7-3.9,8.7-8.7v-3.5c-1.4-0.3-2.5-1.5-2.5-3c0-1.7,1.4-3.1,3.1-3.1c1.7,0,3.1,1.4,3.1,3.1
				C37.3,19.2,36.3,20.4,34.9,20.7z"/>
		</g>
	</g>
</g>
</svg>
