<?xml version="1.0" encoding="utf-8"?>
<!-- Generator: Adobe Illustrator 19.2.1, SVG Export Plug-In . SVG Version: 6.00 Build 0)  -->
<svg version="1.1" id="Icons" xmlns="http://www.w3.org/2000/svg" xmlns:xlink="http://www.w3.org/1999/xlink" x="0px" y="0px"
	 viewBox="0 0 50 50" style="enable-background:new 0 0 50 50;" xml:space="preserve">
<style type="text/css">
	.st0{fill:none;}
	.st1{fill:#030104;}
</style>
<g>
	<g>
		<g>
			<g>
				<path d="M24,20.4h0.5c1,0,1.9-0.8,1.9-1.9v-3c0-1-0.8-1.8-1.9-1.8H24c-1,0-1.9,0.8-1.9,1.9v3C22.2,19.6,23,20.4,24,20.4z
					 M23.5,15.4c0-0.4,0.3-0.7,0.7-0.7c0.4,0,0.7,0.3,0.7,0.7v3.3c0,0.4-0.3,0.7-0.7,0.7c-0.4,0-0.7-0.3-0.7-0.7V15.4z"/>
				<polygon points="18.5,20.3 20.1,20.3 20.1,16.6 22,11.5 20.5,11.5 19.3,14.9 18.2,11.5 16.5,11.5 18.5,16.6 				"/>
				<path d="M28.7,20.4c0.7-0.1,1.3-0.4,1.8-0.8v0.7h1.4v-6.6h-1.4v5.1c0,0-0.5,0.5-0.9,0.5c-0.4,0-0.5-0.4-0.5-0.4v-5.3h-1.4v5.8
					C27.7,20,28.2,20.4,28.7,20.4z"/>
				<path d="M27.8,28c-0.3,0-0.5,0.1-0.7,0.4V33c0.2,0.2,0.4,0.3,0.7,0.3c0.7,0,0.7-0.8,0.7-0.8v-3.8C28.5,28.8,28.3,28,27.8,28z"/>
				<path d="M25,0C11.2,0,0,11.2,0,25s11.2,25,25,25s25-11.2,25-25S38.8,0,25,0z M25,47.7C12.4,47.7,2.3,37.6,2.3,25
					S12.4,2.3,25,2.3S47.7,12.4,47.7,25S37.6,47.7,25,47.7z"/>
				<path d="M33.2,28c-0.7,0-0.7,0.8-0.7,0.8v1h1.4v-1C33.9,28.8,33.9,28,33.2,28z"/>
				<path d="M33.7,21.8C33.7,21.8,33.6,21.8,33.7,21.8L33.7,21.8c-0.1,0-4.4-0.2-8.7-0.2s-8.6,0.2-8.6,0.2c-1.9-0.1-3.5,1.4-3.5,3.3
					c0,0,0,0.1,0,0.1c-0.2,1.4-0.3,2.9-0.4,4.3c0,1.5,0.1,2.9,0.4,4.4c0,1.9,1.5,3.4,3.4,3.4c0,0,0.1,0,0.1,0c0,0,4.2,0.2,8.6,0.2
					s8.6-0.2,8.6-0.2c1.9,0.1,3.5-1.4,3.5-3.3c0,0,0-0.1,0-0.1c0.2-1.4,0.3-2.9,0.4-4.4c0-1.5-0.1-2.9-0.4-4.4
					C37.1,23.3,35.6,21.8,33.7,21.8z M19.9,25.6h-1.7v8.8h-1.7v-8.8h-1.7v-1.5h5.2L19.9,25.6z M24.4,34.5h-1.4v-0.7
					c-0.5,0.5-1.1,0.7-1.8,0.8c-0.5,0-1-0.4-1.1-0.9v-6.9h1.5v6.5c0,0,0,0.3,0.5,0.3S23,33,23,33v-6.3h1.4L24.4,34.5z M28.6,34.6
					c-0.6,0-1.2-0.3-1.5-0.8v0.6h-1.5V24.2H27v3.3c0.4-0.4,0.9-0.7,1.5-0.8c0.9,0,1.3,0.8,1.3,1.8l0,4.2
					C29.9,32.8,29.9,34.6,28.6,34.6z M35.4,30.9h-2.9v1.7c0,0,0,0.8,0.7,0.8s0.7-0.8,0.7-0.8v-0.8h1.5V33c-0.2,1-1.1,1.7-2.1,1.6
					c-1,0.1-2-0.6-2.3-1.6v-4.4c0-1.1,0.9-2,2-1.9c0.1,0,0.2,0,0.2,0c1-0.1,2,0.6,2.1,1.6c0,0.1,0,0.2,0,0.3L35.4,30.9L35.4,30.9z"
					/>
			</g>
		</g>
	</g>
</g>
</svg>
