<?xml version="1.0" encoding="utf-8"?>
<!-- Generator: Adobe Illustrator 19.2.1, SVG Export Plug-In . SVG Version: 6.00 Build 0)  -->
<svg version="1.1" id="Icons" xmlns="http://www.w3.org/2000/svg" xmlns:xlink="http://www.w3.org/1999/xlink" x="0px" y="0px"
	 viewBox="0 0 50 50" style="enable-background:new 0 0 50 50;" xml:space="preserve">
<style type="text/css">
	.st0{fill:none;}
	.st1{fill:#030104;}
</style>
<g>
	<g>
		<g>
			<g>
				<path d="M24.7,14.8L23.2,15c-0.9,0.2-1.8,0.5-2.6,0.9c-1.9,1-3.4,2.6-4.2,4.6c-0.1,0.4-0.2,0.8-0.3,1.1
					c-0.6,2.3,0.2,4.7,2.1,6.1c0.3,0.2,0.9,0.5,1.1,0.1c0.1-0.3,0.1-0.5,0.2-0.8c0.1-0.2,0.2-0.5,0.2-0.7c-0.1-0.4-0.5-0.6-0.6-0.9
					c-0.3-0.6-0.5-1.3-0.5-2V23c0.1-2.8,2-5.2,4.8-5.8c0.9-0.2,1.7-0.3,2.6-0.2l1.3,0.2c1.4,0.4,2.6,1.4,3.2,2.8
					c0.4,1.2,0.5,2.4,0.2,3.6c-0.1,0.5-0.1,1-0.3,1.5c-0.6,1.8-1.4,3.4-3.4,3.8c-1,0.3-2.1-0.3-2.5-1.3c-0.1-0.3-0.2-0.6-0.1-1
					c0.3-1.4,0.8-2.7,1.1-4.1c0.4-1.1-0.1-2.2-1.2-2.6c-0.1,0-0.1,0-0.2-0.1c-1.3-0.3-2.3,0.9-2.7,1.7c-0.3,0.8-0.4,1.8-0.2,2.6
					c0.2,0.4,0.3,0.8,0.4,1.2c-0.2,1.1-0.5,2.3-0.9,3.4c-0.3,1.1-0.5,2.3-0.8,3.4c-0.1,0.5-0.1,1-0.3,1.6v0.8
					c-0.1,0.6-0.1,1.2,0.1,1.8c0.1,0.3,0,0.7,0.1,0.9c0,0.1,0,0.2,0.1,0.3c0.5,0,1.1-1.2,1.3-1.6c0.4-0.7,0.8-1.4,1.1-2.2
					c0.3-0.7,0.4-1.5,0.6-2.3c0.2-0.6,0.4-1.3,0.5-1.9c0.1,0.3,0.4,0.6,0.7,0.8c1.1,0.8,2.5,1,3.8,0.8c1.6-0.3,3-1.2,4-2.4
					c0.7-0.9,1.2-2,1.6-3.1c0.2-0.6,0.2-1.2,0.4-1.8c0.2-1.5,0.1-3-0.6-4.4C32.1,16.4,29.2,14.7,24.7,14.8z"/>
				<path d="M25,0C11.2,0,0,11.2,0,25s11.2,25,25,25s25-11.2,25-25S38.8,0,25,0z M25,47.7C12.4,47.7,2.3,37.6,2.3,25
					S12.4,2.3,25,2.3S47.7,12.4,47.7,25S37.6,47.7,25,47.7z"/>
			</g>
		</g>
	</g>
</g>
</svg>
