<?xml version="1.0" encoding="utf-8"?>
<!-- Generator: Adobe Illustrator 19.2.1, SVG Export Plug-In . SVG Version: 6.00 Build 0)  -->
<svg version="1.1" id="Icons" xmlns="http://www.w3.org/2000/svg" xmlns:xlink="http://www.w3.org/1999/xlink" x="0px" y="0px"
	 viewBox="0 0 50 50" style="enable-background:new 0 0 50 50;" xml:space="preserve">
<style type="text/css">
	.st0{fill:none;}
	.st1{fill:#030104;}
</style>
<g>
	<g>
		<g>
			<g>
				<polygon points="34.1,17 31.8,17 31.8,20.5 28.4,20.5 28.4,22.7 31.8,22.7 31.8,26.1 34.1,26.1 34.1,22.7 37.5,22.7 37.5,20.5 
					34.1,20.5 				"/>
				<path d="M25,0C11.2,0,0,11.2,0,25s11.2,25,25,25s25-11.2,25-25S38.8,0,25,0z M25,47.7C12.4,47.7,2.3,37.6,2.3,25
					S12.4,2.3,25,2.3S47.7,12.4,47.7,25S37.6,47.7,25,47.7z"/>
				<path d="M25.1,25.9L25.1,25.9c-0.5-0.3-0.9-0.8-1.1-1.3c0-0.3,0-0.5,0.8-1.1c1-0.8,1.6-1.9,1.6-3.2c0-0.9-0.3-1.8-0.8-2.6H26
					l2.4-1.9h-6.5c-2.5-0.1-4.7,1.9-4.9,4.4c-0.1,2.3,1.8,4.3,4.1,4.4c0,0,0,0,0,0c0,0.2,0,0.3,0,0.5c0,0.3,0.1,0.7,0.2,1
					c-3,0-5.5,2-5.5,4.3c0,2.1,2.4,3.6,5.7,3.6c3.6,0,5.5-2.3,5.5-4.3C27.2,28.2,26.4,26.7,25.1,25.9z M19.8,20.2L19.8,20.2
					c-0.1-0.7,0-1.5,0.5-2.1c0.2-0.3,0.6-0.4,0.9-0.4v0c1.1,0,2.1,1.3,2.3,2.9c0.2,0.8,0,1.6-0.5,2.2c-0.2,0.3-0.6,0.4-1,0.4
					C21,23.1,20,21.8,19.8,20.2z M21.6,32.3c-1.5,0.1-2.8-0.9-2.9-2.4c0,0,0,0,0,0c0-1.2,1.5-2.3,3.2-2.3c0.4,0,0.7,0.1,1.1,0.2
					l0.3,0.2c0.9,0.6,1.3,1,1.5,1.5c0,0.1,0,0.3,0,0.4C24.8,31.5,23.7,32.3,21.6,32.3z"/>
			</g>
		</g>
	</g>
</g>
</svg>
