<?xml version="1.0" encoding="utf-8"?>
<!-- Generator: Adobe Illustrator 19.2.1, SVG Export Plug-In . SVG Version: 6.00 Build 0)  -->
<svg version="1.1" id="Icons" xmlns="http://www.w3.org/2000/svg" xmlns:xlink="http://www.w3.org/1999/xlink" x="0px" y="0px"
	 viewBox="0 0 50 50" style="enable-background:new 0 0 50 50;" xml:space="preserve">
<style type="text/css">
	.st0{fill:none;}
	.st1{fill:#030104;}
</style>
<g>
	<g>
		<g>
			<g>
				<path d="M25,0C11.2,0,0,11.2,0,25s11.2,25,25,25s25-11.2,25-25S38.8,0,25,0z M25,47.7C12.4,47.7,2.3,37.6,2.3,25
					S12.4,2.3,25,2.3S47.7,12.4,47.7,25S37.6,47.7,25,47.7z"/>
				<path d="M31.8,13.6H18.2c-2.5,0-4.5,2-4.5,4.5v13.6c0,2.5,2,4.5,4.5,4.5h13.6c2.5,0,4.5-2,4.5-4.5V18.2
					C36.4,15.7,34.3,13.6,31.8,13.6z M29.5,17H33v3.4h-3.4V17z M25,20.5c2.5,0,4.5,2,4.5,4.5s-2,4.5-4.5,4.5s-4.5-2-4.5-4.5
					S22.5,20.5,25,20.5z M34.1,31.8c0,1.3-1,2.3-2.3,2.3H18.2c-1.3,0-2.3-1-2.3-2.3v-8h2.4c-0.7,3.7,1.8,7.3,5.5,7.9
					s7.3-1.8,7.9-5.5c0.1-0.4,0.1-0.9,0.1-1.3c0-0.4,0-0.8-0.1-1.1h2.4L34.1,31.8L34.1,31.8z"/>
			</g>
		</g>
	</g>
</g>
</svg>
