<?xml version="1.0" encoding="utf-8"?>
<!-- Generator: Adobe Illustrator 19.2.1, SVG Export Plug-In . SVG Version: 6.00 Build 0)  -->
<svg version="1.1" id="Icons" xmlns="http://www.w3.org/2000/svg" xmlns:xlink="http://www.w3.org/1999/xlink" x="0px" y="0px"
	 viewBox="0 0 50 50" style="enable-background:new 0 0 50 50;" xml:space="preserve">
<style type="text/css">
	.st0{fill:none;}
	.st1{fill:#030104;}
</style>
<g>
	<g>
		<g>
			<g>
				<path d="M22.7,19.3v2.3h-2.3V25h2.3v10.2h4.5V25h3l0.4-3.4h-3.4v-2c0-0.9,0.1-1.4,1.5-1.4h1.9v-3.4h-3
					C24,14.8,22.7,16.5,22.7,19.3z"/>
				<path d="M25,0C11.2,0,0,11.2,0,25s11.2,25,25,25s25-11.2,25-25S38.8,0,25,0z M25,47.7C12.4,47.7,2.3,37.6,2.3,25
					S12.4,2.3,25,2.3S47.7,12.4,47.7,25S37.6,47.7,25,47.7z"/>
			</g>
		</g>
	</g>
</g>
</svg>
