<?xml version="1.0" encoding="utf-8"?>
<!-- Generator: Adobe Illustrator 19.2.1, SVG Export Plug-In . SVG Version: 6.00 Build 0)  -->
<svg version="1.1" id="Icons" xmlns="http://www.w3.org/2000/svg" xmlns:xlink="http://www.w3.org/1999/xlink" x="0px" y="0px"
	 viewBox="0 0 50 50" style="enable-background:new 0 0 50 50;" xml:space="preserve">
<style type="text/css">
	.st0{fill:none;}
	.st1{fill:#030104;}
</style>
<g>
	<g>
		<g id="Sun_1_">
			<g>
				<path d="M8.6,25c0-1.2-1-2.1-2.1-2.1H2.1C1,22.9,0,23.8,0,25c0,1.2,1,2.1,2.1,2.1h4.3C7.6,27.1,8.6,26.2,8.6,25z M10.7,37.1
					c-0.6,0-1.1,0.2-1.5,0.6l-2.9,2.9C6,41,5.7,41.6,5.7,42.1c0,1.2,1,2.1,2.1,2.1c0.6,0,1.1-0.2,1.5-0.6l2.9-2.9
					c0.4-0.4,0.6-0.9,0.6-1.5C12.9,38.1,11.9,37.1,10.7,37.1z M25,8.6c1.2,0,2.1-1,2.1-2.1V2.1C27.1,1,26.2,0,25,0s-2.1,1-2.1,2.1
					v4.3C22.9,7.6,23.8,8.6,25,8.6z M39.3,12.9c0.6,0,1.1-0.2,1.5-0.6l2.9-2.9C44,9,44.3,8.4,44.3,7.9c0-1.2-1-2.1-2.1-2.1
					c-0.6,0-1.1,0.2-1.5,0.6l-2.9,2.9c-0.4,0.4-0.6,0.9-0.6,1.5C37.1,11.9,38.1,12.9,39.3,12.9z M9.2,12.2c0.4,0.4,0.9,0.6,1.5,0.6
					c1.2,0,2.1-1,2.1-2.1c0-0.6-0.2-1.1-0.6-1.5L9.4,6.3C9,6,8.4,5.7,7.9,5.7c-1.2,0-2.1,1-2.1,2.1C5.7,8.4,6,9,6.3,9.4L9.2,12.2z
					 M47.9,22.9h-4.3c-1.2,0-2.1,1-2.1,2.1s1,2.1,2.1,2.1h4.3c1.2,0,2.1-1,2.1-2.1C50,23.8,49,22.9,47.9,22.9z M40.8,37.8
					c-0.4-0.4-0.9-0.6-1.5-0.6c-1.2,0-2.1,1-2.1,2.1c0,0.6,0.2,1.1,0.6,1.5l2.9,2.9c0.4,0.4,0.9,0.6,1.5,0.6c1.2,0,2.1-1,2.1-2.1
					c0-0.6-0.2-1.1-0.6-1.5L40.8,37.8z M25,41.4c-1.2,0-2.1,1-2.1,2.1v4.3c0,1.2,1,2.1,2.1,2.1s2.1-1,2.1-2.1v-4.3
					C27.1,42.4,26.2,41.4,25,41.4z M25,10c-8.3,0-15,6.7-15,15s6.7,15,15,15s15-6.7,15-15S33.3,10,25,10z M25,38.1
					c0-11.6,0-10.9,0-26.2c7.2,0,13.1,5.9,13.1,13.1S32.2,38.1,25,38.1z"/>
			</g>
		</g>
	</g>
</g>
</svg>
