<?xml version="1.0" encoding="utf-8"?>
<!-- Generator: Adobe Illustrator 19.2.1, SVG Export Plug-In . SVG Version: 6.00 Build 0)  -->
<svg version="1.1" id="Icons" xmlns="http://www.w3.org/2000/svg" xmlns:xlink="http://www.w3.org/1999/xlink" x="0px" y="0px"
	 viewBox="0 0 50 50" style="enable-background:new 0 0 50 50;" xml:space="preserve">
<style type="text/css">
	.st0{fill:none;}
	.st1{fill:#030104;}
</style>
<g>
	<path d="M49.5,10l-6.2,6.2h-4.6h-2.5L35,17.3l-4.3,4.3l-2.7,2.7l-2.3,2.3c-0.3,0.3-0.8,0.5-1.2,0.5c-0.5,0-0.9-0.2-1.3-0.5
		c-0.6-0.7-0.6-1.8,0.1-2.5l4.5-4.5l0.3-0.3l0,0l4.3-4.3l0,0l1.1-1.1v-2.5V6.6l2.1-2.1l0,0l4-4C39.9,0.4,40,0.4,40,0.3c0,0,0,0,0,0
		c0.1,0,0.1-0.1,0.2-0.1c0,0,0,0,0,0c0.1,0,0.1-0.1,0.2-0.1c0,0,0,0,0,0c0.1,0,0.1,0,0.2,0c0,0,0,0,0,0c0.1,0,0.1,0,0.2,0
		c0,0,0,0,0,0c0.1,0,0.1,0,0.2,0c0,0,0,0,0,0c0.1,0,0.1,0,0.2,0c0,0,0,0,0,0c0.1,0,0.1,0,0.2,0.1c0,0,0,0,0,0c0.1,0,0.1,0,0.1,0.1
		c0,0,0,0,0,0c0.1,0,0.1,0.1,0.2,0.1c0,0,0,0,0,0c0,0,0.1,0.1,0.1,0.1c0,0,0,0,0,0c0,0,0.1,0.1,0.1,0.1c0,0,0,0,0,0
		c0,0,0.1,0.1,0.1,0.2c0,0,0,0,0,0c0,0.1,0.1,0.1,0.1,0.2c0,0,0,0,0,0c0,0.1,0,0.1,0,0.2c0,0,0,0,0,0.1c0,0.1,0,0.1,0,0.2l0.1,5.8
		l0.1,0l5.7,0.1c0.3,0,0.6,0.1,0.8,0.2c0.1,0.1,0.2,0.1,0.2,0.2c0.1,0.1,0.2,0.2,0.3,0.3s0.1,0.3,0.2,0.4C50,9.1,49.9,9.6,49.5,10z
		 M24.3,12.1c-7.5,0-13.7,6.1-13.7,13.7s6.1,13.7,13.7,13.7S38,33.3,38,25.8c0-1.9-0.4-3.6-1.1-5.2L32,25.5c0,0.1,0,0.2,0,0.3
		c0,4.2-3.5,7.7-7.7,7.7s-7.7-3.5-7.7-7.7c0-4.2,3.4-7.7,7.6-7.7l5-5C27.8,12.4,26.1,12.1,24.3,12.1z M45.9,18.7
		c-0.7,0.7-1.6,1.1-2.6,1.1h-2.8c0.7,1.9,1.1,3.9,1.1,6c0,9.5-7.8,17.3-17.3,17.3S7,35.3,7,25.8S14.8,8.5,24.3,8.5c2,0,4,0.4,5.8,1
		V6.6c0-1,0.4-1.9,1.1-2.6l1.1-1.1c-2.5-0.9-5.2-1.4-8-1.4C11,1.6,0.1,12.4,0.1,25.8S11,50,24.3,50s24.2-10.9,24.2-24.2
		c0-2.9-0.5-5.7-1.5-8.3L45.9,18.7z"/>
</g>
</svg>
