<?xml version="1.0" encoding="utf-8"?>
<!-- Generator: Adobe Illustrator 19.2.1, SVG Export Plug-In . SVG Version: 6.00 Build 0)  -->
<svg version="1.1" id="Icons" xmlns="http://www.w3.org/2000/svg" xmlns:xlink="http://www.w3.org/1999/xlink" x="0px" y="0px"
	 viewBox="0 0 50 50" style="enable-background:new 0 0 50 50;" xml:space="preserve">
<style type="text/css">
	.st0{fill:none;}
	.st1{fill:#030104;}
</style>
<g>
	<g>
		<g>
			<path d="M31.5,4.3c-0.4-0.8-0.9-1.6-1.5-2.2s-1.4-1.1-2.2-1.5C26.9,0.2,25.9,0,25,0c-0.9,0-1.9,0.2-2.7,0.6
				c-0.8,0.4-1.6,0.9-2.2,1.5c-0.6,0.6-1.1,1.4-1.5,2.2C18.2,5.1,18,6.1,18,7v23.7c-1,0.9-1.9,1.9-2.6,3.1c-0.9,1.6-1.4,3.4-1.4,5.3
				c0,1.5,0.3,2.9,0.9,4.3c0.6,1.3,1.3,2.5,2.3,3.5c1,1,2.2,1.8,3.5,2.3c1.3,0.6,2.8,0.9,4.3,0.9c1.5,0,2.9-0.3,4.3-0.9
				c1.3-0.6,2.5-1.3,3.5-2.3c1-1,1.8-2.2,2.3-3.5c0.6-1.3,0.9-2.8,0.9-4.3c0-1.8-0.5-3.7-1.4-5.3c-0.7-1.2-1.5-2.2-2.6-3.1V7
				C32,6.1,31.8,5.1,31.5,4.3z M33.6,39.1c0,4.8-3.9,8.6-8.6,8.6s-8.6-3.9-8.6-8.6c0-3,1.6-5.7,3.9-7.2V7c0-2.6,2.1-4.7,4.7-4.7l0,0
				c2.6,0,4.7,2.1,4.7,4.7v0.3h-4.1c-0.6,0-1.2,0.5-1.2,1.2s0.5,1.2,1.2,1.2h4.1V12h-4.1c-0.6,0-1.2,0.5-1.2,1.2
				c0,0.6,0.5,1.2,1.2,1.2h4.1v2.3h-4.1c-0.6,0-1.2,0.5-1.2,1.2c0,0.6,0.5,1.2,1.2,1.2h4.1v13C32.1,33.4,33.6,36,33.6,39.1z"/>
			<path d="M28.7,33.4l-0.8-0.5v-1v-8.3c0-1.6-1.3-2.9-2.9-2.9c-1.6,0-2.9,1.3-2.9,2.9v8.3v1l-0.8,0.5c-1.9,1.3-3.1,3.4-3.1,5.7
				c0,1.8,0.7,3.5,2,4.8c1.3,1.3,3,2,4.8,2c1.8,0,3.5-0.7,4.8-2c1.3-1.3,2-3,2-4.8C31.8,36.8,30.7,34.6,28.7,33.4z"/>
		</g>
	</g>
</g>
</svg>
