<?xml version="1.0" encoding="utf-8"?>
<!-- Generator: Adobe Illustrator 19.2.1, SVG Export Plug-In . SVG Version: 6.00 Build 0)  -->
<svg version="1.1" id="Icons" xmlns="http://www.w3.org/2000/svg" xmlns:xlink="http://www.w3.org/1999/xlink" x="0px" y="0px"
	 viewBox="0 0 50 50" style="enable-background:new 0 0 50 50;" xml:space="preserve">
<style type="text/css">
	.st0{fill:none;}
	.st1{fill:#030104;}
</style>
<g>
	<g>
		<g>
			<path d="M45,7.5H22.2L20,0H5C2.2,0,0,2.2,0,5v32.5c0,2.8,2.2,5,5,5h17.5L25,50h20c2.8,0,5-2.2,5-5V12.5C50,9.7,47.8,7.5,45,7.5z
				 M12.9,31.5c-5.6,0-10.2-4.6-10.2-10.2S7.3,11,12.9,11c2.6,0,5,0.9,6.8,2.7l0.2,0.2l-3.1,2.9l-0.2-0.1c-0.7-0.7-1.9-1.5-3.8-1.5
				c-3.3,0-5.9,2.7-5.9,6.1s2.7,6.1,5.9,6.1c3.4,0,4.9-2.2,5.3-3.7h-5.5v-3.9h9.9l0,0.2c0.1,0.5,0.1,1,0.1,1.5
				C22.7,27.4,18.7,31.5,12.9,31.5z M26.7,22.7h10c0,0-0.8,3.3-3.9,6.8c-1.3-1.5-2.3-3-2.8-4.2h-2.5L26.7,22.7z M31,31.5l-1.3,1.3
				L28,27.2C28.8,28.7,29.8,30.1,31,31.5z M47.5,45c0,1.4-1.1,2.5-2.5,2.5H27.5l5-5l-2-6.9l2.3-2.3l6.7,6.7l1.8-1.8l-6.8-6.7
				c2.2-2.6,4-5.6,4.8-8.8h3.2v-2.6h-9.1v-2.6h-2.6v2.6h-4.9l-3-10.1H45c1.4,0,2.5,1.1,2.5,2.5V45z"/>
		</g>
	</g>
</g>
</svg>
