<!-- Generated by IcoMoon.io -->
<svg version="1.1" xmlns="http://www.w3.org/2000/svg" width="32" height="32" viewBox="0 0 32 32">
<title>air-conditioner</title>
<path d="M3.008 17.024h1.28c0 0 0.128-0.64 0.32-1.472s1.664-1.472 3.328-1.472h16.512c1.664 0 3.072 0.64 3.2 1.472l0.192 1.472h1.152c1.664 0 3.008-1.344 3.008-3.008v-5.568c0-1.408-0.96-2.56-2.24-2.88 0.064 0.256 0.128 0.576 0.128 0.896v1.216c0 1.984-1.6 3.584-3.584 3.584h-20.608c-1.984 0-3.584-1.6-3.584-3.584v-1.216c0-0.32 0.064-0.576 0.128-0.896-1.28 0.32-2.24 1.472-2.24 2.88v5.632c0 1.6 1.344 2.944 3.008 2.944z"></path>
<path d="M5.696 10.048h20.608c1.344 0 2.368-1.088 2.368-2.432v-1.216c0-0.384-0.064-0.704-0.256-1.024h-24.96c-0.128 0.32-0.256 0.64-0.256 1.024v1.28c0.128 1.28 1.152 2.368 2.496 2.368zM4.48 6.528h22.656c0.192 0 0.32 0.128 0.32 0.32s-0.128 0.32-0.32 0.32h-22.656c-0.192 0-0.32-0.128-0.32-0.32 0.064-0.192 0.192-0.32 0.32-0.32zM4.48 8.384h22.656c0.192 0 0.32 0.128 0.32 0.32s-0.128 0.32-0.32 0.32h-22.656c-0.192 0-0.32-0.128-0.32-0.32 0.064-0.192 0.192-0.32 0.32-0.32z"></path>
<path d="M26.688 15.936c-0.064-0.576-1.472-1.088-3.136-1.088h-14.912c-1.664 0-3.072 0.512-3.2 1.088s-0.192 1.088-0.192 1.088h21.632l-0.192-1.088z"></path>
<path d="M7.296 26.432c0.128 0.128 0.256 0.128 0.384 0.128 0.192 0 0.32-0.064 0.448-0.192 0.064-0.128 2.24-2.624 0.64-4.736-0.896-1.152-0.256-1.792-0.064-1.92 0.256-0.192 0.32-0.576 0.064-0.832-0.192-0.256-0.576-0.32-0.832-0.064-0.64 0.512-1.472 1.92-0.064 3.648 1.024 1.28-0.576 3.136-0.576 3.2-0.32 0.128-0.256 0.512 0 0.768z"></path>
<path d="M12.544 26.432c0.128 0.128 0.256 0.128 0.384 0.128 0.192 0 0.32-0.064 0.448-0.192 0.064-0.128 2.24-2.624 0.64-4.736-0.896-1.152-0.256-1.792-0.064-1.92 0.256-0.192 0.32-0.576 0.064-0.832-0.192-0.256-0.576-0.32-0.832-0.064-0.64 0.512-1.472 1.92-0.064 3.648 1.024 1.28-0.576 3.136-0.576 3.2-0.32 0.128-0.256 0.512 0 0.768z"></path>
<path d="M17.792 26.432c0.128 0.128 0.256 0.128 0.384 0.128 0.192 0 0.32-0.064 0.448-0.192 0.064-0.128 2.24-2.624 0.64-4.736-0.896-1.152-0.256-1.792-0.064-1.92 0.256-0.192 0.32-0.576 0.064-0.832-0.192-0.256-0.576-0.32-0.832-0.064-0.64 0.512-1.472 1.92-0.064 3.648 1.024 1.28-0.576 3.136-0.576 3.2-0.32 0.128-0.256 0.512 0 0.768z"></path>
<path d="M23.040 26.432c0.128 0.128 0.256 0.128 0.384 0.128 0.192 0 0.32-0.064 0.448-0.192 0.064-0.128 2.24-2.624 0.64-4.736-0.896-1.152-0.256-1.792-0.064-1.92 0.256-0.192 0.32-0.576 0.064-0.832-0.192-0.256-0.576-0.32-0.832-0.064-0.64 0.512-1.472 1.92-0.064 3.648 1.024 1.28-0.576 3.136-0.576 3.2-0.32 0.128-0.256 0.512 0 0.768z"></path>
</svg>
