<!-- Generated by IcoMoon.io -->
<svg version="1.1" xmlns="http://www.w3.org/2000/svg" width="32" height="32" viewBox="0 0 32 32">
<title>animal-footprints</title>
<path d="M7.616 4.096c-0.768-1.216-2.176-1.664-3.264-0.96-0.512 0.256-0.832 0.768-0.96 1.28-0.128 0.64 0 1.344 0.384 1.984 0.384 0.576 0.96 1.152 1.6 1.472 0.448 0.192 0.832 0.32 1.216 0.32 0.32 0 0.576-0.064 0.832-0.192 0.384-0.192 0.64-0.576 0.704-1.088 0.256-0.832 0-1.984-0.512-2.816zM7.232 6.72c-0.064 0.192-0.128 0.384-0.32 0.512-0.064 0.064-0.192 0.064-0.32 0.064-0.64 0-1.536-0.576-2.048-1.344-0.256-0.448-0.384-0.896-0.256-1.28 0.064-0.32 0.256-0.576 0.512-0.704 0.192-0.128 0.384-0.192 0.64-0.192 0.512 0 1.024 0.32 1.344 0.832 0.448 0.64 0.64 1.472 0.448 2.112z"></path>
<path d="M4.544 9.024c-0.192-0.576-0.576-1.216-1.024-1.6-0.96-0.832-2.24-0.832-3.008 0-0.384 0.384-0.512 0.96-0.448 1.472s0.384 1.088 0.832 1.472c0.448 0.384 1.088 0.704 1.728 0.832 0.192 0.064 0.384 0.064 0.512 0.064 0.512 0 0.896-0.192 1.216-0.448 0.32-0.448 0.384-1.088 0.192-1.792zM3.648 10.176c-0.128 0.128-0.448 0.192-0.832 0.128-0.448-0.064-0.96-0.32-1.28-0.64-0.32-0.256-0.512-0.576-0.512-0.896-0.064-0.256 0.064-0.576 0.192-0.768 0.192-0.192 0.448-0.32 0.704-0.32 0.32 0 0.64 0.128 0.96 0.384 0.576 0.64 1.088 1.728 0.768 2.112z"></path>
<path d="M12.736 2.496c-0.32-0.448-0.832-0.768-1.408-0.832-0.96-0.128-1.856 0.384-2.304 1.28-0.128 0.256 0 0.512 0.192 0.64 0.256 0.128 0.512 0 0.64-0.192 0.32-0.576 0.832-0.832 1.344-0.768 0.32 0.064 0.576 0.192 0.768 0.448 0.256 0.32 0.32 0.768 0.256 1.28-0.192 1.088-1.088 2.176-1.664 2.112-0.448-0.064-0.832-0.768-0.96-1.6 0-0.256-0.256-0.448-0.512-0.384-0.256 0-0.448 0.256-0.384 0.512 0.128 1.088 0.704 2.304 1.728 2.432 0.064 0 0.128 0 0.192 0 0.576 0 1.152-0.32 1.6-0.896s0.832-1.28 0.896-1.984c0.192-0.768 0-1.472-0.384-2.048z"></path>
<path d="M17.6 5.312c-0.128-0.512-0.512-0.96-1.024-1.216s-1.024-0.256-1.536 0c-0.512 0.192-0.896 0.64-1.216 1.216-0.256 0.576-0.384 1.28-0.32 1.856 0.064 0.768 0.384 1.344 0.896 1.536 0.192 0.064 0.384 0.128 0.576 0.128 0.96 0 1.984-0.96 2.432-1.856 0.32-0.512 0.384-1.152 0.192-1.664zM16.576 6.592c-0.32 0.704-1.28 1.536-1.792 1.28-0.448-0.192-0.384-1.472-0.064-2.176 0.192-0.384 0.448-0.64 0.704-0.768 0.128-0.064 0.256-0.064 0.384-0.064s0.256 0 0.384 0.064c0.256 0.128 0.448 0.32 0.512 0.576 0.128 0.384 0.064 0.704-0.128 1.088z"></path>
<path d="M15.808 12.096c-0.192-1.024-0.832-1.92-1.792-2.624-0.192-0.128-0.512-0.128-0.64 0.128-0.128 0.192-0.128 0.512 0.128 0.64 0.768 0.576 1.28 1.28 1.408 2.048 0.192 0.832-0.128 1.472-0.896 1.984-0.704 0.448-1.792 0.832-3.456 1.216-1.152 0.256-2.048 0.32-2.752 0.32-1.92 0-2.368-0.768-2.496-1.536-0.384-1.856 1.28-4.352 4.032-4.928 0.832-0.192 1.728-0.128 2.624 0.128 0.256 0.064 0.512-0.064 0.576-0.32s-0.064-0.512-0.32-0.576c-0.96-0.32-2.048-0.32-3.072-0.128-1.472 0.32-2.816 1.152-3.712 2.304s-1.28 2.496-1.024 3.712c0.256 1.216 1.024 1.92 2.368 2.176 0.32 0.064 0.704 0.064 1.088 0.064 0.768 0 1.728-0.128 2.944-0.384 1.792-0.384 2.944-0.768 3.776-1.344 1.024-0.704 1.472-1.664 1.216-2.88z"></path>
<path d="M22.080 14.784c-0.576 0-1.088 0.192-1.536 0.576-0.512 0.448-0.768 1.152-0.768 1.92 0 0.704 0.192 1.472 0.512 2.112 0.448 0.768 1.024 1.216 1.6 1.216 0 0 0.064 0 0.064 0 0.384 0 0.832-0.192 1.152-0.512 0.64-0.576 1.088-1.664 1.088-2.624 0.128-1.472-0.832-2.624-2.112-2.688zM23.296 17.408c0 0.704-0.384 1.536-0.832 1.984-0.128 0.128-0.32 0.256-0.512 0.256-0.64 0-1.28-1.28-1.28-2.368 0-0.512 0.192-0.96 0.512-1.216 0.192-0.192 0.512-0.32 0.768-0.32 0 0 0.064 0 0.064 0 0.768 0 1.344 0.704 1.28 1.664z"></path>
<path d="M18.944 17.856c-0.192-0.576-0.512-1.088-0.96-1.408s-1.024-0.384-1.536-0.256c-1.088 0.32-1.664 1.472-1.344 2.688 0.128 0.576 0.512 1.216 0.96 1.664s0.896 0.64 1.344 0.64c0.128 0 0.192 0 0.32-0.064 1.216-0.256 1.536-2.112 1.216-3.264zM17.536 20.224c-0.192 0.064-0.512-0.064-0.768-0.384-0.32-0.32-0.576-0.768-0.704-1.216-0.192-0.768 0.064-1.408 0.64-1.536 0.064 0 0.128 0 0.256 0 0.192 0 0.384 0.064 0.512 0.192 0.256 0.192 0.448 0.512 0.576 0.896 0.192 0.704 0 1.92-0.512 2.048z"></path>
<path d="M29.376 18.944c0-0.576-0.256-1.088-0.704-1.472-0.704-0.64-1.728-0.704-2.624-0.256-0.256 0.128-0.32 0.384-0.192 0.64s0.384 0.32 0.64 0.192c0.576-0.32 1.152-0.256 1.536 0.128 0.256 0.192 0.384 0.512 0.384 0.832 0 0.384-0.192 0.832-0.512 1.216-0.768 0.768-2.112 1.216-2.56 0.832-0.32-0.32-0.256-1.088 0.128-1.856 0.128-0.256 0-0.512-0.192-0.64-0.256-0.128-0.512 0-0.64 0.192-0.512 0.96-0.704 2.304 0.064 3.008 0.32 0.256 0.704 0.384 1.152 0.384 0.256 0 0.576-0.064 0.832-0.128 0.704-0.192 1.408-0.64 1.856-1.152 0.64-0.576 0.896-1.216 0.832-1.92z"></path>
<path d="M31.744 22.464c-0.576-0.96-1.856-1.216-2.944-0.512-0.512 0.32-1.024 0.832-1.344 1.344-0.384 0.64-0.448 1.28-0.128 1.792 0.256 0.448 0.832 0.768 1.6 0.768 0 0 0 0 0 0 0.64 0 1.344-0.192 1.856-0.512s0.96-0.768 1.088-1.28c0.192-0.576 0.128-1.152-0.128-1.6zM30.976 23.68c-0.128 0.32-0.32 0.576-0.704 0.768-0.384 0.256-0.896 0.384-1.344 0.384-0.384 0-0.704-0.128-0.832-0.256-0.128-0.192-0.064-0.512 0.128-0.832 0.256-0.384 0.576-0.768 0.96-1.024 0.64-0.384 1.344-0.32 1.664 0.192 0.256 0.256 0.256 0.512 0.128 0.768z"></path>
<path d="M26.56 25.472c-0.064-0.256-0.384-0.384-0.576-0.256-0.256 0.064-0.384 0.384-0.256 0.576 0.32 0.896 0.32 1.792 0.064 2.496-0.384 1.024-1.408 1.856-5.376 0.192-1.536-0.64-2.56-1.216-3.2-1.792-0.704-0.64-0.832-1.344-0.512-2.112 0.384-0.896 1.216-1.6 2.368-1.984 1.216-0.384 2.56-0.384 3.712 0.128 0.832 0.32 1.536 0.832 2.112 1.536 0.192 0.192 0.448 0.256 0.64 0.064s0.256-0.448 0.064-0.64c-0.64-0.768-1.536-1.408-2.432-1.792-1.408-0.576-2.944-0.64-4.352-0.128-1.408 0.448-2.432 1.408-2.88 2.496-0.448 1.152-0.192 2.176 0.768 3.136 0.704 0.704 1.792 1.344 3.456 1.984 1.664 0.704 2.88 1.024 3.904 1.024 0 0 0 0 0 0 1.344 0 2.24-0.576 2.688-1.728 0.256-0.96 0.256-2.112-0.192-3.2z"></path>
</svg>
