<!-- Generated by IcoMoon.io -->
<svg version="1.1" xmlns="http://www.w3.org/2000/svg" width="32" height="32" viewBox="0 0 32 32">
<title>badminton-racket</title>
<path d="M29.312 24.384h-1.536l-6.272-2.112c-0.256-0.064-0.576-0.064-0.832 0.128l-1.984 1.664 1.664 1.408-1.6 1.6 1.6 1.6-1.664 1.408 1.984 1.664c0.128 0.128 0.32 0.192 0.512 0.192 0.064 0 0.192 0 0.256-0.064l6.272-2.112h1.536c1.472 0 2.688-1.216 2.688-2.688 0.064-1.472-1.152-2.688-2.624-2.688zM21.312 23.424l5.824 1.92v0.576l-5.76-0.96-1.024-0.832 0.96-0.704zM21.376 26.048l5.76 0.96v0.192l-5.76 0.96-1.024-1.024 1.024-1.088zM21.312 30.848l-0.896-0.768 1.024-0.832 5.696-0.96v0.576l-5.824 1.984z"></path>
<path d="M16.32 11.392h1.088v1.088h-1.088v-1.088z"></path>
<path d="M0.384 28.032c-0.512 0.512-0.512 1.28-0.064 1.792l0.448 0.448c0.192 0.192 0.512 0.32 0.832 0.32s0.704-0.128 0.96-0.384l3.456-3.456-2.176-2.176-3.456 3.456z"></path>
<path d="M28.544 2.432c-1.536-1.536-3.648-2.368-6.080-2.368-3.392 0-6.848 1.6-9.6 4.288-3.136 3.136-4.736 7.36-4.224 11.072 0.192 1.344-0.064 2.624-0.704 3.712l-0.064 0.064c-0.512 0.512-0.704 1.28-0.512 1.92l-2.752 2.752 2.176 2.176 2.752-2.752c0.64 0.128 1.472-0.064 1.92-0.512 0.96-0.64 2.176-0.832 3.328-0.576 0.704 0.192 1.472 0.256 2.176 0.256 3.392 0 6.848-1.6 9.6-4.288 4.928-4.928 5.76-11.968 1.984-15.744zM12.288 20.096c-1.216 0-2.176-1.216-2.176-2.688 0-0.32 0.256-0.512 0.512-0.512 0.32 0 0.512 0.256 0.512 0.512 0 0.896 0.512 1.6 1.088 1.6 0.32 0 0.512 0.256 0.512 0.512 0.128 0.32-0.128 0.576-0.448 0.576zM20.608 13.568h-2.176v1.088c0 0.32-0.256 0.512-0.512 0.512s-0.512-0.256-0.512-0.512v-1.088h-1.088v1.6c0 0.32-0.256 0.512-0.512 0.512-0.32 0-0.512-0.256-0.512-0.512v-1.6h-1.088c-0.32 0-0.512-0.256-0.512-0.512 0-0.32 0.256-0.512 0.512-0.512h1.088v-1.088h-2.176c-0.32 0-0.512-0.256-0.512-0.512s0.256-0.512 0.512-0.512h2.176v-1.28c0-0.32 0.256-0.512 0.512-0.512 0.32 0 0.512 0.256 0.512 0.512v1.28h1.088v-2.176c0-0.32 0.256-0.512 0.512-0.512s0.512 0.256 0.512 0.512v2.176h0.768c0.32 0 0.512 0.256 0.512 0.512s-0.256 0.512-0.512 0.512h-0.704v1.088h2.176c0.32 0 0.512 0.256 0.512 0.512s-0.256 0.512-0.576 0.512z"></path>
</svg>
