<!-- Generated by IcoMoon.io -->
<svg version="1.1" xmlns="http://www.w3.org/2000/svg" width="32" height="32" viewBox="0 0 32 32">
<title>barbecue</title>
<path d="M23.744 30.912h-1.216l-2.368-12.736c2.368-1.408 3.904-3.84 4.096-6.592h-4.416v0.576c0 0.896-0.768 1.664-1.664 1.664h-4.416c-0.896 0-1.664-0.768-1.664-1.664v-0.576h-4.416c0.192 2.944 1.92 5.504 4.544 6.848l-1.792 8.064c-1.408 0-2.56 1.088-2.752 2.496-0.128 1.408 0.832 2.688 2.24 2.944s2.752-0.576 3.2-1.92c0.384-1.344-0.256-2.816-1.6-3.328l0.64-2.944h7.872l1.344 7.168h-0.96c-0.32 0-0.576 0.256-0.576 0.576s0.256 0.576 0.576 0.576h3.328c0.32 0 0.576-0.256 0.576-0.576-0.064-0.32-0.32-0.576-0.576-0.576zM12.48 22.592l0.832-3.776c1.92 0.64 3.968 0.64 5.824-0.128l0.704 3.904h-7.36z"></path>
<path d="M19.072 2.688c0 0 0 0 0 0-1.024-0.32-2.048-0.448-3.072-0.448-4.352 0-7.872 2.688-8.256 6.080h16.512c-0.256-2.56-2.304-4.736-5.184-5.632z"></path>
<path d="M18.368 1.344c-0.512-0.832-1.408-1.344-2.368-1.344s-1.856 0.512-2.368 1.344c1.536-0.32 3.2-0.32 4.736 0z"></path>
<path d="M25.92 9.408h-19.84c-0.32 0-0.576 0.256-0.576 0.576s0.256 0.576 0.576 0.576h19.84c0.32 0 0.576-0.256 0.576-0.576 0-0.384-0.256-0.576-0.576-0.576z"></path>
<path d="M18.176 12.672c0.32 0 0.576-0.256 0.576-0.576v-0.576h-5.504v0.64c0 0.32 0.256 0.576 0.576 0.576h4.352z"></path>
</svg>
