<!-- Generated by IcoMoon.io -->
<svg version="1.1" xmlns="http://www.w3.org/2000/svg" width="32" height="32" viewBox="0 0 32 32">
<title>beach</title>
<path d="M5.376 4.224c-1.664 0-3.008 1.344-3.008 3.008s1.344 3.008 3.008 3.008c1.664 0 3.008-1.344 3.008-3.008s-1.344-3.008-3.008-3.008zM5.376 9.344c-1.152 0-2.112-0.96-2.112-2.112s0.96-2.112 2.112-2.112 2.112 0.96 2.112 2.112-0.96 2.112-2.112 2.112z"></path>
<path d="M5.376 1.856c-0.256 0-0.512 0.256-0.512 0.512v0.96c0 0.256 0.192 0.448 0.448 0.448s0.448-0.192 0.448-0.448v-0.96c0.064-0.256-0.128-0.512-0.384-0.512z"></path>
<path d="M9.152 3.456c-0.192-0.192-0.512-0.192-0.64 0l-0.64 0.64c-0.192 0.192-0.192 0.512 0 0.64 0.064 0.064 0.192 0.128 0.32 0.128s0.256-0.064 0.32-0.128l0.64-0.64c0.192-0.192 0.192-0.448 0-0.64z"></path>
<path d="M10.24 6.784h-0.96c-0.256 0-0.448 0.192-0.448 0.448s0.192 0.448 0.448 0.448h0.96c0.256 0 0.448-0.192 0.448-0.448s-0.192-0.448-0.448-0.448z"></path>
<path d="M9.152 10.368l-0.64-0.64c-0.192-0.192-0.512-0.192-0.64 0s-0.192 0.512 0 0.64l0.64 0.64c0.064 0.064 0.192 0.128 0.32 0.128s0.256-0.064 0.32-0.128c0.192-0.192 0.192-0.448 0-0.64z"></path>
<path d="M5.376 10.688c-0.256 0-0.448 0.192-0.448 0.448v0.96c0 0.256 0.192 0.448 0.448 0.448s0.448-0.192 0.448-0.448v-0.96c0-0.256-0.192-0.448-0.448-0.448z"></path>
<path d="M2.88 9.664c-0.192-0.192-0.512-0.192-0.64 0l-0.64 0.64c-0.192 0.192-0.192 0.512 0 0.64 0.064 0.064 0.192 0.128 0.32 0.128s0.256-0.064 0.32-0.128l0.64-0.64c0.192-0.128 0.192-0.448 0-0.64z"></path>
<path d="M1.408 6.784h-0.96c-0.256 0-0.448 0.192-0.448 0.448s0.192 0.448 0.448 0.448h0.96c0.256 0 0.448-0.192 0.448-0.448s-0.192-0.448-0.448-0.448z"></path>
<path d="M2.88 4.096l-0.64-0.64c-0.192-0.192-0.512-0.192-0.64 0s-0.192 0.512 0 0.64l0.64 0.64c0.064 0.128 0.192 0.192 0.32 0.192s0.256-0.064 0.32-0.128c0.192-0.192 0.192-0.512 0-0.704z"></path>
<path d="M31.744 28.544c-0.832-0.576-1.792-0.832-2.688-0.768-0.896-1.216-2.496-2.24-4.736-2.944-1.408-0.448-2.944-0.832-4.608-1.024l3.328-8.448c0.512 0.384 0.96 0.832 1.344 1.28 0.128 0.192 0.32 0.256 0.512 0.192 1.088-0.192 2.304-0.064 3.392 0.384 1.152 0.448 2.112 1.152 2.752 2.112 0.064 0.128 0.256 0.192 0.384 0.192 0.064 0 0.064 0 0.128 0 0.192-0.064 0.32-0.192 0.384-0.384 0-0.128 0.448-3.072-0.576-6.336-0.064-0.256-0.32-0.384-0.576-0.32s-0.384 0.32-0.32 0.576c0.576 1.856 0.64 3.712 0.576 4.8-0.64-0.64-1.472-1.152-2.368-1.536-1.024-0.384-2.112-0.576-3.2-0.512 0 0 0-0.064 0-0.064 0.384-1.152 0.64-2.304 0.768-3.456 0.128-1.088 0.128-2.176 0-3.264-0.064-0.64-0.192-1.216-0.384-1.856 0 0 0 0 0 0 1.664 0.896 3.008 2.24 3.84 4.032 0.128 0.256 0.384 0.32 0.64 0.192s0.32-0.384 0.192-0.64c-1.152-2.304-3.008-4.032-5.44-4.992-3.392-1.344-6.848-0.896-10.112 1.28-2.432 1.6-3.84 3.584-3.904 3.712-0.128 0.128-0.128 0.384 0 0.512 0.128 0.192 0.32 0.256 0.512 0.192 1.152-0.192 2.304-0.064 3.456 0.384 1.088 0.448 2.048 1.152 2.752 2.048 0.128 0.192 0.32 0.256 0.512 0.192 0.576-0.128 1.216-0.128 1.856-0.064l-3.776 9.408c-0.064 0-0.192 0-0.256 0-2.176 0-4.224 0.192-6.144 0.64-0.256 0.064-0.384 0.32-0.384 0.576 0.064 0.256 0.32 0.384 0.576 0.384 1.856-0.384 3.904-0.64 5.952-0.64 0.96 0 1.984 0.064 2.944 0.128 0 0 0 0 0 0 1.792 0.192 3.52 0.512 4.992 1.024 1.792 0.576 3.2 1.408 3.968 2.24-0.384 0.128-0.832 0.32-1.152 0.576-1.152 0.832-2.688 0.832-3.904 0-1.472-1.024-3.456-1.024-4.928 0-1.152 0.832-2.688 0.832-3.904 0-1.472-1.024-3.456-1.024-4.928 0-1.152 0.832-2.688 0.832-3.904 0-0.448 0-0.832-0.192-1.216-0.32 0.832-0.896 2.176-1.664 3.968-2.24 0.256-0.064 0.384-0.32 0.32-0.576s-0.32-0.384-0.576-0.32c-2.24 0.768-3.904 1.792-4.736 2.944-0.96-0.064-1.92 0.192-2.688 0.768-0.192 0.128-0.256 0.448-0.128 0.64s0.448 0.256 0.64 0.128c0.704-0.448 1.536-0.64 2.304-0.576 0 0 0.064 0 0.064 0 0.512 0.064 1.024 0.256 1.472 0.576 1.472 1.024 3.456 1.024 4.928 0 1.152-0.832 2.688-0.832 3.904 0 1.472 1.024 3.456 1.024 4.928 0 1.152-0.832 2.688-0.832 3.904 0 0.768 0.512 1.6 0.768 2.496 0.768 0.832 0 1.728-0.256 2.496-0.768 0.448-0.32 0.96-0.512 1.472-0.576 0 0 0.064 0 0.064 0 0.768-0.064 1.6 0.128 2.304 0.576 0.192 0.128 0.512 0.064 0.64-0.128 0.192-0.256 0.128-0.512-0.128-0.704zM18.88 13.184c0 0 0 0 0 0 0.448-0.96 0.96-1.856 1.536-2.688 0.128-0.192 0.128-0.512-0.128-0.64-0.192-0.128-0.512-0.128-0.64 0.128-0.448 0.64-0.896 1.344-1.28 2.112-0.128 0.256-0.256 0.512-0.384 0.768 0 0 0 0 0 0-0.704-0.768-1.6-1.344-2.624-1.792-0.896-0.384-1.856-0.512-2.816-0.512 0.64-0.704 1.664-1.728 3.008-2.624s2.688-1.472 4.096-1.728c1.344-0.256 2.688-0.192 4.032 0.192 0 0 0 0 0 0-0.704 0.384-1.408 0.896-1.984 1.472-0.256 0.192-0.448 0.448-0.704 0.64-0.192 0.192-0.192 0.512 0 0.64s0.512 0.192 0.64 0c0.576-0.64 1.28-1.216 2.048-1.664 0.32-0.192 0.704-0.384 1.088-0.576 0.128 0.192 0.256 0.576 0.32 0.96 0.576 2.048 0.384 4.224-0.064 6.272-0.128 0.448-0.256 0.896-0.384 1.28 0 0 0 0 0 0-0.64-0.704-1.408-1.216-2.304-1.6 0 0 0 0-0.064 0-1.088-0.448-2.24-0.704-3.392-0.64zM18.752 23.744c-0.192 0-0.448-0.064-0.64-0.064-0.256 0-0.512 0-0.704-0.064l3.712-9.28c0.192 0.064 0.448 0.128 0.64 0.256 0.064 0 0.576 0.256 0.576 0.256l-3.584 8.896z"></path>
</svg>
