<!-- Generated by IcoMoon.io -->
<svg version="1.1" xmlns="http://www.w3.org/2000/svg" width="32" height="32" viewBox="0 0 32 32">
<title>bed</title>
<path d="M30.72 16.64h-29.44c-0.704 0-1.28 0.576-1.28 1.28v1.472c0 0.128 0.128 0.256 0.256 0.256s0.256-0.128 0.256-0.256v-1.472c0-0.384 0.32-0.768 0.768-0.768h29.44c0.384 0 0.768 0.32 0.768 0.768v1.472c0 0.128 0.128 0.256 0.256 0.256s0.256-0.128 0.256-0.256v-1.472c0-0.704-0.576-1.28-1.28-1.28z"></path>
<path d="M30.272 23.104h-28.544c-0.128 0-0.256 0.128-0.256 0.256s0.128 0.256 0.256 0.256h28.48c0.128 0 0.256-0.128 0.256-0.256s-0.064-0.256-0.192-0.256z"></path>
<path d="M31.744 19.136h-3.008c-0.128 0-0.256 0.128-0.256 0.256s0.128 0.256 0.256 0.256h2.752v3.776c0 0.128 0.128 0.256 0.256 0.256s0.256-0.128 0.256-0.256v-3.968c0-0.192-0.128-0.32-0.256-0.32z"></path>
<path d="M26.752 19.136h-26.496c-0.128 0-0.256 0.128-0.256 0.256v3.968c0 0.128 0.128 0.256 0.256 0.256s0.256-0.128 0.256-0.256v-3.776h26.24c0.128 0 0.256-0.128 0.256-0.256 0-0.064-0.128-0.192-0.256-0.192z"></path>
<path d="M1.728 23.104c-0.128 0-0.256 0.128-0.256 0.256v2.496h-0.96v-2.496c0-0.128-0.128-0.256-0.256-0.256s-0.256 0.128-0.256 0.256v2.752c0 0.128 0.128 0.256 0.256 0.256h1.472c0.128 0 0.256-0.128 0.256-0.256v-2.752c0-0.128-0.064-0.256-0.256-0.256z"></path>
<path d="M31.744 23.104c-0.128 0-0.256 0.128-0.256 0.256v2.496h-1.024v-2.496c0-0.128-0.128-0.256-0.256-0.256s-0.256 0.128-0.256 0.256v2.752c0 0.128 0.128 0.256 0.256 0.256h1.472c0.128 0 0.256-0.128 0.256-0.256v-2.752c0.064-0.128-0.064-0.256-0.192-0.256z"></path>
<path d="M29.248 5.632h-26.496c-0.704 0-1.28 0.576-1.28 1.28v6.272c0 0.128 0.128 0.256 0.256 0.256s0.256-0.128 0.256-0.256v-6.272c0-0.384 0.32-0.768 0.768-0.768h26.496c0.384 0 0.768 0.32 0.768 0.768v6.272c0 0.128 0.128 0.256 0.256 0.256s0.256-0.128 0.256-0.256v-6.272c0-0.704-0.576-1.28-1.28-1.28z"></path>
<path d="M1.856 12.864c-0.128-0.064-0.256 0-0.32 0.128l-1.472 4.48c-0.064 0.128 0 0.256 0.128 0.32 0 0 0.064 0 0.064 0 0.128 0 0.192-0.064 0.256-0.192l1.472-4.48c0.064-0.064 0-0.192-0.128-0.256z"></path>
<path d="M32 17.536l-1.472-4.48c-0.064-0.128-0.192-0.192-0.32-0.128s-0.192 0.192-0.128 0.32l1.472 4.48c0.064 0.128 0.128 0.192 0.256 0.192 0 0 0.064 0 0.064 0 0.064-0.128 0.128-0.256 0.128-0.384z"></path>
<path d="M30.272 12.864h-2.24c-0.128 0-0.256 0.128-0.256 0.256s0.128 0.256 0.256 0.256h2.24c0.128 0 0.256-0.128 0.256-0.256s-0.128-0.256-0.256-0.256z"></path>
<path d="M3.968 12.864h-2.24c-0.128 0-0.256 0.128-0.256 0.256s0.128 0.256 0.256 0.256h2.24c0.128 0 0.256-0.128 0.256-0.256s-0.064-0.256-0.256-0.256z"></path>
<path d="M16 9.6c0.128 0 0.256-0.128 0.256-0.256v-0.256c0-0.704-0.576-1.28-1.28-1.28h-9.984c-0.704 0-1.28 0.576-1.28 1.28v3.968c0 0.704 0.576 1.28 1.28 1.28h9.984c0.704 0 1.28-0.576 1.28-1.28v-1.984c0-0.128-0.128-0.256-0.256-0.256s-0.256 0.128-0.256 0.256v1.984c0 0.384-0.32 0.768-0.768 0.768h-9.984c-0.384 0-0.768-0.32-0.768-0.768v-3.968c0-0.384 0.32-0.768 0.768-0.768h9.984c0.384 0 0.768 0.32 0.768 0.768v0.256c0 0.192 0.128 0.256 0.256 0.256z"></path>
<path d="M27.008 7.872h-9.984c-0.704 0-1.28 0.576-1.28 1.28 0 0.128 0.128 0.256 0.256 0.256s0.256-0.128 0.256-0.256c0-0.384 0.32-0.768 0.768-0.768h9.984c0.384 0 0.768 0.32 0.768 0.768v3.968c0 0.384-0.32 0.768-0.768 0.768h-9.984c-0.384 0-0.768-0.32-0.768-0.768 0-0.128-0.128-0.256-0.256-0.256s-0.256 0.128-0.256 0.256c0 0.704 0.576 1.28 1.28 1.28h9.984c0.704 0 1.28-0.576 1.28-1.28v-3.968c-0.064-0.704-0.576-1.28-1.28-1.28z"></path>
</svg>
