<!-- Generated by IcoMoon.io -->
<svg version="1.1" xmlns="http://www.w3.org/2000/svg" width="32" height="32" viewBox="0 0 32 32">
<title>bike</title>
<path d="M18.944 3.136c0 1.343-1.089 2.432-2.432 2.432s-2.432-1.089-2.432-2.432c0-1.343 1.089-2.432 2.432-2.432s2.432 1.089 2.432 2.432z"></path>
<path d="M25.472 18.304c-0.448 0-0.832 0.064-1.216 0.128l-1.28-3.84 0.896 0.448c0.448 0.192 0.96 0.064 1.152-0.384s0.064-0.96-0.384-1.152l-2.432-1.216c0.32 0.512 0.448 1.088 0.32 1.728s-0.576 1.152-1.088 1.472l0.256 0.704-2.752 0.064c0 0.32 0 0.576-0.064 0.896l-0.32 0.832 1.536-0.064-2.176 2.176-0.896 3.008c-0.192-0.064-0.384-0.064-0.576 0l-0.576 0.256c0 0 0 0 0 0l1.92-6.528c0.192-0.64-0.128-1.344-0.768-1.6l-1.216-0.512c-0.32-0.064-0.512-0.128-0.768-0.192-0.64-0.128-1.088-0.64-1.152-1.28l-0.384-4.288 1.472 3.904c0.128 0.32 0.448 0.576 0.768 0.704l4.288 0.96c0.576 0.128 1.216-0.256 1.344-0.832s-0.256-1.216-0.832-1.344l-3.712-0.832-1.28-3.328 1.344 1.856 0.384-0.96c0.32-0.832-0.128-1.792-0.96-2.112l-2.752-1.024c-0.832-0.32-1.792 0.128-2.112 0.96-2.176 5.696-2.112 5.376-2.176 5.76-0.128 0.704 0 1.408 0.384 1.984-1.472 0-1.024 0-1.152 0-0.576 0-1.024 0.448-1.024 1.024s0.448 1.024 1.024 1.024h1.728l0.192 0.448-1.216 1.792c-0.832-0.384-1.664-0.576-2.624-0.576-3.648-0.064-6.592 2.88-6.592 6.464s2.944 6.528 6.528 6.528c3.136 0 5.824-2.24 6.4-5.248 0.128 0.064 0.256 0.128 0.384 0.128s0.192 0 0.32-0.064l3.456-1.408c0.448-0.192 0.64-0.704 0.512-1.152-0.064-0.192-0.192-0.32-0.32-0.384l5.12-4.992 0.256 0.768c-2.176 1.088-3.648 3.264-3.648 5.824 0 3.584 2.944 6.528 6.528 6.528 3.52 0 6.464-2.944 6.464-6.528s-2.944-6.528-6.528-6.528zM9.664 21.184c0.832 0.704 1.408 1.664 1.6 2.752h-3.456l1.856-2.752zM6.528 29.632c-2.624 0-4.8-2.176-4.8-4.8s2.176-4.8 4.8-4.8c0.576 0 1.152 0.128 1.6 0.256l-2.688 4.032c-0.192 0.256-0.192 0.576-0.064 0.896 0.128 0.256 0.448 0.448 0.768 0.448h5.12c-0.448 2.24-2.368 3.968-4.736 3.968zM12.992 24.512c-0.064 0-0.128 0.064-0.192 0.064-0.576-0.576-0.768-1.472-0.512-2.304l0.064-0.32c-0.448-0.832-1.024-1.6-1.728-2.176l0.512-0.768 1.216 2.944 0.64-2.112-0.704-1.664 1.216-0.064 0.064-0.256c-0.64-0.256-2.56-0.96-3.136-1.216 3.2 0 2.88 0 2.944 0l1.536 0.576-1.6 5.312c-0.192 0.64 0.128 1.28 0.64 1.536l-0.96 0.448zM25.472 29.632c-2.624 0-4.8-2.176-4.8-4.8 0-1.792 1.024-3.392 2.496-4.16l1.472 4.48c0.128 0.384 0.448 0.576 0.832 0.576 0.064 0 0.192 0 0.256-0.064 0.448-0.128 0.704-0.64 0.512-1.088l-1.472-4.48c0.192-0.064 0.448-0.064 0.704-0.064 2.624 0 4.8 2.176 4.8 4.8s-2.176 4.8-4.8 4.8z"></path>
</svg>
