<!-- Generated by IcoMoon.io -->
<svg version="1.1" xmlns="http://www.w3.org/2000/svg" width="32" height="32" viewBox="0 0 32 32">
<title>cards</title>
<path d="M21.44 1.216c-0.192-0.832-1.088-1.408-1.92-1.088l-18.048 4.032c-0.832 0.192-1.28 1.152-1.088 1.984l6.592 24.704c0.128 0.448 0.384 0.768 0.768 0.96 0.256 0.128 0.512 0.192 0.768 0.192 0.128 0 0.256 0 0.448-0.064l0.32-0.128c-0.32-0.448-0.448-0.96-0.448-1.472v-2.688c-0.192 0-0.448-0.128-0.512-0.384-0.576-2.24-1.216-4.48-1.792-6.784-0.64-2.24-1.216-4.544-1.792-6.72-0.064-0.256 0.128-0.576 0.384-0.64s0.576 0.128 0.64 0.384c0.576 2.24 1.216 4.48 1.792 6.72 0.448 1.6 0.896 3.264 1.344 4.864v-15.232c-0.192 0.192-0.512 0.128-0.768-0.064l-0.832-0.832c0 0-0.064 0-0.064 0.064l-2.048 0.512c-0.064 0-0.064 0-0.128 0l-0.192 1.088c-0.064 0.256-0.256 0.448-0.512 0.448-0.064 0-0.064 0-0.128 0-0.256-0.064-0.448-0.32-0.448-0.64l0.96-4.608c0.064-0.192 0.192-0.384 0.384-0.448s0.448 0 0.512 0.128l3.136 3.52v-4.224c0-1.472 1.152-2.688 2.688-2.688h10.304l-0.32-0.896z"></path>
<path d="M30.080 3.2h-18.624c-0.896 0-1.6 0.704-1.6 1.6v25.536c0 0.896 0.704 1.6 1.6 1.6h18.624c0.896 0 1.6-0.704 1.6-1.6v-25.536c0-0.896-0.704-1.6-1.6-1.6zM19.456 5.312h9.6c0.32 0 0.512 0.192 0.512 0.512v15.936c0 0.32-0.192 0.512-0.512 0.512s-0.512-0.192-0.512-0.512v-15.36h-9.088c-0.32 0-0.512-0.192-0.512-0.512s0.192-0.576 0.512-0.576zM11.968 5.888c0-0.32 0.192-0.512 0.512-0.512s0.512 0.192 0.512 0.512v1.728l1.728-2.112c0.192-0.192 0.512-0.256 0.768-0.064 0.192 0.192 0.256 0.512 0.064 0.768l-1.472 1.664 1.984 3.008c0.128 0.256 0.128 0.576-0.128 0.768 0 0.064-0.128 0.128-0.192 0.128-0.128 0-0.32-0.128-0.448-0.192l-1.856-2.816-0.448 0.448v1.92c0 0.32-0.192 0.512-0.512 0.512s-0.512-0.192-0.512-0.512v-5.248zM23.168 29.824l-10.624 0.064c-0.128 0-0.256-0.064-0.384-0.128-0.128-0.128-0.128-0.192-0.128-0.384v-16c0-0.32 0.192-0.512 0.512-0.512s0.512 0.192 0.512 0.512v15.424l10.112-0.064c0.32 0 0.512 0.192 0.512 0.512s-0.192 0.576-0.512 0.576zM22.912 22.272l0.448 1.152c0.128 0.192 0.128 0.448-0.064 0.704-0.128 0.192-0.384 0.384-0.64 0.384h-3.968c-0.256 0-0.512-0.128-0.64-0.384-0.128-0.192-0.128-0.448-0.064-0.704l0.384-1.152c-0.256 0.128-0.448 0.128-0.768 0.128-1.024 0-1.984-0.448-2.688-1.152s-1.024-1.664-0.96-2.56c0.064-1.088 0.704-2.048 1.728-2.752 0.512-0.32 1.024-0.512 1.536-0.512-0.128-0.384-0.192-0.832-0.192-1.344 0-1.088 0.448-2.048 1.344-2.752 0.832-0.704 1.92-0.96 3.008-0.704 1.408 0.256 2.432 1.408 2.688 2.752 0.128 0.768 0.128 1.408-0.128 2.048 0.512 0.064 1.024 0.192 1.536 0.576 1.088 0.704 1.728 1.664 1.728 2.752 0.064 0.96-0.256 1.856-0.96 2.56-0.704 0.768-1.728 1.152-2.688 1.152-0.064-0.128-0.32-0.128-0.64-0.192zM29.632 29.312h-0.128c0 0.32-0.192 0.512-0.512 0.512s-0.512-0.192-0.512-0.512v-1.728l-1.728 2.048c-0.128 0.128-0.256 0.128-0.448 0.128-0.128 0-0.256-0.064-0.32-0.128-0.192-0.192-0.256-0.512-0.064-0.768l1.408-1.728-1.984-3.008c-0.128-0.256-0.128-0.576 0.128-0.768 0.256-0.128 0.576-0.128 0.768 0.128l1.792 2.688 0.448-0.448v-1.984c0-0.32 0.192-0.512 0.512-0.512s0.512 0.192 0.512 0.512v5.568z"></path>
</svg>
