<!-- Generated by IcoMoon.io -->
<svg version="1.1" xmlns="http://www.w3.org/2000/svg" width="32" height="32" viewBox="0 0 32 32">
<title>coffee-machine</title>
<path d="M5.632 6.592v7.488c0 1.216 1.856 1.216 1.856 0v-7.488c0-1.28-1.856-1.28-1.856 0z"></path>
<path d="M6.592 20.608c-0.512 0-0.96 0.448-0.96 0.96s0.448 0.96 0.96 0.96 0.96-0.448 0.96-0.96-0.448-0.96-0.96-0.96z"></path>
<path d="M14.080 7.488h1.408l1.6 3.2c0.128 0.32 0.512 0.512 0.832 0.512h9.344c0.384 0 0.704-0.192 0.832-0.512l1.664-3.328c1.28-0.256 2.176-1.408 2.176-2.752v-1.792c0.064-1.536-1.216-2.816-2.752-2.816h-24.512c-2.56 0-4.672 2.112-4.672 4.672 0 9.856 0 17.024 0 26.368 0 0.512 0.448 0.96 0.96 0.96h30.016c0.512 0 1.088-0.448 1.088-0.96v-1.856c0-1.536-1.216-2.816-2.752-2.816 0.192-0.576 0.256-1.344 0.064-1.92l-0.064-0.192c1.6-0.448 2.816-1.856 2.816-3.584 0-2.048-1.664-3.776-3.776-3.776h-0.704l0.64-2.56c0.128-0.576-0.32-1.152-0.896-1.152h-9.472c-0.64 0-1.088 0.576-0.896 1.152l0.896 3.52-1.024 3.456c0 0 0 0 0 0l-0.896 3.136c-0.192 0.64-0.192 1.344 0 1.984h-2.88v-17.92c0-0.576 0.448-1.024 0.96-1.024zM27.648 7.488l-0.96 1.856h-8.192l-0.96-1.856h10.112zM3.776 6.592c0-3.712 5.632-3.712 5.632 0v7.488c0 3.712-5.632 3.712-5.632 0v-7.488zM6.592 18.752c1.536 0 2.816 1.28 2.816 2.816s-1.28 2.816-2.816 2.816-2.816-1.28-2.816-2.816 1.216-2.816 2.816-2.816zM28.224 18.752c1.024 0 1.856 0.832 1.856 1.856 0 0.896-0.64 1.6-1.472 1.792l-1.024-3.648h0.64zM19.584 18.752h6.080l0.576 1.984c-0.256-0.064-0.512-0.064-0.768-0.064-1.088 0-2.048 0.512-2.624 1.408-0.512 0.768-1.664 0.768-2.176 0-0.384-0.576-0.96-1.024-1.664-1.216l0.576-2.112zM29.184 28.224c0.512 0 0.96 0.448 0.96 0.96v0.96h-28.288v-1.856c9.472-0.064 17.856-0.064 27.328-0.064z"></path>
</svg>
