<!-- Generated by IcoMoon.io -->
<svg version="1.1" xmlns="http://www.w3.org/2000/svg" width="32" height="32" viewBox="0 0 32 32">
<title>cooler</title>
<path d="M16 0c-6.72 0-12.16 5.44-12.16 12.16s5.44 12.16 12.16 12.16 12.16-5.44 12.16-12.16-5.44-12.16-12.16-12.16zM5.696 12.16c0-2.048 1.664-3.776 3.776-3.776s3.776 1.664 3.776 3.776h-7.552zM16 22.528c-2.048 0-3.776-1.664-3.776-3.776s1.664-3.776 3.776-3.776v7.552zM16 14.080c-1.024 0-1.856-0.832-1.856-1.856s0.832-1.856 1.856-1.856 1.856 0.832 1.856 1.856-0.832 1.856-1.856 1.856zM16 9.344v-7.488c2.048 0 3.776 1.664 3.776 3.776s-1.728 3.712-3.776 3.712zM22.592 15.936c-2.048 0-3.776-1.664-3.776-3.776h7.488c0 2.112-1.664 3.776-3.712 3.776z"></path>
<path d="M18.816 30.144v-4.16c-0.896 0.192-1.856 0.256-2.816 0.256s-1.92-0.128-2.816-0.256v4.16h-1.856v1.856h9.344v-1.856h-1.856z"></path>
</svg>
