<!-- Generated by IcoMoon.io -->
<svg version="1.1" xmlns="http://www.w3.org/2000/svg" width="32" height="32" viewBox="0 0 32 32">
<title>couch</title>
<path d="M23.040 18.56h-14.080c-2.368 0-2.816 0.896-2.816 2.048v0.512h19.648v-0.576c0-1.088-0.384-1.984-2.752-1.984z"></path>
<path d="M6.272 17.792h9.536v-8.064c-0.96-1.152-2.752-1.92-4.864-1.92h-2.112c-3.072 0-5.568 1.6-5.568 3.584v2.368c1.792 0.704 3.008 1.92 3.008 3.264v0.768z"></path>
<path d="M28.736 11.392c0-1.984-2.496-3.584-5.568-3.584h-2.112c-2.112 0-3.968 0.768-4.864 1.92v8.064h9.536v-0.704c0-1.408 1.216-2.624 3.008-3.264v-2.432z"></path>
<path d="M0 13.888v10.304h5.184v-7.104c0-1.792-2.304-3.2-5.184-3.2z"></path>
<path d="M26.816 17.088v7.104h5.184v-10.304c-2.88 0-5.184 1.408-5.184 3.2z"></path>
<path d="M6.208 21.376h19.648v2.816h-19.648v-2.816z"></path>
</svg>
