<!-- Generated by IcoMoon.io -->
<svg version="1.1" xmlns="http://www.w3.org/2000/svg" width="32" height="32" viewBox="0 0 32 32">
<title>dinner-table</title>
<path d="M18.304 20.032l-0.96 2.496v2.88h1.792l0.64-1.664z"></path>
<path d="M11.136 6.528c0 1.378-1.117 2.496-2.496 2.496s-2.496-1.117-2.496-2.496c0-1.378 1.117-2.496 2.496-2.496s2.496 1.117 2.496 2.496z"></path>
<path d="M15.808 12.352c-0.128-0.384-0.384-0.64-0.704-0.704 0-1.024 0-0.512 0-1.152 0.512-0.192 0.768-0.64 0.704-1.152l-0.256-2.368h-1.728l-0.256 2.368c-0.064 0.512 0.256 0.96 0.704 1.152 0 0.384 0 0.768 0 1.152 0 0 0 0 0 0l-3.968 1.28-2.624-2.432 2.176 1.344v-0.064c0-1.088-0.832-1.92-1.92-1.92h-0.832c-1.6 0-2.88 1.28-2.88 2.816v5.504c0 0.896 0.64 1.664 1.472 1.856h-2.24l-1.6-8.192c-0.128-0.512-0.576-0.832-1.088-0.768-0.512 0.128-0.832 0.576-0.768 1.088l1.792 9.024c0.064 0.448 0.448 0.768 0.896 0.768h0.192l-1.984 5.184c-0.128 0.32 0.064 0.704 0.384 0.832s0.704-0.064 0.832-0.384l2.176-5.632h3.584l1.216 3.2-0.384 1.024c-0.256 0.704 0.064 1.472 0.768 1.792 0.704 0.256 1.472-0.064 1.792-0.768 0.064-0.192 2.88-7.232 3.008-7.616h-2.304c-1.024 0-1.792-0.832-1.792-1.792 0-0.064 0-0.192 0-0.256h-0.256v-1.216c-0.448 0-0.832-0.256-1.088-0.64l-1.92-2.88 2.496 2.304c0 0 0 0 0 0 0.32 0.256 0.704 0.384 1.088 0.256 0 0 0 0 0 0l4.608-1.472c0.576-0.256 0.896-0.96 0.704-1.536zM9.28 21.952c0.512 0 0.96-0.448 0.96-0.96 0-0.384-0.192-0.64-0.512-0.832h1.216l-1.28 3.264-0.576-1.472h0.192z"></path>
<path d="M30.016 9.152c-0.192 0-0.384 0-0.576-0.32-0.128-0.192-0.192-0.512-0.192-0.832-0.128-1.152 0-2.048-0.256-2.624-0.256-0.512-0.832-0.768-1.344-0.832-0.448 0-0.832 0.128-1.216 0.32-0.576-0.576-1.408-0.96-2.24-0.832-1.344 0.192-2.304 1.472-2.112 2.88 0.192 1.344 1.472 2.304 2.88 2.112 1.28-0.192 2.176-1.344 2.112-2.56 0-0.32 0.512-0.576 0.768-0.384 0.448 0.32 0.448 1.6 0.576 2.112 0.064 0.256 0.256 0.704 0.512 1.024 0.32 0.448 0.704 0.512 1.152 0.384 0.064 0 0.128-0.128 0.128-0.192 0-0.192-0.064-0.32-0.192-0.256z"></path>
<path d="M19.84 16.64h-7.936c-0.576 0-1.024 0.448-1.024 1.024s0.448 1.024 1.024 1.024h3.264v7.424h-2.176c-0.512 0-0.96 0.448-0.96 0.96s0.448 0.96 0.96 0.96h5.76c0.512 0 0.96-0.448 0.96-0.96s-0.448-0.96-0.96-0.96h-2.176v-7.424h3.264c0.576 0 1.024-0.448 1.024-1.024s-0.448-1.024-1.024-1.024z"></path>
<path d="M31.232 11.072c-0.512-0.128-1.024 0.256-1.088 0.768l-1.28 6.592c0-0.128 0 0.256 0-5.632 0-1.6-1.28-2.944-2.944-2.88h-0.768c-1.088 0-1.92 0.896-1.92 1.92v1.152l1.408-1.344-1.536 2.176-3.712-0.448c0-1.024 0-0.512 0-1.152 0.512-0.192 0.768-0.64 0.704-1.152l-0.256-2.368h-1.728l-0.256 2.368c-0.064 0.512 0.256 0.96 0.704 1.152 0 0.32 0 0.96 0 1.088-0.512 0.064-0.96 0.448-1.024 1.024-0.064 0.64 0.384 1.216 1.024 1.28 5.248 0.576 4.928 0.576 4.992 0.576 0.384 0 0.704-0.192 0.96-0.512l1.536-2.24-0.704 2.56c-0.192 0.576-0.768 0.96-1.408 0.896-0.448-0.064-0.32-0.064-0.576-0.064v0.64h-1.792c0 0.064 0 0.192 0 0.256 0 1.024-0.832 1.792-1.792 1.792h-0.768l3.008 7.616c0.256 0.704 1.088 1.024 1.792 0.768s1.024-1.088 0.768-1.792l-0.512-1.28c0.576-1.472 0.448-1.216 1.152-2.944h1.472l2.176 5.632c0.128 0.256 0.32 0.384 0.576 0.384 0.064 0 0.128 0 0.256-0.064 0.32-0.128 0.512-0.512 0.384-0.832l-1.984-5.184h1.216c0.448 0 0.832-0.32 0.896-0.768l1.792-8.896c0.064-0.512-0.256-0.96-0.768-1.088zM23.424 23.168l-0.448-1.216h0.96l-0.512 1.216zM28.544 20.096c-0.448 0-0.704 0-1.152 0 0.64-0.128 1.152-0.576 1.344-1.152 0 0.128 0 0-0.192 1.152z"></path>
</svg>
