<!-- Generated by IcoMoon.io -->
<svg version="1.1" xmlns="http://www.w3.org/2000/svg" width="32" height="32" viewBox="0 0 32 32">
<title>dishes</title>
<path d="M16.512 4.8c-5.824 0-10.624 4.736-10.624 10.624s4.736 10.624 10.624 10.624 10.624-4.736 10.624-10.624-4.8-10.624-10.624-10.624zM16.512 23.424c-4.416 0-8.064-3.584-8.064-8.064s3.584-8.064 8.064-8.064 8.064 3.584 8.064 8.064-3.648 8.064-8.064 8.064z"></path>
<path d="M16.512 9.536c-3.264 0-5.888 2.624-5.888 5.888s2.624 5.888 5.888 5.888 5.888-2.624 5.888-5.888-2.624-5.888-5.888-5.888z"></path>
<path d="M31.36 16.32v-12.928c0-0.128-0.064-0.256-0.192-0.256-0.128-0.064-0.256 0-0.32 0.128-1.6 2.112-2.496 4.736-2.496 7.36v4.736c0 0.512 0.448 0.96 0.96 0.96h0.384c-0.384 4.16-0.64 9.984-0.64 10.624 0 1.088 0.64 1.92 1.472 1.92s1.472-0.896 1.472-1.92c0-0.704-0.256-6.528-0.64-10.624z"></path>
<path d="M4.288 13.76c0.832-0.512 1.344-1.408 1.344-2.432l-0.384-6.592c0-0.256-0.256-0.448-0.448-0.448-0.32 0-0.512 0.192-0.512 0.512l0.256 5.312c0 0.32-0.256 0.512-0.512 0.512-0.32 0-0.512-0.256-0.512-0.512l-0.192-5.312c0-0.256-0.256-0.512-0.512-0.512s-0.512 0.192-0.512 0.512l-0.128 5.312c0 0.32-0.256 0.512-0.512 0.512-0.32 0-0.512-0.256-0.512-0.512l0.256-5.312c0-0.256-0.192-0.512-0.448-0.512-0.32 0-0.512 0.192-0.576 0.448l-0.384 6.592c0 1.024 0.576 1.92 1.344 2.432 0.576 0.32 0.832 0.896 0.768 1.536-0.448 4.16-0.768 10.944-0.768 11.648 0 1.088 0.64 1.92 1.472 1.92s1.472-0.896 1.472-1.92c0-0.768-0.32-7.488-0.768-11.648-0.064-0.64 0.256-1.216 0.768-1.536z"></path>
</svg>
