<!-- Generated by IcoMoon.io -->
<svg version="1.1" xmlns="http://www.w3.org/2000/svg" width="32" height="32" viewBox="0 0 32 32">
<title>dish-machine</title>
<path d="M18.048 5.952c-1.024-0.768-2.432-0.896-3.584-0.32s-1.856 1.728-1.856 3.008c0 0.384 0.064 0.768 0.192 1.152h1.28c-0.192-0.32-0.32-0.704-0.32-1.152 0-1.28 1.024-2.24 2.24-2.24 0.512 0 1.088 0.192 1.472 0.576 0.128-0.384 0.32-0.768 0.576-1.024z"></path>
<path d="M17.152 8.64c0 0.636-0.516 1.152-1.152 1.152s-1.152-0.516-1.152-1.152c0-0.636 0.516-1.152 1.152-1.152s1.152 0.516 1.152 1.152z"></path>
<path d="M30.144 10.88h-30.016v1.152h31.744v-1.152z"></path>
<path d="M11.456 8.64c0 0.636-0.516 1.152-1.152 1.152s-1.152-0.516-1.152-1.152c0-0.636 0.516-1.152 1.152-1.152s1.152 0.516 1.152 1.152z"></path>
<path d="M12.352 5.952c-1.024-0.768-2.432-0.896-3.584-0.32s-1.856 1.728-1.856 3.072c0 0.384 0.064 0.768 0.192 1.152h1.28c-0.192-0.32-0.32-0.704-0.32-1.152 0-1.28 1.024-2.24 2.24-2.24 0.512 0 1.088 0.192 1.472 0.576 0.192-0.448 0.384-0.832 0.576-1.088z"></path>
<path d="M3.52 2.944c0-0.896 0.768-1.664 1.728-1.664h21.504c0.96 0 1.728 0.768 1.728 1.728v6.784h1.152v-7.936c0-0.96-0.768-1.728-1.728-1.728h-23.808c-0.96 0-1.728 0.768-1.728 1.728v7.936h1.152v-6.848z"></path>
<path d="M27.328 9.792v-6.848c0-0.32-0.256-0.576-0.576-0.576h-21.504c-0.32 0-0.576 0.256-0.576 0.576v6.784h1.28c-0.384-1.344-0.064-2.816 0.768-3.904s2.176-1.728 3.584-1.728c1.024 0 2.048 0.384 2.816 1.024 1.664-1.344 4.032-1.344 5.696 0 1.344-1.088 3.2-1.28 4.8-0.576 1.6 0.768 2.56 2.368 2.56 4.096 0 0.384-0.064 0.768-0.128 1.152h1.28z"></path>
<path d="M24.896 9.792c0.128-0.384 0.192-0.768 0.192-1.152 0-1.408-0.832-2.624-2.112-3.136s-2.752-0.192-3.712 0.768c-0.896 0.896-1.216 2.304-0.768 3.52h1.28c-0.192-0.32-0.32-0.704-0.32-1.152 0-1.28 1.024-2.24 2.24-2.24s2.24 1.024 2.24 2.24c0 0.384-0.128 0.768-0.32 1.152h1.28z"></path>
<path d="M22.848 8.64c0 0.636-0.516 1.152-1.152 1.152s-1.152-0.516-1.152-1.152c0-0.636 0.516-1.152 1.152-1.152s1.152 0.516 1.152 1.152z"></path>
<path d="M17.728 14.272c0.32 0 0.576-0.256 0.576-0.576v-0.576h-4.544v0.576c0 0.32 0.256 0.576 0.576 0.576h3.392z"></path>
<path d="M4.864 13.184l1.728 5.248c0.064 0.256 0.32 0.384 0.512 0.384h17.6c0.256 0 0.448-0.128 0.512-0.384l1.728-5.248h-7.68v0.576c0 0.96-0.768 1.728-1.728 1.728h-3.392c-0.96 0-1.728-0.768-1.728-1.728v-0.576h-7.552zM22.784 14.272c0.96 0 1.728 0.768 1.728 1.728s-0.768 1.728-1.728 1.728-1.664-0.768-1.664-1.728c0-0.96 0.768-1.728 1.664-1.728zM9.216 14.848c0-0.256 0.128-0.448 0.32-0.512s0.448-0.064 0.64 0.128c0.192 0.192 0.192 0.384 0.128 0.64-0.064 0.192-0.32 0.32-0.512 0.32-0.128 0-0.32-0.064-0.384-0.192-0.128-0.064-0.192-0.192-0.192-0.384zM10.752 17.536c-0.128 0.128-0.256 0.192-0.384 0.192s-0.32-0.064-0.384-0.192c-0.192-0.192-0.192-0.576 0-0.832 0.192-0.192 0.576-0.192 0.832 0 0.128 0.256 0.128 0.64-0.064 0.832v0z"></path>
<path d="M26.432 18.816c-0.256 0.704-0.896 1.152-1.6 1.152h-17.664c-0.704 0-1.408-0.448-1.6-1.152l-1.856-5.632h-3.328l5.824 16.448h19.584l5.824-16.448h-3.328l-1.856 5.632z"></path>
<path d="M6.4 30.72h19.264v1.152h-19.264v-1.152z"></path>
<path d="M23.36 16c0 0.318-0.258 0.576-0.576 0.576s-0.576-0.258-0.576-0.576c0-0.318 0.258-0.576 0.576-0.576s0.576 0.258 0.576 0.576z"></path>
</svg>
