<!-- Generated by IcoMoon.io -->
<svg version="1.1" xmlns="http://www.w3.org/2000/svg" width="32" height="32" viewBox="0 0 32 32">
<title>dvd</title>
<path d="M1.984 3.648v-1.408c0-0.192 0.064-0.384 0.128-0.576h-1.536c-0.32 0-0.576 0.256-0.576 0.576v27.52c0 0.32 0.256 0.576 0.576 0.576h1.536c-0.064-0.192-0.128-0.384-0.128-0.576v-26.112z"></path>
<path d="M32 19.2c0-5.376-4.352-9.792-9.728-9.792v6.016c2.048 0 3.712 1.664 3.712 3.776 0 1.024-0.384 1.92-1.088 2.624h-3.648v-19.584c0-0.32-0.256-0.576-0.576-0.576h-17.152c-0.32 0-0.576 0.256-0.576 0.576v27.52c0 0.32 0.256 0.576 0.576 0.576h11.776c0 0 0 0 0 0h10.112c1.152 0 2.24-0.384 3.2-1.024 0.896-0.704 1.6-1.664 1.92-2.752 0.256-0.768 0.256-1.536 0.064-2.24 0.896-1.536 1.408-3.264 1.408-5.12zM18.624 26.048c-0.384 1.472-1.792 2.432-3.328 2.432h-2.048l0.896-3.264h1.216l-0.64 2.24h0.896c0.768 0 1.472-0.576 1.728-1.472s-0.128-1.472-0.96-1.472h-2.048l0.256-1.024h2.112c1.6 0.128 2.368 1.088 1.92 2.56zM28.8 26.048c-0.384 1.472-1.792 2.432-3.328 2.432h-2.048l0.896-3.264h1.216l-0.64 2.24h0.896c0.768 0 1.472-0.576 1.728-1.472s-0.128-1.472-0.96-1.472h-2.944l-2.368 3.904h-1.28l-0.832-4.864h1.344l0.448 3.584 2.048-3.584h3.904c1.536 0.064 2.304 1.024 1.92 2.496z"></path>
<path d="M24.384 19.2c0-1.216-0.96-2.176-2.112-2.176v4.352c1.152-0.064 2.112-1.024 2.112-2.176z"></path>
</svg>
