<!-- Generated by IcoMoon.io -->
<svg version="1.1" xmlns="http://www.w3.org/2000/svg" width="32" height="32" viewBox="0 0 32 32">
<title>egg</title>
<path d="M14.272 24.384v3.072c0 0.96 0.768 1.728 1.728 1.728s1.728-0.768 1.728-1.728v-3.072c-1.152 0.256-2.304 0.256-3.456 0z"></path>
<path d="M18.88 27.072v0.384c0 1.6-1.28 2.88-2.88 2.88s-2.88-1.28-2.88-2.88v-0.384c-2.88 0.448-4.544 1.536-4.544 2.368 0 1.216 3.2 2.56 7.424 2.56s7.424-1.344 7.424-2.56c0-0.832-1.664-1.92-4.544-2.368z"></path>
<path d="M24.256 16.064c0 0-0.064 0-0.064 0.064-1.92 1.024-4.992 1.6-8.192 1.6s-6.272-0.64-8.192-1.6c0 0-0.064 0-0.064-0.064-0.128-0.064-0.192-0.128-0.32-0.192 1.344 4.48 4.736 7.552 8.576 7.552s7.232-3.072 8.576-7.552c-0.128 0.064-0.192 0.128-0.32 0.192z"></path>
<path d="M14.080 3.392c-0.064 0-0.064 0-0.128 0-0.512 0-1.472 0.896-2.112 2.496-0.32 0.768-0.448 1.536-0.448 2.368 0 0.512 0.192 0.896 0.384 0.96 0.128 0.064 0.448 0 0.896-0.448 0.576-0.576 1.024-1.28 1.28-2.048 0.704-1.728 0.576-3.136 0.128-3.328z"></path>
<path d="M16 0c-4.544 0-8.512 6.4-8.576 11.648v0.128c0 1.024 0.128 2.048 0.448 3.008 0.128 0.064 0.32 0.192 0.448 0.256 0 0 0.064 0 0.064 0.064 1.728 0.896 4.608 1.472 7.616 1.472s5.824-0.576 7.616-1.472c0 0 0.064 0 0.064-0.064 0.192-0.064 0.32-0.192 0.448-0.256 0.32-0.96 0.448-1.984 0.448-3.008v-0.128c-0.064-5.248-4.032-11.648-8.576-11.648zM15.040 7.168v0c-0.32 0.896-0.896 1.792-1.536 2.432-0.448 0.448-1.024 0.768-1.6 0.768-0.192 0-0.384-0.064-0.512-0.128-0.64-0.256-1.024-0.96-1.088-1.984 0-0.96 0.128-1.984 0.512-2.88 0.896-2.304 2.496-3.648 3.712-3.136 1.152 0.576 1.408 2.624 0.512 4.928z"></path>
</svg>
