<!-- Generated by IcoMoon.io -->
<svg version="1.1" xmlns="http://www.w3.org/2000/svg" width="32" height="32" viewBox="0 0 32 32">
<title>floor-plan</title>
<path d="M31.424 2.816c0.32 0 0.576-0.256 0.576-0.576v-1.664c0-0.32-0.256-0.576-0.576-0.576h-24.64c-0.32 0-0.576 0.256-0.576 0.576v24.64c0 0.32 0.256 0.576 0.576 0.576h24.64c0.32 0 0.576-0.256 0.576-0.576v-21.12c0-0.32-0.256-0.576-0.576-0.576s-0.576 0.256-0.576 0.576v9.344h-2.176c-0.32 0-0.576 0.256-0.576 0.576s0.256 0.576 0.576 0.576h2.176v10.176h-15.488v-2.624c0-0.32-0.256-0.576-0.576-0.576s-0.576 0.256-0.576 0.576v2.624h-6.848v-23.68h6.912v17.024c0 0.32 0.256 0.576 0.576 0.576s0.576-0.256 0.576-0.576v-3.584h9.728c0.32 0 0.576-0.256 0.576-0.576s-0.256-0.576-0.576-0.576h-9.792v-12.288h15.552v1.152c0 0.32 0.256 0.576 0.512 0.576z"></path>
<path d="M4.608 3.136l-1.792-2.88c-0.128-0.128-0.256-0.256-0.448-0.256s-0.384 0.128-0.512 0.256l-1.792 2.88c-0.064 0.192-0.064 0.384 0 0.576 0.128 0.128 0.256 0.256 0.512 0.256h1.28v2.304c0 0.32 0.256 0.576 0.576 0.576s0.576-0.256 0.576-0.576v-2.304h1.28c0.192 0 0.384-0.128 0.448-0.256 0-0.192 0-0.384-0.128-0.576zM1.536 2.88l0.832-1.344 0.832 1.344h-1.664z"></path>
<path d="M4.608 22.080c-0.064-0.192-0.256-0.32-0.448-0.32h-1.28v-14.080c0-0.32-0.256-0.576-0.576-0.576s-0.512 0.32-0.512 0.576v14.080h-1.28c-0.192 0-0.384 0.128-0.448 0.256-0.128 0.192-0.064 0.384 0 0.576l1.792 2.88c0.128 0.128 0.256 0.256 0.448 0.256s0.384-0.128 0.448-0.256l1.792-2.88c0.192-0.128 0.192-0.384 0.064-0.512zM2.368 24.192l-0.832-1.344h1.664l-0.832 1.344z"></path>
<path d="M31.744 29.184l-2.88-1.792c-0.192-0.128-0.384-0.128-0.576 0s-0.256 0.256-0.256 0.448v1.28h-17.792v-1.28c0-0.192-0.128-0.384-0.256-0.448-0.192-0.128-0.384-0.064-0.576 0l-2.88 1.792c-0.128 0.128-0.256 0.256-0.256 0.448s0.128 0.384 0.256 0.448l2.88 1.792c0.064 0.128 0.192 0.128 0.256 0.128s0.192 0 0.256-0.064c0.192-0.128 0.256-0.256 0.256-0.448v-1.28h17.792v1.28c0 0.192 0.128 0.384 0.256 0.448 0.064 0.064 0.192 0.064 0.256 0.064 0.128 0 0.192 0 0.32-0.064l2.88-1.792c0.128-0.128 0.256-0.256 0.256-0.448 0.064-0.256-0.064-0.384-0.192-0.512zM9.152 30.464l-1.344-0.832 1.344-0.832v1.664zM29.12 30.464v-1.664l1.344 0.832-1.344 0.832z"></path>
</svg>
