<!-- Generated by IcoMoon.io -->
<svg version="1.1" xmlns="http://www.w3.org/2000/svg" width="32" height="32" viewBox="0 0 32 32">
<title>freezer</title>
<path d="M22.848 0h-13.696c-0.576 0-1.024 0.448-1.024 1.024v10.752h15.808v-10.752c-0.064-0.576-0.512-1.024-1.088-1.024zM11.072 7.552c0 0.512-0.448 0.96-0.96 0.96v-5.248c0.512 0 0.96 0.448 0.96 0.96v3.328z"></path>
<path d="M8.128 29.056c0 0.576 0.448 1.024 1.024 1.024h13.696c0.576 0 1.024-0.448 1.024-1.024v-15.872h-15.744v15.872zM20.864 22.272c0-0.32 0.256-0.576 0.576-0.576s0.576 0.256 0.576 0.576v0.96c0 0.32-0.256 0.576-0.576 0.576s-0.576-0.256-0.576-0.576v-0.96zM20.864 25.088c0-0.32 0.256-0.576 0.576-0.576s0.576 0.256 0.576 0.576v2.56c0 0.32-0.256 0.576-0.576 0.576s-0.576-0.256-0.576-0.576v-2.56zM10.048 15.68c0.512 0 0.96 0.448 0.96 0.96v3.392c0 0.512-0.448 0.96-0.96 0.96v-5.312z"></path>
<path d="M22.272 30.528h-12.224c-0.064 0-0.064 0.064-0.064 0.064v1.28c0 0.064 0.064 0.064 0.064 0.064h1.28c0 0 0 0 0 0l2.304-0.64h4.8l2.496 0.64c0 0 0 0 0 0h1.28c0.064 0 0.064-0.064 0.064-0.064v-1.28c0.064 0 0.064-0.064 0-0.064z"></path>
</svg>
