<!-- Generated by IcoMoon.io -->
<svg version="1.1" xmlns="http://www.w3.org/2000/svg" width="32" height="32" viewBox="0 0 32 32">
<title>fridge</title>
<path d="M30.016 6.656h-1.984v-3.968c0-1.472-1.216-2.688-2.688-2.688h-1.984c-0.384 0-0.64 0.32-0.64 0.64v1.024c-0.384-0.256-0.832-0.384-1.344-0.384h-17.344c-1.472 0.064-2.688 1.28-2.688 2.688v24c0 1.472 1.216 2.688 2.688 2.688h17.344c0.512 0 0.96-0.128 1.344-0.384v1.088c0 0.384 0.32 0.64 0.64 0.64h1.984c1.472 0 2.688-1.216 2.688-2.688v-9.344h1.984c0.384 0 0.64-0.32 0.64-0.64v-11.968c0-0.384-0.256-0.704-0.64-0.704zM19.968 26.688h-14.656v-21.376h14.656v21.376zM29.312 18.688h-1.344v-10.688h1.344v10.688z"></path>
<path d="M7.36 25.344h1.984c0.384 0 0.64-0.32 0.64-0.64v-0.64c0-0.896 0.256-1.536 0.512-1.984v0c0.128-0.384 0.256-0.512 0.256-0.832 0-0.256-0.064-0.448-0.192-0.896-0.256-0.704-0.512-1.664-0.512-3.264 0-1.792 0.768-3.2 1.344-4.16l0.192-0.32c0.064-0.128 0.128-0.32 0.064-0.512-0.128-0.512-0.128-1.024-0.128-1.344 0-0.192 0-0.384 0.064-0.576s0-0.384-0.128-0.576c-0.128-0.192-0.32-0.256-0.512-0.256h-1.728c-0.256 0-0.448 0.128-0.576 0.32l-0.384 0.64c-0.064 0.128-0.064 0.32-0.064 0.384 0 0.576 0 1.152 0.32 1.536-0.064 0.384-0.32 0.832-0.64 1.344-0.512 0.896-1.152 1.984-1.152 3.456 0 1.408 0.256 2.176 0.448 2.816 0.128 0.448 0.256 0.832 0.256 1.28 0 0.576-0.128 0.96-0.32 1.408-0.192 0.384-0.384 0.896-0.384 1.472v0.64c-0.064 0.384 0.256 0.704 0.64 0.704z"></path>
<path d="M11.328 17.024c0 1.408 0.192 2.176 0.384 2.816 0.128 0.448 0.256 0.832 0.256 1.344 0 0.64-0.128 1.024-0.32 1.408-0.128 0.384-0.32 0.832-0.32 1.472v0.64c0 0.384 0.32 0.64 0.64 0.64h5.312c0.384 0 0.64-0.32 0.64-0.64v-0.64c0-0.576-0.192-1.088-0.32-1.472s-0.32-0.768-0.32-1.408c0-0.512 0.128-0.896 0.256-1.344 0.192-0.64 0.384-1.408 0.384-2.816s-0.576-2.496-1.024-3.392c-0.256-0.512-0.512-0.96-0.576-1.408 0.256-0.384 0.32-0.896 0.32-1.6 0-0.128 0-0.192-0.064-0.32l-0.32-0.64c-0.128-0.256-0.32-0.384-0.576-0.384h-2.176c-0.256 0-0.512 0.128-0.576 0.384l-0.32 0.64c-0.064 0.064-0.064 0.256-0.064 0.384 0 0.576 0 1.152 0.32 1.472-0.064 0.448-0.32 0.896-0.576 1.408-0.384 0.896-0.96 2.048-0.96 3.456z"></path>
</svg>
