<!-- Generated by IcoMoon.io -->
<svg version="1.1" xmlns="http://www.w3.org/2000/svg" width="32" height="32" viewBox="0 0 32 32">
<title>hand-mixer</title>
<path d="M12.48 18.432c-0.192-0.192-0.448-0.384-0.576-0.64l-7.232 7.104c-1.6 0.064-3.968 0.192-4.096 0.32-0.064 0.128-0.576 0.704-0.576 0.896-0.064 0.768 1.088 1.6 2.24 2.688 1.152 1.152 1.92 2.24 2.688 2.24 0.192 0 0.768-0.448 0.896-0.576l0.256-3.84 7.36-7.296c-0.256-0.192-0.512-0.448-0.768-0.768l-0.192-0.128zM2.688 27.584l-0.128 0.128c-0.064 0.064-0.192 0.064-0.32 0l-1.344-1.28c-0.064-0.064-0.064-0.192 0-0.32l0.128-0.128c0.064-0.064 0.192-0.064 0.32 0l1.344 1.28c0.064 0.128 0.064 0.256 0 0.32zM5.12 30.016l-0.128 0.128c-0.064 0.064-0.192 0.064-0.32 0l-1.344-1.28c-0.064-0.064-0.064-0.192 0-0.32l0.128-0.128c0.064-0.064 0.192-0.064 0.32 0l1.344 1.28c0.128 0.128 0.128 0.256 0 0.32z"></path>
<path d="M28.096 5.888c-0.64 0.256-1.024 1.024-1.28 1.6-0.192 0.64-0.384 1.28-0.448 1.92l2.176-2.56c0.32-0.32 0.704-0.576 1.088-0.768-0.512-0.192-1.024-0.384-1.536-0.192z"></path>
<path d="M31.616 4.288l-2.432-2.432c-0.576-0.576-1.216-0.896-1.92-0.896s-1.408 0.32-2.048 0.96l-9.536 8.832c0 0-0.064 0-0.064-0.064-0.192-0.064-0.384-0.064-0.576-0.064s-0.384 0.064-0.576 0.128c-0.32 0.192-0.448 0.512-0.512 0.896 0 0.064 0 0.192 0 0.256 0 0.192 0.064 0.32 0.192 0.384-0.32 0.384-0.64 0.704-0.896 1.024l4.672 4.608c1.408-1.152 3.328-2.944 6.208-5.76l1.088-1.216c0-1.728 0.32-3.584 1.28-4.928 1.216-1.664 2.88-1.344 4.288-0.32 0.576-0.256 1.216-0.512 1.28-0.768-0.064-0.192-0.192-0.384-0.448-0.64z"></path>
<path d="M11.776 16.192c0 0.768 0.512 1.216 1.088 1.792l0.192 0.192c0.768 0.768 1.28 1.28 1.984 1.28 0.512 0 1.088-0.256 1.984-0.896l-4.416-4.352c-0.576 0.832-0.832 1.472-0.832 1.984z"></path>
</svg>
