<!-- Generated by IcoMoon.io -->
<svg version="1.1" xmlns="http://www.w3.org/2000/svg" width="32" height="32" viewBox="0 0 32 32">
<title>iron</title>
<path d="M9.728 11.456v-0.896h-1.28v1.728c0.384-0.256 0.832-0.576 1.28-0.832z"></path>
<path d="M19.968 16.192c-0.512-0.704-1.536-1.216-2.688-1.216 0 0-0.064 0-0.064 0-1.152 0-2.112 0.448-2.624 1.152-0.192 0.192-0.128 0.448-0.064 0.64 0.128 0.256 0.448 0.384 0.768 0.384l3.904 0.064c0 0 0 0 0 0 0.576 0 1.024-0.448 0.832-0.896-0.064-0.064-0.064-0.128-0.064-0.128z"></path>
<path d="M27.776 10.304c-0.064-0.064-0.128-0.192-0.192-0.256s-0.192-0.128-0.256-0.192c-0.064-0.064-0.192-0.064-0.256-0.064v-0.896c0-0.192-0.128-0.32-0.32-0.384-0.576-0.128-1.856-0.256-3.584-0.256-3.136 0-7.936 0.576-12.864 3.52-0.064 0.064-0.192 0.128-0.256 0.192s-0.192 0.128-0.256 0.192c-0.256 0.128-0.512 0.32-0.768 0.512-0.128 0.064-0.256 0.192-0.384 0.256s-0.256 0.192-0.384 0.256c-2.688 1.984-5.44 4.672-7.872 8.384 0 0 0 0 0 0s0 0 0 0h23.744c0.128 0 0.256-0.128 0.32-0.32 0.128-0.832 0.576-2.24 2.304-2.688 0.192-0.064 0.32-0.192 0.32-0.384v-5.824c0.128 0 0.192-0.064 0.256-0.064 0.128-0.064 0.192-0.064 0.256-0.192 0.064-0.064 0.128-0.128 0.192-0.192 2.496 0.448 2.496 3.968 2.624 6.080 0.064 1.088 1.728 1.088 1.664 0-0.256-3.008-0.64-7.296-4.288-7.68zM23.68 14.784c0 1.344-1.28 1.408-3.136 1.472 0.064 0.256 0.064 0.512-0.064 0.768-0.256 0.448-0.768 0.704-1.344 0.704 0 0 0 0 0 0l-3.904-0.064c-0.576 0-1.088-0.32-1.28-0.768-0.064-0.064-0.064-0.128-0.064-0.192-1.92-0.064-3.328-0.512-2.752-1.536 1.152-1.984 3.136-3.2 6.336-3.776 6.272-1.216 6.272-1.216 6.208 3.392z"></path>
<path d="M0 22.4h25.472v1.344h-25.472v-1.344z"></path>
</svg>
