<!-- Generated by IcoMoon.io -->
<svg version="1.1" xmlns="http://www.w3.org/2000/svg" width="32" height="32" viewBox="0 0 32 32">
<title>kitchen-utensils</title>
<path d="M4.672 22.144v-8.832h0.512v-0.576c0 0-0.64-1.472-0.064-3.712 0-0.512 0-6.592 0-6.592v0c0 0 0 0 0 0 0-0.448-0.384-0.832-0.832-0.832s-0.832 0.384-0.832 0.832c0 0 0 0 0 0v0c0 0 0 5.952 0 6.528 0.448 2.752-0.128 3.776-0.128 3.776v0.576h0.512v8.896c-2.176 0.192-3.84 2.048-3.84 4.224 0 2.368 1.92 4.288 4.288 4.288s4.288-1.92 4.288-4.288c-0.064-2.24-1.728-4.032-3.904-4.288zM3.392 23.936c0.128 0 0.256 0.128 0.256 0.256s-0.128 0.256-0.256 0.256-0.256-0.128-0.256-0.256c0-0.128 0.128-0.256 0.256-0.256zM2.944 22.976c0.128 0 0.256 0.128 0.256 0.256s-0.128 0.256-0.256 0.256-0.256-0.128-0.256-0.256c-0.064-0.128 0.064-0.256 0.256-0.256zM3.328 26.496c0 0.128-0.128 0.256-0.256 0.256s-0.256-0.128-0.256-0.256c0-0.128 0.128-0.256 0.256-0.256s0.256 0.128 0.256 0.256zM2.624 24.384c0.128 0 0.256 0.128 0.256 0.256s-0.128 0.256-0.256 0.256c-0.128 0-0.256-0.128-0.256-0.256s0.128-0.256 0.256-0.256zM2.496 25.536c0 0.128-0.128 0.256-0.256 0.256s-0.256-0.128-0.256-0.256c0-0.128 0.128-0.256 0.256-0.256s0.256 0.064 0.256 0.256zM2.176 26.432c0 0.128-0.128 0.256-0.256 0.256s-0.256-0.128-0.256-0.256c0-0.128 0.128-0.256 0.256-0.256 0.192 0 0.256 0.064 0.256 0.256zM1.92 23.744c0.128 0 0.256 0.128 0.256 0.256 0 0.192-0.128 0.32-0.256 0.32s-0.256-0.128-0.256-0.256c-0.064-0.192 0.064-0.32 0.256-0.32zM1.152 24.896c0.128 0 0.256 0.128 0.256 0.256s-0.128 0.256-0.256 0.256c-0.128 0-0.256-0.128-0.256-0.256s0.128-0.256 0.256-0.256zM0.576 26.496c0-0.128 0.128-0.256 0.256-0.256s0.256 0.128 0.256 0.256c0 0.128-0.128 0.256-0.256 0.256s-0.256-0.128-0.256-0.256zM1.152 28.16c-0.128 0-0.256-0.128-0.256-0.256s0.128-0.256 0.256-0.256c0.128 0 0.256 0.128 0.256 0.256s-0.128 0.256-0.256 0.256zM1.856 29.12c-0.128 0-0.256-0.128-0.256-0.256s0.128-0.256 0.256-0.256c0.128 0 0.256 0.128 0.256 0.256s-0.064 0.256-0.256 0.256zM2.048 27.52c-0.128 0-0.256-0.128-0.256-0.256s0.128-0.256 0.256-0.256c0.128 0 0.256 0.128 0.256 0.256s-0.128 0.256-0.256 0.256zM2.368 28.16c0-0.128 0.128-0.256 0.256-0.256s0.256 0.128 0.256 0.256c0 0.128-0.128 0.256-0.256 0.256s-0.256-0.128-0.256-0.256zM2.944 29.888c-0.128 0-0.256-0.128-0.256-0.256s0.128-0.256 0.256-0.256c0.128 0 0.256 0.128 0.256 0.256s-0.128 0.256-0.256 0.256zM3.328 28.928c-0.128 0-0.256-0.128-0.256-0.256s0.128-0.256 0.256-0.256c0.128 0 0.256 0.128 0.256 0.256s-0.064 0.256-0.256 0.256zM3.456 27.648c-0.128 0-0.256-0.128-0.256-0.256s0.128-0.256 0.256-0.256 0.256 0.128 0.256 0.256c0 0.128-0.064 0.256-0.256 0.256zM3.456 25.92c-0.128 0-0.256-0.128-0.256-0.256s0.128-0.256 0.256-0.256 0.256 0.128 0.256 0.256c0 0.128-0.064 0.256-0.256 0.256zM6.592 25.472c0.128 0 0.256 0.128 0.256 0.256s-0.128 0.256-0.256 0.256c-0.128 0-0.256-0.128-0.256-0.256 0-0.192 0.128-0.256 0.256-0.256zM5.696 23.040c0.128 0 0.256 0.128 0.256 0.256s-0.128 0.256-0.256 0.256c-0.128 0-0.256-0.128-0.256-0.256 0-0.192 0.128-0.32 0.256-0.256zM5.248 24.064c0.128 0 0.256 0.128 0.256 0.256s-0.128 0.256-0.256 0.256c-0.128 0-0.256-0.128-0.256-0.256 0-0.192 0.128-0.256 0.256-0.256zM5.568 26.24c0.128 0 0.256 0.128 0.256 0.256s-0.128 0.256-0.256 0.256c-0.128 0-0.256-0.128-0.256-0.256 0-0.192 0.128-0.256 0.256-0.256zM5.184 25.344c0.128 0 0.256 0.128 0.256 0.256s-0.128 0.256-0.256 0.256c-0.128 0-0.256-0.128-0.256-0.256s0.128-0.256 0.256-0.256zM4.352 2.048c0.256 0 0.448 0.192 0.448 0.448s-0.192 1.088-0.448 1.088c-0.256 0.064-0.448-0.768-0.448-1.024s0.192-0.512 0.448-0.512zM4.352 24.32c-0.128 0-0.256-0.128-0.256-0.256s0.128-0.256 0.256-0.256c0.128 0 0.256 0.128 0.256 0.256s-0.128 0.256-0.256 0.256zM4.544 25.28c0 0.128-0.128 0.256-0.256 0.256s-0.256-0.128-0.256-0.256c0-0.128 0.128-0.256 0.256-0.256s0.256 0.128 0.256 0.256zM4.032 22.912c0-0.128 0.128-0.256 0.256-0.256s0.256 0.128 0.256 0.256c0 0.128-0.128 0.256-0.256 0.256-0.192 0.064-0.256-0.064-0.256-0.256zM4.288 30.144c-0.128 0-0.256-0.128-0.256-0.256s0.128-0.256 0.256-0.256c0.128 0 0.256 0.128 0.256 0.256s-0.128 0.256-0.256 0.256zM4.288 29.12c-0.128 0-0.256-0.128-0.256-0.256s0.128-0.256 0.256-0.256c0.128 0 0.256 0.128 0.256 0.256s-0.128 0.256-0.256 0.256zM4.416 27.904c-0.128 0-0.256-0.128-0.256-0.256s0.128-0.256 0.256-0.256c0.128 0 0.256 0.128 0.256 0.256 0.064 0.128-0.064 0.256-0.256 0.256zM4.352 26.88c-0.192 0-0.384-0.192-0.384-0.384s0.192-0.384 0.384-0.384c0.192 0 0.384 0.192 0.384 0.384-0.064 0.192-0.192 0.384-0.384 0.384zM5.184 27.072c0.128 0 0.256 0.128 0.256 0.256s-0.128 0.256-0.256 0.256c-0.128 0-0.256-0.128-0.256-0.256s0.128-0.256 0.256-0.256zM4.928 28.672c0-0.128 0.128-0.256 0.256-0.256s0.256 0.128 0.256 0.256c0 0.128-0.128 0.256-0.256 0.256s-0.256-0.128-0.256-0.256zM5.568 30.016c-0.128 0-0.256-0.128-0.256-0.256s0.128-0.256 0.256-0.256c0.128 0 0.256 0.128 0.256 0.256s-0.128 0.256-0.256 0.256zM5.952 28.416c-0.128 0-0.256-0.128-0.256-0.256s0.128-0.256 0.256-0.256c0.128 0 0.256 0.128 0.256 0.256s-0.128 0.256-0.256 0.256zM5.952 25.152c-0.128 0-0.256-0.128-0.256-0.256s0.128-0.256 0.256-0.256c0.128 0 0.256 0.128 0.256 0.256s-0.128 0.256-0.256 0.256zM6.336 27.52c0-0.128 0.128-0.256 0.256-0.256s0.256 0.128 0.256 0.256c0 0.128-0.128 0.256-0.256 0.256s-0.256-0.128-0.256-0.256zM6.72 29.184c-0.128 0-0.256-0.128-0.256-0.256s0.128-0.256 0.256-0.256c0.128 0 0.256 0.128 0.256 0.256 0 0.192-0.064 0.256-0.256 0.256zM6.72 26.88c-0.128 0-0.256-0.128-0.256-0.256s0.128-0.256 0.256-0.256c0.128 0 0.256 0.128 0.256 0.256s-0.064 0.256-0.256 0.256zM6.784 24.32c-0.128 0-0.256-0.128-0.256-0.256s0.128-0.256 0.256-0.256c0.128 0 0.256 0.128 0.256 0.256s-0.064 0.256-0.256 0.256zM7.552 27.968c-0.128 0-0.256-0.128-0.256-0.256s0.128-0.256 0.256-0.256c0.128 0 0.256 0.128 0.256 0.256 0.064 0.128-0.064 0.256-0.256 0.256zM8.064 26.368c0 0.128-0.128 0.256-0.256 0.256s-0.256-0.128-0.256-0.256c0-0.128 0.128-0.256 0.256-0.256s0.256 0.128 0.256 0.256zM7.744 25.152c0 0.128-0.128 0.256-0.256 0.256s-0.256-0.128-0.256-0.256c0-0.128 0.128-0.256 0.256-0.256 0.192 0 0.256 0.064 0.256 0.256z"></path>
<path d="M13.12 21.632v-8.064h0.64v-0.576c0 0-0.704-1.536-0.064-3.84 0-0.512 0-6.72 0-6.72v0c0 0 0 0 0 0 0-0.448-0.384-0.832-0.832-0.832s-0.832 0.384-0.832 0.832c0 0 0 0 0 0v0c0 0 0 6.144 0 6.656 0.448 2.816-0.128 3.84-0.128 3.84v0.576h0.64v8c0 0-2.496 1.984-2.496 2.56s0 2.752 0 2.944c0 0.256-0.064 3.584 1.408 3.584 0.448 0 1.216 0 1.344 0 0 0 0 0 0 0 0.128 0 0.896 0 1.344 0 1.408 0 1.408-3.328 1.408-3.584s0-2.432 0-2.944c0-0.448-2.176-2.24-2.432-2.432zM11.072 29.888h-0.32v-5.632h0.32v5.632zM12.032 30.016h-0.32v-4.736h0.32v4.736zM12.416 2.56c0-0.256 0.192-0.448 0.448-0.448s0.448 0.192 0.448 0.448c0 0.256-0.192 1.152-0.448 1.152s-0.448-0.896-0.448-1.152zM12.608 30.016v-4.096h0.32v4.096h-0.32zM13.824 30.016h-0.32v-4.736h0.32v4.736zM14.72 29.824h-0.32v-5.632h0.32v5.632z"></path>
<path d="M21.504 15.744h0.32v-0.704c0 0-0.832-1.792-0.064-4.48 0-0.576 0-7.872 0-7.872v0c0 0 0 0 0 0 0-0.512-0.448-0.96-0.96-0.96s-0.96 0.448-0.96 0.96c0 0 0 0 0 0v0c0 0 0 7.168 0 7.872 0.576 3.264-0.128 4.544-0.128 4.544v0.704h0.384c-0.064 1.216-0.704 3.072-1.408 5.12-0.832 2.432-1.728 4.928-1.6 6.4 0.128 1.6 0.832 2.432 1.408 2.816 0.512 0.32 1.088 0.512 1.664 0.512 0.192 0 0.448 0 0.64-0.064l0.32-0.064c0.128 0 0.192 0 0.32 0 0.576 0 1.152-0.192 1.664-0.512 0.576-0.384 1.28-1.216 1.408-2.816 0.128-1.472-0.768-3.968-1.6-6.4-0.704-2.048-1.344-3.904-1.408-5.056zM20.8 2.24c0.32 0 0.576 0.256 0.576 0.576s-0.256 1.344-0.576 1.344c-0.32 0-0.576-1.024-0.576-1.344 0.064-0.384 0.32-0.576 0.576-0.576zM18.752 29.76c-0.512-0.384-1.152-1.088-1.28-2.56-0.128-1.408 0.704-3.84 1.536-6.272 0.192-0.512 0.32-0.96 0.512-1.472-0.704 3.072-1.472 6.848-1.536 7.424-0.064 1.792 1.28 2.816 2.112 3.328-0.512 0-0.96-0.128-1.344-0.448zM18.368 26.944c0-0.384 0.576-3.072 1.152-5.696-0.32 2.624-0.64 5.248-0.64 5.824 0 0.768 0.704 2.048 1.344 2.816-0.768-0.448-1.92-1.408-1.856-2.944zM19.264 27.072c0-0.64 0.448-4.16 0.832-7.168-0.192 4.544-0.192 5.376-0.128 6.208 0 0.256 0 0.576 0 0.96 0 1.088 0.256 1.92 0.512 2.496-0.512-0.64-1.216-1.792-1.216-2.496zM20.736 29.184c-0.192-0.512-0.384-1.216-0.384-2.048 0-0.448 0-0.704 0-0.96 0-1.024-0.064-2.048 0.32-10.048 0-0.128 0.064-0.256 0.064-0.32h0.064c0 0.064 0 0.128 0.064 0.192 0.384 8 0.384 9.024 0.32 10.048 0 0.256 0 0.576 0 1.024 0 0.832-0.256 1.536-0.448 2.112zM21.056 29.44c0.256-0.576 0.512-1.408 0.512-2.496 0-0.448 0-0.704 0-0.96 0-0.832 0.064-1.664-0.128-6.208 0.384 3.008 0.832 6.528 0.832 7.168 0 0.704-0.704 1.856-1.216 2.496zM21.312 29.76c0.192-0.256 0.384-0.576 0.448-0.64 0.32-0.512 0.896-1.472 0.896-2.176 0-0.576-0.32-3.2-0.64-5.824 0.576 2.624 1.152 5.312 1.152 5.696 0.064 1.536-1.088 2.496-1.856 2.944zM24.128 27.136c-0.128 1.472-0.768 2.176-1.28 2.56-0.448 0.256-0.896 0.384-1.344 0.384 0.832-0.512 2.176-1.536 2.112-3.328-0.064-0.512-0.832-4.288-1.536-7.36 0.128 0.448 0.32 0.96 0.512 1.472 0.768 2.368 1.6 4.864 1.536 6.272z"></path>
<path d="M32 28.352v0c0-0.064 0-0.064 0 0 0-0.064-0.064-0.128-0.064-0.192-1.536-2.88-2.752-7.808-2.816-9.792v-2.24h0.704v-0.768c0 0-0.832-1.856-0.064-4.736 0-0.576 0-8.256 0-8.256v0c0 0 0 0 0 0 0-0.576-0.448-1.024-1.024-1.024s-1.024 0.448-1.024 1.024c0 0 0 0 0 0v0c0 0 0 7.552 0 8.256 0.576 3.456-0.128 4.736-0.128 4.736v0.768h0.64v2.048c0 1.856-1.28 6.976-2.816 9.984-0.064 0.128-0.128 0.192-0.128 0.32 0 0.64 1.536 1.152 3.392 1.152s3.392-0.512 3.392-1.152c-0.064-0.064-0.064-0.128-0.064-0.128zM28.736 1.92c0.32 0 0.576 0.256 0.576 0.576s-0.256 1.408-0.576 1.408c-0.32-0.064-0.576-1.088-0.576-1.408s0.256-0.576 0.576-0.576zM28.608 27.264c-1.024 0-1.984 0.192-2.56 0.384 1.28-2.752 2.304-6.72 2.496-8.832h0.192c0.192 2.112 1.216 6.080 2.496 8.832-0.64-0.192-1.6-0.384-2.624-0.384z"></path>
</svg>
