<!-- Generated by IcoMoon.io -->
<svg version="1.1" xmlns="http://www.w3.org/2000/svg" width="32" height="32" viewBox="0 0 32 32">
<title>laundry-machine</title>
<path d="M5.824 4.672c0 0.424-0.344 0.768-0.768 0.768s-0.768-0.344-0.768-0.768c0-0.424 0.344-0.768 0.768-0.768s0.768 0.344 0.768 0.768z"></path>
<path d="M8.384 4.672c0 0.424-0.344 0.768-0.768 0.768s-0.768-0.344-0.768-0.768c0-0.424 0.344-0.768 0.768-0.768s0.768 0.344 0.768 0.768z"></path>
<path d="M22.656 4.672c0 0.424-0.344 0.768-0.768 0.768s-0.768-0.344-0.768-0.768c0-0.424 0.344-0.768 0.768-0.768s0.768 0.344 0.768 0.768z"></path>
<path d="M25.152 4.672c0 0.424-0.344 0.768-0.768 0.768s-0.768-0.344-0.768-0.768c0-0.424 0.344-0.768 0.768-0.768s0.768 0.344 0.768 0.768z"></path>
<path d="M27.712 4.672c0 0.424-0.344 0.768-0.768 0.768s-0.768-0.344-0.768-0.768c0-0.424 0.344-0.768 0.768-0.768s0.768 0.344 0.768 0.768z"></path>
<path d="M16 26.048c3.84 0 6.912-3.136 6.912-6.912s-3.072-6.976-6.912-6.976-6.912 3.136-6.912 6.912c0 3.904 3.072 6.976 6.912 6.976zM16 13.632c3.072 0 5.504 2.496 5.504 5.504 0 0.064 0 0.064 0 0.128-0.256 0.192-0.512 0.384-1.024 0.384-0.576 0-0.896-0.256-1.152-0.512s-0.576-0.448-1.088-0.448-0.832 0.256-1.088 0.448c-0.256 0.256-0.576 0.512-1.152 0.512s-0.896-0.256-1.152-0.512c-0.256-0.256-0.576-0.448-1.088-0.448s-0.832 0.256-1.088 0.448c-0.256 0.256-0.576 0.512-1.152 0.512-0.512 0-0.832-0.192-1.088-0.448 0 0 0-0.064 0-0.064 0.064-3.072 2.496-5.504 5.568-5.504z"></path>
<path d="M2.496 32h26.944v-25.728h-26.944v25.728zM16 10.624c4.672 0 8.512 3.84 8.512 8.512s-3.84 8.512-8.512 8.512c-4.672 0-8.512-3.84-8.512-8.512 0-4.736 3.84-8.512 8.512-8.512z"></path>
<path d="M2.496 0h26.944v2.752h-26.944v-2.752z"></path>
</svg>
