<!-- Generated by IcoMoon.io -->
<svg version="1.1" xmlns="http://www.w3.org/2000/svg" width="32" height="32" viewBox="0 0 32 32">
<title>lounger</title>
<path d="M22.592 1.92v-0.96c0-0.512-0.448-0.96-0.96-0.96s-0.96 0.448-0.96 0.96v0.96c-5.248 0.448-9.344 4.928-9.344 10.304 0 0.32 0.192 0.64 0.512 0.832s0.704 0.128 0.96-0.064c1.408-0.96 3.2-0.96 4.608 0 0.256 0.192 0.64 0.192 0.96 0.064l1.472-0.768c0.32-0.128 0.576-0.256 0.896-0.32v10.624h1.856v-10.56c0.32 0.064 0.64 0.192 0.896 0.32l1.472 0.768c0.32 0.128 0.704 0.128 1.024-0.064 1.408-0.96 3.2-0.96 4.608 0 0.32 0.192 0.64 0.192 0.96 0.064 0.32-0.192 0.512-0.512 0.512-0.832-0.064-5.376-4.224-9.92-9.472-10.368z"></path>
<path d="M28.8 28.16c0.768-0.256 1.344-0.896 1.344-1.792 0-1.024-0.832-1.856-1.856-1.856h-19.84l-5.056-6.784c-0.64-0.832-1.792-0.96-2.624-0.384-0.832 0.64-1.024 1.792-0.384 2.624l5.632 7.552c0.256 0.32 0.576 0.512 0.96 0.64l-1.28 2.496c-0.256 0.448-0.064 1.024 0.448 1.28 0.448 0.256 1.024 0.064 1.28-0.448l1.6-3.2h17.728l1.6 3.2c0.256 0.448 0.768 0.64 1.28 0.448 0.448-0.256 0.64-0.768 0.448-1.28l-1.28-2.496z"></path>
<path d="M16 18.88h-9.408l1.408 1.856h8c0.512 0 0.96 0.448 0.96 0.96v0.96h1.856v-0.96c0-1.536-1.28-2.816-2.816-2.816z"></path>
</svg>
