<!-- Generated by IcoMoon.io -->
<svg version="1.1" xmlns="http://www.w3.org/2000/svg" width="32" height="32" viewBox="0 0 32 32">
<title>microweave</title>
<path d="M21.888 8h-17.088c-0.896 0-1.6 0.704-1.6 1.6v10.688c0 0.896 0.704 1.6 1.6 1.6h17.088c0.896 0 1.6-0.704 1.6-1.6v-10.688c0-0.896-0.768-1.6-1.6-1.6zM4.416 11.904l2.688-2.688c0.192-0.192 0.576-0.192 0.768 0s0.192 0.576 0 0.768l-2.688 2.688c-0.128 0.064-0.256 0.128-0.384 0.128s-0.256-0.064-0.384-0.128c-0.192-0.256-0.192-0.576 0-0.768zM6.272 14.272l-1.088 1.088c-0.128 0.128-0.256 0.128-0.384 0.128s-0.256-0.064-0.384-0.128c-0.192-0.192-0.192-0.576 0-0.768l1.088-1.088c0.192-0.192 0.576-0.192 0.768 0s0.192 0.512 0 0.768zM7.872 12.672l-0.512 0.512c-0.128 0.128-0.256 0.128-0.384 0.128s-0.256-0.064-0.384-0.128c-0.192-0.192-0.192-0.576 0-0.768l0.512-0.512c0.192-0.192 0.576-0.192 0.768 0s0.192 0.512 0 0.768zM10.496 9.984l-1.6 1.6c-0.128 0.128-0.256 0.128-0.384 0.128s-0.256-0.064-0.384-0.128c-0.192-0.192-0.192-0.576 0-0.768l1.6-1.6c0.192-0.192 0.576-0.192 0.768 0s0.192 0.576 0 0.768zM21.312 18.112c0.32 0 0.512 0.256 0.512 0.512 0 0.32-0.256 0.512-0.512 0.512h-2.112c-0.32 0-0.512-0.256-0.512-0.512v-7.424c0-0.32 0.256-0.512 0.512-0.512h2.112c0.32 0 0.512 0.256 0.512 0.512s-0.256 0.512-0.512 0.512h-1.6v6.4h1.6z"></path>
<path d="M28.8 9.088c0 0.601-0.487 1.088-1.088 1.088s-1.088-0.487-1.088-1.088c0-0.601 0.487-1.088 1.088-1.088s1.088 0.487 1.088 1.088z"></path>
<path d="M30.4 25.088c0.896 0 1.6-0.704 1.6-1.6v-17.088c0-0.896-0.704-1.6-1.6-1.6h-28.8c-0.896 0-1.6 0.704-1.6 1.6v17.088c0 0.896 0.704 1.6 1.6 1.6h0.512v1.088h-1.6c-0.32 0-0.512 0.256-0.512 0.512s0.256 0.512 0.512 0.512h30.976c0.32 0 0.512-0.256 0.512-0.512s-0.256-0.512-0.512-0.512h-1.6v-1.088h0.512zM27.712 6.912c1.152 0 2.112 0.96 2.112 2.112s-0.96 2.112-2.112 2.112-2.112-0.896-2.112-2.048 0.96-2.176 2.112-2.176zM28.8 15.488c-0.32 0-0.512-0.256-0.512-0.512v-0.512c0-0.32 0.256-0.512 0.512-0.512 0.32 0 0.512 0.256 0.512 0.512v0.512c0 0.256-0.192 0.512-0.512 0.512zM29.312 16.512v0.512c0 0.32-0.256 0.512-0.512 0.512-0.32 0-0.512-0.256-0.512-0.512v-0.512c0-0.32 0.256-0.512 0.512-0.512 0.32 0 0.512 0.256 0.512 0.512zM28.8 13.312c-0.32 0-0.512-0.256-0.512-0.512v-0.512c0-0.32 0.256-0.512 0.512-0.512 0.32 0 0.512 0.256 0.512 0.512v0.512c0 0.32-0.192 0.512-0.512 0.512zM26.688 15.488c-0.32 0-0.512-0.256-0.512-0.512v-0.512c0-0.32 0.256-0.512 0.512-0.512s0.512 0.256 0.512 0.512v0.512c0 0.256-0.256 0.512-0.512 0.512zM27.2 16.512v0.512c0 0.32-0.256 0.512-0.512 0.512s-0.512-0.256-0.512-0.512v-0.512c0-0.32 0.256-0.512 0.512-0.512s0.512 0.256 0.512 0.512zM26.688 13.312c-0.32 0-0.512-0.256-0.512-0.512v-0.512c0-0.32 0.256-0.512 0.512-0.512s0.512 0.256 0.512 0.512v0.512c0 0.32-0.256 0.512-0.512 0.512zM2.112 20.288v-10.688c0-1.472 1.216-2.688 2.688-2.688h17.088c1.472 0 2.688 1.216 2.688 2.688v10.688c0 1.472-1.216 2.688-2.688 2.688h-17.088c-1.472-0.064-2.688-1.216-2.688-2.688zM3.2 26.112v-1.088h2.688v1.088h-2.688zM25.088 26.112h-18.176v-1.088h18.112l0.064 1.088zM28.8 26.112h-2.688v-1.088h2.688v1.088zM27.712 22.912c-1.152 0-2.112-0.96-2.112-2.112s0.96-2.112 2.112-2.112c1.152 0 2.112 0.96 2.112 2.112 0.064 1.152-0.896 2.112-2.112 2.112z"></path>
<path d="M28.8 20.8c0 0.601-0.487 1.088-1.088 1.088s-1.088-0.487-1.088-1.088c0-0.601 0.487-1.088 1.088-1.088s1.088 0.487 1.088 1.088z"></path>
</svg>
