<!-- Generated by IcoMoon.io -->
<svg version="1.1" xmlns="http://www.w3.org/2000/svg" width="32" height="32" viewBox="0 0 32 32">
<title>oven</title>
<path d="M28.864 1.728h-1.28c0.128-0.192 0.128-0.384 0.128-0.576s-0.064-0.384-0.128-0.576c-0.256-0.32-0.576-0.576-1.024-0.576h-7.424c-0.448 0-0.768 0.256-0.96 0.576-0.128 0.192-0.128 0.384-0.128 0.576s0.064 0.384 0.128 0.576h-4.288c0.128-0.192 0.128-0.384 0.128-0.576s-0.064-0.384-0.128-0.576c-0.256-0.32-0.64-0.576-1.024-0.576h-7.424c-0.448 0-0.768 0.256-1.024 0.576-0.064 0.192-0.128 0.384-0.128 0.576s0.064 0.384 0.128 0.576h-1.28c-0.96 0-1.728 0.768-1.728 1.728v4.032h29.12v-4.032c0.064-0.96-0.704-1.728-1.664-1.728zM6.848 5.952c-0.64 0-1.152-0.512-1.152-1.152s0.512-1.152 1.152-1.152 1.152 0.512 1.152 1.152-0.512 1.152-1.152 1.152zM11.136 5.952c-0.64 0-1.152-0.512-1.152-1.152s0.512-1.152 1.152-1.152c0.64 0 1.152 0.512 1.152 1.152s-0.512 1.152-1.152 1.152zM16 5.952c-0.64 0-1.152-0.512-1.152-1.152s0.512-1.152 1.152-1.152 1.152 0.512 1.152 1.152-0.512 1.152-1.152 1.152zM20.544 5.952c-0.64 0-1.152-0.512-1.152-1.152s0.512-1.152 1.152-1.152c0.64 0 1.152 0.512 1.152 1.152s-0.512 1.152-1.152 1.152zM25.152 5.952c-0.64 0-1.152-0.512-1.152-1.152s0.512-1.152 1.152-1.152c0.64 0 1.152 0.512 1.152 1.152s-0.512 1.152-1.152 1.152z"></path>
<path d="M1.408 30.272c0 0.96 0.768 1.728 1.728 1.728h25.728c0.96 0 1.728-0.768 1.728-1.728v-21.696h-29.184v21.696zM6.016 10.304h19.456c0.32 0 0.576 0.256 0.576 0.576s-0.256 0.576-0.576 0.576h-19.456c-0.32 0-0.576-0.256-0.576-0.576s0.256-0.576 0.576-0.576zM4.864 14.848c0-0.96 0.768-1.728 1.728-1.728h18.88c0.96 0 1.728 0.768 1.728 1.728v12.032c0 0.96-0.768 1.728-1.728 1.728h-18.88c-0.96 0-1.728-0.768-1.728-1.728v-12.032z"></path>
<path d="M12.096 14.272l-6.080 4.288v1.984l8.96-6.272z"></path>
<path d="M25.408 27.456h0.576v-13.184h-8.512l-11.456 8.064v5.12h0.576z"></path>
</svg>
