<!-- Generated by IcoMoon.io -->
<svg version="1.1" xmlns="http://www.w3.org/2000/svg" width="32" height="32" viewBox="0 0 32 32">
<title>palm-tree</title>
<path d="M31.744 24.448c-4.608-1.792-9.28-2.88-13.952-3.136-0.32-4.8-0.512-8.768-0.512-9.472 1.792 0.064 3.264 0.832 4.416 2.368 1.024 1.344 1.408 2.816 1.408 2.88 0.064 0.128 0.128 0.256 0.32 0.32 0 0 0.064 0 0.064 0 0.128 0 0.256-0.064 0.32-0.192 0.768-1.088 1.152-2.368 0.96-3.712s-0.896-2.496-1.984-3.264c-0.64-0.448-1.408-0.768-2.176-0.896 1.088-0.128 2.24-0.064 3.392 0.256 2.176 0.64 3.712 1.92 3.776 1.92 0.128 0.128 0.256 0.128 0.448 0.064 0.128-0.064 0.256-0.192 0.256-0.384 0-3.52-2.88-6.4-6.4-6.4-1.28 0-2.496 0.384-3.456 1.024 0.96-1.088 2.24-1.792 3.776-2.112 1.984-0.448 3.776-0.064 3.776-0.064 0.128 0.064 0.32 0 0.384-0.128s0.128-0.32 0.064-0.448c-1.536-2.816-5.056-3.904-7.872-2.432-1.28 0.64-2.176 1.728-2.688 3.072-0.512-1.28-1.408-2.368-2.688-3.072-2.816-1.536-6.4-0.448-7.872 2.432-0.192 0.128-0.192 0.32-0.064 0.448 0.064 0.128 0.256 0.192 0.384 0.128 0 0 1.792-0.384 3.776 0.064 1.6 0.32 2.816 1.024 3.776 2.112-1.024-0.64-2.176-1.024-3.456-1.024-3.52 0-6.4 2.88-6.4 6.4 0 0.128 0.064 0.32 0.256 0.384 0.128 0.064 0.32 0.064 0.448-0.064 0 0 1.536-1.28 3.712-1.92 1.216-0.32 2.368-0.448 3.456-0.256-0.768 0.128-1.472 0.448-2.112 0.896-1.088 0.768-1.792 1.984-1.984 3.264-0.192 1.344 0.128 2.624 0.96 3.712 0.064 0.128 0.192 0.192 0.32 0.192 0 0 0.064 0 0.064 0 0.128-0.064 0.256-0.128 0.32-0.32 0 0 0.384-1.472 1.408-2.88 1.088-1.472 2.56-2.24 4.224-2.368-0.064 0.704-0.192 4.672-0.512 9.472-8.384 0.256-13.632 3.008-13.888 3.136-0.192 0.128-0.256 0.32-0.192 0.512 0.064 0.128 0.192 0.192 0.384 0.192 0.064 0 0.128 0 0.192-0.064 0.064 0.064 5.312-2.688 13.504-3.008-0.192 3.072-0.448 6.4-0.704 9.472 0 0.128 0 0.192 0.128 0.32 0.064 0.064 0.192 0.128 0.32 0.128h4.416c0.128 0 0.192-0.064 0.32-0.128 0.064-0.064 0.128-0.192 0.128-0.32-0.256-3.008-0.512-6.4-0.704-9.408 4.544 0.256 9.152 1.28 13.632 3.072 0.064 0 0.128 0 0.128 0 0.128 0 0.32-0.128 0.384-0.256-0.064-0.192-0.192-0.448-0.384-0.512zM22.272 10.816c0.896 0.64 1.472 1.664 1.664 2.752 0.128 0.832 0 1.664-0.384 2.368-0.64-1.6-2.432-4.928-6.528-4.992 0.576-0.512 1.344-0.832 2.112-0.96 1.152-0.064 2.24 0.192 3.136 0.832zM16.896 19.84c0.064 1.024 0.128 2.048 0.192 3.136h-2.24c0.064-1.088 0.128-2.112 0.192-3.136h1.856zM15.104 19.072c0.064-1.152 0.128-2.176 0.192-3.136h1.344c0.064 0.96 0.128 1.984 0.192 3.136h-1.728zM22.016 5.568c2.816 0 5.184 2.112 5.568 4.8-1.088-0.704-3.328-1.92-5.952-1.92-1.6 0-3.392 0.448-5.184 1.856 0.448-2.688 2.752-4.736 5.568-4.736zM16.576 4.352c0.384-1.28 1.28-2.368 2.432-2.944 0.768-0.384 1.536-0.576 2.368-0.576 1.536 0 3.008 0.704 3.968 1.984-1.92-0.256-6.656-0.128-8.768 4.48-0.256-0.96-0.32-1.984 0-2.944zM16.064 11.84c0 0 0.064 0 0.128 0 0.128 0 0.192 0 0.32 0 0 0.32 0.064 1.536 0.192 3.328h-1.344c0.128-1.792 0.128-3.008 0.192-3.328 0.128 0 0.32 0 0.448 0.064 0-0.064 0-0.064 0.064-0.064zM7.552 2.752c-0.384 0-0.768 0-1.024 0.064 1.472-1.92 4.16-2.56 6.336-1.408s3.136 3.648 2.432 5.952c-1.792-3.968-5.44-4.608-7.744-4.608zM4.416 10.368c0.384-2.688 2.752-4.736 5.504-4.736s5.056 1.984 5.504 4.672c-4.48-3.584-9.216-1.088-11.008 0.064zM8.512 16c-0.32-0.768-0.448-1.536-0.384-2.368 0.192-1.088 0.768-2.112 1.664-2.752 0.704-0.512 1.6-0.832 2.496-0.832 0.192 0 0.384 0 0.64 0.064 0.768 0.128 1.536 0.448 2.112 0.96-4.096 0-5.888 3.264-6.528 4.928zM14.784 23.808h2.368c0.064 1.024 0.128 2.112 0.256 3.136h-2.816c0.064-1.088 0.128-2.112 0.192-3.136zM14.208 31.168c0.128-1.152 0.192-2.304 0.32-3.456h2.944c0.064 1.152 0.192 2.368 0.32 3.456h-3.584z"></path>
</svg>
