<!-- Generated by IcoMoon.io -->
<svg version="1.1" xmlns="http://www.w3.org/2000/svg" width="32" height="32" viewBox="0 0 32 32">
<title>pillows</title>
<path d="M21.12 26.816l-0.384-0.384c0.512-3.264 0.512-6.592 0-9.856l0.384-0.384c0.576-0.576 0.576-1.408 0.064-1.984-0.576-0.576-1.472-0.576-2.048 0l-0.384 0.384-1.664-0.384c-2.112-0.512-4.224-0.768-6.336-0.768s-4.288 0.256-6.336 0.768l-1.664 0.384-0.384-0.384c-0.576-0.576-1.472-0.576-2.048 0-0.512 0.576-0.512 1.472 0.064 1.984l0.256 0.384c-0.512 3.264-0.512 6.592 0 9.856v0l-0.384 0.384c-0.576 0.576-0.576 1.472 0 2.048 0.576 0.512 1.472 0.512 1.984-0.064l0.384-0.384 1.728 0.384c2.112 0.512 4.224 0.768 6.336 0.768s4.288-0.256 6.336-0.768l1.664-0.384 0.384 0.384c0.576 0.576 1.408 0.576 1.984 0.064 0.64-0.576 0.64-1.536 0.064-2.048z"></path>
<path d="M31.424 18.688l-0.384-0.384c0.512-3.264 0.512-6.592 0-9.856l0.384-0.384c0.576-0.576 0.576-1.408 0.064-1.984-0.576-0.576-1.472-0.576-2.048 0l-0.384 0.384-1.664-0.384c-2.112-0.512-4.224-0.768-6.336-0.768s-4.288 0.256-6.336 0.768l-1.664 0.384-0.384-0.384c-0.576-0.576-1.472-0.576-2.048 0-0.512 0.576-0.512 1.472 0.064 1.984l0.384 0.384c-0.192 1.024-0.256 2.048-0.32 3.008 0 0 0.064 0 0.064 0v0 0c2.304 0 4.608 0.256 6.784 0.832l0.704 0.192c0.576-0.384 1.216-0.64 1.92-0.64 0.896 0 1.792 0.384 2.368 1.024s0.896 1.472 0.896 2.368c0 0.704-0.256 1.408-0.704 1.92 0.192 1.408 0.256 2.816 0.256 4.224 1.472-0.128 2.944-0.32 4.352-0.704l1.664-0.384 0.384 0.384c0.576 0.576 1.408 0.576 1.984 0.064 0.576-0.576 0.576-1.472 0-2.048z"></path>
</svg>
