<!-- Generated by IcoMoon.io -->
<svg version="1.1" xmlns="http://www.w3.org/2000/svg" width="32" height="32" viewBox="0 0 32 32">
<title>shower</title>
<path d="M14.464 5.568c-5.696 0.512-10.24 3.84-10.816 8-0.576 1.088-0.896 2.24-0.896 3.456 0 3.328 7.168 4.544 13.248 4.544s13.248-1.216 13.248-4.544c0-1.216-0.32-2.368-0.896-3.456-0.64-4.16-5.056-7.424-10.752-7.936 0.128-1.792 0.704-3.392 1.6-4.8-1.024-0.576-2.112-0.832-3.2-0.832-0.896 1.664-1.472 3.584-1.536 5.568zM27.584 16c0.064 0.32 0.064 0.64 0.064 1.024 0 1.408-4.672 2.944-11.648 2.944s-11.648-1.536-11.648-2.944c0-0.32 0.064-0.704 0.128-1.024 3.84 3.008 19.2 3.008 23.104 0z"></path>
<path d="M5.184 25.984c0 0.896 0.512 1.664 1.152 1.664s1.152-0.768 1.152-1.664c0-0.896-1.152-2.688-1.152-2.688s-1.152 1.792-1.152 2.688z"></path>
<path d="M14.848 25.984c0 0.896 0.512 1.664 1.152 1.664s1.152-0.768 1.152-1.664c0-0.896-1.152-2.688-1.152-2.688s-1.152 1.792-1.152 2.688z"></path>
<path d="M24.512 25.984c0 0.896 0.512 1.664 1.152 1.664s1.152-0.768 1.152-1.664c0-0.896-1.152-2.688-1.152-2.688s-1.152 1.792-1.152 2.688z"></path>
<path d="M9.984 30.336c0 0.896 0.512 1.664 1.152 1.664s1.152-0.768 1.152-1.664c0-0.896-1.152-2.688-1.152-2.688s-1.152 1.792-1.152 2.688z"></path>
<path d="M19.712 30.336c0 0.896 0.512 1.664 1.152 1.664s1.152-0.768 1.152-1.664c0-0.896-1.152-2.688-1.152-2.688s-1.152 1.792-1.152 2.688z"></path>
</svg>
