<!-- Generated by IcoMoon.io -->
<svg version="1.1" xmlns="http://www.w3.org/2000/svg" width="32" height="32" viewBox="0 0 32 32">
<title>table-tennis-racket</title>
<path d="M26.304 26.24c-0.64 0-1.216 0.256-1.664 0.704-0.896 0.896-0.896 2.432 0 3.392 0.448 0.448 1.024 0.704 1.664 0.704s1.216-0.256 1.664-0.704c0.896-0.896 0.896-2.432 0-3.392-0.448-0.448-1.024-0.704-1.664-0.704zM26.304 30.080c-0.128 0-0.256-0.128-0.256-0.256s0.128-0.256 0.256-0.256c0.512 0 0.96-0.448 0.96-0.96 0-0.128 0.128-0.256 0.256-0.256s0.256 0.128 0.256 0.256c-0.064 0.832-0.704 1.472-1.472 1.472z"></path>
<path d="M6.4 23.552c0.704 0.064 1.344 0.32 1.792 0.704 0.896 0.832 1.28 1.856 1.344 3.2 0 0.512 0.064 1.152 0.128 1.856l0.128 0.768c0.064 0.32 0.256 0.576 0.512 0.768s0.576 0.192 0.896 0.128l2.688-0.768c0.256-0.064 0.512-0.256 0.64-0.512 0.192-0.32 0.192-0.704 0.064-1.024l-0.448-0.96c-0.192-0.448-0.448-0.96-0.768-1.472-0.704-1.152-0.896-2.24-0.64-3.328 0.128-0.576 0.512-1.152 1.088-1.536 0.832-0.64 1.472-1.408 1.984-2.24 0.064-0.128 0.128-0.256 0.192-0.384l-13.056 3.648c1.024 0.64 2.176 1.024 3.456 1.152z"></path>
<path d="M15.488 13.632c-1.28-4.544-5.824-7.424-9.984-6.208s-6.464 6.144-5.12 10.688c0.384 1.408 1.024 2.304 2.112 3.968l13.312-3.84c0.064-1.984 0.064-3.2-0.32-4.608z"></path>
<path d="M18.752 15.488c0.576 0.384 0.96 0.96 1.152 1.536 0.32 1.152 0.192 2.24-0.512 3.456-0.256 0.448-0.576 1.024-0.832 1.664l-0.32 0.704c-0.128 0.32-0.128 0.64 0 0.896s0.384 0.512 0.704 0.576l2.688 0.704c0.256 0.064 0.576 0.064 0.832-0.128 0.32-0.192 0.512-0.512 0.576-0.832l0.128-1.024c0.064-0.512 0.064-1.088 0.064-1.664 0-1.344 0.384-2.368 1.152-3.2 0.448-0.448 1.024-0.704 1.728-0.768 1.024-0.128 1.984-0.448 2.88-0.96 0.128-0.064 0.256-0.128 0.32-0.192l-12.928-3.456c0.576 1.024 1.344 1.984 2.368 2.688z"></path>
<path d="M31.68 11.712c1.216-4.544-1.152-9.344-5.376-10.496s-8.64 1.984-9.856 6.528c-0.384 1.408-0.32 2.496-0.192 4.48l13.376 3.584c1.024-1.664 1.664-2.688 2.048-4.096z"></path>
</svg>
