<!-- Generated by IcoMoon.io -->
<svg version="1.1" xmlns="http://www.w3.org/2000/svg" width="32" height="32" viewBox="0 0 32 32">
<title>toaster</title>
<path d="M15.808 1.856c-12.864-1.024-15.808 5.12-15.808 8.128s0 15.936 0 15.936 13.12 2.944 18.24 4.032c5.12 1.088 13.696-0.704 13.76-3.968 0-3.584 0-16.64 0-17.728s-3.264-5.376-16.192-6.4zM12.672 3.904l14.848 3.264-3.2 0.96-15.104-3.52 3.456-0.704zM20.032 9.728l-15.104-3.456 3.456-0.768 14.848 3.264-3.2 0.96zM24.448 26.88c-0.384 0-0.704-0.32-0.704-0.704s0.32-0.704 0.704-0.704c0.384 0 0.704 0.32 0.704 0.704s-0.32 0.704-0.704 0.704zM26.176 26.368c-0.384 0-0.704-0.32-0.704-0.704s0.32-0.704 0.704-0.704c0.384 0 0.704 0.32 0.704 0.704s-0.32 0.704-0.704 0.704zM30.016 15.104l-1.664 1.152 0.192 8.832c0 0.32-0.256 0.576-0.512 0.576 0 0 0 0 0 0-0.32 0-0.576-0.256-0.576-0.576l-0.192-8.128-1.024 0.704c-0.192 0.128-0.384 0.192-0.64 0.192-0.384 0-0.704-0.192-0.896-0.512-0.32-0.512-0.192-1.216 0.32-1.536l3.84-2.624c0.512-0.32 1.216-0.192 1.536 0.32 0.256 0.576 0.128 1.28-0.384 1.6z"></path>
</svg>
