<!-- Generated by IcoMoon.io -->
<svg version="1.1" xmlns="http://www.w3.org/2000/svg" width="32" height="32" viewBox="0 0 32 32">
<title>toilet</title>
<path d="M25.408 13.248h-18.816c-1.152 0-2.112 0.96-2.112 2.112s0.96 2.112 2.112 2.112h18.752c1.152 0 2.112-0.96 2.112-2.112s-0.896-2.112-2.048-2.112z"></path>
<path d="M6.656 19.456c0.512 4.672 4.48 8.32 9.344 8.32s8.832-3.648 9.344-8.32h-18.688z"></path>
<path d="M23.232 30.528l-1.024-2.496c-1.792 1.152-3.904 1.856-6.208 1.856s-4.416-0.64-6.208-1.856l-1.024 2.496c-0.128 0.32-0.128 0.704 0.128 0.96 0.192 0.32 0.512 0.448 0.896 0.448h12.544c0.32 0 0.704-0.192 0.896-0.448 0.064-0.256 0.128-0.64 0-0.96z"></path>
<path d="M24.32 0h-16.64c-0.576 0-1.024 0.448-1.024 1.024v10.112h18.752v-10.112c0-0.576-0.512-1.024-1.088-1.024zM20.16 6.272h-2.112c-0.576 0-1.024-0.448-1.024-1.024s0.448-1.024 1.024-1.024h2.112c0.576 0 1.024 0.448 1.024 1.024s-0.448 1.024-1.024 1.024z"></path>
</svg>
