<!-- Generated by IcoMoon.io -->
<svg version="1.1" xmlns="http://www.w3.org/2000/svg" width="32" height="32" viewBox="0 0 32 32">
<title>tv</title>
<path d="M29.632 3.84h-27.264c-1.28 0-2.368 1.088-2.368 2.432v16c0 1.344 1.088 2.368 2.368 2.368h10.432v1.088h-1.856c-1.024 0-1.856 0.832-1.856 1.856 0 0.32 0.256 0.512 0.512 0.512s0.512-0.256 0.512-0.512c0-0.448 0.384-0.768 0.832-0.768h10.112c0.448 0 0.768 0.384 0.768 0.768 0 0.32 0.256 0.512 0.512 0.512s0.512-0.256 0.512-0.512c0-1.024-0.832-1.856-1.856-1.856h-1.792v-1.088h10.432c1.344 0 2.368-1.088 2.368-2.368v-16c0-1.344-1.088-2.432-2.368-2.432zM18.112 25.728h-4.288v-1.088h4.288v1.088zM29.632 23.616h-27.264c-0.448 0-0.832-0.192-1.088-0.512h29.312c-0.192 0.256-0.576 0.512-0.96 0.512zM7.872 8.512l-1.6 1.6c-0.128 0.128-0.256 0.128-0.384 0.128s-0.32 0-0.384-0.128c-0.192-0.192-0.192-0.576 0-0.768l1.6-1.6c0.192-0.192 0.576-0.192 0.768 0s0.192 0.576 0 0.768zM8.128 9.344c0.192-0.192 0.576-0.192 0.768 0 0.128 0.128 0.128 0.256 0.128 0.384s-0.064 0.256-0.128 0.384c-0.128 0.064-0.256 0.128-0.384 0.128s-0.256-0.064-0.384-0.128c-0.128-0.128-0.128-0.256-0.128-0.384s0.064-0.256 0.128-0.384zM5.184 8.512l-2.112 2.112c-0.128 0.128-0.256 0.128-0.384 0.128s-0.256-0.064-0.384-0.128c-0.192-0.192-0.192-0.576 0-0.768l2.112-2.112c0.192-0.192 0.576-0.192 0.768 0s0.192 0.576 0 0.768zM5.312 10.816c0 0.128-0.064 0.256-0.128 0.384-0.128 0.064-0.256 0.128-0.384 0.128s-0.256-0.064-0.384-0.128c-0.128-0.128-0.128-0.256-0.128-0.384s0.064-0.256 0.128-0.384c0.192-0.192 0.576-0.192 0.768 0 0.064 0.064 0.128 0.256 0.128 0.384zM2.304 12.544l1.024-1.024c0.192-0.192 0.576-0.192 0.768 0s0.192 0.576 0 0.768l-1.088 1.088c-0.064 0.064-0.192 0.064-0.32 0.064s-0.32 0-0.384-0.128c-0.192-0.192-0.192-0.576 0-0.768zM2.304 15.232l4.8-4.8c0.192-0.192 0.576-0.192 0.768 0s0.192 0.576 0 0.768l-4.8 4.8c-0.128 0.128-0.256 0.128-0.384 0.128s-0.256-0.064-0.384-0.128c-0.192-0.256-0.192-0.576 0-0.768zM9.216 8.32l0.512-0.512c0.192-0.192 0.576-0.192 0.768 0s0.192 0.576 0 0.768l-0.512 0.512c-0.128 0.128-0.256 0.128-0.384 0.128s-0.256-0.064-0.384-0.128c-0.192-0.256-0.192-0.576 0-0.768zM1.344 5.44c0.256-0.32 0.64-0.512 1.088-0.512h27.2c0.448 0 0.832 0.192 1.088 0.512h-29.376z"></path>
</svg>
