<!-- Generated by IcoMoon.io -->
<svg version="1.1" xmlns="http://www.w3.org/2000/svg" width="32" height="32" viewBox="0 0 32 32">
<title>wifi</title>
<path d="M16 20.608c-0.64 0-1.344 0.128-1.92 0.448-0.384 0.192-0.512 0.64-0.32 1.024s0.64 0.512 1.024 0.32c0.384-0.192 0.832-0.32 1.28-0.32 1.536 0 2.752 1.216 2.752 2.752s-1.216 2.752-2.752 2.752c-1.536 0-2.752-1.216-2.752-2.752 0-0.32 0.064-0.64 0.128-0.896 0.128-0.384-0.064-0.832-0.448-0.96s-0.832 0.064-0.96 0.448c-0.192 0.448-0.256 0.96-0.256 1.408 0 2.304 1.92 4.224 4.224 4.224s4.224-1.92 4.224-4.224c0-2.304-1.92-4.224-4.224-4.224z"></path>
<path d="M20.416 18.304c-2.752-1.472-6.144-1.472-8.896 0-0.384 0.192-0.512 0.64-0.32 1.024s0.64 0.512 1.024 0.32c2.304-1.28 5.184-1.28 7.488 0 0.128 0.064 0.256 0.064 0.384 0.064 0.256 0 0.512-0.128 0.64-0.384 0.192-0.384 0.064-0.832-0.32-1.024z"></path>
<path d="M7.68 15.168c-0.32 0.256-0.384 0.704-0.128 1.024s0.704 0.384 1.024 0.128c4.352-3.264 10.496-3.264 14.848 0 0.128 0.128 0.256 0.128 0.448 0.128 0.256 0 0.448-0.128 0.576-0.32 0.256-0.32 0.192-0.768-0.128-1.024-4.928-3.52-11.712-3.52-16.64 0.064z"></path>
<path d="M3.968 12.096c-0.32 0.256-0.384 0.704-0.128 1.024s0.704 0.384 1.024 0.064c6.4-5.376 15.744-5.376 22.208 0 0.128 0.128 0.32 0.192 0.448 0.192 0.192 0 0.448-0.064 0.576-0.256 0.256-0.32 0.192-0.768-0.064-1.024-6.976-5.888-17.088-5.888-24.064 0z"></path>
<path d="M31.744 9.024c-8.96-8.128-22.528-8.128-31.488 0-0.32 0.256-0.32 0.768-0.064 1.024 0.128 0.192 0.32 0.256 0.576 0.256 0.192 0 0.384-0.064 0.512-0.192 8.384-7.616 21.12-7.616 29.504 0 0.32 0.256 0.768 0.256 1.024-0.064s0.256-0.768-0.064-1.024z"></path>
</svg>
