<?xml version="1.0" encoding="iso-8859-1"?>
<!-- Generator: Adobe Illustrator 19.0.0, SVG Export Plug-In . SVG Version: 6.00 Build 0)  -->
<svg version="1.1" id="Capa_1" xmlns="http://www.w3.org/2000/svg" xmlns:xlink="http://www.w3.org/1999/xlink" x="0px" y="0px"
	 viewBox="0 0 477.867 477.867" style="enable-background:new 0 0 477.867 477.867;" xml:space="preserve">
<g>
	<g>
		<path d="M358.4,68.267h-34.133c-18.843,0.02-34.113,15.29-34.133,34.133v0.826c20.788,11.815,33.749,33.772,34.048,57.681
			c4.839,1.82,8.935,5.198,11.644,9.602c2.018,3.042,6.12,3.872,9.162,1.854c0.736-0.488,1.366-1.119,1.854-1.854
			c6.671-11.079,21.061-14.653,32.141-7.982c1.395,0.84,2.699,1.824,3.891,2.935l9.66-11.573V102.4
			C392.513,83.557,377.243,68.287,358.4,68.267z"/>
	</g>
</g>
<g>
	<g>
		<path d="M358.404,0.021l-34.133-0.017c-4.713-0.002-8.535,3.816-8.538,8.529c0,0.001,0,0.003,0,0.004v8.53H358.4h8.533V8.554
			C366.933,3.843,363.115,0.023,358.404,0.021z"/>
	</g>
</g>
<g>
	<g>
		<path d="M204.8,59.733c0-14.138-11.462-25.6-25.6-25.6s-25.6,11.461-25.6,25.6v101.208c10.589-4.472,22.852-0.374,28.625,9.567v0
			c1.416,2.144,3.988,3.219,6.508,2.719c-3.534-20.164,2.389-40.835,16.067-56.067V59.733z M164.634,87.834l8.533-8.533
			c3.362-3.302,8.764-3.253,12.066,0.109c3.26,3.319,3.26,8.638,0,11.957L176.7,99.9c-3.362,3.302-8.764,3.253-12.066-0.109
			C161.374,96.472,161.374,91.153,164.634,87.834z M185.233,125.5l-8.533,8.533c-3.362,3.302-8.764,3.254-12.066-0.108
			c-3.26-3.319-3.26-8.639,0-11.958l8.533-8.533c3.362-3.302,8.764-3.254,12.066,0.108
			C188.494,116.861,188.494,122.18,185.233,125.5z"/>
	</g>
</g>
<g>
	<g>
		<path d="M341.333,34.133c-4.713,0-8.533,3.82-8.533,8.533V51.2h17.067v-8.533C349.867,37.954,346.046,34.133,341.333,34.133z"/>
	</g>
</g>
<g>
	<g>
		<path d="M388.925,184.838c-0.764,0.578-1.493,1.202-2.183,1.867c-0.079,0.047-0.169,0.043-0.248,0.087
			c-0.567,0.275-1.164,0.484-1.779,0.623c-1.974,0.801-4.213,0.607-6.019-0.523c-0.547-0.225-1.068-0.507-1.554-0.843
			c-0.072-0.057-0.162-0.068-0.233-0.127c-0.577-0.766-1.2-1.495-1.867-2.183L372.4,179.3c-1.851-3.02-5.801-3.968-8.821-2.117
			c-0.874,0.536-1.607,1.273-2.137,2.15c-6.66,11.105-21.061,14.709-32.166,8.049c-3.295-1.976-6.054-4.731-8.034-8.024
			c-2.018-3.042-6.12-3.872-9.162-1.854c-0.736,0.488-1.366,1.119-1.854,1.854c-6.673,11.096-21.078,14.682-32.174,8.01
			c-3.284-1.975-6.035-4.725-8.01-8.01c-2.018-3.042-6.12-3.872-9.162-1.854c-0.736,0.488-1.366,1.119-1.854,1.854
			c-6.673,11.096-21.078,14.682-32.174,8.01c-3.284-1.975-6.035-4.725-8.01-8.01c-2.018-3.042-6.12-3.872-9.162-1.854
			c-0.736,0.488-1.366,1.119-1.854,1.854c-6.673,11.096-21.078,14.682-32.174,8.01c-3.284-1.975-6.035-4.725-8.01-8.01
			c-2.018-3.042-6.12-3.872-9.162-1.854c-0.736,0.488-1.366,1.119-1.854,1.854c-1.426,2.261-3.226,4.263-5.323,5.921
			c-0.627,0.649-1.353,1.194-2.152,1.613c-10.69,7.049-25.071,4.097-32.12-6.594c-0.203-0.309-0.4-0.622-0.588-0.94
			c-2.018-3.042-6.12-3.872-9.162-1.854c-0.736,0.488-1.366,1.119-1.854,1.854l-2.6,4.379c-0.293,0.388-0.621,0.748-0.979,1.077
			c-0.263,0.394-0.56,0.764-0.887,1.106c-0.071,0.06-0.161,0.07-0.233,0.127c-0.486,0.336-1.008,0.619-1.554,0.843
			c-0.454,0.268-0.932,0.492-1.427,0.672c-0.481,0.091-0.968,0.141-1.457,0.148c-0.584,0.095-1.177,0.129-1.768,0.101
			c-0.466-0.094-0.923-0.227-1.367-0.397c-0.615-0.139-1.212-0.348-1.779-0.623c-0.079-0.044-0.169-0.04-0.248-0.087
			c-0.392-0.295-0.757-0.625-1.089-0.987c-0.39-0.261-0.756-0.555-1.095-0.88l-20.675-24.767v262.771
			c0.005,5.987,2.104,11.785,5.933,16.388l19.408,23.287c8.096,9.74,20.11,15.367,32.775,15.35h225.1
			c12.665,0.017,24.679-5.61,32.775-15.35l19.408-23.287c3.829-4.603,5.928-10.4,5.933-16.388V160.071L388.925,184.838z
			 M102.4,418.133c0,4.713-3.82,8.533-8.533,8.533s-8.533-3.82-8.533-8.533V230.4c0-4.713,3.82-8.533,8.533-8.533
			s8.533,3.82,8.533,8.533V418.133z M392.533,418.133c0,4.713-3.82,8.533-8.533,8.533s-8.533-3.82-8.533-8.533V230.4
			c0-4.713,3.821-8.533,8.533-8.533s8.533,3.82,8.533,8.533V418.133z"/>
	</g>
</g>
<g>
	<g>
		<path d="M277.958,115.921c-19.758-9.122-43.107-4.962-58.5,10.421c-9.113,9.232-14.338,21.607-14.6,34.576
			c10.579-4.434,22.806-0.329,28.567,9.591l0,0c2.018,3.042,6.12,3.872,9.162,1.854c0.736-0.488,1.366-1.119,1.854-1.854
			c6.673-11.096,21.078-14.682,32.174-8.01c3.284,1.975,6.035,4.725,8.01,8.01c2.018,3.042,6.12,3.872,9.162,1.854
			c0.736-0.488,1.366-1.119,1.854-1.854c2.677-4.35,6.71-7.699,11.477-9.533C306.82,141.615,295.498,124.122,277.958,115.921z"/>
	</g>
</g>
<g>
	<g>
		<path d="M110.933,0c-14.138,0-25.6,11.462-25.6,25.6v128.288l9.669,11.582c4.309-4.063,10.008-6.326,15.931-6.325
			c8.232-0.02,15.866,4.298,20.092,11.362c1.192,1.882,3.281,3.003,5.508,2.956V25.6C136.533,11.462,125.072,0,110.933,0z
			 M96.367,53.7l8.533-8.533c3.362-3.302,8.764-3.253,12.066,0.11c3.259,3.319,3.259,8.637,0,11.956l-8.533,8.533
			c-3.362,3.302-8.764,3.253-12.066-0.11C93.108,62.338,93.108,57.019,96.367,53.7z M96.367,87.834L104.9,79.3
			c3.362-3.302,8.764-3.253,12.066,0.11c3.259,3.319,3.259,8.637,0,11.956l-8.533,8.533c-3.362,3.302-8.764,3.253-12.066-0.11
			C93.108,96.471,93.108,91.153,96.367,87.834z M116.966,125.5l-8.533,8.533c-3.362,3.302-8.764,3.253-12.066-0.109
			c-3.26-3.319-3.26-8.638,0-11.957l8.533-8.533c3.362-3.302,8.764-3.253,12.066,0.109
			C120.226,116.862,120.226,122.181,116.966,125.5z"/>
	</g>
</g>
<g>
</g>
<g>
</g>
<g>
</g>
<g>
</g>
<g>
</g>
<g>
</g>
<g>
</g>
<g>
</g>
<g>
</g>
<g>
</g>
<g>
</g>
<g>
</g>
<g>
</g>
<g>
</g>
<g>
</g>
</svg>
