<?xml version="1.0" encoding="iso-8859-1"?>
<!-- Generator: Adobe Illustrator 16.0.0, SVG Export Plug-In . SVG Version: 6.00 Build 0)  -->
<!DOCTYPE svg PUBLIC "-//W3C//DTD SVG 1.1//EN" "http://www.w3.org/Graphics/SVG/1.1/DTD/svg11.dtd">
<svg version="1.1" id="Capa_1" xmlns="http://www.w3.org/2000/svg" xmlns:xlink="http://www.w3.org/1999/xlink" x="0px" y="0px"
	 width="380.236px" height="380.236px" viewBox="0 0 380.236 380.236" style="enable-background:new 0 0 380.236 380.236;"
	 xml:space="preserve">
<g>
	<g>
		<path d="M323.662,229.466l-135.656,81.147l-1.711-42.251l113.426-76.412c1.245-0.828,1.572-2.51,0.738-3.744
			c-0.833-1.234-2.521-1.561-3.738-0.728l-110.674,74.545l-1.055-25.924c0.034-0.053,0.092-0.063,0.119-0.116
			c0.195-0.327,0.309-0.675,0.359-1.033l110.438-78.836c1.239-0.864,1.498-2.555,0.633-3.765c-0.864-1.219-2.568-1.49-3.765-0.625
			l-108.074,77.14l-1.025-25.318c0.442,0.301,0.933,0.502,1.458,0.502c0.538,0,1.083-0.158,1.553-0.485l104.274-73.597
			c1.239-0.856,1.508-2.542,0.654-3.762c-0.85-1.226-2.542-1.508-3.761-0.654l-104.282,73.583c-0.035,0.021-0.045,0.063-0.077,0.089
			l-1.118-27.587c0.135,0.021,0.259,0.095,0.401,0.095c0.54,0,1.083-0.161,1.556-0.491l104.279-73.581
			c1.224-0.859,1.508-2.542,0.644-3.763c-0.844-1.226-2.558-1.508-3.755-0.653l-103.352,72.916l-0.87-21.507
			c0.375-0.071,0.757-0.114,1.086-0.341l104.28-73.58c1.218-0.859,1.503-2.544,0.644-3.765c-0.854-1.221-2.568-1.505-3.755-0.651
			L181.04,138.633l-0.886-21.816L299.463,31.87L323.662,229.466z"/>
		<path d="M44.458,31.087c-0.042,0-0.119,0-0.177,0l0.928-0.723l129.54,86.579l0.875,21.643L69.433,74.677
			c-1.273-0.772-2.932-0.356-3.71,0.918c-0.767,1.278-0.351,2.937,0.923,3.704l109.237,65.744l0.86,21.218L69.428,101.677
			c-1.274-0.762-2.933-0.356-3.71,0.918c-0.768,1.278-0.351,2.937,0.923,3.704l109.35,65.815c0.314,0.189,0.659,0.227,0.994,0.274
			l1.097,27.087L69.433,134.083c-1.273-0.762-2.932-0.356-3.71,0.918c-0.767,1.278-0.351,2.937,0.923,3.704l109.35,65.818
			c0.438,0.264,0.92,0.39,1.395,0.39c0.319,0,0.614-0.126,0.912-0.248l1,24.69L74.833,166.477c-1.274-0.767-2.938-0.351-3.71,0.918
			c-0.768,1.278-0.351,2.938,0.923,3.704l107.52,64.705l1.086,26.747L74.833,198.88c-1.274-0.771-2.938-0.359-3.71,0.917
			c-0.768,1.276-0.351,2.933,0.923,3.707l108.865,65.518l0.691,17.086l1.055,26.014L43.762,237.386L47.11,33.832
			C47.142,32.342,45.961,31.111,44.458,31.087z"/>
		<path d="M39.765,241.363l141.75,76.275c0.396,0.211,0.833,0.316,1.281,0.316h2.7c0.442,0,0.852-0.122,1.236-0.338
			c0.047-0.021,0.103-0.011,0.145-0.042L327.955,233.2c0.918-0.549,1.424-1.582,1.287-2.647L308.57,61.858
			c0.273,0.068,0.548,0.129,0.817,0.103l20.893-1.653l29.078,225.337l-173.631,51.025l-166.87-81.11L29.51,42.585l12.334-9.598
			c-0.076,0.237-0.113,0.493-0.119,0.757l-3.375,205.192C38.335,239.955,38.881,240.888,39.765,241.363z"/>
		<path d="M18.399,23.992l13.482,9.903l-6.668,5.187c-0.62,0.48-1.004,1.208-1.037,1.996l-10.8,216
			c-0.061,1.076,0.546,2.088,1.511,2.562l169.425,82.351c0.369,0.179,0.778,0.264,1.184,0.264c0.253,0,0.511-0.032,0.762-0.105
			l176.85-51.976c1.276-0.379,2.089-1.624,1.92-2.932l-29.7-230.175c-0.189-1.424-1.477-2.439-2.89-2.35l-23.462,1.859
			c-0.353,0.026-0.706,0.134-1.018,0.288l-0.527-4.203l35.723-3.138l37.083,247.644l-190.82,59.078L0,265.03L18.399,23.992z"/>
	</g>
</g>
<g>
</g>
<g>
</g>
<g>
</g>
<g>
</g>
<g>
</g>
<g>
</g>
<g>
</g>
<g>
</g>
<g>
</g>
<g>
</g>
<g>
</g>
<g>
</g>
<g>
</g>
<g>
</g>
<g>
</g>
</svg>
