<?xml version="1.0" encoding="utf-8"?>
<!-- Generator: Adobe Illustrator 19.2.1, SVG Export Plug-In . SVG Version: 6.00 Build 0)  -->
<svg version="1.1" id="Icons" xmlns="http://www.w3.org/2000/svg" xmlns:xlink="http://www.w3.org/1999/xlink" x="0px" y="0px"
	 viewBox="0 0 50 50" style="enable-background:new 0 0 50 50;" xml:space="preserve">
<style type="text/css">
	.st0{fill:#010002;}
</style>
<path d="M45.4,17.1c0-0.2-0.2-0.5-0.3-0.6l-2.2-2l-0.2-1.6c-0.1-0.8-0.7-1.5-1.4-1.8l-2.6-1c-0.2-0.1-0.4,0-0.5,0.2
	c-0.1,0.2,0,0.4,0.2,0.5l2.6,1c0.4,0.2,0.8,0.5,0.9,0.9l-1.7-0.3c-0.1,0-0.1,0-0.2,0c-0.2,0.1-0.3,0.2-0.3,0.3c0,0.8,0.4,1.6,1.2,2
	c0.1,0.1,0.3,0.1,0.4,0.2l1.3,0.3l2,1.8c0.1,0.1,0.1,0.1,0.1,0.2c0,0.1,0,0.2,0,0.2c-0.1,0.2-0.2,0.2-0.4,0.2l-0.9-0.2
	c-2.8-0.6-5.5-1.4-8.1-2.6l0.3,0c0.2,0,0.3-0.1,0.3-0.3c0.1-0.2,0-0.4-0.2-0.5l-6.3-3c-0.1-0.1-0.2,0-0.4,0l-0.7,0.4l-3.9-1.9
	c-1.1-0.5-1.6-1.9-1.1-3l1.7-4.1l1.6,0.8L26.3,6c0,0.2,0.1,0.3,0.2,0.4l10.1,3.8c0.2,0.1,0.4,0,0.5-0.2c0.1-0.2,0-0.4-0.2-0.5
	l-2.3-0.8l-2.3-4c0-0.1-0.1-0.1-0.2-0.2l-2.8-1.3c-0.1,0-0.2-0.1-0.3,0c-0.2,0.1-0.3,0.2-0.2,0.4l0.5,3l-2.2-0.8l0.2-2.7
	c0-0.2-0.1-0.3-0.2-0.4l-2.2-1.1c0,0-0.1,0-0.1,0c-0.2,0-0.3,0.1-0.4,0.2l-1.9,4.5c-0.6,1.5,0,3.3,1.5,4l3.4,1.6l-0.3,0.2
	c-0.2,0.1-0.2,0.3-0.1,0.5s0.3,0.2,0.5,0.1l1.7-1l5,2.4l-7.3,1.1l-2-1l1.3-0.8c0.2-0.1,0.2-0.3,0.1-0.5c-0.1-0.2-0.3-0.2-0.5-0.1
	L23.8,14c-0.1,0.1-0.2,0.2-0.2,0.3c0,0.2,0.1,0.3,0.2,0.4l2.8,1.3c0.1,0,0.1,0,0.2,0l7-1l0.3,0.2c2.9,1.4,5.9,2.4,9,3l0.9,0.2
	c0.5,0.1,1-0.2,1.2-0.6C45.4,17.6,45.5,17.3,45.4,17.1z M41.5,14.2c-0.5-0.1-0.8-0.4-0.9-0.9l1.5,0.3l0.1,0.8L41.5,14.2z M29.7,4.2
	l2,1l1.8,3l-3.4-1.3L29.7,4.2z"/>
<path d="M29.6,8.1c-0.6-0.3-1.2,0-1.5,0.5c-0.3,0.6,0,1.2,0.5,1.5c0.6,0.3,1.2,0,1.5-0.5C30.4,9,30.2,8.4,29.6,8.1z M29,9.4
	c-0.2-0.1-0.2-0.3-0.2-0.5c0.1-0.2,0.3-0.2,0.5-0.2c0.2,0.1,0.2,0.3,0.2,0.5C29.4,9.4,29.2,9.5,29,9.4z"/>
<path d="M32.5,9.4c-0.6-0.3-1.2,0-1.5,0.5c-0.3,0.6,0,1.2,0.5,1.5c0.6,0.3,1.2,0,1.5-0.5C33.3,10.3,33.1,9.6,32.5,9.4z M31.9,10.7
	c-0.2-0.1-0.2-0.3-0.2-0.5c0.1-0.2,0.3-0.2,0.5-0.2c0.2,0.1,0.2,0.3,0.2,0.5S32.1,10.8,31.9,10.7z"/>
<path d="M35.6,10.7c-0.6-0.3-1.2,0-1.5,0.5c-0.3,0.6,0,1.2,0.5,1.5c0.6,0.3,1.2,0,1.5-0.5C36.3,11.6,36.1,10.9,35.6,10.7z M34.9,12
	c-0.2-0.1-0.2-0.3-0.2-0.5c0.1-0.2,0.3-0.2,0.5-0.2s0.2,0.3,0.2,0.5C35.3,12,35.1,12,34.9,12z"/>
<rect x="3.9" y="15.7" width="1.6" height="1.5"/>
<rect x="7" y="15.7" width="1.6" height="1.5"/>
<rect x="10.2" y="15.7" width="1.6" height="1.5"/>
<rect x="13.3" y="15.7" width="1.6" height="1.5"/>
<path d="M46,46.9V28.2H14.7V23l3.9-3.1v-7.3h-2.6l-1.6-3.1h-4.5V2.3H8.6v7.1H4.2l-1.6,3.1H0v7.3L3.9,23v24H0v1.5h4h10.8H50v-1.5H46z
	 M5.1,10.9h8.5l0.8,1.7H4.3L5.1,10.9z M1.5,14h15.7v4.8H1.5V14z M8.6,46.9H5.4V27.3h3.2V46.9z M13.3,46.9h-3.2V27.3h3.2V46.9z
	 M13.3,25.8H5.4v-2.4h7.9V25.8z M4.9,21.9l-2.1-1.7h13l-2.1,1.7H4.9z M19.5,46.9h-4.8v-3.2h4.8V46.9z M19.5,42.2h-4.8V39h4.8V42.2z
	 M19.5,37.5h-4.8v-3.2h4.8V37.5z M19.5,32.9h-4.8v-3.2h4.8V32.9z M25.8,46.9H21v-3.2h4.8V46.9z M25.8,42.2H21V39h4.8V42.2z
	 M25.8,37.5H21v-3.2h4.8V37.5z M25.8,32.9H21v-3.2h4.8V32.9z M32,46.9h-4.8v-3.2H32V46.9z M32,42.2h-4.8V39H32V42.2z M32,37.5h-4.8
	v-3.2H32V37.5z M32,32.9h-4.8v-3.2H32V32.9z M38.3,46.9h-4.8v-3.2h4.8V46.9z M38.3,42.2h-4.8V39h4.8V42.2z M38.3,37.5h-4.8v-3.2h4.8
	V37.5z M38.3,32.9h-4.8v-3.2h4.8V32.9z M44.5,46.9h-4.8v-3.2h4.8V46.9z M44.5,42.2h-4.8V39h4.8V42.2z M44.5,37.5h-4.8v-3.2h4.8V37.5
	z M44.5,32.9h-4.8v-3.2h4.8V32.9z"/>
</svg>
