<?xml version="1.0" encoding="utf-8"?>
<!-- Generator: Adobe Illustrator 19.2.1, SVG Export Plug-In . SVG Version: 6.00 Build 0)  -->
<svg version="1.1" id="Icons" xmlns="http://www.w3.org/2000/svg" xmlns:xlink="http://www.w3.org/1999/xlink" x="0px" y="0px"
	 viewBox="0 0 50 50" style="enable-background:new 0 0 50 50;" xml:space="preserve">
<style type="text/css">
	.st0{fill:#010002;}
</style>
<path d="M4.7,26.6h2c0,0,0.2-1,0.5-2.3c0.3-1.3,2.6-2.3,5.2-2.3h25.8c2.6,0,4.8,1,5,2.3l0.3,2.3h1.8c2.6,0,4.7-2.1,4.7-4.7v-8.7
	c0-2.2-1.5-4-3.5-4.5c0.1,0.4,0.2,0.9,0.2,1.4V12c0,3.1-2.5,5.6-5.6,5.6H8.9c-3.1,0-5.6-2.5-5.6-5.6v-1.9c0-0.5,0.1-0.9,0.2-1.4
	C1.5,9.2,0,11,0,13.2V22C0,24.5,2.1,26.6,4.7,26.6z"/>
<path d="M8.9,15.7h32.2c2.1,0,3.7-1.7,3.7-3.8v-1.9c0-0.6-0.1-1.1-0.4-1.6h-39c-0.2,0.5-0.4,1-0.4,1.6V12C5.2,14,6.8,15.7,8.9,15.7z
	 M7,10.2h35.4c0.3,0,0.5,0.2,0.5,0.5c0,0.3-0.2,0.5-0.5,0.5H7c-0.3,0-0.5-0.2-0.5-0.5C6.6,10.4,6.8,10.2,7,10.2z M7,13.1h35.4
	c0.3,0,0.5,0.2,0.5,0.5c0,0.3-0.2,0.5-0.5,0.5H7c-0.3,0-0.5-0.2-0.5-0.5C6.6,13.3,6.8,13.1,7,13.1z"/>
<path d="M41.7,24.9c-0.1-0.9-2.3-1.7-4.9-1.7H13.5c-2.6,0-4.8,0.8-5,1.7c-0.2,0.9-0.3,1.7-0.3,1.7H42L41.7,24.9z"/>
<path d="M11.4,41.3c0.2,0.2,0.4,0.2,0.6,0.2c0.3,0,0.5-0.1,0.7-0.3c0.1-0.2,3.5-4.1,1-7.4c-1.4-1.8-0.4-2.8-0.1-3
	c0.4-0.3,0.5-0.9,0.1-1.3c-0.3-0.4-0.9-0.5-1.3-0.1c-1,0.8-2.3,3-0.1,5.7c1.6,2-0.9,4.9-0.9,5C10.9,40.3,11,40.9,11.4,41.3z"/>
<path d="M19.6,41.3c0.2,0.2,0.4,0.2,0.6,0.2c0.3,0,0.5-0.1,0.7-0.3c0.1-0.2,3.5-4.1,1-7.4c-1.4-1.8-0.4-2.8-0.1-3
	c0.4-0.3,0.5-0.9,0.1-1.3c-0.3-0.4-0.9-0.5-1.3-0.1c-1,0.8-2.3,3-0.1,5.7c1.6,2-0.9,4.9-0.9,5C19.1,40.3,19.2,40.9,19.6,41.3z"/>
<path d="M27.8,41.3c0.2,0.2,0.4,0.2,0.6,0.2c0.3,0,0.5-0.1,0.7-0.3c0.1-0.2,3.5-4.1,1-7.4c-1.4-1.8-0.4-2.8-0.1-3
	c0.4-0.3,0.5-0.9,0.1-1.3c-0.3-0.4-0.9-0.5-1.3-0.1c-1,0.8-2.3,3-0.1,5.7c1.6,2-0.9,4.9-0.9,5C27.3,40.3,27.4,40.9,27.8,41.3z"/>
<path d="M36,41.3c0.2,0.2,0.4,0.2,0.6,0.2c0.3,0,0.5-0.1,0.7-0.3c0.1-0.2,3.5-4.1,1-7.4c-1.4-1.8-0.4-2.8-0.1-3
	c0.4-0.3,0.5-0.9,0.1-1.3c-0.3-0.4-0.9-0.5-1.3-0.1c-1,0.8-2.3,3-0.1,5.7c1.6,2-0.9,4.9-0.9,5C35.5,40.3,35.6,40.9,36,41.3z"/>
</svg>
