<?xml version="1.0" encoding="utf-8"?>
<!-- Generator: Adobe Illustrator 19.2.1, SVG Export Plug-In . SVG Version: 6.00 Build 0)  -->
<svg version="1.1" id="Icons" xmlns="http://www.w3.org/2000/svg" xmlns:xlink="http://www.w3.org/1999/xlink" x="0px" y="0px"
	 viewBox="0 0 50 50" style="enable-background:new 0 0 50 50;" xml:space="preserve">
<style type="text/css">
	.st0{fill:#010002;}
</style>
<path d="M11.9,6.4c-1.2-1.9-3.4-2.6-5.1-1.5C6,5.3,5.5,6.1,5.3,6.9c-0.2,1,0,2.1,0.6,3.1c0.6,0.9,1.5,1.8,2.5,2.3
	c0.7,0.3,1.3,0.5,1.9,0.5c0.5,0,0.9-0.1,1.3-0.3c0.6-0.3,1-0.9,1.1-1.7C13.1,9.5,12.7,7.7,11.9,6.4z M11.3,10.5
	c-0.1,0.3-0.2,0.6-0.5,0.8c-0.1,0.1-0.3,0.1-0.5,0.1c-1,0-2.4-0.9-3.2-2.1c-0.4-0.7-0.6-1.4-0.4-2c0.1-0.5,0.4-0.9,0.8-1.1
	c0.3-0.2,0.6-0.3,1-0.3c0.8,0,1.6,0.5,2.1,1.3C11.3,8.2,11.6,9.5,11.3,10.5z"/>
<path d="M7.1,14.1c-0.3-0.9-0.9-1.9-1.6-2.5c-1.5-1.3-3.5-1.3-4.7,0c-0.6,0.6-0.8,1.5-0.7,2.3c0.1,0.8,0.6,1.7,1.3,2.3
	c0.7,0.6,1.7,1.1,2.7,1.3c0.3,0.1,0.6,0.1,0.8,0.1c0.8,0,1.4-0.3,1.9-0.7C7.3,16.2,7.4,15.2,7.1,14.1z M5.7,15.9
	c-0.2,0.2-0.7,0.3-1.3,0.2c-0.7-0.1-1.5-0.5-2-1c-0.5-0.4-0.8-0.9-0.8-1.4c-0.1-0.4,0.1-0.9,0.3-1.2c0.3-0.3,0.7-0.5,1.1-0.5
	c0.5,0,1,0.2,1.5,0.6C5.4,13.6,6.2,15.3,5.7,15.9z"/>
<path d="M19.9,3.9c-0.5-0.7-1.3-1.2-2.2-1.3c-1.5-0.2-2.9,0.6-3.6,2c-0.2,0.4,0,0.8,0.3,1c0.4,0.2,0.8,0,1-0.3
	c0.5-0.9,1.3-1.3,2.1-1.2c0.5,0.1,0.9,0.3,1.2,0.7c0.4,0.5,0.5,1.2,0.4,2c-0.3,1.7-1.7,3.4-2.6,3.3c-0.7-0.1-1.3-1.2-1.5-2.5
	c0-0.4-0.4-0.7-0.8-0.6c-0.4,0-0.7,0.4-0.6,0.8c0.2,1.7,1.1,3.6,2.7,3.8c0.1,0,0.2,0,0.3,0c0.9,0,1.8-0.5,2.5-1.4
	c0.7-0.9,1.3-2,1.4-3.1C20.8,5.9,20.5,4.8,19.9,3.9z"/>
<path d="M27.5,8.3c-0.2-0.8-0.8-1.5-1.6-1.9c-0.8-0.4-1.6-0.4-2.4,0c-0.8,0.3-1.4,1-1.9,1.9c-0.4,0.9-0.6,2-0.5,2.9
	c0.1,1.2,0.6,2.1,1.4,2.4c0.3,0.1,0.6,0.2,0.9,0.2c1.5,0,3.1-1.5,3.8-2.9C27.7,10.1,27.8,9.1,27.5,8.3z M25.9,10.3
	c-0.5,1.1-2,2.4-2.8,2C22.4,12,22.5,10,23,8.9c0.3-0.6,0.7-1,1.1-1.2c0.2-0.1,0.4-0.1,0.6-0.1c0.2,0,0.4,0,0.6,0.1
	c0.4,0.2,0.7,0.5,0.8,0.9C26.3,9.2,26.2,9.7,25.9,10.3z"/>
<path d="M24.7,18.9c-0.3-1.6-1.3-3-2.8-4.1c-0.3-0.2-0.8-0.2-1,0.2c-0.2,0.3-0.2,0.8,0.2,1c1.2,0.9,2,2,2.2,3.2
	c0.3,1.3-0.2,2.3-1.4,3.1c-1.1,0.7-2.8,1.3-5.4,1.9c-1.8,0.4-3.2,0.5-4.3,0.5c-3,0-3.7-1.2-3.9-2.4c-0.6-2.9,2-6.8,6.3-7.7
	c1.3-0.3,2.7-0.2,4.1,0.2c0.4,0.1,0.8-0.1,0.9-0.5c0.1-0.4-0.1-0.8-0.5-0.9c-1.5-0.5-3.2-0.5-4.8-0.2c-2.3,0.5-4.4,1.8-5.8,3.6
	c-1.4,1.8-2,3.9-1.6,5.8c0.4,1.9,1.6,3,3.7,3.4c0.5,0.1,1.1,0.1,1.7,0.1c1.2,0,2.7-0.2,4.6-0.6c2.8-0.6,4.6-1.2,5.9-2.1
	C24.4,22.3,25.1,20.8,24.7,18.9z"/>
<path d="M34.5,23.1c-0.9,0-1.7,0.3-2.4,0.9c-0.8,0.7-1.2,1.8-1.2,3c0,1.1,0.3,2.3,0.8,3.3c0.7,1.2,1.6,1.9,2.5,1.9c0,0,0.1,0,0.1,0
	c0.6,0,1.3-0.3,1.8-0.8c1-0.9,1.7-2.6,1.7-4.1C38,25,36.5,23.2,34.5,23.1z M36.4,27.2c0,1.1-0.6,2.4-1.3,3.1
	c-0.2,0.2-0.5,0.4-0.8,0.4c-1,0-2-2-2-3.7c0-0.8,0.3-1.5,0.8-1.9c0.3-0.3,0.8-0.5,1.2-0.5c0,0,0.1,0,0.1,0
	C35.6,24.6,36.5,25.7,36.4,27.2z"/>
<path d="M29.6,27.9c-0.3-0.9-0.8-1.7-1.5-2.2c-0.7-0.5-1.6-0.6-2.4-0.4c-1.7,0.5-2.6,2.3-2.1,4.2c0.2,0.9,0.8,1.9,1.5,2.6
	c0.7,0.7,1.4,1,2.1,1c0.2,0,0.3,0,0.5-0.1C29.6,32.6,30.1,29.7,29.6,27.9z M27.4,31.6c-0.3,0.1-0.8-0.1-1.2-0.6
	c-0.5-0.5-0.9-1.2-1.1-1.9c-0.3-1.2,0.1-2.2,1-2.4c0.1,0,0.2,0,0.4,0c0.3,0,0.6,0.1,0.8,0.3c0.4,0.3,0.7,0.8,0.9,1.4
	C28.5,29.5,28.2,31.4,27.4,31.6z"/>
<path d="M45.9,29.6c0-0.9-0.4-1.7-1.1-2.3c-1.1-1-2.7-1.1-4.1-0.4c-0.4,0.2-0.5,0.6-0.3,1c0.2,0.4,0.6,0.5,1,0.3
	c0.9-0.5,1.8-0.4,2.4,0.2c0.4,0.3,0.6,0.8,0.6,1.3c0,0.6-0.3,1.3-0.8,1.9c-1.2,1.2-3.3,1.9-4,1.3c-0.5-0.5-0.4-1.7,0.2-2.9
	c0.2-0.4,0-0.8-0.3-1c-0.4-0.2-0.8,0-1,0.3c-0.8,1.5-1.1,3.6,0.1,4.7c0.5,0.4,1.1,0.6,1.8,0.6c0.4,0,0.9-0.1,1.3-0.2
	c1.1-0.3,2.2-1,2.9-1.8C45.6,31.7,46,30.7,45.9,29.6z"/>
<path d="M49.6,35.1c-0.9-1.5-2.9-1.9-4.6-0.8c-0.8,0.5-1.6,1.3-2.1,2.1c-0.6,1-0.7,2-0.2,2.8c0.4,0.7,1.3,1.2,2.5,1.2c0,0,0,0,0,0
	c1,0,2.1-0.3,2.9-0.8c0.8-0.5,1.5-1.2,1.7-2C50.1,36.7,50,35.8,49.6,35.1z M48.4,37c-0.2,0.5-0.5,0.9-1.1,1.2
	c-0.6,0.4-1.4,0.6-2.1,0.6c-0.6,0-1.1-0.2-1.3-0.4c-0.2-0.3-0.1-0.8,0.2-1.3c0.4-0.6,0.9-1.2,1.5-1.6c1-0.6,2.1-0.5,2.6,0.3
	C48.6,36.2,48.6,36.6,48.4,37z"/>
<path d="M41.5,39.8c-0.1-0.4-0.6-0.6-0.9-0.4c-0.4,0.1-0.6,0.6-0.4,0.9c0.5,1.4,0.5,2.8,0.1,3.9c-0.6,1.6-2.2,2.9-8.4,0.3
	c-2.4-1-4-1.9-5-2.8c-1.1-1-1.3-2.1-0.8-3.3c0.6-1.4,1.9-2.5,3.7-3.1c1.9-0.6,4-0.6,5.8,0.2c1.3,0.5,2.4,1.3,3.3,2.4
	c0.3,0.3,0.7,0.4,1,0.1c0.3-0.3,0.4-0.7,0.1-1c-1-1.2-2.4-2.2-3.8-2.8c-2.2-0.9-4.6-1-6.8-0.2c-2.2,0.7-3.8,2.2-4.5,3.9
	c-0.7,1.8-0.3,3.4,1.2,4.9c1.1,1.1,2.8,2.1,5.4,3.1c2.6,1.1,4.5,1.6,6.1,1.6c0,0,0,0,0,0c2.1,0,3.5-0.9,4.2-2.7
	C42.2,43.3,42.2,41.5,41.5,39.8z"/>
</svg>
