<?xml version="1.0" encoding="utf-8"?>
<!-- Generator: Adobe Illustrator 19.2.1, SVG Export Plug-In . SVG Version: 6.00 Build 0)  -->
<svg version="1.1" id="Icons" xmlns="http://www.w3.org/2000/svg" xmlns:xlink="http://www.w3.org/1999/xlink" x="0px" y="0px"
	 viewBox="0 0 50 50" style="enable-background:new 0 0 50 50;" xml:space="preserve">
<style type="text/css">
	.st0{fill:#010002;}
</style>
<path d="M45.8,38.1h-2.4l-9.8-3.3c-0.4-0.1-0.9-0.1-1.3,0.2l-3.1,2.6l2.6,2.2l-2.5,2.5l2.5,2.5L29.2,47l3.1,2.6
	c0.2,0.2,0.5,0.3,0.8,0.3c0.1,0,0.3,0,0.4-0.1l9.8-3.3h2.4c2.3,0,4.2-1.9,4.2-4.2C50,40,48.1,38.1,45.8,38.1z M33.3,36.6l9.1,3v0.9
	L33.4,39l-1.6-1.3L33.3,36.6z M33.4,40.7l9,1.5v0.3l-9,1.5l-1.6-1.6L33.4,40.7z M33.3,48.2L31.9,47l1.6-1.3l8.9-1.5v0.9L33.3,48.2z"
	/>
<rect x="25.5" y="17.8" width="1.7" height="1.7"/>
<path d="M0.6,43.8c-0.8,0.8-0.8,2-0.1,2.8l0.7,0.7c0.3,0.3,0.8,0.5,1.3,0.5c0.5,0,1.1-0.2,1.5-0.6l5.4-5.4L6,38.4L0.6,43.8z"/>
<path d="M44.6,3.8c-2.4-2.4-5.7-3.7-9.5-3.7c-5.3,0-10.7,2.5-15,6.7c-4.9,4.9-7.4,11.5-6.6,17.3c0.3,2.1-0.1,4.1-1.1,5.8L12.3,30
	c-0.8,0.8-1.1,2-0.8,3l-4.3,4.3l3.4,3.4l4.3-4.3c1,0.2,2.3-0.1,3-0.8c1.5-1,3.4-1.3,5.2-0.9c1.1,0.3,2.3,0.4,3.4,0.4
	c5.3,0,10.7-2.5,15-6.7C49.2,20.7,50.5,9.7,44.6,3.8z M19.2,31.4c-1.9,0-3.4-1.9-3.4-4.2c0-0.5,0.4-0.8,0.8-0.8
	c0.5,0,0.8,0.4,0.8,0.8c0,1.4,0.8,2.5,1.7,2.5c0.5,0,0.8,0.4,0.8,0.8C20.1,31,19.7,31.4,19.2,31.4z M32.2,21.2h-3.4v1.7
	c0,0.5-0.4,0.8-0.8,0.8s-0.8-0.4-0.8-0.8v-1.7h-1.7v2.5c0,0.5-0.4,0.8-0.8,0.8c-0.5,0-0.8-0.4-0.8-0.8v-2.5h-1.7
	c-0.5,0-0.8-0.4-0.8-0.8c0-0.5,0.4-0.8,0.8-0.8h1.7v-1.7h-3.4c-0.5,0-0.8-0.4-0.8-0.8s0.4-0.8,0.8-0.8h3.4v-2c0-0.5,0.4-0.8,0.8-0.8
	c0.5,0,0.8,0.4,0.8,0.8v2h1.7v-3.4c0-0.5,0.4-0.8,0.8-0.8s0.8,0.4,0.8,0.8v3.4H30c0.5,0,0.8,0.4,0.8,0.8s-0.4,0.8-0.8,0.8h-1.1v1.7
	h3.4c0.5,0,0.8,0.4,0.8,0.8C33.1,20.8,32.7,21.2,32.2,21.2z"/>
</svg>
