<?xml version="1.0" encoding="utf-8"?>
<!-- Generator: Adobe Illustrator 19.2.1, SVG Export Plug-In . SVG Version: 6.00 Build 0)  -->
<svg version="1.1" id="Icons" xmlns="http://www.w3.org/2000/svg" xmlns:xlink="http://www.w3.org/1999/xlink" x="0px" y="0px"
	 viewBox="0 0 50 50" style="enable-background:new 0 0 50 50;" xml:space="preserve">
<style type="text/css">
	.st0{fill:#010002;}
</style>
<path d="M37.1,48.3h-1.9l-3.7-19.9c3.7-2.2,6.1-6,6.4-10.3H31V19c0,1.4-1.2,2.6-2.6,2.6h-6.9c-1.4,0-2.6-1.2-2.6-2.6v-0.9h-6.9
	c0.3,4.6,3,8.6,7.1,10.7l-2.8,12.6c-2.2,0-4,1.7-4.3,3.9c-0.2,2.2,1.3,4.2,3.5,4.6s4.3-0.9,5-3c0.6-2.1-0.4-4.4-2.5-5.2l1-4.6h12.3
	l2.1,11.2h-1.5c-0.5,0-0.9,0.4-0.9,0.9c0,0.5,0.4,0.9,0.9,0.9h5.2c0.5,0,0.9-0.4,0.9-0.9C37.9,48.7,37.5,48.3,37.1,48.3z M19.5,35.3
	l1.3-5.9c3,1,6.2,1,9.1-0.2l1.1,6.1H19.5z"/>
<path d="M29.8,4.2C29.8,4.2,29.8,4.2,29.8,4.2c-1.6-0.5-3.2-0.7-4.8-0.7c-6.8,0-12.3,4.2-12.9,9.5h25.8C37.5,9,34.3,5.6,29.8,4.2z"
	/>
<path d="M28.7,2.1C27.9,0.8,26.5,0,25,0c-1.5,0-2.9,0.8-3.7,2.1C23.7,1.6,26.3,1.6,28.7,2.1z"/>
<path d="M40.5,14.7h-31c-0.5,0-0.9,0.4-0.9,0.9c0,0.5,0.4,0.9,0.9,0.9h31c0.5,0,0.9-0.4,0.9-0.9C41.4,15,41,14.7,40.5,14.7z"/>
<path d="M28.4,19.8c0.5,0,0.9-0.4,0.9-0.9v-0.9h-8.6V19c0,0.5,0.4,0.9,0.9,0.9H28.4z"/>
</svg>
