<?xml version="1.0" encoding="utf-8"?>
<!-- Generator: Adobe Illustrator 19.2.1, SVG Export Plug-In . SVG Version: 6.00 Build 0)  -->
<svg version="1.1" id="Icons" xmlns="http://www.w3.org/2000/svg" xmlns:xlink="http://www.w3.org/1999/xlink" x="0px" y="0px"
	 viewBox="0 0 50 50" style="enable-background:new 0 0 50 50;" xml:space="preserve">
<style type="text/css">
	.st0{fill:#010002;}
</style>
<path d="M8.4,6.6c-2.6,0-4.7,2.1-4.7,4.7c0,2.6,2.1,4.7,4.7,4.7c2.6,0,4.7-2.1,4.7-4.7S11,6.6,8.4,6.6z M8.4,14.6
	c-1.8,0-3.3-1.5-3.3-3.3S6.6,8,8.4,8s3.3,1.5,3.3,3.3S10.2,14.6,8.4,14.6z"/>
<path d="M8.4,2.9C8,2.9,7.6,3.3,7.6,3.7v1.5c0,0.4,0.3,0.7,0.7,0.7s0.7-0.3,0.7-0.7V3.7C9.1,3.3,8.8,2.9,8.4,2.9z"/>
<path d="M14.3,5.4c-0.3-0.3-0.8-0.3-1,0l-1,1c-0.3,0.3-0.3,0.8,0,1c0.1,0.1,0.3,0.2,0.5,0.2c0.2,0,0.4-0.1,0.5-0.2l1-1
	C14.6,6.1,14.6,5.7,14.3,5.4z"/>
<path d="M16,10.6h-1.5c-0.4,0-0.7,0.3-0.7,0.7s0.3,0.7,0.7,0.7H16c0.4,0,0.7-0.3,0.7-0.7C16.7,10.9,16.4,10.6,16,10.6z"/>
<path d="M14.3,16.2l-1-1c-0.3-0.3-0.8-0.3-1,0s-0.3,0.8,0,1l1,1c0.1,0.1,0.3,0.2,0.5,0.2s0.4-0.1,0.5-0.2
	C14.6,16.9,14.6,16.5,14.3,16.2z"/>
<path d="M8.4,16.7c-0.4,0-0.7,0.3-0.7,0.7v1.5c0,0.4,0.3,0.7,0.7,0.7s0.7-0.3,0.7-0.7v-1.5C9.1,17,8.8,16.7,8.4,16.7z"/>
<path d="M4.5,15.1c-0.3-0.3-0.8-0.3-1,0l-1,1c-0.3,0.3-0.3,0.8,0,1c0.1,0.1,0.3,0.2,0.5,0.2c0.2,0,0.4-0.1,0.5-0.2l1-1
	C4.8,15.9,4.8,15.4,4.5,15.1z"/>
<path d="M2.2,10.6H0.7c-0.4,0-0.7,0.3-0.7,0.7S0.3,12,0.7,12h1.5c0.4,0,0.7-0.3,0.7-0.7C2.9,10.9,2.6,10.6,2.2,10.6z"/>
<path d="M4.5,6.4l-1-1c-0.3-0.3-0.8-0.3-1,0s-0.3,0.8,0,1l1,1C3.6,7.6,3.8,7.7,4,7.7c0.2,0,0.4-0.1,0.5-0.2C4.8,7.2,4.8,6.7,4.5,6.4
	z"/>
<path d="M49.6,44.6c-1.3-0.9-2.8-1.3-4.2-1.2c-1.4-1.9-3.9-3.5-7.4-4.6c-2.2-0.7-4.6-1.3-7.2-1.6L36,24c0.8,0.6,1.5,1.3,2.1,2
	c0.2,0.3,0.5,0.4,0.8,0.3c1.7-0.3,3.6-0.1,5.3,0.6c1.8,0.7,3.3,1.8,4.3,3.3c0.1,0.2,0.4,0.3,0.6,0.3c0.1,0,0.1,0,0.2,0
	c0.3-0.1,0.5-0.3,0.6-0.6c0-0.2,0.7-4.8-0.9-9.9c-0.1-0.4-0.5-0.6-0.9-0.5c-0.4,0.1-0.6,0.5-0.5,0.9c0.9,2.9,1,5.8,0.9,7.5
	c-1-1-2.3-1.8-3.7-2.4c-1.6-0.6-3.3-0.9-5-0.8c0,0,0-0.1,0-0.1c0.6-1.8,1-3.6,1.2-5.4c0.2-1.7,0.2-3.4,0-5.1c-0.1-1-0.3-1.9-0.6-2.9
	c0,0,0,0,0,0c2.6,1.4,4.7,3.5,6,6.3c0.2,0.4,0.6,0.5,1,0.3c0.4-0.2,0.5-0.6,0.3-1c-1.8-3.6-4.7-6.3-8.5-7.8
	c-5.3-2.1-10.7-1.4-15.8,2c-3.8,2.5-6,5.6-6.1,5.8c-0.2,0.2-0.2,0.6,0,0.8c0.2,0.3,0.5,0.4,0.8,0.3c1.8-0.3,3.6-0.1,5.4,0.6
	c1.7,0.7,3.2,1.8,4.3,3.2c0.2,0.3,0.5,0.4,0.8,0.3c0.9-0.2,1.9-0.2,2.9-0.1l-5.9,14.7c-0.1,0-0.3,0-0.4,0c-3.4,0-6.6,0.3-9.6,1
	c-0.4,0.1-0.6,0.5-0.6,0.9c0.1,0.4,0.5,0.6,0.9,0.6c2.9-0.6,6.1-1,9.3-1c1.5,0,3.1,0.1,4.6,0.2c0,0,0,0,0,0c2.8,0.3,5.5,0.8,7.8,1.6
	c2.8,0.9,5,2.2,6.2,3.5c-0.6,0.2-1.3,0.5-1.8,0.9c-1.8,1.3-4.2,1.3-6.1,0c-2.3-1.6-5.4-1.6-7.7,0c-1.8,1.3-4.2,1.3-6.1,0
	c-2.3-1.6-5.4-1.6-7.7,0c-1.8,1.3-4.2,1.3-6.1,0C7.6,44.3,7,44,6.4,43.8c1.3-1.4,3.4-2.6,6.2-3.5c0.4-0.1,0.6-0.5,0.5-0.9
	c-0.1-0.4-0.5-0.6-0.9-0.5c-3.5,1.2-6.1,2.8-7.4,4.6c-1.5-0.1-3,0.3-4.2,1.2c-0.3,0.2-0.4,0.7-0.2,1c0.2,0.3,0.7,0.4,1,0.2
	c1.1-0.7,2.4-1,3.6-0.9c0,0,0.1,0,0.1,0c0.8,0.1,1.6,0.4,2.3,0.9c2.3,1.6,5.4,1.6,7.7,0c1.8-1.3,4.2-1.3,6.1,0
	c2.3,1.6,5.4,1.6,7.7,0c1.8-1.3,4.2-1.3,6.1,0c1.2,0.8,2.5,1.2,3.9,1.2c1.3,0,2.7-0.4,3.9-1.2c0.7-0.5,1.5-0.8,2.3-0.9
	c0,0,0.1,0,0.1,0c1.2-0.1,2.5,0.2,3.6,0.9c0.3,0.2,0.8,0.1,1-0.2C50.1,45.3,50,44.9,49.6,44.6z M29.5,20.6
	C29.5,20.6,29.5,20.6,29.5,20.6c0.7-1.5,1.5-2.9,2.4-4.2c0.2-0.3,0.2-0.8-0.2-1c-0.3-0.2-0.8-0.2-1,0.2c-0.7,1-1.4,2.1-2,3.3
	c-0.2,0.4-0.4,0.8-0.6,1.2c0,0,0,0,0,0C27,18.9,25.6,18,24,17.3c-1.4-0.6-2.9-0.8-4.4-0.8c1-1.1,2.6-2.7,4.7-4.1
	c2.1-1.4,4.2-2.3,6.4-2.7c2.1-0.4,4.2-0.3,6.3,0.3c0,0,0,0,0,0c-1.1,0.6-2.2,1.4-3.1,2.3c-0.4,0.3-0.7,0.7-1.1,1
	c-0.3,0.3-0.3,0.8,0,1s0.8,0.3,1,0c0.9-1,2-1.9,3.2-2.6c0.5-0.3,1.1-0.6,1.7-0.9c0.2,0.3,0.4,0.9,0.5,1.5c0.9,3.2,0.6,6.6-0.1,9.8
	c-0.2,0.7-0.4,1.4-0.6,2c0,0,0,0,0,0c-1-1.1-2.2-1.9-3.6-2.5c0,0,0,0-0.1,0C33.1,20.9,31.3,20.5,29.5,20.6z M29.3,37.1
	c-0.3,0-0.7-0.1-1-0.1c-0.4,0-0.8,0-1.1-0.1l5.8-14.5c0.3,0.1,0.7,0.2,1,0.4c0.1,0,0.9,0.4,0.9,0.4L29.3,37.1z"/>
</svg>
