<?xml version="1.0" encoding="utf-8"?>
<!-- Generator: Adobe Illustrator 19.2.1, SVG Export Plug-In . SVG Version: 6.00 Build 0)  -->
<svg version="1.1" id="Icons" xmlns="http://www.w3.org/2000/svg" xmlns:xlink="http://www.w3.org/1999/xlink" x="0px" y="0px"
	 viewBox="0 0 50 50" style="enable-background:new 0 0 50 50;" xml:space="preserve">
<style type="text/css">
	.st0{fill:#010002;}
</style>
<path d="M48,26H2c-1.1,0-2,0.9-2,2v2.3c0,0.2,0.2,0.4,0.4,0.4s0.4-0.2,0.4-0.4v-2.3c0-0.6,0.5-1.2,1.2-1.2H48c0.6,0,1.2,0.5,1.2,1.2
	v2.3c0,0.2,0.2,0.4,0.4,0.4s0.4-0.2,0.4-0.4v-2.3C50,26.9,49.1,26,48,26z"/>
<path d="M47.3,36.1H2.7c-0.2,0-0.4,0.2-0.4,0.4s0.2,0.4,0.4,0.4h44.5c0.2,0,0.4-0.2,0.4-0.4S47.5,36.1,47.3,36.1z"/>
<path d="M49.6,29.9h-4.7c-0.2,0-0.4,0.2-0.4,0.4c0,0.2,0.2,0.4,0.4,0.4h4.3v5.9c0,0.2,0.2,0.4,0.4,0.4s0.4-0.2,0.4-0.4v-6.2
	C50,30.1,49.8,29.9,49.6,29.9z"/>
<path d="M41.8,29.9H0.4c-0.2,0-0.4,0.2-0.4,0.4v6.2c0,0.2,0.2,0.4,0.4,0.4s0.4-0.2,0.4-0.4v-5.9h41c0.2,0,0.4-0.2,0.4-0.4
	C42.2,30.1,42,29.9,41.8,29.9z"/>
<path d="M2.7,36.1c-0.2,0-0.4,0.2-0.4,0.4v3.9H0.8v-3.9c0-0.2-0.2-0.4-0.4-0.4S0,36.3,0,36.5v4.3c0,0.2,0.2,0.4,0.4,0.4h2.3
	c0.2,0,0.4-0.2,0.4-0.4v-4.3C3.1,36.3,3,36.1,2.7,36.1z"/>
<path d="M49.6,36.1c-0.2,0-0.4,0.2-0.4,0.4v3.9h-1.6v-3.9c0-0.2-0.2-0.4-0.4-0.4s-0.4,0.2-0.4,0.4v4.3c0,0.2,0.2,0.4,0.4,0.4h2.3
	c0.2,0,0.4-0.2,0.4-0.4v-4.3C50,36.3,49.8,36.1,49.6,36.1z"/>
<path d="M45.7,8.8H4.3c-1.1,0-2,0.9-2,2v9.8c0,0.2,0.2,0.4,0.4,0.4c0.2,0,0.4-0.2,0.4-0.4v-9.8c0-0.6,0.5-1.2,1.2-1.2h41.4
	c0.6,0,1.2,0.5,1.2,1.2v9.8c0,0.2,0.2,0.4,0.4,0.4s0.4-0.2,0.4-0.4v-9.8C47.7,9.7,46.8,8.8,45.7,8.8z"/>
<path d="M2.9,20.1c-0.2-0.1-0.4,0-0.5,0.2l-2.3,7c-0.1,0.2,0,0.4,0.2,0.5c0,0,0.1,0,0.1,0c0.2,0,0.3-0.1,0.4-0.3l2.3-7
	C3.2,20.4,3.1,20.2,2.9,20.1z"/>
<path d="M50,27.4l-2.3-7c-0.1-0.2-0.3-0.3-0.5-0.2c-0.2,0.1-0.3,0.3-0.2,0.5l2.3,7c0.1,0.2,0.2,0.3,0.4,0.3c0,0,0.1,0,0.1,0
	C49.9,27.8,50,27.6,50,27.4z"/>
<path d="M47.3,20.1h-3.5c-0.2,0-0.4,0.2-0.4,0.4c0,0.2,0.2,0.4,0.4,0.4h3.5c0.2,0,0.4-0.2,0.4-0.4C47.7,20.3,47.5,20.1,47.3,20.1z"
	/>
<path d="M6.2,20.1H2.7c-0.2,0-0.4,0.2-0.4,0.4c0,0.2,0.2,0.4,0.4,0.4h3.5c0.2,0,0.4-0.2,0.4-0.4C6.6,20.3,6.5,20.1,6.2,20.1z"/>
<path d="M25,15c0.2,0,0.4-0.2,0.4-0.4v-0.4c0-1.1-0.9-2-2-2H7.8c-1.1,0-2,0.9-2,2v6.2c0,1.1,0.9,2,2,2h15.6c1.1,0,2-0.9,2-2v-3.1
	c0-0.2-0.2-0.4-0.4-0.4s-0.4,0.2-0.4,0.4v3.1c0,0.6-0.5,1.2-1.2,1.2H7.8c-0.6,0-1.2-0.5-1.2-1.2v-6.2c0-0.6,0.5-1.2,1.2-1.2h15.6
	c0.6,0,1.2,0.5,1.2,1.2v0.4C24.6,14.9,24.8,15,25,15z"/>
<path d="M42.2,12.3H26.6c-1.1,0-2,0.9-2,2c0,0.2,0.2,0.4,0.4,0.4s0.4-0.2,0.4-0.4c0-0.6,0.5-1.2,1.2-1.2h15.6c0.6,0,1.2,0.5,1.2,1.2
	v6.2c0,0.6-0.5,1.2-1.2,1.2H26.6c-0.6,0-1.2-0.5-1.2-1.2c0-0.2-0.2-0.4-0.4-0.4s-0.4,0.2-0.4,0.4c0,1.1,0.9,2,2,2h15.6
	c1.1,0,2-0.9,2-2v-6.2C44.1,13.2,43.3,12.3,42.2,12.3z"/>
</svg>
