<?xml version="1.0" encoding="utf-8"?>
<!-- Generator: Adobe Illustrator 19.2.1, SVG Export Plug-In . SVG Version: 6.00 Build 0)  -->
<svg version="1.1" id="Icons" xmlns="http://www.w3.org/2000/svg" xmlns:xlink="http://www.w3.org/1999/xlink" x="0px" y="0px"
	 viewBox="0 0 50 50" style="enable-background:new 0 0 50 50;" xml:space="preserve">
<style type="text/css">
	.st0{fill:#010002;}
</style>
<circle id="XMLID_3_" cx="25.8" cy="4.9" r="3.8"/>
<path id="XMLID_2_" d="M39.8,28.6c-0.7,0-1.3,0.1-1.9,0.2l-2-6l1.4,0.7c0.7,0.3,1.5,0.1,1.8-0.6c0.3-0.7,0.1-1.5-0.6-1.8l-3.8-1.9
	c0.5,0.8,0.7,1.7,0.5,2.7c-0.2,1-0.9,1.8-1.7,2.3l0.4,1.1l-4.3,0.1c0,0.5,0,0.9-0.1,1.4L29,28.1l2.4-0.1L28,31.4l-1.4,4.7
	c-0.3-0.1-0.6-0.1-0.9,0l-0.9,0.4c0,0,0,0,0,0l3-10.2c0.3-1-0.2-2.1-1.2-2.5L24.7,23c-0.5-0.1-0.8-0.2-1.2-0.3c-1-0.2-1.7-1-1.8-2
	L21.1,14l2.3,6.1c0.2,0.5,0.7,0.9,1.2,1.1l6.7,1.5c0.9,0.2,1.9-0.4,2.1-1.3c0.2-0.9-0.4-1.9-1.3-2.1l-5.8-1.3l-2-5.2l2.1,2.9
	l0.6-1.5c0.5-1.3-0.2-2.8-1.5-3.3l-4.3-1.6c-1.3-0.5-2.8,0.2-3.3,1.5c-3.4,8.9-3.3,8.4-3.4,9c-0.2,1.1,0,2.2,0.6,3.1
	c-2.3,0-1.6,0-1.8,0c-0.9,0-1.6,0.7-1.6,1.6c0,0.9,0.7,1.6,1.6,1.6h2.7l0.3,0.7l-1.9,2.8c-1.3-0.6-2.6-0.9-4.1-0.9
	C4.6,28.6,0,33.2,0,38.8S4.6,49,10.2,49c4.9,0,9.1-3.5,10-8.2c0.2,0.1,0.4,0.2,0.6,0.2c0.2,0,0.3,0,0.5-0.1l5.4-2.2
	c0.7-0.3,1-1.1,0.8-1.8c-0.1-0.3-0.3-0.5-0.5-0.6l8-7.8l0.4,1.2c-3.4,1.7-5.7,5.1-5.7,9.1c0,5.6,4.6,10.2,10.2,10.2
	C45.4,49,50,44.4,50,38.8C50,33.2,45.4,28.6,39.8,28.6z M15.1,33.1c1.3,1.1,2.2,2.6,2.5,4.3h-5.4L15.1,33.1z M10.2,46.3
	c-4.1,0-7.5-3.4-7.5-7.5s3.4-7.5,7.5-7.5c0.9,0,1.8,0.2,2.5,0.4L8.5,38c-0.3,0.4-0.3,0.9-0.1,1.4c0.2,0.4,0.7,0.7,1.2,0.7h8
	C16.9,43.6,13.9,46.3,10.2,46.3z M20.3,38.3c-0.1,0-0.2,0.1-0.3,0.1c-0.9-0.9-1.2-2.3-0.8-3.6l0.1-0.5c-0.7-1.3-1.6-2.5-2.7-3.4
	l0.8-1.2l1.9,4.6l1-3.3l-1.1-2.6l1.9-0.1l0.1-0.4c-1-0.4-4-1.5-4.9-1.9c5,0,4.5,0,4.6,0l2.4,0.9l-2.5,8.3c-0.3,1,0.2,2,1,2.4
	L20.3,38.3z M39.8,46.3c-4.1,0-7.5-3.4-7.5-7.5c0-2.8,1.6-5.3,3.9-6.5l2.3,7c0.2,0.6,0.7,0.9,1.3,0.9c0.1,0,0.3,0,0.4-0.1
	c0.7-0.2,1.1-1,0.8-1.7l-2.3-7c0.3-0.1,0.7-0.1,1.1-0.1c4.1,0,7.5,3.4,7.5,7.5C47.3,42.9,43.9,46.3,39.8,46.3z"/>
</svg>
