<?xml version="1.0" encoding="utf-8"?>
<!-- Generator: Adobe Illustrator 19.2.1, SVG Export Plug-In . SVG Version: 6.00 Build 0)  -->
<svg version="1.1" id="Icons" xmlns="http://www.w3.org/2000/svg" xmlns:xlink="http://www.w3.org/1999/xlink" x="0px" y="0px"
	 viewBox="0 0 50 50" style="enable-background:new 0 0 50 50;" xml:space="preserve">
<style type="text/css">
	.st0{fill:#010002;}
</style>
<path d="M33.5,1.9c-0.3-1.3-1.7-2.2-3-1.7L2.3,6.5C1,6.8,0.3,8.3,0.6,9.6l10.3,38.6c0.2,0.7,0.6,1.2,1.2,1.5
	c0.4,0.2,0.8,0.3,1.2,0.3c0.2,0,0.4,0,0.7-0.1l0.5-0.2c-0.5-0.7-0.7-1.5-0.7-2.3v-4.2c-0.3,0-0.7-0.2-0.8-0.6
	c-0.9-3.5-1.9-7-2.8-10.6c-1-3.5-1.9-7.1-2.8-10.5c-0.1-0.4,0.2-0.9,0.6-1s0.9,0.2,1,0.6c0.9,3.5,1.9,7,2.8,10.5
	c0.7,2.5,1.4,5.1,2.1,7.6V15.4c-0.3,0.3-0.8,0.2-1.2-0.1L11.4,14c0,0-0.1,0-0.1,0.1l-3.2,0.8c-0.1,0-0.1,0-0.2,0l-0.3,1.7
	c-0.1,0.4-0.4,0.7-0.8,0.7c-0.1,0-0.1,0-0.2,0c-0.4-0.1-0.7-0.5-0.7-1l1.5-7.2C7.5,8.8,7.7,8.5,8,8.4c0.3-0.1,0.7,0,0.8,0.2l4.9,5.5
	V7.5c0-2.3,1.8-4.2,4.2-4.2H34L33.5,1.9z"/>
<path d="M47,5H17.9c-1.4,0-2.5,1.1-2.5,2.5v39.9c0,1.4,1.1,2.5,2.5,2.5H47c1.4,0,2.5-1.1,2.5-2.5V7.5C49.5,6.1,48.4,5,47,5z
	 M30.4,8.3h15c0.5,0,0.8,0.3,0.8,0.8V34c0,0.5-0.3,0.8-0.8,0.8c-0.5,0-0.8-0.3-0.8-0.8V10H30.4c-0.5,0-0.8-0.3-0.8-0.8
	S29.9,8.3,30.4,8.3z M18.7,9.2c0-0.5,0.3-0.8,0.8-0.8s0.8,0.3,0.8,0.8v2.7L23,8.6c0.3-0.3,0.8-0.4,1.2-0.1c0.3,0.3,0.4,0.8,0.1,1.2
	L22,12.3l3.1,4.7c0.2,0.4,0.2,0.9-0.2,1.2c0,0.1-0.2,0.2-0.3,0.2c-0.2,0-0.5-0.2-0.7-0.3L21,13.7l-0.7,0.7v3c0,0.5-0.3,0.8-0.8,0.8
	s-0.8-0.3-0.8-0.8L18.7,9.2L18.7,9.2z M36.2,46.6l-16.6,0.1c-0.2,0-0.4-0.1-0.6-0.2c-0.2-0.2-0.2-0.3-0.2-0.6V20.9
	c0-0.5,0.3-0.8,0.8-0.8s0.8,0.3,0.8,0.8V45l15.8-0.1c0.5,0,0.8,0.3,0.8,0.8C37,46.2,36.7,46.6,36.2,46.6z M35.8,34.8l0.7,1.8
	c0.2,0.3,0.2,0.7-0.1,1.1c-0.2,0.3-0.6,0.6-1,0.6h-6.2c-0.4,0-0.8-0.2-1-0.6c-0.2-0.3-0.2-0.7-0.1-1.1l0.6-1.8
	c-0.4,0.2-0.7,0.2-1.2,0.2c-1.6,0-3.1-0.7-4.2-1.8c-1.1-1.1-1.6-2.6-1.5-4c0.1-1.7,1.1-3.2,2.7-4.3c0.8-0.5,1.6-0.8,2.4-0.8
	c-0.2-0.6-0.3-1.3-0.3-2.1c0-1.7,0.7-3.2,2.1-4.3c1.3-1.1,3-1.5,4.7-1.1c2.2,0.4,3.8,2.2,4.2,4.3c0.2,1.2,0.2,2.2-0.2,3.2
	c0.8,0.1,1.6,0.3,2.4,0.9c1.7,1.1,2.7,2.6,2.7,4.3c0.1,1.5-0.4,2.9-1.5,4c-1.1,1.2-2.7,1.8-4.2,1.8C36.7,34.9,36.3,34.9,35.8,34.8z
	 M46.3,45.8h-0.2c0,0.5-0.3,0.8-0.8,0.8c-0.5,0-0.8-0.3-0.8-0.8v-2.7l-2.7,3.2c-0.2,0.2-0.4,0.2-0.7,0.2c-0.2,0-0.4-0.1-0.5-0.2
	c-0.3-0.3-0.4-0.8-0.1-1.2l2.2-2.7l-3.1-4.7c-0.2-0.4-0.2-0.9,0.2-1.2c0.4-0.2,0.9-0.2,1.2,0.2l2.8,4.2l0.7-0.7v-3.1
	c0-0.5,0.3-0.8,0.8-0.8s0.8,0.3,0.8,0.8V45.8z"/>
</svg>
