<?xml version="1.0" encoding="utf-8"?>
<!-- Generator: Adobe Illustrator 19.2.1, SVG Export Plug-In . SVG Version: 6.00 Build 0)  -->
<svg version="1.1" id="Icons" xmlns="http://www.w3.org/2000/svg" xmlns:xlink="http://www.w3.org/1999/xlink" x="0px" y="0px"
	 viewBox="0 0 50 50" style="enable-background:new 0 0 50 50;" xml:space="preserve">
<style type="text/css">
	.st0{fill:#010002;}
</style>
<path d="M8.8,10.3V22c0,1.9,2.9,1.9,2.9,0V10.3C11.7,8.3,8.8,8.3,8.8,10.3z"/>
<path d="M10.3,32.2c-0.8,0-1.5,0.7-1.5,1.5s0.7,1.5,1.5,1.5s1.5-0.7,1.5-1.5S11.1,32.2,10.3,32.2z"/>
<path d="M22,11.7h2.2l2.5,5c0.2,0.5,0.8,0.8,1.3,0.8h14.6c0.6,0,1.1-0.3,1.3-0.8l2.6-5.2c2-0.4,3.4-2.2,3.4-4.3V4.4
	C50,2,48,0,45.6,0H7.3C3.3,0,0,3.3,0,7.3c0,15.4,0,26.6,0,41.2C0,49.3,0.7,50,1.5,50h46.9c0.8,0,1.7-0.7,1.7-1.5v-2.9
	c0-2.4-1.9-4.4-4.3-4.4c0.3-0.9,0.4-2.1,0.1-3l-0.1-0.3c2.5-0.7,4.4-2.9,4.4-5.6c0-3.2-2.6-5.9-5.9-5.9h-1.1l1-4
	c0.2-0.9-0.5-1.8-1.4-1.8H28c-1,0-1.7,0.9-1.4,1.8l1.4,5.5l-1.6,5.4c0,0,0,0,0,0L25,38.2c-0.3,1-0.3,2.1,0,3.1h-4.5v-28
	C20.5,12.4,21.2,11.7,22,11.7z M43.2,11.7l-1.5,2.9H28.9l-1.5-2.9H43.2z M5.9,10.3c0-5.8,8.8-5.8,8.8,0V22c0,5.8-8.8,5.8-8.8,0V10.3
	z M10.3,29.3c2.4,0,4.4,2,4.4,4.4s-2,4.4-4.4,4.4s-4.4-2-4.4-4.4S7.8,29.3,10.3,29.3z M44.1,29.3c1.6,0,2.9,1.3,2.9,2.9
	c0,1.4-1,2.5-2.3,2.8l-1.6-5.7H44.1z M30.6,29.3h9.5l0.9,3.1c-0.4-0.1-0.8-0.1-1.2-0.1c-1.7,0-3.2,0.8-4.1,2.2
	c-0.8,1.2-2.6,1.2-3.4,0c-0.6-0.9-1.5-1.6-2.6-1.9L30.6,29.3z M45.6,44.1c0.8,0,1.5,0.7,1.5,1.5v1.5H2.9v-2.9
	C17.7,44.1,30.8,44.1,45.6,44.1z"/>
</svg>
