<?xml version="1.0" encoding="utf-8"?>
<!-- Generator: Adobe Illustrator 19.2.1, SVG Export Plug-In . SVG Version: 6.00 Build 0)  -->
<svg version="1.1" id="Icons" xmlns="http://www.w3.org/2000/svg" xmlns:xlink="http://www.w3.org/1999/xlink" x="0px" y="0px"
	 viewBox="0 0 50 50" style="enable-background:new 0 0 50 50;" xml:space="preserve">
<style type="text/css">
	.st0{fill:#010002;}
</style>
<path d="M25,0C14.5,0,6,8.5,6,19s8.5,19,19,19s19-8.5,19-19S35.5,0,25,0z M8.9,19c0-3.2,2.6-5.9,5.9-5.9s5.9,2.6,5.9,5.9H8.9z
	 M25,35.2c-3.2,0-5.9-2.6-5.9-5.9s2.6-5.9,5.9-5.9V35.2z M25,22c-1.6,0-2.9-1.3-2.9-2.9s1.3-2.9,2.9-2.9s2.9,1.3,2.9,2.9
	S26.6,22,25,22z M25,14.6V2.9c3.2,0,5.9,2.6,5.9,5.9S28.2,14.6,25,14.6z M35.3,24.9c-3.2,0-5.9-2.6-5.9-5.9h11.7
	C41.1,22.3,38.5,24.9,35.3,24.9z"/>
<path d="M29.4,47.1v-6.5C28,40.9,26.5,41,25,41c-1.5,0-3-0.2-4.4-0.4v6.5h-2.9V50h14.6v-2.9H29.4z"/>
</svg>
