<?xml version="1.0" encoding="utf-8"?>
<!-- Generator: Adobe Illustrator 19.2.1, SVG Export Plug-In . SVG Version: 6.00 Build 0)  -->
<svg version="1.1" id="Icons" xmlns="http://www.w3.org/2000/svg" xmlns:xlink="http://www.w3.org/1999/xlink" x="0px" y="0px"
	 viewBox="0 0 50 50" style="enable-background:new 0 0 50 50;" xml:space="preserve">
<style type="text/css">
	.st0{fill:#010002;}
</style>
<path d="M36,29H14c-3.7,0-4.4,1.4-4.4,3.2V33h30.7v-0.9C40.3,30.4,39.7,29,36,29z"/>
<path d="M9.8,27.8h14.3h0.6V15.2c-1.5-1.8-4.3-3-7.6-3h-3.3c-4.8,0-8.7,2.5-8.7,5.6v3.7c2.8,1.1,4.7,3,4.7,5.1L9.8,27.8L9.8,27.8z"
	/>
<path d="M44.9,17.8c0-3.1-3.9-5.6-8.7-5.6h-3.3c-3.3,0-6.2,1.2-7.6,3v12.6h0.6h14.3v-1.1c0-2.2,1.9-4.1,4.7-5.1V17.8L44.9,17.8z"/>
<path d="M0,21.7v16.1h8.1V26.7C8.1,23.9,4.5,21.7,0,21.7z"/>
<path d="M41.9,26.7v11.1H50V21.7C45.5,21.7,41.9,23.9,41.9,26.7z"/>
<rect x="9.7" y="33.4" width="30.7" height="4.4"/>
</svg>
