<?xml version="1.0" encoding="utf-8"?>
<!-- Generator: Adobe Illustrator 19.2.1, SVG Export Plug-In . SVG Version: 6.00 Build 0)  -->
<svg version="1.1" id="Icons" xmlns="http://www.w3.org/2000/svg" xmlns:xlink="http://www.w3.org/1999/xlink" x="0px" y="0px"
	 viewBox="0 0 50 50" style="enable-background:new 0 0 50 50;" xml:space="preserve">
<style type="text/css">
	.st0{fill:#010002;}
</style>
<polygon points="28.6,31.3 27.1,35.2 27.1,39.7 29.9,39.7 30.9,37.1 "/>
<circle cx="13.5" cy="10.2" r="3.9"/>
<path d="M24.7,19.3c-0.2-0.6-0.6-1-1.1-1.1c0-1.6,0-0.8,0-1.8c0.8-0.3,1.2-1,1.1-1.8l-0.4-3.7h-2.7l-0.4,3.7
	c-0.1,0.8,0.4,1.5,1.1,1.8c0,0.6,0,1.2,0,1.8c0,0,0,0,0,0l-6.2,2l-4.1-3.8l3.4,2.1l0-0.1c0-1.7-1.3-3-3-3l-1.3,0
	c-2.5,0-4.5,2-4.5,4.4l0,8.6c0,1.4,1,2.6,2.3,2.9H5.4L2.9,18.5c-0.2-0.8-0.9-1.3-1.7-1.2C0.4,17.5-0.1,18.2,0,19l2.8,14.1
	c0.1,0.7,0.7,1.2,1.4,1.2h0.3v0l-3.1,8.1c-0.2,0.5,0.1,1.1,0.6,1.3c0.5,0.2,1.1-0.1,1.3-0.6l3.4-8.8l0,0h5.6l1.9,5l-0.6,1.6
	c-0.4,1.1,0.1,2.3,1.2,2.8c1.1,0.4,2.3-0.1,2.8-1.2c0.1-0.3,4.5-11.3,4.7-11.9h-3.6l0,0c-1.6,0-2.8-1.3-2.8-2.8c0-0.1,0-0.3,0-0.4
	l-0.4,0l0-1.9c-0.7,0-1.3-0.4-1.7-1l-3-4.5l3.9,3.6c0,0,0,0,0,0c0.5,0.4,1.1,0.6,1.7,0.4c0,0,0,0,0,0l7.2-2.3
	C24.5,21.3,25,20.2,24.7,19.3z M14.5,34.3c0.8,0,1.5-0.7,1.5-1.5c0-0.6-0.3-1-0.8-1.3l1.9,0l-2,5.1l-0.9-2.3L14.5,34.3L14.5,34.3z"
	/>
<path d="M46.9,14.3c-0.3,0-0.6,0-0.9-0.5c-0.2-0.3-0.3-0.8-0.3-1.3c-0.2-1.8,0-3.2-0.4-4.1c-0.4-0.8-1.3-1.2-2.1-1.3
	c-0.7,0-1.3,0.2-1.9,0.5c-0.9-0.9-2.2-1.5-3.5-1.3c-2.1,0.3-3.6,2.3-3.3,4.5c0.3,2.1,2.3,3.6,4.5,3.3c2-0.3,3.4-2.1,3.3-4
	c0-0.5,0.8-0.9,1.2-0.6c0.7,0.5,0.7,2.5,0.9,3.3c0.1,0.4,0.4,1.1,0.8,1.6c0.5,0.7,1.1,0.8,1.8,0.6c0.1,0,0.2-0.2,0.2-0.3
	C47.2,14.4,47.1,14.2,46.9,14.3z"/>
<path d="M31,26H18.6c-0.9,0-1.6,0.7-1.6,1.6c0,0.9,0.7,1.6,1.6,1.6h5.1v11.6h-3.4c-0.8,0-1.5,0.7-1.5,1.5s0.7,1.5,1.5,1.5h9
	c0.8,0,1.5-0.7,1.5-1.5s-0.7-1.5-1.5-1.5h-3.4V29.2H31c0.9,0,1.6-0.7,1.6-1.6C32.6,26.7,31.9,26,31,26z"/>
<path d="M48.8,17.3c-0.8-0.2-1.6,0.4-1.7,1.2l-2,10.3c0-0.2,0,0.4,0-8.8c0-2.5-2-4.6-4.6-4.5l-1.2,0c-1.7,0-3,1.4-3,3l0,1.8l2.2-2.1
	l-2.4,3.4l-5.8-0.7c0-1.6,0-0.8,0-1.8c0.8-0.3,1.2-1,1.1-1.8l-0.4-3.7h-2.7l-0.4,3.7c-0.1,0.8,0.4,1.5,1.1,1.8c0,0.5,0,1.5,0,1.7
	c-0.8,0.1-1.5,0.7-1.6,1.6c-0.1,1,0.6,1.9,1.6,2c8.2,0.9,7.7,0.9,7.8,0.9c0.6,0,1.1-0.3,1.5-0.8l2.4-3.5L39.6,25
	c-0.3,0.9-1.2,1.5-2.2,1.4c-0.7-0.1-0.5-0.1-0.9-0.1l0,1l-2.8,0c0,0.1,0,0.3,0,0.4c0,1.6-1.3,2.8-2.8,2.8h-1.2l4.7,11.9
	c0.4,1.1,1.7,1.6,2.8,1.2c1.1-0.4,1.6-1.7,1.2-2.8l-0.8-2c0.9-2.3,0.7-1.9,1.8-4.6h2.3l0,0l3.4,8.8c0.2,0.4,0.5,0.6,0.9,0.6
	c0.1,0,0.2,0,0.4-0.1c0.5-0.2,0.8-0.8,0.6-1.3l-3.1-8.1v0h1.9c0.7,0,1.3-0.5,1.4-1.2L50,19C50.1,18.2,49.6,17.5,48.8,17.3z
	 M36.6,36.2l-0.7-1.9h1.5L36.6,36.2z M44.6,31.4c-0.7,0-1.1,0-1.8,0c1-0.2,1.8-0.9,2.1-1.8C44.9,29.8,44.9,29.6,44.6,31.4z"/>
</svg>
