<?xml version="1.0" encoding="utf-8"?>
<!-- Generator: Adobe Illustrator 19.2.1, SVG Export Plug-In . SVG Version: 6.00 Build 0)  -->
<svg version="1.1" id="Icons" xmlns="http://www.w3.org/2000/svg" xmlns:xlink="http://www.w3.org/1999/xlink" x="0px" y="0px"
	 viewBox="0 0 50 50" style="enable-background:new 0 0 50 50;" xml:space="preserve">
<style type="text/css">
	.st0{fill:#010002;}
</style>
<path d="M28.2,9.3c-1.6-1.2-3.8-1.4-5.6-0.5s-2.9,2.7-2.9,4.7c0,0.6,0.1,1.2,0.3,1.8h2c-0.3-0.5-0.5-1.1-0.5-1.8
	c0-2,1.6-3.5,3.5-3.5c0.8,0,1.7,0.3,2.3,0.9C27.5,10.3,27.8,9.7,28.2,9.3z"/>
<circle cx="25" cy="13.5" r="1.8"/>
<polygon points="47.1,17 29.1,17 20.3,17 2.9,17 0.2,17 0.2,18.8 20.6,18.8 25.9,18.8 29.4,18.8 49.8,18.8 49.8,17 "/>
<circle cx="16.1" cy="13.5" r="1.8"/>
<path d="M19.3,9.3c-1.6-1.2-3.8-1.4-5.6-0.5c-1.8,0.9-2.9,2.7-2.9,4.8c0,0.6,0.1,1.2,0.3,1.8h2c-0.3-0.5-0.5-1.1-0.5-1.8
	c0-2,1.6-3.5,3.5-3.5c0.8,0,1.7,0.3,2.3,0.9C18.7,10.3,19,9.7,19.3,9.3z"/>
<path d="M5.5,4.6C5.5,3.2,6.7,2,8.2,2h33.6c1.5,0,2.7,1.2,2.7,2.7v10.6h1.8V2.9c0-1.5-1.2-2.7-2.7-2.7H6.4c-1.5,0-2.7,1.2-2.7,2.7
	v12.4h1.8V4.6z"/>
<path d="M42.7,15.3V4.6c0-0.5-0.4-0.9-0.9-0.9H8.2c-0.5,0-0.9,0.4-0.9,0.9v10.6h2c-0.6-2.1-0.1-4.4,1.2-6.1s3.4-2.7,5.6-2.7
	c1.6,0,3.2,0.6,4.4,1.6c2.6-2.1,6.3-2.1,8.9,0c2.1-1.7,5-2,7.5-0.9c2.5,1.2,4,3.7,4,6.4c0,0.6-0.1,1.2-0.2,1.8L42.7,15.3L42.7,15.3z
	"/>
<path d="M38.9,15.3c0.2-0.6,0.3-1.2,0.3-1.8c0-2.2-1.3-4.1-3.3-4.9s-4.3-0.3-5.8,1.2c-1.4,1.4-1.9,3.6-1.2,5.5h2
	c-0.3-0.5-0.5-1.1-0.5-1.8c0-2,1.6-3.5,3.5-3.5s3.5,1.6,3.5,3.5c0,0.6-0.2,1.2-0.5,1.8H38.9z"/>
<circle cx="33.9" cy="13.5" r="1.8"/>
<path d="M27.7,22.3c0.5,0,0.9-0.4,0.9-0.9v-0.9h-7.1v0.9c0,0.5,0.4,0.9,0.9,0.9H27.7z"/>
<path d="M7.6,20.6l2.7,8.2c0.1,0.4,0.5,0.6,0.8,0.6h27.5c0.4,0,0.7-0.2,0.8-0.6l2.7-8.2h-12v0.9c0,1.5-1.2,2.7-2.7,2.7h-5.3
	c-1.5,0-2.7-1.2-2.7-2.7v-0.9H7.6L7.6,20.6z M35.6,22.3c1.5,0,2.7,1.2,2.7,2.7c0,1.5-1.2,2.7-2.7,2.7S33,26.5,33,25
	C33,23.5,34.2,22.3,35.6,22.3z M14.4,23.2c0-0.4,0.2-0.7,0.5-0.8c0.3-0.1,0.7-0.1,1,0.2c0.3,0.3,0.3,0.6,0.2,1
	c-0.1,0.3-0.5,0.5-0.8,0.5c-0.2,0-0.5-0.1-0.6-0.3C14.5,23.7,14.4,23.5,14.4,23.2z M16.8,27.4c-0.2,0.2-0.4,0.3-0.6,0.3
	c-0.2,0-0.5-0.1-0.6-0.3c-0.3-0.3-0.3-0.9,0-1.3c0.3-0.3,0.9-0.3,1.3,0C17.1,26.5,17.1,27.1,16.8,27.4L16.8,27.4z"/>
<path d="M41.3,29.4c-0.4,1.1-1.4,1.8-2.5,1.8H11.2c-1.1,0-2.2-0.7-2.5-1.8l-2.9-8.8H0.6l9.1,25.7h30.6l9.1-25.7h-5.2L41.3,29.4z"/>
<rect x="10" y="48" width="30.1" height="1.8"/>
<circle cx="35.6" cy="25" r="0.9"/>
</svg>
