<?xml version="1.0" encoding="utf-8"?>
<!-- Generator: Adobe Illustrator 19.2.1, SVG Export Plug-In . SVG Version: 6.00 Build 0)  -->
<svg version="1.1" id="Icons" xmlns="http://www.w3.org/2000/svg" xmlns:xlink="http://www.w3.org/1999/xlink" x="0px" y="0px"
	 viewBox="0 0 50 50" style="enable-background:new 0 0 50 50;" xml:space="preserve">
<style type="text/css">
	.st0{fill:#010002;}
</style>
<path d="M25.8,7.5c-9.1,0-16.6,7.4-16.6,16.6s7.4,16.6,16.6,16.6s16.6-7.4,16.6-16.6S34.9,7.5,25.8,7.5z M25.8,36.6
	c-6.9,0-12.6-5.6-12.6-12.6s5.6-12.6,12.6-12.6s12.6,5.6,12.6,12.6S32.7,36.6,25.8,36.6z"/>
<path d="M25.8,14.9c-5.1,0-9.2,4.1-9.2,9.2s4.1,9.2,9.2,9.2s9.2-4.1,9.2-9.2S30.9,14.9,25.8,14.9z"/>
<path d="M49,25.5V5.3c0-0.2-0.1-0.4-0.3-0.4c-0.2-0.1-0.4,0-0.5,0.2c-2.5,3.3-3.9,7.4-3.9,11.5v7.4c0,0.8,0.7,1.5,1.5,1.5h0.6
	c-0.6,6.5-1,15.6-1,16.6c0,1.7,1,3,2.3,3s2.3-1.4,2.3-3C50,41,49.6,31.9,49,25.5z"/>
<path d="M6.7,21.5c1.3-0.8,2.1-2.2,2.1-3.8L8.2,7.4c0-0.4-0.4-0.7-0.7-0.7C7,6.7,6.7,7,6.7,7.5l0.4,8.3c0,0.5-0.4,0.8-0.8,0.8
	c-0.5,0-0.8-0.4-0.8-0.8L5.2,7.5c0-0.4-0.4-0.8-0.8-0.8C4,6.7,3.6,7,3.6,7.5l-0.2,8.3c0,0.5-0.4,0.8-0.8,0.8c-0.5,0-0.8-0.4-0.8-0.8
	l0.4-8.3c0-0.4-0.3-0.8-0.7-0.8C1,6.7,0.7,7,0.6,7.4L0,17.7c0,1.6,0.9,3,2.1,3.8C3,22,3.4,22.9,3.3,23.9c-0.7,6.5-1.2,17.1-1.2,18.2
	c0,1.7,1,3,2.3,3s2.3-1.4,2.3-3c0-1.2-0.5-11.7-1.2-18.2C5.4,22.9,5.9,22,6.7,21.5z"/>
</svg>
