<?xml version="1.0" encoding="utf-8"?>
<!-- Generator: Adobe Illustrator 19.2.1, SVG Export Plug-In . SVG Version: 6.00 Build 0)  -->
<svg version="1.1" id="Icons" xmlns="http://www.w3.org/2000/svg" xmlns:xlink="http://www.w3.org/1999/xlink" x="0px" y="0px"
	 viewBox="0 0 50 50" style="enable-background:new 0 0 50 50;" xml:space="preserve">
<style type="text/css">
	.st0{fill:#010002;}
</style>
<path d="M3.1,5.7V3.5c0-0.3,0.1-0.6,0.2-0.9H0.9C0.4,2.6,0,3,0,3.5v43c0,0.5,0.4,0.9,0.9,0.9h2.4c-0.1-0.3-0.2-0.6-0.2-0.9v-2.2V5.7
	z"/>
<path d="M50,30c0-8.4-6.8-15.3-15.2-15.3v9.4c3.2,0,5.8,2.6,5.8,5.9c0,1.6-0.6,3-1.7,4.1h-3.1h-1.4h-1.2V3.5c0-0.5-0.4-0.9-0.9-0.9
	h-4.6H5.5C5,2.6,4.6,3,4.6,3.5v43c0,0.5,0.4,0.9,0.9,0.9H17l0,0h3.7h3.2c0,0,0,0,0,0h3.9h0.9l0,0h2.4h2h1.5h0.1h1.8h3.2
	c1.8,0,3.5-0.6,5-1.6c1.4-1.1,2.5-2.6,3-4.3c0.4-1.2,0.4-2.4,0.1-3.5C49.2,35.6,50,32.9,50,30z M29.1,40.7c-0.6,2.3-2.8,3.8-5.2,3.8
	h-3.2l1.4-5.1h1.9l-1,3.5h1.4c1.2,0,2.3-0.9,2.7-2.3c0.4-1.4-0.2-2.3-1.5-2.3h-3.2l0.4-1.6h3.3C28.6,36.9,29.8,38.4,29.1,40.7z
	 M45,40.7c-0.6,2.3-2.8,3.8-5.2,3.8h-3.2l1.4-5.1h1.9l-1,3.5h1.4c1.2,0,2.3-0.9,2.7-2.3c0.4-1.4-0.2-2.3-1.5-2.3h-4.6l-3.7,6.1h-2
	l-1.3-7.6h2.1l0.7,5.6l3.2-5.6H42C44.4,36.9,45.6,38.4,45,40.7z"/>
<path d="M38.1,30c0-1.9-1.5-3.4-3.3-3.4v6.8C36.6,33.3,38.1,31.8,38.1,30z"/>
</svg>
