<?xml version="1.0" encoding="utf-8"?>
<!-- Generator: Adobe Illustrator 19.2.1, SVG Export Plug-In . SVG Version: 6.00 Build 0)  -->
<svg version="1.1" id="Icons" xmlns="http://www.w3.org/2000/svg" xmlns:xlink="http://www.w3.org/1999/xlink" x="0px" y="0px"
	 viewBox="0 0 50 50" style="enable-background:new 0 0 50 50;" xml:space="preserve">
<style type="text/css">
	.st0{fill:#010002;}
</style>
<path d="M22.3,38.1v4.8c0,1.5,1.2,2.7,2.7,2.7s2.7-1.2,2.7-2.7v-4.8C25.9,38.5,24.1,38.5,22.3,38.1z"/>
<path d="M29.5,42.3v0.6c0,2.5-2,4.5-4.5,4.5s-4.5-2-4.5-4.5v-0.6C16,43,13.4,44.7,13.4,46c0,1.9,5,4,11.6,4s11.6-2.1,11.6-4
	C36.6,44.7,34,43,29.5,42.3z"/>
<path d="M37.9,25.1c0,0-0.1,0-0.1,0.1c-3,1.6-7.8,2.5-12.8,2.5c-5,0-9.8-1-12.8-2.5c0,0-0.1,0-0.1-0.1c-0.2-0.1-0.3-0.2-0.5-0.3
	c2.1,7,7.4,11.8,13.4,11.8s11.3-4.8,13.4-11.8C38.2,24.9,38.1,25,37.9,25.1z"/>
<path d="M22,5.3c-0.1,0-0.1,0-0.2,0c-0.8,0-2.3,1.4-3.3,3.9c-0.5,1.2-0.7,2.4-0.7,3.7c0,0.8,0.3,1.4,0.6,1.5c0.2,0.1,0.7,0,1.4-0.7
	c0.9-0.9,1.6-2,2-3.2C22.9,7.8,22.7,5.6,22,5.3z"/>
<path d="M25,0c-7.1,0-13.3,10-13.4,18.2v0.2c0,1.6,0.2,3.2,0.7,4.7c0.2,0.1,0.5,0.3,0.7,0.4c0,0,0.1,0,0.1,0.1
	c2.7,1.4,7.2,2.3,11.9,2.3c4.7,0,9.1-0.9,11.9-2.3c0,0,0.1,0,0.1-0.1c0.3-0.1,0.5-0.3,0.7-0.4c0.5-1.5,0.7-3.1,0.7-4.7v-0.2
	C38.3,10,32.1,0,25,0z M23.5,11.2L23.5,11.2c-0.5,1.4-1.4,2.8-2.4,3.8c-0.7,0.7-1.6,1.2-2.5,1.2c-0.3,0-0.6-0.1-0.8-0.2
	c-1-0.4-1.6-1.5-1.7-3.1c0-1.5,0.2-3.1,0.8-4.5c1.4-3.6,3.9-5.7,5.8-4.9C24.5,4.4,24.9,7.6,23.5,11.2z"/>
</svg>
