<?xml version="1.0" encoding="utf-8"?>
<!-- Generator: Adobe Illustrator 19.2.1, SVG Export Plug-In . SVG Version: 6.00 Build 0)  -->
<svg version="1.1" id="Icons" xmlns="http://www.w3.org/2000/svg" xmlns:xlink="http://www.w3.org/1999/xlink" x="0px" y="0px"
	 viewBox="0 0 50 50" style="enable-background:new 0 0 50 50;" xml:space="preserve">
<style type="text/css">
	.st0{fill:#010002;}
</style>
<path d="M49.1,4.4C49.6,4.4,50,4,50,3.5V0.9C50,0.4,49.6,0,49.1,0H10.6c-0.5,0-0.9,0.4-0.9,0.9v38.5c0,0.5,0.4,0.9,0.9,0.9h38.5
	c0.5,0,0.9-0.4,0.9-0.9v-33c0-0.5-0.4-0.9-0.9-0.9c-0.5,0-0.9,0.4-0.9,0.9V21h-3.4c-0.5,0-0.9,0.4-0.9,0.9c0,0.5,0.4,0.9,0.9,0.9
	h3.4v15.9H24v-4.1c0-0.5-0.4-0.9-0.9-0.9c-0.5,0-0.9,0.4-0.9,0.9v4.1H11.5V1.7h10.8v26.6c0,0.5,0.4,0.9,0.9,0.9
	c0.5,0,0.9-0.4,0.9-0.9v-5.6h15.2c0.5,0,0.9-0.4,0.9-0.9c0-0.5-0.4-0.9-0.9-0.9H24V1.7h24.3v1.8C48.3,4,48.7,4.4,49.1,4.4z"/>
<path d="M7.2,4.9L4.4,0.4C4.2,0.2,4,0,3.7,0C3.4,0,3.1,0.2,2.9,0.4L0.1,4.9C0,5.2,0,5.5,0.1,5.8C0.3,6,0.5,6.2,0.9,6.2h2v3.6
	c0,0.5,0.4,0.9,0.9,0.9s0.9-0.4,0.9-0.9V6.2h2c0.3,0,0.6-0.2,0.7-0.4C7.4,5.5,7.4,5.2,7.2,4.9z M2.4,4.5l1.3-2.1l1.3,2.1H2.4z"/>
<path d="M7.2,34.5C7.1,34.2,6.8,34,6.5,34h-2V12c0-0.5-0.4-0.9-0.9-0.9S2.8,11.6,2.8,12v22h-2c-0.3,0-0.6,0.2-0.7,0.4
	c-0.2,0.3-0.1,0.6,0,0.9l2.8,4.5c0.2,0.2,0.4,0.4,0.7,0.4c0.3,0,0.6-0.2,0.7-0.4l2.8-4.5C7.4,35.1,7.4,34.7,7.2,34.5z M3.7,37.8
	l-1.3-2.1h2.6L3.7,37.8z"/>
<path d="M49.6,45.6l-4.5-2.8c-0.3-0.2-0.6-0.2-0.9,0c-0.3,0.2-0.4,0.4-0.4,0.7v2H16v-2c0-0.3-0.2-0.6-0.4-0.7
	c-0.3-0.2-0.6-0.1-0.9,0l-4.5,2.8c-0.2,0.2-0.4,0.4-0.4,0.7c0,0.3,0.2,0.6,0.4,0.7l4.5,2.8C14.8,50,15,50,15.1,50
	c0.1,0,0.3,0,0.4-0.1c0.3-0.2,0.4-0.4,0.4-0.7v-2h27.8v2c0,0.3,0.2,0.6,0.4,0.7c0.1,0.1,0.3,0.1,0.4,0.1c0.2,0,0.3,0,0.5-0.1
	l4.5-2.8c0.2-0.2,0.4-0.4,0.4-0.7C50,46,49.8,45.8,49.6,45.6z M14.3,47.6l-2.1-1.3l2.1-1.3V47.6z M45.5,47.6v-2.6l2.1,1.3L45.5,47.6
	z"/>
</svg>
