<?xml version="1.0" encoding="utf-8"?>
<!-- Generator: Adobe Illustrator 19.2.1, SVG Export Plug-In . SVG Version: 6.00 Build 0)  -->
<svg version="1.1" id="Icons" xmlns="http://www.w3.org/2000/svg" xmlns:xlink="http://www.w3.org/1999/xlink" x="0px" y="0px"
	 viewBox="0 0 50 50" style="enable-background:new 0 0 50 50;" xml:space="preserve">
<style type="text/css">
	.st0{fill:#010002;}
</style>
<path d="M35.7,0H14.3c-0.9,0-1.6,0.7-1.6,1.6v16.8h24.7V1.6C37.3,0.7,36.6,0,35.7,0z M17.3,11.8c0,0.8-0.7,1.5-1.5,1.5V5.1
	c0.8,0,1.5,0.7,1.5,1.5V11.8z"/>
<path d="M12.7,45.4c0,0.9,0.7,1.6,1.6,1.6h21.4c0.9,0,1.6-0.7,1.6-1.6V20.6H12.7V45.4z M32.6,34.8c0-0.5,0.4-0.9,0.9-0.9
	s0.9,0.4,0.9,0.9v1.5c0,0.5-0.4,0.9-0.9,0.9s-0.9-0.4-0.9-0.9V34.8z M32.6,39.2c0-0.5,0.4-0.9,0.9-0.9s0.9,0.4,0.9,0.9v4
	c0,0.5-0.4,0.9-0.9,0.9s-0.9-0.4-0.9-0.9V39.2z M15.7,24.5c0.8,0,1.5,0.7,1.5,1.5v5.3c0,0.8-0.7,1.5-1.5,1.5V24.5z"/>
<path d="M34.8,47.7H15.7c-0.1,0-0.1,0.1-0.1,0.1v2c0,0.1,0.1,0.1,0.1,0.1h2c0,0,0,0,0,0l3.6-1h7.5l3.9,1c0,0,0,0,0,0h2
	c0.1,0,0.1-0.1,0.1-0.1v-2C34.9,47.8,34.9,47.7,34.8,47.7z"/>
</svg>
