<?xml version="1.0" encoding="utf-8"?>
<!-- Generator: Adobe Illustrator 19.2.1, SVG Export Plug-In . SVG Version: 6.00 Build 0)  -->
<svg version="1.1" id="Icons" xmlns="http://www.w3.org/2000/svg" xmlns:xlink="http://www.w3.org/1999/xlink" x="0px" y="0px"
	 viewBox="0 0 50 50" style="enable-background:new 0 0 50 50;" xml:space="preserve">
<style type="text/css">
	.st0{fill:#010002;}
</style>
<path d="M46.9,10.4h-3.1V4.2c0-2.3-1.9-4.2-4.2-4.2h-3.1c-0.6,0-1,0.5-1,1v1.6c-0.6-0.4-1.3-0.6-2.1-0.6H6.3C4,2.1,2.1,4,2.1,6.2
	v37.5c0,2.3,1.9,4.2,4.2,4.2h27.1c0.8,0,1.5-0.2,2.1-0.6V49c0,0.6,0.5,1,1,1h3.1c2.3,0,4.2-1.9,4.2-4.2V31.2h3.1c0.6,0,1-0.5,1-1
	V11.5C47.9,10.9,47.5,10.4,46.9,10.4z M31.2,41.7H8.3V8.3h22.9V41.7z M45.8,29.2h-2.1V12.5h2.1V29.2z"/>
<path d="M11.5,39.6h3.1c0.6,0,1-0.5,1-1v-1c0-1.4,0.4-2.4,0.8-3.1l0,0c0.2-0.6,0.4-0.8,0.4-1.3c0-0.4-0.1-0.7-0.3-1.4
	c-0.4-1.1-0.8-2.6-0.8-5.1c0-2.8,1.2-5,2.1-6.5l0.3-0.5c0.1-0.2,0.2-0.5,0.1-0.8c-0.2-0.8-0.2-1.6-0.2-2.1c0-0.3,0-0.6,0.1-0.9
	c0.1-0.3,0-0.6-0.2-0.9c-0.2-0.3-0.5-0.4-0.8-0.4h-2.7c-0.4,0-0.7,0.2-0.9,0.5l-0.6,1c-0.1,0.2-0.1,0.5-0.1,0.6c0,0.9,0,1.8,0.5,2.4
	c-0.1,0.6-0.5,1.3-1,2.1c-0.8,1.4-1.8,3.1-1.8,5.4c0,2.2,0.4,3.4,0.7,4.4c0.2,0.7,0.4,1.3,0.4,2c0,0.9-0.2,1.5-0.5,2.2
	c-0.3,0.6-0.6,1.4-0.6,2.3v1C10.4,39.1,10.9,39.6,11.5,39.6z"/>
<path d="M17.7,26.6c0,2.2,0.3,3.4,0.6,4.4c0.2,0.7,0.4,1.3,0.4,2.1c0,1-0.2,1.6-0.5,2.2c-0.2,0.6-0.5,1.3-0.5,2.3v1c0,0.6,0.5,1,1,1
	h8.3c0.6,0,1-0.5,1-1v-1c0-0.9-0.3-1.7-0.5-2.3c-0.2-0.6-0.5-1.2-0.5-2.2c0-0.8,0.2-1.4,0.4-2.1c0.3-1,0.6-2.2,0.6-4.4
	c0-2.2-0.9-3.9-1.6-5.3c-0.4-0.8-0.8-1.5-0.9-2.2c0.4-0.6,0.5-1.4,0.5-2.5c0-0.2,0-0.3-0.1-0.5l-0.5-1c-0.2-0.4-0.5-0.6-0.9-0.6
	h-3.4c-0.4,0-0.8,0.2-0.9,0.6l-0.5,1c-0.1,0.1-0.1,0.4-0.1,0.6c0,0.9,0,1.8,0.5,2.3c-0.1,0.7-0.5,1.4-0.9,2.2
	C18.6,22.6,17.7,24.4,17.7,26.6z"/>
</svg>
