<?xml version="1.0" encoding="utf-8"?>
<!-- Generator: Adobe Illustrator 19.2.1, SVG Export Plug-In . SVG Version: 6.00 Build 0)  -->
<svg version="1.1" id="Icons" xmlns="http://www.w3.org/2000/svg" xmlns:xlink="http://www.w3.org/1999/xlink" x="0px" y="0px"
	 viewBox="0 0 50 50" style="enable-background:new 0 0 50 50;" xml:space="preserve">
<style type="text/css">
	.st0{fill:#010002;}
</style>
<path class="st0" d="M19.5,28.8c-0.3-0.3-0.7-0.6-0.9-1L7.3,38.9c-2.5,0.1-6.2,0.3-6.4,0.5C0.8,39.6,0,40.5,0,40.8
	c-0.1,1.2,1.7,2.5,3.5,4.2c1.8,1.8,3,3.5,4.2,3.5c0.3,0,1.2-0.7,1.4-0.9l0.4-6L21,30.2c-0.4-0.3-0.8-0.7-1.2-1.2L19.5,28.8z
	 M4.2,43.1L4,43.3c-0.1,0.1-0.3,0.1-0.5,0l-2.1-2c-0.1-0.1-0.1-0.3,0-0.5l0.2-0.2c0.1-0.1,0.3-0.1,0.5,0l2.1,2
	C4.3,42.8,4.3,43,4.2,43.1z M8,46.9l-0.2,0.2c-0.1,0.1-0.3,0.1-0.5,0l-2.1-2c-0.1-0.1-0.1-0.3,0-0.5l0.2-0.2c0.1-0.1,0.3-0.1,0.5,0
	l2.1,2C8.2,46.6,8.2,46.8,8,46.9z"/>
<path class="st0" d="M43.9,9.2c-1,0.4-1.6,1.6-2,2.5c-0.3,1-0.6,2-0.7,3l3.4-4c0.5-0.5,1.1-0.9,1.7-1.2C45.5,9.2,44.7,8.9,43.9,9.2z
	"/>
<path class="st0" d="M49.4,6.7l-3.8-3.8c-0.9-0.9-1.9-1.4-3-1.4c-1.1,0-2.2,0.5-3.2,1.5L24.5,16.8c0,0-0.1,0-0.1-0.1
	c-0.3-0.1-0.6-0.1-0.9-0.1c-0.3,0-0.6,0.1-0.9,0.2c-0.5,0.3-0.7,0.8-0.8,1.4c0,0.1,0,0.3,0,0.4c0,0.3,0.1,0.5,0.3,0.6
	c-0.5,0.6-1,1.1-1.4,1.6L28,28c2.2-1.8,5.2-4.6,9.7-9l1.7-1.9c0-2.7,0.5-5.6,2-7.7c1.9-2.6,4.5-2.1,6.7-0.5c0.9-0.4,1.9-0.8,2-1.2
	C50,7.4,49.8,7.1,49.4,6.7z"/>
<path class="st0" d="M18.4,25.3c0,1.2,0.8,1.9,1.7,2.8l0.3,0.3c1.2,1.2,2,2,3.1,2c0.8,0,1.7-0.4,3.1-1.4l-6.9-6.8
	C18.8,23.5,18.4,24.5,18.4,25.3z"/>
</svg>
