<?xml version="1.0" encoding="utf-8"?>
<!-- Generator: Adobe Illustrator 19.2.1, SVG Export Plug-In . SVG Version: 6.00 Build 0)  -->
<svg version="1.1" id="Icons" xmlns="http://www.w3.org/2000/svg" xmlns:xlink="http://www.w3.org/1999/xlink" x="0px" y="0px"
	 viewBox="0 0 50 50" style="enable-background:new 0 0 50 50;" xml:space="preserve">
<style type="text/css">
	.st0{fill:#010002;}
</style>
<path class="st0" d="M15.2,17.9v-1.4h-2v2.7C13.8,18.8,14.5,18.3,15.2,17.9z"/>
<path class="st0" d="M31.2,25.3c-0.8-1.1-2.4-1.9-4.2-1.9c0,0-0.1,0-0.1,0c-1.8,0-3.3,0.7-4.1,1.8c-0.3,0.3-0.2,0.7-0.1,1
	c0.2,0.4,0.7,0.6,1.2,0.6l6.1,0.1c0,0,0,0,0,0c0.9,0,1.6-0.7,1.3-1.4C31.2,25.4,31.2,25.3,31.2,25.3z"/>
<path class="st0" d="M43.4,16.1c-0.1-0.1-0.2-0.3-0.3-0.4c-0.1-0.1-0.3-0.2-0.4-0.3c-0.1-0.1-0.3-0.1-0.4-0.1v-1.4
	c0-0.3-0.2-0.5-0.5-0.6c-0.9-0.2-2.9-0.4-5.6-0.4c-4.9,0-12.4,0.9-20.1,5.5c-0.1,0.1-0.3,0.2-0.4,0.3c-0.1,0.1-0.3,0.2-0.4,0.3
	c-0.4,0.2-0.8,0.5-1.2,0.8c-0.2,0.1-0.4,0.3-0.6,0.4c-0.2,0.1-0.4,0.3-0.6,0.4c-4.2,3.1-8.5,7.3-12.3,13.1c0,0,0,0,0,0c0,0,0,0,0,0
	h37.1c0.2,0,0.4-0.2,0.5-0.5c0.2-1.3,0.9-3.5,3.6-4.2c0.3-0.1,0.5-0.3,0.5-0.6v-9.1c0.2,0,0.3-0.1,0.4-0.1c0.2-0.1,0.3-0.1,0.4-0.3
	c0.1-0.1,0.2-0.2,0.3-0.3c3.9,0.7,3.9,6.2,4.1,9.5c0.1,1.7,2.7,1.7,2.6,0C49.7,23.4,49.1,16.7,43.4,16.1z M37,23.1
	c0,2.1-2,2.2-4.9,2.3c0.1,0.4,0.1,0.8-0.1,1.2c-0.4,0.7-1.2,1.1-2.1,1.1c0,0,0,0,0,0l-6.1-0.1c-0.9,0-1.7-0.5-2-1.2
	c-0.1-0.1-0.1-0.2-0.1-0.3c-3-0.1-5.2-0.8-4.3-2.4c1.8-3.1,4.9-5,9.9-5.9C37.1,15.9,37.1,15.9,37,23.1z"/>
<rect y="35" class="st0" width="39.8" height="2.1"/>
</svg>
