<?xml version="1.0" encoding="utf-8"?>
<!-- Generator: Adobe Illustrator 19.2.1, SVG Export Plug-In . SVG Version: 6.00 Build 0)  -->
<svg version="1.1" id="Icons" xmlns="http://www.w3.org/2000/svg" xmlns:xlink="http://www.w3.org/1999/xlink" x="0px" y="0px"
	 viewBox="0 0 50 50" style="enable-background:new 0 0 50 50;" xml:space="preserve">
<style type="text/css">
	.st0{fill:#010002;}
</style>
<path d="M7.3,34.6V20.8l0.8,0l0-0.9c0,0-1-2.3-0.1-5.8C8,13.3,8,3.8,8,3.8h0c0,0,0,0,0,0c0-0.7-0.6-1.3-1.3-1.3
	C6,2.5,5.4,3.1,5.4,3.8c0,0,0,0,0,0l0,0c0,0,0,9.3,0,10.2c0.7,4.3-0.2,5.9-0.2,5.9v0.9l0.8,0v13.9c-3.4,0.3-6,3.2-6,6.6
	c0,3.7,3,6.7,6.7,6.7c3.7,0,6.7-3,6.7-6.7C13.3,37.8,10.7,35,7.3,34.6z M5.3,37.4c0.2,0,0.4,0.2,0.4,0.4c0,0.2-0.2,0.4-0.4,0.4
	S4.9,38,4.9,37.8C4.9,37.6,5.1,37.4,5.3,37.4z M4.6,35.9c0.2,0,0.4,0.2,0.4,0.4c0,0.2-0.2,0.4-0.4,0.4s-0.4-0.2-0.4-0.4
	C4.1,36.1,4.3,35.9,4.6,35.9z M5.2,41.4c0,0.2-0.2,0.4-0.4,0.4c-0.2,0-0.4-0.2-0.4-0.4c0-0.2,0.2-0.4,0.4-0.4
	C5,41,5.2,41.2,5.2,41.4z M4.1,38.1c0.2,0,0.4,0.2,0.4,0.4c0,0.2-0.2,0.4-0.4,0.4c-0.2,0-0.4-0.2-0.4-0.4
	C3.7,38.3,3.9,38.1,4.1,38.1z M3.9,39.9c0,0.2-0.2,0.4-0.4,0.4c-0.2,0-0.4-0.2-0.4-0.4c0-0.2,0.2-0.4,0.4-0.4
	C3.7,39.5,3.9,39.6,3.9,39.9z M3.4,41.3c0,0.2-0.2,0.4-0.4,0.4c-0.2,0-0.4-0.2-0.4-0.4c0-0.2,0.2-0.4,0.4-0.4
	C3.3,40.9,3.4,41,3.4,41.3z M3,37.1c0.2,0,0.4,0.2,0.4,0.4C3.4,37.8,3.2,38,3,38c-0.2,0-0.4-0.2-0.4-0.4C2.5,37.3,2.7,37.1,3,37.1z
	 M1.8,38.9c0.2,0,0.4,0.2,0.4,0.4c0,0.2-0.2,0.4-0.4,0.4c-0.2,0-0.4-0.2-0.4-0.4C1.4,39.1,1.6,38.9,1.8,38.9z M0.9,41.4
	c0-0.2,0.2-0.4,0.4-0.4c0.2,0,0.4,0.2,0.4,0.4c0,0.2-0.2,0.4-0.4,0.4C1.1,41.8,0.9,41.6,0.9,41.4z M1.8,44c-0.2,0-0.4-0.2-0.4-0.4
	c0-0.2,0.2-0.4,0.4-0.4c0.2,0,0.4,0.2,0.4,0.4C2.2,43.8,2,44,1.8,44z M2.9,45.5c-0.2,0-0.4-0.2-0.4-0.4c0-0.2,0.2-0.4,0.4-0.4
	c0.2,0,0.4,0.2,0.4,0.4C3.3,45.3,3.2,45.5,2.9,45.5z M3.2,43c-0.2,0-0.4-0.2-0.4-0.4c0-0.2,0.2-0.4,0.4-0.4c0.2,0,0.4,0.2,0.4,0.4
	C3.6,42.8,3.4,43,3.2,43z M3.7,44c0-0.2,0.2-0.4,0.4-0.4c0.2,0,0.4,0.2,0.4,0.4c0,0.2-0.2,0.4-0.4,0.4C3.9,44.4,3.7,44.2,3.7,44z
	 M4.6,46.7c-0.2,0-0.4-0.2-0.4-0.4c0-0.2,0.2-0.4,0.4-0.4c0.2,0,0.4,0.2,0.4,0.4C5,46.5,4.8,46.7,4.6,46.7z M5.2,45.2
	c-0.2,0-0.4-0.2-0.4-0.4c0-0.2,0.2-0.4,0.4-0.4c0.2,0,0.4,0.2,0.4,0.4C5.6,45,5.5,45.2,5.2,45.2z M5.4,43.2C5.2,43.2,5,43,5,42.8
	c0-0.2,0.2-0.4,0.4-0.4s0.4,0.2,0.4,0.4C5.8,43,5.7,43.2,5.4,43.2z M5.4,40.5c-0.2,0-0.4-0.2-0.4-0.4c0-0.2,0.2-0.4,0.4-0.4
	s0.4,0.2,0.4,0.4C5.8,40.3,5.7,40.5,5.4,40.5z M10.3,39.8c0.2,0,0.4,0.2,0.4,0.4c0,0.2-0.2,0.4-0.4,0.4c-0.2,0-0.4-0.2-0.4-0.4
	C9.9,39.9,10.1,39.8,10.3,39.8z M8.9,36c0.2,0,0.4,0.2,0.4,0.4s-0.2,0.4-0.4,0.4c-0.2,0-0.4-0.2-0.4-0.4C8.5,36.1,8.7,35.9,8.9,36z
	 M8.2,37.6c0.2,0,0.4,0.2,0.4,0.4c0,0.2-0.2,0.4-0.4,0.4c-0.2,0-0.4-0.2-0.4-0.4C7.8,37.7,8,37.6,8.2,37.6z M8.7,41
	c0.2,0,0.4,0.2,0.4,0.4c0,0.2-0.2,0.4-0.4,0.4c-0.2,0-0.4-0.2-0.4-0.4C8.3,41.1,8.5,41,8.7,41z M8.1,39.6c0.2,0,0.4,0.2,0.4,0.4
	c0,0.2-0.2,0.4-0.4,0.4c-0.2,0-0.4-0.2-0.4-0.4C7.7,39.8,7.9,39.6,8.1,39.6z M6.8,3.2c0.4,0,0.7,0.3,0.7,0.7c0,0.4-0.3,1.7-0.7,1.7
	C6.4,5.7,6.1,4.4,6.1,4C6.1,3.6,6.4,3.2,6.8,3.2z M6.8,38c-0.2,0-0.4-0.2-0.4-0.4c0-0.2,0.2-0.4,0.4-0.4c0.2,0,0.4,0.2,0.4,0.4
	C7.2,37.8,7,38,6.8,38z M7.1,39.5c0,0.2-0.2,0.4-0.4,0.4c-0.2,0-0.4-0.2-0.4-0.4c0-0.2,0.2-0.4,0.4-0.4C6.9,39.1,7.1,39.3,7.1,39.5z
	 M6.3,35.8c0-0.2,0.2-0.4,0.4-0.4c0.2,0,0.4,0.2,0.4,0.4c0,0.2-0.2,0.4-0.4,0.4C6.4,36.3,6.3,36.1,6.3,35.8z M6.7,47.1
	c-0.2,0-0.4-0.2-0.4-0.4c0-0.2,0.2-0.4,0.4-0.4c0.2,0,0.4,0.2,0.4,0.4C7.1,46.9,6.9,47.1,6.7,47.1z M6.7,45.5
	c-0.2,0-0.4-0.2-0.4-0.4c0-0.2,0.2-0.4,0.4-0.4c0.2,0,0.4,0.2,0.4,0.4C7.1,45.3,6.9,45.5,6.7,45.5z M6.9,43.6
	c-0.2,0-0.4-0.2-0.4-0.4c0-0.2,0.2-0.4,0.4-0.4c0.2,0,0.4,0.2,0.4,0.4C7.4,43.4,7.2,43.6,6.9,43.6z M6.8,42c-0.3,0-0.6-0.3-0.6-0.6
	c0-0.3,0.3-0.6,0.6-0.6c0.3,0,0.6,0.3,0.6,0.6C7.3,41.7,7.1,42,6.8,42z M8.1,42.3c0.2,0,0.4,0.2,0.4,0.4c0,0.2-0.2,0.4-0.4,0.4
	c-0.2,0-0.4-0.2-0.4-0.4C7.7,42.5,7.9,42.3,8.1,42.3z M7.7,44.8c0-0.2,0.2-0.4,0.4-0.4c0.2,0,0.4,0.2,0.4,0.4c0,0.2-0.2,0.4-0.4,0.4
	C7.9,45.2,7.7,45,7.7,44.8z M8.7,46.9c-0.2,0-0.4-0.2-0.4-0.4c0-0.2,0.2-0.4,0.4-0.4c0.2,0,0.4,0.2,0.4,0.4
	C9.1,46.7,8.9,46.9,8.7,46.9z M9.3,44.4c-0.2,0-0.4-0.2-0.4-0.4c0-0.2,0.2-0.4,0.4-0.4c0.2,0,0.4,0.2,0.4,0.4
	C9.7,44.2,9.5,44.4,9.3,44.4z M9.3,39.3c-0.2,0-0.4-0.2-0.4-0.4c0-0.2,0.2-0.4,0.4-0.4c0.2,0,0.4,0.2,0.4,0.4
	C9.7,39.1,9.5,39.3,9.3,39.3z M9.9,43c0-0.2,0.2-0.4,0.4-0.4c0.2,0,0.4,0.2,0.4,0.4c0,0.2-0.2,0.4-0.4,0.4
	C10.1,43.4,9.9,43.2,9.9,43z M10.5,45.6c-0.2,0-0.4-0.2-0.4-0.4c0-0.2,0.2-0.4,0.4-0.4c0.2,0,0.4,0.2,0.4,0.4
	C10.9,45.5,10.8,45.6,10.5,45.6z M10.5,42c-0.2,0-0.4-0.2-0.4-0.4c0-0.2,0.2-0.4,0.4-0.4c0.2,0,0.4,0.2,0.4,0.4
	C10.9,41.8,10.8,42,10.5,42z M10.6,38c-0.2,0-0.4-0.2-0.4-0.4c0-0.2,0.2-0.4,0.4-0.4c0.2,0,0.4,0.2,0.4,0.4C11,37.8,10.9,38,10.6,38
	z M11.8,43.7c-0.2,0-0.4-0.2-0.4-0.4c0-0.2,0.2-0.4,0.4-0.4c0.2,0,0.4,0.2,0.4,0.4C12.3,43.5,12.1,43.7,11.8,43.7z M12.6,41.2
	c0,0.2-0.2,0.4-0.4,0.4c-0.2,0-0.4-0.2-0.4-0.4c0-0.2,0.2-0.4,0.4-0.4C12.4,40.8,12.6,41,12.6,41.2z M12.1,39.3
	c0,0.2-0.2,0.4-0.4,0.4c-0.2,0-0.4-0.2-0.4-0.4c0-0.2,0.2-0.4,0.4-0.4C12,38.9,12.1,39,12.1,39.3z"/>
<path d="M20.5,33.8V21.2h1v-0.9c0,0-1.1-2.4-0.1-6c0-0.8,0-10.5,0-10.5h0c0,0,0,0,0,0c0-0.7-0.6-1.3-1.3-1.3c-0.7,0-1.3,0.6-1.3,1.3
	c0,0,0,0,0,0h0c0,0,0,9.6,0,10.4c0.7,4.4-0.2,6-0.2,6v0.9h1v12.5c0,0-3.9,3.1-3.9,4c0,0.9,0,4.3,0,4.6c0,0.4-0.1,5.6,2.2,5.6
	c0.7,0,1.9,0,2.1,0c0,0,0,0,0,0c0.2,0,1.4,0,2.1,0c2.2,0,2.2-5.2,2.2-5.6c0-0.4,0-3.8,0-4.6C24.3,36.9,20.9,34.1,20.5,33.8z
	 M17.3,46.7h-0.5l0-8.8h0.5L17.3,46.7L17.3,46.7z M18.8,46.9l-0.5,0v-7.4l0.5,0V46.9z M19.4,4c0-0.4,0.3-0.7,0.7-0.7
	c0.4,0,0.7,0.3,0.7,0.7c0,0.4-0.3,1.8-0.7,1.8C19.7,5.8,19.4,4.4,19.4,4z M19.7,46.9v-6.4h0.5l0,6.4L19.7,46.9z M21.6,46.9h-0.5
	v-7.4l0.5,0V46.9z M23,46.6h-0.5v-8.8l0.5,0V46.6z"/>
<path d="M33.6,24.6h0.5v-1.1c0,0-1.3-2.8-0.1-7c0-0.9,0-12.3,0-12.3l0,0c0,0,0,0,0,0c0-0.8-0.7-1.5-1.5-1.5c-0.8,0-1.5,0.7-1.5,1.5
	c0,0,0,0,0,0h0c0,0,0,11.2,0,12.3c0.9,5.1-0.2,7.1-0.2,7.1v1.1h0.6c-0.1,1.9-1.1,4.8-2.2,8c-1.3,3.8-2.7,7.7-2.5,10
	c0.2,2.5,1.3,3.8,2.2,4.4c0.8,0.5,1.7,0.8,2.6,0.8c0.3,0,0.7,0,1-0.1l0.5-0.1c0.2,0,0.3,0,0.5,0c0.9,0,1.8-0.3,2.6-0.8
	c0.9-0.6,2-1.9,2.2-4.4c0.2-2.3-1.2-6.2-2.5-10C34.7,29.3,33.7,26.4,33.6,24.6z M32.5,3.5c0.5,0,0.9,0.4,0.9,0.9
	c0,0.5-0.4,2.1-0.9,2.1c-0.5,0-0.9-1.6-0.9-2.1C31.7,3.8,32.1,3.5,32.5,3.5z M29.3,46.5c-0.8-0.6-1.8-1.7-2-4
	c-0.2-2.2,1.1-6,2.4-9.8c0.3-0.8,0.5-1.5,0.8-2.3c-1.1,4.8-2.3,10.7-2.4,11.6c-0.1,2.8,2,4.4,3.3,5.2C30.6,47.2,29.9,47,29.3,46.5z
	 M28.7,42.1c0-0.6,0.9-4.8,1.8-8.9c-0.5,4.1-1,8.2-1,9.1c0,1.2,1.1,3.2,2.1,4.4C30.4,46,28.6,44.5,28.7,42.1z M30.1,42.3
	c0-1,0.7-6.5,1.3-11.2c-0.3,7.1-0.3,8.4-0.2,9.7c0,0.4,0,0.9,0,1.5c0,1.7,0.4,3,0.8,3.9C31.2,45.2,30.1,43.4,30.1,42.3z M32.4,45.6
	c-0.3-0.8-0.6-1.9-0.6-3.2c0-0.7,0-1.1,0-1.5c0-1.6-0.1-3.2,0.5-15.7c0-0.2,0.1-0.4,0.1-0.5h0.1c0,0.1,0,0.2,0.1,0.3
	c0.6,12.5,0.6,14.1,0.5,15.7c0,0.4,0,0.9,0,1.6C33.1,43.6,32.7,44.7,32.4,45.6z M32.9,46c0.4-0.9,0.8-2.2,0.8-3.9c0-0.7,0-1.1,0-1.5
	c0-1.3,0.1-2.6-0.2-9.7c0.6,4.7,1.3,10.2,1.3,11.2C34.8,43.2,33.7,45,32.9,46z M33.3,46.5c0.3-0.4,0.6-0.9,0.7-1
	c0.5-0.8,1.4-2.3,1.4-3.4c0-0.9-0.5-5-1-9.1c0.9,4.1,1.8,8.3,1.8,8.9C36.3,44.3,34.5,45.8,33.3,46.5z M37.7,42.4
	c-0.2,2.3-1.2,3.4-2,4C35,46.8,34.3,47,33.6,47c1.3-0.8,3.4-2.4,3.3-5.2c-0.1-0.8-1.3-6.7-2.4-11.5c0.2,0.7,0.5,1.5,0.8,2.3
	C36.5,36.3,37.8,40.2,37.7,42.4z"/>
<path d="M50,44.3L50,44.3C50,44.2,50,44.2,50,44.3c0-0.1-0.1-0.2-0.1-0.3c-2.4-4.5-4.3-12.2-4.4-15.3v-3.5h1.1v-1.2
	c0,0-1.3-2.9-0.1-7.4c0-0.9,0-12.9,0-12.9h0c0,0,0,0,0,0c0-0.9-0.7-1.6-1.6-1.6c-0.9,0-1.6,0.7-1.6,1.6c0,0,0,0,0,0h0
	c0,0,0,11.8,0,12.9c0.9,5.4-0.2,7.4-0.2,7.4l0,1.2h1v3.2c0,2.9-2,10.9-4.4,15.6c-0.1,0.2-0.2,0.3-0.2,0.5c0,1,2.4,1.8,5.3,1.8
	c2.9,0,5.3-0.8,5.3-1.8C50,44.4,50,44.3,50,44.3z M44.9,3c0.5,0,0.9,0.4,0.9,0.9c0,0.5-0.4,2.2-0.9,2.2C44.4,6,44,4.4,44,3.9
	C44,3.4,44.4,3,44.9,3z M44.7,42.6c-1.6,0-3.1,0.3-4,0.6c2-4.3,3.6-10.5,3.9-13.8h0.3c0.3,3.3,1.9,9.5,3.9,13.8
	C47.8,42.9,46.3,42.6,44.7,42.6z"/>
</svg>
