<?xml version="1.0" encoding="utf-8"?>
<!-- Generator: Adobe Illustrator 19.2.1, SVG Export Plug-In . SVG Version: 6.00 Build 0)  -->
<svg version="1.1" id="Icons" xmlns="http://www.w3.org/2000/svg" xmlns:xlink="http://www.w3.org/1999/xlink" x="0px" y="0px"
	 viewBox="0 0 50 50" style="enable-background:new 0 0 50 50;" xml:space="preserve">
<style type="text/css">
	.st0{fill:#010002;}
</style>
<circle cx="7.9" cy="7.3" r="1.2"/>
<circle cx="11.9" cy="7.3" r="1.2"/>
<circle cx="34.2" cy="7.3" r="1.2"/>
<circle cx="38.1" cy="7.3" r="1.2"/>
<circle cx="42.1" cy="7.3" r="1.2"/>
<path d="M25,40.7c6,0,10.8-4.9,10.8-10.8S31,19,25,19s-10.8,4.9-10.8,10.8C14.2,35.9,19,40.7,25,40.7z M25,21.3
	c4.8,0,8.6,3.9,8.6,8.6c0,0.1,0,0.1,0,0.2c-0.4,0.3-0.8,0.6-1.6,0.6c-0.9,0-1.4-0.4-1.8-0.8c-0.4-0.4-0.9-0.7-1.7-0.7
	s-1.3,0.4-1.7,0.7c-0.4,0.4-0.9,0.8-1.8,0.8c-0.9,0-1.4-0.4-1.8-0.8c-0.4-0.4-0.9-0.7-1.7-0.7c-0.8,0-1.3,0.4-1.7,0.7
	c-0.4,0.4-0.9,0.8-1.8,0.8c-0.8,0-1.3-0.3-1.7-0.7c0,0,0-0.1,0-0.1C16.4,25.1,20.2,21.3,25,21.3z"/>
<path d="M3.9,50h42.1V9.8H3.9V50z M25,16.6c7.3,0,13.3,6,13.3,13.3s-6,13.3-13.3,13.3c-7.3,0-13.3-6-13.3-13.3
	C11.7,22.5,17.7,16.6,25,16.6z"/>
<rect x="3.9" width="42.1" height="4.3"/>
</svg>
