<?xml version="1.0" encoding="utf-8"?>
<!-- Generator: Adobe Illustrator 19.2.1, SVG Export Plug-In . SVG Version: 6.00 Build 0)  -->
<svg version="1.1" id="Icons" xmlns="http://www.w3.org/2000/svg" xmlns:xlink="http://www.w3.org/1999/xlink" x="0px" y="0px"
	 viewBox="0 0 50 50" style="enable-background:new 0 0 50 50;" xml:space="preserve">
<style type="text/css">
	.st0{fill:#010002;}
</style>
<path d="M35.3,3V1.5c0-0.8-0.7-1.5-1.5-1.5s-1.5,0.7-1.5,1.5V3c-8.2,0.7-14.6,7.7-14.6,16.1c0,0.5,0.3,1,0.8,1.3
	c0.5,0.3,1.1,0.2,1.5-0.1c2.2-1.5,5-1.5,7.2,0c0.4,0.3,1,0.3,1.5,0.1l2.3-1.2c0.5-0.2,0.9-0.4,1.4-0.5v16.6h2.9V18.8
	c0.5,0.1,1,0.3,1.4,0.5l2.3,1.2c0.5,0.2,1.1,0.2,1.6-0.1c2.2-1.5,5-1.5,7.2,0c0.5,0.3,1,0.3,1.5,0.1c0.5-0.3,0.8-0.8,0.8-1.3
	C50,10.8,43.5,3.7,35.3,3z"/>
<path d="M45,44c1.2-0.4,2.1-1.4,2.1-2.8c0-1.6-1.3-2.9-2.9-2.9h-31L5.3,27.7c-1-1.3-2.8-1.5-4.1-0.6c-1.3,1-1.6,2.8-0.6,4.1L9.4,43
	c0.4,0.5,0.9,0.8,1.5,1l-2,3.9c-0.4,0.7-0.1,1.6,0.7,2c0.7,0.4,1.6,0.1,2-0.7l2.5-5h27.7l2.5,5c0.4,0.7,1.2,1,2,0.7
	c0.7-0.4,1-1.2,0.7-2L45,44z"/>
<path d="M25,29.5H10.3l0,0l2.2,2.9H25c0.8,0,1.5,0.7,1.5,1.5v1.5h2.9v-1.5C29.4,31.5,27.4,29.5,25,29.5z"/>
</svg>
