<?xml version="1.0" encoding="utf-8"?>
<!-- Generator: Adobe Illustrator 19.2.1, SVG Export Plug-In . SVG Version: 6.00 Build 0)  -->
<svg version="1.1" id="Icons" xmlns="http://www.w3.org/2000/svg" xmlns:xlink="http://www.w3.org/1999/xlink" x="0px" y="0px"
	 viewBox="0 0 50 50" style="enable-background:new 0 0 50 50;" xml:space="preserve">
<style type="text/css">
	.st0{fill:#010002;}
</style>
<path d="M34.2,12.5H7.5C6.1,12.5,5,13.6,5,15v16.7c0,1.4,1.1,2.5,2.5,2.5h26.7c1.4,0,2.5-1.1,2.5-2.5V15
	C36.7,13.6,35.5,12.5,34.2,12.5z M6.9,18.6l4.2-4.2c0.3-0.3,0.9-0.3,1.2,0c0.3,0.3,0.3,0.9,0,1.2l-4.2,4.2C7.9,19.9,7.7,20,7.5,20
	c-0.2,0-0.4-0.1-0.6-0.2C6.6,19.4,6.6,18.9,6.9,18.6z M9.8,22.3l-1.7,1.7c-0.2,0.2-0.4,0.2-0.6,0.2c-0.2,0-0.4-0.1-0.6-0.2
	c-0.3-0.3-0.3-0.9,0-1.2l1.7-1.7c0.3-0.3,0.9-0.3,1.2,0C10.1,21.4,10.1,21.9,9.8,22.3z M12.3,19.8l-0.8,0.8
	c-0.2,0.2-0.4,0.2-0.6,0.2c-0.2,0-0.4-0.1-0.6-0.2c-0.3-0.3-0.3-0.9,0-1.2l0.8-0.8c0.3-0.3,0.9-0.3,1.2,0
	C12.6,18.9,12.6,19.4,12.3,19.8z M16.4,15.6l-2.5,2.5c-0.2,0.2-0.4,0.2-0.6,0.2c-0.2,0-0.4-0.1-0.6-0.2c-0.3-0.3-0.3-0.9,0-1.2
	l2.5-2.5c0.3-0.3,0.9-0.3,1.2,0C16.7,14.7,16.7,15.3,16.4,15.6z M33.3,28.3c0.5,0,0.8,0.4,0.8,0.8c0,0.5-0.4,0.8-0.8,0.8H30
	c-0.5,0-0.8-0.4-0.8-0.8V17.5c0-0.5,0.4-0.8,0.8-0.8h3.3c0.5,0,0.8,0.4,0.8,0.8s-0.4,0.8-0.8,0.8h-2.5v10H33.3z"/>
<circle cx="43.3" cy="14.2" r="1.7"/>
<path d="M47.5,39.2c1.4,0,2.5-1.1,2.5-2.5V10c0-1.4-1.1-2.5-2.5-2.5h-45C1.1,7.5,0,8.6,0,10v26.7c0,1.4,1.1,2.5,2.5,2.5h0.8v1.7H0.8
	c-0.5,0-0.8,0.4-0.8,0.8s0.4,0.8,0.8,0.8H5h4.2h31.7H45h4.2c0.5,0,0.8-0.4,0.8-0.8s-0.4-0.8-0.8-0.8h-2.5v-1.7H47.5z M43.3,10.8
	c1.8,0,3.3,1.5,3.3,3.3s-1.5,3.3-3.3,3.3S40,16,40,14.2S41.5,10.8,43.3,10.8z M45,24.2c-0.5,0-0.8-0.4-0.8-0.8v-0.8
	c0-0.5,0.4-0.8,0.8-0.8c0.5,0,0.8,0.4,0.8,0.8v0.8C45.8,23.8,45.5,24.2,45,24.2z M45.8,25.8v0.8c0,0.5-0.4,0.8-0.8,0.8
	c-0.5,0-0.8-0.4-0.8-0.8v-0.8c0-0.5,0.4-0.8,0.8-0.8C45.5,25,45.8,25.4,45.8,25.8z M45,20.8c-0.5,0-0.8-0.4-0.8-0.8v-0.8
	c0-0.5,0.4-0.8,0.8-0.8c0.5,0,0.8,0.4,0.8,0.8V20C45.8,20.5,45.5,20.8,45,20.8z M41.7,24.2c-0.5,0-0.8-0.4-0.8-0.8v-0.8
	c0-0.5,0.4-0.8,0.8-0.8s0.8,0.4,0.8,0.8v0.8C42.5,23.8,42.1,24.2,41.7,24.2z M42.5,25.8v0.8c0,0.5-0.4,0.8-0.8,0.8s-0.8-0.4-0.8-0.8
	v-0.8c0-0.5,0.4-0.8,0.8-0.8S42.5,25.4,42.5,25.8z M41.7,20.8c-0.5,0-0.8-0.4-0.8-0.8v-0.8c0-0.5,0.4-0.8,0.8-0.8s0.8,0.4,0.8,0.8
	V20C42.5,20.5,42.1,20.8,41.7,20.8z M3.3,31.7V15c0-2.3,1.9-4.2,4.2-4.2h26.7c2.3,0,4.2,1.9,4.2,4.2v16.7c0,2.3-1.9,4.2-4.2,4.2H7.5
	C5.2,35.8,3.3,34,3.3,31.7z M5,40.8v-1.7h4.2l0,1.7H5z M39.2,40.8H10.8v-1.7h28.3L39.2,40.8L39.2,40.8z M45,40.8h-4.2v-1.7H45V40.8z
	 M43.3,35.8c-1.8,0-3.3-1.5-3.3-3.3c0-1.8,1.5-3.3,3.3-3.3c1.8,0,3.3,1.5,3.3,3.3C46.7,34.3,45.2,35.8,43.3,35.8z"/>
<circle cx="43.3" cy="32.5" r="1.7"/>
</svg>
