<?xml version="1.0" encoding="utf-8"?>
<!-- Generator: Adobe Illustrator 19.2.1, SVG Export Plug-In . SVG Version: 6.00 Build 0)  -->
<svg version="1.1" id="Icons" xmlns="http://www.w3.org/2000/svg" xmlns:xlink="http://www.w3.org/1999/xlink" x="0px" y="0px"
	 viewBox="0 0 50 50" style="enable-background:new 0 0 50 50;" xml:space="preserve">
<style type="text/css">
	.st0{fill:#010002;}
</style>
<path d="M45.1,2.7h-2c0.2-0.3,0.2-0.6,0.2-0.9s-0.1-0.6-0.2-0.9C42.7,0.4,42.2,0,41.5,0H29.9c-0.7,0-1.2,0.4-1.5,0.9
	c-0.2,0.3-0.2,0.6-0.2,0.9s0.1,0.6,0.2,0.9h-6.7c0.2-0.3,0.2-0.6,0.2-0.9s-0.1-0.6-0.2-0.9C21.3,0.4,20.7,0,20.1,0H8.5
	C7.8,0,7.3,0.4,6.9,0.9C6.8,1.2,6.7,1.5,6.7,1.8s0.1,0.6,0.2,0.9h-2c-1.5,0-2.7,1.2-2.7,2.7v6.3h45.5V5.4
	C47.8,3.9,46.6,2.7,45.1,2.7z M10.7,9.3c-1,0-1.8-0.8-1.8-1.8s0.8-1.8,1.8-1.8s1.8,0.8,1.8,1.8S11.7,9.3,10.7,9.3z M17.4,9.3
	c-1,0-1.8-0.8-1.8-1.8s0.8-1.8,1.8-1.8c1,0,1.8,0.8,1.8,1.8S18.4,9.3,17.4,9.3z M25,9.3c-1,0-1.8-0.8-1.8-1.8S24,5.7,25,5.7
	s1.8,0.8,1.8,1.8S26,9.3,25,9.3z M32.1,9.3c-1,0-1.8-0.8-1.8-1.8s0.8-1.8,1.8-1.8c1,0,1.8,0.8,1.8,1.8S33.1,9.3,32.1,9.3z M39.3,9.3
	c-1,0-1.8-0.8-1.8-1.8s0.8-1.8,1.8-1.8c1,0,1.8,0.8,1.8,1.8S40.3,9.3,39.3,9.3z"/>
<path d="M2.2,47.3c0,1.5,1.2,2.7,2.7,2.7h40.2c1.5,0,2.7-1.2,2.7-2.7V13.4H2.2V47.3z M9.4,16.1h30.4c0.5,0,0.9,0.4,0.9,0.9
	c0,0.5-0.4,0.9-0.9,0.9H9.4c-0.5,0-0.9-0.4-0.9-0.9C8.5,16.5,8.9,16.1,9.4,16.1z M7.6,23.2c0-1.5,1.2-2.7,2.7-2.7h29.5
	c1.5,0,2.7,1.2,2.7,2.7V42c0,1.5-1.2,2.7-2.7,2.7H10.3c-1.5,0-2.7-1.2-2.7-2.7L7.6,23.2z"/>
<polygon points="18.9,22.3 9.4,29 9.4,32.1 23.4,22.3 "/>
<polygon points="39.7,42.9 40.6,42.9 40.6,42 40.6,23.2 40.6,22.3 39.7,22.3 27.3,22.3 9.4,34.9 9.4,42 9.4,42.9 10.3,42.9 "/>
</svg>
