<?xml version="1.0" encoding="utf-8"?>
<!-- Generator: Adobe Illustrator 19.2.1, SVG Export Plug-In . SVG Version: 6.00 Build 0)  -->
<svg version="1.1" id="Icons" xmlns="http://www.w3.org/2000/svg" xmlns:xlink="http://www.w3.org/1999/xlink" x="0px" y="0px"
	 viewBox="0 0 50 50" style="enable-background:new 0 0 50 50;" xml:space="preserve">
<style type="text/css">
	.st0{fill:#010002;}
</style>
<path d="M49.6,38.2c-7.2-2.8-14.5-4.5-21.8-4.9C27.3,25.8,27,19.6,27,18.5c2.8,0.1,5.1,1.3,6.9,3.7c1.6,2.1,2.2,4.4,2.2,4.5
	c0.1,0.2,0.2,0.4,0.5,0.5c0,0,0.1,0,0.1,0c0.2,0,0.4-0.1,0.5-0.3c1.2-1.7,1.8-3.7,1.5-5.8c-0.3-2.1-1.4-3.9-3.1-5.1
	c-1-0.7-2.2-1.2-3.4-1.4c1.7-0.2,3.5-0.1,5.3,0.4c3.4,1,5.8,3,5.9,3c0.2,0.2,0.4,0.2,0.7,0.1c0.2-0.1,0.4-0.3,0.4-0.6
	c0-5.5-4.5-10-10-10c-2,0-3.9,0.6-5.4,1.6c1.5-1.7,3.5-2.8,5.9-3.3c3.1-0.7,5.9-0.1,5.9-0.1c0.2,0.1,0.5,0,0.6-0.2
	c0.1-0.2,0.2-0.5,0.1-0.7c-2.4-4.4-7.9-6.1-12.3-3.8c-2,1-3.4,2.7-4.2,4.8c-0.8-2-2.2-3.7-4.2-4.8c-4.4-2.4-10-0.7-12.3,3.8
	C8.3,5,8.3,5.3,8.5,5.5c0.1,0.2,0.4,0.3,0.6,0.2c0,0,2.8-0.6,5.9,0.1c2.5,0.5,4.4,1.6,5.9,3.3c-1.6-1-3.4-1.6-5.4-1.6
	c-5.5,0-10,4.5-10,10c0,0.2,0.1,0.5,0.4,0.6c0.2,0.1,0.5,0.1,0.7-0.1c0,0,2.4-2,5.8-3c1.9-0.5,3.7-0.7,5.4-0.4
	c-1.2,0.2-2.3,0.7-3.3,1.4c-1.7,1.2-2.8,3.1-3.1,5.1c-0.3,2.1,0.2,4.1,1.5,5.8c0.1,0.2,0.3,0.3,0.5,0.3c0,0,0.1,0,0.1,0
	c0.2-0.1,0.4-0.2,0.5-0.5c0,0,0.6-2.3,2.2-4.5c1.7-2.3,4-3.5,6.6-3.7c-0.1,1.1-0.3,7.3-0.8,14.8C8.9,33.7,0.7,38,0.3,38.2
	c-0.3,0.2-0.4,0.5-0.3,0.8c0.1,0.2,0.3,0.3,0.6,0.3c0.1,0,0.2,0,0.3-0.1C1,39.3,9.2,35,22,34.5c-0.3,4.8-0.7,10-1.1,14.8
	c0,0.2,0,0.3,0.2,0.5c0.1,0.1,0.3,0.2,0.5,0.2h6.9c0.2,0,0.3-0.1,0.5-0.2c0.1-0.1,0.2-0.3,0.2-0.5c-0.4-4.7-0.8-10-1.1-14.7
	c7.1,0.4,14.3,2,21.3,4.8c0.1,0,0.2,0,0.2,0c0.2,0,0.5-0.2,0.6-0.4C50.1,38.7,49.9,38.3,49.6,38.2z M34.8,16.9
	c1.4,1,2.3,2.6,2.6,4.3c0.2,1.3,0,2.6-0.6,3.7c-1-2.5-3.8-7.7-10.2-7.8c0.9-0.8,2.1-1.3,3.3-1.5C31.7,15.5,33.4,15.9,34.8,16.9z
	 M26.4,31c0.1,1.6,0.2,3.2,0.3,4.9h-3.5c0.1-1.7,0.2-3.3,0.3-4.9L26.4,31L26.4,31z M23.6,29.8c0.1-1.8,0.2-3.4,0.3-4.9H26
	c0.1,1.5,0.2,3.1,0.3,4.9H23.6z M34.4,8.7c4.4,0,8.1,3.3,8.7,7.5c-1.7-1.1-5.2-3-9.3-3c-2.5,0-5.3,0.7-8.1,2.9
	C26.4,11.9,30,8.7,34.4,8.7z M25.9,6.8c0.6-2,2-3.7,3.8-4.6c1.2-0.6,2.4-0.9,3.7-0.9c2.4,0,4.7,1.1,6.2,3.1
	C36.6,4,29.2,4.2,25.9,11.4C25.5,9.9,25.4,8.3,25.9,6.8z M25.1,18.5c0,0,0.1,0,0.2,0c0.2,0,0.3,0,0.5,0c0,0.5,0.1,2.4,0.3,5.2h-2.1
	c0.2-2.8,0.2-4.7,0.3-5.2c0.2,0,0.5,0,0.7,0.1C25,18.5,25,18.5,25.1,18.5z M11.8,4.3c-0.6,0-1.2,0-1.6,0.1c2.3-3,6.5-4,9.9-2.2
	c3.4,1.8,4.9,5.7,3.8,9.3C21.1,5.3,15.4,4.3,11.8,4.3z M6.9,16.2c0.6-4.2,4.3-7.4,8.6-7.4c4.3,0,7.9,3.1,8.6,7.3
	C17.1,10.5,9.7,14.4,6.9,16.2z M13.3,25c-0.5-1.2-0.7-2.4-0.6-3.7c0.3-1.7,1.2-3.3,2.6-4.3c1.1-0.8,2.5-1.3,3.9-1.3
	c0.3,0,0.6,0,1,0.1c1.2,0.2,2.4,0.7,3.3,1.5C17.1,17.3,14.3,22.4,13.3,25z M23.1,37.2h3.7c0.1,1.6,0.2,3.3,0.4,4.9h-4.4
	C22.9,40.4,23,38.8,23.1,37.2z M22.2,48.7c0.2-1.8,0.3-3.6,0.5-5.4h4.6c0.1,1.8,0.3,3.7,0.5,5.4H22.2z"/>
</svg>
