<?xml version="1.0" encoding="utf-8"?>
<!-- Generator: Adobe Illustrator 19.2.1, SVG Export Plug-In . SVG Version: 6.00 Build 0)  -->
<svg version="1.1" id="Icons" xmlns="http://www.w3.org/2000/svg" xmlns:xlink="http://www.w3.org/1999/xlink" x="0px" y="0px"
	 viewBox="0 0 50 50" style="enable-background:new 0 0 50 50;" xml:space="preserve">
<style type="text/css">
	.st0{fill:#010002;}
</style>
<path d="M33,41.9l-0.6-0.6l0,0c0.8-5.1,0.8-10.3,0-15.4l0.6-0.6c0.9-0.9,0.9-2.2,0.1-3.1c-0.9-0.9-2.3-0.9-3.2,0l-0.6,0.6l-2.6-0.6
	c-3.3-0.8-6.6-1.2-9.9-1.2c-3.3,0-6.7,0.4-9.9,1.2l-2.6,0.6l-0.6-0.6c-0.9-0.9-2.3-0.9-3.2,0c-0.8,0.9-0.8,2.3,0.1,3.1L1,25.9
	c-0.8,5.1-0.8,10.3,0,15.4l0,0l-0.6,0.6c-0.9,0.9-0.9,2.3,0,3.2c0.9,0.8,2.3,0.8,3.1-0.1l0.6-0.6L6.8,45c3.3,0.8,6.6,1.2,9.9,1.2
	c3.3,0,6.7-0.4,9.9-1.2l2.6-0.6l0.6,0.6c0.9,0.9,2.2,0.9,3.1,0.1C33.9,44.2,33.9,42.7,33,41.9z"/>
<path d="M49.1,29.2l-0.6-0.6l0,0c0.8-5.1,0.8-10.3,0-15.4l0.6-0.6c0.9-0.9,0.9-2.2,0.1-3.1c-0.9-0.9-2.3-0.9-3.2,0l-0.6,0.6
	l-2.6-0.6c-3.3-0.8-6.6-1.2-9.9-1.2c-3.3,0-6.7,0.4-9.9,1.2l-2.6,0.6l-0.6-0.6c-0.9-0.9-2.3-0.9-3.2,0c-0.8,0.9-0.8,2.3,0.1,3.1
	l0.6,0.6c-0.3,1.6-0.4,3.2-0.5,4.7c0,0,0.1,0,0.1,0h0h0c3.6,0,7.2,0.4,10.6,1.3l1.1,0.3c0.9-0.6,1.9-1,3-1c1.4,0,2.8,0.6,3.7,1.6
	c0.9,1,1.4,2.3,1.4,3.7c0,1.1-0.4,2.2-1.1,3c0.3,2.2,0.4,4.4,0.4,6.6c2.3-0.2,4.6-0.5,6.8-1.1l2.6-0.6l0.6,0.6
	c0.9,0.9,2.2,0.9,3.1,0.1C50,31.5,50,30.1,49.1,29.2z"/>
</svg>
