<?xml version="1.0" encoding="utf-8"?>
<!-- Generator: Adobe Illustrator 19.2.1, SVG Export Plug-In . SVG Version: 6.00 Build 0)  -->
<svg version="1.1" id="Icons" xmlns="http://www.w3.org/2000/svg" xmlns:xlink="http://www.w3.org/1999/xlink" x="0px" y="0px"
	 viewBox="0 0 50 50" style="enable-background:new 0 0 50 50;" xml:space="preserve">
<style type="text/css">
	.st0{fill:#010002;}
</style>
<path d="M22.6,8.7c-8.9,0.8-16,6-16.9,12.5c-0.9,1.7-1.4,3.5-1.4,5.4c0,5.2,11.2,7.1,20.7,7.1c9.5,0,20.7-1.9,20.7-7.1
	c0-1.9-0.5-3.7-1.4-5.4c-1-6.5-7.9-11.6-16.8-12.4C27.7,6,28.6,3.5,30,1.3C28.4,0.4,26.7,0,25,0C23.6,2.6,22.7,5.6,22.6,8.7z
	 M43.1,25c0.1,0.5,0.1,1,0.1,1.6c0,2.2-7.3,4.6-18.2,4.6c-10.9,0-18.2-2.4-18.2-4.6c0-0.5,0.1-1.1,0.2-1.6C13,29.7,37,29.7,43.1,25z
	"/>
<path d="M8.1,40.6c0,1.4,0.8,2.6,1.8,2.6c1,0,1.8-1.2,1.8-2.6c0-1.4-1.8-4.2-1.8-4.2S8.1,39.2,8.1,40.6z"/>
<path d="M23.2,40.6c0,1.4,0.8,2.6,1.8,2.6c1,0,1.8-1.2,1.8-2.6c0-1.4-1.8-4.2-1.8-4.2S23.2,39.2,23.2,40.6z"/>
<path d="M38.3,40.6c0,1.4,0.8,2.6,1.8,2.6c1,0,1.8-1.2,1.8-2.6c0-1.4-1.8-4.2-1.8-4.2S38.3,39.2,38.3,40.6z"/>
<path d="M15.6,47.4c0,1.4,0.8,2.6,1.8,2.6c1,0,1.8-1.2,1.8-2.6c0-1.4-1.8-4.2-1.8-4.2S15.6,46,15.6,47.4z"/>
<path d="M30.8,47.4c0,1.4,0.8,2.6,1.8,2.6c1,0,1.8-1.2,1.8-2.6c0-1.4-1.8-4.2-1.8-4.2S30.8,46,30.8,47.4z"/>
</svg>
