<?xml version="1.0" encoding="utf-8"?>
<!-- Generator: Adobe Illustrator 19.2.1, SVG Export Plug-In . SVG Version: 6.00 Build 0)  -->
<svg version="1.1" id="Icons" xmlns="http://www.w3.org/2000/svg" xmlns:xlink="http://www.w3.org/1999/xlink" x="0px" y="0px"
	 viewBox="0 0 50 50" style="enable-background:new 0 0 50 50;" xml:space="preserve">
<style type="text/css">
	.st0{fill:#010002;}
</style>
<polygon points="38.9,15.3 21.8,15.3 21.8,16.8 37.8,16.8 44.6,37.2 5.4,37.2 12.2,16.8 13.3,16.8 13.3,15.3 11.1,15.3 3.8,37 
	3.8,38.7 46.2,38.7 46.2,37 "/>
<path d="M16,7.4c-1.1,0-1.9,0.9-1.9,1.9v8.2h1.5V9.4C15.6,9.1,15.8,9,16,9c0.2,0,0.4,0.2,0.4,0.4v2h1.5v-2C17.9,8.3,17.1,7.4,16,7.4
	z"/>
<path d="M21.5,7.4c-1.1,0-1.9,0.9-1.9,1.9v8.2h1.5V9.4c0-0.2,0.2-0.4,0.4-0.4s0.4,0.2,0.4,0.4v2h1.5v-2C23.4,8.3,22.5,7.4,21.5,7.4z
	"/>
<rect x="16.4" y="12.1" width="2.4" height="1.5"/>
<rect x="16.4" y="15.3" width="2.4" height="1.5"/>
<polygon points="41.2,12.1 21.8,12.1 21.8,13.6 40.1,13.6 48.5,38.1 48.5,41 1.5,41 1.5,38.1 9.9,13.6 13.3,13.6 13.3,12.1 
	8.8,12.1 0,37.7 -0.1,37.8 -0.1,42.6 50.1,42.6 50.1,37.8 "/>
<rect x="13.3" y="20" width="7.8" height="1.5"/>
<rect x="21.1" y="22.3" width="3.1" height="1.5"/>
<rect x="14.9" y="26.9" width="3.1" height="1.5"/>
<rect x="17.9" y="31.7" width="13.3" height="1.5"/>
<rect x="31.2" y="33.3" width="4.7" height="1.5"/>
<rect x="10.1" y="34.1" width="3.3" height="1.5"/>
<rect x="9.2" y="30.2" width="3.2" height="1.5"/>
<rect x="30.4" y="19.1" width="3.2" height="1.5"/>
<rect x="33.6" y="21.5" width="2.4" height="1.5"/>
<rect x="33.6" y="25.4" width="2.4" height="1.5"/>
<rect x="36.7" y="27.7" width="3.3" height="1.5"/>
<rect x="-0.1" y="9" width="13.4" height="1.5"/>
<rect x="24.2" y="9" width="25.9" height="1.5"/>
</svg>
