<?xml version="1.0" encoding="utf-8"?>
<!-- Generator: Adobe Illustrator 19.2.1, SVG Export Plug-In . SVG Version: 6.00 Build 0)  -->
<svg version="1.1" id="Icons" xmlns="http://www.w3.org/2000/svg" xmlns:xlink="http://www.w3.org/1999/xlink" x="0px" y="0px"
	 viewBox="0 0 50 50" style="enable-background:new 0 0 50 50;" xml:space="preserve">
<style type="text/css">
	.st0{fill:#010002;}
</style>
<path d="M41.1,41c-1,0-1.9,0.4-2.6,1.1c-1.4,1.4-1.4,3.8,0,5.3c0.7,0.7,1.6,1.1,2.6,1.1s1.9-0.4,2.6-1.1c1.4-1.4,1.4-3.8,0-5.3
	C43,41.4,42.1,41,41.1,41z M41.1,47c-0.2,0-0.4-0.2-0.4-0.4c0-0.2,0.2-0.4,0.4-0.4c0.8,0,1.5-0.7,1.5-1.5c0-0.2,0.2-0.4,0.4-0.4
	c0.2,0,0.4,0.2,0.4,0.4C43.3,46,42.3,47,41.1,47z"/>
<path d="M10,36.8c1.1,0.1,2.1,0.5,2.8,1.1c1.4,1.3,2,2.9,2.1,5c0,0.8,0.1,1.8,0.2,2.9l0.2,1.2c0.1,0.5,0.4,0.9,0.8,1.2
	c0.4,0.3,0.9,0.3,1.4,0.2l4.2-1.2c0.4-0.1,0.8-0.4,1-0.8c0.3-0.5,0.3-1.1,0.1-1.6l-0.7-1.5c-0.3-0.7-0.7-1.5-1.2-2.3
	c-1.1-1.8-1.4-3.5-1-5.2c0.2-0.9,0.8-1.8,1.7-2.4c1.3-1,2.3-2.2,3.1-3.5c0.1-0.2,0.2-0.4,0.3-0.6L4.6,35C6.2,36,8,36.6,10,36.8z"/>
<path d="M24.2,21.3c-2-7.1-9.1-11.6-15.6-9.7s-10.1,9.6-8,16.7c0.6,2.2,1.6,3.6,3.3,6.2l20.8-6C24.8,25.4,24.8,23.5,24.2,21.3z"/>
<path d="M29.3,24.2c0.9,0.6,1.5,1.5,1.8,2.4c0.5,1.8,0.3,3.5-0.8,5.4c-0.4,0.7-0.9,1.6-1.3,2.6l-0.5,1.1c-0.2,0.5-0.2,1,0,1.4
	c0.2,0.4,0.6,0.8,1.1,0.9l4.2,1.1c0.4,0.1,0.9,0.1,1.3-0.2c0.5-0.3,0.8-0.8,0.9-1.3l0.2-1.6c0.1-0.8,0.1-1.7,0.1-2.6
	c0-2.1,0.6-3.7,1.8-5c0.7-0.7,1.6-1.1,2.7-1.2c1.6-0.2,3.1-0.7,4.5-1.5c0.2-0.1,0.4-0.2,0.5-0.3L25.6,20
	C26.5,21.6,27.7,23.1,29.3,24.2z"/>
<path d="M49.5,18.3c1.9-7.1-1.8-14.6-8.4-16.4S27.6,5,25.7,12.1c-0.6,2.2-0.5,3.9-0.3,7l20.9,5.6C47.9,22.1,48.9,20.5,49.5,18.3z"/>
</svg>
