<?xml version="1.0" encoding="utf-8"?>
<!-- Generator: Adobe Illustrator 19.2.1, SVG Export Plug-In . SVG Version: 6.00 Build 0)  -->
<svg version="1.1" id="Icons" xmlns="http://www.w3.org/2000/svg" xmlns:xlink="http://www.w3.org/1999/xlink" x="0px" y="0px"
	 viewBox="0 0 50 50" style="enable-background:new 0 0 50 50;" xml:space="preserve">
<style type="text/css">
	.st0{fill:#010002;}
</style>
<path d="M24.7,2.9C4.6,1.3,0,10.9,0,15.6c0,4.7,0,24.9,0,24.9s20.5,4.6,28.5,6.3c8,1.7,21.4-1.1,21.5-6.2c0-5.6,0-26,0-27.7
	S44.9,4.5,24.7,2.9z M19.8,6.1l23.2,5.1l-5,1.5L14.4,7.2L19.8,6.1z M31.3,15.2L7.7,9.8l5.4-1.2l23.2,5.1L31.3,15.2z M38.2,42
	c-0.6,0-1.1-0.5-1.1-1.1c0-0.6,0.5-1.1,1.1-1.1c0.6,0,1.1,0.5,1.1,1.1C39.3,41.5,38.8,42,38.2,42z M40.9,41.2
	c-0.6,0-1.1-0.5-1.1-1.1c0-0.6,0.5-1.1,1.1-1.1c0.6,0,1.1,0.5,1.1,1.1C42,40.7,41.5,41.2,40.9,41.2z M46.9,23.6l-2.6,1.8l0.3,13.8
	c0,0.5-0.4,0.9-0.8,0.9c0,0,0,0,0,0c-0.5,0-0.9-0.4-0.9-0.9l-0.3-12.7l-1.6,1.1c-0.3,0.2-0.6,0.3-1,0.3c-0.6,0-1.1-0.3-1.4-0.8
	c-0.5-0.8-0.3-1.9,0.5-2.4l6-4.1c0.8-0.5,1.9-0.3,2.4,0.5C47.9,22,47.7,23.1,46.9,23.6z"/>
</svg>
