<?xml version="1.0" encoding="utf-8"?>
<!-- Generator: Adobe Illustrator 19.2.1, SVG Export Plug-In . SVG Version: 6.00 Build 0)  -->
<svg version="1.1" id="Icons" xmlns="http://www.w3.org/2000/svg" xmlns:xlink="http://www.w3.org/1999/xlink" x="0px" y="0px"
	 viewBox="0 0 50 50" style="enable-background:new 0 0 50 50;" xml:space="preserve">
<style type="text/css">
	.st0{fill:#010002;}
</style>
<path d="M39.7,20.7H10.3c-1.8,0-3.3,1.5-3.3,3.3s1.5,3.3,3.3,3.3h29.3c1.8,0,3.3-1.5,3.3-3.3S41.5,20.7,39.7,20.7z"/>
<path d="M10.4,30.4c0.8,7.3,7,13,14.6,13s13.8-5.7,14.6-13H10.4z"/>
<path d="M36.3,47.7l-1.6-3.9c-2.8,1.8-6.1,2.9-9.7,2.9s-6.9-1-9.7-2.9l-1.6,3.9c-0.2,0.5-0.2,1.1,0.2,1.5c0.3,0.5,0.8,0.7,1.4,0.7
	h19.6c0.5,0,1.1-0.3,1.4-0.7C36.4,48.8,36.5,48.2,36.3,47.7z"/>
<path d="M38,0H12c-0.9,0-1.6,0.7-1.6,1.6v15.8h29.3V1.6C39.7,0.7,38.9,0,38,0z M31.5,9.8h-3.3c-0.9,0-1.6-0.7-1.6-1.6
	s0.7-1.6,1.6-1.6h3.3c0.9,0,1.6,0.7,1.6,1.6S32.4,9.8,31.5,9.8z"/>
</svg>
