<?xml version="1.0" encoding="utf-8"?>
<!-- Generator: Adobe Illustrator 19.2.1, SVG Export Plug-In . SVG Version: 6.00 Build 0)  -->
<svg version="1.1" id="Icons" xmlns="http://www.w3.org/2000/svg" xmlns:xlink="http://www.w3.org/1999/xlink" x="0px" y="0px"
	 viewBox="0 0 50 50" style="enable-background:new 0 0 50 50;" xml:space="preserve">
<style type="text/css">
	.st0{fill:#010002;}
</style>
<path d="M46.3,6H3.7C1.7,6,0,7.7,0,9.8v0.3v24.3v0.4c0,2.1,1.7,3.7,3.7,3.7H20v1.7h-2.9c-1.6,0-2.9,1.3-2.9,2.9
	c0,0.5,0.4,0.8,0.8,0.8s0.8-0.4,0.8-0.8c0-0.7,0.6-1.2,1.3-1.2H20h10h2.9c0.7,0,1.2,0.6,1.2,1.2c0,0.5,0.4,0.8,0.8,0.8
	s0.8-0.4,0.8-0.8c0-1.6-1.3-2.9-2.9-2.9H30v-1.7h16.3c2.1,0,3.7-1.7,3.7-3.7v-0.4V10.1V9.8C50,7.7,48.3,6,46.3,6z M28.3,40.2h-6.7
	v-1.7h6.7V40.2z M46.3,36.9H30H20H3.7c-0.7,0-1.3-0.3-1.7-0.8h45.8C47.5,36.5,46.9,36.9,46.3,36.9z M12.3,13.3l-2.5,2.5
	C9.6,16,9.4,16,9.2,16C9,16,8.7,16,8.6,15.8c-0.3-0.3-0.3-0.9,0-1.2l2.5-2.5c0.3-0.3,0.9-0.3,1.2,0C12.6,12.4,12.6,13,12.3,13.3z
	 M12.7,14.6c0.3-0.3,0.9-0.3,1.2,0c0.2,0.2,0.2,0.4,0.2,0.6c0,0.2-0.1,0.4-0.2,0.6c-0.2,0.1-0.4,0.2-0.6,0.2c-0.2,0-0.4-0.1-0.6-0.2
	c-0.2-0.2-0.2-0.4-0.2-0.6S12.6,14.8,12.7,14.6z M8.1,13.3l-3.3,3.3c-0.2,0.2-0.4,0.2-0.6,0.2c-0.2,0-0.4-0.1-0.6-0.2
	c-0.3-0.3-0.3-0.9,0-1.2l3.3-3.3c0.3-0.3,0.9-0.3,1.2,0C8.4,12.4,8.4,13,8.1,13.3z M8.3,16.9c0,0.2-0.1,0.4-0.2,0.6
	c-0.2,0.1-0.4,0.2-0.6,0.2s-0.4-0.1-0.6-0.2c-0.2-0.2-0.2-0.4-0.2-0.6c0-0.2,0.1-0.4,0.2-0.6c0.3-0.3,0.9-0.3,1.2,0
	C8.2,16.4,8.3,16.7,8.3,16.9z M3.6,19.6L5.2,18c0.3-0.3,0.9-0.3,1.2,0c0.3,0.3,0.3,0.9,0,1.2l-1.7,1.7C4.6,21,4.4,21,4.2,21
	C4,21,3.7,21,3.6,20.8C3.3,20.5,3.3,19.9,3.6,19.6z M3.6,23.8l7.5-7.5c0.3-0.3,0.9-0.3,1.2,0c0.3,0.3,0.3,0.9,0,1.2L4.8,25
	c-0.2,0.2-0.4,0.2-0.6,0.2c-0.2,0-0.4-0.1-0.6-0.2C3.3,24.6,3.3,24.1,3.6,23.8z M14.4,13l0.8-0.8c0.3-0.3,0.9-0.3,1.2,0
	s0.3,0.9,0,1.2l-0.8,0.8c-0.2,0.2-0.4,0.2-0.6,0.2s-0.4-0.1-0.6-0.2C14.1,13.8,14.1,13.3,14.4,13z M2.1,8.5c0.4-0.5,1-0.8,1.7-0.8
	h42.5c0.7,0,1.3,0.3,1.7,0.8H2.1z"/>
</svg>
