<?xml version="1.0" encoding="utf-8"?>
<!-- Generator: Adobe Illustrator 19.2.1, SVG Export Plug-In . SVG Version: 6.00 Build 0)  -->
<svg version="1.1" id="Icons" xmlns="http://www.w3.org/2000/svg" xmlns:xlink="http://www.w3.org/1999/xlink" x="0px" y="0px"
	 viewBox="0 0 50 50" style="enable-background:new 0 0 50 50;" xml:space="preserve">
<style type="text/css">
	.st0{fill:#010002;}
</style>
<path d="M25,32.2c-1,0-2.1,0.2-3,0.7c-0.6,0.3-0.8,1-0.5,1.6c0.3,0.6,1,0.8,1.6,0.5c0.6-0.3,1.3-0.5,2-0.5c2.4,0,4.3,1.9,4.3,4.3
	c0,2.4-1.9,4.3-4.3,4.3c-2.4,0-4.3-1.9-4.3-4.3c0-0.5,0.1-1,0.2-1.4c0.2-0.6-0.1-1.3-0.7-1.5c-0.6-0.2-1.3,0.1-1.5,0.7
	c-0.3,0.7-0.4,1.5-0.4,2.2c0,3.6,3,6.6,6.6,6.6c3.6,0,6.6-3,6.6-6.6C31.6,35.2,28.6,32.2,25,32.2z"/>
<path d="M31.9,28.6c-4.3-2.3-9.6-2.3-13.9,0c-0.6,0.3-0.8,1-0.5,1.6c0.3,0.6,1,0.8,1.6,0.5c3.6-2,8.1-2,11.7,0
	c0.2,0.1,0.4,0.1,0.6,0.1c0.4,0,0.8-0.2,1-0.6C32.7,29.6,32.5,28.9,31.9,28.6z"/>
<path d="M12,23.7c-0.5,0.4-0.6,1.1-0.2,1.6c0.4,0.5,1.1,0.6,1.6,0.2c6.8-5.1,16.4-5.1,23.2,0c0.2,0.2,0.4,0.2,0.7,0.2
	c0.4,0,0.7-0.2,0.9-0.5c0.4-0.5,0.3-1.2-0.2-1.6C30.3,18.1,19.7,18.1,12,23.7z"/>
<path d="M6.2,18.9C5.7,19.3,5.6,20,6,20.5c0.4,0.5,1.1,0.6,1.6,0.1c10-8.4,24.6-8.4,34.7,0c0.2,0.2,0.5,0.3,0.7,0.3
	c0.3,0,0.7-0.1,0.9-0.4c0.4-0.5,0.3-1.2-0.1-1.6C32.9,9.7,17.1,9.7,6.2,18.9z"/>
<path d="M49.6,14.1c-14-12.7-35.2-12.7-49.2,0c-0.5,0.4-0.5,1.2-0.1,1.6c0.2,0.3,0.5,0.4,0.9,0.4c0.3,0,0.6-0.1,0.8-0.3
	c13.1-11.9,33-11.9,46.1,0c0.5,0.4,1.2,0.4,1.6-0.1C50.1,15.2,50.1,14.5,49.6,14.1z"/>
</svg>
