<!-- Generated by IcoMoon.io -->
<svg version="1.1" xmlns="http://www.w3.org/2000/svg" width="32" height="32" viewBox="0 0 32 32">
<title>cloudy-strong</title>
<path d="M26.688 15.040c-0.704-4.096-4.224-7.168-8.448-7.296-1.088-1.92-3.136-3.136-5.376-3.136-2.624 0-4.992 1.664-5.824 4.16-1.28-0.128-2.56 0.512-3.328 1.6-2.112 0.192-3.712 1.92-3.712 4.096 0 1.28 0.576 2.496 1.6 3.264-0.96 1.024-1.6 2.432-1.6 3.968 0 3.136 2.56 5.696 5.696 5.696h20.16c3.392 0 6.208-2.752 6.208-6.208-0.064-3.072-2.368-5.696-5.376-6.144zM1.024 14.464c0-1.664 1.344-3.072 3.008-3.072h0.32l0.128-0.32c0.576-0.96 1.664-1.472 2.816-1.216l0.512 0.128 0.128-0.512c0.576-2.24 2.624-3.84 4.992-3.84 1.664 0 3.2 0.832 4.16 2.112-3.456 0.384-6.336 2.816-7.36 6.144-0.128 0-0.256 0-0.384 0-1.536 0-3.008 0.768-3.84 2.048-1.088 0.064-2.176 0.448-3.008 1.024-0.96-0.512-1.472-1.472-1.472-2.496zM25.792 26.304h-20.096c-2.56 0-4.672-2.112-4.672-4.672s2.112-4.672 4.608-4.672h0.384l0.128-0.256c0.64-1.088 1.856-1.792 3.136-1.792 0.192 0 0.448 0 0.704 0.064l0.448 0.064 0.128-0.448c0.832-3.456 3.968-5.888 7.488-5.888 3.904 0 7.232 2.944 7.68 6.784l0.064 0.32c0 0.192 0 0.448 0 0.64 0 4.288-3.456 7.744-7.744 7.744v1.024c4.864 0 8.768-3.904 8.768-8.768 0-0.128 0-0.256 0-0.384 2.368 0.448 4.16 2.56 4.16 5.056 0 2.88-2.304 5.184-5.184 5.184z"></path>
</svg>
