<!-- Generated by IcoMoon.io -->
<svg version="1.1" xmlns="http://www.w3.org/2000/svg" width="32" height="32" viewBox="0 0 32 32">
<title>night-cloudy-strong</title>
<path d="M26.688 16.576c-0.704-4.16-4.352-7.296-8.64-7.296-3.136 0-5.952 1.664-7.552 4.288-1.28-0.832-2.048-2.176-2.24-3.648-0.192-1.856 0.576-3.648 2.048-4.736 0.32-0.192 0.448-0.576 0.448-0.896s-0.128-0.576-0.32-0.768c-0.192-0.192-0.512-0.32-0.832-0.32-0.128 0-0.256 0-0.32 0-2.688 0.128-5.12 1.28-6.912 3.264-1.664 1.856-2.496 4.416-2.368 7.104 0.128 1.92 0.832 3.776 2.048 5.312-1.28 1.024-2.048 2.624-2.048 4.352 0 3.136 2.56 5.696 5.696 5.696h20.16c3.392 0 6.208-2.752 6.208-6.208-0.064-3.072-2.368-5.696-5.376-6.144zM1.024 13.504c-0.128-2.368 0.64-4.672 2.24-6.464s3.776-2.816 6.144-2.88c0.064 0 0.128 0 0.256 0 0 0 0 0 0 0 0.064 0 0.064 0 0.064 0s0 0.064 0 0.064-0.064 0.064-0.064 0.064c-1.792 1.344-2.752 3.456-2.496 5.696 0.192 1.856 1.28 3.456 2.816 4.48-0.128 0.32-0.256 0.64-0.384 1.024-1.728-0.128-3.328 0.64-4.224 2.048-0.896 0.064-1.792 0.32-2.496 0.704-1.088-1.344-1.728-3.008-1.856-4.736zM25.792 27.84h-20.096c-2.56 0-4.672-2.112-4.672-4.672s2.112-4.608 4.608-4.608h0.384l0.128-0.256c0.64-1.088 1.856-1.792 3.136-1.792 0.192 0 0.448 0 0.64 0.064l0.448 0.064 0.128-0.448c0.832-3.456 3.968-5.888 7.488-5.888 3.904 0 7.232 2.944 7.68 6.784l0.064 0.32c0 0.192 0 0.448 0 0.64 0 4.288-3.456 7.744-7.744 7.744v1.024c4.864 0 8.768-3.904 8.768-8.768 0-0.128 0-0.256 0-0.384 2.368 0.448 4.16 2.56 4.16 5.056 0.064 2.816-2.24 5.12-5.12 5.12z"></path>
<path d="M13.952 3.072h1.024v1.024h-1.024v-1.024z"></path>
<path d="M14.976 4.16h1.024v1.024h-1.024v-1.024z"></path>
<path d="M13.952 5.184h1.024v1.024h-1.024v-1.024z"></path>
<path d="M12.928 4.16h1.024v1.024h-1.024v-1.024z"></path>
<path d="M11.84 7.232h1.024v1.024h-1.024v-1.024z"></path>
<path d="M12.928 8.256h1.024v1.024h-1.024v-1.024z"></path>
<path d="M11.84 9.28h1.024v1.024h-1.024v-1.024z"></path>
<path d="M10.816 8.256h1.024v1.024h-1.024v-1.024z"></path>
</svg>
