<!-- Generated by IcoMoon.io -->
<svg version="1.1" xmlns="http://www.w3.org/2000/svg" width="32" height="32" viewBox="0 0 32 32">
<title>night-cloudy</title>
<path d="M26.688 9.856c-0.704-4.16-4.352-7.296-8.64-7.296-3.904 0-7.296 2.56-8.384 6.208-0.128 0-0.256 0-0.384 0-1.536 0-3.008 0.768-3.84 2.048-3.008 0.128-5.44 2.624-5.44 5.696 0 3.136 2.56 5.696 5.696 5.696h2.624c0 0.128 0 0.256 0 0.384 0.384 3.584 3.264 6.4 6.784 6.784 0.32 0.064 0.576 0.064 0.896 0.064 3.776 0 7.040-2.752 7.68-6.528 0.064-0.256 0-0.448-0.064-0.704h2.24c3.392 0 6.208-2.752 6.208-6.208-0.064-3.072-2.368-5.696-5.376-6.144zM22.656 22.72c-0.576 3.52-3.84 6.016-7.424 5.632-3.072-0.32-5.568-2.816-5.888-5.888-0.384-3.584 2.048-6.848 5.632-7.424 0 0 0.064 0 0.064 0 0.128 0 0.256 0.064 0.32 0.128s0.192 0.192 0.192 0.384c0 0.128-0.064 0.256-0.128 0.32-0.832 1.088-1.088 2.432-0.832 3.712 0.384 1.728 1.792 3.2 3.52 3.52 1.344 0.256 2.688 0 3.712-0.832 0.064-0.064 0.192-0.128 0.32-0.128 0.192 0 0.32 0.128 0.384 0.192s0.128 0.192 0.128 0.384zM25.792 21.184h-3.584c-0.32 0-0.64 0.064-0.96 0.32-0.832 0.64-1.856 0.832-2.88 0.64-1.344-0.256-2.432-1.408-2.752-2.752-0.192-1.024 0-2.048 0.64-2.88 0.192-0.256 0.32-0.576 0.32-0.96 0-0.448-0.192-0.832-0.512-1.152-0.32-0.256-0.768-0.384-1.216-0.32-3.648 0.576-6.272 3.584-6.528 7.104h-2.624c-2.56 0-4.672-2.112-4.672-4.672s2.112-4.672 4.608-4.672h0.384l0.128-0.256c0.64-1.088 1.856-1.792 3.136-1.792 0.192 0 0.448 0 0.704 0.064l0.448 0.064 0.128-0.448c0.832-3.456 3.968-5.888 7.488-5.888 3.904 0 7.232 2.944 7.68 6.784l0.064 0.448 0.448 0.064c2.688 0.192 4.736 2.496 4.736 5.12 0 2.816-2.304 5.184-5.184 5.184z"></path>
<path d="M18.048 14.464h1.024v1.024h-1.024v-1.024z"></path>
<path d="M19.072 13.44h1.024v1.024h-1.024v-1.024z"></path>
<path d="M20.16 14.464h1.024v1.024h-1.024v-1.024z"></path>
<path d="M19.072 15.488h1.024v1.024h-1.024v-1.024z"></path>
<path d="M21.184 17.536h1.024v1.024h-1.024v-1.024z"></path>
<path d="M22.208 16.512h1.024v1.024h-1.024v-1.024z"></path>
<path d="M23.232 17.536h1.024v1.024h-1.024v-1.024z"></path>
<path d="M22.208 18.56h1.024v1.024h-1.024v-1.024z"></path>
</svg>
