<!-- Generated by IcoMoon.io -->
<svg version="1.1" xmlns="http://www.w3.org/2000/svg" width="32" height="32" viewBox="0 0 32 32">
<title>night-rain</title>
<path d="M26.56 13.632c-0.704-4.096-4.288-7.168-8.512-7.168-3.072 0-5.888 1.664-7.424 4.224-1.216-0.832-2.048-2.112-2.24-3.584-0.192-1.856 0.576-3.584 2.048-4.672 0.32-0.192 0.448-0.512 0.448-0.896 0-0.32-0.128-0.576-0.32-0.768s-0.512-0.32-0.768-0.32c-0.128 0-0.256 0-0.32 0-2.56 0-4.992 1.152-6.72 3.072s-2.624 4.48-2.432 7.104c0.128 1.92 0.832 3.712 1.984 5.248-1.216 1.024-2.048 2.56-2.048 4.288 0 3.072 2.496 5.568 5.568 5.568v-1.024c-2.496 0-4.544-2.048-4.544-4.544s2.048-4.544 4.544-4.544h0.32l0.192-0.256c0.64-1.088 1.792-1.792 3.072-1.792 0.192 0 0.448 0 0.64 0.064l0.448 0.064 0.128-0.448c0.832-3.392 3.904-5.76 7.36-5.76 3.84 0 7.104 2.88 7.552 6.656l0.064 0.32c0 0.192 0 0.448 0 0.64 0 4.224-3.392 7.616-7.616 7.616v1.024c4.736 0 8.64-3.904 8.64-8.64 0-0.128 0-0.256 0-0.384 2.304 0.448 4.096 2.56 4.096 4.992 0 2.816-2.304 5.056-5.056 5.056v1.024c3.392 0 6.080-2.752 6.080-6.080 0-3.072-2.24-5.632-5.184-6.080zM9.792 12.544c-1.664-0.128-3.264 0.64-4.16 2.048-0.896 0.064-1.728 0.32-2.496 0.704-1.088-1.344-1.728-3.008-1.792-4.736-0.128-2.368 0.64-4.608 2.176-6.336 1.6-1.728 3.712-2.752 6.080-2.88 0.064 0 0.128 0 0.256 0 0 0 0 0 0 0s0.064 0 0.064 0 0 0.064 0 0.064c0 0.064-0.064 0.064-0.064 0.064-1.792 1.28-2.688 3.392-2.432 5.632 0.192 1.792 1.216 3.392 2.752 4.416-0.128 0.384-0.256 0.704-0.384 1.024z"></path>
<path d="M13.952 0.384h1.024v1.024h-1.024v-1.024z"></path>
<path d="M14.976 1.344h1.024v1.024h-1.024v-1.024z"></path>
<path d="M13.952 2.368h1.024v1.024h-1.024v-1.024z"></path>
<path d="M12.928 1.344h1.024v1.024h-1.024v-1.024z"></path>
<path d="M11.968 4.416h1.024v1.024h-1.024v-1.024z"></path>
<path d="M12.928 5.44h1.024v1.024h-1.024v-1.024z"></path>
<path d="M11.968 6.464h1.024v1.024h-1.024v-1.024z"></path>
<path d="M10.944 5.44h1.024v1.024h-1.024v-1.024z"></path>
<path d="M11.648 26.752v0c0-0.32-0.064-0.576-0.192-0.768l-1.216-1.984-1.216 1.984c-0.128 0.192-0.192 0.448-0.192 0.704v0.064c0 0.768 0.64 1.408 1.408 1.408s1.408-0.64 1.408-1.408zM10.944 26.752c0 0.384-0.32 0.704-0.704 0.704s-0.704-0.32-0.704-0.704v-0.064c0-0.128 0.064-0.256 0.128-0.384l0.576-1.024 0.576 1.024c0.128 0.128 0.128 0.256 0.128 0.448v0z"></path>
<path d="M15.168 26.752v0c0-0.32-0.064-0.576-0.192-0.768l-1.216-1.984-1.216 1.984c-0.128 0.192-0.192 0.448-0.192 0.704v0.064c0 0.768 0.64 1.408 1.408 1.408s1.408-0.64 1.408-1.408zM14.464 26.752c0 0.384-0.32 0.704-0.704 0.704s-0.704-0.32-0.704-0.704v-0.064c0-0.128 0.064-0.256 0.128-0.384l0.576-1.024 0.576 1.024c0.064 0.128 0.128 0.256 0.128 0.448v0z"></path>
<path d="M18.624 26.752v0c0-0.32-0.064-0.576-0.192-0.768l-1.152-1.984-1.216 1.984c-0.128 0.192-0.192 0.448-0.192 0.704v0.064c0 0.768 0.64 1.408 1.408 1.408s1.344-0.64 1.344-1.408zM17.92 26.752c0 0.384-0.32 0.704-0.704 0.704s-0.704-0.32-0.704-0.704v-0.064c0-0.128 0.064-0.256 0.128-0.384l0.576-1.024 0.576 1.024c0.128 0.128 0.128 0.256 0.128 0.448v0z"></path>
<path d="M20.736 24l-1.216 1.984c-0.128 0.192-0.192 0.448-0.192 0.704v0.064c0 0.768 0.64 1.408 1.408 1.408s1.408-0.64 1.408-1.408v-0.064c0-0.256-0.064-0.512-0.192-0.704l-1.216-1.984zM21.44 26.752c0 0.384-0.32 0.704-0.704 0.704s-0.704-0.32-0.704-0.704v-0.064c0-0.128 0.064-0.256 0.128-0.384l0.576-1.024 0.576 1.024c0.064 0.128 0.128 0.256 0.128 0.448v0z"></path>
<path d="M8.512 27.456l-1.216 1.984c-0.128 0.192-0.192 0.448-0.192 0.704v0.064c0 0.768 0.64 1.408 1.408 1.408s1.408-0.64 1.408-1.408v-0.064c0-0.256-0.064-0.512-0.192-0.704l-1.216-1.984zM9.216 30.272c0 0.384-0.32 0.704-0.704 0.704s-0.704-0.32-0.704-0.704v-0.064c0-0.128 0.064-0.256 0.128-0.384l0.576-1.024 0.576 1.024c0.128 0.128 0.128 0.256 0.128 0.448v0z"></path>
<path d="M12.032 27.456l-1.216 1.984c-0.128 0.192-0.192 0.448-0.192 0.704v0.064c0 0.768 0.64 1.408 1.408 1.408s1.408-0.64 1.408-1.408v-0.064c0-0.256-0.064-0.512-0.192-0.704l-1.216-1.984zM12.736 30.272c0 0.384-0.32 0.704-0.704 0.704s-0.704-0.32-0.704-0.704v-0.064c0-0.128 0.064-0.256 0.128-0.384l0.576-1.024 0.576 1.024c0.064 0.128 0.128 0.256 0.128 0.448v0z"></path>
<path d="M15.488 27.456l-1.152 1.984c-0.128 0.192-0.192 0.448-0.192 0.704v0.064c0 0.768 0.64 1.408 1.408 1.408s1.408-0.64 1.408-1.408v-0.064c0-0.256-0.064-0.512-0.192-0.704l-1.28-1.984zM16.192 30.272c0 0.384-0.32 0.704-0.704 0.704s-0.704-0.32-0.704-0.704v-0.064c0-0.128 0.064-0.256 0.128-0.384l0.576-1.024 0.576 1.024c0.128 0.128 0.128 0.256 0.128 0.448v0z"></path>
<path d="M19.008 27.456l-1.216 1.984c-0.128 0.192-0.192 0.448-0.192 0.704v0.064c0 0.768 0.64 1.408 1.408 1.408s1.408-0.64 1.408-1.408v-0.064c0-0.256-0.064-0.512-0.192-0.704l-1.216-1.984zM19.712 30.272c0 0.384-0.32 0.704-0.704 0.704s-0.704-0.32-0.704-0.704v-0.064c0-0.128 0.064-0.256 0.128-0.384l0.576-1.024 0.576 1.024c0.064 0.128 0.128 0.256 0.128 0.448v0z"></path>
</svg>
