<!-- Generated by IcoMoon.io -->
<svg version="1.1" xmlns="http://www.w3.org/2000/svg" width="32" height="32" viewBox="0 0 32 32">
<title>night</title>
<path d="M32 15.68c0-0.704-0.576-1.216-1.28-1.216-0.448 0-0.832 0.256-1.088 0.64-1.984 3.264-5.696 4.992-9.472 4.416-4.544-0.704-7.808-4.608-7.744-9.28 0.064-3.648 1.856-6.592 4.992-8.064 0.384-0.192 0.64-0.576 0.64-0.96 0-0.576-0.448-1.024-1.024-1.088-0.32-0.128-0.64-0.128-1.024-0.128-4.416 0-8.64 1.856-11.648 5.056-3.072 3.264-4.608 7.552-4.288 12.032 0.512 8 6.912 14.4 14.976 14.912 0.32 0 0.64 0 0.96 0 4.096 0 7.936-1.536 10.944-4.352 3.264-3.072 5.056-7.168 5.056-11.648 0-0.128 0-0.192 0-0.32zM26.24 26.88c-3.008 2.88-6.976 4.288-11.2 4.032-7.488-0.384-13.504-6.4-13.952-13.888-0.32-4.224 1.152-8.192 3.968-11.264 2.88-3.008 6.848-4.736 10.944-4.736 0.32 0 0.64 0 0.96 0 0.064 0 0.064 0 0.064 0.064 0 0 0 0.064-0.064 0.064-3.456 1.664-5.568 4.992-5.568 9.024-0.064 5.184 3.52 9.536 8.576 10.368 4.224 0.704 8.384-1.28 10.56-4.928v0c0.128-0.192 0.448-0.128 0.448 0.128 0 0.128 0 0.192 0 0.32 0 4.096-1.664 8-4.736 10.816z"></path>
<path d="M21.696 0h1.024v1.536h-1.024v-1.536z"></path>
<path d="M22.72 1.536h1.536v1.024h-1.536v-1.024z"></path>
<path d="M21.696 2.56h1.024v1.536h-1.024v-1.536z"></path>
<path d="M20.096 1.536h1.536v1.024h-1.536v-1.024z"></path>
<path d="M25.792 7.232h1.024v1.536h-1.024v-1.536z"></path>
<path d="M26.816 8.768h1.536v1.024h-1.536v-1.024z"></path>
<path d="M25.792 9.792h1.024v1.536h-1.024v-1.536z"></path>
<path d="M24.256 8.768h1.536v1.024h-1.536v-1.024z"></path>
<path d="M18.56 6.72h1.024v1.024h-1.024v-1.024z"></path>
<path d="M19.584 7.744h1.024v1.024h-1.024v-1.024z"></path>
<path d="M18.56 8.768h1.024v1.024h-1.024v-1.024z"></path>
<path d="M17.536 7.744h1.024v1.024h-1.024v-1.024z"></path>
</svg>
