<!-- Generated by IcoMoon.io -->
<svg version="1.1" xmlns="http://www.w3.org/2000/svg" width="32" height="32" viewBox="0 0 32 32">
<title>rain</title>
<path d="M26.688 11.456c-0.704-4.096-4.224-7.168-8.448-7.296-1.088-1.92-3.136-3.136-5.376-3.136-2.624 0-4.992 1.664-5.824 4.16-1.344-0.128-2.56 0.448-3.328 1.536-2.112 0.192-3.712 1.92-3.712 4.096 0 1.28 0.576 2.496 1.6 3.264-0.96 1.024-1.6 2.432-1.6 3.968 0 3.136 2.56 5.696 5.696 5.696h20.16c3.392 0 6.208-2.752 6.208-6.208-0.064-3.072-2.368-5.696-5.376-6.080zM1.024 10.816c0-1.664 1.344-3.072 3.008-3.072h0.32l0.128-0.256c0.448-0.768 1.344-1.28 2.24-1.28 0.192 0 0.384 0 0.576 0.064l0.512 0.128 0.128-0.512c0.576-2.24 2.624-3.84 4.992-3.84 1.664 0 3.2 0.832 4.16 2.112-3.456 0.384-6.336 2.816-7.36 6.144-1.728-0.128-3.328 0.64-4.224 2.048-1.216 0.064-2.24 0.448-3.072 1.088-0.896-0.576-1.408-1.536-1.408-2.624zM25.792 22.72h-20.096c-2.56 0-4.672-2.112-4.672-4.672s2.112-4.608 4.608-4.608h0.384l0.128-0.256c0.64-1.088 1.856-1.792 3.136-1.792 0.192 0 0.448 0 0.64 0.064l0.448 0.064 0.128-0.448c0.832-3.456 3.968-5.888 7.488-5.888 3.904 0 7.232 2.944 7.68 6.784l0.064 0.32c0 0.192 0 0.448 0 0.64 0 4.288-3.456 7.744-7.744 7.744v1.024c4.864 0 8.768-3.904 8.768-8.768 0-0.128 0-0.256 0-0.384 2.368 0.448 4.16 2.56 4.16 5.056 0.064 2.816-2.24 5.12-5.12 5.12z"></path>
<path d="M8.256 24.832l-1.792 2.944c-0.192 0.32-0.32 0.704-0.32 1.088v0.064c0 1.152 0.896 2.048 2.048 2.048s2.048-0.896 2.048-2.048v-0.128c0-0.384-0.128-0.768-0.32-1.088l-1.664-2.88zM9.28 28.928c0 0.576-0.448 1.024-1.024 1.024s-1.024-0.448-1.024-1.024v-0.128c0-0.192 0.064-0.384 0.128-0.512l0.896-1.472 0.896 1.472c0.128 0.192 0.128 0.32 0.128 0.512v0.128z"></path>
<path d="M13.44 24.832l-1.792 2.944c-0.192 0.32-0.32 0.704-0.32 1.088v0.064c0 1.152 0.896 2.048 2.048 2.048s2.048-0.896 2.048-2.048v-0.128c0-0.384-0.128-0.768-0.32-1.088l-1.664-2.88zM14.464 28.928c0 0.576-0.448 1.024-1.024 1.024s-1.024-0.448-1.024-1.024v-0.128c0-0.192 0.064-0.384 0.128-0.512l0.896-1.472 0.896 1.472c0.128 0.192 0.128 0.32 0.128 0.512v0.128z"></path>
<path d="M18.56 24.832l-1.792 2.944c-0.192 0.32-0.32 0.704-0.32 1.088v0.064c0 1.152 0.896 2.048 2.048 2.048s2.048-0.896 2.048-2.048v-0.128c0-0.384-0.128-0.768-0.32-1.088l-1.664-2.88zM19.584 28.928c0 0.576-0.448 1.024-1.024 1.024s-1.024-0.448-1.024-1.024v-0.128c0-0.192 0.064-0.384 0.128-0.512l0.896-1.472 0.896 1.472c0.128 0.192 0.128 0.32 0.128 0.512v0.128z"></path>
<path d="M23.744 24.832l-1.792 2.944c-0.192 0.32-0.32 0.704-0.32 1.088v0.064c0 1.152 0.896 2.048 2.048 2.048s2.048-0.896 2.048-2.048v-0.128c0-0.384-0.128-0.768-0.32-1.088l-1.664-2.88zM24.768 28.928c0 0.576-0.448 1.024-1.024 1.024s-1.024-0.448-1.024-1.024v-0.128c0-0.192 0.064-0.384 0.128-0.512l0.896-1.472 0.896 1.472c0.128 0.192 0.128 0.32 0.128 0.512v0.128z"></path>
</svg>
