<!-- Generated by IcoMoon.io -->
<svg version="1.1" xmlns="http://www.w3.org/2000/svg" width="32" height="32" viewBox="0 0 32 32">
<title>rain-strong</title>
<path d="M26.688 7.296c-0.704-4.16-4.352-7.296-8.64-7.296-3.904 0-7.296 2.56-8.384 6.208-0.128 0-0.256 0-0.384 0-1.536 0-3.008 0.768-3.84 2.048-3.008 0.128-5.44 2.624-5.44 5.696 0 3.136 2.56 5.696 5.696 5.696h20.16c3.392 0 6.208-2.752 6.208-6.208-0.064-3.072-2.368-5.696-5.376-6.144zM25.792 18.56h-20.096c-2.56 0-4.672-2.112-4.672-4.672s2.112-4.672 4.608-4.672h0.384l0.128-0.256c0.64-1.088 1.856-1.792 3.136-1.792 0.192 0 0.448 0 0.704 0.064l0.448 0.064 0.128-0.448c0.832-3.456 3.968-5.888 7.488-5.888 3.904 0 7.232 2.944 7.68 6.784l0.064 0.32c0 0.192 0 0.448 0 0.64 0 4.288-3.456 7.744-7.744 7.744v1.024c4.864 0 8.768-3.904 8.768-8.768 0-0.128 0-0.256 0-0.384 2.368 0.448 4.16 2.56 4.16 5.056 0 2.88-2.304 5.184-5.184 5.184z"></path>
<path d="M10.304 24.768v-0.064c0-0.384-0.128-0.768-0.32-1.088l-1.792-2.944-1.792 2.944c-0.192 0.32-0.32 0.704-0.32 1.088v0.064c0 1.152 0.896 2.048 2.048 2.048s2.176-0.896 2.176-2.048zM9.28 24.768c0 0.576-0.448 1.024-1.024 1.024s-1.024-0.448-1.024-1.024v-0.064c0-0.192 0.064-0.384 0.128-0.512l0.896-1.472 0.896 1.472c0.128 0.192 0.128 0.32 0.128 0.512v0.064z"></path>
<path d="M15.488 24.768v-0.064c0-0.384-0.128-0.768-0.32-1.088l-1.728-2.944-1.792 2.944c-0.192 0.32-0.32 0.704-0.32 1.088v0.064c0 1.152 0.896 2.048 2.048 2.048s2.112-0.896 2.112-2.048zM14.464 24.768c0 0.576-0.448 1.024-1.024 1.024s-1.024-0.448-1.024-1.024v-0.064c0-0.192 0.064-0.384 0.128-0.512l0.896-1.472 0.896 1.472c0.064 0.192 0.128 0.32 0.128 0.512v0.064z"></path>
<path d="M20.672 24.768v-0.064c0-0.384-0.128-0.768-0.32-1.088l-1.792-2.944-1.792 2.944c-0.192 0.32-0.32 0.704-0.32 1.088v0.064c0 1.152 0.896 2.048 2.048 2.048 1.216 0 2.176-0.896 2.176-2.048zM19.584 24.768c0 0.576-0.448 1.024-1.024 1.024s-1.024-0.448-1.024-1.024v-0.064c0-0.192 0.064-0.384 0.128-0.512l0.896-1.472 0.896 1.472c0.064 0.192 0.128 0.32 0.128 0.512v0.064z"></path>
<path d="M23.744 20.672l-1.792 2.944c-0.192 0.32-0.32 0.704-0.32 1.088v0.064c0 1.152 0.896 2.048 2.048 2.048s2.048-0.896 2.048-2.048v-0.064c0-0.384-0.128-0.768-0.32-1.088l-1.664-2.944zM24.768 24.768c0 0.576-0.448 1.024-1.024 1.024s-1.024-0.448-1.024-1.024v-0.064c0-0.192 0.064-0.384 0.128-0.512l0.896-1.472 0.896 1.472c0.128 0.192 0.128 0.32 0.128 0.512v0.064z"></path>
<path d="M5.696 25.856l-1.792 2.944c-0.192 0.32-0.32 0.704-0.32 1.088v0.064c0 1.152 0.896 2.048 2.048 2.048s2.048-0.896 2.048-2.048v-0.064c0-0.384-0.128-0.768-0.32-1.088l-1.664-2.944zM6.72 29.952c0 0.576-0.448 1.024-1.024 1.024s-1.024-0.448-1.024-1.024v-0.064c0-0.192 0.064-0.384 0.128-0.512l0.896-1.472 0.896 1.472c0.128 0.128 0.128 0.32 0.128 0.512v0.064z"></path>
<path d="M10.816 25.856l-1.728 2.944c-0.192 0.32-0.32 0.704-0.32 1.088v0.064c0 1.152 0.896 2.048 2.048 2.048s2.048-0.896 2.048-2.048v-0.064c0-0.384-0.128-0.768-0.32-1.088l-1.728-2.944zM11.84 29.952c0 0.576-0.448 1.024-1.024 1.024s-1.024-0.448-1.024-1.024v-0.064c0-0.192 0.064-0.384 0.128-0.512l0.896-1.472 0.896 1.472c0.128 0.128 0.128 0.32 0.128 0.512v0.064z"></path>
<path d="M16 25.856l-1.792 2.944c-0.192 0.32-0.32 0.704-0.32 1.088v0.064c0 1.152 0.896 2.048 2.048 2.048s2.048-0.896 2.048-2.048v-0.064c0-0.384-0.128-0.768-0.32-1.088l-1.664-2.944zM17.024 29.952c0 0.576-0.448 1.024-1.024 1.024s-1.024-0.448-1.024-1.024v-0.064c0-0.192 0.064-0.384 0.128-0.512l0.896-1.472 0.896 1.472c0.128 0.128 0.128 0.32 0.128 0.512v0.064z"></path>
<path d="M21.184 25.856l-1.792 2.944c-0.192 0.32-0.32 0.704-0.32 1.088v0.064c0 1.152 0.896 2.048 2.048 2.048s2.048-0.896 2.048-2.048v-0.064c0-0.384-0.128-0.768-0.32-1.088l-1.664-2.944zM22.208 29.952c0 0.576-0.448 1.024-1.024 1.024s-1.024-0.448-1.024-1.024v-0.064c0-0.192 0.064-0.384 0.128-0.512l0.896-1.472 0.896 1.472c0.064 0.128 0.128 0.32 0.128 0.512v0.064z"></path>
</svg>
