<!-- Generated by IcoMoon.io -->
<svg version="1.1" xmlns="http://www.w3.org/2000/svg" width="32" height="32" viewBox="0 0 32 32">
<title>sun-cloudy</title>
<path d="M16 26.816c3.136 0 5.696-2.56 5.696-5.696s-2.56-5.696-5.696-5.696-5.696 2.56-5.696 5.696c0 3.2 2.56 5.696 5.696 5.696zM16 16.512c2.56 0 4.672 2.112 4.672 4.672s-2.112 4.608-4.672 4.608-4.672-2.112-4.672-4.672 2.112-4.608 4.672-4.608z"></path>
<path d="M15.488 12.416h1.024v2.048h-1.024v-2.048z"></path>
<path d="M11.148 13.849l0.887-0.512 1.024 1.774-0.887 0.512-1.024-1.774z"></path>
<path d="M8.134 17.23l0.512-0.887 1.774 1.024-0.512 0.887-1.774-1.024z"></path>
<path d="M7.232 20.672h2.048v1.024h-2.048v-1.024z"></path>
<path d="M8.136 25.101l1.774-1.024 0.512 0.887-1.774 1.024-0.512-0.887z"></path>
<path d="M11.138 28.514l1.024-1.774 0.887 0.512-1.024 1.774-0.887-0.512z"></path>
<path d="M15.488 27.84h1.024v2.048h-1.024v-2.048z"></path>
<path d="M18.874 27.229l0.887-0.512 1.024 1.774-0.887 0.512-1.024-1.774z"></path>
<path d="M21.559 24.947l0.512-0.887 1.774 1.024-0.512 0.887-1.774-1.024z"></path>
<path d="M22.72 20.672h2.048v1.024h-2.048v-1.024z"></path>
<path d="M21.57 17.342l1.774-1.024 0.512 0.887-1.774 1.024-0.512-0.887z"></path>
<path d="M18.913 14.089l1.024-1.774 0.887 0.512-1.024 1.774-0.887-0.512z"></path>
<path d="M26.688 9.344c-0.704-4.16-4.352-7.296-8.64-7.296-3.904 0-7.296 2.56-8.384 6.208-1.728-0.128-3.328 0.64-4.224 2.048-3.008 0.128-5.44 2.624-5.44 5.696 0 3.136 2.56 5.696 5.696 5.696h0.512v-1.024h-0.512c-2.56 0-4.672-2.112-4.672-4.672s2.112-4.672 4.608-4.672h0.384l0.128-0.256c0.64-1.088 1.856-1.792 3.136-1.792 0.192 0 0.448 0 0.64 0.064l0.448 0.064 0.128-0.448c0.832-3.456 3.968-5.888 7.488-5.888 3.904 0 7.232 2.944 7.68 6.784l0.064 0.448 0.448 0.064c2.688 0.192 4.736 2.496 4.736 5.12 0 2.816-2.304 5.184-5.184 5.184v1.024c3.392 0 6.208-2.752 6.208-6.208 0.064-3.072-2.24-5.696-5.248-6.144z"></path>
</svg>
