<!-- Generated by IcoMoon.io -->
<svg version="1.1" xmlns="http://www.w3.org/2000/svg" width="32" height="32" viewBox="0 0 32 32">
<title>sun-rain</title>
<path d="M26.688 13.76c-0.704-4.16-4.352-7.296-8.64-7.296-0.768 0-1.536 0.128-2.24 0.32-1.28-1.792-3.264-2.88-5.504-2.88-3.712 0-6.72 3.008-6.72 6.72 0 1.536 0.512 3.008 1.472 4.16-2.816 0.256-5.056 2.688-5.056 5.632 0 3.136 2.56 5.696 5.696 5.696v-1.024c-2.56 0-4.672-2.112-4.672-4.672s2.112-4.672 4.608-4.672h0.384l0.128-0.256c0.64-1.088 1.856-1.792 3.136-1.792 0.192 0 0.448 0 0.704 0.064l0.448 0.064 0.128-0.448c0.832-3.456 3.968-5.888 7.488-5.888 3.904 0 7.232 2.944 7.68 6.784l0.064 0.32c0 0.192 0 0.448 0 0.64 0 4.288-3.456 7.744-7.744 7.744v1.024c4.864 0 8.768-3.904 8.768-8.768 0-0.128 0-0.256 0-0.384 2.368 0.448 4.16 2.56 4.16 5.056 0 2.816-2.304 5.184-5.184 5.184v1.024c3.392 0 6.208-2.752 6.208-6.208 0-3.072-2.304-5.696-5.312-6.144zM9.664 12.672c-0.128 0-0.256 0-0.384 0-1.28 0-2.496 0.576-3.392 1.472-0.832-1.024-1.28-2.24-1.28-3.584 0-3.136 2.56-5.696 5.696-5.696 1.792 0 3.392 0.832 4.48 2.176-2.432 1.024-4.288 3.008-5.12 5.632z"></path>
<path d="M0 10.048h2.56v1.024h-2.56v-1.024z"></path>
<path d="M15.456 4.764l1.81-1.81 0.724 0.724-1.81 1.81-0.724-0.724z"></path>
<path d="M9.792 0.256h1.024v2.56h-1.024v-2.56z"></path>
<path d="M2.621 3.651l0.724-0.724 1.81 1.81-0.724 0.724-1.81-1.81z"></path>
<path d="M6.264 2.186l0.946-0.392 0.588 1.419-0.946 0.392-0.588-1.419z"></path>
<path d="M1.516 7.517l0.392-0.946 1.419 0.588-0.392 0.946-1.419-0.588z"></path>
<path d="M1.521 13.654l1.419-0.588 0.392 0.946-1.419 0.588-0.392-0.946z"></path>
<path d="M12.783 3.231l0.588-1.419 0.946 0.392-0.588 1.419-0.946-0.392z"></path>
<path d="M12.416 27.2v0c0-0.32-0.064-0.512-0.192-0.704l-1.088-1.856-1.088 1.856c-0.128 0.192-0.192 0.448-0.192 0.64v0.064c0 0.704 0.576 1.28 1.28 1.28s1.28-0.512 1.28-1.28zM11.776 27.2c0 0.384-0.32 0.64-0.64 0.64s-0.64-0.32-0.64-0.64v-0.064c0-0.128 0-0.256 0.064-0.32l0.576-0.896 0.576 0.896c0 0.128 0.064 0.256 0.064 0.384v0z"></path>
<path d="M15.616 27.2v0c0-0.32-0.064-0.512-0.192-0.704l-1.088-1.856-1.088 1.856c-0.128 0.192-0.192 0.448-0.192 0.64v0.064c0 0.704 0.576 1.28 1.28 1.28 0.704 0.064 1.28-0.512 1.28-1.28zM14.976 27.2c0 0.384-0.32 0.64-0.64 0.64s-0.64-0.32-0.64-0.64v-0.064c0-0.128 0-0.256 0.064-0.32l0.576-0.896 0.576 0.896c0.064 0.128 0.064 0.256 0.064 0.384v0z"></path>
<path d="M18.88 27.2v0c0-0.32-0.064-0.512-0.192-0.704l-1.088-1.856-1.088 1.856c-0.128 0.192-0.192 0.448-0.192 0.64v0.064c0 0.704 0.576 1.28 1.28 1.28 0.704 0.064 1.28-0.512 1.28-1.28zM18.24 27.2c0 0.384-0.32 0.64-0.64 0.64s-0.64-0.32-0.64-0.64v-0.064c0-0.128 0-0.256 0.064-0.32l0.576-0.896 0.576 0.896c0 0.128 0.064 0.256 0.064 0.384v0z"></path>
<path d="M20.8 24.64l-1.088 1.856c-0.128 0.192-0.192 0.448-0.192 0.64v0.064c0 0.704 0.576 1.28 1.28 1.28s1.28-0.576 1.28-1.28v-0.064c0-0.256-0.064-0.448-0.192-0.64l-1.088-1.856zM21.44 27.2c0 0.384-0.32 0.64-0.64 0.64-0.384 0-0.64-0.32-0.64-0.64v-0.064c0-0.128 0-0.256 0.064-0.32l0.576-0.896 0.576 0.896c0 0.128 0.064 0.256 0.064 0.384v0z"></path>
<path d="M9.536 27.904l-1.088 1.856c-0.128 0.192-0.192 0.448-0.192 0.64v0.064c0 0.704 0.576 1.28 1.28 1.28s1.28-0.576 1.28-1.28v-0.064c0-0.256-0.064-0.448-0.192-0.64l-1.088-1.856zM10.176 30.464c0 0.384-0.32 0.64-0.64 0.64-0.384 0-0.64-0.32-0.64-0.64v-0.064c0-0.128 0-0.256 0.064-0.32l0.576-0.896 0.576 0.896c0 0.064 0.064 0.192 0.064 0.384v0z"></path>
<path d="M12.736 27.904l-1.088 1.856c-0.128 0.192-0.192 0.448-0.192 0.64v0.064c0 0.704 0.576 1.28 1.28 1.28s1.28-0.576 1.28-1.28v-0.064c0-0.256-0.064-0.448-0.192-0.64l-1.088-1.856zM13.376 30.464c0 0.384-0.32 0.64-0.64 0.64s-0.64-0.32-0.64-0.64v-0.064c0-0.128 0-0.256 0.064-0.32l0.576-0.896 0.576 0.896c0 0.064 0.064 0.192 0.064 0.384v0z"></path>
<path d="M15.936 27.904l-1.088 1.856c-0.128 0.192-0.192 0.448-0.192 0.64v0.064c0 0.704 0.576 1.28 1.28 1.28s1.28-0.576 1.28-1.28v-0.064c0-0.256-0.064-0.448-0.192-0.64l-1.088-1.856zM16.576 30.464c0 0.384-0.32 0.64-0.64 0.64-0.384 0-0.64-0.32-0.64-0.64v-0.064c0-0.128 0-0.256 0.064-0.32l0.576-0.896 0.576 0.896c0.064 0.064 0.064 0.192 0.064 0.384v0z"></path>
<path d="M19.2 27.904l-1.088 1.856c-0.128 0.192-0.192 0.448-0.192 0.64v0.064c0 0.704 0.576 1.28 1.28 1.28s1.28-0.576 1.28-1.28v-0.064c0-0.256-0.064-0.448-0.192-0.64l-1.088-1.856zM19.84 30.464c0 0.384-0.32 0.64-0.64 0.64s-0.64-0.32-0.64-0.64v-0.064c0-0.128 0-0.256 0.064-0.32l0.576-0.896 0.576 0.896c0 0.064 0.064 0.192 0.064 0.384v0z"></path>
</svg>
