<!-- Generated by IcoMoon.io -->
<svg version="1.1" xmlns="http://www.w3.org/2000/svg" width="32" height="32" viewBox="0 0 32 32">
<title>sun-cloudy-strong</title>
<path d="M26.688 16.576c-0.704-4.16-4.352-7.296-8.64-7.296-0.768 0-1.536 0.128-2.24 0.32-1.28-1.792-3.264-2.88-5.504-2.88-3.712 0-6.72 3.008-6.72 6.72 0 1.536 0.512 3.008 1.472 4.16-2.816 0.32-5.056 2.688-5.056 5.632 0 3.136 2.56 5.696 5.696 5.696h20.16c3.392 0 6.208-2.752 6.208-6.208-0.064-3.072-2.368-5.696-5.376-6.144zM4.672 13.44c0-3.136 2.56-5.696 5.696-5.696 1.792 0 3.392 0.832 4.48 2.176-2.432 0.96-4.288 3.008-5.12 5.568-0.128 0-0.256 0-0.384 0-1.28 0-2.496 0.576-3.392 1.472-0.896-1.024-1.28-2.24-1.28-3.52zM25.792 27.84h-20.096c-2.56 0-4.672-2.112-4.672-4.672s2.112-4.608 4.608-4.608h0.384l0.128-0.256c0.64-1.088 1.856-1.792 3.136-1.792 0.192 0 0.448 0 0.704 0.064l0.448 0.064 0.128-0.448c0.832-3.456 3.968-5.888 7.488-5.888 3.904 0 7.232 2.944 7.68 6.784l0.064 0.32c0 0.192 0 0.448 0 0.64 0 4.288-3.456 7.744-7.744 7.744v1.024c4.864 0 8.768-3.904 8.768-8.768 0-0.128 0-0.256 0-0.384 2.368 0.448 4.16 2.56 4.16 5.056 0 2.816-2.304 5.12-5.184 5.12z"></path>
<path d="M0 12.928h2.56v1.024h-2.56v-1.024z"></path>
<path d="M15.443 7.585l1.81-1.81 0.724 0.724-1.81 1.81-0.724-0.724z"></path>
<path d="M9.792 3.072h1.024v2.56h-1.024v-2.56z"></path>
<path d="M2.652 6.516l0.724-0.724 1.81 1.81-0.724 0.724-1.81-1.81z"></path>
<path d="M6.281 5.062l0.946-0.392 0.588 1.419-0.946 0.392-0.588-1.419z"></path>
<path d="M1.554 10.37l0.392-0.946 1.419 0.588-0.392 0.946-1.419-0.588z"></path>
<path d="M1.514 16.471l1.419-0.588 0.392 0.946-1.419 0.588-0.392-0.946z"></path>
<path d="M12.824 6.084l0.588-1.419 0.946 0.392-0.588 1.419-0.946-0.392z"></path>
</svg>
