<!-- Generated by IcoMoon.io -->
<svg version="1.1" xmlns="http://www.w3.org/2000/svg" width="32" height="32" viewBox="0 0 32 32">
<title>sun</title>
<path d="M10.164 3.313l0.946-0.392 0.98 2.365-0.946 0.392-0.98-2.365z"></path>
<path d="M2.905 11.161l0.392-0.946 2.365 0.98-0.392 0.946-2.365-0.98z"></path>
<path d="M2.921 20.892l2.365-0.98 0.392 0.946-2.365 0.98-0.392-0.946z"></path>
<path d="M10.211 28.703l0.98-2.365 0.946 0.392-0.98 2.365-0.946-0.392z"></path>
<path d="M19.888 26.655l0.946-0.392 0.98 2.365-0.946 0.392-0.98-2.365z"></path>
<path d="M26.255 20.838l0.392-0.946 2.365 0.98-0.392 0.946-2.365-0.98z"></path>
<path d="M26.263 11.167l2.365-0.98 0.392 0.946-2.365 0.98-0.392-0.946z"></path>
<path d="M19.834 5.327l0.98-2.365 0.946 0.392-0.98 2.365-0.946-0.392z"></path>
<path d="M16 5.696c-5.696 0-10.304 4.608-10.304 10.304s4.608 10.304 10.304 10.304 10.304-4.608 10.304-10.304-4.608-10.304-10.304-10.304zM16 25.28c-5.12 0-9.28-4.16-9.28-9.28s4.16-9.28 9.28-9.28 9.28 4.16 9.28 9.28-4.16 9.28-9.28 9.28z"></path>
<path d="M15.488 0h1.024v4.672h-1.024v-4.672z"></path>
<path d="M4.348 5.062l0.724-0.724 3.304 3.304-0.724 0.724-3.304-3.304z"></path>
<path d="M0 15.488h4.672v1.024h-4.672v-1.024z"></path>
<path d="M4.337 26.928l3.304-3.304 0.724 0.724-3.304 3.304-0.724-0.724z"></path>
<path d="M15.488 27.328h1.024v4.672h-1.024v-4.672z"></path>
<path d="M23.668 24.403l0.724-0.724 3.304 3.304-0.724 0.724-3.304-3.304z"></path>
<path d="M27.328 15.488h4.672v1.024h-4.672v-1.024z"></path>
<path d="M23.68 7.606l3.304-3.304 0.724 0.724-3.304 3.304-0.724-0.724z"></path>
</svg>
