<!-- Generated by IcoMoon.io -->
<svg version="1.1" xmlns="http://www.w3.org/2000/svg" width="32" height="32" viewBox="0 0 32 32">
<title>temperature-celsius</title>
<path d="M19.584 19.648v-1.088h-1.024v1.664l0.256 0.128c1.728 1.024 2.816 2.88 2.816 4.928 0 1.536-0.64 3.008-1.728 4.096-1.152 1.088-2.624 1.664-4.16 1.6-2.944-0.128-5.376-2.624-5.44-5.568-0.064-2.048 1.024-4.032 2.816-5.056l0.256-0.128v-16.64c0-1.408 1.152-2.56 2.56-2.56s2.56 1.152 2.56 2.56v3.584h1.024v-3.584c0.064-1.984-1.536-3.584-3.52-3.584s-3.584 1.6-3.584 3.584v16c-1.984 1.28-3.136 3.456-3.072 5.824 0.064 3.456 2.944 6.4 6.464 6.528 0.064 0 0.192 0 0.256 0 1.728 0 3.392-0.64 4.672-1.856 1.344-1.28 2.048-3.008 2.048-4.864-0.064-2.176-1.28-4.352-3.2-5.568z"></path>
<path d="M18.56 16.512h3.072v1.024h-3.072v-1.024z"></path>
<path d="M18.56 14.464h3.072v1.024h-3.072v-1.024z"></path>
<path d="M18.56 12.416h3.072v1.024h-3.072v-1.024z"></path>
<path d="M18.56 10.304h3.072v1.024h-3.072v-1.024z"></path>
<path d="M18.56 8.256h3.072v1.024h-3.072v-1.024z"></path>
<path d="M17.28 20.928v-14.528h-2.56v14.528c-1.92 0.64-3.2 2.368-3.2 4.352 0 2.56 2.048 4.672 4.608 4.672s4.48-2.112 4.48-4.672c-0.064-1.984-1.408-3.712-3.328-4.352zM16.768 27.264c-0.128 0.128-0.256 0.192-0.384 0.256s-0.32 0.128-0.448 0.192c-0.192 0.064-0.32 0.064-0.512 0.064-0.32 0-0.64-0.064-0.96-0.192s-0.512-0.256-0.768-0.512-0.384-0.448-0.512-0.768c-0.128-0.32-0.192-0.64-0.192-0.96s0.064-0.64 0.192-0.96c0.128-0.32 0.256-0.512 0.512-0.768s0.448-0.384 0.768-0.512c0.256-0.128 0.576-0.192 0.96-0.192 0.256 0 0.576 0.064 0.832 0.192s0.512 0.32 0.704 0.576l-0.384 0.32c-0.064-0.064-0.128-0.128-0.192-0.192s-0.192-0.128-0.256-0.192c-0.128-0.064-0.192-0.128-0.32-0.128s-0.256-0.064-0.384-0.064c-0.32 0-0.576 0.064-0.768 0.128-0.256 0.128-0.448 0.256-0.576 0.448s-0.256 0.384-0.384 0.64-0.128 0.512-0.128 0.768 0.064 0.512 0.128 0.768 0.192 0.448 0.384 0.64c0.128 0.192 0.384 0.32 0.576 0.448 0.256 0.128 0.512 0.128 0.768 0.128 0.128 0 0.256 0 0.384 0s0.256-0.064 0.32-0.128c0.128-0.064 0.192-0.128 0.32-0.192s0.192-0.192 0.256-0.32l0.384 0.256c-0.064 0.064-0.192 0.128-0.32 0.256zM19.2 24.704c-0.064 0.064-0.192 0.128-0.32 0.192s-0.256 0.064-0.384 0.064-0.256 0-0.384-0.064-0.192-0.128-0.32-0.192c-0.064-0.064-0.128-0.192-0.192-0.32s-0.064-0.256-0.064-0.384 0-0.256 0.064-0.384 0.128-0.192 0.192-0.32c0.064-0.064 0.192-0.128 0.32-0.192s0.256-0.064 0.384-0.064 0.256 0 0.384 0.064 0.192 0.128 0.32 0.192 0.128 0.192 0.192 0.32c0.064 0.128 0.064 0.256 0.064 0.384s0 0.256-0.064 0.384c0 0.128-0.128 0.192-0.192 0.32z"></path>
<path d="M19.008 23.552c-0.064-0.064-0.128-0.128-0.192-0.128-0.064-0.064-0.192-0.064-0.256-0.064s-0.192 0-0.256 0.064c-0.064 0.064-0.128 0.064-0.192 0.128s-0.128 0.128-0.128 0.192-0.064 0.192-0.064 0.256 0 0.192 0.064 0.256 0.064 0.128 0.128 0.192 0.128 0.128 0.192 0.128c0.064 0.064 0.192 0.064 0.256 0.064s0.192 0 0.256-0.064c0.064-0.064 0.128-0.064 0.192-0.128s0.128-0.128 0.128-0.192c0.064-0.064 0.064-0.192 0.064-0.256s0-0.192-0.064-0.256c-0.064-0.064-0.128-0.128-0.128-0.192z"></path>
</svg>
