<!-- Generated by IcoMoon.io -->
<svg version="1.1" xmlns="http://www.w3.org/2000/svg" width="32" height="32" viewBox="0 0 32 32">
<title>thunderstorm-rain</title>
<path d="M26.624 7.36c-0.704-4.16-4.288-7.232-8.576-7.232-3.84 0-7.232 2.496-8.32 6.144-0.128 0-0.256 0-0.384 0-1.536 0-3.008 0.768-3.84 2.048-3.008 0.128-5.376 2.624-5.376 5.632 0 3.136 2.56 5.632 5.632 5.632h19.968c3.392 0 6.144-2.752 6.144-6.144 0-3.072-2.24-5.632-5.248-6.080zM25.728 18.56h-19.968c-2.56 0-4.608-2.048-4.608-4.608s2.048-4.608 4.608-4.608h0.384l0.128-0.256c0.64-1.088 1.856-1.792 3.072-1.792 0.192 0 0.448 0 0.64 0.064l0.448 0.064 0.128-0.448c0.832-3.456 3.904-5.824 7.424-5.824 3.904 0 7.168 2.88 7.616 6.72l0.064 0.32c0 0.192 0 0.448 0 0.64 0 4.224-3.456 7.68-7.68 7.68v1.024c4.8 0 8.704-3.904 8.704-8.704 0-0.128 0-0.256 0-0.384 2.368 0.448 4.096 2.56 4.096 4.992 0.064 2.816-2.24 5.12-5.056 5.12z"></path>
<path d="M8.576 24.704v-0.064c0-0.384-0.128-0.768-0.32-1.024l-1.728-2.944-1.728 2.944c-0.192 0.256-0.32 0.64-0.32 1.024v0.064c0 1.152 0.896 2.048 2.048 2.048s2.048-0.896 2.048-2.048zM7.552 24.704c0 0.576-0.448 1.024-1.024 1.024s-1.024-0.448-1.024-1.024v-0.064c0-0.192 0.064-0.384 0.128-0.512l0.896-1.472 0.896 1.472c0.064 0.128 0.128 0.32 0.128 0.512v0.064z"></path>
<path d="M17.792 20.608l-1.728 2.944c-0.192 0.32-0.32 0.704-0.32 1.024v0.064c0 1.152 0.896 2.048 2.048 2.048s2.048-0.896 2.048-2.048v-0.064c0-0.384-0.128-0.768-0.32-1.024l-1.728-2.944zM18.816 24.704c0 0.576-0.448 1.024-1.024 1.024s-1.024-0.448-1.024-1.024v-0.064c0-0.192 0.064-0.384 0.128-0.512l0.896-1.472 0.896 1.472c0.064 0.128 0.128 0.32 0.128 0.512v0.064z"></path>
<path d="M28.672 20.608l-1.728 2.944c-0.192 0.32-0.32 0.704-0.32 1.024v0.064c0 1.152 0.896 2.048 2.048 2.048s2.048-0.896 2.048-2.048v-0.064c0-0.384-0.128-0.768-0.32-1.024l-1.728-2.944zM29.696 24.704c0 0.576-0.448 1.024-1.024 1.024s-1.024-0.448-1.024-1.024v-0.064c0-0.192 0.064-0.384 0.128-0.512l0.896-1.472 0.896 1.472c0.064 0.128 0.128 0.32 0.128 0.512v0.064z"></path>
<path d="M3.968 25.792l-1.728 2.944c-0.192 0.256-0.32 0.64-0.32 1.024v0.064c0 1.152 0.896 2.048 2.048 2.048s2.048-0.896 2.048-2.048v-0.064c0-0.384-0.128-0.768-0.32-1.024l-1.728-2.944zM4.992 29.824c0 0.576-0.448 1.024-1.024 1.024s-1.024-0.448-1.024-1.024v-0.064c0-0.192 0.064-0.384 0.128-0.512l0.896-1.472 0.896 1.472c0.064 0.128 0.128 0.32 0.128 0.512v0.064z"></path>
<path d="M15.232 25.792l-1.792 2.88c-0.192 0.32-0.32 0.704-0.32 1.024v0.064c0 1.152 0.896 2.048 2.048 2.048s2.048-0.896 2.048-2.048v-0.064c0-0.384-0.128-0.768-0.32-1.024l-1.664-2.88zM16.256 29.824c0 0.576-0.448 1.024-1.024 1.024s-1.024-0.448-1.024-1.024v-0.064c0-0.192 0.064-0.384 0.128-0.512l0.896-1.472 0.896 1.472c0.064 0.128 0.128 0.32 0.128 0.512v0.064z"></path>
<path d="M26.112 25.792l-1.728 2.944c-0.192 0.32-0.32 0.704-0.32 1.024v0.064c0 1.152 0.896 2.048 2.048 2.048s2.048-0.896 2.048-2.048v-0.064c0-0.384-0.128-0.768-0.32-1.024l-1.728-2.944zM27.136 29.824c0 0.576-0.448 1.024-1.024 1.024s-1.024-0.448-1.024-1.024v-0.064c0-0.192 0.064-0.384 0.128-0.512l0.896-1.472 0.896 1.472c0.064 0.128 0.128 0.32 0.128 0.512v0.064z"></path>
<path d="M22.144 25.216l2.624-4.352-0.896-0.512-3.52 5.888h3.008l-3.072 4.864 0.832 0.512 4.096-6.4z"></path>
<path d="M10.624 25.088l2.56-4.352-0.832-0.576-3.584 5.952h3.072l-3.072 4.8 0.832 0.576 4.096-6.4z"></path>
</svg>
