<!-- Generated by IcoMoon.io -->
<svg version="1.1" xmlns="http://www.w3.org/2000/svg" width="32" height="32" viewBox="0 0 32 32">
<title>thunderstorm</title>
<path d="M26.688 7.424c-0.704-4.224-4.352-7.296-8.64-7.296-3.904 0-7.296 2.56-8.384 6.208-0.128 0-0.256 0-0.384 0-1.536 0-3.008 0.768-3.84 2.048-3.008 0.128-5.44 2.624-5.44 5.696 0 3.136 2.56 5.696 5.696 5.696h20.16c3.392 0 6.208-2.752 6.208-6.208-0.064-3.072-2.368-5.696-5.376-6.144zM25.792 18.688h-20.096c-2.56 0-4.672-2.112-4.672-4.672s2.112-4.672 4.608-4.672h0.384l0.128-0.256c0.64-1.088 1.856-1.792 3.136-1.792 0.192 0 0.448 0 0.64 0.064l0.448 0.064 0.128-0.448c0.832-3.456 3.968-5.888 7.488-5.888 3.904 0 7.232 2.944 7.68 6.784l0.064 0.32c0 0.192 0 0.448 0 0.64 0 4.288-3.456 7.744-7.744 7.744v1.024c4.864 0 8.768-3.904 8.768-8.768 0-0.128 0-0.256 0-0.384 2.368 0.448 4.16 2.56 4.16 5.056 0.064 2.88-2.24 5.184-5.12 5.184z"></path>
<path d="M13.376 21.056l-0.896-0.576-3.584 5.952h3.072l-3.136 4.864 0.896 0.576 4.096-6.464h-3.136z"></path>
<path d="M19.008 21.056l-0.896-0.576-3.52 5.952h3.072l-3.136 4.864 0.896 0.576 4.096-6.464h-3.136z"></path>
<path d="M7.68 21.056l-0.896-0.576-3.584 5.952h3.072l-3.072 4.864 0.832 0.576 4.16-6.464h-3.136z"></path>
<path d="M24.704 21.056l-0.896-0.576-3.584 5.952h3.072l-3.072 4.864 0.832 0.576 4.16-6.464h-3.136z"></path>
</svg>
