<!-- Generated by IcoMoon.io -->
<svg version="1.1" xmlns="http://www.w3.org/2000/svg" width="32" height="32" viewBox="0 0 32 32">
<title>windy</title>
<path d="M5.696 19.584h20.16c3.392 0 6.208-2.752 6.208-6.208 0-3.072-2.304-5.696-5.312-6.144-0.768-4.096-4.416-7.232-8.704-7.232-3.904 0-7.296 2.56-8.384 6.208-1.728-0.128-3.328 0.64-4.224 2.048-3.008 0.128-5.44 2.624-5.44 5.696 0 3.136 2.56 5.632 5.696 5.632zM5.632 9.28h0.384l0.128-0.256c0.64-1.088 1.856-1.792 3.136-1.792 0.192 0 0.448 0 0.64 0.064l0.448 0.064 0.128-0.448c0.832-3.456 3.968-5.888 7.488-5.888 3.904 0 7.232 2.944 7.68 6.784l0.064 0.32c0 0.192 0 0.448 0 0.64 0 4.288-3.456 7.744-7.744 7.744v1.024c4.864 0 8.768-3.904 8.768-8.768 0-0.128 0-0.256 0-0.384 2.368 0.448 4.16 2.56 4.16 5.056 0 2.816-2.304 5.184-5.184 5.184h-20.032c-2.56 0-4.672-2.112-4.672-4.672s2.112-4.672 4.608-4.672z"></path>
<path d="M27.84 23.232c0-1.408-1.152-2.56-2.56-2.56s-2.56 1.152-2.56 2.56v0.512h1.024v-0.512c0-0.832 0.704-1.536 1.536-1.536s1.536 0.704 1.536 1.536-0.704 1.536-1.536 1.536h-23.744v1.024h23.744c1.408 0 2.56-1.152 2.56-2.56z"></path>
<path d="M29.44 26.816h-23.744v1.024h23.744c0.832 0 1.536 0.704 1.536 1.536s-0.704 1.536-1.536 1.536-1.536-0.704-1.536-1.536v-0.512h-1.024v0.576c0 1.408 1.152 2.56 2.56 2.56s2.56-1.152 2.56-2.56c0-1.472-1.152-2.624-2.56-2.624z"></path>
<path d="M20.672 22.72h1.024v1.024h-1.024v-1.024z"></path>
<path d="M18.56 22.72h1.024v1.024h-1.024v-1.024z"></path>
<path d="M16.512 22.72h1.024v1.024h-1.024v-1.024z"></path>
<path d="M24.768 28.928h1.024v1.024h-1.024v-1.024z"></path>
<path d="M22.72 28.928h1.024v1.024h-1.024v-1.024z"></path>
<path d="M20.672 28.928h1.024v1.024h-1.024v-1.024z"></path>
</svg>
