<?xml version="1.0" encoding="utf-8"?>
<!-- Generator: Adobe Illustrator 19.2.1, SVG Export Plug-In . SVG Version: 6.00 Build 0)  -->
<svg version="1.1" id="Icons" xmlns="http://www.w3.org/2000/svg" xmlns:xlink="http://www.w3.org/1999/xlink" x="0px" y="0px"
	 viewBox="0 0 50 50" style="enable-background:new 0 0 50 50;" xml:space="preserve">
<style type="text/css">
	.st0{fill:#010002;}
</style>
<g>
	<g>
		<g>
			<rect x="19.2" y="20.8" width="11.7" height="8.3"/>
		</g>
	</g>
	<g>
		<g>
			<path d="M15.8,17.5v11.7h1.7V20c0-0.5,0.4-0.8,0.8-0.8h13.3c0.5,0,0.8,0.4,0.8,0.8v9.2h1.7V17.5H15.8z"/>
		</g>
	</g>
	<g>
		<g>
			<path d="M49.2,0H0.8C0.4,0,0,0.4,0,0.8v36.7c0,0.5,0.4,0.8,0.8,0.8h16.5c1,2.3,1.9,5.6,1.9,10c0,0.3,0.1,0.5,0.3,0.7
				c0.2,0.2,0.5,0.2,0.8,0.1l2.1-0.7l2.2,1.4C24.7,50,24.8,50,25,50c0.2,0,0.3,0,0.5-0.1l2.2-1.4l2.1,0.7c0.3,0.1,0.5,0,0.8-0.1
				c0.2-0.2,0.3-0.4,0.3-0.7c0-4.4,0.9-7.7,1.9-10h16.5c0.5,0,0.8-0.4,0.8-0.8V0.8C50,0.4,49.6,0,49.2,0z M18.4,36.8
				c-0.5-1.1-1.1-2-1.6-2.6h2.8C19.5,35.1,19,36,18.4,36.8z M19.8,39.9c-0.1-0.2-0.2-0.4-0.3-0.6c-0.1-0.3-0.2-0.6-0.3-0.9
				c0.5-0.6,1-1.3,1.4-2c0.2,0.8,0.6,1.5,1,2.3C21,39.2,20.5,39.6,19.8,39.9z M26.3,41.6c0.4-0.4,0.8-0.9,1.2-1.4
				c0.5,0.4,1.1,0.8,1.7,1.1c-0.3,0.4-0.7,0.8-1,1.2C27.5,42.3,26.9,42,26.3,41.6z M26.9,43.8c-0.6,0.5-1.2,1-1.9,1.4
				c-0.7-0.4-1.3-0.9-1.9-1.4c0.7-0.3,1.3-0.7,1.9-1.1C25.6,43.1,26.2,43.5,26.9,43.8z M27.3,37.4c-0.7-1-1.1-2.1-1.3-3.3h2.3
				C28.1,35.3,27.8,36.4,27.3,37.4z M26.3,39c-0.4,0.6-0.9,1.1-1.3,1.5c-0.5-0.5-0.9-1-1.3-1.5c0.5-0.7,1-1.4,1.3-2.2
				C25.3,37.6,25.8,38.3,26.3,39z M22.7,37.4c-0.5-1-0.8-2.1-1-3.3H24C23.8,35.4,23.4,36.5,22.7,37.4z M22.5,40.2
				c0.4,0.5,0.8,0.9,1.2,1.4c-0.6,0.4-1.2,0.7-1.9,1c-0.4-0.4-0.7-0.8-1-1.2C21.4,41,22,40.6,22.5,40.2z M21.8,46.9l-0.9,0.3
				c0-0.9-0.1-1.7-0.2-2.5c0.2-0.1,0.5-0.1,0.7-0.2c0.6,0.6,1.3,1.2,2,1.7C22.9,46.4,22.3,46.7,21.8,46.9z M25,48.2l-0.8-0.5
				c0.3-0.1,0.6-0.3,0.8-0.4c0.3,0.2,0.5,0.3,0.8,0.4L25,48.2z M29.2,47.2l-0.9-0.3c-0.6-0.2-1.1-0.5-1.6-0.7c0.7-0.5,1.4-1.1,2-1.7
				c0.2,0.1,0.5,0.1,0.7,0.2C29.3,45.5,29.2,46.3,29.2,47.2z M30.5,39.4c-0.1,0.2-0.2,0.4-0.3,0.6c-0.6-0.3-1.2-0.7-1.7-1.2
				c0.4-0.7,0.7-1.5,1-2.3c0.4,0.7,0.8,1.4,1.4,2C30.7,38.8,30.6,39.1,30.5,39.4z M31.6,36.8c-0.6-0.8-1-1.7-1.3-2.6h2.8
				C32.7,34.8,32.1,35.7,31.6,36.8z M45.8,35H34.6c0.5-0.7,0.9-1,0.9-1c0.3-0.2,0.4-0.6,0.2-0.9c-0.1-0.3-0.4-0.5-0.8-0.5H15
				c-0.3,0-0.7,0.2-0.8,0.5c-0.1,0.3,0,0.7,0.2,0.9c0,0,0.4,0.3,0.9,1H4.2c-0.5,0-0.8-0.4-0.8-0.8v-30c0-0.5,0.4-0.8,0.8-0.8h41.7
				c0.5,0,0.8,0.4,0.8,0.8l0,30C46.7,34.6,46.3,35,45.8,35z"/>
		</g>
	</g>
	<g>
		<g>
			<path d="M5,5v28.3h7.5V30c0-0.5,0.4-0.8,0.8-0.8h0.8V16.7c0-0.5,0.4-0.8,0.8-0.8h20c0.5,0,0.8,0.4,0.8,0.8v12.5h0.8
				c0.5,0,0.8,0.4,0.8,0.8v3.3H45V5H5z"/>
		</g>
	</g>
</g>
</svg>
