<?xml version="1.0" encoding="utf-8"?>
<!-- Generator: Adobe Illustrator 19.2.1, SVG Export Plug-In . SVG Version: 6.00 Build 0)  -->
<svg version="1.1" id="Icons" xmlns="http://www.w3.org/2000/svg" xmlns:xlink="http://www.w3.org/1999/xlink" x="0px" y="0px"
	 viewBox="0 0 50 50" style="enable-background:new 0 0 50 50;" xml:space="preserve">
<style type="text/css">
	.st0{fill:#010002;}
</style>
<g>
	<g>
		<g>
			<path d="M38.9,18.2h-3.5v4h3.5c1.4,0,2.6,1.2,2.6,2.6V36c0,1.4-1.1,2.6-2.6,2.6h-3.5v4h3.5c3.6,0,6.5-3,6.5-6.6V24.8
				C45.5,21.2,42.5,18.2,38.9,18.2z"/>
		</g>
	</g>
	<g>
		<g>
			<path d="M28.9,13.6c-1.4,2.2-3.8,3.9-6.7,4.2c-0.3,0-0.7,0-1,0c-2.2,0-4.3-0.8-5.9-2.2c-0.6-0.6-1.2-1.3-1.5-2H5.6v34
				C5.6,48.9,6.7,50,8,50h23.3c1.3,0,2.3-1.1,2.3-2.4v-34H28.9z M13,44.6c0,0.5-0.4,0.9-0.9,0.9c-0.5,0-0.9-0.4-0.9-0.9V28.3
				c0-0.5,0.4-0.9,0.9-0.9s0.9,0.4,0.9,0.9V44.6z M20.6,44.6c0,0.5-0.4,0.9-0.9,0.9s-0.9-0.4-0.9-0.9V29.9c0-0.5,0.4-0.9,0.9-0.9
				s0.9,0.4,0.9,0.9V44.6z M27.7,44.6c0,0.5-0.4,0.9-0.9,0.9s-0.9-0.4-0.9-0.9V28.3c0-0.5,0.4-0.9,0.9-0.9s0.9,0.4,0.9,0.9V44.6z"/>
		</g>
	</g>
	<g>
		<g>
			<path d="M28.7,3.7c-1.5,0-2.9,0.5-3.9,1.5c-0.2,0.2-0.6,0.3-0.9,0.2c-0.3-0.1-0.5-0.3-0.6-0.6c-1-2.9-3.7-4.8-6.7-4.8
				c-3.2,0-6,2.1-6.8,5.2c-0.1,0.4-0.6,0.7-1,0.7c-0.2,0-0.3,0-0.5,0c-2,0-3.6,1.7-3.6,3.7c0,0.8,0.3,1.6,0.7,2.2h7.9
				c-0.1-0.4-0.1-0.7-0.1-1.1c0-0.5,0.4-1,0.9-1c0.5,0,0.9,0.4,1,0.9c0,1.4,0.6,2.7,1.7,3.6c1.5,1.3,3.5,2,5.5,1.7
				c3.2-0.3,5.7-2.8,6.2-5.9c0.1-0.5,0.6-0.8,1.1-0.8c0.5,0.1,0.8,0.6,0.8,1.1c-0.1,0.5-0.2,0.9-0.3,1.4h4.3
				c0.3-0.8,0.4-1.5,0.4-2.2C34.5,6.3,31.9,3.7,28.7,3.7z"/>
		</g>
	</g>
</g>
</svg>
