<?xml version="1.0" encoding="utf-8"?>
<!-- Generator: Adobe Illustrator 19.2.1, SVG Export Plug-In . SVG Version: 6.00 Build 0)  -->
<svg version="1.1" id="Icons" xmlns="http://www.w3.org/2000/svg" xmlns:xlink="http://www.w3.org/1999/xlink" x="0px" y="0px"
	 viewBox="0 0 50 50" style="enable-background:new 0 0 50 50;" xml:space="preserve">
<style type="text/css">
	.st0{fill:#010002;}
</style>
<g>
	<g>
		<g>
			<g>
				<path d="M42.6,1c-0.7-0.7-1.6-1-2.9-1c-3.3,0-8.4,2.4-14.2,6.8C19.3,11.2,11.2,20.1,9,23c-6.7,8.6-9.2,15.6-6.6,18.2
					c0.7,0.7,1.6,1,2.9,1h0c5.2,0,14.6-6,23.5-14.8c5.4-5.4,9.8-11.1,12.4-16C43.8,6.4,44.3,2.7,42.6,1z M15.6,30.2
					c-1.5-0.5-3.2-1.4-5-2.5c-0.8-0.5-1.6-1-2.3-1.6c0.5-0.7,1-1.3,1.5-2c0.8,0.4,1.6,0.8,2.3,1.3c1.8,1.1,3.4,2.4,4.4,3.5
					c1.1,1.1,1.2,1.6,1.2,1.7C17.6,30.6,17.1,30.7,15.6,30.2z M27.2,20.8c0,0-0.2,0.1-0.6,0.1c-0.4,0-1.1-0.1-2.4-0.5
					c-2-0.7-4.4-1.8-6.8-3.4c-0.3-0.2-0.7-0.4-1-0.7c1-1,2-2,3-2.9c0.1,0,0.2,0.1,0.2,0.1c2.4,1.5,4.5,3.2,6,4.6
					C27,19.8,27.3,20.7,27.2,20.8z M34.2,10.1c0,0-0.1,0.1-0.4,0.1c-0.3,0-0.8-0.1-1.7-0.4c-1.5-0.5-3.2-1.4-5-2.5
					c0,0-0.1,0-0.1-0.1c0.8-0.6,1.7-1.2,2.5-1.7C33,8,34.3,9.9,34.2,10.1z"/>
			</g>
		</g>
	</g>
	<g>
		<g>
			<g>
				<path d="M42,47.3L42,47.3L42,47.3c0.2-0.1,4-2.9,5.1-5.8l-12.2-8.6l-3.8,2.7L34.8,50C38,50,41.9,47.5,42,47.3z"/>
			</g>
		</g>
		<g>
			<g>
				<path d="M36.5,31.9l10.3,7.2c1-1.6,1.5-3.3,1.8-4.5c0.2-0.8,0-1.7-0.5-2.3c-0.1-0.1-0.2-0.3-0.3-0.4l-10.4-1.6L36.5,31.9
					L36.5,31.9z"/>
			</g>
		</g>
		<g>
			<g>
				<path d="M27.9,48.9c1.2,0.2,2.9,0.3,4.8,0l-3.1-12.2l-1.7,0.2l-2.2,10.3l0,0l0,0c0.1,0.1,0.1,0.3,0.2,0.4
					C26.3,48.3,27,48.7,27.9,48.9z"/>
			</g>
		</g>
		<g>
			<g>
				<path d="M22.9,45.3c0.4,0.3,0.8,0.5,1.2,0.6l1.7-7.7c-1.6-0.1-3.1-0.5-4-0.9c-0.6-0.2-1.3-0.1-1.8,0.2c0,0-0.1,0.1-0.1,0.1
					c-0.6,0.4-0.8,1.1-0.7,1.8C19.4,41.8,20.7,43.9,22.9,45.3z"/>
			</g>
		</g>
		<g>
			<g>
				<path d="M47.1,30c0-0.4-0.1-0.8-0.2-1.3c-0.5-2.5-2-4.5-4.2-5.7c-0.6-0.3-1.3-0.3-1.9,0.1c0,0-0.1,0.1-0.1,0.1
					c-0.5,0.4-0.9,1-0.9,1.6c0,1-0.1,2.6-0.6,4.1L47.1,30z"/>
			</g>
		</g>
	</g>
</g>
</svg>
