<?xml version="1.0" encoding="utf-8"?>
<!-- Generator: Adobe Illustrator 19.2.1, SVG Export Plug-In . SVG Version: 6.00 Build 0)  -->
<svg version="1.1" id="Icons" xmlns="http://www.w3.org/2000/svg" xmlns:xlink="http://www.w3.org/1999/xlink" x="0px" y="0px"
	 viewBox="0 0 50 50" style="enable-background:new 0 0 50 50;" xml:space="preserve">
<style type="text/css">
	.st0{fill:#010002;}
</style>
<g>
	<g>
		<path d="M11.7,14.1v0.6v3.2c0,0.3,0.3,0.6,0.6,0.6h1.8c0.3,0,0.6-0.3,0.6-0.6v-3.2v-0.6c-0.5,0.2-1,0.3-1.5,0.3
			C12.7,14.4,12.2,14.2,11.7,14.1z"/>
		<path d="M22.7,3.5c-0.3,0.2-0.5,0.5-0.6,0.8c-0.3,0.7-1,1-1.6,1c0,0,0,0,0,0H23h3.2h1.1c0.1,0.1,0.3,0.1,0.4,0.1c0,0,0,0,0,0
			c0.2,0,0.3-0.1,0.4-0.1h1H30h0.4c0.3-0.1,0.7-0.2,1-0.1c0.1,0,0.1,0.1,0.2,0.1h0.2c-0.1-0.1-0.3-0.1-0.4-0.2
			c-0.5-0.4-0.8-1.1-0.6-1.7H30h-0.8h-0.9c-0.4-1.3-1.1-2-1.8-2.3c-0.4-0.2-0.9-0.1-1.1,0.4c-0.2,0.4-0.1,0.9,0.4,1.1
			c0.3,0.1,0.6,0.4,0.8,0.8h-1c-0.1,0-0.1-0.1-0.2-0.1c-0.5-0.3-0.8-0.8-0.9-1.3c-0.2,0.6-0.6,1-1.2,1.1C23.1,3.3,22.9,3.4,22.7,3.5
			z"/>
		<path d="M17.2,5.3h2.5c0.1,0,0.2-0.1,0.3-0.1c0,0,0.1,0,0.1,0c-0.1,0-0.1,0-0.2-0.1c-0.7-0.3-1.1-1-1-1.7h-4
			C15.8,3.8,16.6,4.5,17.2,5.3z"/>
		<path d="M11.5,3.5H0.9C0.4,3.5,0,3.9,0,4.4c0,0.5,0.4,0.9,0.9,0.9h8.3C9.8,4.5,10.6,3.8,11.5,3.5z"/>
		<path d="M9.4,8.8c0,2.4,1.7,4.4,3.8,4.4c2.1,0,3.8-2,3.8-4.4c0-2.4-1.7-4.4-3.8-4.4C11.1,4.4,9.4,6.3,9.4,8.8z"/>
		<path d="M16.7,14.7c0,0-0.3,0-0.7,0v10.4h2.2v-3.3l1.3,1.9c0.3,0.5,0.9,0.8,1.5,0.8c0.1,0,0.1,0,0.2,0l4.2-0.5c1-0.1,1.7-1,1.6-2
			c-0.1-1-1-1.7-2-1.6l-3.1,0.4l-3.5-5.2C17.9,14.9,17.3,14.7,16.7,14.7z"/>
		<path d="M39.9,11.7c0.4,0,0.7-0.3,0.8-0.6c0,0,0.2-0.7,0.3-1.8c0-0.5-0.3-0.9-0.8-0.9c-0.4,0-0.9,0.3-0.9,0.8
			c-0.1,0.9-0.2,1.5-0.2,1.5c-0.1,0.4,0.2,0.9,0.6,1C39.7,11.7,39.8,11.7,39.9,11.7z"/>
		<path d="M30.5,11c0.4,0,0.8-0.4,0.8-0.8c0-1.1,0.2-2.2,0.5-3.2c0.1-0.4-0.1-0.9-0.6-1c-0.5-0.1-0.9,0.1-1,0.6
			c-0.3,1.1-0.5,2.3-0.5,3.5C29.6,10.6,30,11,30.5,11C30.5,11,30.5,11,30.5,11z"/>
		<path d="M32.4,4.6c0.3,0,0.5-0.1,0.7-0.3c0.6-0.8,1.4-1.3,2.2-1.4C35.7,2.9,36,2.5,36,2c0-0.5-0.4-0.8-0.9-0.8
			c-1.3,0.1-2.5,0.8-3.4,2c-0.3,0.4-0.2,0.9,0.2,1.2C32,4.6,32.2,4.6,32.4,4.6z"/>
		<path d="M31.6,17.7c0.1,0,0.2,0,0.4-0.1c0.4-0.2,0.6-0.7,0.4-1.1c-0.4-0.8-0.7-1.9-0.9-3c-0.1-0.5-0.5-0.8-1-0.7
			c-0.5,0.1-0.8,0.5-0.7,1c0.2,1.3,0.5,2.5,1,3.5C31,17.5,31.3,17.7,31.6,17.7z"/>
		<path d="M27.5,7.1c-0.4-0.1-0.9,0.1-1,0.6c-0.3,0.9-0.7,1.9-1.2,3c-0.2,0.4,0,0.9,0.4,1.1c0.1,0.1,0.2,0.1,0.3,0.1
			c0.3,0,0.6-0.2,0.8-0.5c0.5-1.1,0.9-2.2,1.2-3.2C28.2,7.7,27.9,7.3,27.5,7.1z"/>
		<path d="M20.3,13.7c0.5,1.9,1,3.2,1,3.3c0.1,0.3,0.4,0.5,0.8,0.5c0.1,0,0.2,0,0.3-0.1c0.4-0.2,0.6-0.6,0.5-1.1c0,0-0.5-1.3-1-3.1
			c-0.1-0.4-0.6-0.7-1-0.6C20.4,12.8,20.1,13.3,20.3,13.7z"/>
		<path d="M20,6.1C20,6.1,20,6.1,20,6.1c-0.5,0-0.8,0.4-0.8,0.8c0,1,0.1,2.2,0.3,3.5c0.1,0.4,0.4,0.7,0.8,0.7c0,0,0.1,0,0.1,0
			c0.5-0.1,0.8-0.5,0.7-1c-0.2-1.2-0.3-2.2-0.3-3.2C20.8,6.5,20.4,6.1,20,6.1z"/>
		<path d="M20.2,4.4c0.1,0,0.2,0.1,0.3,0.1c0.3,0,0.6-0.2,0.8-0.5c0.4-0.9,1-1.4,1.8-1.6c0.4-0.1,0.7-0.6,0.6-1
			c-0.1-0.4-0.5-0.7-1-0.6c-1.4,0.3-2.4,1.2-3,2.6C19.6,3.8,19.8,4.3,20.2,4.4z"/>
		<path d="M45.4,27.4H18.1v-1.1h-1.6v1.1H10v-1.1H8.3v1.1H5.5c-0.2,0-0.3,0-0.4,0c0.1-0.1,0.2-0.2,0.3-0.3l3.1-5v2.9h2.1V14.7
			c-0.4,0-0.7,0-0.7,0c-0.7,0-1.3,0.3-1.7,0.8l-6,9.7c-0.5,0.9-0.3,2,0.6,2.5C3,27.9,3.3,28,3.6,28c-0.8,0.6-1.4,1.5-1.4,2.6v18.2
			c0,0.4,0.3,0.7,0.7,0.7h2.1c0.4,0,0.7-0.3,0.7-0.7v-9h2.5V40V46c0,1.2,1,2.2,2.2,2.2c1.2,0,2.2-1,2.2-2.2V40v-0.1h0.9V46
			c0,1.2,1,2.2,2.2,2.2c1.2,0,2.2-1,2.2-2.2v-6.2h27v9c0,0.4,0.3,0.7,0.7,0.7h2.1c0.4,0,0.7-0.3,0.7-0.7V30.6
			C48.6,28.9,47.2,27.4,45.4,27.4z"/>
		<path d="M42.1,18.3l-0.2,0c-2.6,0-4.7,1.1-4.7,2.4c0,1.4,2.2,2.6,4.8,2.6l0.2,0c2.6,0,4.7-1.1,4.7-2.4
			C46.9,19.5,44.7,18.3,42.1,18.3z M43,22.6c-0.9,0-1.6-0.4-1.6-1c0-0.5,0.8-0.9,1.7-0.9c0.9,0,1.6,0.4,1.6,1
			C44.7,22.3,43.9,22.7,43,22.6z"/>
		<path d="M48,5.3h1.1c0.5,0,0.9-0.4,0.9-0.9c0-0.5-0.4-0.9-0.9-0.9h-1.7c0.1-1.2,0.4-1.4,0.4-1.4c0.1,0,0.2,0,0.3,0.1
			c0.4,0.2,0.9,0.2,1.1-0.2c0.3-0.4,0.2-0.9-0.2-1.2c-0.4-0.3-1.3-0.6-2.1-0.1c-0.7,0.4-1.2,1.4-1.3,2.8h-2.4h-2.5h-1
			c-0.3-0.4-0.6-0.8-1-1.2C38.5,2,38,2.1,37.7,2.5c-0.2,0.3-0.2,0.7,0,1h-0.9c-0.1-0.2-0.1-0.5-0.1-0.7c-0.1,0.3-0.3,0.6-0.6,0.7
			c-0.2,0.2-0.5,0.3-0.8,0.3c-0.2,0-0.9,0.1-1.6,1c-0.2,0.3-0.5,0.4-0.8,0.5h3.4h1.7H39C39,5.6,39.1,5.8,39.2,6
			c0.1,0.4,0.4,0.7,0.8,0.7c0.1,0,0.1,0,0.2,0c0.4-0.1,0.7-0.5,0.6-1c0-0.1-0.1-0.2-0.1-0.3h0.9h1.8h1.9c-0.3,2.6-1.5,6.1-5.5,9.3
			c-1.3,1-2.7,2.3-3.7,3.5c-0.2,0.2-0.4,0.5-0.5,0.7c-0.1,0-0.1,0-0.2,0c-0.4,0-0.8-0.1-1.2-0.3c-0.4-0.2-0.9-0.1-1.1,0.4
			c-0.2,0.4-0.1,0.9,0.4,1.1c0.4,0.2,0.9,0.3,1.4,0.4c-0.1,0.3-0.1,0.6-0.1,0.8c0,1.7,1.7,3.2,6.4,4.1c11,2.2,8.6-10,8.6-10
			S48.6,6.8,48,5.3z M42.2,24.1l-0.2,0c-3.2-0.1-5.6-1.6-5.6-3.4c0-1.8,2.5-3.2,5.5-3.2l0.2,0c3.2,0.1,5.6,1.6,5.6,3.4
			C47.7,22.7,45.2,24.1,42.2,24.1z"/>
	</g>
</g>
</svg>
