<?xml version="1.0" encoding="utf-8"?>
<!-- Generator: Adobe Illustrator 19.2.1, SVG Export Plug-In . SVG Version: 6.00 Build 0)  -->
<svg version="1.1" id="Icons" xmlns="http://www.w3.org/2000/svg" xmlns:xlink="http://www.w3.org/1999/xlink" x="0px" y="0px"
	 viewBox="0 0 50 50" style="enable-background:new 0 0 50 50;" xml:space="preserve">
<style type="text/css">
	.st0{fill:#010002;}
</style>
<g>
	<g>
		<g>
			<path d="M40.5,15.1c0,0,0-0.1-0.1-0.1c-0.1-0.1-0.2-0.3-0.4-0.3c0,0,0,0,0,0c0,0,0,0,0,0c-0.1,0-0.3-0.1-0.4-0.1c0,0-0.1,0-0.1,0
				c-0.1,0-0.2,0-0.3,0.1c-0.1,0-0.2,0.1-0.3,0.1c0,0-0.1,0-0.1,0l-0.4,0.4c-0.1,0-0.2,0.1-0.3,0.1s-0.2,0.1-0.4,0.1
				c-0.2,0-0.4,0.1-0.6,0.1c-0.2,0-0.3,0.1-0.5,0.1c-0.2,0-0.5,0.1-0.8,0.1c-0.2,0-0.4,0.1-0.7,0.1c-0.3,0-0.7,0.1-1,0.1
				c-0.3,0-0.5,0.1-0.8,0.1c-0.4,0-0.8,0.1-1.2,0.1c-0.3,0-0.6,0.1-0.9,0.1c-0.5,0-1,0.1-1.5,0.1c-0.3,0-0.6,0-1,0.1
				c-0.6,0-1.2,0-1.9,0.1c-0.3,0-0.6,0-0.9,0c-1,0-2,0-3.1,0c-1,0-1.9,0-2.8,0c-0.3,0-0.6,0-0.8,0c-0.2,0-0.5,0-0.7,0l-1.3-1.9
				c1.7-0.1,3.6-0.1,5.6-0.1h4.2c0.6,0,1-0.5,1-1s-0.5-1-1-1h-4.2c-2.3,0-4.8,0-7.1,0.2l-3.4-4.8l9-6c0.4-0.3,0.6-0.7,0.4-1.2
				c-0.1-0.4-0.5-0.7-1-0.7H6.3c-0.4,0-0.8,0.3-1,0.7L1.1,13.2c-0.1,0.4,0,0.9,0.4,1.2c0.2,0.1,0.4,0.2,0.6,0.2
				c0.2,0,0.4-0.1,0.6-0.2l8-5.4l2.7,3.8c-3.9,0.3-7.1,1-7.9,2.1c0,0-0.1,0.1-0.1,0.1c-0.1,0.2-0.2,0.3-0.2,0.5
				c0,0.2,0.1,0.3,0.1,0.5c0,0,0.1,0.1,0.1,0.1c0.1,0.1,0.1,0.2,0.3,0.3c0,0,0,0,0,0l16.1,16.1v11.1c-8.3,1-8.3,2.3-8.3,3
				c0,3,7.8,3.1,9.4,3.1s9.4-0.2,9.4-3.1c0-0.8,0-2-8.3-3V32.7l16.1-16.1c0,0,0,0,0,0c0.1-0.1,0.2-0.2,0.3-0.3c0,0,0.1-0.1,0.1-0.1
				c0.1-0.2,0.1-0.3,0.1-0.5C40.6,15.4,40.6,15.3,40.5,15.1z M15.2,16.4c-0.3,0-0.5,0-0.8-0.1c-0.5,0-0.9-0.1-1.4-0.1
				c-0.2,0-0.4,0-0.6-0.1c-0.6-0.1-1.2-0.1-1.7-0.2c-0.1,0-0.2,0-0.3,0c-0.4-0.1-0.8-0.1-1.1-0.2c-0.1,0-0.3,0-0.4-0.1
				c-0.2,0-0.3-0.1-0.5-0.1c1.3-0.3,3.5-0.6,6.3-0.8l1.2,1.6C15.7,16.5,15.5,16.4,15.2,16.4z"/>
		</g>
	</g>
	<g>
		<g>
			<path d="M39.6,6.2c-4.7,0-8.8,3.8-9.4,8.3c3.7-0.2,6.3-0.8,7.3-1c0.6-0.6,1.2-1,2.1-1c0.4,0,0.8,0.1,1.2,0.2
				c1.2,0.5,1.9,1.6,1.9,2.9c0,1-0.5,1.9-1.3,2.6l-4.3,4.3l-0.2,1c-0.1,0.3,0,0.6,0.1,0.8c0.2,0.2,0.4,0.4,0.7,0.4
				c0.6,0.1,1.3,0.2,1.9,0.2c5.2,0,9.4-4.2,9.4-9.4S44.8,6.2,39.6,6.2z"/>
		</g>
	</g>
</g>
</svg>
