<?xml version="1.0" encoding="utf-8"?>
<!-- Generator: Adobe Illustrator 19.2.1, SVG Export Plug-In . SVG Version: 6.00 Build 0)  -->
<svg version="1.1" id="Icons" xmlns="http://www.w3.org/2000/svg" xmlns:xlink="http://www.w3.org/1999/xlink" x="0px" y="0px"
	 viewBox="0 0 50 50" style="enable-background:new 0 0 50 50;" xml:space="preserve">
<style type="text/css">
	.st0{fill:#010002;}
</style>
<g>
	<g>
		<g>
			<path class="st0" d="M25.7,28.2c0.1-0.7,0.4-1.4,0.8-2c0.3-0.5,0.8-0.9,1.2-1.2c-0.1-0.2-0.1-0.4-0.1-0.6
				c-0.2-1.3,0.1-2.5,0.8-3.5c-1-0.7-1.7-1.8-1.9-3.1c-0.1-0.8,0-1.6,0.2-2.4c0,0,0,0,0,0c-4.6-4-8.5-2.2-10.5-1.1
				c-1,0.6-1.8,0.8-2.3,0.9c-0.5,0-1.3,0.1-2.4-0.2c-2.2-0.4-6.5-0.8-9.6,4.4c-1.1,1.8-0.7,5.2,0.6,8.7L25.7,28.2L25.7,28.2
				L25.7,28.2z M7.6,18.4c1.4-0.8,2.7,1.4,1.3,2.2C6.7,21.8,6.4,24,8,25.9c1,1.3-0.8,3.1-1.8,1.8C3.6,24.6,3.8,20.5,7.6,18.4z"/>
			<path class="st0" d="M7.1,4.5C5.9,3.7,5,5.7,6.2,6.4c3.3,2.1,5.7,3.1,6.4,7.2c0.2,1.4,2.4,1.2,2.1-0.2c-0.1-0.4-0.2-0.9-0.3-1.3
				c-0.7-0.2-1.5-0.8-2-2.3c-0.2-0.6-0.2-1.1-0.2-1.6C10.9,6.9,9.2,5.8,7.1,4.5z"/>
			<path class="st0" d="M30.7,28.2c-0.7-0.3-1.4-0.7-1.9-1.3c-0.2-0.3-0.4-0.5-0.6-0.9c-0.3,0.2-0.6,0.5-0.8,0.8
				c-0.3,0.4-0.5,0.9-0.6,1.4h1.8H30.7z"/>
			<path class="st0" d="M34.7,28.2c0,0,0-0.1,0-0.1c-0.1,0-0.1,0.1-0.2,0.1H34.7z"/>
			<path class="st0" d="M33.9,21.3c-0.5,0.3-1.1,0.6-1.8,0.7c-0.3,0-0.5,0.1-0.8,0.1c-0.7,0-1.4-0.2-2.1-0.5
				c-0.1,0.2-0.2,0.3-0.3,0.5c-0.3,0.7-0.5,1.5-0.3,2.3c0,0.1,0,0.2,0.1,0.2c0,0.2,0.1,0.3,0.1,0.5c0,0.1,0.1,0.1,0.1,0.2
				c0,0.1,0.1,0.2,0.1,0.2c0.7,1.2,1.9,2,3.4,2c0.2,0,0.4,0,0.6-0.1c0.3,0,0.6-0.1,0.8-0.2c0.1-0.1,0.3-0.1,0.4-0.2
				c0-0.1,0-0.2-0.1-0.2c0,0,0,0,0,0c-0.1-0.3-0.1-0.6-0.1-0.9c0-1,0.3-1.9,0.9-2.7C34.5,22.7,34.2,22,33.9,21.3z"/>
			<path class="st0" d="M35.2,26.6c0,0.1,0,0.1,0,0.2c0,0.1,0,0.1,0,0.2c0,0.1,0,0.2,0.1,0.3c0,0.1,0.1,0.1,0.1,0.2
				c0,0.1,0.1,0.2,0.1,0.3c0.1,0.2,0.2,0.3,0.3,0.5h2.7h0.8h0.7h2c0-0.1,0.1-0.1,0.1-0.2c-1.1-0.7-2-1.9-2.2-3.3c0-0.1,0-0.1,0-0.2
				c-0.2,0.1-0.5,0.1-0.7,0.2c-0.3,0-0.5,0.1-0.8,0.1c-0.5,0-0.9-0.1-1.4-0.2c-0.2,0-0.3-0.1-0.5-0.2c-0.2-0.1-0.3-0.1-0.5-0.2
				c-0.1-0.1-0.3-0.2-0.4-0.3c-0.5,0.7-0.7,1.6-0.6,2.5C35.2,26.5,35.2,26.5,35.2,26.6z"/>
			<path class="st0" d="M33.8,19c0.2-1,0.7-1.9,1.4-2.6c-0.3-1.8-1.9-3.2-3.8-3.2c-0.2,0-0.4,0-0.6,0.1c-1,0.2-1.9,0.7-2.5,1.6
				c-0.3,0.5-0.6,1-0.7,1.6c-0.1,0.4-0.1,0.9,0,1.3c0.1,0.9,0.6,1.6,1.2,2.2c0.1,0.1,0.2,0.2,0.3,0.3c0.1,0.1,0.3,0.2,0.4,0.3
				c0.2,0.1,0.3,0.2,0.5,0.2c0.4,0.2,0.9,0.2,1.3,0.2c0.2,0,0.4,0,0.6-0.1c0.6-0.1,1.2-0.4,1.7-0.8c0,0,0,0,0-0.1c0-0.2,0-0.3,0-0.5
				C33.7,19.4,33.8,19.2,33.8,19z"/>
			<path class="st0" d="M36.1,22.8c0,0,0.1,0.1,0.1,0.1c0.1,0.1,0.2,0.2,0.3,0.2c0.1,0.1,0.2,0.1,0.3,0.2c0.2,0.1,0.3,0.2,0.5,0.2
				c0.4,0.1,0.8,0.2,1.3,0.2c0.2,0,0.4,0,0.6-0.1c0.3,0,0.6-0.1,0.9-0.3c0-0.4,0.1-0.7,0.2-1c0.1-0.2,0.1-0.3,0.2-0.5
				c0.1-0.2,0.2-0.3,0.3-0.5c0.1-0.1,0.1-0.2,0.2-0.4c0.4-0.6,0.9-1,1.5-1.3c0-0.2,0-0.3,0-0.5c-0.2-1.3-1.1-2.4-2.3-2.9
				c0-0.2,0.1-0.3,0.1-0.5c0.1-0.2,0.1-0.3,0.2-0.5c1.1-2.8,3.4-4.8,6-6.4c1.1-0.7,0.3-2.5-0.8-1.8c-3.2,2-5.9,4.4-7.1,7.9
				c-0.1,0.2-0.1,0.4-0.2,0.5c-0.1,0.2-0.1,0.3-0.1,0.5c-0.1,0-0.1,0-0.2,0c-0.7,0.1-1.3,0.4-1.8,0.8c-0.2,0.1-0.3,0.3-0.5,0.5
				c-0.5,0.6-0.8,1.3-0.9,2.1c0,0.1,0,0.3,0,0.4c0,0.1,0,0.1,0,0.2c0,0.2,0,0.3,0,0.5c0,0,0,0,0,0c0,0.1,0,0.1,0,0.1
				c0.1,0.7,0.5,1.3,0.9,1.7C35.8,22.6,36,22.7,36.1,22.8z"/>
			<path class="st0" d="M43.2,27.3c0.2,0.1,0.3,0.1,0.5,0.2c0.4,0.1,0.8,0.2,1.3,0.2c0.2,0,0.4,0,0.6-0.1c1-0.2,1.9-0.7,2.5-1.6
				c0.6-0.8,0.8-1.9,0.7-2.9c-0.3-1.9-1.9-3.2-3.8-3.2c-0.2,0-0.4,0-0.6,0.1c-0.3,0-0.6,0.1-0.9,0.3c-0.2,0.1-0.4,0.2-0.6,0.3
				c-0.2,0.2-0.5,0.3-0.7,0.5c-0.2,0.2-0.3,0.3-0.4,0.5c-0.1,0.1-0.1,0.2-0.1,0.2c-0.1,0.1-0.2,0.3-0.3,0.5c0,0.1-0.1,0.2-0.1,0.3
				c0,0.1-0.1,0.2-0.1,0.2c-0.1,0.2-0.1,0.4-0.1,0.6c0,0.2,0,0.4,0,0.6c0,0.2,0,0.3,0,0.5c0.2,1.1,0.8,2,1.6,2.5
				C42.9,27.2,43,27.3,43.2,27.3z"/>
			<path class="st0" d="M42.7,13.6c-2.9,5,5.1,5.5,7.3,3.4C50,17,45.5,8.7,42.7,13.6z"/>
			<path class="st0" d="M24.3,45.7c13.4,0,24.3-3.2,24.3-16.6h-5.8h-0.7h-0.8h-0.5h-0.6h-0.6h-2.8H36h-0.6h-0.1h-0.4h-0.5h-0.8h-0.6
				h-0.6h-3.9h-1.7h-0.5h-0.5H2.9H0C0,42.5,10.9,45.7,24.3,45.7z"/>
			<path class="st0" d="M19.4,7.2C18.8,7.1,17.7,7,16.6,7c-1.7,0-2.9,0.3-3.3,1C13,8.3,13,8.8,13.2,9.4c0,0.1,0,0.1,0,0.2
				c0.2,0.6,0.5,1,0.8,1.3c0.3,0.3,0.7,0.5,1.2,0.5C16.8,11.4,18.7,9.4,19.4,7.2z"/>
		</g>
	</g>
</g>
</svg>
