<?xml version="1.0" encoding="utf-8"?>
<!-- Generator: Adobe Illustrator 19.2.1, SVG Export Plug-In . SVG Version: 6.00 Build 0)  -->
<svg version="1.1" id="Icons" xmlns="http://www.w3.org/2000/svg" xmlns:xlink="http://www.w3.org/1999/xlink" x="0px" y="0px"
	 viewBox="0 0 50 50" style="enable-background:new 0 0 50 50;" xml:space="preserve">
<style type="text/css">
	.st0{fill:#010002;}
</style>
<g>
	<g>
		<g>
			<path d="M37.5,7.1h-3.6c-2,0-3.6,1.6-3.6,3.6v0.1c2.2,1.2,3.5,3.5,3.6,6c0.5,0.2,0.9,0.5,1.2,1c0.2,0.3,0.6,0.4,1,0.2
				c0.1-0.1,0.1-0.1,0.2-0.2c0.7-1.2,2.2-1.5,3.4-0.8c0.1,0.1,0.3,0.2,0.4,0.3l1-1.2v-5.4C41.1,8.7,39.5,7.1,37.5,7.1z"/>
		</g>
	</g>
	<g>
		<g>
			<path d="M37.5,0l-3.6,0C33.4,0,33,0.4,33,0.9v0v0.9h4.5h0.9V0.9C38.4,0.4,38,0,37.5,0z"/>
		</g>
	</g>
	<g>
		<g>
			<path d="M21.4,6.2c0-1.5-1.2-2.7-2.7-2.7s-2.7,1.2-2.7,2.7v10.6c1.1-0.5,2.4,0,3,1l0,0c0.1,0.2,0.4,0.3,0.7,0.3
				c-0.4-2.1,0.2-4.3,1.7-5.9L21.4,6.2L21.4,6.2z M17.2,9.2l0.9-0.9C18.5,8,19,8,19.4,8.3c0.3,0.3,0.3,0.9,0,1.3l-0.9,0.9
				c-0.4,0.3-0.9,0.3-1.3,0C16.9,10.1,16.9,9.5,17.2,9.2z M19.4,13.1L18.5,14c-0.4,0.3-0.9,0.3-1.3,0c-0.3-0.3-0.3-0.9,0-1.3
				l0.9-0.9c0.4-0.3,0.9-0.3,1.3,0C19.7,12.2,19.7,12.8,19.4,13.1z"/>
		</g>
	</g>
	<g>
		<g>
			<path d="M35.7,3.6c-0.5,0-0.9,0.4-0.9,0.9v0.9h1.8V4.5C36.6,4,36.2,3.6,35.7,3.6z"/>
		</g>
	</g>
	<g>
		<g>
			<path d="M40.7,19.3c-0.1,0.1-0.2,0.1-0.2,0.2c0,0,0,0,0,0c-0.1,0-0.1,0.1-0.2,0.1c-0.2,0.1-0.4,0.1-0.6-0.1
				c-0.1,0-0.1-0.1-0.2-0.1c0,0,0,0,0,0c-0.1-0.1-0.1-0.2-0.2-0.2L39,18.8c-0.2-0.3-0.6-0.4-0.9-0.2c-0.1,0.1-0.2,0.1-0.2,0.2
				c-0.7,1.2-2.2,1.5-3.4,0.8c-0.3-0.2-0.6-0.5-0.8-0.8c-0.2-0.3-0.6-0.4-1-0.2c-0.1,0.1-0.1,0.1-0.2,0.2c-0.7,1.2-2.2,1.5-3.4,0.8
				c-0.3-0.2-0.6-0.5-0.8-0.8c-0.2-0.3-0.6-0.4-1-0.2c-0.1,0.1-0.1,0.1-0.2,0.2c-0.7,1.2-2.2,1.5-3.4,0.8c-0.3-0.2-0.6-0.5-0.8-0.8
				c-0.2-0.3-0.6-0.4-1-0.2c-0.1,0.1-0.1,0.1-0.2,0.2c-0.7,1.2-2.2,1.5-3.4,0.8c-0.3-0.2-0.6-0.5-0.8-0.8c-0.2-0.3-0.6-0.4-1-0.2
				c-0.1,0.1-0.1,0.1-0.2,0.2c-0.1,0.2-0.3,0.4-0.6,0.6c-0.1,0.1-0.1,0.1-0.2,0.2c-1.1,0.7-2.6,0.4-3.4-0.7c0,0,0-0.1-0.1-0.1
				c-0.2-0.3-0.6-0.4-1-0.2c-0.1,0.1-0.1,0.1-0.2,0.2l-0.3,0.5c0,0-0.1,0.1-0.1,0.1c0,0-0.1,0.1-0.1,0.1c0,0,0,0,0,0
				c-0.1,0-0.1,0.1-0.2,0.1c0,0-0.1,0.1-0.1,0.1c-0.1,0-0.1,0-0.2,0c-0.1,0-0.1,0-0.2,0c0,0-0.1,0-0.1,0c-0.1,0-0.1,0-0.2-0.1
				c0,0,0,0,0,0c0,0-0.1-0.1-0.1-0.1c0,0-0.1-0.1-0.1-0.1l-2.2-2.6v27.5c0,0.6,0.2,1.2,0.6,1.7l2,2.4c0.8,1,2.1,1.6,3.4,1.6h23.6
				c1.3,0,2.6-0.6,3.4-1.6l2-2.4c0.4-0.5,0.6-1.1,0.6-1.7V16.7L40.7,19.3z M10.7,43.8c0,0.5-0.4,0.9-0.9,0.9c-0.5,0-0.9-0.4-0.9-0.9
				V24.1c0-0.5,0.4-0.9,0.9-0.9c0.5,0,0.9,0.4,0.9,0.9V43.8z M41.1,43.8c0,0.5-0.4,0.9-0.9,0.9c-0.5,0-0.9-0.4-0.9-0.9V24.1
				c0-0.5,0.4-0.9,0.9-0.9s0.9,0.4,0.9,0.9V43.8z"/>
		</g>
	</g>
	<g>
		<g>
			<path d="M29.1,12.1c-2.1-1-4.5-0.5-6.1,1.1c-1,1-1.5,2.3-1.5,3.6c1.1-0.5,2.4,0,3,1l0,0c0.2,0.3,0.6,0.4,1,0.2
				c0.1-0.1,0.1-0.1,0.2-0.2c0.7-1.2,2.2-1.5,3.4-0.8c0.3,0.2,0.6,0.5,0.8,0.8c0.2,0.3,0.6,0.4,1,0.2c0.1-0.1,0.1-0.1,0.2-0.2
				c0.3-0.5,0.7-0.8,1.2-1C32.1,14.8,30.9,13,29.1,12.1z"/>
		</g>
	</g>
	<g>
		<g>
			<path d="M11.6,0c-1.5,0-2.7,1.2-2.7,2.7v13.4l1,1.2c0.5-0.4,1-0.7,1.7-0.7c0.9,0,1.7,0.4,2.1,1.2c0.1,0.2,0.3,0.3,0.6,0.3V2.7
				C14.3,1.2,13.1,0,11.6,0z M10.1,5.6L11,4.7c0.4-0.3,0.9-0.3,1.3,0c0.3,0.3,0.3,0.9,0,1.3l-0.9,0.9c-0.4,0.3-0.9,0.3-1.3,0
				C9.7,6.5,9.7,6,10.1,5.6z M10.1,9.2L11,8.3c0.4-0.3,0.9-0.3,1.3,0c0.3,0.3,0.3,0.9,0,1.3l-0.9,0.9c-0.4,0.3-0.9,0.3-1.3,0
				C9.7,10.1,9.7,9.5,10.1,9.2z M12.2,13.1L11.3,14c-0.4,0.3-0.9,0.3-1.3,0c-0.3-0.3-0.3-0.9,0-1.3l0.9-0.9c0.4-0.3,0.9-0.3,1.3,0
				C12.6,12.2,12.6,12.8,12.2,13.1z"/>
		</g>
	</g>
</g>
</svg>
