<?xml version="1.0" encoding="utf-8"?>
<!-- Generator: Adobe Illustrator 19.2.1, SVG Export Plug-In . SVG Version: 6.00 Build 0)  -->
<svg version="1.1" id="Icons" xmlns="http://www.w3.org/2000/svg" xmlns:xlink="http://www.w3.org/1999/xlink" x="0px" y="0px"
	 viewBox="0 0 50 50" style="enable-background:new 0 0 50 50;" xml:space="preserve">
<style type="text/css">
	.st0{fill:#010002;}
</style>
<g>
	<g>
		<g>
			<path d="M38.3,28.1L38.3,28.1L38.3,28.1C38,28.1,37.7,28,37.4,28c0,0,0,0,0,0c-0.3,0-0.6-0.1-0.9-0.1c-0.2,0-0.4,0-0.6,0
				c-0.1,0-0.1,0-0.2,0c-0.1,0-0.3,0-0.4,0.1c-0.1,0-0.1,0-0.2,0c-0.1,0-0.3,0.1-0.4,0.1c-0.1,0-0.1,0-0.2,0
				c-0.2,0.1-0.4,0.1-0.5,0.2c0,0,0,0,0,0l0,0c-0.3,0.1-0.5,0.3-0.8,0.5l0,0l0,0c-0.2,0.1-0.4,0.3-0.5,0.4c0,0-0.1,0.1-0.1,0.1l0,0
				c-0.2,0.2-0.4,0.4-0.5,0.6l0,0l0,0c-0.2,0.3-0.4,0.6-0.6,1c-0.1-0.2-0.3-0.4-0.6-0.7l0,0c-0.2-0.2-0.4-0.5-0.6-0.8
				c-0.4-0.5-0.9-1.1-1.4-1.7c-0.3-0.4-0.6-0.7-0.9-1.1l0,0c-0.3-0.4-0.6-0.8-1-1.2l0,0c0,0,0,0-0.1-0.1l0,0
				c-0.7-0.8-1.4-1.7-2.1-2.6c3.6-8.3,7.1-18,6.5-22.7c-0.6,1.3-5.1,11.1-9,19.6C16.4,12.4,9.9,4.4,9,3.3
				c0.6,4.6,6.1,12.8,11.5,19.8c-1.6,3.4-2.9,6.3-3.7,8c-0.2-0.2-0.3-0.4-0.5-0.5c-1-1-2.4-1.4-3.8-1.4c-2.2,0-4.6,1.1-6.4,3.1
				c-3,3.3-3.3,8-0.7,10.4c1,1,2.4,1.4,3.8,1.4c2.2,0,4.6-1.1,6.4-3.1c1.1-1.2,1.8-2.5,2.2-3.8l0,0.1c0,0,2.4-4.7,5.2-10.9
				c0.7,0.9,1.5,1.8,2.1,2.7l0,0c0,0,0.1,0.1,0.1,0.1c0.1,0.1,0.2,0.2,0.2,0.3c0,0,0,0,0,0l0,0c0.3,0.4,0.7,0.8,1,1.2l0,0
				c0,0,0,0,0,0c0.6,0.8,1.2,1.5,1.8,2.1l0,0c0,0,0,0.1,0.1,0.1c0.3,0.4,0.7,0.8,1,1.1c0,0,0,0,0,0l0,0c0.4,0.5,0.7,0.9,1,1.2l0,0
				c0,0,0,0,0,0c0.5,0.5,0.7,0.9,0.7,0.9l0-0.2c0.4,1.3,1.1,2.6,2.1,3.7l0,0l0,0c1.8,2,4.2,3.1,6.4,3.1c1.4,0,2.8-0.5,3.8-1.4
				c2.6-2.4,2.3-7.1-0.7-10.4C41.6,29.5,39.9,28.6,38.3,28.1z M14.7,36.3c-0.3,0.9-0.8,1.8-1.4,2.5c-1.2,1.3-2.7,2-4,2
				c-0.7,0-1.3-0.2-1.7-0.6c-1.3-1.2-0.9-3.9,0.9-5.8c1.2-1.3,2.7-2,4-2c0.7,0,1.3,0.2,1.7,0.6c0.1,0.1,0.1,0.1,0.2,0.2l0.9,1.1
				L14.7,36.3z M22.8,24c-0.4,0-0.8-0.4-0.8-0.8c0-0.4,0.4-0.8,0.8-0.8c0.4,0,0.8,0.4,0.8,0.8C23.6,23.7,23.2,24,22.8,24z M41.4,39
				c-0.4,0.4-1,0.6-1.7,0.6c-1.4,0-2.9-0.8-4-2c-0.4-0.4-0.7-0.8-0.9-1.3c0.7-1.6,1.5-3.4,2.2-5.1c1.2,0.2,2.5,0.9,3.5,2
				C42.3,35.1,42.7,37.8,41.4,39z"/>
			<path d="M37.7,0c-0.3,0-0.4,0.2-0.1,0.4c1.6,1,3.1,1.9,4.1,2.9l-4.5-1.9L36.8,2l5.8,2.5c0.2,0.3,0.3,0.7,0.4,1l-6.5-2.8l-0.3,0.7
				l6.9,3c0,0.3,0,0.5,0,0.8L36,4l-0.3,0.7L43,7.9c-0.1,0.2-0.1,0.4-0.2,0.5l-7.3-3.2l-0.3,0.7l7.4,3.2c-0.1,0.2-0.2,0.4-0.3,0.6
				l-7.4-3.2l-0.3,0.7l7.4,3.2c-0.1,0.2-0.2,0.4-0.3,0.7l-7.4-3.2L34,8.6l7.4,3.2c-0.1,0.2-0.2,0.4-0.3,0.7l-7.4-3.2l-0.3,0.7
				l7.4,3.2c0,0,0,0.1,0,0.1c0,0-0.1,0.2-0.2,0.5l-7.4-3.2l-0.3,0.7l7.4,3.2c-0.1,0.2-0.2,0.4-0.3,0.7l-7.4-3.2l-0.3,0.7l7.4,3.2
				c-0.1,0.2-0.1,0.3-0.2,0.5L32.1,13l-0.3,0.7l7.4,3.2c-0.1,0.2-0.2,0.4-0.3,0.6l-7.4-3.2L31.2,15l7.4,3.2
				c-0.1,0.2-0.2,0.4-0.3,0.7L31,15.7l-0.3,0.7l7.4,3.2c-0.1,0.2-0.2,0.4-0.3,0.7L30.4,17l-0.3,0.7l7.4,3.2
				c-0.1,0.2-0.2,0.4-0.3,0.6l-7.4-3.2L29.5,19l7.4,3.2c-0.1,0.2-0.2,0.4-0.3,0.7l-7.4-3.2l-0.3,0.7l7.4,3.2
				c-0.1,0.2-0.2,0.4-0.2,0.6l-7.4-3.2l-0.3,0.7l7.4,3.2c-0.1,0.2-0.2,0.4-0.3,0.6l-7.4-3.2l-0.3,0.7l7.4,3.2
				c-0.1,0.2-0.2,0.4-0.2,0.5l-7.4-3.2l-0.3,0.7l7.1,3.1c0.6-0.2,1.3-0.3,2-0.3c0.7,0,1.5,0.1,2.3,0.3c2.9-6.7,5.4-12.6,5.4-12.6
				c0.9-2.1,1.6-3.8,2-4.5C47.7,6.5,43.5,0.9,37.7,0z"/>
			<path d="M31.5,29c0.1-0.2,0.3-0.3,0.4-0.4c0,0,0.1-0.1,0.1-0.1l-2.1-0.9l1,1.2L31.5,29z"/>
			<path d="M30.4,36.9l-7.3-3.1l-0.3,0.7l7.4,3.2c-0.1,0.2-0.2,0.5-0.3,0.7l-7.4-3.2l-0.3,0.7l7.4,3.2c-0.1,0.2-0.2,0.4-0.3,0.6
				L22,36.5l-0.3,0.7l7.4,3.2c-0.1,0.2-0.2,0.5-0.3,0.7l-7.4-3.2l-0.3,0.7l7.4,3.2c-0.1,0.2-0.2,0.4-0.2,0.6L20.9,39l-0.3,0.7
				l7.4,3.2c-0.1,0.2-0.2,0.4-0.3,0.6l-7.4-3.2L20,41l7.4,3.2c-0.1,0.3-0.2,0.5-0.3,0.7l-7.4-3.2l-0.3,0.7l7.3,3.2
				c-0.1,0.2-0.2,0.5-0.3,0.7L19.2,43l-0.3,0.7l7.2,3.1c-0.2,0.2-0.3,0.4-0.5,0.5l-6.9-3L18.3,45l6.5,2.8c-0.3,0.2-0.7,0.3-1,0.4
				L18,45.6l-0.3,0.7l4.5,1.9c-1.5,0-3.2-0.4-5.1-1c-0.2-0.1-0.3,0.2,0,0.4c4.6,3.6,11.5,2.8,13.1-0.8c0.4-0.9,1.4-3.2,2.6-6.1
				c-0.1-0.1-0.2-0.2-0.3-0.3C31.6,39.4,30.9,38.2,30.4,36.9z"/>
			<path d="M33.5,27.5l-5.6-2.4l0.3,0.4l0.6,0.8l3.8,1.6C33,27.7,33.2,27.6,33.5,27.5z"/>
			<path d="M23.4,33.1l5.9,2.5c-0.3-0.4-0.7-0.8-1.1-1.3l-4.5-1.9L23.4,33.1z"/>
			<path d="M24.5,30.7l1,0.4c-0.2-0.3-0.5-0.6-0.8-0.9L24.5,30.7z"/>
			<path d="M24,31.8l3.3,1.4c-0.3-0.4-0.7-0.8-1-1.2l-1.9-0.8L24,31.8z"/>
		</g>
	</g>
</g>
</svg>
