<?xml version="1.0" encoding="utf-8"?>
<!-- Generator: Adobe Illustrator 19.2.1, SVG Export Plug-In . SVG Version: 6.00 Build 0)  -->
<svg version="1.1" id="Icons" xmlns="http://www.w3.org/2000/svg" xmlns:xlink="http://www.w3.org/1999/xlink" x="0px" y="0px"
	 viewBox="0 0 50 50" style="enable-background:new 0 0 50 50;" xml:space="preserve">
<style type="text/css">
	.st0{fill:#010002;}
</style>
<g>
	<g>
		<path d="M24.1,26c-0.1-0.1-0.1-0.2-0.1-0.3c-1.3-0.1-2.6-0.4-3.9-0.9c-0.9,1-2,1.7-3.2,2.1L25,50l8.1-23c-0.9-0.3-1.7-0.8-2.4-1.4
			V28c0,1.1-1.7,1.1-1.7,0v-1.3c-0.4,0.3-0.8,0.5-1.2,0.6v7.4c0,1.1-1.7,1.1-1.7,0v-7.4C25.3,27.2,24.6,26.7,24.1,26z"/>
		<path d="M7.9,19.7c0,3.6,2.9,6.6,6.6,6.6c0.8,0,1.5-0.1,2.2-0.4c1.3-0.5,2.4-1.3,3.2-2.4c1.6,0.7,3.4,1.2,5.2,1.2
			c1.9,0,3.6-0.4,5.2-1.2c0.8,1.1,1.9,2,3.2,2.4c0.7,0.2,1.4,0.4,2.2,0.4c3.6,0,6.6-2.9,6.6-6.6c0-3-2.1-5.6-4.9-6.3
			c0-0.3,0-0.7,0-1C37.3,5.5,31.8,0,25,0S12.7,5.5,12.7,12.3c0,0.3,0,0.7,0,1C9.9,14.1,7.9,16.7,7.9,19.7z"/>
	</g>
</g>
</svg>
