<?xml version="1.0" encoding="utf-8"?>
<!-- Generator: Adobe Illustrator 19.2.1, SVG Export Plug-In . SVG Version: 6.00 Build 0)  -->
<svg version="1.1" id="Icons" xmlns="http://www.w3.org/2000/svg" xmlns:xlink="http://www.w3.org/1999/xlink" x="0px" y="0px"
	 viewBox="0 0 50 50" style="enable-background:new 0 0 50 50;" xml:space="preserve">
<style type="text/css">
	.st0{fill:#010002;}
</style>
<g>
	<g>
		<g>
			<path d="M42.6,30.2L24.7,40.8l-0.2-5.6l14.9-10c0.2-0.1,0.2-0.3,0.1-0.5c-0.1-0.2-0.3-0.2-0.5-0.1l-14.6,9.8L24.3,31c0,0,0,0,0,0
				c0,0,0-0.1,0-0.1l14.5-10.4c0.2-0.1,0.2-0.3,0.1-0.5c-0.1-0.2-0.3-0.2-0.5-0.1L24.3,30.1l-0.1-3.3c0.1,0,0.1,0.1,0.2,0.1
				c0.1,0,0.1,0,0.2-0.1l13.7-9.7c0.2-0.1,0.2-0.3,0.1-0.5c-0.1-0.2-0.3-0.2-0.5-0.1l-13.7,9.7c0,0,0,0,0,0L24,22.6c0,0,0,0,0.1,0
				c0.1,0,0.1,0,0.2-0.1L38,12.8c0.2-0.1,0.2-0.3,0.1-0.5c-0.1-0.2-0.3-0.2-0.5-0.1L24,21.8L23.8,19c0,0,0.1,0,0.1,0l13.7-9.7
				c0.2-0.1,0.2-0.3,0.1-0.5c-0.1-0.2-0.3-0.2-0.5-0.1l-13.5,9.5l-0.1-2.9L39.4,4.2L42.6,30.2z"/>
			<path d="M5.8,4.1C5.8,4.1,5.8,4.1,5.8,4.1L5.8,4.1L23,15.4l0.1,2.8l-14-8.4C9,9.7,8.7,9.8,8.6,9.9c-0.1,0.2,0,0.4,0.1,0.5
				l14.4,8.6l0.1,2.8L9.1,13.4c-0.2-0.1-0.4,0-0.5,0.1c-0.1,0.2,0,0.4,0.1,0.5l14.4,8.7c0,0,0.1,0,0.1,0l0.1,3.6L9.1,17.6
				c-0.2-0.1-0.4,0-0.5,0.1c-0.1,0.2,0,0.4,0.1,0.5l14.4,8.7c0.1,0,0.1,0.1,0.2,0.1c0,0,0.1,0,0.1,0l0.1,3.2L9.8,21.9
				c-0.2-0.1-0.4,0-0.5,0.1c-0.1,0.2,0,0.4,0.1,0.5L23.6,31l0.1,3.5L9.8,26.2c-0.2-0.1-0.4,0-0.5,0.1c-0.1,0.2,0,0.4,0.1,0.5
				l14.3,8.6l0.1,2.2L24,41L5.8,31.2L6.2,4.4C6.2,4.3,6,4.1,5.8,4.1z"/>
			<path d="M5.2,31.7l18.6,10c0.1,0,0.1,0,0.2,0h0.4c0.1,0,0.1,0,0.2,0c0,0,0,0,0,0l18.6-11.1c0.1-0.1,0.2-0.2,0.2-0.3L40.6,8.1
				c0,0,0.1,0,0.1,0l2.7-0.2l3.8,29.6l-22.8,6.7L2.5,33.6l1.4-28l1.6-1.3c0,0,0,0.1,0,0.1L5,31.4C5,31.6,5.1,31.7,5.2,31.7z"/>
			<path d="M2.4,3.2l1.8,1.3L3.3,5.1C3.2,5.2,3.2,5.3,3.2,5.4L1.8,33.8c0,0.1,0.1,0.3,0.2,0.3L24.2,45c0,0,0.1,0,0.2,0
				c0,0,0.1,0,0.1,0l23.3-6.8c0.2,0,0.3-0.2,0.3-0.4L44.1,7.5c0-0.2-0.2-0.3-0.4-0.3l-3.1,0.2c0,0-0.1,0-0.1,0l-0.1-0.6l4.7-0.4
				L50,39.1l-25.1,7.8L0,34.9L2.4,3.2z"/>
		</g>
	</g>
</g>
</svg>
