<?xml version="1.0" encoding="utf-8"?>
<!-- Generator: Adobe Illustrator 19.2.1, SVG Export Plug-In . SVG Version: 6.00 Build 0)  -->
<svg version="1.1" id="Icons" xmlns="http://www.w3.org/2000/svg" xmlns:xlink="http://www.w3.org/1999/xlink" x="0px" y="0px"
	 viewBox="0 0 50 50" style="enable-background:new 0 0 50 50;" xml:space="preserve">
<style type="text/css">
	.st0{fill:#010002;}
</style>
<g>
	<g>
		<g>
			<g id="_x31_4_1_">
				<g>
					<path d="M24,3.3c0.5-0.6,0.4-1.9,0.3-3c0,0,0-0.1,0-0.1C23.6,0,23,0,22.3,0c-2.5,0-5,0.5-7.2,1.3c1.6,0.8,4.1,2.1,6.8,4
						C22.9,4.5,23.6,3.8,24,3.3z"/>
					<path d="M34.3,14.9c-1,0.1-1.8,0.3-2.6,0.5c3.5,6,4.8,13.7,5.1,19.2c3.4-3.5,5.6-8.2,5.8-13.4C40.3,18.3,37.2,14.6,34.3,14.9z"
						/>
					<path d="M13.7,9.7c2.4-0.5,4.7-1.7,6.5-3c-3.8-2.6-7-4-7.6-4.2C8.7,4.6,5.6,8,3.7,12.1c2.4-0.9,5-1.4,7.5-1.9
						C12.1,10,12.9,9.9,13.7,9.7z"/>
					<path d="M27.8,10.3c0.2,0.2,0.4,0.4,0.6,0.7c0.8,0.8,1.5,1.7,2.2,2.7c1-0.4,2.1-0.6,3.4-0.8c3.2-0.4,6,2.2,8.5,4.9
						c-0.5-4.2-2.3-8-5-11c-1.5,0.2-3.1,0.5-4.8,1C31.6,8.1,29.9,9,27.8,10.3z"/>
					<path d="M25.1,20.8c0.8-2.8,1.8-4.9,3.7-6.2c-0.6-0.8-1.2-1.6-1.8-2.3c-0.3-0.3-0.6-0.6-0.9-0.9C18.5,16.5,8.2,25.9,7.3,34.1
						c3.1,3.4,7.4,5.8,12.2,6.4c1.8-3.5,3.4-10.6,4.4-14.8C24.4,23.7,24.8,21.9,25.1,20.8z"/>
					<path d="M16.6,16.3c2.6-2.4,5.4-4.6,7.9-6.3c-0.8-0.7-1.7-1.4-2.5-2.1c-2.1,1.6-4.9,3.1-7.8,3.8c-0.8,0.2-1.7,0.3-2.5,0.5
						c-3.2,0.6-6.3,1.2-8.9,2.6C2.3,16.5,2,18.4,2,20.3c0,4.3,1.4,8.3,3.6,11.6C7.1,26.1,12.2,20.3,16.6,16.3z"/>
					<path d="M26.3,8.8c2.4-1.5,4.5-2.6,5.9-3c1.2-0.4,2.4-0.6,3.5-0.8c-2.6-2.3-5.8-3.9-9.3-4.6c0.1,1.4,0.1,3-0.7,4.1
						c-0.4,0.5-1.1,1.3-2,2.1C24.5,7.3,25.4,8,26.3,8.8z"/>
					<path d="M27.1,21.4c-0.3,1.1-0.7,2.8-1.2,4.8c-1.4,5.9-2.7,11.2-4.2,14.5c0.2,0,0.4,0,0.7,0c4.7,0,9.1-1.6,12.6-4.3
						c-0.1-5.8-1.5-14-5-20C28.5,17.3,27.8,18.9,27.1,21.4z"/>
				</g>
			</g>
		</g>
	</g>
	<circle cx="42.6" cy="44.6" r="5.4"/>
</g>
</svg>
