<?xml version="1.0" encoding="utf-8"?>
<!-- Generator: Adobe Illustrator 19.2.1, SVG Export Plug-In . SVG Version: 6.00 Build 0)  -->
<svg version="1.1" id="Icons" xmlns="http://www.w3.org/2000/svg" xmlns:xlink="http://www.w3.org/1999/xlink" x="0px" y="0px"
	 viewBox="0 0 50 50" style="enable-background:new 0 0 50 50;" xml:space="preserve">
<style type="text/css">
	.st0{fill:#010002;}
</style>
<g>
	<g>
		<g>
			<path d="M49,20.8c-4.6-1.8-6.4-5-7.8-7.5c-1.1-2-2.2-3.9-4.4-4.3c-2.3-0.4-5.2,1-10.3,5V8.5c1.7-0.6,2.9-2.2,2.9-4.1
				C29.4,2,27.4,0,25,0s-4.4,2-4.4,4.4c0,1.9,1.2,3.5,2.9,4.1V14C18,9.6,16.1,8.5,13.3,9c-2.2,0.4-3.3,2.3-4.4,4.3
				C7.4,15.8,5.6,19,1,20.8c-0.7,0.3-1,0.9-0.9,1.6c0.1,0.7,0.7,1.2,1.4,1.2h2.9c0.1,0,6.4-0.1,9.6-7.9c0.3-0.7,1.2-1.1,1.9-0.8
				c0.7,0.3,1.1,1.2,0.8,1.9c-1.3,3.2-3.1,5.3-4.9,6.8h3.3c1.4-1.2,2.5-2.6,2.5-4.4c0-0.8,0.7-1.5,1.5-1.5c0.8,0,1.5,0.7,1.5,1.5
				c0,1.7-0.6,3.1-1.4,4.4h4.4v2.9h-4.4c-2.4,0-4.4,2-4.4,4.4s2,4.4,4.4,4.4h4.4v2.9h-1.5c-2.4,0-4.4,2-4.4,4.4s2,4.4,4.4,4.4h1.5
				v1.5c0,0.8,0.7,1.5,1.5,1.5s1.5-0.7,1.5-1.5v-1.5h1.5c0.8,0,1.5-0.7,1.5-1.5c0-0.8-0.7-1.5-1.5-1.5h-1.5v-2.9h1.5
				c2.4,0,4.4-2,4.4-4.4s-2-4.4-4.4-4.4h-1.5v-2.9h4.4c1.7,0,3.1-0.9,3.8-2.3c-0.8-0.5-1.7-1.2-2.4-1.9c-0.1,0.7-0.7,1.2-1.4,1.2
				h-4.4v-2.9h4.4c-0.9-1.3-1.4-2.7-1.4-4.4c0-0.8,0.7-1.5,1.5-1.5c0.8,0,1.5,0.7,1.5,1.5c0,1.8,1.1,3.2,2.5,4.4h3.3
				c-1.8-1.4-3.6-3.6-4.9-6.8c-0.3-0.7,0-1.6,0.8-1.9c0.7-0.3,1.6,0,1.9,0.8c3.2,7.8,9.6,7.9,9.6,7.9h2.9c0.7,0,1.3-0.5,1.4-1.2
				C50,21.8,49.6,21.1,49,20.8z M23.5,44.1h-1.5c-0.8,0-1.5-0.7-1.5-1.5s0.7-1.5,1.5-1.5h1.5V44.1z M23.5,32.4h-4.4
				c-0.8,0-1.5-0.7-1.5-1.5c0-0.8,0.7-1.5,1.5-1.5h4.4V32.4z M27.9,35.4c0.8,0,1.5,0.7,1.5,1.5s-0.7,1.5-1.5,1.5h-1.5v-2.9H27.9z"/>
		</g>
	</g>
</g>
</svg>
