<?xml version="1.0" encoding="utf-8"?>
<!-- Generator: Adobe Illustrator 19.2.1, SVG Export Plug-In . SVG Version: 6.00 Build 0)  -->
<svg version="1.1" id="Icons" xmlns="http://www.w3.org/2000/svg" xmlns:xlink="http://www.w3.org/1999/xlink" x="0px" y="0px"
	 viewBox="0 0 50 50" style="enable-background:new 0 0 50 50;" xml:space="preserve">
<style type="text/css">
	.st0{fill:#010002;}
</style>
<g>
	<g>
		<path d="M49.2,16.1C49.2,16.1,49.2,16.1,49.2,16.1c-0.2-0.8-0.4-1.5-0.7-2.1l-2.4,2c0.3,0.6,0.7,1.3,1,1.9l1.1,3.2
			c-0.1,0.6-0.2,1.2-0.5,1.7c-1,2-3,2.7-3,2.8l-15.3,6.2c0-0.6-0.1-1.2-0.3-1.9c0-0.1,0-0.2,0-0.2l17.4-7.2c0.1,0,0.2-0.1,0.3-0.1
			l-1.3-3.7c-0.3-0.7-0.7-1.5-1.1-2.2c0,0,0,0,0,0c0,0,0,0,0-0.1c-0.7-1.3-1.6-2.5-2.8-3.7c0,0-0.1,0-0.1,0
			c-0.1-0.1-0.2-0.2-0.3-0.3c-1.2-1.1-2.7-2.1-4.6-2.9c-0.1,0-0.2,0-0.2,0c-0.1,0-0.1-0.1-0.2-0.1c-1.5-0.6-3.3-1.1-5.4-1.5
			c0,0-0.1,0-0.1,0c-0.1,0-0.2,0-0.3-0.1c0,0,0,0,0,0C27.3,7.1,23.5,7,18.9,7.2c0,0,0,0,0,0c0,0,0,0,0,0C15.2,7.5,11,8,6.2,8.8
			L5.1,8.9L3.9,24.3c-1.6,1-4.8,3.7-3.6,8.1c0.4,1.6,1.2,2.5,2.1,2.7c0.2,0,0.5,0.2,0.4,0.5c-0.3,2.1-0.9,6-0.9,8.3
			c0,1.1,0.3,2,1,2.6c1,1,2.6,1.2,3.4,1.2c0.3,0,0.5,0,0.5,0c0.3,0,3-0.3,3.9-2.1c0.5-1.1,0.3-2.5-0.8-4.1l14-5.7c0,0,0,0,0,0
			c0.2,0.1,0.3,0.2,0.5,0.2c0,0,0.1,0,0.1,0c0.2,0.1,0.4,0.1,0.7,0.1c0.1,0,0.2,0,0.4,0l0,0c0,0,0.1,0,0.1,0c0.3,0,0.5,0,0.8-0.1
			c0.1,0,0.2-0.1,0.3-0.1c0.1,0,0.3-0.1,0.4-0.1c0.1,0,0.2-0.1,0.4-0.2c0.1-0.1,0.2-0.1,0.3-0.2c0.1-0.1,0.2-0.1,0.3-0.2
			c0.2-0.1,0.3-0.3,0.5-0.5c0,0,0,0,0.1-0.1c0.3-0.3,0.5-0.7,0.6-1.2c0,0,0,0,0,0l16.1-6.5c0.1,0,2.7-0.9,4-3.6
			C50.3,21.5,50.2,19,49.2,16.1z M8.8,38.8c0.2-0.6,0.8-1.1,1.9-1.5L22,32.6c0,0.6,0.2,1.3,0.5,1.9L8.9,40
			C8.7,39.5,8.7,39.1,8.8,38.8z M21.2,27.3c0-0.5,0.2-1,0.5-1.3c0.3-0.4,0.8-0.6,1.3-0.6c0,0,0.1-0.1,0.1-0.2c0-1,0.8-1.9,1.8-1.9
			c0,0,0.1-0.1,0.1-0.2c0-0.5,0.4-0.9,0.8-0.9c0.5,0,0.9,0.4,0.9,0.8c0,1-0.8,1.9-1.8,1.9c0,0-0.1,0.1-0.1,0.2c0,1-0.8,1.9-1.8,1.9
			c-0.1,0-0.1,0.1-0.1,0.2c0,0.5-0.4,0.9-0.8,0.9c0,0,0,0,0,0C21.6,28.1,21.2,27.7,21.2,27.3z M35.7,13.5c0.7,0,1.6,0,2.4,0.4
			c0.7,0.3,1.6,1.1,1.6,2.9c0,2.9-2.9,5.2-6.6,5.2c-3.1,0-5.7,0-5.7-3.5C27.4,15.2,34.3,13.5,35.7,13.5z M22.1,8.4
			c0.6-0.1,1.2,0,1.7,0.3c0.5,0.3,0.9,0.8,1,1.4c0.1,0.3,0.4,0.4,0.7,0.4c0.6-0.1,1.2,0,1.7,0.3c0.5,0.3,0.9,0.8,1,1.4
			c0,0.2,0.2,0.3,0.2,0.3c0.1,0.1,0.3,0.1,0.5,0.1c0.5-0.1,0.9,0.2,1,0.7c0.1,0.5-0.2,0.9-0.7,1c-0.2,0-0.3,0-0.5,0
			c-0.4,0-0.9-0.1-1.2-0.3c-0.5-0.3-0.9-0.8-1-1.4c0-0.2-0.2-0.3-0.2-0.3c-0.1-0.1-0.3-0.1-0.5-0.1c-1.2,0.3-2.5-0.5-2.7-1.7
			c0-0.2-0.2-0.3-0.2-0.3c-0.1-0.1-0.3-0.1-0.5-0.1c-0.5,0.1-0.9-0.2-1-0.7C21.3,9,21.6,8.5,22.1,8.4z M22.6,17.9
			c0.2,0.1,0.3,0,0.4,0c0.1-0.1,0.3-0.2,0.3-0.3c0.2-0.4,0.7-0.6,1.1-0.4c0.4,0.2,0.6,0.7,0.4,1.1c-0.2,0.6-0.7,1-1.2,1.2
			c-0.6,0.2-1.2,0.2-1.7,0c-0.2-0.1-0.3,0-0.4,0c-0.1,0.1-0.3,0.2-0.3,0.3c-0.5,1.2-1.8,1.7-3,1.2c-0.2-0.1-0.3,0-0.4,0
			c-0.1,0.1-0.3,0.2-0.3,0.3c-0.1,0.3-0.5,0.5-0.8,0.5c-0.1,0-0.2,0-0.3-0.1c-0.4-0.2-0.6-0.7-0.4-1.1c0.2-0.6,0.7-1,1.2-1.2
			c0.6-0.2,1.2-0.2,1.7,0c0.3,0.1,0.6,0,0.7-0.3c0.2-0.6,0.7-1,1.2-1.2C21.5,17.6,22.1,17.6,22.6,17.9z M16.6,9.2c1.2,0,4,0,4,3.3
			c0,2.9-2.9,5.2-6.6,5.2c-3.1,0-5.7,0-5.7-3.5C8.3,11,15.2,9.2,16.6,9.2z M6.3,28.1c0-3.2,6.9-5,8.3-5c1.2,0,4,0,4,3.3
			c0,2.9-2.9,5.2-6.6,5.2C9,31.6,6.3,31.6,6.3,28.1z"/>
		<circle cx="31.3" cy="18.7" r="0.9"/>
		<circle cx="35.7" cy="16.4" r="0.9"/>
		<circle cx="34.6" cy="18.6" r="0.9"/>
		<circle cx="12.2" cy="14.6" r="0.9"/>
		<circle cx="17.2" cy="13.5" r="0.9"/>
		<circle cx="14.4" cy="12.6" r="0.9"/>
		<circle cx="10.3" cy="28.4" r="0.9"/>
		<circle cx="13.1" cy="26.4" r="0.9"/>
		<circle cx="14.4" cy="28.1" r="0.9"/>
		<path d="M11.1,6.3V3.1c-0.7,0.1-1.3,0.2-1.9,0.3c-2,0.3-3.5,1.8-4,3.7l0.6-0.1C7.7,6.8,9.5,6.5,11.1,6.3z"/>
		<path d="M43.7,7.6c-1.3-1-2.8-1.9-4.6-2.6l-1.3,3.1c1.5,0.7,2.8,1.5,3.9,2.4L43.7,7.6z"/>
		<path d="M18,2.4c-1.8,0.1-3.6,0.3-5.1,0.5v3.2c1.8-0.2,3.5-0.4,5.1-0.5V2.4z"/>
		<path d="M31.3,2.9c-1.8-0.3-3.6-0.5-5.6-0.5v3.2c1.6,0.1,3.1,0.2,4.5,0.4L31.3,2.9z"/>
		<path d="M37.5,4.4c-1.4-0.5-2.9-0.9-4.5-1.2l-1.2,3c1.6,0.3,3.1,0.7,4.3,1.2L37.5,4.4z"/>
		<path d="M24,5.4V2.3c-0.4,0-0.7,0-1.1,0c-1.1,0-2.2,0-3.2,0.1v3.2C21.2,5.4,22.6,5.4,24,5.4z"/>
		<path d="M45.2,14.5l2.6-2.1c-0.7-1.4-1.7-2.6-2.8-3.7l-2,3C43.9,12.6,44.6,13.5,45.2,14.5z"/>
	</g>
</g>
</svg>
