<?xml version="1.0" encoding="utf-8"?>
<!-- Generator: Adobe Illustrator 19.2.1, SVG Export Plug-In . SVG Version: 6.00 Build 0)  -->
<svg version="1.1" id="Icons" xmlns="http://www.w3.org/2000/svg" xmlns:xlink="http://www.w3.org/1999/xlink" x="0px" y="0px"
	 viewBox="0 0 50 50" style="enable-background:new 0 0 50 50;" xml:space="preserve">
<style type="text/css">
	.st0{fill:#010002;}
</style>
<g>
	<path d="M0,7.1v35.8h50V7.1H0z M35.8,12.9h8.3v8.3h-8.3V12.9z M6.7,12.1h6.7c0.5,0,0.8,0.4,0.8,0.8c0,0.5-0.4,0.8-0.8,0.8H6.7
		c-0.5,0-0.8-0.4-0.8-0.8C5.8,12.5,6.2,12.1,6.7,12.1z M6.7,16.2h16.7c0.5,0,0.8,0.4,0.8,0.8s-0.4,0.8-0.8,0.8H6.7
		c-0.5,0-0.8-0.4-0.8-0.8S6.2,16.2,6.7,16.2z M5.8,21.2c0-0.5,0.4-0.8,0.8-0.8h16.7c0.5,0,0.8,0.4,0.8,0.8s-0.4,0.8-0.8,0.8H6.7
		C6.2,22.1,5.8,21.7,5.8,21.2z M24.2,37.9c-2.8,0-5-2.2-5-5c0-2.8,2.2-5,5-5s5,2.2,5,5C29.2,35.7,26.9,37.9,24.2,37.9z M44.8,35.9
		c-0.6,0.7-1.4,1.1-2.3,1.1s-1.7-0.4-2.3-1.1c-0.6-0.7-1.5-0.7-2.1,0c-0.6,0.7-1.4,1.1-2.3,1.1c-0.9,0-1.7-0.4-2.3-1.1
		c-0.6-0.7-1.5-0.7-2.1,0c-0.3,0.4-0.8,0.4-1.2,0.1c-0.4-0.3-0.4-0.8-0.1-1.2c0.6-0.7,1.4-1.1,2.3-1.1c0.9,0,1.7,0.4,2.3,1.1
		c0.6,0.7,1.5,0.7,2.1,0c0.6-0.7,1.4-1.1,2.3-1.1c0.9,0,1.7,0.4,2.3,1.1c0.6,0.7,1.5,0.7,2.1,0c0.3-0.4,0.8-0.4,1.2-0.1
		C45.1,35.1,45.1,35.6,44.8,35.9z M44.8,30.9c-0.6,0.7-1.4,1.1-2.3,1.1s-1.7-0.4-2.3-1.1c-0.6-0.7-1.5-0.7-2.1,0
		c-0.6,0.7-1.4,1.1-2.3,1.1c-0.9,0-1.7-0.4-2.3-1.1c-0.6-0.7-1.5-0.7-2.1,0c-0.3,0.4-0.8,0.4-1.2,0.1c-0.4-0.3-0.4-0.8-0.1-1.2
		c0.6-0.7,1.4-1.1,2.3-1.1c0.9,0,1.7,0.4,2.3,1.1c0.6,0.7,1.5,0.7,2.1,0c0.6-0.7,1.4-1.1,2.3-1.1c0.9,0,1.7,0.4,2.3,1.1
		c0.6,0.7,1.5,0.7,2.1,0c0.3-0.4,0.8-0.4,1.2-0.1C45.1,30.1,45.1,30.6,44.8,30.9z"/>
</g>
</svg>
