<?xml version="1.0" encoding="utf-8"?>
<!-- Generator: Adobe Illustrator 19.2.1, SVG Export Plug-In . SVG Version: 6.00 Build 0)  -->
<svg version="1.1" id="Icons" xmlns="http://www.w3.org/2000/svg" xmlns:xlink="http://www.w3.org/1999/xlink" x="0px" y="0px"
	 viewBox="0 0 50 50" style="enable-background:new 0 0 50 50;" xml:space="preserve">
<style type="text/css">
	.st0{fill:#010002;}
</style>
<g>
	<g>
		<path class="st0" d="M40.3,11.7L40.3,11.7L40.3,11.7L36.2,10l-1,0.2c-1.1-4.9-4-8.4-7.6-8.4c-0.4,0-0.8,0.1-1.2,0.2
			C25.1,0.7,23.5,0,21.7,0c-5.4,0-8,7.2-8,13.5l-4.9,0.8L8.3,47.2l6.6,2.8l26.8-4.1L40.3,11.7z M31.8,10.7l-2,0.3
			c-0.1-2.1-0.4-3.9-1.1-5.5C30,6.2,31.2,8.1,31.8,10.7z M26.4,11.5L23.2,12c0.4-2.5,1.2-4.4,2.2-5.6C26,7.8,26.3,9.6,26.4,11.5z
			 M19.6,14.7l-5.7,0.8l-3.6-0.6l9.4-1.4c0,0.3,0,0.7,0,1.1C19.6,14.6,19.6,14.6,19.6,14.7z M17.1,13c0.2-5.1,2.2-9.6,4.6-9.6
			c0.6,0,1.1,0.1,1.6,0.4c-1.9,1.9-3.2,5.1-3.5,8.8L17.1,13z M21.7,19.7c-1.1,0-2-0.9-2-2c0-1.1,0.9-2,2-2c1.1,0,2,0.9,2,2
			C23.8,18.8,22.9,19.7,21.7,19.7z M23,14.2c0-0.5,0-0.9,0.1-1.3l8.9-1.4c0.1,0.4,0.1,0.8,0.2,1.3L23,14.2z M34.8,17.7
			c-1.1,0-2-0.9-2-2s0.9-2,2-2c1.1,0,2,0.9,2,2C36.8,16.8,35.9,17.7,34.8,17.7z M35.5,12.3c-0.1-0.5-0.2-0.9-0.3-1.4l0.9-0.2
			l2.6,1.1L35.5,12.3z"/>
	</g>
</g>
</svg>
