<?xml version="1.0" encoding="utf-8"?>
<!-- Generator: Adobe Illustrator 19.2.1, SVG Export Plug-In . SVG Version: 6.00 Build 0)  -->
<svg version="1.1" id="Icons" xmlns="http://www.w3.org/2000/svg" xmlns:xlink="http://www.w3.org/1999/xlink" x="0px" y="0px"
	 viewBox="0 0 50 50" style="enable-background:new 0 0 50 50;" xml:space="preserve">
<style type="text/css">
	.st0{fill:#010002;}
</style>
<g>
	<g>
		<g>
			<path d="M21.9,7.3v2h-1.7v1.1h8.9V9.3h-1.8v-2H21.9z M26.4,8.8h-3.6V8.1h3.6V8.8z"/>
			<path d="M24.6,18.4c3.1,0,5.7,1.7,6,3.9h13.3l-3.5-10.6c-0.5-1.4-2-2.5-3.4-2.5h-3.2l0.5,5.1h-6.5c-0.3,0.4-1.2,1.2-3.1,1.2
				c0,0,0,0-0.1,0c-1.9,0-2.8-0.8-3.1-1.2h-6.7l0.5-5.1H12c-1.4,0-2.9,1.1-3.4,2.5L5.5,22.3h13.1C18.8,20.1,21.4,18.4,24.6,18.4z"/>
			<path d="M26.3,14.4h-3.6c0.4,0.2,1,0.4,1.8,0.4C25.4,14.8,25.9,14.6,26.3,14.4z"/>
			<polygon points="29.9,9.3 29.9,11.3 19.3,11.3 19.3,9.3 15.6,9.3 16,9.3 15.7,13.5 33.2,13.5 32.9,9.3 33.3,9.3 			"/>
			<path d="M24.6,26.2c2.6,0,4.8-1.3,5.1-3H19.5C19.8,24.9,22,26.2,24.6,26.2z"/>
			<path d="M24.6,19.3c-2.6,0-4.8,1.3-5.1,3.1h10.3C29.4,20.6,27.2,19.3,24.6,19.3z"/>
			<rect x="21.4" y="41.8" width="6.8" height="0.9"/>
			<path d="M44.2,23.2H30.6c-0.3,2.2-2.9,3.9-6,3.9s-5.7-1.7-6-3.9H5.2l-5.1,17c-0.4,1.4,0.4,2.5,1.9,2.5H12l-0.4-0.1l1-7.7h7.8
				c0.4-0.4,1.9-1.4,4.4-1.4c2.7,0,4,1,4.4,1.4H37l1.2,7.7l-0.4,0.1h10.3c1.4,0,2.2-1.1,1.8-2.5L44.2,23.2z"/>
			<polygon points="31.9,42.7 31.4,40.5 18.7,40.5 18.4,42.7 20.6,42.7 20.6,41 29.2,41 29.2,42.7 			"/>
			<polygon points="12.5,42.7 17.9,42.7 17.5,42.7 18,39.6 32.1,39.6 32.8,42.6 32.4,42.7 37.3,42.7 36.3,35.9 13.4,35.9 			"/>
			<path d="M22.1,35h5.5c-0.6-0.3-1.5-0.5-2.8-0.5C23.7,34.5,22.8,34.7,22.1,35z"/>
		</g>
	</g>
</g>
</svg>
