<?xml version="1.0" encoding="utf-8"?>
<!-- Generator: Adobe Illustrator 19.2.1, SVG Export Plug-In . SVG Version: 6.00 Build 0)  -->
<svg version="1.1" id="Icons" xmlns="http://www.w3.org/2000/svg" xmlns:xlink="http://www.w3.org/1999/xlink" x="0px" y="0px"
	 viewBox="0 0 50 50" style="enable-background:new 0 0 50 50;" xml:space="preserve">
<style type="text/css">
	.st0{fill:#010002;}
</style>
<g>
	<g>
		<g>
			<path d="M35.3,21.7c-0.7,0.5-1.2,1.2-1.4,2.1c-0.3,1-0.1,2.1,0.4,3c0.7-0.7,1.4-1.6,1.6-2.3C36,23.7,35.7,22.6,35.3,21.7z"/>
			<path d="M41.4,25.8c0.2-0.8,0.1-1.7-0.2-2.4c-0.7,0.5-1.5,1.3-1.7,2.1c-0.2,0.7,0,1.7,0.2,2.6C40.5,27.6,41.1,26.8,41.4,25.8z"/>
			<path d="M40.7,22.6c-0.5-0.7-1.3-1.3-2.2-1.5c-0.9-0.2-1.8-0.1-2.5,0.2c0.5,1,0.9,2.3,0.6,3.5c-0.2,1-1.1,2-1.9,2.8
				c0.5,0.5,1.1,0.9,1.8,1.1c0.8,0.2,1.5,0.1,2.2-0.1c-0.3-1.1-0.5-2.3-0.3-3.3C38.9,24.1,39.9,23.2,40.7,22.6z"/>
			<path d="M25.2,26.7c3.8-1.9,6.7-5.8,7.5-10.8C34,8.3,29.6,1.2,23,0.1C16.4-1,10,4.4,8.7,12c-0.8,4.8,0.6,9.5,3.5,12.5
				c1.4,2.7,2.9,6.2,2.9,8.5c-0.4,0.4-0.7,0.9-0.8,1.5l-0.3,1.6c1,0.1,3.2,0,5.8-1.6c0-0.2-0.1-0.4-0.2-0.6
				C20.4,31.8,22.9,28.9,25.2,26.7z M18.4,32.5c-0.2-0.1-0.4-0.2-0.7-0.2l-0.2,0c-0.2,0-0.4,0-0.6,0c-0.2-1.7-0.8-3.6-1.6-5.4
				c1,0.5,2,0.9,3.1,1c1.1,0.2,2.1,0.2,3.2,0C20.3,29.4,19,31,18.4,32.5z"/>
			<path d="M18.7,42.8c-2.7,1.4-4.9,1.5-5.9,1.4l-0.4,2.6c0,0,0,0,0,0c1.1,0.1,3.3,0,6-1.7L18.7,42.8z"/>
			<path d="M19.9,35.6c-2.7,1.4-4.9,1.5-5.9,1.4l-0.4,2.7c1.1,0.1,3.3,0,6-1.7L19.9,35.6z"/>
			<path d="M19.3,39.2c-2.7,1.4-4.9,1.5-5.9,1.4l-0.4,2.7c1.1,0.1,3.3,0,6-1.7L19.3,39.2z"/>
			<path d="M14.5,49.9l0.2,0c1.5,0.2,2.9-0.8,3.1-2.2l0.2-1.4c-2.5,1.4-4.6,1.5-5.8,1.4C12.5,48.8,13.4,49.7,14.5,49.9z"/>
		</g>
	</g>
</g>
</svg>
