<?xml version="1.0" encoding="utf-8"?>
<!-- Generator: Adobe Illustrator 19.2.1, SVG Export Plug-In . SVG Version: 6.00 Build 0)  -->
<svg version="1.1" id="Icons" xmlns="http://www.w3.org/2000/svg" xmlns:xlink="http://www.w3.org/1999/xlink" x="0px" y="0px"
	 viewBox="0 0 50 50" style="enable-background:new 0 0 50 50;" xml:space="preserve">
<style type="text/css">
	.st0{fill:#010002;}
</style>
<g>
	<g id="XMLID_1_">
		<circle id="XMLID_4_" cx="19.2" cy="4.5" r="4.3"/>
		<g id="XMLID_2_">
			<path id="XMLID_3_" d="M50,33.1c0-0.1-0.1-0.3-0.3-0.3l-1.8-0.7l0.4-0.6c0.1-0.1,0.1-0.3,0.1-0.4c0-0.1-0.2-0.3-0.3-0.3L46,29.9
				c-0.2-0.9-0.8-1.6-1.2-2c-0.1-0.1-0.1-0.1-0.2-0.1c-0.1,0-0.1,0.1-0.1,0.2L44,30.2h0c-0.2,0.1-0.3,0.3-0.4,0.5
				c-0.1,0.1,0,0-0.9,2.2l-0.6,1c-5.9-1.2-10.1-3.4-12.7-5C28,28,27,27.2,26.2,26.6c0.4-0.9,0-2-0.8-2.4l-5.8-3.3l0,0l-0.5-7.4
				l2,6.1l1.1-5.6c0.3-1.6-0.7-3.1-2.3-3.4l-5.1-1c-0.5-0.1-0.8-0.1-1.3,0l-8.4,2.7c-0.6,0.2-1,0.6-1.2,1.1
				c-0.2,0.5-0.2,1.2,0.1,1.7l4,6.8c0.3,0.5,0.8,0.8,1.3,0.9l-0.7,3.8L9.2,34L2,35c-1.3,0.2-2.2,1.4-2,2.6c0.2,1.3,1.4,2.2,2.6,2
				l9.4-1.3c1.2-0.2,2.1-1.2,2-2.4l-0.5-8.5l1.2,0.2l2.9,8.5L19,47.7c0.2,1.3,1.3,2.2,2.6,2c1.3-0.2,2.2-1.3,2-2.6l-1.5-11.8
				c0-0.2-0.1-0.3-0.1-0.5l-2.5-7.5l-3.7-2.1c-1.6-0.9-2-2.6-1.9-3.5l1.3-7.8l0.5,8.1l0,0c0,0.6,0.4,1.2,1,1.6
				c0.7,0.4,5.9,3.4,6.7,3.8c0.5,0.3,1,0.3,1.5,0.2c0.8,0.7,1.9,1.6,3.4,2.6c2.5,1.6,6.5,3.7,12,5l-7.8,1.2
				c-0.6,0.1-1.2,0.3-1.6,0.7l-1.9-1c-0.2-0.1-0.6-0.1-0.8,0.1c-0.2,0.3-0.2,0.6,0.1,0.9l1.4,1.3c-0.3,0.6-0.2,1.1-0.2,1.6
				c0.3,3.3,0.2,4.5,0.2,4.6c-0.2,0.1-0.4,0.3-0.6,0.5c-0.8,0.8-0.6,1.5-0.7,4c0,0.2,0.1,0.5,0.4,0.5c0.3,0.1,0.6,0,0.7-0.3
				c0.9-2.6,0.8-2.4,0.9-2.5c0.1-0.1,0.3-0.1,0.3-0.1c0,0,0,0,0,0c0,0,0.1,0,0.1,0c-0.1,0,0,0,0,0c0.7-0.2,1.1-0.3,1.5-1.2
				c0.4-0.8,0.7-2.2,1-3.1l5.4,0.1c0.2,0.3,0.5,0.6,0.8,0.8l0.9,6.2c0,0.2,0.2,0.4,0.4,0.4c0.3,0,0.5-0.1,0.6-0.4l1.1-6.1
				c1.1-0.7,1.8-2,1.8-3.6c0-0.3,0-0.6-0.1-0.9l1.3-4.1l1.3,0.5c0.8,0.3,1.7,0.1,2.2-0.6l0.8-1C50,33.4,50,33.3,50,33.1z M10.3,18.1
				l-1.6-2.8l2.3-0.7L10.3,18.1z"/>
		</g>
	</g>
</g>
</svg>
