<svg aria-hidden="true" style="position: absolute; width: 0; height: 0; overflow: hidden;" version="1.1" xmlns="http://www.w3.org/2000/svg" xmlns:xlink="http://www.w3.org/1999/xlink">
<defs>
<symbol id="i-fae-air-conditioner" viewBox="0 0 32 32">
<title>air-conditioner</title>
<path d="M3.008 17.024h1.28c0 0 0.128-0.64 0.32-1.472s1.664-1.472 3.328-1.472h16.512c1.664 0 3.072 0.64 3.2 1.472l0.192 1.472h1.152c1.664 0 3.008-1.344 3.008-3.008v-5.568c0-1.408-0.96-2.56-2.24-2.88 0.064 0.256 0.128 0.576 0.128 0.896v1.216c0 1.984-1.6 3.584-3.584 3.584h-20.608c-1.984 0-3.584-1.6-3.584-3.584v-1.216c0-0.32 0.064-0.576 0.128-0.896-1.28 0.32-2.24 1.472-2.24 2.88v5.632c0 1.6 1.344 2.944 3.008 2.944z"></path>
<path d="M5.696 10.048h20.608c1.344 0 2.368-1.088 2.368-2.432v-1.216c0-0.384-0.064-0.704-0.256-1.024h-24.96c-0.128 0.32-0.256 0.64-0.256 1.024v1.28c0.128 1.28 1.152 2.368 2.496 2.368zM4.48 6.528h22.656c0.192 0 0.32 0.128 0.32 0.32s-0.128 0.32-0.32 0.32h-22.656c-0.192 0-0.32-0.128-0.32-0.32 0.064-0.192 0.192-0.32 0.32-0.32zM4.48 8.384h22.656c0.192 0 0.32 0.128 0.32 0.32s-0.128 0.32-0.32 0.32h-22.656c-0.192 0-0.32-0.128-0.32-0.32 0.064-0.192 0.192-0.32 0.32-0.32z"></path>
<path d="M26.688 15.936c-0.064-0.576-1.472-1.088-3.136-1.088h-14.912c-1.664 0-3.072 0.512-3.2 1.088s-0.192 1.088-0.192 1.088h21.632l-0.192-1.088z"></path>
<path d="M7.296 26.432c0.128 0.128 0.256 0.128 0.384 0.128 0.192 0 0.32-0.064 0.448-0.192 0.064-0.128 2.24-2.624 0.64-4.736-0.896-1.152-0.256-1.792-0.064-1.92 0.256-0.192 0.32-0.576 0.064-0.832-0.192-0.256-0.576-0.32-0.832-0.064-0.64 0.512-1.472 1.92-0.064 3.648 1.024 1.28-0.576 3.136-0.576 3.2-0.32 0.128-0.256 0.512 0 0.768z"></path>
<path d="M12.544 26.432c0.128 0.128 0.256 0.128 0.384 0.128 0.192 0 0.32-0.064 0.448-0.192 0.064-0.128 2.24-2.624 0.64-4.736-0.896-1.152-0.256-1.792-0.064-1.92 0.256-0.192 0.32-0.576 0.064-0.832-0.192-0.256-0.576-0.32-0.832-0.064-0.64 0.512-1.472 1.92-0.064 3.648 1.024 1.28-0.576 3.136-0.576 3.2-0.32 0.128-0.256 0.512 0 0.768z"></path>
<path d="M17.792 26.432c0.128 0.128 0.256 0.128 0.384 0.128 0.192 0 0.32-0.064 0.448-0.192 0.064-0.128 2.24-2.624 0.64-4.736-0.896-1.152-0.256-1.792-0.064-1.92 0.256-0.192 0.32-0.576 0.064-0.832-0.192-0.256-0.576-0.32-0.832-0.064-0.64 0.512-1.472 1.92-0.064 3.648 1.024 1.28-0.576 3.136-0.576 3.2-0.32 0.128-0.256 0.512 0 0.768z"></path>
<path d="M23.040 26.432c0.128 0.128 0.256 0.128 0.384 0.128 0.192 0 0.32-0.064 0.448-0.192 0.064-0.128 2.24-2.624 0.64-4.736-0.896-1.152-0.256-1.792-0.064-1.92 0.256-0.192 0.32-0.576 0.064-0.832-0.192-0.256-0.576-0.32-0.832-0.064-0.64 0.512-1.472 1.92-0.064 3.648 1.024 1.28-0.576 3.136-0.576 3.2-0.32 0.128-0.256 0.512 0 0.768z"></path>
</symbol>
<symbol id="i-fae-airport" viewBox="0 0 32 32">
<title>airport</title>
<path d="M29.056 10.944c0-0.128-0.128-0.32-0.192-0.384l-1.408-1.28-0.128-1.024c-0.064-0.512-0.448-0.96-0.896-1.152l-1.664-0.64c-0.128-0.064-0.256 0-0.32 0.128s0 0.256 0.128 0.32l1.664 0.64c0.256 0.128 0.512 0.32 0.576 0.576l-1.088-0.192c-0.064 0-0.064 0-0.128 0-0.128 0.064-0.192 0.128-0.192 0.192 0 0.512 0.256 1.024 0.768 1.28 0.064 0.064 0.192 0.064 0.256 0.128l0.832 0.192 1.28 1.152c0.064 0.064 0.064 0.064 0.064 0.128s0 0.128 0 0.128c-0.064 0.128-0.128 0.128-0.256 0.128l-0.576-0.128c-1.792-0.384-3.52-0.896-5.184-1.664h0.192c0.128 0 0.192-0.064 0.192-0.192 0.064-0.128 0-0.256-0.128-0.32l-4.032-1.92c-0.064-0.064-0.128 0-0.256 0l-0.448 0.256-2.496-1.216c-0.704-0.32-1.024-1.216-0.704-1.92l1.088-2.624 1.024 0.512-0.192 1.792c0 0.128 0.064 0.192 0.128 0.256l6.464 2.432c0.128 0.064 0.256 0 0.32-0.128s0-0.256-0.128-0.32l-1.472-0.512-1.472-2.56c0-0.064-0.064-0.064-0.128-0.128l-1.792-0.832c-0.064 0-0.128-0.064-0.192 0-0.128 0.064-0.192 0.128-0.128 0.256l0.32 1.92-1.408-0.512 0.128-1.728c0-0.128-0.064-0.192-0.128-0.256l-1.408-0.704c0 0-0.064 0-0.064 0-0.128 0-0.192 0.064-0.256 0.128l-1.216 2.88c-0.384 0.96 0 2.112 0.96 2.56l2.176 1.024-0.192 0.128c-0.128 0.064-0.128 0.192-0.064 0.32s0.192 0.128 0.32 0.064l1.088-0.64 3.2 1.536-4.672 0.704-1.28-0.64 0.832-0.512c0.128-0.064 0.128-0.192 0.064-0.32s-0.192-0.128-0.32-0.064l-1.28 0.768c-0.064 0.064-0.128 0.128-0.128 0.192 0 0.128 0.064 0.192 0.128 0.256l1.792 0.832c0.064 0 0.064 0 0.128 0l4.48-0.64 0.192 0.128c1.856 0.896 3.776 1.536 5.76 1.92l0.576 0.128c0.32 0.064 0.64-0.128 0.768-0.384 0.128-0.128 0.192-0.32 0.128-0.448zM26.56 9.088c-0.32-0.064-0.512-0.256-0.576-0.576l0.96 0.192 0.064 0.512-0.448-0.128zM19.008 2.688l1.28 0.64 1.152 1.92-2.176-0.832-0.256-1.728z"></path>
<path d="M18.944 5.184c-0.384-0.192-0.768 0-0.96 0.32-0.192 0.384 0 0.768 0.32 0.96 0.384 0.192 0.768 0 0.96-0.32 0.192-0.384 0.064-0.768-0.32-0.96zM18.56 6.016c-0.128-0.064-0.128-0.192-0.128-0.32 0.064-0.128 0.192-0.128 0.32-0.128 0.128 0.064 0.128 0.192 0.128 0.32-0.064 0.128-0.192 0.192-0.32 0.128z"></path>
<path d="M20.8 6.016c-0.384-0.192-0.768 0-0.96 0.32-0.192 0.384 0 0.768 0.32 0.96 0.384 0.192 0.768 0 0.96-0.32 0.192-0.384 0.064-0.832-0.32-0.96zM20.416 6.848c-0.128-0.064-0.128-0.192-0.128-0.32 0.064-0.128 0.192-0.128 0.32-0.128 0.128 0.064 0.128 0.192 0.128 0.32s-0.192 0.192-0.32 0.128z"></path>
<path d="M22.784 6.848c-0.384-0.192-0.768 0-0.96 0.32-0.192 0.384 0 0.768 0.32 0.96 0.384 0.192 0.768 0 0.96-0.32 0.128-0.384 0-0.832-0.32-0.96zM22.336 7.68c-0.128-0.064-0.128-0.192-0.128-0.32 0.064-0.128 0.192-0.128 0.32-0.128s0.128 0.192 0.128 0.32c-0.064 0.128-0.192 0.128-0.32 0.128z"></path>
<path d="M2.496 10.048h1.024v0.96h-1.024v-0.96z"></path>
<path d="M4.48 10.048h1.024v0.96h-1.024v-0.96z"></path>
<path d="M6.528 10.048h1.024v0.96h-1.024v-0.96z"></path>
<path d="M8.512 10.048h1.024v0.96h-1.024v-0.96z"></path>
<path d="M29.44 30.016v-11.968h-20.032v-3.328l2.496-1.984v-4.672h-1.664l-1.024-1.984h-2.88v-4.608h-0.832v4.544h-2.816l-1.024 1.984h-1.664v4.672l2.496 2.048v15.36h-2.496v0.96h32v-0.96h-2.56zM3.264 6.976h5.44l0.512 1.088h-6.464l0.512-1.088zM0.96 8.96h10.048v3.072h-10.048v-3.072zM5.504 30.016h-2.048v-12.544h2.048v12.544zM8.512 30.016h-2.048v-12.544h2.048v12.544zM8.512 16.512h-5.056v-1.536h5.056v1.536zM3.136 14.016l-1.344-1.088h8.32l-1.344 1.088h-5.632zM12.48 30.016h-3.072v-2.048h3.072v2.048zM12.48 27.008h-3.072v-2.048h3.072v2.048zM12.48 24h-3.072v-2.048h3.072v2.048zM12.48 21.056h-3.072v-2.048h3.072v2.048zM16.512 30.016h-3.072v-2.048h3.072v2.048zM16.512 27.008h-3.072v-2.048h3.072v2.048zM16.512 24h-3.072v-2.048h3.072v2.048zM16.512 21.056h-3.072v-2.048h3.072v2.048zM20.48 30.016h-3.072v-2.048h3.072v2.048zM20.48 27.008h-3.072v-2.048h3.072v2.048zM20.48 24h-3.072v-2.048h3.072v2.048zM20.48 21.056h-3.072v-2.048h3.072v2.048zM24.512 30.016h-3.072v-2.048h3.072v2.048zM24.512 27.008h-3.072v-2.048h3.072v2.048zM24.512 24h-3.072v-2.048h3.072v2.048zM24.512 21.056h-3.072v-2.048h3.072v2.048zM28.48 30.016h-3.072v-2.048h3.072v2.048zM28.48 27.008h-3.072v-2.048h3.072v2.048zM28.48 24h-3.072v-2.048h3.072v2.048zM28.48 21.056h-3.072v-2.048h3.072v2.048z"></path>
</symbol>
<symbol id="i-fae-animal-footprints" viewBox="0 0 32 32">
<title>animal-footprints</title>
<path d="M7.616 4.096c-0.768-1.216-2.176-1.664-3.264-0.96-0.512 0.256-0.832 0.768-0.96 1.28-0.128 0.64 0 1.344 0.384 1.984 0.384 0.576 0.96 1.152 1.6 1.472 0.448 0.192 0.832 0.32 1.216 0.32 0.32 0 0.576-0.064 0.832-0.192 0.384-0.192 0.64-0.576 0.704-1.088 0.256-0.832 0-1.984-0.512-2.816zM7.232 6.72c-0.064 0.192-0.128 0.384-0.32 0.512-0.064 0.064-0.192 0.064-0.32 0.064-0.64 0-1.536-0.576-2.048-1.344-0.256-0.448-0.384-0.896-0.256-1.28 0.064-0.32 0.256-0.576 0.512-0.704 0.192-0.128 0.384-0.192 0.64-0.192 0.512 0 1.024 0.32 1.344 0.832 0.448 0.64 0.64 1.472 0.448 2.112z"></path>
<path d="M4.544 9.024c-0.192-0.576-0.576-1.216-1.024-1.6-0.96-0.832-2.24-0.832-3.008 0-0.384 0.384-0.512 0.96-0.448 1.472s0.384 1.088 0.832 1.472c0.448 0.384 1.088 0.704 1.728 0.832 0.192 0.064 0.384 0.064 0.512 0.064 0.512 0 0.896-0.192 1.216-0.448 0.32-0.448 0.384-1.088 0.192-1.792zM3.648 10.176c-0.128 0.128-0.448 0.192-0.832 0.128-0.448-0.064-0.96-0.32-1.28-0.64-0.32-0.256-0.512-0.576-0.512-0.896-0.064-0.256 0.064-0.576 0.192-0.768 0.192-0.192 0.448-0.32 0.704-0.32 0.32 0 0.64 0.128 0.96 0.384 0.576 0.64 1.088 1.728 0.768 2.112z"></path>
<path d="M12.736 2.496c-0.32-0.448-0.832-0.768-1.408-0.832-0.96-0.128-1.856 0.384-2.304 1.28-0.128 0.256 0 0.512 0.192 0.64 0.256 0.128 0.512 0 0.64-0.192 0.32-0.576 0.832-0.832 1.344-0.768 0.32 0.064 0.576 0.192 0.768 0.448 0.256 0.32 0.32 0.768 0.256 1.28-0.192 1.088-1.088 2.176-1.664 2.112-0.448-0.064-0.832-0.768-0.96-1.6 0-0.256-0.256-0.448-0.512-0.384-0.256 0-0.448 0.256-0.384 0.512 0.128 1.088 0.704 2.304 1.728 2.432 0.064 0 0.128 0 0.192 0 0.576 0 1.152-0.32 1.6-0.896s0.832-1.28 0.896-1.984c0.192-0.768 0-1.472-0.384-2.048z"></path>
<path d="M17.6 5.312c-0.128-0.512-0.512-0.96-1.024-1.216s-1.024-0.256-1.536 0c-0.512 0.192-0.896 0.64-1.216 1.216-0.256 0.576-0.384 1.28-0.32 1.856 0.064 0.768 0.384 1.344 0.896 1.536 0.192 0.064 0.384 0.128 0.576 0.128 0.96 0 1.984-0.96 2.432-1.856 0.32-0.512 0.384-1.152 0.192-1.664zM16.576 6.592c-0.32 0.704-1.28 1.536-1.792 1.28-0.448-0.192-0.384-1.472-0.064-2.176 0.192-0.384 0.448-0.64 0.704-0.768 0.128-0.064 0.256-0.064 0.384-0.064s0.256 0 0.384 0.064c0.256 0.128 0.448 0.32 0.512 0.576 0.128 0.384 0.064 0.704-0.128 1.088z"></path>
<path d="M15.808 12.096c-0.192-1.024-0.832-1.92-1.792-2.624-0.192-0.128-0.512-0.128-0.64 0.128-0.128 0.192-0.128 0.512 0.128 0.64 0.768 0.576 1.28 1.28 1.408 2.048 0.192 0.832-0.128 1.472-0.896 1.984-0.704 0.448-1.792 0.832-3.456 1.216-1.152 0.256-2.048 0.32-2.752 0.32-1.92 0-2.368-0.768-2.496-1.536-0.384-1.856 1.28-4.352 4.032-4.928 0.832-0.192 1.728-0.128 2.624 0.128 0.256 0.064 0.512-0.064 0.576-0.32s-0.064-0.512-0.32-0.576c-0.96-0.32-2.048-0.32-3.072-0.128-1.472 0.32-2.816 1.152-3.712 2.304s-1.28 2.496-1.024 3.712c0.256 1.216 1.024 1.92 2.368 2.176 0.32 0.064 0.704 0.064 1.088 0.064 0.768 0 1.728-0.128 2.944-0.384 1.792-0.384 2.944-0.768 3.776-1.344 1.024-0.704 1.472-1.664 1.216-2.88z"></path>
<path d="M22.080 14.784c-0.576 0-1.088 0.192-1.536 0.576-0.512 0.448-0.768 1.152-0.768 1.92 0 0.704 0.192 1.472 0.512 2.112 0.448 0.768 1.024 1.216 1.6 1.216 0 0 0.064 0 0.064 0 0.384 0 0.832-0.192 1.152-0.512 0.64-0.576 1.088-1.664 1.088-2.624 0.128-1.472-0.832-2.624-2.112-2.688zM23.296 17.408c0 0.704-0.384 1.536-0.832 1.984-0.128 0.128-0.32 0.256-0.512 0.256-0.64 0-1.28-1.28-1.28-2.368 0-0.512 0.192-0.96 0.512-1.216 0.192-0.192 0.512-0.32 0.768-0.32 0 0 0.064 0 0.064 0 0.768 0 1.344 0.704 1.28 1.664z"></path>
<path d="M18.944 17.856c-0.192-0.576-0.512-1.088-0.96-1.408s-1.024-0.384-1.536-0.256c-1.088 0.32-1.664 1.472-1.344 2.688 0.128 0.576 0.512 1.216 0.96 1.664s0.896 0.64 1.344 0.64c0.128 0 0.192 0 0.32-0.064 1.216-0.256 1.536-2.112 1.216-3.264zM17.536 20.224c-0.192 0.064-0.512-0.064-0.768-0.384-0.32-0.32-0.576-0.768-0.704-1.216-0.192-0.768 0.064-1.408 0.64-1.536 0.064 0 0.128 0 0.256 0 0.192 0 0.384 0.064 0.512 0.192 0.256 0.192 0.448 0.512 0.576 0.896 0.192 0.704 0 1.92-0.512 2.048z"></path>
<path d="M29.376 18.944c0-0.576-0.256-1.088-0.704-1.472-0.704-0.64-1.728-0.704-2.624-0.256-0.256 0.128-0.32 0.384-0.192 0.64s0.384 0.32 0.64 0.192c0.576-0.32 1.152-0.256 1.536 0.128 0.256 0.192 0.384 0.512 0.384 0.832 0 0.384-0.192 0.832-0.512 1.216-0.768 0.768-2.112 1.216-2.56 0.832-0.32-0.32-0.256-1.088 0.128-1.856 0.128-0.256 0-0.512-0.192-0.64-0.256-0.128-0.512 0-0.64 0.192-0.512 0.96-0.704 2.304 0.064 3.008 0.32 0.256 0.704 0.384 1.152 0.384 0.256 0 0.576-0.064 0.832-0.128 0.704-0.192 1.408-0.64 1.856-1.152 0.64-0.576 0.896-1.216 0.832-1.92z"></path>
<path d="M31.744 22.464c-0.576-0.96-1.856-1.216-2.944-0.512-0.512 0.32-1.024 0.832-1.344 1.344-0.384 0.64-0.448 1.28-0.128 1.792 0.256 0.448 0.832 0.768 1.6 0.768 0 0 0 0 0 0 0.64 0 1.344-0.192 1.856-0.512s0.96-0.768 1.088-1.28c0.192-0.576 0.128-1.152-0.128-1.6zM30.976 23.68c-0.128 0.32-0.32 0.576-0.704 0.768-0.384 0.256-0.896 0.384-1.344 0.384-0.384 0-0.704-0.128-0.832-0.256-0.128-0.192-0.064-0.512 0.128-0.832 0.256-0.384 0.576-0.768 0.96-1.024 0.64-0.384 1.344-0.32 1.664 0.192 0.256 0.256 0.256 0.512 0.128 0.768z"></path>
<path d="M26.56 25.472c-0.064-0.256-0.384-0.384-0.576-0.256-0.256 0.064-0.384 0.384-0.256 0.576 0.32 0.896 0.32 1.792 0.064 2.496-0.384 1.024-1.408 1.856-5.376 0.192-1.536-0.64-2.56-1.216-3.2-1.792-0.704-0.64-0.832-1.344-0.512-2.112 0.384-0.896 1.216-1.6 2.368-1.984 1.216-0.384 2.56-0.384 3.712 0.128 0.832 0.32 1.536 0.832 2.112 1.536 0.192 0.192 0.448 0.256 0.64 0.064s0.256-0.448 0.064-0.64c-0.64-0.768-1.536-1.408-2.432-1.792-1.408-0.576-2.944-0.64-4.352-0.128-1.408 0.448-2.432 1.408-2.88 2.496-0.448 1.152-0.192 2.176 0.768 3.136 0.704 0.704 1.792 1.344 3.456 1.984 1.664 0.704 2.88 1.024 3.904 1.024 0 0 0 0 0 0 1.344 0 2.24-0.576 2.688-1.728 0.256-0.96 0.256-2.112-0.192-3.2z"></path>
</symbol>
<symbol id="i-fae-badminton-racket" viewBox="0 0 32 32">
<title>badminton-racket</title>
<path d="M29.312 24.384h-1.536l-6.272-2.112c-0.256-0.064-0.576-0.064-0.832 0.128l-1.984 1.664 1.664 1.408-1.6 1.6 1.6 1.6-1.664 1.408 1.984 1.664c0.128 0.128 0.32 0.192 0.512 0.192 0.064 0 0.192 0 0.256-0.064l6.272-2.112h1.536c1.472 0 2.688-1.216 2.688-2.688 0.064-1.472-1.152-2.688-2.624-2.688zM21.312 23.424l5.824 1.92v0.576l-5.76-0.96-1.024-0.832 0.96-0.704zM21.376 26.048l5.76 0.96v0.192l-5.76 0.96-1.024-1.024 1.024-1.088zM21.312 30.848l-0.896-0.768 1.024-0.832 5.696-0.96v0.576l-5.824 1.984z"></path>
<path d="M16.32 11.392h1.088v1.088h-1.088v-1.088z"></path>
<path d="M0.384 28.032c-0.512 0.512-0.512 1.28-0.064 1.792l0.448 0.448c0.192 0.192 0.512 0.32 0.832 0.32s0.704-0.128 0.96-0.384l3.456-3.456-2.176-2.176-3.456 3.456z"></path>
<path d="M28.544 2.432c-1.536-1.536-3.648-2.368-6.080-2.368-3.392 0-6.848 1.6-9.6 4.288-3.136 3.136-4.736 7.36-4.224 11.072 0.192 1.344-0.064 2.624-0.704 3.712l-0.064 0.064c-0.512 0.512-0.704 1.28-0.512 1.92l-2.752 2.752 2.176 2.176 2.752-2.752c0.64 0.128 1.472-0.064 1.92-0.512 0.96-0.64 2.176-0.832 3.328-0.576 0.704 0.192 1.472 0.256 2.176 0.256 3.392 0 6.848-1.6 9.6-4.288 4.928-4.928 5.76-11.968 1.984-15.744zM12.288 20.096c-1.216 0-2.176-1.216-2.176-2.688 0-0.32 0.256-0.512 0.512-0.512 0.32 0 0.512 0.256 0.512 0.512 0 0.896 0.512 1.6 1.088 1.6 0.32 0 0.512 0.256 0.512 0.512 0.128 0.32-0.128 0.576-0.448 0.576zM20.608 13.568h-2.176v1.088c0 0.32-0.256 0.512-0.512 0.512s-0.512-0.256-0.512-0.512v-1.088h-1.088v1.6c0 0.32-0.256 0.512-0.512 0.512-0.32 0-0.512-0.256-0.512-0.512v-1.6h-1.088c-0.32 0-0.512-0.256-0.512-0.512 0-0.32 0.256-0.512 0.512-0.512h1.088v-1.088h-2.176c-0.32 0-0.512-0.256-0.512-0.512s0.256-0.512 0.512-0.512h2.176v-1.28c0-0.32 0.256-0.512 0.512-0.512 0.32 0 0.512 0.256 0.512 0.512v1.28h1.088v-2.176c0-0.32 0.256-0.512 0.512-0.512s0.512 0.256 0.512 0.512v2.176h0.768c0.32 0 0.512 0.256 0.512 0.512s-0.256 0.512-0.512 0.512h-0.704v1.088h2.176c0.32 0 0.512 0.256 0.512 0.512s-0.256 0.512-0.576 0.512z"></path>
</symbol>
<symbol id="i-fae-barbecue" viewBox="0 0 32 32">
<title>barbecue</title>
<path d="M23.744 30.912h-1.216l-2.368-12.736c2.368-1.408 3.904-3.84 4.096-6.592h-4.416v0.576c0 0.896-0.768 1.664-1.664 1.664h-4.416c-0.896 0-1.664-0.768-1.664-1.664v-0.576h-4.416c0.192 2.944 1.92 5.504 4.544 6.848l-1.792 8.064c-1.408 0-2.56 1.088-2.752 2.496-0.128 1.408 0.832 2.688 2.24 2.944s2.752-0.576 3.2-1.92c0.384-1.344-0.256-2.816-1.6-3.328l0.64-2.944h7.872l1.344 7.168h-0.96c-0.32 0-0.576 0.256-0.576 0.576s0.256 0.576 0.576 0.576h3.328c0.32 0 0.576-0.256 0.576-0.576-0.064-0.32-0.32-0.576-0.576-0.576zM12.48 22.592l0.832-3.776c1.92 0.64 3.968 0.64 5.824-0.128l0.704 3.904h-7.36z"></path>
<path d="M19.072 2.688c0 0 0 0 0 0-1.024-0.32-2.048-0.448-3.072-0.448-4.352 0-7.872 2.688-8.256 6.080h16.512c-0.256-2.56-2.304-4.736-5.184-5.632z"></path>
<path d="M18.368 1.344c-0.512-0.832-1.408-1.344-2.368-1.344s-1.856 0.512-2.368 1.344c1.536-0.32 3.2-0.32 4.736 0z"></path>
<path d="M25.92 9.408h-19.84c-0.32 0-0.576 0.256-0.576 0.576s0.256 0.576 0.576 0.576h19.84c0.32 0 0.576-0.256 0.576-0.576 0-0.384-0.256-0.576-0.576-0.576z"></path>
<path d="M18.176 12.672c0.32 0 0.576-0.256 0.576-0.576v-0.576h-5.504v0.64c0 0.32 0.256 0.576 0.576 0.576h4.352z"></path>
</symbol>
<symbol id="i-fae-beach" viewBox="0 0 32 32">
<title>beach</title>
<path d="M5.376 4.224c-1.664 0-3.008 1.344-3.008 3.008s1.344 3.008 3.008 3.008c1.664 0 3.008-1.344 3.008-3.008s-1.344-3.008-3.008-3.008zM5.376 9.344c-1.152 0-2.112-0.96-2.112-2.112s0.96-2.112 2.112-2.112 2.112 0.96 2.112 2.112-0.96 2.112-2.112 2.112z"></path>
<path d="M5.376 1.856c-0.256 0-0.512 0.256-0.512 0.512v0.96c0 0.256 0.192 0.448 0.448 0.448s0.448-0.192 0.448-0.448v-0.96c0.064-0.256-0.128-0.512-0.384-0.512z"></path>
<path d="M9.152 3.456c-0.192-0.192-0.512-0.192-0.64 0l-0.64 0.64c-0.192 0.192-0.192 0.512 0 0.64 0.064 0.064 0.192 0.128 0.32 0.128s0.256-0.064 0.32-0.128l0.64-0.64c0.192-0.192 0.192-0.448 0-0.64z"></path>
<path d="M10.24 6.784h-0.96c-0.256 0-0.448 0.192-0.448 0.448s0.192 0.448 0.448 0.448h0.96c0.256 0 0.448-0.192 0.448-0.448s-0.192-0.448-0.448-0.448z"></path>
<path d="M9.152 10.368l-0.64-0.64c-0.192-0.192-0.512-0.192-0.64 0s-0.192 0.512 0 0.64l0.64 0.64c0.064 0.064 0.192 0.128 0.32 0.128s0.256-0.064 0.32-0.128c0.192-0.192 0.192-0.448 0-0.64z"></path>
<path d="M5.376 10.688c-0.256 0-0.448 0.192-0.448 0.448v0.96c0 0.256 0.192 0.448 0.448 0.448s0.448-0.192 0.448-0.448v-0.96c0-0.256-0.192-0.448-0.448-0.448z"></path>
<path d="M2.88 9.664c-0.192-0.192-0.512-0.192-0.64 0l-0.64 0.64c-0.192 0.192-0.192 0.512 0 0.64 0.064 0.064 0.192 0.128 0.32 0.128s0.256-0.064 0.32-0.128l0.64-0.64c0.192-0.128 0.192-0.448 0-0.64z"></path>
<path d="M1.408 6.784h-0.96c-0.256 0-0.448 0.192-0.448 0.448s0.192 0.448 0.448 0.448h0.96c0.256 0 0.448-0.192 0.448-0.448s-0.192-0.448-0.448-0.448z"></path>
<path d="M2.88 4.096l-0.64-0.64c-0.192-0.192-0.512-0.192-0.64 0s-0.192 0.512 0 0.64l0.64 0.64c0.064 0.128 0.192 0.192 0.32 0.192s0.256-0.064 0.32-0.128c0.192-0.192 0.192-0.512 0-0.704z"></path>
<path d="M31.744 28.544c-0.832-0.576-1.792-0.832-2.688-0.768-0.896-1.216-2.496-2.24-4.736-2.944-1.408-0.448-2.944-0.832-4.608-1.024l3.328-8.448c0.512 0.384 0.96 0.832 1.344 1.28 0.128 0.192 0.32 0.256 0.512 0.192 1.088-0.192 2.304-0.064 3.392 0.384 1.152 0.448 2.112 1.152 2.752 2.112 0.064 0.128 0.256 0.192 0.384 0.192 0.064 0 0.064 0 0.128 0 0.192-0.064 0.32-0.192 0.384-0.384 0-0.128 0.448-3.072-0.576-6.336-0.064-0.256-0.32-0.384-0.576-0.32s-0.384 0.32-0.32 0.576c0.576 1.856 0.64 3.712 0.576 4.8-0.64-0.64-1.472-1.152-2.368-1.536-1.024-0.384-2.112-0.576-3.2-0.512 0 0 0-0.064 0-0.064 0.384-1.152 0.64-2.304 0.768-3.456 0.128-1.088 0.128-2.176 0-3.264-0.064-0.64-0.192-1.216-0.384-1.856 0 0 0 0 0 0 1.664 0.896 3.008 2.24 3.84 4.032 0.128 0.256 0.384 0.32 0.64 0.192s0.32-0.384 0.192-0.64c-1.152-2.304-3.008-4.032-5.44-4.992-3.392-1.344-6.848-0.896-10.112 1.28-2.432 1.6-3.84 3.584-3.904 3.712-0.128 0.128-0.128 0.384 0 0.512 0.128 0.192 0.32 0.256 0.512 0.192 1.152-0.192 2.304-0.064 3.456 0.384 1.088 0.448 2.048 1.152 2.752 2.048 0.128 0.192 0.32 0.256 0.512 0.192 0.576-0.128 1.216-0.128 1.856-0.064l-3.776 9.408c-0.064 0-0.192 0-0.256 0-2.176 0-4.224 0.192-6.144 0.64-0.256 0.064-0.384 0.32-0.384 0.576 0.064 0.256 0.32 0.384 0.576 0.384 1.856-0.384 3.904-0.64 5.952-0.64 0.96 0 1.984 0.064 2.944 0.128 0 0 0 0 0 0 1.792 0.192 3.52 0.512 4.992 1.024 1.792 0.576 3.2 1.408 3.968 2.24-0.384 0.128-0.832 0.32-1.152 0.576-1.152 0.832-2.688 0.832-3.904 0-1.472-1.024-3.456-1.024-4.928 0-1.152 0.832-2.688 0.832-3.904 0-1.472-1.024-3.456-1.024-4.928 0-1.152 0.832-2.688 0.832-3.904 0-0.448 0-0.832-0.192-1.216-0.32 0.832-0.896 2.176-1.664 3.968-2.24 0.256-0.064 0.384-0.32 0.32-0.576s-0.32-0.384-0.576-0.32c-2.24 0.768-3.904 1.792-4.736 2.944-0.96-0.064-1.92 0.192-2.688 0.768-0.192 0.128-0.256 0.448-0.128 0.64s0.448 0.256 0.64 0.128c0.704-0.448 1.536-0.64 2.304-0.576 0 0 0.064 0 0.064 0 0.512 0.064 1.024 0.256 1.472 0.576 1.472 1.024 3.456 1.024 4.928 0 1.152-0.832 2.688-0.832 3.904 0 1.472 1.024 3.456 1.024 4.928 0 1.152-0.832 2.688-0.832 3.904 0 0.768 0.512 1.6 0.768 2.496 0.768 0.832 0 1.728-0.256 2.496-0.768 0.448-0.32 0.96-0.512 1.472-0.576 0 0 0.064 0 0.064 0 0.768-0.064 1.6 0.128 2.304 0.576 0.192 0.128 0.512 0.064 0.64-0.128 0.192-0.256 0.128-0.512-0.128-0.704zM18.88 13.184c0 0 0 0 0 0 0.448-0.96 0.96-1.856 1.536-2.688 0.128-0.192 0.128-0.512-0.128-0.64-0.192-0.128-0.512-0.128-0.64 0.128-0.448 0.64-0.896 1.344-1.28 2.112-0.128 0.256-0.256 0.512-0.384 0.768 0 0 0 0 0 0-0.704-0.768-1.6-1.344-2.624-1.792-0.896-0.384-1.856-0.512-2.816-0.512 0.64-0.704 1.664-1.728 3.008-2.624s2.688-1.472 4.096-1.728c1.344-0.256 2.688-0.192 4.032 0.192 0 0 0 0 0 0-0.704 0.384-1.408 0.896-1.984 1.472-0.256 0.192-0.448 0.448-0.704 0.64-0.192 0.192-0.192 0.512 0 0.64s0.512 0.192 0.64 0c0.576-0.64 1.28-1.216 2.048-1.664 0.32-0.192 0.704-0.384 1.088-0.576 0.128 0.192 0.256 0.576 0.32 0.96 0.576 2.048 0.384 4.224-0.064 6.272-0.128 0.448-0.256 0.896-0.384 1.28 0 0 0 0 0 0-0.64-0.704-1.408-1.216-2.304-1.6 0 0 0 0-0.064 0-1.088-0.448-2.24-0.704-3.392-0.64zM18.752 23.744c-0.192 0-0.448-0.064-0.64-0.064-0.256 0-0.512 0-0.704-0.064l3.712-9.28c0.192 0.064 0.448 0.128 0.64 0.256 0.064 0 0.576 0.256 0.576 0.256l-3.584 8.896z"></path>
</symbol>
<symbol id="i-fae-bed" viewBox="0 0 32 32">
<title>bed</title>
<path d="M30.72 16.64h-29.44c-0.704 0-1.28 0.576-1.28 1.28v1.472c0 0.128 0.128 0.256 0.256 0.256s0.256-0.128 0.256-0.256v-1.472c0-0.384 0.32-0.768 0.768-0.768h29.44c0.384 0 0.768 0.32 0.768 0.768v1.472c0 0.128 0.128 0.256 0.256 0.256s0.256-0.128 0.256-0.256v-1.472c0-0.704-0.576-1.28-1.28-1.28z"></path>
<path d="M30.272 23.104h-28.544c-0.128 0-0.256 0.128-0.256 0.256s0.128 0.256 0.256 0.256h28.48c0.128 0 0.256-0.128 0.256-0.256s-0.064-0.256-0.192-0.256z"></path>
<path d="M31.744 19.136h-3.008c-0.128 0-0.256 0.128-0.256 0.256s0.128 0.256 0.256 0.256h2.752v3.776c0 0.128 0.128 0.256 0.256 0.256s0.256-0.128 0.256-0.256v-3.968c0-0.192-0.128-0.32-0.256-0.32z"></path>
<path d="M26.752 19.136h-26.496c-0.128 0-0.256 0.128-0.256 0.256v3.968c0 0.128 0.128 0.256 0.256 0.256s0.256-0.128 0.256-0.256v-3.776h26.24c0.128 0 0.256-0.128 0.256-0.256 0-0.064-0.128-0.192-0.256-0.192z"></path>
<path d="M1.728 23.104c-0.128 0-0.256 0.128-0.256 0.256v2.496h-0.96v-2.496c0-0.128-0.128-0.256-0.256-0.256s-0.256 0.128-0.256 0.256v2.752c0 0.128 0.128 0.256 0.256 0.256h1.472c0.128 0 0.256-0.128 0.256-0.256v-2.752c0-0.128-0.064-0.256-0.256-0.256z"></path>
<path d="M31.744 23.104c-0.128 0-0.256 0.128-0.256 0.256v2.496h-1.024v-2.496c0-0.128-0.128-0.256-0.256-0.256s-0.256 0.128-0.256 0.256v2.752c0 0.128 0.128 0.256 0.256 0.256h1.472c0.128 0 0.256-0.128 0.256-0.256v-2.752c0.064-0.128-0.064-0.256-0.192-0.256z"></path>
<path d="M29.248 5.632h-26.496c-0.704 0-1.28 0.576-1.28 1.28v6.272c0 0.128 0.128 0.256 0.256 0.256s0.256-0.128 0.256-0.256v-6.272c0-0.384 0.32-0.768 0.768-0.768h26.496c0.384 0 0.768 0.32 0.768 0.768v6.272c0 0.128 0.128 0.256 0.256 0.256s0.256-0.128 0.256-0.256v-6.272c0-0.704-0.576-1.28-1.28-1.28z"></path>
<path d="M1.856 12.864c-0.128-0.064-0.256 0-0.32 0.128l-1.472 4.48c-0.064 0.128 0 0.256 0.128 0.32 0 0 0.064 0 0.064 0 0.128 0 0.192-0.064 0.256-0.192l1.472-4.48c0.064-0.064 0-0.192-0.128-0.256z"></path>
<path d="M32 17.536l-1.472-4.48c-0.064-0.128-0.192-0.192-0.32-0.128s-0.192 0.192-0.128 0.32l1.472 4.48c0.064 0.128 0.128 0.192 0.256 0.192 0 0 0.064 0 0.064 0 0.064-0.128 0.128-0.256 0.128-0.384z"></path>
<path d="M30.272 12.864h-2.24c-0.128 0-0.256 0.128-0.256 0.256s0.128 0.256 0.256 0.256h2.24c0.128 0 0.256-0.128 0.256-0.256s-0.128-0.256-0.256-0.256z"></path>
<path d="M3.968 12.864h-2.24c-0.128 0-0.256 0.128-0.256 0.256s0.128 0.256 0.256 0.256h2.24c0.128 0 0.256-0.128 0.256-0.256s-0.064-0.256-0.256-0.256z"></path>
<path d="M16 9.6c0.128 0 0.256-0.128 0.256-0.256v-0.256c0-0.704-0.576-1.28-1.28-1.28h-9.984c-0.704 0-1.28 0.576-1.28 1.28v3.968c0 0.704 0.576 1.28 1.28 1.28h9.984c0.704 0 1.28-0.576 1.28-1.28v-1.984c0-0.128-0.128-0.256-0.256-0.256s-0.256 0.128-0.256 0.256v1.984c0 0.384-0.32 0.768-0.768 0.768h-9.984c-0.384 0-0.768-0.32-0.768-0.768v-3.968c0-0.384 0.32-0.768 0.768-0.768h9.984c0.384 0 0.768 0.32 0.768 0.768v0.256c0 0.192 0.128 0.256 0.256 0.256z"></path>
<path d="M27.008 7.872h-9.984c-0.704 0-1.28 0.576-1.28 1.28 0 0.128 0.128 0.256 0.256 0.256s0.256-0.128 0.256-0.256c0-0.384 0.32-0.768 0.768-0.768h9.984c0.384 0 0.768 0.32 0.768 0.768v3.968c0 0.384-0.32 0.768-0.768 0.768h-9.984c-0.384 0-0.768-0.32-0.768-0.768 0-0.128-0.128-0.256-0.256-0.256s-0.256 0.128-0.256 0.256c0 0.704 0.576 1.28 1.28 1.28h9.984c0.704 0 1.28-0.576 1.28-1.28v-3.968c-0.064-0.704-0.576-1.28-1.28-1.28z"></path>
</symbol>
<symbol id="i-fae-bike" viewBox="0 0 32 32">
<title>bike</title>
<path d="M18.944 3.136c0 1.343-1.089 2.432-2.432 2.432s-2.432-1.089-2.432-2.432c0-1.343 1.089-2.432 2.432-2.432s2.432 1.089 2.432 2.432z"></path>
<path d="M25.472 18.304c-0.448 0-0.832 0.064-1.216 0.128l-1.28-3.84 0.896 0.448c0.448 0.192 0.96 0.064 1.152-0.384s0.064-0.96-0.384-1.152l-2.432-1.216c0.32 0.512 0.448 1.088 0.32 1.728s-0.576 1.152-1.088 1.472l0.256 0.704-2.752 0.064c0 0.32 0 0.576-0.064 0.896l-0.32 0.832 1.536-0.064-2.176 2.176-0.896 3.008c-0.192-0.064-0.384-0.064-0.576 0l-0.576 0.256c0 0 0 0 0 0l1.92-6.528c0.192-0.64-0.128-1.344-0.768-1.6l-1.216-0.512c-0.32-0.064-0.512-0.128-0.768-0.192-0.64-0.128-1.088-0.64-1.152-1.28l-0.384-4.288 1.472 3.904c0.128 0.32 0.448 0.576 0.768 0.704l4.288 0.96c0.576 0.128 1.216-0.256 1.344-0.832s-0.256-1.216-0.832-1.344l-3.712-0.832-1.28-3.328 1.344 1.856 0.384-0.96c0.32-0.832-0.128-1.792-0.96-2.112l-2.752-1.024c-0.832-0.32-1.792 0.128-2.112 0.96-2.176 5.696-2.112 5.376-2.176 5.76-0.128 0.704 0 1.408 0.384 1.984-1.472 0-1.024 0-1.152 0-0.576 0-1.024 0.448-1.024 1.024s0.448 1.024 1.024 1.024h1.728l0.192 0.448-1.216 1.792c-0.832-0.384-1.664-0.576-2.624-0.576-3.648-0.064-6.592 2.88-6.592 6.464s2.944 6.528 6.528 6.528c3.136 0 5.824-2.24 6.4-5.248 0.128 0.064 0.256 0.128 0.384 0.128s0.192 0 0.32-0.064l3.456-1.408c0.448-0.192 0.64-0.704 0.512-1.152-0.064-0.192-0.192-0.32-0.32-0.384l5.12-4.992 0.256 0.768c-2.176 1.088-3.648 3.264-3.648 5.824 0 3.584 2.944 6.528 6.528 6.528 3.52 0 6.464-2.944 6.464-6.528s-2.944-6.528-6.528-6.528zM9.664 21.184c0.832 0.704 1.408 1.664 1.6 2.752h-3.456l1.856-2.752zM6.528 29.632c-2.624 0-4.8-2.176-4.8-4.8s2.176-4.8 4.8-4.8c0.576 0 1.152 0.128 1.6 0.256l-2.688 4.032c-0.192 0.256-0.192 0.576-0.064 0.896 0.128 0.256 0.448 0.448 0.768 0.448h5.12c-0.448 2.24-2.368 3.968-4.736 3.968zM12.992 24.512c-0.064 0-0.128 0.064-0.192 0.064-0.576-0.576-0.768-1.472-0.512-2.304l0.064-0.32c-0.448-0.832-1.024-1.6-1.728-2.176l0.512-0.768 1.216 2.944 0.64-2.112-0.704-1.664 1.216-0.064 0.064-0.256c-0.64-0.256-2.56-0.96-3.136-1.216 3.2 0 2.88 0 2.944 0l1.536 0.576-1.6 5.312c-0.192 0.64 0.128 1.28 0.64 1.536l-0.96 0.448zM25.472 29.632c-2.624 0-4.8-2.176-4.8-4.8 0-1.792 1.024-3.392 2.496-4.16l1.472 4.48c0.128 0.384 0.448 0.576 0.832 0.576 0.064 0 0.192 0 0.256-0.064 0.448-0.128 0.704-0.64 0.512-1.088l-1.472-4.48c0.192-0.064 0.448-0.064 0.704-0.064 2.624 0 4.8 2.176 4.8 4.8s-2.176 4.8-4.8 4.8z"></path>
</symbol>
<symbol id="i-fae-cards" viewBox="0 0 32 32">
<title>cards</title>
<path d="M21.44 1.216c-0.192-0.832-1.088-1.408-1.92-1.088l-18.048 4.032c-0.832 0.192-1.28 1.152-1.088 1.984l6.592 24.704c0.128 0.448 0.384 0.768 0.768 0.96 0.256 0.128 0.512 0.192 0.768 0.192 0.128 0 0.256 0 0.448-0.064l0.32-0.128c-0.32-0.448-0.448-0.96-0.448-1.472v-2.688c-0.192 0-0.448-0.128-0.512-0.384-0.576-2.24-1.216-4.48-1.792-6.784-0.64-2.24-1.216-4.544-1.792-6.72-0.064-0.256 0.128-0.576 0.384-0.64s0.576 0.128 0.64 0.384c0.576 2.24 1.216 4.48 1.792 6.72 0.448 1.6 0.896 3.264 1.344 4.864v-15.232c-0.192 0.192-0.512 0.128-0.768-0.064l-0.832-0.832c0 0-0.064 0-0.064 0.064l-2.048 0.512c-0.064 0-0.064 0-0.128 0l-0.192 1.088c-0.064 0.256-0.256 0.448-0.512 0.448-0.064 0-0.064 0-0.128 0-0.256-0.064-0.448-0.32-0.448-0.64l0.96-4.608c0.064-0.192 0.192-0.384 0.384-0.448s0.448 0 0.512 0.128l3.136 3.52v-4.224c0-1.472 1.152-2.688 2.688-2.688h10.304l-0.32-0.896z"></path>
<path d="M30.080 3.2h-18.624c-0.896 0-1.6 0.704-1.6 1.6v25.536c0 0.896 0.704 1.6 1.6 1.6h18.624c0.896 0 1.6-0.704 1.6-1.6v-25.536c0-0.896-0.704-1.6-1.6-1.6zM19.456 5.312h9.6c0.32 0 0.512 0.192 0.512 0.512v15.936c0 0.32-0.192 0.512-0.512 0.512s-0.512-0.192-0.512-0.512v-15.36h-9.088c-0.32 0-0.512-0.192-0.512-0.512s0.192-0.576 0.512-0.576zM11.968 5.888c0-0.32 0.192-0.512 0.512-0.512s0.512 0.192 0.512 0.512v1.728l1.728-2.112c0.192-0.192 0.512-0.256 0.768-0.064 0.192 0.192 0.256 0.512 0.064 0.768l-1.472 1.664 1.984 3.008c0.128 0.256 0.128 0.576-0.128 0.768 0 0.064-0.128 0.128-0.192 0.128-0.128 0-0.32-0.128-0.448-0.192l-1.856-2.816-0.448 0.448v1.92c0 0.32-0.192 0.512-0.512 0.512s-0.512-0.192-0.512-0.512v-5.248zM23.168 29.824l-10.624 0.064c-0.128 0-0.256-0.064-0.384-0.128-0.128-0.128-0.128-0.192-0.128-0.384v-16c0-0.32 0.192-0.512 0.512-0.512s0.512 0.192 0.512 0.512v15.424l10.112-0.064c0.32 0 0.512 0.192 0.512 0.512s-0.192 0.576-0.512 0.576zM22.912 22.272l0.448 1.152c0.128 0.192 0.128 0.448-0.064 0.704-0.128 0.192-0.384 0.384-0.64 0.384h-3.968c-0.256 0-0.512-0.128-0.64-0.384-0.128-0.192-0.128-0.448-0.064-0.704l0.384-1.152c-0.256 0.128-0.448 0.128-0.768 0.128-1.024 0-1.984-0.448-2.688-1.152s-1.024-1.664-0.96-2.56c0.064-1.088 0.704-2.048 1.728-2.752 0.512-0.32 1.024-0.512 1.536-0.512-0.128-0.384-0.192-0.832-0.192-1.344 0-1.088 0.448-2.048 1.344-2.752 0.832-0.704 1.92-0.96 3.008-0.704 1.408 0.256 2.432 1.408 2.688 2.752 0.128 0.768 0.128 1.408-0.128 2.048 0.512 0.064 1.024 0.192 1.536 0.576 1.088 0.704 1.728 1.664 1.728 2.752 0.064 0.96-0.256 1.856-0.96 2.56-0.704 0.768-1.728 1.152-2.688 1.152-0.064-0.128-0.32-0.128-0.64-0.192zM29.632 29.312h-0.128c0 0.32-0.192 0.512-0.512 0.512s-0.512-0.192-0.512-0.512v-1.728l-1.728 2.048c-0.128 0.128-0.256 0.128-0.448 0.128-0.128 0-0.256-0.064-0.32-0.128-0.192-0.192-0.256-0.512-0.064-0.768l1.408-1.728-1.984-3.008c-0.128-0.256-0.128-0.576 0.128-0.768 0.256-0.128 0.576-0.128 0.768 0.128l1.792 2.688 0.448-0.448v-1.984c0-0.32 0.192-0.512 0.512-0.512s0.512 0.192 0.512 0.512v5.568z"></path>
</symbol>
<symbol id="i-fae-coffee-machine" viewBox="0 0 32 32">
<title>coffee-machine</title>
<path d="M5.632 6.592v7.488c0 1.216 1.856 1.216 1.856 0v-7.488c0-1.28-1.856-1.28-1.856 0z"></path>
<path d="M6.592 20.608c-0.512 0-0.96 0.448-0.96 0.96s0.448 0.96 0.96 0.96 0.96-0.448 0.96-0.96-0.448-0.96-0.96-0.96z"></path>
<path d="M14.080 7.488h1.408l1.6 3.2c0.128 0.32 0.512 0.512 0.832 0.512h9.344c0.384 0 0.704-0.192 0.832-0.512l1.664-3.328c1.28-0.256 2.176-1.408 2.176-2.752v-1.792c0.064-1.536-1.216-2.816-2.752-2.816h-24.512c-2.56 0-4.672 2.112-4.672 4.672 0 9.856 0 17.024 0 26.368 0 0.512 0.448 0.96 0.96 0.96h30.016c0.512 0 1.088-0.448 1.088-0.96v-1.856c0-1.536-1.216-2.816-2.752-2.816 0.192-0.576 0.256-1.344 0.064-1.92l-0.064-0.192c1.6-0.448 2.816-1.856 2.816-3.584 0-2.048-1.664-3.776-3.776-3.776h-0.704l0.64-2.56c0.128-0.576-0.32-1.152-0.896-1.152h-9.472c-0.64 0-1.088 0.576-0.896 1.152l0.896 3.52-1.024 3.456c0 0 0 0 0 0l-0.896 3.136c-0.192 0.64-0.192 1.344 0 1.984h-2.88v-17.92c0-0.576 0.448-1.024 0.96-1.024zM27.648 7.488l-0.96 1.856h-8.192l-0.96-1.856h10.112zM3.776 6.592c0-3.712 5.632-3.712 5.632 0v7.488c0 3.712-5.632 3.712-5.632 0v-7.488zM6.592 18.752c1.536 0 2.816 1.28 2.816 2.816s-1.28 2.816-2.816 2.816-2.816-1.28-2.816-2.816 1.216-2.816 2.816-2.816zM28.224 18.752c1.024 0 1.856 0.832 1.856 1.856 0 0.896-0.64 1.6-1.472 1.792l-1.024-3.648h0.64zM19.584 18.752h6.080l0.576 1.984c-0.256-0.064-0.512-0.064-0.768-0.064-1.088 0-2.048 0.512-2.624 1.408-0.512 0.768-1.664 0.768-2.176 0-0.384-0.576-0.96-1.024-1.664-1.216l0.576-2.112zM29.184 28.224c0.512 0 0.96 0.448 0.96 0.96v0.96h-28.288v-1.856c9.472-0.064 17.856-0.064 27.328-0.064z"></path>
</symbol>
<symbol id="i-fae-cooler" viewBox="0 0 32 32">
<title>cooler</title>
<path d="M16 0c-6.72 0-12.16 5.44-12.16 12.16s5.44 12.16 12.16 12.16 12.16-5.44 12.16-12.16-5.44-12.16-12.16-12.16zM5.696 12.16c0-2.048 1.664-3.776 3.776-3.776s3.776 1.664 3.776 3.776h-7.552zM16 22.528c-2.048 0-3.776-1.664-3.776-3.776s1.664-3.776 3.776-3.776v7.552zM16 14.080c-1.024 0-1.856-0.832-1.856-1.856s0.832-1.856 1.856-1.856 1.856 0.832 1.856 1.856-0.832 1.856-1.856 1.856zM16 9.344v-7.488c2.048 0 3.776 1.664 3.776 3.776s-1.728 3.712-3.776 3.712zM22.592 15.936c-2.048 0-3.776-1.664-3.776-3.776h7.488c0 2.112-1.664 3.776-3.712 3.776z"></path>
<path d="M18.816 30.144v-4.16c-0.896 0.192-1.856 0.256-2.816 0.256s-1.92-0.128-2.816-0.256v4.16h-1.856v1.856h9.344v-1.856h-1.856z"></path>
</symbol>
<symbol id="i-fae-couch" viewBox="0 0 32 32">
<title>couch</title>
<path d="M23.040 18.56h-14.080c-2.368 0-2.816 0.896-2.816 2.048v0.512h19.648v-0.576c0-1.088-0.384-1.984-2.752-1.984z"></path>
<path d="M6.272 17.792h9.536v-8.064c-0.96-1.152-2.752-1.92-4.864-1.92h-2.112c-3.072 0-5.568 1.6-5.568 3.584v2.368c1.792 0.704 3.008 1.92 3.008 3.264v0.768z"></path>
<path d="M28.736 11.392c0-1.984-2.496-3.584-5.568-3.584h-2.112c-2.112 0-3.968 0.768-4.864 1.92v8.064h9.536v-0.704c0-1.408 1.216-2.624 3.008-3.264v-2.432z"></path>
<path d="M0 13.888v10.304h5.184v-7.104c0-1.792-2.304-3.2-5.184-3.2z"></path>
<path d="M26.816 17.088v7.104h5.184v-10.304c-2.88 0-5.184 1.408-5.184 3.2z"></path>
<path d="M6.208 21.376h19.648v2.816h-19.648v-2.816z"></path>
</symbol>
<symbol id="i-fae-dinner-table" viewBox="0 0 32 32">
<title>dinner-table</title>
<path d="M18.304 20.032l-0.96 2.496v2.88h1.792l0.64-1.664z"></path>
<path d="M11.136 6.528c0 1.378-1.117 2.496-2.496 2.496s-2.496-1.117-2.496-2.496c0-1.378 1.117-2.496 2.496-2.496s2.496 1.117 2.496 2.496z"></path>
<path d="M15.808 12.352c-0.128-0.384-0.384-0.64-0.704-0.704 0-1.024 0-0.512 0-1.152 0.512-0.192 0.768-0.64 0.704-1.152l-0.256-2.368h-1.728l-0.256 2.368c-0.064 0.512 0.256 0.96 0.704 1.152 0 0.384 0 0.768 0 1.152 0 0 0 0 0 0l-3.968 1.28-2.624-2.432 2.176 1.344v-0.064c0-1.088-0.832-1.92-1.92-1.92h-0.832c-1.6 0-2.88 1.28-2.88 2.816v5.504c0 0.896 0.64 1.664 1.472 1.856h-2.24l-1.6-8.192c-0.128-0.512-0.576-0.832-1.088-0.768-0.512 0.128-0.832 0.576-0.768 1.088l1.792 9.024c0.064 0.448 0.448 0.768 0.896 0.768h0.192l-1.984 5.184c-0.128 0.32 0.064 0.704 0.384 0.832s0.704-0.064 0.832-0.384l2.176-5.632h3.584l1.216 3.2-0.384 1.024c-0.256 0.704 0.064 1.472 0.768 1.792 0.704 0.256 1.472-0.064 1.792-0.768 0.064-0.192 2.88-7.232 3.008-7.616h-2.304c-1.024 0-1.792-0.832-1.792-1.792 0-0.064 0-0.192 0-0.256h-0.256v-1.216c-0.448 0-0.832-0.256-1.088-0.64l-1.92-2.88 2.496 2.304c0 0 0 0 0 0 0.32 0.256 0.704 0.384 1.088 0.256 0 0 0 0 0 0l4.608-1.472c0.576-0.256 0.896-0.96 0.704-1.536zM9.28 21.952c0.512 0 0.96-0.448 0.96-0.96 0-0.384-0.192-0.64-0.512-0.832h1.216l-1.28 3.264-0.576-1.472h0.192z"></path>
<path d="M30.016 9.152c-0.192 0-0.384 0-0.576-0.32-0.128-0.192-0.192-0.512-0.192-0.832-0.128-1.152 0-2.048-0.256-2.624-0.256-0.512-0.832-0.768-1.344-0.832-0.448 0-0.832 0.128-1.216 0.32-0.576-0.576-1.408-0.96-2.24-0.832-1.344 0.192-2.304 1.472-2.112 2.88 0.192 1.344 1.472 2.304 2.88 2.112 1.28-0.192 2.176-1.344 2.112-2.56 0-0.32 0.512-0.576 0.768-0.384 0.448 0.32 0.448 1.6 0.576 2.112 0.064 0.256 0.256 0.704 0.512 1.024 0.32 0.448 0.704 0.512 1.152 0.384 0.064 0 0.128-0.128 0.128-0.192 0-0.192-0.064-0.32-0.192-0.256z"></path>
<path d="M19.84 16.64h-7.936c-0.576 0-1.024 0.448-1.024 1.024s0.448 1.024 1.024 1.024h3.264v7.424h-2.176c-0.512 0-0.96 0.448-0.96 0.96s0.448 0.96 0.96 0.96h5.76c0.512 0 0.96-0.448 0.96-0.96s-0.448-0.96-0.96-0.96h-2.176v-7.424h3.264c0.576 0 1.024-0.448 1.024-1.024s-0.448-1.024-1.024-1.024z"></path>
<path d="M31.232 11.072c-0.512-0.128-1.024 0.256-1.088 0.768l-1.28 6.592c0-0.128 0 0.256 0-5.632 0-1.6-1.28-2.944-2.944-2.88h-0.768c-1.088 0-1.92 0.896-1.92 1.92v1.152l1.408-1.344-1.536 2.176-3.712-0.448c0-1.024 0-0.512 0-1.152 0.512-0.192 0.768-0.64 0.704-1.152l-0.256-2.368h-1.728l-0.256 2.368c-0.064 0.512 0.256 0.96 0.704 1.152 0 0.32 0 0.96 0 1.088-0.512 0.064-0.96 0.448-1.024 1.024-0.064 0.64 0.384 1.216 1.024 1.28 5.248 0.576 4.928 0.576 4.992 0.576 0.384 0 0.704-0.192 0.96-0.512l1.536-2.24-0.704 2.56c-0.192 0.576-0.768 0.96-1.408 0.896-0.448-0.064-0.32-0.064-0.576-0.064v0.64h-1.792c0 0.064 0 0.192 0 0.256 0 1.024-0.832 1.792-1.792 1.792h-0.768l3.008 7.616c0.256 0.704 1.088 1.024 1.792 0.768s1.024-1.088 0.768-1.792l-0.512-1.28c0.576-1.472 0.448-1.216 1.152-2.944h1.472l2.176 5.632c0.128 0.256 0.32 0.384 0.576 0.384 0.064 0 0.128 0 0.256-0.064 0.32-0.128 0.512-0.512 0.384-0.832l-1.984-5.184h1.216c0.448 0 0.832-0.32 0.896-0.768l1.792-8.896c0.064-0.512-0.256-0.96-0.768-1.088zM23.424 23.168l-0.448-1.216h0.96l-0.512 1.216zM28.544 20.096c-0.448 0-0.704 0-1.152 0 0.64-0.128 1.152-0.576 1.344-1.152 0 0.128 0 0-0.192 1.152z"></path>
</symbol>
<symbol id="i-fae-dish-machine" viewBox="0 0 32 32">
<title>dish-machine</title>
<path d="M18.048 5.952c-1.024-0.768-2.432-0.896-3.584-0.32s-1.856 1.728-1.856 3.008c0 0.384 0.064 0.768 0.192 1.152h1.28c-0.192-0.32-0.32-0.704-0.32-1.152 0-1.28 1.024-2.24 2.24-2.24 0.512 0 1.088 0.192 1.472 0.576 0.128-0.384 0.32-0.768 0.576-1.024z"></path>
<path d="M17.152 8.64c0 0.636-0.516 1.152-1.152 1.152s-1.152-0.516-1.152-1.152c0-0.636 0.516-1.152 1.152-1.152s1.152 0.516 1.152 1.152z"></path>
<path d="M30.144 10.88h-30.016v1.152h31.744v-1.152z"></path>
<path d="M11.456 8.64c0 0.636-0.516 1.152-1.152 1.152s-1.152-0.516-1.152-1.152c0-0.636 0.516-1.152 1.152-1.152s1.152 0.516 1.152 1.152z"></path>
<path d="M12.352 5.952c-1.024-0.768-2.432-0.896-3.584-0.32s-1.856 1.728-1.856 3.072c0 0.384 0.064 0.768 0.192 1.152h1.28c-0.192-0.32-0.32-0.704-0.32-1.152 0-1.28 1.024-2.24 2.24-2.24 0.512 0 1.088 0.192 1.472 0.576 0.192-0.448 0.384-0.832 0.576-1.088z"></path>
<path d="M3.52 2.944c0-0.896 0.768-1.664 1.728-1.664h21.504c0.96 0 1.728 0.768 1.728 1.728v6.784h1.152v-7.936c0-0.96-0.768-1.728-1.728-1.728h-23.808c-0.96 0-1.728 0.768-1.728 1.728v7.936h1.152v-6.848z"></path>
<path d="M27.328 9.792v-6.848c0-0.32-0.256-0.576-0.576-0.576h-21.504c-0.32 0-0.576 0.256-0.576 0.576v6.784h1.28c-0.384-1.344-0.064-2.816 0.768-3.904s2.176-1.728 3.584-1.728c1.024 0 2.048 0.384 2.816 1.024 1.664-1.344 4.032-1.344 5.696 0 1.344-1.088 3.2-1.28 4.8-0.576 1.6 0.768 2.56 2.368 2.56 4.096 0 0.384-0.064 0.768-0.128 1.152h1.28z"></path>
<path d="M24.896 9.792c0.128-0.384 0.192-0.768 0.192-1.152 0-1.408-0.832-2.624-2.112-3.136s-2.752-0.192-3.712 0.768c-0.896 0.896-1.216 2.304-0.768 3.52h1.28c-0.192-0.32-0.32-0.704-0.32-1.152 0-1.28 1.024-2.24 2.24-2.24s2.24 1.024 2.24 2.24c0 0.384-0.128 0.768-0.32 1.152h1.28z"></path>
<path d="M22.848 8.64c0 0.636-0.516 1.152-1.152 1.152s-1.152-0.516-1.152-1.152c0-0.636 0.516-1.152 1.152-1.152s1.152 0.516 1.152 1.152z"></path>
<path d="M17.728 14.272c0.32 0 0.576-0.256 0.576-0.576v-0.576h-4.544v0.576c0 0.32 0.256 0.576 0.576 0.576h3.392z"></path>
<path d="M4.864 13.184l1.728 5.248c0.064 0.256 0.32 0.384 0.512 0.384h17.6c0.256 0 0.448-0.128 0.512-0.384l1.728-5.248h-7.68v0.576c0 0.96-0.768 1.728-1.728 1.728h-3.392c-0.96 0-1.728-0.768-1.728-1.728v-0.576h-7.552zM22.784 14.272c0.96 0 1.728 0.768 1.728 1.728s-0.768 1.728-1.728 1.728-1.664-0.768-1.664-1.728c0-0.96 0.768-1.728 1.664-1.728zM9.216 14.848c0-0.256 0.128-0.448 0.32-0.512s0.448-0.064 0.64 0.128c0.192 0.192 0.192 0.384 0.128 0.64-0.064 0.192-0.32 0.32-0.512 0.32-0.128 0-0.32-0.064-0.384-0.192-0.128-0.064-0.192-0.192-0.192-0.384zM10.752 17.536c-0.128 0.128-0.256 0.192-0.384 0.192s-0.32-0.064-0.384-0.192c-0.192-0.192-0.192-0.576 0-0.832 0.192-0.192 0.576-0.192 0.832 0 0.128 0.256 0.128 0.64-0.064 0.832v0z"></path>
<path d="M26.432 18.816c-0.256 0.704-0.896 1.152-1.6 1.152h-17.664c-0.704 0-1.408-0.448-1.6-1.152l-1.856-5.632h-3.328l5.824 16.448h19.584l5.824-16.448h-3.328l-1.856 5.632z"></path>
<path d="M6.4 30.72h19.264v1.152h-19.264v-1.152z"></path>
<path d="M23.36 16c0 0.318-0.258 0.576-0.576 0.576s-0.576-0.258-0.576-0.576c0-0.318 0.258-0.576 0.576-0.576s0.576 0.258 0.576 0.576z"></path>
</symbol>
<symbol id="i-fae-dishes" viewBox="0 0 32 32">
<title>dishes</title>
<path d="M16.512 4.8c-5.824 0-10.624 4.736-10.624 10.624s4.736 10.624 10.624 10.624 10.624-4.736 10.624-10.624-4.8-10.624-10.624-10.624zM16.512 23.424c-4.416 0-8.064-3.584-8.064-8.064s3.584-8.064 8.064-8.064 8.064 3.584 8.064 8.064-3.648 8.064-8.064 8.064z"></path>
<path d="M16.512 9.536c-3.264 0-5.888 2.624-5.888 5.888s2.624 5.888 5.888 5.888 5.888-2.624 5.888-5.888-2.624-5.888-5.888-5.888z"></path>
<path d="M31.36 16.32v-12.928c0-0.128-0.064-0.256-0.192-0.256-0.128-0.064-0.256 0-0.32 0.128-1.6 2.112-2.496 4.736-2.496 7.36v4.736c0 0.512 0.448 0.96 0.96 0.96h0.384c-0.384 4.16-0.64 9.984-0.64 10.624 0 1.088 0.64 1.92 1.472 1.92s1.472-0.896 1.472-1.92c0-0.704-0.256-6.528-0.64-10.624z"></path>
<path d="M4.288 13.76c0.832-0.512 1.344-1.408 1.344-2.432l-0.384-6.592c0-0.256-0.256-0.448-0.448-0.448-0.32 0-0.512 0.192-0.512 0.512l0.256 5.312c0 0.32-0.256 0.512-0.512 0.512-0.32 0-0.512-0.256-0.512-0.512l-0.192-5.312c0-0.256-0.256-0.512-0.512-0.512s-0.512 0.192-0.512 0.512l-0.128 5.312c0 0.32-0.256 0.512-0.512 0.512-0.32 0-0.512-0.256-0.512-0.512l0.256-5.312c0-0.256-0.192-0.512-0.448-0.512-0.32 0-0.512 0.192-0.576 0.448l-0.384 6.592c0 1.024 0.576 1.92 1.344 2.432 0.576 0.32 0.832 0.896 0.768 1.536-0.448 4.16-0.768 10.944-0.768 11.648 0 1.088 0.64 1.92 1.472 1.92s1.472-0.896 1.472-1.92c0-0.768-0.32-7.488-0.768-11.648-0.064-0.64 0.256-1.216 0.768-1.536z"></path>
</symbol>
<symbol id="i-fae-dvd" viewBox="0 0 32 32">
<title>dvd</title>
<path d="M1.984 3.648v-1.408c0-0.192 0.064-0.384 0.128-0.576h-1.536c-0.32 0-0.576 0.256-0.576 0.576v27.52c0 0.32 0.256 0.576 0.576 0.576h1.536c-0.064-0.192-0.128-0.384-0.128-0.576v-26.112z"></path>
<path d="M32 19.2c0-5.376-4.352-9.792-9.728-9.792v6.016c2.048 0 3.712 1.664 3.712 3.776 0 1.024-0.384 1.92-1.088 2.624h-3.648v-19.584c0-0.32-0.256-0.576-0.576-0.576h-17.152c-0.32 0-0.576 0.256-0.576 0.576v27.52c0 0.32 0.256 0.576 0.576 0.576h11.776c0 0 0 0 0 0h10.112c1.152 0 2.24-0.384 3.2-1.024 0.896-0.704 1.6-1.664 1.92-2.752 0.256-0.768 0.256-1.536 0.064-2.24 0.896-1.536 1.408-3.264 1.408-5.12zM18.624 26.048c-0.384 1.472-1.792 2.432-3.328 2.432h-2.048l0.896-3.264h1.216l-0.64 2.24h0.896c0.768 0 1.472-0.576 1.728-1.472s-0.128-1.472-0.96-1.472h-2.048l0.256-1.024h2.112c1.6 0.128 2.368 1.088 1.92 2.56zM28.8 26.048c-0.384 1.472-1.792 2.432-3.328 2.432h-2.048l0.896-3.264h1.216l-0.64 2.24h0.896c0.768 0 1.472-0.576 1.728-1.472s-0.128-1.472-0.96-1.472h-2.944l-2.368 3.904h-1.28l-0.832-4.864h1.344l0.448 3.584 2.048-3.584h3.904c1.536 0.064 2.304 1.024 1.92 2.496z"></path>
<path d="M24.384 19.2c0-1.216-0.96-2.176-2.112-2.176v4.352c1.152-0.064 2.112-1.024 2.112-2.176z"></path>
</symbol>
<symbol id="i-fae-egg" viewBox="0 0 32 32">
<title>egg</title>
<path d="M14.272 24.384v3.072c0 0.96 0.768 1.728 1.728 1.728s1.728-0.768 1.728-1.728v-3.072c-1.152 0.256-2.304 0.256-3.456 0z"></path>
<path d="M18.88 27.072v0.384c0 1.6-1.28 2.88-2.88 2.88s-2.88-1.28-2.88-2.88v-0.384c-2.88 0.448-4.544 1.536-4.544 2.368 0 1.216 3.2 2.56 7.424 2.56s7.424-1.344 7.424-2.56c0-0.832-1.664-1.92-4.544-2.368z"></path>
<path d="M24.256 16.064c0 0-0.064 0-0.064 0.064-1.92 1.024-4.992 1.6-8.192 1.6s-6.272-0.64-8.192-1.6c0 0-0.064 0-0.064-0.064-0.128-0.064-0.192-0.128-0.32-0.192 1.344 4.48 4.736 7.552 8.576 7.552s7.232-3.072 8.576-7.552c-0.128 0.064-0.192 0.128-0.32 0.192z"></path>
<path d="M14.080 3.392c-0.064 0-0.064 0-0.128 0-0.512 0-1.472 0.896-2.112 2.496-0.32 0.768-0.448 1.536-0.448 2.368 0 0.512 0.192 0.896 0.384 0.96 0.128 0.064 0.448 0 0.896-0.448 0.576-0.576 1.024-1.28 1.28-2.048 0.704-1.728 0.576-3.136 0.128-3.328z"></path>
<path d="M16 0c-4.544 0-8.512 6.4-8.576 11.648v0.128c0 1.024 0.128 2.048 0.448 3.008 0.128 0.064 0.32 0.192 0.448 0.256 0 0 0.064 0 0.064 0.064 1.728 0.896 4.608 1.472 7.616 1.472s5.824-0.576 7.616-1.472c0 0 0.064 0 0.064-0.064 0.192-0.064 0.32-0.192 0.448-0.256 0.32-0.96 0.448-1.984 0.448-3.008v-0.128c-0.064-5.248-4.032-11.648-8.576-11.648zM15.040 7.168v0c-0.32 0.896-0.896 1.792-1.536 2.432-0.448 0.448-1.024 0.768-1.6 0.768-0.192 0-0.384-0.064-0.512-0.128-0.64-0.256-1.024-0.96-1.088-1.984 0-0.96 0.128-1.984 0.512-2.88 0.896-2.304 2.496-3.648 3.712-3.136 1.152 0.576 1.408 2.624 0.512 4.928z"></path>
</symbol>
<symbol id="i-fae-floor-plan" viewBox="0 0 32 32">
<title>floor-plan</title>
<path d="M31.424 2.816c0.32 0 0.576-0.256 0.576-0.576v-1.664c0-0.32-0.256-0.576-0.576-0.576h-24.64c-0.32 0-0.576 0.256-0.576 0.576v24.64c0 0.32 0.256 0.576 0.576 0.576h24.64c0.32 0 0.576-0.256 0.576-0.576v-21.12c0-0.32-0.256-0.576-0.576-0.576s-0.576 0.256-0.576 0.576v9.344h-2.176c-0.32 0-0.576 0.256-0.576 0.576s0.256 0.576 0.576 0.576h2.176v10.176h-15.488v-2.624c0-0.32-0.256-0.576-0.576-0.576s-0.576 0.256-0.576 0.576v2.624h-6.848v-23.68h6.912v17.024c0 0.32 0.256 0.576 0.576 0.576s0.576-0.256 0.576-0.576v-3.584h9.728c0.32 0 0.576-0.256 0.576-0.576s-0.256-0.576-0.576-0.576h-9.792v-12.288h15.552v1.152c0 0.32 0.256 0.576 0.512 0.576z"></path>
<path d="M4.608 3.136l-1.792-2.88c-0.128-0.128-0.256-0.256-0.448-0.256s-0.384 0.128-0.512 0.256l-1.792 2.88c-0.064 0.192-0.064 0.384 0 0.576 0.128 0.128 0.256 0.256 0.512 0.256h1.28v2.304c0 0.32 0.256 0.576 0.576 0.576s0.576-0.256 0.576-0.576v-2.304h1.28c0.192 0 0.384-0.128 0.448-0.256 0-0.192 0-0.384-0.128-0.576zM1.536 2.88l0.832-1.344 0.832 1.344h-1.664z"></path>
<path d="M4.608 22.080c-0.064-0.192-0.256-0.32-0.448-0.32h-1.28v-14.080c0-0.32-0.256-0.576-0.576-0.576s-0.512 0.32-0.512 0.576v14.080h-1.28c-0.192 0-0.384 0.128-0.448 0.256-0.128 0.192-0.064 0.384 0 0.576l1.792 2.88c0.128 0.128 0.256 0.256 0.448 0.256s0.384-0.128 0.448-0.256l1.792-2.88c0.192-0.128 0.192-0.384 0.064-0.512zM2.368 24.192l-0.832-1.344h1.664l-0.832 1.344z"></path>
<path d="M31.744 29.184l-2.88-1.792c-0.192-0.128-0.384-0.128-0.576 0s-0.256 0.256-0.256 0.448v1.28h-17.792v-1.28c0-0.192-0.128-0.384-0.256-0.448-0.192-0.128-0.384-0.064-0.576 0l-2.88 1.792c-0.128 0.128-0.256 0.256-0.256 0.448s0.128 0.384 0.256 0.448l2.88 1.792c0.064 0.128 0.192 0.128 0.256 0.128s0.192 0 0.256-0.064c0.192-0.128 0.256-0.256 0.256-0.448v-1.28h17.792v1.28c0 0.192 0.128 0.384 0.256 0.448 0.064 0.064 0.192 0.064 0.256 0.064 0.128 0 0.192 0 0.32-0.064l2.88-1.792c0.128-0.128 0.256-0.256 0.256-0.448 0.064-0.256-0.064-0.384-0.192-0.512zM9.152 30.464l-1.344-0.832 1.344-0.832v1.664zM29.12 30.464v-1.664l1.344 0.832-1.344 0.832z"></path>
</symbol>
<symbol id="i-fae-freezer" viewBox="0 0 32 32">
<title>freezer</title>
<path d="M22.848 0h-13.696c-0.576 0-1.024 0.448-1.024 1.024v10.752h15.808v-10.752c-0.064-0.576-0.512-1.024-1.088-1.024zM11.072 7.552c0 0.512-0.448 0.96-0.96 0.96v-5.248c0.512 0 0.96 0.448 0.96 0.96v3.328z"></path>
<path d="M8.128 29.056c0 0.576 0.448 1.024 1.024 1.024h13.696c0.576 0 1.024-0.448 1.024-1.024v-15.872h-15.744v15.872zM20.864 22.272c0-0.32 0.256-0.576 0.576-0.576s0.576 0.256 0.576 0.576v0.96c0 0.32-0.256 0.576-0.576 0.576s-0.576-0.256-0.576-0.576v-0.96zM20.864 25.088c0-0.32 0.256-0.576 0.576-0.576s0.576 0.256 0.576 0.576v2.56c0 0.32-0.256 0.576-0.576 0.576s-0.576-0.256-0.576-0.576v-2.56zM10.048 15.68c0.512 0 0.96 0.448 0.96 0.96v3.392c0 0.512-0.448 0.96-0.96 0.96v-5.312z"></path>
<path d="M22.272 30.528h-12.224c-0.064 0-0.064 0.064-0.064 0.064v1.28c0 0.064 0.064 0.064 0.064 0.064h1.28c0 0 0 0 0 0l2.304-0.64h4.8l2.496 0.64c0 0 0 0 0 0h1.28c0.064 0 0.064-0.064 0.064-0.064v-1.28c0.064 0 0.064-0.064 0-0.064z"></path>
</symbol>
<symbol id="i-fae-fridge" viewBox="0 0 32 32">
<title>fridge</title>
<path d="M30.016 6.656h-1.984v-3.968c0-1.472-1.216-2.688-2.688-2.688h-1.984c-0.384 0-0.64 0.32-0.64 0.64v1.024c-0.384-0.256-0.832-0.384-1.344-0.384h-17.344c-1.472 0.064-2.688 1.28-2.688 2.688v24c0 1.472 1.216 2.688 2.688 2.688h17.344c0.512 0 0.96-0.128 1.344-0.384v1.088c0 0.384 0.32 0.64 0.64 0.64h1.984c1.472 0 2.688-1.216 2.688-2.688v-9.344h1.984c0.384 0 0.64-0.32 0.64-0.64v-11.968c0-0.384-0.256-0.704-0.64-0.704zM19.968 26.688h-14.656v-21.376h14.656v21.376zM29.312 18.688h-1.344v-10.688h1.344v10.688z"></path>
<path d="M7.36 25.344h1.984c0.384 0 0.64-0.32 0.64-0.64v-0.64c0-0.896 0.256-1.536 0.512-1.984v0c0.128-0.384 0.256-0.512 0.256-0.832 0-0.256-0.064-0.448-0.192-0.896-0.256-0.704-0.512-1.664-0.512-3.264 0-1.792 0.768-3.2 1.344-4.16l0.192-0.32c0.064-0.128 0.128-0.32 0.064-0.512-0.128-0.512-0.128-1.024-0.128-1.344 0-0.192 0-0.384 0.064-0.576s0-0.384-0.128-0.576c-0.128-0.192-0.32-0.256-0.512-0.256h-1.728c-0.256 0-0.448 0.128-0.576 0.32l-0.384 0.64c-0.064 0.128-0.064 0.32-0.064 0.384 0 0.576 0 1.152 0.32 1.536-0.064 0.384-0.32 0.832-0.64 1.344-0.512 0.896-1.152 1.984-1.152 3.456 0 1.408 0.256 2.176 0.448 2.816 0.128 0.448 0.256 0.832 0.256 1.28 0 0.576-0.128 0.96-0.32 1.408-0.192 0.384-0.384 0.896-0.384 1.472v0.64c-0.064 0.384 0.256 0.704 0.64 0.704z"></path>
<path d="M11.328 17.024c0 1.408 0.192 2.176 0.384 2.816 0.128 0.448 0.256 0.832 0.256 1.344 0 0.64-0.128 1.024-0.32 1.408-0.128 0.384-0.32 0.832-0.32 1.472v0.64c0 0.384 0.32 0.64 0.64 0.64h5.312c0.384 0 0.64-0.32 0.64-0.64v-0.64c0-0.576-0.192-1.088-0.32-1.472s-0.32-0.768-0.32-1.408c0-0.512 0.128-0.896 0.256-1.344 0.192-0.64 0.384-1.408 0.384-2.816s-0.576-2.496-1.024-3.392c-0.256-0.512-0.512-0.96-0.576-1.408 0.256-0.384 0.32-0.896 0.32-1.6 0-0.128 0-0.192-0.064-0.32l-0.32-0.64c-0.128-0.256-0.32-0.384-0.576-0.384h-2.176c-0.256 0-0.512 0.128-0.576 0.384l-0.32 0.64c-0.064 0.064-0.064 0.256-0.064 0.384 0 0.576 0 1.152 0.32 1.472-0.064 0.448-0.32 0.896-0.576 1.408-0.384 0.896-0.96 2.048-0.96 3.456z"></path>
</symbol>
<symbol id="i-fae-hand-mixer" viewBox="0 0 32 32">
<title>hand-mixer</title>
<path d="M12.48 18.432c-0.192-0.192-0.448-0.384-0.576-0.64l-7.232 7.104c-1.6 0.064-3.968 0.192-4.096 0.32-0.064 0.128-0.576 0.704-0.576 0.896-0.064 0.768 1.088 1.6 2.24 2.688 1.152 1.152 1.92 2.24 2.688 2.24 0.192 0 0.768-0.448 0.896-0.576l0.256-3.84 7.36-7.296c-0.256-0.192-0.512-0.448-0.768-0.768l-0.192-0.128zM2.688 27.584l-0.128 0.128c-0.064 0.064-0.192 0.064-0.32 0l-1.344-1.28c-0.064-0.064-0.064-0.192 0-0.32l0.128-0.128c0.064-0.064 0.192-0.064 0.32 0l1.344 1.28c0.064 0.128 0.064 0.256 0 0.32zM5.12 30.016l-0.128 0.128c-0.064 0.064-0.192 0.064-0.32 0l-1.344-1.28c-0.064-0.064-0.064-0.192 0-0.32l0.128-0.128c0.064-0.064 0.192-0.064 0.32 0l1.344 1.28c0.128 0.128 0.128 0.256 0 0.32z"></path>
<path d="M28.096 5.888c-0.64 0.256-1.024 1.024-1.28 1.6-0.192 0.64-0.384 1.28-0.448 1.92l2.176-2.56c0.32-0.32 0.704-0.576 1.088-0.768-0.512-0.192-1.024-0.384-1.536-0.192z"></path>
<path d="M31.616 4.288l-2.432-2.432c-0.576-0.576-1.216-0.896-1.92-0.896s-1.408 0.32-2.048 0.96l-9.536 8.832c0 0-0.064 0-0.064-0.064-0.192-0.064-0.384-0.064-0.576-0.064s-0.384 0.064-0.576 0.128c-0.32 0.192-0.448 0.512-0.512 0.896 0 0.064 0 0.192 0 0.256 0 0.192 0.064 0.32 0.192 0.384-0.32 0.384-0.64 0.704-0.896 1.024l4.672 4.608c1.408-1.152 3.328-2.944 6.208-5.76l1.088-1.216c0-1.728 0.32-3.584 1.28-4.928 1.216-1.664 2.88-1.344 4.288-0.32 0.576-0.256 1.216-0.512 1.28-0.768-0.064-0.192-0.192-0.384-0.448-0.64z"></path>
<path d="M11.776 16.192c0 0.768 0.512 1.216 1.088 1.792l0.192 0.192c0.768 0.768 1.28 1.28 1.984 1.28 0.512 0 1.088-0.256 1.984-0.896l-4.416-4.352c-0.576 0.832-0.832 1.472-0.832 1.984z"></path>
</symbol>
<symbol id="i-fae-iron" viewBox="0 0 32 32">
<title>iron</title>
<path d="M9.728 11.456v-0.896h-1.28v1.728c0.384-0.256 0.832-0.576 1.28-0.832z"></path>
<path d="M19.968 16.192c-0.512-0.704-1.536-1.216-2.688-1.216 0 0-0.064 0-0.064 0-1.152 0-2.112 0.448-2.624 1.152-0.192 0.192-0.128 0.448-0.064 0.64 0.128 0.256 0.448 0.384 0.768 0.384l3.904 0.064c0 0 0 0 0 0 0.576 0 1.024-0.448 0.832-0.896-0.064-0.064-0.064-0.128-0.064-0.128z"></path>
<path d="M27.776 10.304c-0.064-0.064-0.128-0.192-0.192-0.256s-0.192-0.128-0.256-0.192c-0.064-0.064-0.192-0.064-0.256-0.064v-0.896c0-0.192-0.128-0.32-0.32-0.384-0.576-0.128-1.856-0.256-3.584-0.256-3.136 0-7.936 0.576-12.864 3.52-0.064 0.064-0.192 0.128-0.256 0.192s-0.192 0.128-0.256 0.192c-0.256 0.128-0.512 0.32-0.768 0.512-0.128 0.064-0.256 0.192-0.384 0.256s-0.256 0.192-0.384 0.256c-2.688 1.984-5.44 4.672-7.872 8.384 0 0 0 0 0 0s0 0 0 0h23.744c0.128 0 0.256-0.128 0.32-0.32 0.128-0.832 0.576-2.24 2.304-2.688 0.192-0.064 0.32-0.192 0.32-0.384v-5.824c0.128 0 0.192-0.064 0.256-0.064 0.128-0.064 0.192-0.064 0.256-0.192 0.064-0.064 0.128-0.128 0.192-0.192 2.496 0.448 2.496 3.968 2.624 6.080 0.064 1.088 1.728 1.088 1.664 0-0.256-3.008-0.64-7.296-4.288-7.68zM23.68 14.784c0 1.344-1.28 1.408-3.136 1.472 0.064 0.256 0.064 0.512-0.064 0.768-0.256 0.448-0.768 0.704-1.344 0.704 0 0 0 0 0 0l-3.904-0.064c-0.576 0-1.088-0.32-1.28-0.768-0.064-0.064-0.064-0.128-0.064-0.192-1.92-0.064-3.328-0.512-2.752-1.536 1.152-1.984 3.136-3.2 6.336-3.776 6.272-1.216 6.272-1.216 6.208 3.392z"></path>
<path d="M0 22.4h25.472v1.344h-25.472v-1.344z"></path>
</symbol>
<symbol id="i-fae-kitchen-utensils" viewBox="0 0 32 32">
<title>kitchen-utensils</title>
<path d="M4.672 22.144v-8.832h0.512v-0.576c0 0-0.64-1.472-0.064-3.712 0-0.512 0-6.592 0-6.592v0c0 0 0 0 0 0 0-0.448-0.384-0.832-0.832-0.832s-0.832 0.384-0.832 0.832c0 0 0 0 0 0v0c0 0 0 5.952 0 6.528 0.448 2.752-0.128 3.776-0.128 3.776v0.576h0.512v8.896c-2.176 0.192-3.84 2.048-3.84 4.224 0 2.368 1.92 4.288 4.288 4.288s4.288-1.92 4.288-4.288c-0.064-2.24-1.728-4.032-3.904-4.288zM3.392 23.936c0.128 0 0.256 0.128 0.256 0.256s-0.128 0.256-0.256 0.256-0.256-0.128-0.256-0.256c0-0.128 0.128-0.256 0.256-0.256zM2.944 22.976c0.128 0 0.256 0.128 0.256 0.256s-0.128 0.256-0.256 0.256-0.256-0.128-0.256-0.256c-0.064-0.128 0.064-0.256 0.256-0.256zM3.328 26.496c0 0.128-0.128 0.256-0.256 0.256s-0.256-0.128-0.256-0.256c0-0.128 0.128-0.256 0.256-0.256s0.256 0.128 0.256 0.256zM2.624 24.384c0.128 0 0.256 0.128 0.256 0.256s-0.128 0.256-0.256 0.256c-0.128 0-0.256-0.128-0.256-0.256s0.128-0.256 0.256-0.256zM2.496 25.536c0 0.128-0.128 0.256-0.256 0.256s-0.256-0.128-0.256-0.256c0-0.128 0.128-0.256 0.256-0.256s0.256 0.064 0.256 0.256zM2.176 26.432c0 0.128-0.128 0.256-0.256 0.256s-0.256-0.128-0.256-0.256c0-0.128 0.128-0.256 0.256-0.256 0.192 0 0.256 0.064 0.256 0.256zM1.92 23.744c0.128 0 0.256 0.128 0.256 0.256 0 0.192-0.128 0.32-0.256 0.32s-0.256-0.128-0.256-0.256c-0.064-0.192 0.064-0.32 0.256-0.32zM1.152 24.896c0.128 0 0.256 0.128 0.256 0.256s-0.128 0.256-0.256 0.256c-0.128 0-0.256-0.128-0.256-0.256s0.128-0.256 0.256-0.256zM0.576 26.496c0-0.128 0.128-0.256 0.256-0.256s0.256 0.128 0.256 0.256c0 0.128-0.128 0.256-0.256 0.256s-0.256-0.128-0.256-0.256zM1.152 28.16c-0.128 0-0.256-0.128-0.256-0.256s0.128-0.256 0.256-0.256c0.128 0 0.256 0.128 0.256 0.256s-0.128 0.256-0.256 0.256zM1.856 29.12c-0.128 0-0.256-0.128-0.256-0.256s0.128-0.256 0.256-0.256c0.128 0 0.256 0.128 0.256 0.256s-0.064 0.256-0.256 0.256zM2.048 27.52c-0.128 0-0.256-0.128-0.256-0.256s0.128-0.256 0.256-0.256c0.128 0 0.256 0.128 0.256 0.256s-0.128 0.256-0.256 0.256zM2.368 28.16c0-0.128 0.128-0.256 0.256-0.256s0.256 0.128 0.256 0.256c0 0.128-0.128 0.256-0.256 0.256s-0.256-0.128-0.256-0.256zM2.944 29.888c-0.128 0-0.256-0.128-0.256-0.256s0.128-0.256 0.256-0.256c0.128 0 0.256 0.128 0.256 0.256s-0.128 0.256-0.256 0.256zM3.328 28.928c-0.128 0-0.256-0.128-0.256-0.256s0.128-0.256 0.256-0.256c0.128 0 0.256 0.128 0.256 0.256s-0.064 0.256-0.256 0.256zM3.456 27.648c-0.128 0-0.256-0.128-0.256-0.256s0.128-0.256 0.256-0.256 0.256 0.128 0.256 0.256c0 0.128-0.064 0.256-0.256 0.256zM3.456 25.92c-0.128 0-0.256-0.128-0.256-0.256s0.128-0.256 0.256-0.256 0.256 0.128 0.256 0.256c0 0.128-0.064 0.256-0.256 0.256zM6.592 25.472c0.128 0 0.256 0.128 0.256 0.256s-0.128 0.256-0.256 0.256c-0.128 0-0.256-0.128-0.256-0.256 0-0.192 0.128-0.256 0.256-0.256zM5.696 23.040c0.128 0 0.256 0.128 0.256 0.256s-0.128 0.256-0.256 0.256c-0.128 0-0.256-0.128-0.256-0.256 0-0.192 0.128-0.32 0.256-0.256zM5.248 24.064c0.128 0 0.256 0.128 0.256 0.256s-0.128 0.256-0.256 0.256c-0.128 0-0.256-0.128-0.256-0.256 0-0.192 0.128-0.256 0.256-0.256zM5.568 26.24c0.128 0 0.256 0.128 0.256 0.256s-0.128 0.256-0.256 0.256c-0.128 0-0.256-0.128-0.256-0.256 0-0.192 0.128-0.256 0.256-0.256zM5.184 25.344c0.128 0 0.256 0.128 0.256 0.256s-0.128 0.256-0.256 0.256c-0.128 0-0.256-0.128-0.256-0.256s0.128-0.256 0.256-0.256zM4.352 2.048c0.256 0 0.448 0.192 0.448 0.448s-0.192 1.088-0.448 1.088c-0.256 0.064-0.448-0.768-0.448-1.024s0.192-0.512 0.448-0.512zM4.352 24.32c-0.128 0-0.256-0.128-0.256-0.256s0.128-0.256 0.256-0.256c0.128 0 0.256 0.128 0.256 0.256s-0.128 0.256-0.256 0.256zM4.544 25.28c0 0.128-0.128 0.256-0.256 0.256s-0.256-0.128-0.256-0.256c0-0.128 0.128-0.256 0.256-0.256s0.256 0.128 0.256 0.256zM4.032 22.912c0-0.128 0.128-0.256 0.256-0.256s0.256 0.128 0.256 0.256c0 0.128-0.128 0.256-0.256 0.256-0.192 0.064-0.256-0.064-0.256-0.256zM4.288 30.144c-0.128 0-0.256-0.128-0.256-0.256s0.128-0.256 0.256-0.256c0.128 0 0.256 0.128 0.256 0.256s-0.128 0.256-0.256 0.256zM4.288 29.12c-0.128 0-0.256-0.128-0.256-0.256s0.128-0.256 0.256-0.256c0.128 0 0.256 0.128 0.256 0.256s-0.128 0.256-0.256 0.256zM4.416 27.904c-0.128 0-0.256-0.128-0.256-0.256s0.128-0.256 0.256-0.256c0.128 0 0.256 0.128 0.256 0.256 0.064 0.128-0.064 0.256-0.256 0.256zM4.352 26.88c-0.192 0-0.384-0.192-0.384-0.384s0.192-0.384 0.384-0.384c0.192 0 0.384 0.192 0.384 0.384-0.064 0.192-0.192 0.384-0.384 0.384zM5.184 27.072c0.128 0 0.256 0.128 0.256 0.256s-0.128 0.256-0.256 0.256c-0.128 0-0.256-0.128-0.256-0.256s0.128-0.256 0.256-0.256zM4.928 28.672c0-0.128 0.128-0.256 0.256-0.256s0.256 0.128 0.256 0.256c0 0.128-0.128 0.256-0.256 0.256s-0.256-0.128-0.256-0.256zM5.568 30.016c-0.128 0-0.256-0.128-0.256-0.256s0.128-0.256 0.256-0.256c0.128 0 0.256 0.128 0.256 0.256s-0.128 0.256-0.256 0.256zM5.952 28.416c-0.128 0-0.256-0.128-0.256-0.256s0.128-0.256 0.256-0.256c0.128 0 0.256 0.128 0.256 0.256s-0.128 0.256-0.256 0.256zM5.952 25.152c-0.128 0-0.256-0.128-0.256-0.256s0.128-0.256 0.256-0.256c0.128 0 0.256 0.128 0.256 0.256s-0.128 0.256-0.256 0.256zM6.336 27.52c0-0.128 0.128-0.256 0.256-0.256s0.256 0.128 0.256 0.256c0 0.128-0.128 0.256-0.256 0.256s-0.256-0.128-0.256-0.256zM6.72 29.184c-0.128 0-0.256-0.128-0.256-0.256s0.128-0.256 0.256-0.256c0.128 0 0.256 0.128 0.256 0.256 0 0.192-0.064 0.256-0.256 0.256zM6.72 26.88c-0.128 0-0.256-0.128-0.256-0.256s0.128-0.256 0.256-0.256c0.128 0 0.256 0.128 0.256 0.256s-0.064 0.256-0.256 0.256zM6.784 24.32c-0.128 0-0.256-0.128-0.256-0.256s0.128-0.256 0.256-0.256c0.128 0 0.256 0.128 0.256 0.256s-0.064 0.256-0.256 0.256zM7.552 27.968c-0.128 0-0.256-0.128-0.256-0.256s0.128-0.256 0.256-0.256c0.128 0 0.256 0.128 0.256 0.256 0.064 0.128-0.064 0.256-0.256 0.256zM8.064 26.368c0 0.128-0.128 0.256-0.256 0.256s-0.256-0.128-0.256-0.256c0-0.128 0.128-0.256 0.256-0.256s0.256 0.128 0.256 0.256zM7.744 25.152c0 0.128-0.128 0.256-0.256 0.256s-0.256-0.128-0.256-0.256c0-0.128 0.128-0.256 0.256-0.256 0.192 0 0.256 0.064 0.256 0.256z"></path>
<path d="M13.12 21.632v-8.064h0.64v-0.576c0 0-0.704-1.536-0.064-3.84 0-0.512 0-6.72 0-6.72v0c0 0 0 0 0 0 0-0.448-0.384-0.832-0.832-0.832s-0.832 0.384-0.832 0.832c0 0 0 0 0 0v0c0 0 0 6.144 0 6.656 0.448 2.816-0.128 3.84-0.128 3.84v0.576h0.64v8c0 0-2.496 1.984-2.496 2.56s0 2.752 0 2.944c0 0.256-0.064 3.584 1.408 3.584 0.448 0 1.216 0 1.344 0 0 0 0 0 0 0 0.128 0 0.896 0 1.344 0 1.408 0 1.408-3.328 1.408-3.584s0-2.432 0-2.944c0-0.448-2.176-2.24-2.432-2.432zM11.072 29.888h-0.32v-5.632h0.32v5.632zM12.032 30.016h-0.32v-4.736h0.32v4.736zM12.416 2.56c0-0.256 0.192-0.448 0.448-0.448s0.448 0.192 0.448 0.448c0 0.256-0.192 1.152-0.448 1.152s-0.448-0.896-0.448-1.152zM12.608 30.016v-4.096h0.32v4.096h-0.32zM13.824 30.016h-0.32v-4.736h0.32v4.736zM14.72 29.824h-0.32v-5.632h0.32v5.632z"></path>
<path d="M21.504 15.744h0.32v-0.704c0 0-0.832-1.792-0.064-4.48 0-0.576 0-7.872 0-7.872v0c0 0 0 0 0 0 0-0.512-0.448-0.96-0.96-0.96s-0.96 0.448-0.96 0.96c0 0 0 0 0 0v0c0 0 0 7.168 0 7.872 0.576 3.264-0.128 4.544-0.128 4.544v0.704h0.384c-0.064 1.216-0.704 3.072-1.408 5.12-0.832 2.432-1.728 4.928-1.6 6.4 0.128 1.6 0.832 2.432 1.408 2.816 0.512 0.32 1.088 0.512 1.664 0.512 0.192 0 0.448 0 0.64-0.064l0.32-0.064c0.128 0 0.192 0 0.32 0 0.576 0 1.152-0.192 1.664-0.512 0.576-0.384 1.28-1.216 1.408-2.816 0.128-1.472-0.768-3.968-1.6-6.4-0.704-2.048-1.344-3.904-1.408-5.056zM20.8 2.24c0.32 0 0.576 0.256 0.576 0.576s-0.256 1.344-0.576 1.344c-0.32 0-0.576-1.024-0.576-1.344 0.064-0.384 0.32-0.576 0.576-0.576zM18.752 29.76c-0.512-0.384-1.152-1.088-1.28-2.56-0.128-1.408 0.704-3.84 1.536-6.272 0.192-0.512 0.32-0.96 0.512-1.472-0.704 3.072-1.472 6.848-1.536 7.424-0.064 1.792 1.28 2.816 2.112 3.328-0.512 0-0.96-0.128-1.344-0.448zM18.368 26.944c0-0.384 0.576-3.072 1.152-5.696-0.32 2.624-0.64 5.248-0.64 5.824 0 0.768 0.704 2.048 1.344 2.816-0.768-0.448-1.92-1.408-1.856-2.944zM19.264 27.072c0-0.64 0.448-4.16 0.832-7.168-0.192 4.544-0.192 5.376-0.128 6.208 0 0.256 0 0.576 0 0.96 0 1.088 0.256 1.92 0.512 2.496-0.512-0.64-1.216-1.792-1.216-2.496zM20.736 29.184c-0.192-0.512-0.384-1.216-0.384-2.048 0-0.448 0-0.704 0-0.96 0-1.024-0.064-2.048 0.32-10.048 0-0.128 0.064-0.256 0.064-0.32h0.064c0 0.064 0 0.128 0.064 0.192 0.384 8 0.384 9.024 0.32 10.048 0 0.256 0 0.576 0 1.024 0 0.832-0.256 1.536-0.448 2.112zM21.056 29.44c0.256-0.576 0.512-1.408 0.512-2.496 0-0.448 0-0.704 0-0.96 0-0.832 0.064-1.664-0.128-6.208 0.384 3.008 0.832 6.528 0.832 7.168 0 0.704-0.704 1.856-1.216 2.496zM21.312 29.76c0.192-0.256 0.384-0.576 0.448-0.64 0.32-0.512 0.896-1.472 0.896-2.176 0-0.576-0.32-3.2-0.64-5.824 0.576 2.624 1.152 5.312 1.152 5.696 0.064 1.536-1.088 2.496-1.856 2.944zM24.128 27.136c-0.128 1.472-0.768 2.176-1.28 2.56-0.448 0.256-0.896 0.384-1.344 0.384 0.832-0.512 2.176-1.536 2.112-3.328-0.064-0.512-0.832-4.288-1.536-7.36 0.128 0.448 0.32 0.96 0.512 1.472 0.768 2.368 1.6 4.864 1.536 6.272z"></path>
<path d="M32 28.352v0c0-0.064 0-0.064 0 0 0-0.064-0.064-0.128-0.064-0.192-1.536-2.88-2.752-7.808-2.816-9.792v-2.24h0.704v-0.768c0 0-0.832-1.856-0.064-4.736 0-0.576 0-8.256 0-8.256v0c0 0 0 0 0 0 0-0.576-0.448-1.024-1.024-1.024s-1.024 0.448-1.024 1.024c0 0 0 0 0 0v0c0 0 0 7.552 0 8.256 0.576 3.456-0.128 4.736-0.128 4.736v0.768h0.64v2.048c0 1.856-1.28 6.976-2.816 9.984-0.064 0.128-0.128 0.192-0.128 0.32 0 0.64 1.536 1.152 3.392 1.152s3.392-0.512 3.392-1.152c-0.064-0.064-0.064-0.128-0.064-0.128zM28.736 1.92c0.32 0 0.576 0.256 0.576 0.576s-0.256 1.408-0.576 1.408c-0.32-0.064-0.576-1.088-0.576-1.408s0.256-0.576 0.576-0.576zM28.608 27.264c-1.024 0-1.984 0.192-2.56 0.384 1.28-2.752 2.304-6.72 2.496-8.832h0.192c0.192 2.112 1.216 6.080 2.496 8.832-0.64-0.192-1.6-0.384-2.624-0.384z"></path>
</symbol>
<symbol id="i-fae-laundry-machine" viewBox="0 0 32 32">
<title>laundry-machine</title>
<path d="M5.824 4.672c0 0.424-0.344 0.768-0.768 0.768s-0.768-0.344-0.768-0.768c0-0.424 0.344-0.768 0.768-0.768s0.768 0.344 0.768 0.768z"></path>
<path d="M8.384 4.672c0 0.424-0.344 0.768-0.768 0.768s-0.768-0.344-0.768-0.768c0-0.424 0.344-0.768 0.768-0.768s0.768 0.344 0.768 0.768z"></path>
<path d="M22.656 4.672c0 0.424-0.344 0.768-0.768 0.768s-0.768-0.344-0.768-0.768c0-0.424 0.344-0.768 0.768-0.768s0.768 0.344 0.768 0.768z"></path>
<path d="M25.152 4.672c0 0.424-0.344 0.768-0.768 0.768s-0.768-0.344-0.768-0.768c0-0.424 0.344-0.768 0.768-0.768s0.768 0.344 0.768 0.768z"></path>
<path d="M27.712 4.672c0 0.424-0.344 0.768-0.768 0.768s-0.768-0.344-0.768-0.768c0-0.424 0.344-0.768 0.768-0.768s0.768 0.344 0.768 0.768z"></path>
<path d="M16 26.048c3.84 0 6.912-3.136 6.912-6.912s-3.072-6.976-6.912-6.976-6.912 3.136-6.912 6.912c0 3.904 3.072 6.976 6.912 6.976zM16 13.632c3.072 0 5.504 2.496 5.504 5.504 0 0.064 0 0.064 0 0.128-0.256 0.192-0.512 0.384-1.024 0.384-0.576 0-0.896-0.256-1.152-0.512s-0.576-0.448-1.088-0.448-0.832 0.256-1.088 0.448c-0.256 0.256-0.576 0.512-1.152 0.512s-0.896-0.256-1.152-0.512c-0.256-0.256-0.576-0.448-1.088-0.448s-0.832 0.256-1.088 0.448c-0.256 0.256-0.576 0.512-1.152 0.512-0.512 0-0.832-0.192-1.088-0.448 0 0 0-0.064 0-0.064 0.064-3.072 2.496-5.504 5.568-5.504z"></path>
<path d="M2.496 32h26.944v-25.728h-26.944v25.728zM16 10.624c4.672 0 8.512 3.84 8.512 8.512s-3.84 8.512-8.512 8.512c-4.672 0-8.512-3.84-8.512-8.512 0-4.736 3.84-8.512 8.512-8.512z"></path>
<path d="M2.496 0h26.944v2.752h-26.944v-2.752z"></path>
</symbol>
<symbol id="i-fae-lounger" viewBox="0 0 32 32">
<title>lounger</title>
<path d="M22.592 1.92v-0.96c0-0.512-0.448-0.96-0.96-0.96s-0.96 0.448-0.96 0.96v0.96c-5.248 0.448-9.344 4.928-9.344 10.304 0 0.32 0.192 0.64 0.512 0.832s0.704 0.128 0.96-0.064c1.408-0.96 3.2-0.96 4.608 0 0.256 0.192 0.64 0.192 0.96 0.064l1.472-0.768c0.32-0.128 0.576-0.256 0.896-0.32v10.624h1.856v-10.56c0.32 0.064 0.64 0.192 0.896 0.32l1.472 0.768c0.32 0.128 0.704 0.128 1.024-0.064 1.408-0.96 3.2-0.96 4.608 0 0.32 0.192 0.64 0.192 0.96 0.064 0.32-0.192 0.512-0.512 0.512-0.832-0.064-5.376-4.224-9.92-9.472-10.368z"></path>
<path d="M28.8 28.16c0.768-0.256 1.344-0.896 1.344-1.792 0-1.024-0.832-1.856-1.856-1.856h-19.84l-5.056-6.784c-0.64-0.832-1.792-0.96-2.624-0.384-0.832 0.64-1.024 1.792-0.384 2.624l5.632 7.552c0.256 0.32 0.576 0.512 0.96 0.64l-1.28 2.496c-0.256 0.448-0.064 1.024 0.448 1.28 0.448 0.256 1.024 0.064 1.28-0.448l1.6-3.2h17.728l1.6 3.2c0.256 0.448 0.768 0.64 1.28 0.448 0.448-0.256 0.64-0.768 0.448-1.28l-1.28-2.496z"></path>
<path d="M16 18.88h-9.408l1.408 1.856h8c0.512 0 0.96 0.448 0.96 0.96v0.96h1.856v-0.96c0-1.536-1.28-2.816-2.816-2.816z"></path>
</symbol>
<symbol id="i-fae-microweave" viewBox="0 0 32 32">
<title>microweave</title>
<path d="M21.888 8h-17.088c-0.896 0-1.6 0.704-1.6 1.6v10.688c0 0.896 0.704 1.6 1.6 1.6h17.088c0.896 0 1.6-0.704 1.6-1.6v-10.688c0-0.896-0.768-1.6-1.6-1.6zM4.416 11.904l2.688-2.688c0.192-0.192 0.576-0.192 0.768 0s0.192 0.576 0 0.768l-2.688 2.688c-0.128 0.064-0.256 0.128-0.384 0.128s-0.256-0.064-0.384-0.128c-0.192-0.256-0.192-0.576 0-0.768zM6.272 14.272l-1.088 1.088c-0.128 0.128-0.256 0.128-0.384 0.128s-0.256-0.064-0.384-0.128c-0.192-0.192-0.192-0.576 0-0.768l1.088-1.088c0.192-0.192 0.576-0.192 0.768 0s0.192 0.512 0 0.768zM7.872 12.672l-0.512 0.512c-0.128 0.128-0.256 0.128-0.384 0.128s-0.256-0.064-0.384-0.128c-0.192-0.192-0.192-0.576 0-0.768l0.512-0.512c0.192-0.192 0.576-0.192 0.768 0s0.192 0.512 0 0.768zM10.496 9.984l-1.6 1.6c-0.128 0.128-0.256 0.128-0.384 0.128s-0.256-0.064-0.384-0.128c-0.192-0.192-0.192-0.576 0-0.768l1.6-1.6c0.192-0.192 0.576-0.192 0.768 0s0.192 0.576 0 0.768zM21.312 18.112c0.32 0 0.512 0.256 0.512 0.512 0 0.32-0.256 0.512-0.512 0.512h-2.112c-0.32 0-0.512-0.256-0.512-0.512v-7.424c0-0.32 0.256-0.512 0.512-0.512h2.112c0.32 0 0.512 0.256 0.512 0.512s-0.256 0.512-0.512 0.512h-1.6v6.4h1.6z"></path>
<path d="M28.8 9.088c0 0.601-0.487 1.088-1.088 1.088s-1.088-0.487-1.088-1.088c0-0.601 0.487-1.088 1.088-1.088s1.088 0.487 1.088 1.088z"></path>
<path d="M30.4 25.088c0.896 0 1.6-0.704 1.6-1.6v-17.088c0-0.896-0.704-1.6-1.6-1.6h-28.8c-0.896 0-1.6 0.704-1.6 1.6v17.088c0 0.896 0.704 1.6 1.6 1.6h0.512v1.088h-1.6c-0.32 0-0.512 0.256-0.512 0.512s0.256 0.512 0.512 0.512h30.976c0.32 0 0.512-0.256 0.512-0.512s-0.256-0.512-0.512-0.512h-1.6v-1.088h0.512zM27.712 6.912c1.152 0 2.112 0.96 2.112 2.112s-0.96 2.112-2.112 2.112-2.112-0.896-2.112-2.048 0.96-2.176 2.112-2.176zM28.8 15.488c-0.32 0-0.512-0.256-0.512-0.512v-0.512c0-0.32 0.256-0.512 0.512-0.512 0.32 0 0.512 0.256 0.512 0.512v0.512c0 0.256-0.192 0.512-0.512 0.512zM29.312 16.512v0.512c0 0.32-0.256 0.512-0.512 0.512-0.32 0-0.512-0.256-0.512-0.512v-0.512c0-0.32 0.256-0.512 0.512-0.512 0.32 0 0.512 0.256 0.512 0.512zM28.8 13.312c-0.32 0-0.512-0.256-0.512-0.512v-0.512c0-0.32 0.256-0.512 0.512-0.512 0.32 0 0.512 0.256 0.512 0.512v0.512c0 0.32-0.192 0.512-0.512 0.512zM26.688 15.488c-0.32 0-0.512-0.256-0.512-0.512v-0.512c0-0.32 0.256-0.512 0.512-0.512s0.512 0.256 0.512 0.512v0.512c0 0.256-0.256 0.512-0.512 0.512zM27.2 16.512v0.512c0 0.32-0.256 0.512-0.512 0.512s-0.512-0.256-0.512-0.512v-0.512c0-0.32 0.256-0.512 0.512-0.512s0.512 0.256 0.512 0.512zM26.688 13.312c-0.32 0-0.512-0.256-0.512-0.512v-0.512c0-0.32 0.256-0.512 0.512-0.512s0.512 0.256 0.512 0.512v0.512c0 0.32-0.256 0.512-0.512 0.512zM2.112 20.288v-10.688c0-1.472 1.216-2.688 2.688-2.688h17.088c1.472 0 2.688 1.216 2.688 2.688v10.688c0 1.472-1.216 2.688-2.688 2.688h-17.088c-1.472-0.064-2.688-1.216-2.688-2.688zM3.2 26.112v-1.088h2.688v1.088h-2.688zM25.088 26.112h-18.176v-1.088h18.112l0.064 1.088zM28.8 26.112h-2.688v-1.088h2.688v1.088zM27.712 22.912c-1.152 0-2.112-0.96-2.112-2.112s0.96-2.112 2.112-2.112c1.152 0 2.112 0.96 2.112 2.112 0.064 1.152-0.896 2.112-2.112 2.112z"></path>
<path d="M28.8 20.8c0 0.601-0.487 1.088-1.088 1.088s-1.088-0.487-1.088-1.088c0-0.601 0.487-1.088 1.088-1.088s1.088 0.487 1.088 1.088z"></path>
</symbol>
<symbol id="i-fae-oven" viewBox="0 0 32 32">
<title>oven</title>
<path d="M28.864 1.728h-1.28c0.128-0.192 0.128-0.384 0.128-0.576s-0.064-0.384-0.128-0.576c-0.256-0.32-0.576-0.576-1.024-0.576h-7.424c-0.448 0-0.768 0.256-0.96 0.576-0.128 0.192-0.128 0.384-0.128 0.576s0.064 0.384 0.128 0.576h-4.288c0.128-0.192 0.128-0.384 0.128-0.576s-0.064-0.384-0.128-0.576c-0.256-0.32-0.64-0.576-1.024-0.576h-7.424c-0.448 0-0.768 0.256-1.024 0.576-0.064 0.192-0.128 0.384-0.128 0.576s0.064 0.384 0.128 0.576h-1.28c-0.96 0-1.728 0.768-1.728 1.728v4.032h29.12v-4.032c0.064-0.96-0.704-1.728-1.664-1.728zM6.848 5.952c-0.64 0-1.152-0.512-1.152-1.152s0.512-1.152 1.152-1.152 1.152 0.512 1.152 1.152-0.512 1.152-1.152 1.152zM11.136 5.952c-0.64 0-1.152-0.512-1.152-1.152s0.512-1.152 1.152-1.152c0.64 0 1.152 0.512 1.152 1.152s-0.512 1.152-1.152 1.152zM16 5.952c-0.64 0-1.152-0.512-1.152-1.152s0.512-1.152 1.152-1.152 1.152 0.512 1.152 1.152-0.512 1.152-1.152 1.152zM20.544 5.952c-0.64 0-1.152-0.512-1.152-1.152s0.512-1.152 1.152-1.152c0.64 0 1.152 0.512 1.152 1.152s-0.512 1.152-1.152 1.152zM25.152 5.952c-0.64 0-1.152-0.512-1.152-1.152s0.512-1.152 1.152-1.152c0.64 0 1.152 0.512 1.152 1.152s-0.512 1.152-1.152 1.152z"></path>
<path d="M1.408 30.272c0 0.96 0.768 1.728 1.728 1.728h25.728c0.96 0 1.728-0.768 1.728-1.728v-21.696h-29.184v21.696zM6.016 10.304h19.456c0.32 0 0.576 0.256 0.576 0.576s-0.256 0.576-0.576 0.576h-19.456c-0.32 0-0.576-0.256-0.576-0.576s0.256-0.576 0.576-0.576zM4.864 14.848c0-0.96 0.768-1.728 1.728-1.728h18.88c0.96 0 1.728 0.768 1.728 1.728v12.032c0 0.96-0.768 1.728-1.728 1.728h-18.88c-0.96 0-1.728-0.768-1.728-1.728v-12.032z"></path>
<path d="M12.096 14.272l-6.080 4.288v1.984l8.96-6.272z"></path>
<path d="M25.408 27.456h0.576v-13.184h-8.512l-11.456 8.064v5.12h0.576z"></path>
</symbol>
<symbol id="i-fae-palm-tree" viewBox="0 0 32 32">
<title>palm-tree</title>
<path d="M31.744 24.448c-4.608-1.792-9.28-2.88-13.952-3.136-0.32-4.8-0.512-8.768-0.512-9.472 1.792 0.064 3.264 0.832 4.416 2.368 1.024 1.344 1.408 2.816 1.408 2.88 0.064 0.128 0.128 0.256 0.32 0.32 0 0 0.064 0 0.064 0 0.128 0 0.256-0.064 0.32-0.192 0.768-1.088 1.152-2.368 0.96-3.712s-0.896-2.496-1.984-3.264c-0.64-0.448-1.408-0.768-2.176-0.896 1.088-0.128 2.24-0.064 3.392 0.256 2.176 0.64 3.712 1.92 3.776 1.92 0.128 0.128 0.256 0.128 0.448 0.064 0.128-0.064 0.256-0.192 0.256-0.384 0-3.52-2.88-6.4-6.4-6.4-1.28 0-2.496 0.384-3.456 1.024 0.96-1.088 2.24-1.792 3.776-2.112 1.984-0.448 3.776-0.064 3.776-0.064 0.128 0.064 0.32 0 0.384-0.128s0.128-0.32 0.064-0.448c-1.536-2.816-5.056-3.904-7.872-2.432-1.28 0.64-2.176 1.728-2.688 3.072-0.512-1.28-1.408-2.368-2.688-3.072-2.816-1.536-6.4-0.448-7.872 2.432-0.192 0.128-0.192 0.32-0.064 0.448 0.064 0.128 0.256 0.192 0.384 0.128 0 0 1.792-0.384 3.776 0.064 1.6 0.32 2.816 1.024 3.776 2.112-1.024-0.64-2.176-1.024-3.456-1.024-3.52 0-6.4 2.88-6.4 6.4 0 0.128 0.064 0.32 0.256 0.384 0.128 0.064 0.32 0.064 0.448-0.064 0 0 1.536-1.28 3.712-1.92 1.216-0.32 2.368-0.448 3.456-0.256-0.768 0.128-1.472 0.448-2.112 0.896-1.088 0.768-1.792 1.984-1.984 3.264-0.192 1.344 0.128 2.624 0.96 3.712 0.064 0.128 0.192 0.192 0.32 0.192 0 0 0.064 0 0.064 0 0.128-0.064 0.256-0.128 0.32-0.32 0 0 0.384-1.472 1.408-2.88 1.088-1.472 2.56-2.24 4.224-2.368-0.064 0.704-0.192 4.672-0.512 9.472-8.384 0.256-13.632 3.008-13.888 3.136-0.192 0.128-0.256 0.32-0.192 0.512 0.064 0.128 0.192 0.192 0.384 0.192 0.064 0 0.128 0 0.192-0.064 0.064 0.064 5.312-2.688 13.504-3.008-0.192 3.072-0.448 6.4-0.704 9.472 0 0.128 0 0.192 0.128 0.32 0.064 0.064 0.192 0.128 0.32 0.128h4.416c0.128 0 0.192-0.064 0.32-0.128 0.064-0.064 0.128-0.192 0.128-0.32-0.256-3.008-0.512-6.4-0.704-9.408 4.544 0.256 9.152 1.28 13.632 3.072 0.064 0 0.128 0 0.128 0 0.128 0 0.32-0.128 0.384-0.256-0.064-0.192-0.192-0.448-0.384-0.512zM22.272 10.816c0.896 0.64 1.472 1.664 1.664 2.752 0.128 0.832 0 1.664-0.384 2.368-0.64-1.6-2.432-4.928-6.528-4.992 0.576-0.512 1.344-0.832 2.112-0.96 1.152-0.064 2.24 0.192 3.136 0.832zM16.896 19.84c0.064 1.024 0.128 2.048 0.192 3.136h-2.24c0.064-1.088 0.128-2.112 0.192-3.136h1.856zM15.104 19.072c0.064-1.152 0.128-2.176 0.192-3.136h1.344c0.064 0.96 0.128 1.984 0.192 3.136h-1.728zM22.016 5.568c2.816 0 5.184 2.112 5.568 4.8-1.088-0.704-3.328-1.92-5.952-1.92-1.6 0-3.392 0.448-5.184 1.856 0.448-2.688 2.752-4.736 5.568-4.736zM16.576 4.352c0.384-1.28 1.28-2.368 2.432-2.944 0.768-0.384 1.536-0.576 2.368-0.576 1.536 0 3.008 0.704 3.968 1.984-1.92-0.256-6.656-0.128-8.768 4.48-0.256-0.96-0.32-1.984 0-2.944zM16.064 11.84c0 0 0.064 0 0.128 0 0.128 0 0.192 0 0.32 0 0 0.32 0.064 1.536 0.192 3.328h-1.344c0.128-1.792 0.128-3.008 0.192-3.328 0.128 0 0.32 0 0.448 0.064 0-0.064 0-0.064 0.064-0.064zM7.552 2.752c-0.384 0-0.768 0-1.024 0.064 1.472-1.92 4.16-2.56 6.336-1.408s3.136 3.648 2.432 5.952c-1.792-3.968-5.44-4.608-7.744-4.608zM4.416 10.368c0.384-2.688 2.752-4.736 5.504-4.736s5.056 1.984 5.504 4.672c-4.48-3.584-9.216-1.088-11.008 0.064zM8.512 16c-0.32-0.768-0.448-1.536-0.384-2.368 0.192-1.088 0.768-2.112 1.664-2.752 0.704-0.512 1.6-0.832 2.496-0.832 0.192 0 0.384 0 0.64 0.064 0.768 0.128 1.536 0.448 2.112 0.96-4.096 0-5.888 3.264-6.528 4.928zM14.784 23.808h2.368c0.064 1.024 0.128 2.112 0.256 3.136h-2.816c0.064-1.088 0.128-2.112 0.192-3.136zM14.208 31.168c0.128-1.152 0.192-2.304 0.32-3.456h2.944c0.064 1.152 0.192 2.368 0.32 3.456h-3.584z"></path>
</symbol>
<symbol id="i-fae-pillows" viewBox="0 0 32 32">
<title>pillows</title>
<path d="M21.12 26.816l-0.384-0.384c0.512-3.264 0.512-6.592 0-9.856l0.384-0.384c0.576-0.576 0.576-1.408 0.064-1.984-0.576-0.576-1.472-0.576-2.048 0l-0.384 0.384-1.664-0.384c-2.112-0.512-4.224-0.768-6.336-0.768s-4.288 0.256-6.336 0.768l-1.664 0.384-0.384-0.384c-0.576-0.576-1.472-0.576-2.048 0-0.512 0.576-0.512 1.472 0.064 1.984l0.256 0.384c-0.512 3.264-0.512 6.592 0 9.856v0l-0.384 0.384c-0.576 0.576-0.576 1.472 0 2.048 0.576 0.512 1.472 0.512 1.984-0.064l0.384-0.384 1.728 0.384c2.112 0.512 4.224 0.768 6.336 0.768s4.288-0.256 6.336-0.768l1.664-0.384 0.384 0.384c0.576 0.576 1.408 0.576 1.984 0.064 0.64-0.576 0.64-1.536 0.064-2.048z"></path>
<path d="M31.424 18.688l-0.384-0.384c0.512-3.264 0.512-6.592 0-9.856l0.384-0.384c0.576-0.576 0.576-1.408 0.064-1.984-0.576-0.576-1.472-0.576-2.048 0l-0.384 0.384-1.664-0.384c-2.112-0.512-4.224-0.768-6.336-0.768s-4.288 0.256-6.336 0.768l-1.664 0.384-0.384-0.384c-0.576-0.576-1.472-0.576-2.048 0-0.512 0.576-0.512 1.472 0.064 1.984l0.384 0.384c-0.192 1.024-0.256 2.048-0.32 3.008 0 0 0.064 0 0.064 0v0 0c2.304 0 4.608 0.256 6.784 0.832l0.704 0.192c0.576-0.384 1.216-0.64 1.92-0.64 0.896 0 1.792 0.384 2.368 1.024s0.896 1.472 0.896 2.368c0 0.704-0.256 1.408-0.704 1.92 0.192 1.408 0.256 2.816 0.256 4.224 1.472-0.128 2.944-0.32 4.352-0.704l1.664-0.384 0.384 0.384c0.576 0.576 1.408 0.576 1.984 0.064 0.576-0.576 0.576-1.472 0-2.048z"></path>
</symbol>
<symbol id="i-fae-shower" viewBox="0 0 32 32">
<title>shower</title>
<path d="M14.464 5.568c-5.696 0.512-10.24 3.84-10.816 8-0.576 1.088-0.896 2.24-0.896 3.456 0 3.328 7.168 4.544 13.248 4.544s13.248-1.216 13.248-4.544c0-1.216-0.32-2.368-0.896-3.456-0.64-4.16-5.056-7.424-10.752-7.936 0.128-1.792 0.704-3.392 1.6-4.8-1.024-0.576-2.112-0.832-3.2-0.832-0.896 1.664-1.472 3.584-1.536 5.568zM27.584 16c0.064 0.32 0.064 0.64 0.064 1.024 0 1.408-4.672 2.944-11.648 2.944s-11.648-1.536-11.648-2.944c0-0.32 0.064-0.704 0.128-1.024 3.84 3.008 19.2 3.008 23.104 0z"></path>
<path d="M5.184 25.984c0 0.896 0.512 1.664 1.152 1.664s1.152-0.768 1.152-1.664c0-0.896-1.152-2.688-1.152-2.688s-1.152 1.792-1.152 2.688z"></path>
<path d="M14.848 25.984c0 0.896 0.512 1.664 1.152 1.664s1.152-0.768 1.152-1.664c0-0.896-1.152-2.688-1.152-2.688s-1.152 1.792-1.152 2.688z"></path>
<path d="M24.512 25.984c0 0.896 0.512 1.664 1.152 1.664s1.152-0.768 1.152-1.664c0-0.896-1.152-2.688-1.152-2.688s-1.152 1.792-1.152 2.688z"></path>
<path d="M9.984 30.336c0 0.896 0.512 1.664 1.152 1.664s1.152-0.768 1.152-1.664c0-0.896-1.152-2.688-1.152-2.688s-1.152 1.792-1.152 2.688z"></path>
<path d="M19.712 30.336c0 0.896 0.512 1.664 1.152 1.664s1.152-0.768 1.152-1.664c0-0.896-1.152-2.688-1.152-2.688s-1.152 1.792-1.152 2.688z"></path>
</symbol>
<symbol id="i-fae-swimming-pool" viewBox="0 0 32 32">
<title>swimming-pool</title>
<path d="M24.896 9.792h-10.944v0.96h10.24l4.352 13.056h-25.088l4.352-13.056h0.704v-0.96h-1.408l-4.672 13.888v1.088h27.136v-1.088z"></path>
<path d="M10.24 4.736c-0.704 0-1.216 0.576-1.216 1.216v5.248h0.96v-5.184c0-0.192 0.128-0.256 0.256-0.256s0.256 0.128 0.256 0.256v1.28h0.96v-1.28c0-0.704-0.512-1.28-1.216-1.28z"></path>
<path d="M13.76 4.736c-0.704 0-1.216 0.576-1.216 1.216v5.248h0.96v-5.184c0-0.128 0.128-0.256 0.256-0.256s0.256 0.128 0.256 0.256v1.28h0.96v-1.28c0-0.704-0.576-1.28-1.216-1.28z"></path>
<path d="M10.496 7.744h1.536v0.96h-1.536v-0.96z"></path>
<path d="M10.496 9.792h1.536v0.96h-1.536v-0.96z"></path>
<path d="M26.368 7.744h-12.416v0.96h11.712l5.376 15.68v1.856h-30.080v-1.856l5.376-15.68h2.176v-0.96h-2.88l-5.632 16.384-0.064 0.064v3.072h32.128v-3.072z"></path>
<path d="M8.512 12.8h4.992v0.96h-4.992v-0.96z"></path>
<path d="M13.504 14.272h1.984v0.96h-1.984v-0.96z"></path>
<path d="M9.536 17.216h1.984v0.96h-1.984v-0.96z"></path>
<path d="M11.456 20.288h8.512v0.96h-8.512v-0.96z"></path>
<path d="M19.968 21.312h3.008v0.96h-3.008v-0.96z"></path>
<path d="M6.464 21.824h2.112v0.96h-2.112v-0.96z"></path>
<path d="M5.888 19.328h2.048v0.96h-2.048v-0.96z"></path>
<path d="M19.456 12.224h2.048v0.96h-2.048v-0.96z"></path>
<path d="M21.504 13.76h1.536v0.96h-1.536v-0.96z"></path>
<path d="M21.504 16.256h1.536v0.96h-1.536v-0.96z"></path>
<path d="M23.488 17.728h2.112v0.96h-2.112v-0.96z"></path>
<path d="M-0.064 5.76h8.576v0.96h-8.576v-0.96z"></path>
<path d="M15.488 5.76h16.576v0.96h-16.576v-0.96z"></path>
</symbol>
<symbol id="i-fae-table-tennis-racket" viewBox="0 0 32 32">
<title>table-tennis-racket</title>
<path d="M26.304 26.24c-0.64 0-1.216 0.256-1.664 0.704-0.896 0.896-0.896 2.432 0 3.392 0.448 0.448 1.024 0.704 1.664 0.704s1.216-0.256 1.664-0.704c0.896-0.896 0.896-2.432 0-3.392-0.448-0.448-1.024-0.704-1.664-0.704zM26.304 30.080c-0.128 0-0.256-0.128-0.256-0.256s0.128-0.256 0.256-0.256c0.512 0 0.96-0.448 0.96-0.96 0-0.128 0.128-0.256 0.256-0.256s0.256 0.128 0.256 0.256c-0.064 0.832-0.704 1.472-1.472 1.472z"></path>
<path d="M6.4 23.552c0.704 0.064 1.344 0.32 1.792 0.704 0.896 0.832 1.28 1.856 1.344 3.2 0 0.512 0.064 1.152 0.128 1.856l0.128 0.768c0.064 0.32 0.256 0.576 0.512 0.768s0.576 0.192 0.896 0.128l2.688-0.768c0.256-0.064 0.512-0.256 0.64-0.512 0.192-0.32 0.192-0.704 0.064-1.024l-0.448-0.96c-0.192-0.448-0.448-0.96-0.768-1.472-0.704-1.152-0.896-2.24-0.64-3.328 0.128-0.576 0.512-1.152 1.088-1.536 0.832-0.64 1.472-1.408 1.984-2.24 0.064-0.128 0.128-0.256 0.192-0.384l-13.056 3.648c1.024 0.64 2.176 1.024 3.456 1.152z"></path>
<path d="M15.488 13.632c-1.28-4.544-5.824-7.424-9.984-6.208s-6.464 6.144-5.12 10.688c0.384 1.408 1.024 2.304 2.112 3.968l13.312-3.84c0.064-1.984 0.064-3.2-0.32-4.608z"></path>
<path d="M18.752 15.488c0.576 0.384 0.96 0.96 1.152 1.536 0.32 1.152 0.192 2.24-0.512 3.456-0.256 0.448-0.576 1.024-0.832 1.664l-0.32 0.704c-0.128 0.32-0.128 0.64 0 0.896s0.384 0.512 0.704 0.576l2.688 0.704c0.256 0.064 0.576 0.064 0.832-0.128 0.32-0.192 0.512-0.512 0.576-0.832l0.128-1.024c0.064-0.512 0.064-1.088 0.064-1.664 0-1.344 0.384-2.368 1.152-3.2 0.448-0.448 1.024-0.704 1.728-0.768 1.024-0.128 1.984-0.448 2.88-0.96 0.128-0.064 0.256-0.128 0.32-0.192l-12.928-3.456c0.576 1.024 1.344 1.984 2.368 2.688z"></path>
<path d="M31.68 11.712c1.216-4.544-1.152-9.344-5.376-10.496s-8.64 1.984-9.856 6.528c-0.384 1.408-0.32 2.496-0.192 4.48l13.376 3.584c1.024-1.664 1.664-2.688 2.048-4.096z"></path>
</symbol>
<symbol id="i-fae-toaster" viewBox="0 0 32 32">
<title>toaster</title>
<path d="M15.808 1.856c-12.864-1.024-15.808 5.12-15.808 8.128s0 15.936 0 15.936 13.12 2.944 18.24 4.032c5.12 1.088 13.696-0.704 13.76-3.968 0-3.584 0-16.64 0-17.728s-3.264-5.376-16.192-6.4zM12.672 3.904l14.848 3.264-3.2 0.96-15.104-3.52 3.456-0.704zM20.032 9.728l-15.104-3.456 3.456-0.768 14.848 3.264-3.2 0.96zM24.448 26.88c-0.384 0-0.704-0.32-0.704-0.704s0.32-0.704 0.704-0.704c0.384 0 0.704 0.32 0.704 0.704s-0.32 0.704-0.704 0.704zM26.176 26.368c-0.384 0-0.704-0.32-0.704-0.704s0.32-0.704 0.704-0.704c0.384 0 0.704 0.32 0.704 0.704s-0.32 0.704-0.704 0.704zM30.016 15.104l-1.664 1.152 0.192 8.832c0 0.32-0.256 0.576-0.512 0.576 0 0 0 0 0 0-0.32 0-0.576-0.256-0.576-0.576l-0.192-8.128-1.024 0.704c-0.192 0.128-0.384 0.192-0.64 0.192-0.384 0-0.704-0.192-0.896-0.512-0.32-0.512-0.192-1.216 0.32-1.536l3.84-2.624c0.512-0.32 1.216-0.192 1.536 0.32 0.256 0.576 0.128 1.28-0.384 1.6z"></path>
</symbol>
<symbol id="i-fae-toilet" viewBox="0 0 32 32">
<title>toilet</title>
<path d="M25.408 13.248h-18.816c-1.152 0-2.112 0.96-2.112 2.112s0.96 2.112 2.112 2.112h18.752c1.152 0 2.112-0.96 2.112-2.112s-0.896-2.112-2.048-2.112z"></path>
<path d="M6.656 19.456c0.512 4.672 4.48 8.32 9.344 8.32s8.832-3.648 9.344-8.32h-18.688z"></path>
<path d="M23.232 30.528l-1.024-2.496c-1.792 1.152-3.904 1.856-6.208 1.856s-4.416-0.64-6.208-1.856l-1.024 2.496c-0.128 0.32-0.128 0.704 0.128 0.96 0.192 0.32 0.512 0.448 0.896 0.448h12.544c0.32 0 0.704-0.192 0.896-0.448 0.064-0.256 0.128-0.64 0-0.96z"></path>
<path d="M24.32 0h-16.64c-0.576 0-1.024 0.448-1.024 1.024v10.112h18.752v-10.112c0-0.576-0.512-1.024-1.088-1.024zM20.16 6.272h-2.112c-0.576 0-1.024-0.448-1.024-1.024s0.448-1.024 1.024-1.024h2.112c0.576 0 1.024 0.448 1.024 1.024s-0.448 1.024-1.024 1.024z"></path>
</symbol>
<symbol id="i-fae-tv" viewBox="0 0 32 32">
<title>tv</title>
<path d="M29.632 3.84h-27.264c-1.28 0-2.368 1.088-2.368 2.432v16c0 1.344 1.088 2.368 2.368 2.368h10.432v1.088h-1.856c-1.024 0-1.856 0.832-1.856 1.856 0 0.32 0.256 0.512 0.512 0.512s0.512-0.256 0.512-0.512c0-0.448 0.384-0.768 0.832-0.768h10.112c0.448 0 0.768 0.384 0.768 0.768 0 0.32 0.256 0.512 0.512 0.512s0.512-0.256 0.512-0.512c0-1.024-0.832-1.856-1.856-1.856h-1.792v-1.088h10.432c1.344 0 2.368-1.088 2.368-2.368v-16c0-1.344-1.088-2.432-2.368-2.432zM18.112 25.728h-4.288v-1.088h4.288v1.088zM29.632 23.616h-27.264c-0.448 0-0.832-0.192-1.088-0.512h29.312c-0.192 0.256-0.576 0.512-0.96 0.512zM7.872 8.512l-1.6 1.6c-0.128 0.128-0.256 0.128-0.384 0.128s-0.32 0-0.384-0.128c-0.192-0.192-0.192-0.576 0-0.768l1.6-1.6c0.192-0.192 0.576-0.192 0.768 0s0.192 0.576 0 0.768zM8.128 9.344c0.192-0.192 0.576-0.192 0.768 0 0.128 0.128 0.128 0.256 0.128 0.384s-0.064 0.256-0.128 0.384c-0.128 0.064-0.256 0.128-0.384 0.128s-0.256-0.064-0.384-0.128c-0.128-0.128-0.128-0.256-0.128-0.384s0.064-0.256 0.128-0.384zM5.184 8.512l-2.112 2.112c-0.128 0.128-0.256 0.128-0.384 0.128s-0.256-0.064-0.384-0.128c-0.192-0.192-0.192-0.576 0-0.768l2.112-2.112c0.192-0.192 0.576-0.192 0.768 0s0.192 0.576 0 0.768zM5.312 10.816c0 0.128-0.064 0.256-0.128 0.384-0.128 0.064-0.256 0.128-0.384 0.128s-0.256-0.064-0.384-0.128c-0.128-0.128-0.128-0.256-0.128-0.384s0.064-0.256 0.128-0.384c0.192-0.192 0.576-0.192 0.768 0 0.064 0.064 0.128 0.256 0.128 0.384zM2.304 12.544l1.024-1.024c0.192-0.192 0.576-0.192 0.768 0s0.192 0.576 0 0.768l-1.088 1.088c-0.064 0.064-0.192 0.064-0.32 0.064s-0.32 0-0.384-0.128c-0.192-0.192-0.192-0.576 0-0.768zM2.304 15.232l4.8-4.8c0.192-0.192 0.576-0.192 0.768 0s0.192 0.576 0 0.768l-4.8 4.8c-0.128 0.128-0.256 0.128-0.384 0.128s-0.256-0.064-0.384-0.128c-0.192-0.256-0.192-0.576 0-0.768zM9.216 8.32l0.512-0.512c0.192-0.192 0.576-0.192 0.768 0s0.192 0.576 0 0.768l-0.512 0.512c-0.128 0.128-0.256 0.128-0.384 0.128s-0.256-0.064-0.384-0.128c-0.192-0.256-0.192-0.576 0-0.768zM1.344 5.44c0.256-0.32 0.64-0.512 1.088-0.512h27.2c0.448 0 0.832 0.192 1.088 0.512h-29.376z"></path>
</symbol>
<symbol id="i-fae-wifi" viewBox="0 0 32 32">
<title>wifi</title>
<path d="M16 20.608c-0.64 0-1.344 0.128-1.92 0.448-0.384 0.192-0.512 0.64-0.32 1.024s0.64 0.512 1.024 0.32c0.384-0.192 0.832-0.32 1.28-0.32 1.536 0 2.752 1.216 2.752 2.752s-1.216 2.752-2.752 2.752c-1.536 0-2.752-1.216-2.752-2.752 0-0.32 0.064-0.64 0.128-0.896 0.128-0.384-0.064-0.832-0.448-0.96s-0.832 0.064-0.96 0.448c-0.192 0.448-0.256 0.96-0.256 1.408 0 2.304 1.92 4.224 4.224 4.224s4.224-1.92 4.224-4.224c0-2.304-1.92-4.224-4.224-4.224z"></path>
<path d="M20.416 18.304c-2.752-1.472-6.144-1.472-8.896 0-0.384 0.192-0.512 0.64-0.32 1.024s0.64 0.512 1.024 0.32c2.304-1.28 5.184-1.28 7.488 0 0.128 0.064 0.256 0.064 0.384 0.064 0.256 0 0.512-0.128 0.64-0.384 0.192-0.384 0.064-0.832-0.32-1.024z"></path>
<path d="M7.68 15.168c-0.32 0.256-0.384 0.704-0.128 1.024s0.704 0.384 1.024 0.128c4.352-3.264 10.496-3.264 14.848 0 0.128 0.128 0.256 0.128 0.448 0.128 0.256 0 0.448-0.128 0.576-0.32 0.256-0.32 0.192-0.768-0.128-1.024-4.928-3.52-11.712-3.52-16.64 0.064z"></path>
<path d="M3.968 12.096c-0.32 0.256-0.384 0.704-0.128 1.024s0.704 0.384 1.024 0.064c6.4-5.376 15.744-5.376 22.208 0 0.128 0.128 0.32 0.192 0.448 0.192 0.192 0 0.448-0.064 0.576-0.256 0.256-0.32 0.192-0.768-0.064-1.024-6.976-5.888-17.088-5.888-24.064 0z"></path>
<path d="M31.744 9.024c-8.96-8.128-22.528-8.128-31.488 0-0.32 0.256-0.32 0.768-0.064 1.024 0.128 0.192 0.32 0.256 0.576 0.256 0.192 0 0.384-0.064 0.512-0.192 8.384-7.616 21.12-7.616 29.504 0 0.32 0.256 0.768 0.256 1.024-0.064s0.256-0.768-0.064-1.024z"></path>
</symbol>
</defs>
</svg>
