<?xml version="1.0" encoding="iso-8859-1"?>
<!-- Generator: Adobe Illustrator 19.0.0, SVG Export Plug-In . SVG Version: 6.00 Build 0)  -->
<svg version="1.1" id="Capa_1" xmlns="http://www.w3.org/2000/svg" xmlns:xlink="http://www.w3.org/1999/xlink" x="0px" y="0px"
	 viewBox="0 0 512.471 512.471" style="enable-background:new 0 0 512.471 512.471;" xml:space="preserve">
<g>
	<g>
		<g>
			<path d="M151.546,69.866c-45.017,0-81.51,36.493-81.51,81.51s36.493,81.51,81.51,81.51s81.51-36.493,81.51-81.51
				S196.563,69.866,151.546,69.866z M151.546,209.597c-32.155,0-58.221-26.067-58.221-58.221s26.067-58.221,58.221-58.221
				s58.222,26.067,58.222,58.221S183.701,209.597,151.546,209.597z"/>
			<path d="M211.747,476.718l-0.116,0c-6.946-2.44-13.651-5.519-20.028-9.199c-5.201-3.782-12.484-2.632-16.266,2.569
				c-3.782,5.201-2.632,12.484,2.569,16.266c0.642,0.467,1.33,0.867,2.053,1.194c7.604,4.406,15.594,8.109,23.871,11.062
				c1.269,0.461,2.609,0.697,3.959,0.699c6.431-0.008,11.638-5.227,11.631-11.658C219.413,482.756,216.347,478.388,211.747,476.718z
				"/>
			<path d="M374.749,256.095c0.045,0.027,0.09,0.054,0.135,0.08c5.531,3.279,12.672,1.454,15.953-4.076
				c3.843-6.401,8.205-12.477,13.042-18.165c4.148-4.92,3.522-12.27-1.397-16.418c-4.92-4.148-12.27-3.522-16.418,1.397
				c-5.652,6.638-10.754,13.725-15.254,21.193C367.481,245.609,369.246,252.768,374.749,256.095z"/>
			<path d="M152.598,0.004C152.247,0.001,151.897,0,151.546,0C67.943-0.002,0.168,67.77,0.166,151.372
				c0,0.351,0.001,0.701,0.004,1.052c0,123.895,151.376,243.482,151.376,243.482s151.376-119.587,151.376-243.482
				C303.501,68.823,236.198,0.582,152.598,0.004z M151.546,365.282c-20.819-18.443-40.277-38.368-58.221-59.619
				c-31.672-37.844-69.866-96.066-69.866-153.239c0-70.741,57.347-128.087,128.087-128.087s128.087,57.347,128.087,128.087
				C279.633,241.969,187.76,332.911,151.546,365.282z"/>
			<path d="M279.633,489.061c-8.035,0-15.953-1.048-23.289-1.979c-6.379-0.82-12.214,3.687-13.033,10.065
				c-0.003,0.022-0.006,0.044-0.008,0.065c-0.82,6.378,3.687,12.214,10.065,13.033c0.022,0.003,0.044,0.006,0.065,0.008
				c7.918,0.932,16.302,1.747,24.919,2.212h0.582c6.463,0.193,11.859-4.89,12.052-11.353
				C291.18,494.649,286.096,489.254,279.633,489.061z"/>
			<path d="M165.053,438.059c-0.952-2.309-1.579-4.738-1.863-7.219c0-6.431-5.213-11.644-11.644-11.644s-11.644,5.213-11.644,11.644
				c0.209,5.271,1.311,10.469,3.26,15.37c1.706,4.565,6.073,7.585,10.946,7.569c1.389,0.012,2.77-0.225,4.076-0.699
				c6.034-2.226,9.121-8.921,6.895-14.955C165.07,438.103,165.062,438.081,165.053,438.059z"/>
			<path d="M442.654,168.493c-6.521,4.658-13.158,9.781-19.795,15.138c-4.782,4.3-5.173,11.662-0.873,16.444
				c4,4.449,10.721,5.142,15.545,1.604c6.288-5.124,12.576-9.898,18.747-14.323c5.055-3.976,5.93-11.296,1.954-16.351
				C454.485,166.241,447.709,165.148,442.654,168.493z"/>
			<path d="M444.361,400.228c-0.143,0.032-0.285,0.066-0.427,0.103h0.349c-6.301,1.285-10.368,7.434-9.083,13.736
				c0,0.002,0.001,0.003,0.001,0.005c0.76,3.599,1.15,7.267,1.164,10.946c-0.004,2.853-0.277,5.699-0.815,8.5
				c-1.21,6.3,2.903,12.392,9.199,13.624h2.212c5.658,0.103,10.57-3.876,11.644-9.432c0.841-4.257,1.27-8.586,1.281-12.925
				c-0.007-5.282-0.554-10.549-1.63-15.72C456.86,402.787,450.639,398.831,444.361,400.228z"/>
			<path d="M349.383,486.033l0.117,0.233c-7.452,1.048-15.254,1.863-23.289,2.329c-6.431,0.193-11.488,5.563-11.295,11.994
				c0.193,6.431,5.563,11.488,11.994,11.295h0.815c8.617,0,17.001-1.397,24.919-2.562c6.431-0.9,10.914-6.844,10.014-13.275
				S355.814,485.133,349.383,486.033z"/>
			<path d="M510.889,140.547h0.349c-2.942-5.718-9.963-7.969-15.682-5.027c-0.013,0.007-0.026,0.013-0.038,0.02
				c0,0-3.959,2.096-10.596,5.822c-5.595,3.216-7.524,10.358-4.308,15.953c3.215,5.595,10.358,7.524,15.953,4.308l9.781-5.356
				C511.909,153.152,513.933,146.146,510.889,140.547z"/>
			<path d="M386.295,309.156h-0.116c-3.076-5.58-5.015-11.714-5.706-18.049c-0.675-6.431-6.436-11.097-12.867-10.422
				s-11.097,6.436-10.422,12.867c1.072,9.589,4.083,18.859,8.85,27.248c3.216,5.595,10.358,7.524,15.953,4.308
				C387.582,321.893,389.511,314.751,386.295,309.156z"/>
			<path d="M434.427,362.374c-0.195-0.282-0.403-0.555-0.623-0.818h-0.117c-5.216-6.792-10.855-13.248-16.884-19.33
				c-4.15-4.913-11.497-5.531-16.409-1.381c-4.913,4.15-5.531,11.497-1.381,16.41c0.385,0.456,0.805,0.882,1.256,1.274
				c5.354,5.391,10.371,11.108,15.021,17.117c3.665,5.285,10.92,6.598,16.204,2.933S438.092,367.659,434.427,362.374z"/>
			<path d="M413.722,464.383c-0.343,0.213-0.675,0.443-0.994,0.691l0.233-0.116c-5.98,4.09-12.382,7.526-19.097,10.247
				c-5.949,2.444-8.79,9.247-6.346,15.196c2.444,5.949,9.247,8.79,15.196,6.346c8.184-3.36,15.99-7.576,23.289-12.576
				c5.464-3.391,7.145-10.57,3.753-16.034S419.186,460.991,413.722,464.383z"/>
		</g>
	</g>
</g>
<g>
</g>
<g>
</g>
<g>
</g>
<g>
</g>
<g>
</g>
<g>
</g>
<g>
</g>
<g>
</g>
<g>
</g>
<g>
</g>
<g>
</g>
<g>
</g>
<g>
</g>
<g>
</g>
<g>
</g>
</svg>
