<?xml version="1.0" encoding="iso-8859-1"?>
<!-- Generator: Adobe Illustrator 19.0.0, SVG Export Plug-In . SVG Version: 6.00 Build 0)  -->
<svg version="1.1" id="Capa_1" xmlns="http://www.w3.org/2000/svg" xmlns:xlink="http://www.w3.org/1999/xlink" x="0px" y="0px"
	 viewBox="0 0 512 512" style="enable-background:new 0 0 512 512;" xml:space="preserve">
<g>
	<g>
		<g>
			<path d="M322.793,174.545c-3.542-7.354-8.621-13.862-14.895-19.084l0.116,0.116c-6.43-5.188-13.769-9.135-21.644-11.636
				c-8.44-2.83-17.28-4.284-26.182-4.305c-10.876-0.18-21.689,1.675-31.884,5.469c-8.971,3.454-17.131,8.722-23.971,15.476
				c-6.692,6.823-11.78,15.052-14.895,24.087c-3.419,9.957-5.111,20.425-5.004,30.953v2.909h26.065v-2.909
				c-0.26-7.281,0.684-14.554,2.793-21.527c1.871-6.173,4.957-11.909,9.076-16.873c4.137-5.029,9.399-9.015,15.36-11.636
				c6.855-2.84,14.225-4.227,21.644-4.073c5.676-0.038,11.313,0.948,16.64,2.909c5.021,1.831,9.672,4.551,13.731,8.029
				c3.884,3.431,7.015,7.631,9.193,12.335c2.41,5.049,3.643,10.58,3.607,16.175c-0.101,7.11-2.11,14.063-5.818,20.131
				c-3.876,6.463-8.701,12.308-14.313,17.338c-6.865,6.051-12.8,11.636-17.571,16.291c-4.588,4.629-8.504,9.878-11.636,15.593
				c-3.108,5.714-5.307,11.878-6.516,18.269c-1.735,8.419-2.516,17.006-2.327,25.6v2.793h25.833v-2.793
				c0-9.425,0.582-16.756,1.28-21.644c0.448-4.059,1.63-8.002,3.491-11.636c2.193-3.762,4.983-7.142,8.262-10.007
				c3.956-3.607,9.309-8.727,15.942-15.127c7.801-7.06,14.682-15.075,20.48-23.855c5.783-9.352,8.696-20.195,8.378-31.185
				C328.337,191.712,326.544,182.749,322.793,174.545z"/>
			<rect x="241.338" y="333.615" width="32.698" height="38.749"/>
			<path d="M256,0C114.615,0,0,114.615,0,256s114.615,256,256,256s256-114.615,256-256S397.385,0,256,0z M256,488.727
				C127.468,488.727,23.273,384.532,23.273,256S127.468,23.273,256,23.273S488.727,127.468,488.727,256S384.532,488.727,256,488.727
				z"/>
		</g>
	</g>
</g>
<g>
</g>
<g>
</g>
<g>
</g>
<g>
</g>
<g>
</g>
<g>
</g>
<g>
</g>
<g>
</g>
<g>
</g>
<g>
</g>
<g>
</g>
<g>
</g>
<g>
</g>
<g>
</g>
<g>
</g>
</svg>
