<?xml version="1.0" encoding="iso-8859-1"?>
<!-- Generator: Adobe Illustrator 19.0.0, SVG Export Plug-In . SVG Version: 6.00 Build 0)  -->
<svg version="1.1" id="Capa_1" xmlns="http://www.w3.org/2000/svg" xmlns:xlink="http://www.w3.org/1999/xlink" x="0px" y="0px"
	 viewBox="0 0 512 512" style="enable-background:new 0 0 512 512;" xml:space="preserve">
<g>
	<g>
		<g>
			<polygon points="349.091,174.545 325.818,174.545 325.818,209.455 290.909,209.455 290.909,232.727 325.818,232.727 
				325.818,267.636 349.091,267.636 349.091,232.727 384,232.727 384,209.455 349.091,209.455 			"/>
			<path d="M256,0C114.615,0,0,114.615,0,256s114.615,256,256,256s256-114.615,256-256S397.385,0,256,0z M256,488.727
				C127.468,488.727,23.273,384.532,23.273,256S127.468,23.273,256,23.273S488.727,127.468,488.727,256S384.532,488.727,256,488.727
				z"/>
			<path d="M256.931,265.425v0.116c-4.87-3.346-8.861-7.817-11.636-13.033c0-3.491,0-5.12,8.262-11.636
				c10.153-7.699,16.238-19.61,16.524-32.349c0.22-9.51-2.592-18.842-8.029-26.647h4.422l24.436-18.967h-66.56
				c-25.854-0.519-47.659,19.146-49.804,44.916c-0.585,24.028,18.419,43.982,42.448,44.567c0.008,0,0.017,0,0.025,0.001
				c-0.185,1.741-0.185,3.496,0,5.236c0.022,3.555,0.858,7.058,2.444,10.24c-31.185-0.233-56.553,20.364-56.553,44.218
				c0,21.411,24.436,37.004,58.182,37.004c36.422,0,56.087-23.273,56.087-44.218C278.187,289.003,270.413,273.857,256.931,265.425z
				 M202.473,207.127v0.233c-1.418-7.744,0.39-15.73,5.004-22.109c2.395-2.859,5.928-4.519,9.658-4.538v0.116
				c11.636,0,21.876,13.615,23.855,29.44c1.548,7.807-0.131,15.909-4.655,22.458c-2.437,2.936-6.076,4.605-9.891,4.538
				C215.389,236.684,204.451,223.069,202.473,207.127z M221.091,330.589c-14.9,1.486-28.184-9.388-29.67-24.288
				c-0.001-0.011-0.002-0.021-0.003-0.032c0-12.567,15.244-23.273,32.582-23.273c3.674,0.04,7.322,0.628,10.822,1.745l3.491,2.444
				c8.844,6.284,13.498,9.891,14.895,15.593c0.174,1.508,0.174,3.03,0,4.538C254.022,322.676,242.851,330.589,221.091,330.589z"/>
		</g>
	</g>
</g>
<g>
</g>
<g>
</g>
<g>
</g>
<g>
</g>
<g>
</g>
<g>
</g>
<g>
</g>
<g>
</g>
<g>
</g>
<g>
</g>
<g>
</g>
<g>
</g>
<g>
</g>
<g>
</g>
<g>
</g>
</svg>
