<?xml version="1.0" encoding="iso-8859-1"?>
<!-- Generator: Adobe Illustrator 19.0.0, SVG Export Plug-In . SVG Version: 6.00 Build 0)  -->
<svg version="1.1" id="Capa_1" xmlns="http://www.w3.org/2000/svg" xmlns:xlink="http://www.w3.org/1999/xlink" x="0px" y="0px"
	 viewBox="0 0 512 512" style="enable-background:new 0 0 512 512;" xml:space="preserve">
<g>
	<g>
		<g>
			<path d="M252.975,151.273l-14.895,1.862c-9.36,1.76-18.441,4.774-26.996,8.96c-19.525,10.272-34.869,27.015-43.404,47.36
				c-1.15,3.815-2.044,7.702-2.676,11.636c-6.522,23.169,1.897,47.963,21.178,62.371c2.909,1.745,9.658,5.004,11.636,0.698
				c0.911-2.64,1.536-5.371,1.862-8.146c1.122-2.33,1.755-4.864,1.862-7.447c-0.698-3.84-4.771-6.167-6.516-9.309
				c-2.869-6.333-4.678-13.095-5.353-20.015v-3.375c0.864-28.568,20.899-52.954,48.756-59.345
				c8.714-2.355,17.798-3.027,26.764-1.978l12.916,2.211c14.762,3.854,26.968,14.218,33.164,28.16
				c4.061,11.947,4.865,24.76,2.327,37.12c-1.28,5.353-1.047,10.007-2.676,14.895c-5.935,18.036-14.662,34.909-34.327,39.331
				c-10.696,2.795-21.804-2.784-25.949-13.033c-1.475-3.115-2.001-6.595-1.513-10.007c3.375-14.662,8.378-27.695,11.636-42.356
				c4.014-10.849-1.526-22.898-12.375-26.913c-0.56-0.207-1.129-0.391-1.705-0.549c-13.498-3.258-23.855,9.309-27.462,17.455
				c-3.372,8.625-4.18,18.04-2.327,27.113c1.964,3.937,3.374,8.127,4.189,12.451c-2.56,11.636-5.585,23.273-8.727,34.909
				c-3.142,11.636-5.12,23.273-8.378,34.909c-1.513,5.12-1.396,10.589-2.676,15.942v7.796c-0.806,6.168-0.53,12.429,0.815,18.502
				c0.698,3.142,0,6.982,1.164,9.309c-0.051,1.032,0.235,2.053,0.815,2.909c4.771,0,11.636-12.684,13.731-16.291
				c4.533-7.21,8.427-14.802,11.636-22.691c3.142-7.331,3.607-15.476,6.051-23.273c2.463-6.423,4.219-13.095,5.236-19.898
				c1.51,3.303,4.038,6.036,7.215,7.796c11.171,7.9,25.152,10.73,38.516,7.796c16.249-3.155,30.848-11.981,41.193-24.902
				c7.032-9.568,12.456-20.22,16.058-31.535c1.978-5.818,2.327-12.335,3.84-18.502c2.507-15.094,0.524-30.591-5.702-44.567
				C328.495,168.262,299.404,150.575,252.975,151.273z"/>
			<path d="M256,0C114.615,0,0,114.615,0,256s114.615,256,256,256s256-114.615,256-256S397.385,0,256,0z M256,488.727
				C127.468,488.727,23.273,384.532,23.273,256S127.468,23.273,256,23.273S488.727,127.468,488.727,256S384.532,488.727,256,488.727
				z"/>
		</g>
	</g>
</g>
<g>
</g>
<g>
</g>
<g>
</g>
<g>
</g>
<g>
</g>
<g>
</g>
<g>
</g>
<g>
</g>
<g>
</g>
<g>
</g>
<g>
</g>
<g>
</g>
<g>
</g>
<g>
</g>
<g>
</g>
</svg>
