<?xml version="1.0" encoding="iso-8859-1"?>
<!-- Generator: Adobe Illustrator 19.0.0, SVG Export Plug-In . SVG Version: 6.00 Build 0)  -->
<svg version="1.1" id="Capa_1" xmlns="http://www.w3.org/2000/svg" xmlns:xlink="http://www.w3.org/1999/xlink" x="0px" y="0px"
	 viewBox="0 0 422 422" style="enable-background:new 0 0 422 422;" xml:space="preserve">
<g>
	<g>
		<polygon points="58.161,7.363 58.161,75.13 90.928,41.246 		"/>
	</g>
</g>
<g>
	<g>
		<path d="M132.596,133.736c-8.703,0-15.784,7.081-15.784,15.784c0,6.955,4.526,12.861,10.784,14.959V149.52c0-2.761,2.239-5,5-5
			c2.761,0,5,2.239,5,5v14.959c6.258-2.098,10.784-8.004,10.784-14.959C148.38,140.816,141.299,133.736,132.596,133.736z"/>
	</g>
</g>
<g>
	<g>
		<path d="M289.402,133.736c-8.703,0-15.784,7.081-15.784,15.784c0,6.955,4.526,12.861,10.784,14.959V149.52c0-2.761,2.238-5,5-5
			c2.762,0,5,2.239,5,5v14.959c6.258-2.098,10.784-8.004,10.784-14.959C305.186,140.817,298.105,133.736,289.402,133.736z"/>
	</g>
</g>
<g>
	<g>
		<path d="M102.786,42.199c-0.031,0.159-0.084,0.312-0.13,0.467c-0.046,0.153-0.083,0.307-0.144,0.457
			c-0.063,0.154-0.148,0.299-0.227,0.448c-0.075,0.141-0.141,0.284-0.229,0.418c-0.095,0.145-0.213,0.276-0.325,0.412
			c-0.086,0.106-0.156,0.22-0.252,0.32L64.953,82.492h292.093l-36.527-37.771c-0.099-0.103-0.171-0.22-0.259-0.328
			c-0.109-0.133-0.226-0.262-0.318-0.403c-0.09-0.137-0.157-0.282-0.232-0.425c-0.078-0.147-0.162-0.29-0.224-0.443
			c-0.062-0.15-0.1-0.306-0.146-0.461c-0.045-0.154-0.098-0.306-0.129-0.463c-0.03-0.158-0.038-0.318-0.054-0.479
			c-0.015-0.159-0.037-0.316-0.037-0.475s0.022-0.316,0.037-0.475c0.016-0.161,0.023-0.32,0.054-0.479
			c0.031-0.157,0.084-0.309,0.129-0.463c0.046-0.155,0.084-0.311,0.146-0.461c0.062-0.153,0.146-0.296,0.224-0.443
			c0.075-0.143,0.143-0.288,0.232-0.425c0.093-0.141,0.209-0.27,0.318-0.403c0.088-0.108,0.16-0.226,0.259-0.328L357.045,0H64.952
			l36.526,37.771c0.099,0.101,0.171,0.219,0.259,0.327c0.109,0.133,0.225,0.262,0.318,0.403c0.09,0.137,0.158,0.283,0.233,0.426
			c0.077,0.146,0.161,0.29,0.223,0.441s0.1,0.307,0.146,0.461c0.045,0.154,0.098,0.306,0.129,0.463
			c0.03,0.159,0.039,0.318,0.054,0.479c0.015,0.158,0.038,0.315,0.038,0.474c0,0.161-0.022,0.319-0.038,0.479
			C102.824,41.883,102.817,42.041,102.786,42.199z"/>
	</g>
</g>
<g>
	<g>
		<polygon points="331.067,41.246 363.836,75.131 363.836,7.362 		"/>
	</g>
</g>
<g>
	<g>
		<polygon points="375.583,389.466 46.415,389.466 45.15,422 376.85,422 		"/>
	</g>
</g>
<g>
	<g>
		<path d="M364.03,92.49H57.969l-11.16,286.979h328.39L364.03,92.49z M294.4,174.81v29.12c0,45.99-37.41,83.4-83.4,83.4
			c-45.98,0-83.4-37.41-83.4-83.39v-29.13c-11.84-2.33-20.79-12.78-20.79-25.29c0-14.22,11.57-25.78,25.79-25.78
			c14.21,0,25.78,11.56,25.78,25.78c0,12.51-8.95,22.96-20.78,25.29v29.11c0,0,0,0,0,0.01c0,40.47,32.93,73.4,73.4,73.4
			c40.47,0,73.4-32.93,73.4-73.4v-29.12c-11.83-2.33-20.78-12.78-20.78-25.29c0-14.22,11.56-25.78,25.78-25.78
			c14.22,0,25.79,11.56,25.79,25.78C315.19,162.03,306.23,172.48,294.4,174.81z"/>
	</g>
</g>
<g>
</g>
<g>
</g>
<g>
</g>
<g>
</g>
<g>
</g>
<g>
</g>
<g>
</g>
<g>
</g>
<g>
</g>
<g>
</g>
<g>
</g>
<g>
</g>
<g>
</g>
<g>
</g>
<g>
</g>
</svg>
