<?xml version="1.0" encoding="iso-8859-1"?>
<!-- Generator: Adobe Illustrator 19.0.0, SVG Export Plug-In . SVG Version: 6.00 Build 0)  -->
<svg version="1.1" id="Capa_1" xmlns="http://www.w3.org/2000/svg" xmlns:xlink="http://www.w3.org/1999/xlink" x="0px" y="0px"
	 viewBox="0 0 512 512" style="enable-background:new 0 0 512 512;" xml:space="preserve">
<g>
	<g>
		<path d="M512,256l-35.003-59.222l0.74-68.815l-59.99-33.71l-33.71-59.99l-68.815,0.739L256,0l-59.222,35.003l-68.815-0.74
			l-33.71,59.991l-59.99,33.71l0.739,68.815L0,256l35.002,59.222l-0.74,68.815l59.99,33.71l33.71,59.99l68.816-0.739L256,512
			l59.222-35.002l68.815,0.739l33.71-59.989l59.99-33.71l-0.739-68.816L512,256z M182.38,111.624
			c22.934-11.716,47.702-17.657,73.62-17.657c25.917,0,50.686,5.94,73.62,17.657c21.86,11.168,41.227,27.471,56.006,47.147
			l-24.04,18.059c-25.204-33.551-63.688-52.794-105.586-52.794c-41.898,0-80.383,19.242-105.585,52.794l-24.04-18.059
			C141.155,139.095,160.521,122.792,182.38,111.624z M261.77,244.905v20.957h-36.49v11.342h43.147v21.943H196.68v-86.294h70.145
			v21.943H225.28v10.109H261.77z M100.032,212.854h23.916l32.792,39.202v-39.202h28.354v86.294h-23.916l-32.792-39.202v39.202
			h-28.354V212.854z M329.619,400.376c-22.933,11.716-47.702,17.657-73.62,17.657c-25.917,0-50.687-5.94-73.62-17.657
			c-21.86-11.168-41.226-27.471-56.006-47.147l24.042-18.059c25.202,33.552,63.685,52.795,105.585,52.795
			c41.898,0,80.382-19.243,105.585-52.795l24.04,18.059C370.845,372.905,351.479,389.208,329.619,400.376z M388.746,299.148h-31.189
			v0l-13.93-46.106l-14.67,46.106h-31.189l-27.614-86.294h29.956l15.04,49.064l15.903-49.064h26.751l15.04,49.681l15.903-49.681
			h27.614L388.746,299.148z"/>
	</g>
</g>
<g>
</g>
<g>
</g>
<g>
</g>
<g>
</g>
<g>
</g>
<g>
</g>
<g>
</g>
<g>
</g>
<g>
</g>
<g>
</g>
<g>
</g>
<g>
</g>
<g>
</g>
<g>
</g>
<g>
</g>
</svg>
