<?xml version="1.0"?>
<svg xmlns="http://www.w3.org/2000/svg" id="Layer_2" data-name="Layer 2" viewBox="0 0 64 64" width="512" height="512"><path d="M27.4,15.49,11.51,43a5,5,0,0,0,1.83,6.83L28.5,58.59A6.94,6.94,0,0,1,28,56V24.23a11,11,0,0,1,3.08-7.64L37.46,10,32.7,11.34A9,9,0,0,0,27.4,15.49Z"/><path d="M4.85,33.58a5,5,0,0,0,0,7.07l4,4A7,7,0,0,1,9.78,42C12.11,38,22.41,20.13,28,10.53,27.33,11.05,28.55,9.9,4.85,33.58Z"/><path d="M43.71,39H44V35h-.29a2,2,0,0,0,0,4Z"/><path d="M51,2.87a13.63,13.63,0,0,1-2.94,6.4,5,5,0,0,0-7.17,0L32.52,18A9,9,0,0,0,30,24.23V56a5,5,0,0,0,5,5H54a5,5,0,0,0,5-5V24.23A9,9,0,0,0,56.48,18l-5.61-5.82a13,13,0,0,1-4.49,3.17,2,2,0,1,1-1.88-2.67,2,2,0,0,1,1.47.66,10.36,10.36,0,0,0,1.75-1h0a14.06,14.06,0,0,0,1.76-1.57h0A15.22,15.22,0,0,0,53,3.12ZM43.71,33H44V30.57h2V33h.29a4,4,0,0,1,4,4h-2a2,2,0,0,0-2-2H46v4h.29a4,4,0,0,1,0,8H46v2.43H44V47h-.29a4,4,0,0,1-4-4h2a2,2,0,0,0,2,2H44V41h-.29a4,4,0,0,1,0-8Z"/><path d="M48.29,43a2,2,0,0,0-2-2H46v4h.29A2,2,0,0,0,48.29,43Z"/></svg>
