<svg aria-hidden="true" style="position: absolute; width: 0; height: 0; overflow: hidden;" version="1.1" xmlns="http://www.w3.org/2000/svg" xmlns:xlink="http://www.w3.org/1999/xlink">
<defs>
<symbol id="i-locals-basketball-basket" viewBox="0 0 32 32">
<title>basketball-basket</title>
<path d="M12.288 13.312h7.488v5.312h-7.488v-5.312z"></path>
<path d="M10.112 11.2v7.488h1.088v-5.888c0-0.32 0.256-0.512 0.512-0.512h8.512c0.32 0 0.512 0.256 0.512 0.512v5.888h1.088v-7.488h-11.712z"></path>
<path d="M31.488 0h-30.976c-0.256 0-0.512 0.256-0.512 0.512v23.488c0 0.32 0.256 0.512 0.512 0.512h10.56c0.64 1.472 1.216 3.584 1.216 6.4 0 0.192 0.064 0.32 0.192 0.448s0.32 0.128 0.512 0.064l1.344-0.448 1.408 0.896c0.064 0.128 0.128 0.128 0.256 0.128s0.192 0 0.32-0.064l1.408-0.896 1.344 0.448c0.192 0.064 0.32 0 0.512-0.064 0.128-0.128 0.192-0.256 0.192-0.448 0-2.816 0.576-4.928 1.216-6.4h10.56c0.32 0 0.512-0.256 0.512-0.512v-23.552c-0.064-0.256-0.32-0.512-0.576-0.512zM11.776 23.552c-0.32-0.704-0.704-1.28-1.024-1.664h1.792c-0.064 0.576-0.384 1.152-0.768 1.664zM12.672 25.536c-0.064-0.128-0.128-0.256-0.192-0.384-0.064-0.192-0.128-0.384-0.192-0.576 0.32-0.384 0.64-0.832 0.896-1.28 0.128 0.512 0.384 0.96 0.64 1.472-0.384 0.32-0.704 0.576-1.152 0.768zM16.832 26.624c0.256-0.256 0.512-0.576 0.768-0.896 0.32 0.256 0.704 0.512 1.088 0.704-0.192 0.256-0.448 0.512-0.64 0.768-0.448-0.128-0.832-0.32-1.216-0.576zM17.216 28.032c-0.384 0.32-0.768 0.64-1.216 0.896-0.448-0.256-0.832-0.576-1.216-0.896 0.448-0.192 0.832-0.448 1.216-0.704 0.384 0.256 0.768 0.512 1.216 0.704zM17.472 23.936c-0.448-0.64-0.704-1.344-0.832-2.112h1.472c-0.128 0.768-0.32 1.472-0.64 2.112zM16.832 24.96c-0.256 0.384-0.576 0.704-0.832 0.96-0.32-0.32-0.576-0.64-0.832-0.96 0.32-0.448 0.64-0.896 0.832-1.408 0.192 0.512 0.512 0.96 0.832 1.408zM14.528 23.936c-0.32-0.64-0.512-1.344-0.64-2.112h1.472c-0.128 0.832-0.384 1.536-0.832 2.112zM14.4 25.728c0.256 0.32 0.512 0.576 0.768 0.896-0.384 0.256-0.768 0.448-1.216 0.64-0.256-0.256-0.448-0.512-0.64-0.768 0.384-0.256 0.768-0.512 1.088-0.768zM13.952 30.016l-0.576 0.192c0-0.576-0.064-1.088-0.128-1.6 0.128-0.064 0.32-0.064 0.448-0.128 0.384 0.384 0.832 0.768 1.28 1.088-0.32 0.128-0.704 0.32-1.024 0.448zM16 30.848l-0.512-0.32c0.192-0.064 0.384-0.192 0.512-0.256 0.192 0.128 0.32 0.192 0.512 0.256l-0.512 0.32zM18.688 30.208l-0.576-0.192c-0.384-0.128-0.704-0.32-1.024-0.448 0.448-0.32 0.896-0.704 1.28-1.088 0.128 0.064 0.32 0.064 0.448 0.128-0.064 0.512-0.128 1.024-0.128 1.6zM19.52 25.216c-0.064 0.128-0.128 0.256-0.192 0.384-0.384-0.192-0.768-0.448-1.088-0.768 0.256-0.448 0.448-0.96 0.64-1.472 0.256 0.448 0.512 0.896 0.896 1.28-0.128 0.192-0.192 0.384-0.256 0.576zM20.224 23.552c-0.384-0.512-0.64-1.088-0.832-1.664h1.792c-0.256 0.384-0.64 0.96-0.96 1.664zM29.312 22.4h-7.168c0.32-0.448 0.576-0.64 0.576-0.64 0.192-0.128 0.256-0.384 0.128-0.576-0.064-0.192-0.256-0.32-0.512-0.32h-12.736c-0.192 0-0.448 0.128-0.512 0.32s0 0.448 0.128 0.576c0 0 0.256 0.192 0.576 0.64h-7.104c-0.32 0-0.512-0.256-0.512-0.512v-19.2c0-0.32 0.256-0.512 0.512-0.512h26.688c0.32 0 0.512 0.256 0.512 0.512v19.2c0 0.256-0.256 0.512-0.576 0.512z"></path>
<path d="M3.2 3.2v18.112h4.8v-2.112c0-0.32 0.256-0.512 0.512-0.512h0.512v-8c0-0.32 0.256-0.512 0.512-0.512h12.8c0.32 0 0.512 0.256 0.512 0.512v8h0.512c0.32 0 0.512 0.256 0.512 0.512v2.112h4.928v-18.112h-25.6z"></path>
</symbol>
<symbol id="i-locals-beer" viewBox="0 0 32 32">
<title>beer</title>
<path d="M24.896 11.648h-2.24v2.56h2.24c0.896 0 1.664 0.768 1.664 1.664v7.168c0 0.896-0.704 1.664-1.664 1.664h-2.24v2.56h2.24c2.304 0 4.16-1.92 4.16-4.224v-7.168c0.064-2.304-1.856-4.224-4.16-4.224z"></path>
<path d="M18.496 8.704c-0.896 1.408-2.432 2.496-4.288 2.688-0.192 0-0.448 0-0.64 0-1.408 0-2.752-0.512-3.776-1.408-0.384-0.384-0.768-0.832-0.96-1.28h-5.248v21.76c0 0.832 0.704 1.536 1.536 1.536h14.912c0.832 0 1.472-0.704 1.472-1.536v-21.76h-3.008zM8.32 28.544c0 0.32-0.256 0.576-0.576 0.576s-0.576-0.256-0.576-0.576v-10.432c0-0.32 0.256-0.576 0.576-0.576s0.576 0.256 0.576 0.576v10.432zM13.184 28.544c0 0.32-0.256 0.576-0.576 0.576s-0.576-0.256-0.576-0.576v-9.408c0-0.32 0.256-0.576 0.576-0.576s0.576 0.256 0.576 0.576v9.408zM17.728 28.544c0 0.32-0.256 0.576-0.576 0.576s-0.576-0.256-0.576-0.576v-10.432c0-0.32 0.256-0.576 0.576-0.576s0.576 0.256 0.576 0.576v10.432z"></path>
<path d="M18.368 2.368c-0.96 0-1.856 0.32-2.496 0.96-0.128 0.128-0.384 0.192-0.576 0.128s-0.32-0.192-0.384-0.384c-0.64-1.856-2.368-3.072-4.288-3.072-2.048 0-3.84 1.344-4.352 3.328-0.064 0.256-0.384 0.448-0.64 0.448-0.128 0-0.192 0-0.32 0-1.28 0-2.304 1.088-2.304 2.368 0 0.512 0.192 1.024 0.448 1.408h5.056c-0.064-0.256-0.064-0.448-0.064-0.704 0-0.32 0.256-0.64 0.576-0.64s0.576 0.256 0.64 0.576c0 0.896 0.384 1.728 1.088 2.304 0.96 0.832 2.24 1.28 3.52 1.088 2.048-0.192 3.648-1.792 3.968-3.776 0.064-0.32 0.384-0.512 0.704-0.512 0.32 0.064 0.512 0.384 0.512 0.704-0.064 0.32-0.128 0.576-0.192 0.896h2.752c0.192-0.512 0.256-0.96 0.256-1.408-0.192-2.048-1.856-3.712-3.904-3.712z"></path>
</symbol>
<symbol id="i-locals-bread-croissant" viewBox="0 0 32 32">
<title>bread-croissant</title>
<path d="M27.264 0.64c-0.448-0.448-1.024-0.64-1.856-0.64-2.112 0-5.376 1.536-9.088 4.352-3.968 2.816-9.152 8.512-10.56 10.368-4.288 5.504-5.888 9.984-4.224 11.648 0.448 0.448 1.024 0.64 1.856 0.64v0c3.328 0 9.344-3.84 15.040-9.472 3.456-3.456 6.272-7.104 7.936-10.24 1.664-3.2 1.984-5.568 0.896-6.656zM9.984 19.328c-0.96-0.32-2.048-0.896-3.2-1.6-0.512-0.32-1.024-0.64-1.472-1.024 0.32-0.448 0.64-0.832 0.96-1.28 0.512 0.256 1.024 0.512 1.472 0.832 1.152 0.704 2.176 1.536 2.816 2.24 0.704 0.704 0.768 1.024 0.768 1.088-0.064 0-0.384 0.064-1.344-0.256zM17.408 13.312c0 0-0.128 0.064-0.384 0.064s-0.704-0.064-1.536-0.32c-1.28-0.448-2.816-1.152-4.352-2.176-0.192-0.128-0.448-0.256-0.64-0.448 0.64-0.64 1.28-1.28 1.92-1.856 0.064 0 0.128 0.064 0.128 0.064 1.536 0.96 2.88 2.048 3.84 2.944 0.896 1.088 1.088 1.664 1.024 1.728zM21.888 6.464c0 0-0.064 0.064-0.256 0.064s-0.512-0.064-1.088-0.256c-0.96-0.32-2.048-0.896-3.2-1.6 0 0-0.064 0-0.064-0.064 0.512-0.384 1.088-0.768 1.6-1.088 2.24 1.6 3.072 2.816 3.008 2.944z"></path>
<path d="M26.88 30.272v0 0c0.128-0.064 2.56-1.856 3.264-3.712l-7.808-5.504-2.432 1.728 2.368 9.216c2.048 0 4.544-1.6 4.608-1.728z"></path>
<path d="M23.36 20.416l6.592 4.608c0.64-1.024 0.96-2.112 1.152-2.88 0.128-0.512 0-1.088-0.32-1.472-0.064-0.064-0.128-0.192-0.192-0.256l-6.656-1.024-0.576 1.024z"></path>
<path d="M17.856 31.296c0.768 0.128 1.856 0.192 3.072 0l-1.984-7.808-1.088 0.128-1.408 6.592c0.064 0.064 0.064 0.192 0.128 0.256 0.256 0.448 0.704 0.704 1.28 0.832z"></path>
<path d="M14.656 28.992c0.256 0.192 0.512 0.32 0.768 0.384l1.088-4.928c-1.024-0.064-1.984-0.32-2.56-0.576-0.384-0.128-0.832-0.064-1.152 0.128 0 0-0.064 0.064-0.064 0.064-0.384 0.256-0.512 0.704-0.448 1.152 0.128 1.536 0.96 2.88 2.368 3.776z"></path>
<path d="M30.144 19.2c0-0.256-0.064-0.512-0.128-0.832-0.32-1.6-1.28-2.88-2.688-3.648-0.384-0.192-0.832-0.192-1.216 0.064 0 0-0.064 0.064-0.064 0.064-0.32 0.256-0.576 0.64-0.576 1.024 0 0.64-0.064 1.664-0.384 2.624l5.056 0.704z"></path>
</symbol>
<symbol id="i-locals-butcher-shop" viewBox="0 0 32 32">
<title>butcher-shop</title>
<path d="M7.488 9.024v2.432c0 0.192 0.192 0.384 0.384 0.384h1.152c0.192 0 0.384-0.192 0.384-0.384v-2.432c-0.32 0.128-0.64 0.192-0.96 0.192s-0.64-0.128-0.96-0.192z"></path>
<path d="M14.528 2.24c-0.192 0.128-0.32 0.32-0.384 0.512-0.192 0.448-0.64 0.64-1.024 0.64 0 0 0 0 0 0h4.352c0.064 0.064 0.192 0.064 0.256 0.064 0 0 0 0 0 0 0.128 0 0.192-0.064 0.256-0.064h1.472c0.192-0.064 0.448-0.128 0.64-0.064 0.064 0 0.064 0.064 0.128 0.064h0.128c-0.064-0.064-0.192-0.064-0.256-0.128-0.32-0.256-0.512-0.704-0.384-1.088h-1.6c-0.256-0.832-0.704-1.28-1.152-1.472-0.256-0.128-0.576-0.064-0.704 0.256-0.128 0.256-0.064 0.576 0.256 0.704 0.192 0.064 0.384 0.256 0.512 0.512h-0.64c-0.064 0-0.064-0.064-0.128-0.064-0.32-0.192-0.512-0.512-0.576-0.832-0.128 0.384-0.384 0.64-0.768 0.704-0.128 0.128-0.256 0.192-0.384 0.256z"></path>
<path d="M11.008 3.392h1.6c0.064 0 0.128-0.064 0.192-0.064 0 0 0.064 0 0.064 0-0.064 0-0.064 0-0.128-0.064-0.448-0.192-0.704-0.64-0.64-1.088h-2.56c0.576 0.256 1.088 0.704 1.472 1.216z"></path>
<path d="M7.36 2.24h-6.784c-0.32 0-0.576 0.256-0.576 0.576s0.256 0.576 0.576 0.576h5.312c0.384-0.512 0.896-0.96 1.472-1.152z"></path>
<path d="M6.016 5.632c0 1.536 1.088 2.816 2.432 2.816s2.432-1.28 2.432-2.816c0-1.536-1.088-2.816-2.432-2.816s-2.432 1.216-2.432 2.816z"></path>
<path d="M10.688 9.408c0 0-0.192 0-0.448 0v6.656h1.408v-2.112l0.832 1.216c0.192 0.32 0.576 0.512 0.96 0.512 0.064 0 0.064 0 0.128 0l2.688-0.32c0.64-0.064 1.088-0.64 1.024-1.28s-0.64-1.088-1.28-1.024l-1.984 0.256-2.24-3.328c-0.32-0.448-0.704-0.576-1.088-0.576z"></path>
<path d="M25.536 7.488c0.256 0 0.448-0.192 0.512-0.384 0 0 0.128-0.448 0.192-1.152 0-0.32-0.192-0.576-0.512-0.576-0.256 0-0.576 0.192-0.576 0.512-0.064 0.576-0.128 0.96-0.128 0.96-0.064 0.256 0.128 0.576 0.384 0.64 0 0 0.064 0 0.128 0z"></path>
<path d="M19.52 7.040c0.256 0 0.512-0.256 0.512-0.512 0-0.704 0.128-1.408 0.32-2.048 0.064-0.256-0.064-0.576-0.384-0.64s-0.576 0.064-0.64 0.384c-0.192 0.704-0.32 1.472-0.32 2.24-0.064 0.32 0.192 0.576 0.512 0.576 0 0 0 0 0 0z"></path>
<path d="M20.736 2.944c0.192 0 0.32-0.064 0.448-0.192 0.384-0.512 0.896-0.832 1.408-0.896 0.256 0 0.448-0.256 0.448-0.576s-0.256-0.512-0.576-0.512c-0.832 0.064-1.6 0.512-2.176 1.28-0.192 0.256-0.128 0.576 0.128 0.768 0.064 0.128 0.192 0.128 0.32 0.128z"></path>
<path d="M20.224 11.328c0.064 0 0.128 0 0.256-0.064 0.256-0.128 0.384-0.448 0.256-0.704-0.256-0.512-0.448-1.216-0.576-1.92-0.064-0.32-0.32-0.512-0.64-0.448s-0.512 0.32-0.448 0.64c0.128 0.832 0.32 1.6 0.64 2.24 0.128 0.128 0.32 0.256 0.512 0.256z"></path>
<path d="M17.6 4.544c-0.256-0.064-0.576 0.064-0.64 0.384-0.192 0.576-0.448 1.216-0.768 1.92-0.128 0.256 0 0.576 0.256 0.704 0.064 0.064 0.128 0.064 0.192 0.064 0.192 0 0.384-0.128 0.512-0.32 0.32-0.704 0.576-1.408 0.768-2.048 0.128-0.32-0.064-0.576-0.32-0.704z"></path>
<path d="M12.992 8.768c0.32 1.216 0.64 2.048 0.64 2.112 0.064 0.192 0.256 0.32 0.512 0.32 0.064 0 0.128 0 0.192-0.064 0.256-0.128 0.384-0.384 0.32-0.704 0 0-0.32-0.832-0.64-1.984-0.064-0.256-0.384-0.448-0.64-0.384-0.32 0.128-0.512 0.448-0.384 0.704z"></path>
<path d="M12.8 3.904c0 0 0 0 0 0-0.32 0-0.512 0.256-0.512 0.512 0 0.64 0.064 1.408 0.192 2.24 0.064 0.256 0.256 0.448 0.512 0.448 0 0 0.064 0 0.064 0 0.32-0.064 0.512-0.32 0.448-0.64-0.128-0.768-0.192-1.408-0.192-2.048 0-0.256-0.256-0.512-0.512-0.512z"></path>
<path d="M12.928 2.816c0.064 0 0.128 0.064 0.192 0.064 0.192 0 0.384-0.128 0.512-0.32 0.256-0.576 0.64-0.896 1.152-1.024 0.256-0.064 0.448-0.384 0.384-0.64s-0.32-0.448-0.64-0.384c-0.896 0.192-1.536 0.768-1.92 1.664-0.064 0.256 0.064 0.576 0.32 0.64z"></path>
<path d="M29.056 17.536h-17.472v-0.704h-1.024v0.704h-4.16v-0.704h-1.088v0.704h-1.792c-0.128 0-0.192 0-0.256 0 0.064-0.064 0.128-0.128 0.192-0.192l1.984-3.2v1.856h1.344v-6.592c-0.256 0-0.448 0-0.448 0-0.448 0-0.832 0.192-1.088 0.512l-3.84 6.208c-0.32 0.576-0.192 1.28 0.384 1.6 0.128 0.128 0.32 0.192 0.512 0.192-0.512 0.384-0.896 0.96-0.896 1.664v11.648c0 0.256 0.192 0.448 0.448 0.448h1.344c0.256 0 0.448-0.192 0.448-0.448v-5.76h1.6v3.968c0 0.768 0.64 1.408 1.408 1.408s1.408-0.64 1.408-1.408v-3.904h0.576v3.904c0 0.768 0.64 1.408 1.408 1.408s1.408-0.64 1.408-1.408v-3.968h17.28v5.76c0 0.256 0.192 0.448 0.448 0.448h1.344c0.256 0 0.448-0.192 0.448-0.448v-11.648c0.128-1.088-0.768-2.048-1.92-2.048z"></path>
<path d="M26.944 11.712h-0.128c-1.664 0-3.008 0.704-3.008 1.536 0 0.896 1.408 1.664 3.072 1.664h0.128c1.664 0 3.008-0.704 3.008-1.536 0-0.896-1.408-1.664-3.072-1.664zM27.52 14.464c-0.576 0-1.024-0.256-1.024-0.64 0-0.32 0.512-0.576 1.088-0.576s1.024 0.256 1.024 0.64c0 0.384-0.512 0.64-1.088 0.576z"></path>
<path d="M30.72 3.392h0.704c0.32 0 0.576-0.256 0.576-0.576s-0.256-0.576-0.576-0.576h-1.088c0.064-0.768 0.256-0.896 0.256-0.896 0.064 0 0.128 0 0.192 0.064 0.256 0.128 0.576 0.128 0.704-0.128 0.192-0.256 0.128-0.576-0.128-0.768s-0.832-0.384-1.344-0.064c-0.448 0.256-0.768 0.896-0.832 1.792h-3.776c-0.192-0.256-0.384-0.512-0.64-0.768-0.128-0.192-0.448-0.128-0.64 0.128-0.128 0.192-0.128 0.448 0 0.64h-0.576c-0.064-0.128-0.064-0.32-0.064-0.448-0.064 0.192-0.192 0.384-0.384 0.448-0.128 0.128-0.32 0.192-0.512 0.192-0.128 0-0.576 0.064-1.024 0.64-0.128 0.192-0.32 0.256-0.512 0.32h3.904c0 0.192 0.064 0.32 0.128 0.448 0.064 0.256 0.256 0.448 0.512 0.448 0.064 0 0.064 0 0.128 0 0.256-0.064 0.448-0.32 0.384-0.64 0-0.064-0.064-0.128-0.064-0.192h2.944c-0.192 1.664-0.96 3.904-3.52 5.952-0.832 0.64-1.728 1.472-2.368 2.24-0.128 0.128-0.256 0.32-0.32 0.448-0.064 0-0.064 0-0.128 0-0.256 0-0.512-0.064-0.768-0.192s-0.576-0.064-0.704 0.256c-0.128 0.256-0.064 0.576 0.256 0.704 0.256 0.128 0.576 0.192 0.896 0.256-0.064 0.192-0.064 0.384-0.064 0.512 0 1.088 1.088 2.048 4.096 2.624 7.040 1.408 5.504-6.4 5.504-6.4s-0.768-5.504-1.152-6.464zM27.008 15.424h-0.128c-2.048-0.064-3.584-1.024-3.584-2.176s1.6-2.048 3.52-2.048h0.128c2.048 0.064 3.584 1.024 3.584 2.176s-1.6 2.048-3.52 2.048z"></path>
</symbol>
<symbol id="i-locals-cocktail" viewBox="0 0 32 32">
<title>cocktail</title>
<path d="M25.92 9.664c0 0 0-0.064-0.064-0.064-0.064-0.064-0.128-0.192-0.256-0.192 0 0 0 0 0 0s0 0 0 0c-0.064 0-0.192-0.064-0.256-0.064 0 0-0.064 0-0.064 0-0.064 0-0.128 0-0.192 0.064-0.064 0-0.128 0.064-0.192 0.064 0 0-0.064 0-0.064 0l-0.256 0.256c-0.064 0-0.128 0.064-0.192 0.064s-0.128 0.064-0.256 0.064c-0.128 0-0.256 0.064-0.384 0.064s-0.192 0.064-0.32 0.064c-0.128 0-0.32 0.064-0.512 0.064-0.128 0-0.256 0.064-0.448 0.064s-0.448 0.064-0.64 0.064c-0.192 0-0.32 0.064-0.512 0.064-0.256 0-0.512 0.064-0.768 0.064-0.192 0-0.384 0.064-0.576 0.064-0.32 0-0.64 0.064-0.96 0.064-0.192 0-0.384 0-0.64 0.064-0.384 0-0.768 0-1.216 0.064-0.192 0-0.384 0-0.576 0-0.64 0-1.28 0-1.984 0-0.64 0-1.216 0-1.792 0-0.192 0-0.384 0-0.512 0s-0.32 0-0.448 0l-0.832-1.216c1.088-0.064 2.304-0.064 3.584-0.064h2.688c0.384 0 0.64-0.32 0.64-0.64s-0.32-0.64-0.64-0.64h-2.688c-1.472 0-3.072 0-4.544 0.128l-2.176-3.072 5.76-3.84c0.256-0.192 0.384-0.448 0.256-0.768-0.064-0.256-0.32-0.448-0.64-0.448h-9.216c-0.256 0-0.512 0.192-0.64 0.448l-2.688 8c-0.064 0.256 0 0.576 0.256 0.768 0.128 0.064 0.256 0.128 0.384 0.128s0.256-0.064 0.384-0.128l5.12-3.456 1.728 2.432c-2.496 0.192-4.544 0.64-5.056 1.344 0 0-0.064 0.064-0.064 0.064-0.064 0.128-0.128 0.192-0.128 0.32s0.064 0.192 0.064 0.32c0 0 0.064 0.064 0.064 0.064 0.064 0.064 0.064 0.128 0.192 0.192 0 0 0 0 0 0l10.304 10.304v7.104c-5.312 0.64-5.312 1.472-5.312 1.92 0 1.92 4.992 1.984 6.016 1.984s6.016-0.128 6.016-1.984c0-0.512 0-1.28-5.312-1.92v-6.976l10.304-10.304c0 0 0 0 0 0 0.064-0.064 0.128-0.128 0.192-0.192 0 0 0.064-0.064 0.064-0.064 0.064-0.128 0.064-0.192 0.064-0.32 0-0.192 0-0.256-0.064-0.384zM9.728 10.496c-0.192 0-0.32 0-0.512-0.064-0.32 0-0.576-0.064-0.896-0.064-0.128 0-0.256 0-0.384-0.064-0.384-0.064-0.768-0.064-1.088-0.128-0.064 0-0.128 0-0.192 0-0.256-0.064-0.512-0.064-0.704-0.128-0.064 0-0.192 0-0.256-0.064-0.128 0-0.192-0.064-0.32-0.064 0.832-0.192 2.24-0.384 4.032-0.512l0.768 1.024c-0.128 0.128-0.256 0.064-0.448 0.064z"></path>
<path d="M25.344 3.968c-3.008 0-5.632 2.432-6.016 5.312 2.368-0.128 4.032-0.512 4.672-0.64 0.384-0.384 0.768-0.64 1.344-0.64 0.256 0 0.512 0.064 0.768 0.128 0.768 0.32 1.216 1.024 1.216 1.856 0 0.64-0.32 1.216-0.832 1.664l-2.752 2.752-0.128 0.64c-0.064 0.192 0 0.384 0.064 0.512 0.128 0.128 0.256 0.256 0.448 0.256 0.384 0.064 0.832 0.128 1.216 0.128 3.328 0 6.016-2.688 6.016-6.016s-2.688-5.952-6.016-5.952z"></path>
</symbol>
<symbol id="i-locals-forest" viewBox="0 0 32 32">
<title>forest</title>
<path d="M30.848 18.496c-0.32 0-0.64 0-1.024 0-0.704 0-1.536 0.064-2.496 0.128l-0.064-3.648c0.384 0.128 0.768 0.192 1.216 0.192 1.984 0 3.584-1.6 3.584-3.584 0-1.152-0.512-2.176-1.408-2.816 0-0.192 0.064-0.32 0.064-0.512 0-1.344-0.832-2.496-2.112-2.944 0.128-0.32 0.192-0.704 0.192-1.088 0-1.728-1.408-3.072-3.072-3.072s-3.072 1.408-3.072 3.072c0 0 0 0.064 0 0.064-1.6 0.192-2.816 1.536-2.816 3.072 0 0.768 0.32 1.536 0.832 2.048-0.704 0.64-1.088 1.6-1.088 2.56 0 1.984 1.6 3.584 3.584 3.584 0.448 0 0.832-0.064 1.216-0.192l-0.064 3.712c-1.92 0.384-4.16 0.96-6.72 1.92-5.248 1.92-9.408 4.288-11.456 5.504-1.408 0.832-2.56 1.664-3.456 2.368-1.28 1.024-1.344 1.344-1.28 1.6 0.064 0.192 0.192 0.384 0.512 0.384h28.8c0 0 0.064 0 0.128 0 0.192 0 0.448 0 0.768-0.256 0.192-0.192 0.512-0.512 0.512-1.152v-9.792c-0.128-0.512-0.32-1.088-1.28-1.152z"></path>
<path d="M15.936 19.264c0.192-0.064 0.32-0.256 0.32-0.448s-0.064-0.32-0.192-0.448c-1.664-1.024-4.16-1.92-6.72-2.56l-0.064-3.072c0.256 0.064 0.512 0.128 0.832 0.128 1.536 0 2.752-1.216 2.752-2.752 0-0.832-0.384-1.664-1.088-2.176 0-0.128 0-0.256 0-0.384 0-1.024-0.64-1.856-1.536-2.24 0.064-0.256 0.128-0.512 0.128-0.768 0-1.344-1.088-2.368-2.368-2.368-1.344 0-2.368 1.088-2.368 2.368-1.152 0.256-2.048 1.216-2.048 2.432 0 0.576 0.192 1.088 0.576 1.536-0.512 0.512-0.768 1.216-0.768 1.92 0 1.536 1.216 2.752 2.752 2.752 0.256 0 0.576-0.064 0.832-0.128l-0.064 2.24c-1.472-0.256-2.88-0.448-3.968-0.448-1.92 0-2.88 0.448-2.88 1.344v10.816c0 0.448 0.256 0.64 0.512 0.64 0.192 0 0.384-0.128 0.384-0.128 0.128-0.128 0.256-0.192 0.384-0.256 0.96-0.768 2.176-1.6 3.648-2.496 1.856-1.28 5.888-3.584 10.944-5.504z"></path>
</symbol>
<symbol id="i-locals-fruits" viewBox="0 0 32 32">
<title>fruits</title>
<path d="M16.448 18.048c0.064-0.448 0.256-0.896 0.512-1.28 0.192-0.32 0.512-0.576 0.768-0.768-0.064-0.128-0.064-0.256-0.064-0.384-0.128-0.832 0.064-1.6 0.512-2.24-0.64-0.448-1.088-1.152-1.216-1.984-0.064-0.512 0-1.024 0.128-1.536 0 0 0 0 0 0-2.944-2.56-5.44-1.408-6.72-0.704-0.64 0.384-1.152 0.512-1.472 0.576-0.32 0-0.832 0.064-1.536-0.128-1.408-0.256-4.16-0.512-6.144 2.816-0.704 1.152-0.448 3.328 0.384 5.568l14.848 0.064zM4.864 11.776c0.896-0.512 1.728 0.896 0.832 1.408-1.408 0.768-1.6 2.176-0.576 3.392 0.64 0.832-0.512 1.984-1.152 1.152-1.664-1.984-1.536-4.608 0.896-5.952z"></path>
<path d="M4.544 2.88c-0.768-0.512-1.344 0.768-0.576 1.216 2.112 1.344 3.648 1.984 4.096 4.608 0.128 0.896 1.536 0.768 1.344-0.128-0.064-0.256-0.128-0.576-0.192-0.832-0.448-0.128-0.96-0.512-1.28-1.472-0.128-0.384-0.128-0.704-0.128-1.024-0.832-0.832-1.92-1.536-3.264-2.368z"></path>
<path d="M19.648 18.048c-0.448-0.192-0.896-0.448-1.216-0.832-0.128-0.192-0.256-0.32-0.384-0.576-0.192 0.128-0.384 0.32-0.512 0.512-0.192 0.256-0.32 0.576-0.384 0.896h2.496z"></path>
<path d="M22.208 18.048c0 0 0-0.064 0-0.064-0.064 0-0.064 0.064-0.128 0.064h0.128z"></path>
<path d="M21.696 13.632c-0.32 0.192-0.704 0.384-1.152 0.448-0.192 0-0.32 0.064-0.512 0.064-0.448 0-0.896-0.128-1.344-0.32-0.064 0.128-0.128 0.192-0.192 0.32-0.192 0.448-0.32 0.96-0.192 1.472 0 0.064 0 0.128 0.064 0.128 0 0.128 0.064 0.192 0.064 0.32 0 0.064 0.064 0.064 0.064 0.128s0.064 0.128 0.064 0.128c0.448 0.768 1.216 1.28 2.176 1.28 0.128 0 0.256 0 0.384-0.064 0.192 0 0.384-0.064 0.512-0.128 0.064-0.064 0.192-0.064 0.256-0.128 0-0.064 0-0.128-0.064-0.128 0 0 0 0 0 0-0.064-0.192-0.064-0.384-0.064-0.576 0-0.64 0.192-1.216 0.576-1.728-0.256-0.32-0.448-0.768-0.64-1.216z"></path>
<path d="M22.528 17.024c0 0.064 0 0.064 0 0.128s0 0.064 0 0.128 0 0.128 0.064 0.192c0 0.064 0.064 0.064 0.064 0.128s0.064 0.128 0.064 0.192 0.128 0.192 0.192 0.32h3.968c0-0.064 0.064-0.064 0.064-0.128-0.704-0.448-1.28-1.216-1.408-2.112 0-0.064 0-0.064 0-0.128-0.128 0.064-0.32 0.064-0.448 0.128-0.192 0-0.32 0.064-0.512 0.064-0.32 0-0.576-0.064-0.896-0.128-0.128 0-0.192-0.064-0.32-0.128s-0.192-0.064-0.32-0.128c-0.064-0.064-0.192-0.128-0.256-0.192-0.32 0.448-0.448 1.024-0.384 1.6 0.128 0 0.128 0 0.128 0.064z"></path>
<path d="M21.632 12.16c0.128-0.64 0.448-1.216 0.896-1.664-0.192-1.152-1.216-2.048-2.432-2.048-0.128 0-0.256 0-0.384 0.064-0.64 0.128-1.216 0.448-1.6 1.024-0.192 0.32-0.384 0.64-0.448 1.024-0.064 0.256-0.064 0.576 0 0.832 0.064 0.576 0.384 1.024 0.768 1.408 0.064 0.064 0.128 0.128 0.192 0.192s0.192 0.128 0.256 0.192c0.128 0.064 0.192 0.128 0.32 0.128 0.256 0.128 0.576 0.128 0.832 0.128 0.128 0 0.256 0 0.384-0.064 0.384-0.064 0.768-0.256 1.088-0.512 0 0 0 0 0-0.064 0-0.128 0-0.192 0-0.32 0.064-0.064 0.128-0.192 0.128-0.32z"></path>
<path d="M23.104 14.592c0 0 0.064 0.064 0.064 0.064 0.064 0.064 0.128 0.128 0.192 0.128 0.064 0.064 0.128 0.064 0.192 0.128 0.128 0.064 0.192 0.128 0.32 0.128 0.256 0.064 0.512 0.128 0.832 0.128 0.128 0 0.256 0 0.384-0.064 0.192 0 0.384-0.064 0.576-0.192 0-0.256 0.064-0.448 0.128-0.64 0.064-0.128 0.064-0.192 0.128-0.32s0.128-0.192 0.192-0.32c0.064-0.064 0.064-0.128 0.128-0.256 0.256-0.384 0.576-0.64 0.96-0.832 0-0.128 0-0.192 0-0.32-0.128-0.832-0.704-1.536-1.472-1.856 0-0.128 0.064-0.192 0.064-0.32 0.064-0.128 0.064-0.192 0.128-0.32 0.704-1.792 2.176-3.072 3.84-4.096 0.704-0.448 0.192-1.6-0.512-1.152-2.048 1.28-3.776 2.816-4.544 5.056-0.064 0.128-0.064 0.256-0.128 0.32-0.064 0.128-0.064 0.192-0.064 0.32-0.064 0-0.064 0-0.128 0-0.448 0.064-0.832 0.256-1.152 0.512-0.128 0.064-0.192 0.192-0.32 0.32-0.32 0.384-0.512 0.832-0.576 1.344 0 0.064 0 0.192 0 0.256s0 0.064 0 0.128c0 0.128 0 0.192 0 0.32 0 0 0 0 0 0 0 0.064 0 0.064 0 0.064 0.064 0.448 0.32 0.832 0.576 1.088 0 0.256 0.128 0.32 0.192 0.384z"></path>
<path d="M27.648 17.472c0.128 0.064 0.192 0.064 0.32 0.128 0.256 0.064 0.512 0.128 0.832 0.128 0.128 0 0.256 0 0.384-0.064 0.64-0.128 1.216-0.448 1.6-1.024 0.384-0.512 0.512-1.216 0.448-1.856-0.192-1.216-1.216-2.048-2.432-2.048-0.128 0-0.256 0-0.384 0.064-0.192 0-0.384 0.064-0.576 0.192-0.128 0.064-0.256 0.128-0.384 0.192-0.128 0.128-0.32 0.192-0.448 0.32s-0.192 0.192-0.256 0.32c-0.064 0.064-0.064 0.128-0.064 0.128-0.064 0.064-0.128 0.192-0.192 0.32 0 0.064-0.064 0.128-0.064 0.192s-0.064 0.128-0.064 0.128c-0.064 0.128-0.064 0.256-0.064 0.384s0 0.256 0 0.384c0 0.128 0 0.192 0 0.32 0.128 0.704 0.512 1.28 1.024 1.6 0.128 0.128 0.192 0.192 0.32 0.192z"></path>
<path d="M27.328 8.704c-1.856 3.2 3.264 3.52 4.672 2.176 0 0-2.88-5.312-4.672-2.176z"></path>
<path d="M15.552 29.248c8.576 0 15.552-2.048 15.552-10.624h-31.104c0 8.576 6.976 10.624 15.552 10.624z"></path>
<path d="M12.416 4.608c-0.384-0.064-1.088-0.128-1.792-0.128-1.088 0-1.856 0.192-2.112 0.64-0.192 0.192-0.192 0.512-0.064 0.896 0 0.064 0 0.064 0 0.128 0.128 0.384 0.32 0.64 0.512 0.832s0.448 0.32 0.768 0.32c1.024 0 2.24-1.28 2.688-2.688z"></path>
</symbol>
<symbol id="i-locals-groceries" viewBox="0 0 32 32">
<title>groceries</title>
<path d="M24 4.544h-2.304c-1.28 0-2.304 1.024-2.304 2.304v0.064c1.408 0.768 2.24 2.24 2.304 3.84 0.32 0.128 0.576 0.32 0.768 0.64 0.128 0.192 0.384 0.256 0.64 0.128 0.064-0.064 0.064-0.064 0.128-0.128 0.448-0.768 1.408-0.96 2.176-0.512 0.064 0.064 0.192 0.128 0.256 0.192l0.64-0.768v-3.456c0-1.28-1.024-2.304-2.304-2.304z"></path>
<path d="M24 0h-2.304c-0.32 0-0.576 0.256-0.576 0.576v0 0.576h3.456v-0.576c0-0.32-0.256-0.576-0.576-0.576z"></path>
<path d="M13.696 3.968c0-0.96-0.768-1.728-1.728-1.728s-1.728 0.768-1.728 1.728v6.784c0.704-0.32 1.536 0 1.92 0.64v0c0.064 0.128 0.256 0.192 0.448 0.192-0.256-1.344 0.128-2.752 1.088-3.776v-3.84zM11.008 5.888l0.576-0.576c0.256-0.192 0.576-0.192 0.832 0 0.192 0.192 0.192 0.576 0 0.832l-0.576 0.576c-0.256 0.192-0.576 0.192-0.832 0-0.192-0.256-0.192-0.64 0-0.832zM12.416 8.384l-0.576 0.576c-0.256 0.192-0.576 0.192-0.832 0-0.192-0.192-0.192-0.576 0-0.832l0.576-0.576c0.256-0.192 0.576-0.192 0.832 0 0.192 0.256 0.192 0.64 0 0.832z"></path>
<path d="M22.848 2.304c-0.32 0-0.576 0.256-0.576 0.576v0.576h1.152v-0.576c0-0.32-0.256-0.576-0.576-0.576z"></path>
<path d="M26.048 12.352c-0.064 0.064-0.128 0.064-0.128 0.128 0 0 0 0 0 0-0.064 0-0.064 0.064-0.128 0.064-0.128 0.064-0.256 0.064-0.384-0.064-0.064 0-0.064-0.064-0.128-0.064 0 0 0 0 0 0-0.064-0.064-0.064-0.128-0.128-0.128l-0.192-0.256c-0.128-0.192-0.384-0.256-0.576-0.128-0.064 0.064-0.128 0.064-0.128 0.128-0.448 0.768-1.408 0.96-2.176 0.512-0.192-0.128-0.384-0.32-0.512-0.512s-0.384-0.256-0.64-0.128c-0.064 0.064-0.064 0.064-0.128 0.128-0.448 0.768-1.408 0.96-2.176 0.512-0.192-0.128-0.384-0.32-0.512-0.512s-0.384-0.256-0.64-0.128c-0.064 0.064-0.064 0.064-0.128 0.128-0.448 0.768-1.408 0.96-2.176 0.512-0.192-0.128-0.384-0.32-0.512-0.512s-0.384-0.256-0.64-0.128c-0.064 0.064-0.064 0.064-0.128 0.128-0.448 0.768-1.408 0.96-2.176 0.512-0.192-0.128-0.384-0.32-0.512-0.512s-0.384-0.256-0.64-0.128c-0.064 0.064-0.064 0.064-0.128 0.128-0.064 0.128-0.192 0.256-0.384 0.384-0.064 0.064-0.064 0.064-0.128 0.128-0.704 0.448-1.664 0.256-2.176-0.448 0 0 0-0.064-0.064-0.064-0.128-0.192-0.384-0.256-0.64-0.128-0.064 0.064-0.064 0.064-0.128 0.128l-0.192 0.32c0 0-0.064 0.064-0.064 0.064s-0.064 0.064-0.064 0.064c0 0 0 0 0 0-0.064 0-0.064 0.064-0.128 0.064 0 0-0.064 0.064-0.064 0.064-0.064 0-0.064 0-0.128 0s-0.064 0-0.128 0c0 0-0.064 0-0.064 0-0.064 0-0.064 0-0.128-0.064 0 0 0 0 0 0s-0.064-0.064-0.064-0.064c0 0-0.064-0.064-0.064-0.064l-1.408-1.664v17.6c0 0.384 0.128 0.768 0.384 1.088l1.28 1.536c0.512 0.64 1.344 1.024 2.176 1.024h15.104c0.832 0 1.664-0.384 2.176-1.024l1.28-1.536c0.256-0.32 0.384-0.704 0.384-1.088v-17.664l-1.152 1.664zM6.848 28.032c0 0.32-0.256 0.576-0.576 0.576s-0.576-0.256-0.576-0.576v-12.608c0-0.32 0.256-0.576 0.576-0.576s0.576 0.256 0.576 0.576v12.608zM26.304 28.032c0 0.32-0.256 0.576-0.576 0.576s-0.576-0.256-0.576-0.576v-12.608c0-0.32 0.256-0.576 0.576-0.576s0.576 0.256 0.576 0.576v12.608z"></path>
<path d="M18.624 7.744c-1.344-0.64-2.88-0.32-3.904 0.704-0.64 0.64-0.96 1.472-0.96 2.304 0.704-0.32 1.536 0 1.92 0.64v0c0.128 0.192 0.384 0.256 0.64 0.128 0.064-0.064 0.064-0.064 0.128-0.128 0.448-0.768 1.408-0.96 2.176-0.512 0.192 0.128 0.384 0.32 0.512 0.512s0.384 0.256 0.64 0.128c0.064-0.064 0.064-0.064 0.128-0.128 0.192-0.32 0.448-0.512 0.768-0.64-0.128-1.28-0.896-2.432-2.048-3.008z"></path>
<path d="M7.424 0c-0.96 0-1.728 0.768-1.728 1.728v8.576l0.64 0.768c0.32-0.256 0.64-0.448 1.088-0.448 0.576 0 1.088 0.256 1.344 0.768 0.064 0.128 0.192 0.192 0.384 0.192v-9.856c0-0.96-0.768-1.728-1.728-1.728zM6.464 3.584l0.576-0.576c0.256-0.192 0.576-0.192 0.832 0 0.192 0.192 0.192 0.576 0 0.832l-0.576 0.576c-0.256 0.192-0.576 0.192-0.832 0-0.256-0.256-0.256-0.576 0-0.832zM6.464 5.888l0.576-0.576c0.256-0.192 0.576-0.192 0.832 0 0.192 0.192 0.192 0.576 0 0.832l-0.576 0.576c-0.256 0.192-0.576 0.192-0.832 0-0.256-0.256-0.256-0.64 0-0.832zM7.808 8.384l-0.576 0.576c-0.256 0.192-0.576 0.192-0.832 0-0.192-0.192-0.192-0.576 0-0.832l0.576-0.576c0.256-0.192 0.576-0.192 0.832 0 0.256 0.256 0.256 0.64 0 0.832z"></path>
</symbol>
<symbol id="i-locals-hair-cutter-comb" viewBox="0 0 32 32">
<title>hair-cutter-comb</title>
<path d="M24.512 17.984v0 0c-0.192 0-0.384-0.064-0.576-0.064 0 0 0 0 0 0-0.192 0-0.384-0.064-0.576-0.064-0.128 0-0.256 0-0.384 0-0.064 0-0.064 0-0.128 0s-0.192 0-0.256 0.064c-0.064 0-0.064 0-0.128 0s-0.192 0.064-0.256 0.064c-0.064 0-0.064 0-0.128 0-0.128 0.064-0.256 0.064-0.32 0.128 0 0 0 0 0 0v0c-0.192 0.064-0.32 0.192-0.512 0.32v0 0c-0.128 0.064-0.256 0.192-0.32 0.256 0 0-0.064 0.064-0.064 0.064v0c-0.128 0.128-0.256 0.256-0.32 0.384v0 0c-0.128 0.192-0.256 0.384-0.384 0.64-0.064-0.128-0.192-0.256-0.384-0.448v0c-0.128-0.128-0.256-0.32-0.384-0.512-0.256-0.32-0.576-0.704-0.896-1.088-0.192-0.256-0.384-0.448-0.576-0.704v0c-0.192-0.256-0.384-0.512-0.64-0.768v0c0 0 0 0-0.064-0.064v0c-0.448-0.512-0.896-1.088-1.344-1.664 2.304-5.312 4.544-11.52 4.16-14.528-0.384 0.832-3.264 7.104-5.76 12.544-3.776-4.608-7.936-9.728-8.512-10.432 0.384 2.944 3.904 8.192 7.36 12.672-1.024 2.176-1.856 4.032-2.368 5.12-0.128-0.128-0.192-0.256-0.32-0.32-0.64-0.64-1.536-0.896-2.432-0.896-1.408 0-2.944 0.704-4.096 1.984-1.92 2.112-2.112 5.12-0.448 6.656 0.64 0.64 1.536 0.896 2.432 0.896 1.408 0 2.944-0.704 4.096-1.984 0.704-0.768 1.152-1.6 1.408-2.432v0.064c0 0 1.536-3.008 3.328-6.976 0.448 0.576 0.96 1.152 1.344 1.728v0c0 0 0.064 0.064 0.064 0.064 0.064 0.064 0.128 0.128 0.128 0.192 0 0 0 0 0 0v0c0.192 0.256 0.448 0.512 0.64 0.768v0c0 0 0 0 0 0 0.384 0.512 0.768 0.96 1.152 1.344v0c0 0 0 0.064 0.064 0.064 0.192 0.256 0.448 0.512 0.64 0.704 0 0 0 0 0 0v0c0.256 0.32 0.448 0.576 0.64 0.768v0c0 0 0 0 0 0 0.32 0.32 0.448 0.576 0.448 0.576v-0.128c0.256 0.832 0.704 1.664 1.344 2.368v0 0c1.152 1.28 2.688 1.984 4.096 1.984 0.896 0 1.792-0.32 2.432-0.896 1.664-1.536 1.472-4.544-0.448-6.656-0.64-0.896-1.728-1.472-2.752-1.792zM9.408 23.232c-0.192 0.576-0.512 1.152-0.896 1.6-0.768 0.832-1.728 1.28-2.56 1.28-0.448 0-0.832-0.128-1.088-0.384-0.832-0.768-0.576-2.496 0.576-3.712 0.768-0.832 1.728-1.28 2.56-1.28 0.448 0 0.832 0.128 1.088 0.384 0.064 0.064 0.064 0.064 0.128 0.128l0.576 0.704-0.384 1.28zM14.592 15.36c-0.256 0-0.512-0.256-0.512-0.512s0.256-0.512 0.512-0.512c0.256 0 0.512 0.256 0.512 0.512 0 0.32-0.256 0.512-0.512 0.512zM26.496 24.96c-0.256 0.256-0.64 0.384-1.088 0.384-0.896 0-1.856-0.512-2.56-1.28-0.256-0.256-0.448-0.512-0.576-0.832 0.448-1.024 0.96-2.176 1.408-3.264 0.768 0.128 1.6 0.576 2.24 1.28 1.152 1.216 1.408 2.944 0.576 3.712z"></path>
<path d="M24.128 0c-0.192 0-0.256 0.128-0.064 0.256 1.024 0.64 1.984 1.216 2.624 1.856l-2.88-1.216-0.256 0.384 3.712 1.6c0.128 0.192 0.192 0.448 0.256 0.64l-4.16-1.792-0.192 0.448 4.416 1.92c0 0.192 0 0.32 0 0.512l-4.544-2.048-0.192 0.448 4.672 2.048c-0.064 0.128-0.064 0.256-0.128 0.32l-4.672-2.048-0.192 0.448 4.736 2.048c-0.064 0.128-0.128 0.256-0.192 0.384l-4.736-2.048-0.192 0.448 4.736 2.048c-0.064 0.128-0.128 0.256-0.192 0.448l-4.736-2.048-0.192 0.448 4.736 2.048c-0.064 0.128-0.128 0.256-0.192 0.448l-4.736-2.048-0.192 0.448 4.736 2.048c0 0 0 0.064 0 0.064s-0.064 0.128-0.128 0.32l-4.736-2.048-0.192 0.448 4.736 2.048c-0.064 0.128-0.128 0.256-0.192 0.448l-4.736-2.048-0.192 0.448 4.736 2.048c-0.064 0.128-0.064 0.192-0.128 0.32l-4.736-2.176-0.192 0.448 4.736 2.048c-0.064 0.128-0.128 0.256-0.192 0.384l-4.736-2.048-0.192 0.448 4.736 2.048c-0.064 0.128-0.128 0.256-0.192 0.448l-4.672-2.048-0.192 0.448 4.736 2.048c-0.064 0.128-0.128 0.256-0.192 0.448l-4.736-2.112-0.192 0.448 4.736 2.048c-0.064 0.128-0.128 0.256-0.192 0.384l-4.736-2.048-0.192 0.448 4.736 2.048c-0.064 0.128-0.128 0.256-0.192 0.448l-4.736-2.048-0.192 0.448 4.736 2.048c-0.064 0.128-0.128 0.256-0.128 0.384l-4.736-2.048-0.192 0.448 4.736 2.048c-0.064 0.128-0.128 0.256-0.192 0.384l-4.736-2.048-0.192 0.448 4.736 2.048c-0.064 0.128-0.128 0.256-0.128 0.32l-4.736-2.048-0.192 0.448 4.544 1.984c0.384-0.128 0.832-0.192 1.28-0.192s0.96 0.064 1.472 0.192c1.856-4.288 3.456-8.064 3.456-8.064 0.576-1.344 1.024-2.432 1.28-2.88 1.024-2.368-1.664-5.952-5.376-6.528z"></path>
<path d="M20.16 18.56c0.064-0.128 0.192-0.192 0.256-0.256 0 0 0.064-0.064 0.064-0.064l-1.344-0.576 0.64 0.768 0.384 0.128z"></path>
<path d="M19.456 23.616l-4.672-1.984-0.192 0.448 4.736 2.048c-0.064 0.128-0.128 0.32-0.192 0.448l-4.736-2.048-0.192 0.448 4.736 2.048c-0.064 0.128-0.128 0.256-0.192 0.384l-4.672-2.048-0.192 0.448 4.736 2.048c-0.064 0.128-0.128 0.32-0.192 0.448l-4.736-2.048-0.192 0.448 4.736 2.048c-0.064 0.128-0.128 0.256-0.128 0.384l-4.736-2.176-0.192 0.448 4.736 2.048c-0.064 0.128-0.128 0.256-0.192 0.384l-4.736-2.048-0.192 0.448 4.736 2.048c-0.064 0.192-0.128 0.32-0.192 0.448l-4.736-2.048-0.192 0.448 4.672 2.048c-0.064 0.128-0.128 0.32-0.192 0.448l-4.608-2.112-0.192 0.448 4.608 1.984c-0.128 0.128-0.192 0.256-0.32 0.32l-4.416-1.92-0.256 0.448 4.16 1.792c-0.192 0.128-0.448 0.192-0.64 0.256l-3.712-1.664-0.192 0.448 2.88 1.216c-0.96 0-2.048-0.256-3.264-0.64-0.128-0.064-0.192 0.128 0 0.256 2.944 2.304 7.36 1.792 8.384-0.512 0.256-0.576 0.896-2.048 1.664-3.904-0.064-0.064-0.128-0.128-0.192-0.192-0.576-0.64-1.024-1.408-1.344-2.24z"></path>
<path d="M21.44 17.6l-3.584-1.536 0.576 0.768 2.432 1.024c0.256-0.128 0.384-0.192 0.576-0.256z"></path>
<path d="M14.976 21.184l3.776 1.6c-0.192-0.256-0.448-0.512-0.704-0.832l-2.88-1.216-0.192 0.448z"></path>
<path d="M15.68 19.648l0.64 0.256c-0.128-0.192-0.32-0.384-0.512-0.576l-0.128 0.32z"></path>
<path d="M15.36 20.352l2.112 0.896c-0.192-0.256-0.448-0.512-0.64-0.768l-1.216-0.512-0.256 0.384z"></path>
</symbol>
<symbol id="i-locals-ice-cream" viewBox="0 0 32 32">
<title>ice-cream</title>
<path d="M15.424 16.64c-0.064-0.064-0.064-0.128-0.064-0.192-0.832-0.064-1.664-0.256-2.496-0.576-0.576 0.64-1.28 1.088-2.048 1.344l5.184 14.784 5.184-14.72c-0.576-0.192-1.088-0.512-1.536-0.896v1.536c0 0.704-1.088 0.704-1.088 0v-0.832c-0.256 0.192-0.512 0.32-0.768 0.384v4.736c0 0.704-1.088 0.704-1.088 0v-4.736c-0.512-0.064-0.96-0.384-1.28-0.832z"></path>
<path d="M5.056 12.608c0 2.304 1.856 4.224 4.224 4.224 0.512 0 0.96-0.064 1.408-0.256 0.832-0.32 1.536-0.832 2.048-1.536 1.024 0.448 2.176 0.768 3.328 0.768 1.216 0 2.304-0.256 3.328-0.768 0.512 0.704 1.216 1.28 2.048 1.536 0.448 0.128 0.896 0.256 1.408 0.256 2.304 0 4.224-1.856 4.224-4.224 0-1.92-1.344-3.584-3.136-4.032 0-0.192 0-0.448 0-0.64-0.064-4.416-3.584-7.936-7.936-7.936s-7.872 3.52-7.872 7.872c0 0.192 0 0.448 0 0.64-1.792 0.512-3.072 2.176-3.072 4.096z"></path>
</symbol>
<symbol id="i-locals-magazine" viewBox="0 0 32 32">
<title>magazine</title>
<path d="M27.264 19.328l-11.456 6.784-0.128-3.584 9.536-6.4c0.128-0.064 0.128-0.192 0.064-0.32s-0.192-0.128-0.32-0.064l-9.344 6.272-0.064-2.176c0 0 0 0 0 0s0-0.064 0-0.064l9.28-6.656c0.128-0.064 0.128-0.192 0.064-0.32s-0.192-0.128-0.32-0.064l-9.024 6.528-0.064-2.112c0.064 0 0.064 0.064 0.128 0.064s0.064 0 0.128-0.064l8.768-6.208c0.128-0.064 0.128-0.192 0.064-0.32s-0.192-0.128-0.32-0.064l-8.768 6.208c0 0 0 0 0 0l-0.128-2.304c0 0 0 0 0.064 0s0.064 0 0.128-0.064l8.768-6.208c0.128-0.064 0.128-0.192 0.064-0.32s-0.192-0.128-0.32-0.064l-8.704 6.144-0.128-1.792c0 0 0.064 0 0.064 0l8.768-6.208c0.128-0.064 0.128-0.192 0.064-0.32s-0.192-0.128-0.32-0.064l-8.64 6.080-0.064-1.856 10.112-7.104 2.048 16.64z"></path>
<path d="M3.712 2.624c0 0 0 0 0 0v0l11.008 7.232 0.064 1.792-8.96-5.376c-0.064-0.064-0.256 0-0.32 0.064-0.064 0.128 0 0.256 0.064 0.32l9.216 5.504 0.064 1.792-9.024-5.376c-0.128-0.064-0.256 0-0.32 0.064-0.064 0.128 0 0.256 0.064 0.32l9.216 5.568c0 0 0.064 0 0.064 0l0.064 2.304-9.088-5.568c-0.128-0.064-0.256 0-0.32 0.064-0.064 0.128 0 0.256 0.064 0.32l9.216 5.568c0.064 0 0.064 0.064 0.128 0.064 0 0 0.064 0 0.064 0l0.064 2.048-8.768-5.312c-0.128-0.064-0.256 0-0.32 0.064-0.064 0.128 0 0.256 0.064 0.32l9.088 5.44 0.064 2.24-8.896-5.312c-0.128-0.064-0.256 0-0.32 0.064-0.064 0.128 0 0.256 0.064 0.32l9.152 5.504 0.064 1.408 0.128 2.176-11.648-6.272 0.256-17.152c0-0.064-0.128-0.192-0.256-0.192z"></path>
<path d="M3.328 20.288l11.904 6.4c0.064 0 0.064 0 0.128 0h0.256c0.064 0 0.064 0 0.128 0 0 0 0 0 0 0l11.904-7.104c0.064-0.064 0.128-0.128 0.128-0.192l-1.792-14.208c0 0 0.064 0 0.064 0l1.728-0.128 2.432 18.944-14.592 4.288-14.016-6.784 0.896-17.92 1.024-0.832c0 0 0 0.064 0 0.064l-0.32 17.28c0 0.128 0.064 0.192 0.128 0.192z"></path>
<path d="M1.536 2.048l1.152 0.832-0.576 0.384c-0.064 0.064-0.064 0.128-0.064 0.192l-0.896 18.176c0 0.064 0.064 0.192 0.128 0.192l14.208 6.976c0 0 0.064 0 0.128 0 0 0 0.064 0 0.064 0l14.912-4.352c0.128 0 0.192-0.128 0.192-0.256l-2.56-19.392c0-0.128-0.128-0.192-0.256-0.192l-1.984 0.128c0 0-0.064 0-0.064 0l-0.064-0.384 3.008-0.256 3.136 20.928-16.064 4.992-15.936-7.68 1.536-20.288z"></path>
</symbol>
<symbol id="i-locals-petanque" viewBox="0 0 32 32">
<title>petanque</title>
<path d="M15.36 2.112c0.32-0.384 0.256-1.216 0.192-1.92 0 0 0-0.064 0-0.064-0.448-0.128-0.832-0.128-1.28-0.128-1.6 0-3.2 0.32-4.608 0.832 1.024 0.512 2.624 1.344 4.352 2.56 0.64-0.512 1.088-0.96 1.344-1.28z"></path>
<path d="M21.952 9.536c-0.64 0.064-1.152 0.192-1.664 0.32 2.24 3.84 3.072 8.768 3.264 12.288 2.176-2.24 3.584-5.248 3.712-8.576-1.472-1.856-3.456-4.224-5.312-4.032z"></path>
<path d="M8.768 6.208c1.536-0.32 3.008-1.088 4.16-1.92-2.432-1.664-4.48-2.56-4.864-2.688-2.496 1.344-4.48 3.52-5.696 6.144 1.536-0.576 3.2-0.896 4.8-1.216 0.576-0.128 1.088-0.192 1.6-0.32z"></path>
<path d="M17.792 6.592c0.128 0.128 0.256 0.256 0.384 0.448 0.512 0.512 0.96 1.088 1.408 1.728 0.64-0.256 1.344-0.384 2.176-0.512 2.048-0.256 3.84 1.408 5.44 3.136-0.32-2.688-1.472-5.12-3.2-7.040-0.96 0.128-1.984 0.32-3.072 0.64-0.704 0.192-1.792 0.768-3.136 1.6z"></path>
<path d="M16.064 13.312c0.512-1.792 1.152-3.136 2.368-3.968-0.384-0.512-0.768-1.024-1.152-1.472-0.192-0.192-0.384-0.384-0.576-0.576-4.864 3.264-11.456 9.28-12.032 14.528 1.984 2.176 4.736 3.712 7.808 4.096 1.152-2.24 2.176-6.784 2.816-9.472 0.32-1.28 0.576-2.432 0.768-3.136z"></path>
<path d="M10.624 10.432c1.664-1.536 3.456-2.944 5.056-4.032-0.512-0.448-1.088-0.896-1.6-1.344-1.344 1.024-3.136 1.984-4.992 2.432-0.512 0.128-1.088 0.192-1.6 0.32-2.048 0.384-4.032 0.768-5.696 1.664-0.32 1.088-0.512 2.304-0.512 3.52 0 2.752 0.896 5.312 2.304 7.424 0.96-3.712 4.224-7.424 7.040-9.984z"></path>
<path d="M16.832 5.632c1.536-0.96 2.88-1.664 3.776-1.92 0.768-0.256 1.536-0.384 2.24-0.512-1.664-1.472-3.712-2.496-5.952-2.944 0.064 0.896 0.064 1.92-0.448 2.624-0.256 0.32-0.704 0.832-1.28 1.344 0.512 0.448 1.088 0.896 1.664 1.408z"></path>
<path d="M17.344 13.696c-0.192 0.704-0.448 1.792-0.768 3.072-0.896 3.776-1.728 7.168-2.688 9.28 0.128 0 0.256 0 0.448 0 3.008 0 5.824-1.024 8.064-2.752-0.064-3.712-0.96-8.96-3.2-12.8-0.96 0.576-1.408 1.6-1.856 3.2z"></path>
<path d="M30.72 28.544c0 1.909-1.547 3.456-3.456 3.456s-3.456-1.547-3.456-3.456c0-1.909 1.547-3.456 3.456-3.456s3.456 1.547 3.456 3.456z"></path>
</symbol>
<symbol id="i-locals-pharmacy" viewBox="0 0 32 32">
<title>pharmacy</title>
<path d="M31.36 13.312c-2.944-1.152-4.096-3.2-4.992-4.8-0.704-1.28-1.408-2.496-2.816-2.752-1.472-0.256-3.328 0.64-6.592 3.2v-3.52c1.088-0.384 1.856-1.408 1.856-2.624 0-1.536-1.28-2.816-2.816-2.816s-2.816 1.28-2.816 2.816c0 1.216 0.768 2.24 1.856 2.624v3.52c-3.52-2.816-4.736-3.52-6.528-3.2-1.408 0.256-2.112 1.472-2.816 2.752-0.96 1.6-2.112 3.648-5.056 4.8-0.448 0.192-0.64 0.576-0.576 1.024s0.448 0.768 0.896 0.768h1.856c0.064 0 4.096-0.064 6.144-5.056 0.192-0.448 0.768-0.704 1.216-0.512s0.704 0.768 0.512 1.216c-0.832 2.048-1.984 3.392-3.136 4.352h2.112c0.896-0.768 1.6-1.664 1.6-2.816 0-0.512 0.448-0.96 0.96-0.96s0.96 0.448 0.96 0.96c0 1.088-0.384 1.984-0.896 2.816h2.816v1.856h-2.816c-1.536 0-2.816 1.28-2.816 2.816s1.28 2.816 2.816 2.816h2.816v1.856h-0.96c-1.536 0-2.816 1.28-2.816 2.816s1.28 2.816 2.816 2.816h0.96v0.96c0 0.512 0.448 0.96 0.96 0.96s0.96-0.448 0.96-0.96v-0.96h0.96c0.512 0 0.96-0.448 0.96-0.96s-0.448-0.96-0.96-0.96h-0.96v-1.856h0.96c1.536 0 2.816-1.28 2.816-2.816s-1.28-2.816-2.816-2.816h-0.96v-1.856h2.816c1.088 0 1.984-0.576 2.432-1.472-0.512-0.32-1.088-0.768-1.536-1.216-0.064 0.448-0.448 0.768-0.896 0.768h-2.816v-1.856h2.816c-0.576-0.832-0.896-1.728-0.896-2.816 0-0.512 0.448-0.96 0.96-0.96s0.96 0.448 0.96 0.96c0 1.152 0.704 2.048 1.6 2.816h2.112c-1.152-0.896-2.304-2.304-3.136-4.352-0.192-0.448 0-1.024 0.512-1.216 0.448-0.192 1.024 0 1.216 0.512 2.048 4.992 6.144 5.056 6.144 5.056h1.856c0.448 0 0.832-0.32 0.896-0.768-0.064-0.32-0.32-0.768-0.704-0.96zM15.040 28.224h-0.96c-0.512 0-0.96-0.448-0.96-0.96s0.448-0.96 0.96-0.96h0.96v1.92zM15.040 20.736h-2.816c-0.512 0-0.96-0.448-0.96-0.96s0.448-0.96 0.96-0.96h2.816v1.92zM17.856 22.656c0.512 0 0.96 0.448 0.96 0.96s-0.448 0.96-0.96 0.96h-0.96v-1.856h0.96z"></path>
</symbol>
<symbol id="i-locals-pizza" viewBox="0 0 32 32">
<title>pizza</title>
<path d="M31.488 10.304c0 0 0 0 0 0-0.128-0.512-0.256-0.96-0.448-1.344l-1.536 1.28c0.192 0.384 0.448 0.832 0.64 1.216l0.704 2.048c-0.064 0.384-0.128 0.768-0.32 1.088-0.64 1.28-1.92 1.728-1.92 1.792l-9.792 3.968c0-0.384-0.064-0.768-0.192-1.216 0-0.064 0-0.128 0-0.128l11.136-4.608c0.064 0 0.128-0.064 0.192-0.064l-0.832-2.368c-0.192-0.448-0.448-0.96-0.704-1.408 0 0 0 0 0 0s0 0 0-0.064c-0.448-0.832-1.024-1.6-1.792-2.368 0 0-0.064 0-0.064 0-0.064-0.064-0.128-0.128-0.192-0.192-0.768-0.704-1.728-1.344-2.944-1.856-0.064 0-0.128 0-0.128 0-0.064 0-0.064-0.064-0.128-0.064-0.96-0.384-2.112-0.704-3.456-0.96 0 0-0.064 0-0.064 0-0.064 0-0.128 0-0.192-0.064 0 0 0 0 0 0-1.984-0.448-4.416-0.512-7.36-0.384 0 0 0 0 0 0s0 0 0 0c-2.368 0.192-5.056 0.512-8.128 1.024l-0.704 0.064-0.768 9.856c-1.024 0.64-3.072 2.368-2.304 5.184 0.256 1.024 0.768 1.6 1.344 1.728 0.128 0 0.32 0.128 0.256 0.32-0.192 1.344-0.576 3.84-0.576 5.312 0 0.704 0.192 1.28 0.64 1.664 0.64 0.64 1.664 0.768 2.176 0.768 0.192 0 0.32 0 0.32 0 0.192 0 1.92-0.192 2.496-1.344 0.32-0.704 0.192-1.6-0.512-2.624l8.96-3.648c0 0 0 0 0 0 0.128 0.064 0.192 0.128 0.32 0.128 0 0 0.064 0 0.064 0 0.128 0.064 0.256 0.064 0.448 0.064 0.064 0 0.128 0 0.256 0v0c0 0 0.064 0 0.064 0 0.192 0 0.32 0 0.512-0.064 0.064 0 0.128-0.064 0.192-0.064s0.192-0.064 0.256-0.064c0.064 0 0.128-0.064 0.256-0.128 0.064-0.064 0.128-0.064 0.192-0.128s0.128-0.064 0.192-0.128 0.192-0.192 0.32-0.32c0 0 0 0 0.064-0.064 0.192-0.192 0.32-0.448 0.384-0.768 0 0 0 0 0 0l10.304-4.16c0.064 0 1.728-0.576 2.56-2.304 0.512-1.152 0.448-2.752-0.192-4.608zM5.632 24.832c0.128-0.384 0.512-0.704 1.216-0.96l7.232-3.008c0 0.384 0.128 0.832 0.32 1.216l-8.704 3.52c-0.128-0.32-0.128-0.576-0.064-0.768zM13.568 17.472c0-0.32 0.128-0.64 0.32-0.832 0.192-0.256 0.512-0.384 0.832-0.384 0 0 0.064-0.064 0.064-0.128 0-0.64 0.512-1.216 1.152-1.216 0 0 0.064-0.064 0.064-0.128 0-0.32 0.256-0.576 0.512-0.576 0.32 0 0.576 0.256 0.576 0.512 0 0.64-0.512 1.216-1.152 1.216 0 0-0.064 0.064-0.064 0.128 0 0.64-0.512 1.216-1.152 1.216-0.064 0-0.064 0.064-0.064 0.128 0 0.32-0.256 0.576-0.512 0.576 0 0 0 0 0 0-0.32 0-0.576-0.256-0.576-0.512zM22.848 8.64c0.448 0 1.024 0 1.536 0.256 0.448 0.192 1.024 0.704 1.024 1.856 0 1.856-1.856 3.328-4.224 3.328-1.984 0-3.648 0-3.648-2.24 0-2.112 4.416-3.2 5.312-3.2zM14.144 5.376c0.384-0.064 0.768 0 1.088 0.192s0.576 0.512 0.64 0.896c0.064 0.192 0.256 0.256 0.448 0.256 0.384-0.064 0.768 0 1.088 0.192s0.576 0.512 0.64 0.896c0 0.128 0.128 0.192 0.128 0.192 0.064 0.064 0.192 0.064 0.32 0.064 0.32-0.064 0.576 0.128 0.64 0.448s-0.128 0.576-0.448 0.64c-0.128 0-0.192 0-0.32 0-0.256 0-0.576-0.064-0.768-0.192-0.32-0.192-0.576-0.512-0.64-0.896 0-0.128-0.128-0.192-0.128-0.192-0.064-0.064-0.192-0.064-0.32-0.064-0.768 0.192-1.6-0.32-1.728-1.088 0-0.128-0.128-0.192-0.128-0.192-0.064-0.064-0.192-0.064-0.32-0.064-0.32 0.064-0.576-0.128-0.64-0.448-0.064-0.256 0.128-0.576 0.448-0.64zM14.464 11.456c0.128 0.064 0.192 0 0.256 0 0.064-0.064 0.192-0.128 0.192-0.192 0.128-0.256 0.448-0.384 0.704-0.256s0.384 0.448 0.256 0.704c-0.128 0.384-0.448 0.64-0.768 0.768-0.384 0.128-0.768 0.128-1.088 0-0.128-0.064-0.192 0-0.256 0-0.064 0.064-0.192 0.128-0.192 0.192-0.32 0.768-1.152 1.088-1.92 0.768-0.128-0.064-0.192 0-0.256 0-0.064 0.064-0.192 0.128-0.192 0.192-0.064 0.192-0.32 0.32-0.512 0.32-0.064 0-0.128 0-0.192-0.064-0.256-0.128-0.384-0.448-0.256-0.704 0.128-0.384 0.448-0.64 0.768-0.768 0.384-0.128 0.768-0.128 1.088 0 0.192 0.064 0.384 0 0.448-0.192 0.128-0.384 0.448-0.64 0.768-0.768 0.448-0.192 0.832-0.192 1.152 0zM10.624 5.888c0.768 0 2.56 0 2.56 2.112 0 1.856-1.856 3.328-4.224 3.328-1.984 0-3.648 0-3.648-2.24 0-2.048 4.416-3.2 5.312-3.2zM4.032 17.984c0-2.048 4.416-3.2 5.312-3.2 0.768 0 2.56 0 2.56 2.112 0 1.856-1.856 3.328-4.224 3.328-1.92 0-3.648 0-3.648-2.24z"></path>
<path d="M20.608 11.968c0 0.318-0.258 0.576-0.576 0.576s-0.576-0.258-0.576-0.576c0-0.318 0.258-0.576 0.576-0.576s0.576 0.258 0.576 0.576z"></path>
<path d="M23.424 10.496c0 0.318-0.258 0.576-0.576 0.576s-0.576-0.258-0.576-0.576c0-0.318 0.258-0.576 0.576-0.576s0.576 0.258 0.576 0.576z"></path>
<path d="M22.72 11.904c0 0.318-0.258 0.576-0.576 0.576s-0.576-0.258-0.576-0.576c0-0.318 0.258-0.576 0.576-0.576s0.576 0.258 0.576 0.576z"></path>
<path d="M8.384 9.344c0 0.318-0.258 0.576-0.576 0.576s-0.576-0.258-0.576-0.576c0-0.318 0.258-0.576 0.576-0.576s0.576 0.258 0.576 0.576z"></path>
<path d="M11.584 8.64c0 0.318-0.258 0.576-0.576 0.576s-0.576-0.258-0.576-0.576c0-0.318 0.258-0.576 0.576-0.576s0.576 0.258 0.576 0.576z"></path>
<path d="M9.792 8.064c0 0.318-0.258 0.576-0.576 0.576s-0.576-0.258-0.576-0.576c0-0.318 0.258-0.576 0.576-0.576s0.576 0.258 0.576 0.576z"></path>
<path d="M7.168 18.176c0 0.318-0.258 0.576-0.576 0.576s-0.576-0.258-0.576-0.576c0-0.318 0.258-0.576 0.576-0.576s0.576 0.258 0.576 0.576z"></path>
<path d="M8.96 16.896c0 0.318-0.258 0.576-0.576 0.576s-0.576-0.258-0.576-0.576c0-0.318 0.258-0.576 0.576-0.576s0.576 0.258 0.576 0.576z"></path>
<path d="M9.792 17.984c0 0.318-0.258 0.576-0.576 0.576s-0.576-0.258-0.576-0.576c0-0.318 0.258-0.576 0.576-0.576s0.576 0.258 0.576 0.576z"></path>
<path d="M7.104 4.032v-2.048c-0.448 0.064-0.832 0.128-1.216 0.192-1.28 0.192-2.24 1.152-2.56 2.368l0.384-0.064c1.216-0.128 2.368-0.32 3.392-0.448z"></path>
<path d="M27.968 4.864c-0.832-0.64-1.792-1.216-2.944-1.664l-0.832 1.984c0.96 0.448 1.792 0.96 2.496 1.536l1.28-1.856z"></path>
<path d="M11.52 1.536c-1.152 0.064-2.304 0.192-3.264 0.32v2.048c1.152-0.128 2.24-0.256 3.264-0.32v-2.048z"></path>
<path d="M20.032 1.856c-1.152-0.192-2.304-0.32-3.584-0.32v2.048c1.024 0.064 1.984 0.128 2.88 0.256l0.704-1.984z"></path>
<path d="M24 2.816c-0.896-0.32-1.856-0.576-2.88-0.768l-0.768 1.92c1.024 0.192 1.984 0.448 2.752 0.768l0.896-1.92z"></path>
<path d="M15.36 3.456v-1.984c-0.256 0-0.448 0-0.704 0-0.704 0-1.408 0-2.048 0.064v2.048c0.96-0.128 1.856-0.128 2.752-0.128z"></path>
<path d="M28.928 9.28l1.664-1.344c-0.448-0.896-1.088-1.664-1.792-2.368l-1.28 1.92c0.576 0.576 1.024 1.152 1.408 1.792z"></path>
</symbol>
<symbol id="i-locals-postcard" viewBox="0 0 32 32">
<title>postcard</title>
<path d="M0 4.544v22.912h32v-22.912h-32zM22.912 8.256h5.312v5.312h-5.312v-5.312zM4.288 7.744h4.288c0.32 0 0.512 0.256 0.512 0.512 0 0.32-0.256 0.512-0.512 0.512h-4.288c-0.32 0-0.512-0.256-0.512-0.512-0.064-0.256 0.192-0.512 0.512-0.512zM4.288 10.368h10.688c0.32 0 0.512 0.256 0.512 0.512s-0.256 0.512-0.512 0.512h-10.688c-0.32 0-0.512-0.256-0.512-0.512s0.192-0.512 0.512-0.512zM3.712 13.568c0-0.32 0.256-0.512 0.512-0.512h10.688c0.32 0 0.512 0.256 0.512 0.512s-0.256 0.512-0.512 0.512h-10.624c-0.32 0.064-0.576-0.192-0.576-0.512zM15.488 24.256c-1.792 0-3.2-1.408-3.2-3.2s1.408-3.2 3.2-3.2 3.2 1.408 3.2 3.2c0 1.792-1.472 3.2-3.2 3.2zM28.672 22.976c-0.384 0.448-0.896 0.704-1.472 0.704s-1.088-0.256-1.472-0.704c-0.384-0.448-0.96-0.448-1.344 0s-0.896 0.704-1.472 0.704c-0.576 0-1.088-0.256-1.472-0.704s-0.96-0.448-1.344 0c-0.192 0.256-0.512 0.256-0.768 0.064s-0.256-0.512-0.064-0.768c0.384-0.448 0.896-0.704 1.472-0.704s1.088 0.256 1.472 0.704c0.384 0.448 0.96 0.448 1.344 0s0.896-0.704 1.472-0.704c0.576 0 1.088 0.256 1.472 0.704s0.96 0.448 1.344 0c0.192-0.256 0.512-0.256 0.768-0.064 0.256 0.256 0.256 0.576 0.064 0.768zM28.672 19.776c-0.384 0.448-0.896 0.704-1.472 0.704s-1.088-0.256-1.472-0.704c-0.384-0.448-0.96-0.448-1.344 0s-0.896 0.704-1.472 0.704c-0.576 0-1.088-0.256-1.472-0.704s-0.96-0.448-1.344 0c-0.192 0.256-0.512 0.256-0.768 0.064s-0.256-0.512-0.064-0.768c0.384-0.448 0.896-0.704 1.472-0.704s1.088 0.256 1.472 0.704c0.384 0.448 0.96 0.448 1.344 0s0.896-0.704 1.472-0.704c0.576 0 1.088 0.256 1.472 0.704s0.96 0.448 1.344 0c0.192-0.256 0.512-0.256 0.768-0.064 0.256 0.256 0.256 0.576 0.064 0.768z"></path>
</symbol>
<symbol id="i-locals-shopping-bag" viewBox="0 0 32 32">
<title>shopping-bag</title>
<path d="M25.792 7.488v0 0l-2.624-1.088-0.64 0.128c-0.704-3.136-2.56-5.376-4.864-5.376-0.256 0-0.512 0.064-0.768 0.128-0.832-0.832-1.856-1.28-3.008-1.28-3.456 0-5.12 4.608-5.12 8.64l-3.136 0.512-0.32 21.056 4.224 1.792 17.152-2.624-0.896-21.888zM20.352 6.848l-1.28 0.192c-0.064-1.344-0.256-2.496-0.704-3.52 0.832 0.448 1.6 1.664 1.984 3.328zM16.896 7.36l-2.048 0.32c0.256-1.6 0.768-2.816 1.408-3.584 0.384 0.896 0.576 2.048 0.64 3.264zM12.544 9.408l-3.648 0.512-2.304-0.384 6.016-0.896c0 0.192 0 0.448 0 0.704-0.064 0-0.064 0-0.064 0.064zM10.944 8.32c0.128-3.264 1.408-6.144 2.944-6.144 0.384 0 0.704 0.064 1.024 0.256-1.216 1.216-2.048 3.264-2.24 5.632l-1.728 0.256zM13.888 12.608c-0.704 0-1.28-0.576-1.28-1.28s0.576-1.28 1.28-1.28c0.704 0 1.28 0.576 1.28 1.28 0.064 0.704-0.512 1.28-1.28 1.28zM14.72 9.088c0-0.32 0-0.576 0.064-0.832l5.696-0.896c0.064 0.256 0.064 0.512 0.128 0.832l-5.888 0.896zM22.272 11.328c-0.704 0-1.28-0.576-1.28-1.28s0.576-1.28 1.28-1.28c0.704 0 1.28 0.576 1.28 1.28s-0.576 1.28-1.28 1.28zM22.72 7.872c-0.064-0.32-0.128-0.576-0.192-0.896l0.576-0.128 1.664 0.704-2.048 0.32z"></path>
</symbol>
<symbol id="i-locals-soccer-field" viewBox="0 0 32 32">
<title>soccer-field</title>
<path d="M14.016 4.672v1.28h-1.088v0.704h5.696v-0.704h-1.152v-1.28h-3.456zM16.896 5.632h-2.304v-0.448h2.304v0.448z"></path>
<path d="M15.744 11.776c1.984 0 3.648 1.088 3.84 2.496h8.512l-2.24-6.784c-0.32-0.896-1.28-1.6-2.176-1.6h-2.048l0.32 3.264h-4.16c-0.192 0.256-0.768 0.768-1.984 0.768 0 0 0 0-0.064 0-1.216 0-1.792-0.512-1.984-0.768h-4.288l0.32-3.264h-2.112c-0.896 0-1.856 0.704-2.176 1.6l-1.984 6.784h8.384c0.128-1.408 1.792-2.496 3.84-2.496z"></path>
<path d="M16.832 9.216h-2.304c0.256 0.128 0.64 0.256 1.152 0.256 0.576 0 0.896-0.128 1.152-0.256z"></path>
<path d="M19.136 5.952v1.28h-6.784v-1.28h-2.112l-0.192 2.688h11.2l-0.192-2.688h0.256z"></path>
<path d="M15.744 16.768c1.664 0 3.072-0.832 3.264-1.92h-6.528c0.192 1.088 1.6 1.92 3.264 1.92z"></path>
<path d="M15.744 12.352c-1.664 0-3.072 0.832-3.264 1.984h6.592c-0.256-1.152-1.664-1.984-3.328-1.984z"></path>
<path d="M13.696 26.752h4.352v0.576h-4.352v-0.576z"></path>
<path d="M28.288 14.848h-8.704c-0.192 1.408-1.856 2.496-3.84 2.496s-3.648-1.088-3.84-2.496h-8.576l-3.264 10.88c-0.256 0.896 0.256 1.6 1.216 1.6h6.4l-0.256-0.064 0.64-4.928h4.992c0.256-0.256 1.216-0.896 2.816-0.896 1.728 0 2.56 0.64 2.816 0.896h4.992l0.768 4.928-0.256 0.064h6.592c0.896 0 1.408-0.704 1.152-1.6l-3.648-10.88z"></path>
<path d="M20.416 27.328l-0.32-1.408h-8.128l-0.192 1.408h1.408v-1.088h5.504v1.088z"></path>
<path d="M8 27.328h3.2l0.32-1.984h9.024l0.448 1.92-0.256 0.064h3.136l-0.64-4.352h-14.656z"></path>
<path d="M14.144 22.4h3.52c-0.384-0.192-0.96-0.32-1.792-0.32-0.704 0-1.28 0.128-1.728 0.32z"></path>
</symbol>
<symbol id="i-locals-tennis-racket" viewBox="0 0 32 32">
<title>tennis-racket</title>
<path d="M22.592 13.888c-0.448 0.32-0.768 0.768-0.896 1.344-0.192 0.64-0.064 1.344 0.256 1.92 0.448-0.448 0.896-1.024 1.024-1.472 0.064-0.512-0.128-1.216-0.384-1.792z"></path>
<path d="M26.496 16.512c0.128-0.512 0.064-1.088-0.128-1.536-0.448 0.32-0.96 0.832-1.088 1.344-0.128 0.448 0 1.088 0.128 1.664 0.512-0.32 0.896-0.832 1.088-1.472z"></path>
<path d="M26.048 14.464c-0.32-0.448-0.832-0.832-1.408-0.96s-1.152-0.064-1.6 0.128c0.32 0.64 0.576 1.472 0.384 2.24-0.128 0.64-0.704 1.28-1.216 1.792 0.32 0.32 0.704 0.576 1.152 0.704 0.512 0.128 0.96 0.064 1.408-0.064-0.192-0.704-0.32-1.472-0.192-2.112 0.32-0.768 0.96-1.344 1.472-1.728z"></path>
<path d="M16.128 17.088c2.432-1.216 4.288-3.712 4.8-6.912 0.832-4.864-1.984-9.408-6.208-10.112s-8.32 2.752-9.152 7.616c-0.512 3.072 0.384 6.080 2.24 8 0.896 1.728 1.856 3.968 1.856 5.44-0.256 0.256-0.448 0.576-0.512 0.96l-0.192 1.024c0.64 0.064 2.048 0 3.712-1.024 0-0.128-0.064-0.256-0.128-0.384 0.512-1.344 2.112-3.2 3.584-4.608zM11.776 20.8c-0.128-0.064-0.256-0.128-0.448-0.128h-0.128c-0.128 0-0.256 0-0.384 0-0.128-1.088-0.512-2.304-1.024-3.456 0.64 0.32 1.28 0.576 1.984 0.64 0.704 0.128 1.344 0.128 2.048 0-0.832 0.96-1.664 1.984-2.048 2.944z"></path>
<path d="M11.968 27.392c-1.728 0.896-3.136 0.96-3.776 0.896l-0.256 1.664c0 0 0 0 0 0 0.704 0.064 2.112 0 3.84-1.088l0.192-1.472z"></path>
<path d="M12.736 22.784c-1.728 0.896-3.136 0.96-3.776 0.896l-0.256 1.728c0.704 0.064 2.112 0 3.84-1.088l0.192-1.536z"></path>
<path d="M12.352 25.088c-1.728 0.896-3.136 0.96-3.776 0.896l-0.256 1.728c0.704 0.064 2.112 0 3.84-1.088l0.192-1.536z"></path>
<path d="M9.28 31.936h0.128c0.96 0.128 1.856-0.512 1.984-1.408l0.128-0.896c-1.6 0.896-2.944 0.96-3.712 0.896 0.192 0.704 0.768 1.28 1.472 1.408z"></path>
</symbol>
<symbol id="i-locals-walk-dog" viewBox="0 0 32 32">
<title>walk-dog</title>
<path d="M15.040 2.88c0 1.52-1.232 2.752-2.752 2.752s-2.752-1.232-2.752-2.752c0-1.52 1.232-2.752 2.752-2.752s2.752 1.232 2.752 2.752z"></path>
<path d="M32 21.184c0-0.064-0.064-0.192-0.192-0.192l-1.152-0.448 0.256-0.384c0.064-0.064 0.064-0.192 0.064-0.256s-0.128-0.192-0.192-0.192l-1.344-0.576c-0.128-0.576-0.512-1.024-0.768-1.28-0.064-0.064-0.064-0.064-0.128-0.064s-0.064 0.064-0.064 0.128l-0.32 1.408c-0.128 0.064-0.192 0.192-0.256 0.32-0.064 0.064 0 0-0.576 1.408l-0.384 0.64c-3.776-0.768-6.464-2.176-8.128-3.2-0.896-0.576-1.536-1.088-2.048-1.472 0.256-0.576 0-1.28-0.512-1.536l-3.712-2.112-0.32-4.736 1.28 3.904 0.704-3.584c0.192-1.024-0.448-1.984-1.472-2.176l-3.264-0.64c-0.32-0.064-0.512-0.064-0.832 0l-5.376 1.728c-0.384 0.128-0.64 0.384-0.768 0.704s-0.128 0.768 0.064 1.088l2.56 4.352c0.192 0.32 0.512 0.512 0.832 0.576l-0.448 2.432 0.384 4.736-4.608 0.64c-0.832 0.128-1.408 0.896-1.28 1.664 0.128 0.832 0.896 1.408 1.664 1.28l6.016-0.832c0.768-0.128 1.344-0.768 1.28-1.536l-0.32-5.44 0.768 0.128 1.856 5.44 0.896 7.424c0.128 0.832 0.832 1.408 1.664 1.28s1.408-0.832 1.28-1.664l-0.96-7.552c0-0.128-0.064-0.192-0.064-0.32l-1.6-4.8-2.368-1.344c-1.024-0.576-1.28-1.664-1.216-2.24l0.832-4.992 0.32 5.184c0 0.384 0.256 0.768 0.64 1.024 0.448 0.256 3.776 2.176 4.288 2.432 0.32 0.192 0.64 0.192 0.96 0.128 0.512 0.448 1.216 1.024 2.176 1.664 1.6 1.024 4.16 2.368 7.68 3.2l-4.992 0.768c-0.384 0.064-0.768 0.192-1.024 0.448l-1.216-0.64c-0.128-0.064-0.384-0.064-0.512 0.064-0.128 0.192-0.128 0.384 0.064 0.576l0.896 0.832c-0.192 0.384-0.128 0.704-0.128 1.024 0.192 2.112 0.128 2.88 0.128 2.944-0.128 0.064-0.256 0.192-0.384 0.32-0.512 0.512-0.384 0.96-0.448 2.56 0 0.128 0.064 0.32 0.256 0.32 0.192 0.064 0.384 0 0.448-0.192 0.576-1.664 0.512-1.536 0.576-1.6s0.192-0.064 0.192-0.064c0 0 0 0 0 0s0.064 0 0.064 0c-0.064 0 0 0 0 0 0.448-0.128 0.704-0.192 0.96-0.768 0.256-0.512 0.448-1.408 0.64-1.984l3.456 0.064c0.128 0.192 0.32 0.384 0.512 0.512l0.576 3.968c0 0.128 0.128 0.256 0.256 0.256 0.192 0 0.32-0.064 0.384-0.256l0.704-3.904c0.704-0.448 1.152-1.28 1.152-2.304 0-0.192 0-0.384-0.064-0.576l0.832-2.624 0.832 0.32c0.512 0.192 1.088 0.064 1.408-0.384l0.512-0.64c0.128-0.192 0.128-0.256 0.128-0.384zM6.592 11.584l-1.024-1.792 1.472-0.448-0.448 2.24z"></path>
</symbol>
</defs>
</svg>
