<?xml version="1.0" encoding="iso-8859-1"?>
<!-- Generator: Adobe Illustrator 19.0.0, SVG Export Plug-In . SVG Version: 6.00 Build 0)  -->
<svg version="1.1" id="Capa_1" xmlns="http://www.w3.org/2000/svg" xmlns:xlink="http://www.w3.org/1999/xlink" x="0px" y="0px"
	 viewBox="0 0 512 512" style="enable-background:new 0 0 512 512;" xml:space="preserve">
<g>
	<g>
		<path d="M340.316,405.683l-6.445-6.446l0.003-0.019c8.648-52.041,8.685-105.149,0.112-157.202l6.113-6.113
			c8.705-8.705,9.239-22.889,0.775-31.829c-8.781-9.276-23.422-9.428-32.395-0.455l-6.445,6.445l-26.75-6.503
			c-33.452-8.132-67.635-12.196-101.817-12.191c-34.182-0.005-68.365,4.059-101.817,12.191l-26.75,6.503l-6.445-6.445
			c-8.973-8.972-23.614-8.821-32.395,0.455c-8.463,8.941-7.93,23.124,0.775,31.829l6.113,6.113
			c-8.575,52.054-8.537,105.162,0.111,157.203l0.003,0.019l-6.445,6.445c-8.972,8.973-8.821,23.614,0.455,32.395
			c8.94,8.463,23.124,7.93,31.829-0.775l6.113-6.113l26.75,6.503c33.414,8.123,67.558,12.187,101.703,12.191
			c34.144-0.004,68.288-4.068,101.702-12.191l26.75-6.503l6.113,6.113c8.705,8.705,22.889,9.238,31.829,0.775
			C349.137,429.297,349.289,414.656,340.316,405.683z"/>
	</g>
</g>
<g>
	<g>
		<path d="M505.382,276.426l-6.445-6.445l0.003-0.019c8.648-52.041,8.685-105.149,0.111-157.202l6.113-6.113
			c8.705-8.705,9.239-22.889,0.775-31.829c-8.781-9.276-23.422-9.428-32.395-0.455l-6.445,6.446l-26.75-6.503
			c-33.452-8.132-67.635-12.196-101.817-12.191c-34.182-0.005-68.365,4.059-101.817,12.191l-26.75,6.503l-6.445-6.445
			c-8.973-8.972-23.614-8.821-32.395,0.455c-8.463,8.941-7.93,23.124,0.775,31.829l6.113,6.113
			c-2.656,16.125-4.482,32.352-5.485,48.617c0.293,0,0.587-0.007,0.88-0.007h0.059h0.059c36.63,0,73.251,4.388,108.844,13.04
			l11.074,2.692c8.947-6.559,19.707-10.101,31.011-10.101c14.385,0,28.31,5.996,38.206,16.449
			c9.59,10.13,14.651,23.441,14.252,37.48c-0.324,11.378-4.22,22.194-11.099,31.078c3.022,22.408,4.542,44.922,4.58,67.434
			c23.467-1.744,46.827-5.412,69.84-11.006l26.75-6.503l6.113,6.113c8.705,8.705,22.889,9.238,31.829,0.775
			C514.202,300.041,514.354,285.399,505.382,276.426z"/>
	</g>
</g>
<g>
</g>
<g>
</g>
<g>
</g>
<g>
</g>
<g>
</g>
<g>
</g>
<g>
</g>
<g>
</g>
<g>
</g>
<g>
</g>
<g>
</g>
<g>
</g>
<g>
</g>
<g>
</g>
<g>
</g>
</svg>
