<?xml version="1.0" encoding="iso-8859-1"?>
<!-- Generator: Adobe Illustrator 19.0.0, SVG Export Plug-In . SVG Version: 6.00 Build 0)  -->
<svg version="1.1" id="Capa_1" xmlns="http://www.w3.org/2000/svg" xmlns:xlink="http://www.w3.org/1999/xlink" x="0px" y="0px"
	 viewBox="0 0 477.867 477.867" style="enable-background:new 0 0 477.867 477.867;" xml:space="preserve">
<g>
	<g>
		<path d="M213.333,364.195V409.6c0,14.138,11.461,25.6,25.6,25.6s25.6-11.461,25.6-25.6v-45.405
			C247.662,367.846,230.205,367.846,213.333,364.195z"/>
	</g>
</g>
<g>
	<g>
		<path d="M281.6,404.269v5.331c0,23.564-19.103,42.667-42.667,42.667s-42.667-19.103-42.667-42.667v-5.331
			C153.336,410.935,128,426.865,128,439.467c0,18.125,47.442,38.4,110.933,38.4s110.933-20.275,110.933-38.4
			C349.867,426.865,324.531,410.935,281.6,404.269z"/>
	</g>
</g>
<g>
	<g>
		<path d="M362.217,239.613c-0.312,0.225-0.637,0.429-0.975,0.612c-28.417,15.221-74.142,24.308-122.308,24.308
			c-48.167,0-93.892-9.088-122.308-24.308c-0.343-0.188-0.674-0.396-0.992-0.625c-1.584-0.865-2.931-1.798-4.396-2.697
			c19.681,66.797,70.328,112.964,127.696,112.964s108.015-46.165,127.696-112.961C365.159,237.808,363.807,238.744,362.217,239.613z
			"/>
	</g>
</g>
<g>
	<g>
		<path d="M210.208,50.604c-0.527-0.197-1.087-0.295-1.65-0.288c-7.192,0-21.892,13.496-31.433,37.704
			c-4.699,11.278-7.019,23.405-6.817,35.621c0.425,7.542,2.583,13.154,5.492,14.296c2.225,0.879,7.125-0.35,13.775-6.704
			c8.475-8.801,15.047-19.253,19.308-30.704C219.225,74.279,216.525,53.096,210.208,50.604z"/>
	</g>
</g>
<g>
	<g>
		<path d="M238.933,0c-68.058,0-127.267,95.904-128,174.417v1.454c0.012,15.323,2.351,30.556,6.937,45.178
			c2.086,1.38,4.355,2.726,6.805,4.039c0.329,0.176,0.647,0.374,0.95,0.592c26.133,13.654,68.367,21.787,113.308,21.787
			c44.958,0,87.192-8.137,113.325-21.796c0.298-0.215,0.609-0.41,0.933-0.583c2.45-1.307,4.718-2.65,6.803-4.03
			c4.587-14.624,6.927-29.86,6.939-45.186v-1.533C366.2,95.904,306.992,0,238.933,0z M224.767,106.783v0.004
			c-5.138,13.763-13.11,26.294-23.4,36.779c-6.227,6.838-14.836,11.03-24.058,11.716c-2.658,0.007-5.294-0.491-7.767-1.467
			c-9.633-3.792-15.417-14.163-16.275-29.2c-0.37-14.685,2.347-29.285,7.975-42.854c13.375-33.946,37.142-54.175,55.217-47.033
			C234.567,41.858,238.133,72.837,224.767,106.783z"/>
	</g>
</g>
<g>
</g>
<g>
</g>
<g>
</g>
<g>
</g>
<g>
</g>
<g>
</g>
<g>
</g>
<g>
</g>
<g>
</g>
<g>
</g>
<g>
</g>
<g>
</g>
<g>
</g>
<g>
</g>
<g>
</g>
</svg>
