<?xml version="1.0" encoding="iso-8859-1"?>
<!-- Generator: Adobe Illustrator 19.0.0, SVG Export Plug-In . SVG Version: 6.00 Build 0)  -->
<svg version="1.1" id="Capa_1" xmlns="http://www.w3.org/2000/svg" xmlns:xlink="http://www.w3.org/1999/xlink" x="0px" y="0px"
	 viewBox="0 0 512 512" style="enable-background:new 0 0 512 512;" xml:space="preserve">
<g>
	<g>
		<path d="M349.867,128H76.8c-14.114,0-25.6,11.486-25.6,25.6v170.667c0,14.114,11.477,25.6,25.6,25.6h273.067
			c14.114,0,25.6-11.486,25.6-25.6V153.6C375.467,139.486,363.981,128,349.867,128z M70.767,190.234l42.667-42.667
			c3.337-3.337,8.73-3.337,12.066,0c3.337,3.336,3.337,8.73,0,12.066L82.833,202.3c-1.664,1.664-3.849,2.5-6.033,2.5
			c-2.185,0-4.369-0.836-6.033-2.5C67.43,198.963,67.43,193.57,70.767,190.234z M99.9,227.9l-17.067,17.067
			c-1.664,1.664-3.849,2.5-6.033,2.5c-2.185,0-4.369-0.836-6.033-2.5c-3.337-3.337-3.337-8.73,0-12.066l17.067-17.067
			c3.337-3.337,8.73-3.337,12.066,0C103.236,219.17,103.236,224.563,99.9,227.9z M125.5,202.3l-8.533,8.533
			c-1.664,1.664-3.849,2.5-6.033,2.5c-2.185,0-4.369-0.836-6.033-2.5c-3.336-3.337-3.336-8.73,0-12.066l8.533-8.533
			c3.337-3.337,8.73-3.337,12.066,0C128.836,193.57,128.828,198.963,125.5,202.3z M168.166,159.633l-25.6,25.6
			c-1.664,1.664-3.849,2.5-6.033,2.5c-2.185,0-4.369-0.836-6.033-2.5c-3.337-3.336-3.337-8.73,0-12.066l25.6-25.6
			c3.337-3.337,8.73-3.337,12.066,0C171.503,150.903,171.503,156.297,168.166,159.633z M341.333,290.133
			c4.719,0,8.533,3.823,8.533,8.533c0,4.71-3.814,8.533-8.533,8.533H307.2c-4.719,0-8.533-3.823-8.533-8.533V179.2
			c0-4.71,3.814-8.533,8.533-8.533h34.133c4.719,0,8.533,3.823,8.533,8.533c0,4.71-3.814,8.533-8.533,8.533h-25.6v102.4H341.333z"/>
	</g>
</g>
<g>
	<g>
		<circle cx="443.733" cy="145.067" r="17.067"/>
	</g>
</g>
<g>
	<g>
		<path d="M486.4,401.067c14.114,0,25.6-11.486,25.6-25.6V102.4c0-14.114-11.486-25.6-25.6-25.6H25.6C11.486,76.8,0,88.286,0,102.4
			v273.067c0,14.114,11.486,25.6,25.6,25.6h8.533v17.067h-25.6c-4.719,0-8.533,3.823-8.533,8.533s3.814,8.533,8.533,8.533H51.2
			h42.667h324.267H460.8h42.667c4.719,0,8.533-3.823,8.533-8.533s-3.814-8.533-8.533-8.533h-25.6v-17.067H486.4z M443.733,110.933
			c18.825,0,34.133,15.309,34.133,34.133S462.558,179.2,443.733,179.2c-18.825,0-34.133-15.309-34.133-34.133
			S424.909,110.933,443.733,110.933z M460.8,247.467c-4.719,0-8.533-3.823-8.533-8.533V230.4c0-4.71,3.814-8.533,8.533-8.533
			s8.533,3.823,8.533,8.533v8.533C469.333,243.644,465.519,247.467,460.8,247.467z M469.333,264.533v8.533
			c0,4.71-3.814,8.533-8.533,8.533s-8.533-3.823-8.533-8.533v-8.533c0-4.71,3.814-8.533,8.533-8.533
			S469.333,259.823,469.333,264.533z M460.8,213.333c-4.719,0-8.533-3.823-8.533-8.533v-8.533c0-4.71,3.814-8.533,8.533-8.533
			s8.533,3.823,8.533,8.533v8.533C469.333,209.51,465.519,213.333,460.8,213.333z M426.667,247.467
			c-4.719,0-8.533-3.823-8.533-8.533V230.4c0-4.71,3.814-8.533,8.533-8.533s8.533,3.823,8.533,8.533v8.533
			C435.2,243.644,431.386,247.467,426.667,247.467z M435.2,264.533v8.533c0,4.71-3.814,8.533-8.533,8.533s-8.533-3.823-8.533-8.533
			v-8.533c0-4.71,3.814-8.533,8.533-8.533S435.2,259.823,435.2,264.533z M426.667,213.333c-4.719,0-8.533-3.823-8.533-8.533v-8.533
			c0-4.71,3.814-8.533,8.533-8.533s8.533,3.823,8.533,8.533v8.533C435.2,209.51,431.386,213.333,426.667,213.333z M34.133,324.267
			V153.6c0-23.526,19.14-42.667,42.667-42.667h273.067c23.526,0,42.667,19.14,42.667,42.667v170.667
			c0,23.526-19.14,42.667-42.667,42.667H76.8C53.274,366.933,34.133,347.793,34.133,324.267z M51.2,418.133v-17.067h42.667
			l0.009,17.067H51.2z M401.067,418.133H110.933v-17.067h290.133V418.133z M460.8,418.133h-42.667v-17.067H460.8V418.133z
			 M443.733,366.933c-18.825,0-34.133-15.309-34.133-34.133c0-18.825,15.309-34.133,34.133-34.133
			c18.825,0,34.133,15.309,34.133,34.133C477.867,351.625,462.558,366.933,443.733,366.933z"/>
	</g>
</g>
<g>
	<g>
		<circle cx="443.733" cy="332.8" r="17.067"/>
	</g>
</g>
<g>
</g>
<g>
</g>
<g>
</g>
<g>
</g>
<g>
</g>
<g>
</g>
<g>
</g>
<g>
</g>
<g>
</g>
<g>
</g>
<g>
</g>
<g>
</g>
<g>
</g>
<g>
</g>
<g>
</g>
</svg>
