<?xml version="1.0" encoding="iso-8859-1"?>
<!-- Generator: Adobe Illustrator 19.0.0, SVG Export Plug-In . SVG Version: 6.00 Build 0)  -->
<svg version="1.1" id="Capa_1" xmlns="http://www.w3.org/2000/svg" xmlns:xlink="http://www.w3.org/1999/xlink" x="0px" y="0px"
	 viewBox="0 0 59.116 59.116" style="enable-background:new 0 0 59.116 59.116;" xml:space="preserve">
<g>
	<g>
		<g>
			<path d="M54.116,45.091h-2.838l-11.544-3.848c-0.52-0.172-1.08-0.068-1.502,0.283l-3.678,3.065l3.081,2.567l-2.933,2.933
				l2.933,2.933l-3.081,2.567l3.689,3.075c0.283,0.235,0.63,0.359,0.984,0.359c0.164,0,0.329-0.026,0.491-0.08l11.56-3.854h2.838
				c2.757,0,5-2.243,5-5S56.873,45.091,54.116,45.091z M39.328,43.216l10.788,3.596v1.099L39.548,46.15l-1.87-1.558L39.328,43.216z
				 M39.459,48.162l10.657,1.776v0.306L39.459,52.02l-1.929-1.929L39.459,48.162z M39.328,56.967l-1.65-1.375l1.87-1.558
				l10.568-1.761v1.099L39.328,56.967z"/>
			<rect x="30.116" y="21.091" width="2" height="2"/>
			<path d="M0.728,51.8c-0.933,0.934-0.975,2.41-0.093,3.291l0.816,0.816c0.41,0.411,0.964,0.637,1.56,0.637
				c0.636,0,1.268-0.266,1.731-0.73l6.341-6.341L7.07,45.46L0.728,51.8z"/>
			<path d="M52.727,4.48c-2.872-2.872-6.771-4.389-11.276-4.389c-6.223,0-12.694,2.902-17.754,7.963
				c-5.802,5.803-8.777,13.641-7.763,20.454c0.367,2.464-0.113,4.881-1.35,6.804l-0.064,0.1c-0.889,0.949-1.254,2.377-0.969,3.566
				l-5.067,5.067l4.013,4.013l5.066-5.066c1.185,0.286,2.662-0.125,3.566-0.97c1.798-1.148,4.056-1.521,6.197-1.022
				c1.299,0.302,2.67,0.456,4.077,0.456c6.221,0,12.691-2.902,17.75-7.961C58.137,24.51,59.741,11.495,52.727,4.48z M22.74,37.091
				c-2.206,0-4-2.243-4-5c0-0.552,0.448-1,1-1s1,0.448,1,1c0,1.626,0.916,3,2,3c0.552,0,1,0.448,1,1S23.292,37.091,22.74,37.091z
				 M38.116,25.091h-4v2c0,0.552-0.448,1-1,1s-1-0.448-1-1v-2h-2v3c0,0.552-0.448,1-1,1s-1-0.448-1-1v-3h-2c-0.552,0-1-0.448-1-1
				s0.448-1,1-1h2v-2h-4c-0.552,0-1-0.448-1-1s0.448-1,1-1h4v-2.333c0-0.552,0.448-1,1-1s1,0.448,1,1v2.333h2v-4
				c0-0.552,0.448-1,1-1s1,0.448,1,1v4h1.333c0.552,0,1,0.448,1,1s-0.448,1-1,1h-1.333v2h4c0.552,0,1,0.448,1,1
				S38.668,25.091,38.116,25.091z"/>
		</g>
	</g>
</g>
<g>
</g>
<g>
</g>
<g>
</g>
<g>
</g>
<g>
</g>
<g>
</g>
<g>
</g>
<g>
</g>
<g>
</g>
<g>
</g>
<g>
</g>
<g>
</g>
<g>
</g>
<g>
</g>
<g>
</g>
</svg>
