<?xml version="1.0" encoding="iso-8859-1"?>
<!-- Generator: Adobe Illustrator 19.0.0, SVG Export Plug-In . SVG Version: 6.00 Build 0)  -->
<svg version="1.1" id="Capa_1" xmlns="http://www.w3.org/2000/svg" xmlns:xlink="http://www.w3.org/1999/xlink" x="0px" y="0px"
	 viewBox="0 0 512 512" style="enable-background:new 0 0 512 512;" xml:space="preserve">
<g>
	<g>
		<path d="M256,0C148.477,0,61,87.477,61,195s87.477,195,195,195s195-87.477,195-195S363.523,0,256,0z M91,195
			c0-33.137,26.863-60,60-60s60,26.863,60,60H91z M256,360c-33.137,0-60-26.863-60-60c0-33.137,26.863-60,60-60V360z M256,225
			c-16.569,0-30-13.431-30-30c0-16.569,13.431-30,30-30c16.569,0,30,13.431,30,30C286,211.569,272.569,225,256,225z M256,150V30
			c33.137,0,60,26.863,60,60S289.137,150,256,150z M361,255c-33.137,0-60-26.863-60-60h120C421,228.137,394.137,255,361,255z"/>
	</g>
</g>
<g>
	<g>
		<path d="M301,482v-66.524C286.456,418.44,271.407,420,256,420c-15.407,0-30.456-1.56-45-4.524V482h-30v30h150v-30H301z"/>
	</g>
</g>
<g>
</g>
<g>
</g>
<g>
</g>
<g>
</g>
<g>
</g>
<g>
</g>
<g>
</g>
<g>
</g>
<g>
</g>
<g>
</g>
<g>
</g>
<g>
</g>
<g>
</g>
<g>
</g>
<g>
</g>
</svg>
