<?xml version="1.0" encoding="iso-8859-1"?>
<!-- Generator: Adobe Illustrator 19.0.0, SVG Export Plug-In . SVG Version: 6.00 Build 0)  -->
<svg version="1.1" id="Layer_1" xmlns="http://www.w3.org/2000/svg" xmlns:xlink="http://www.w3.org/1999/xlink" x="0px" y="0px"
	 viewBox="0 0 512 512" style="enable-background:new 0 0 512 512;" xml:space="preserve">
<g>
	<g>
		<path d="M406.261,211.478H105.739c-18.442,0-33.391,14.949-33.391,33.391s14.949,33.391,33.391,33.391h300.522
			c18.442,0,33.391-14.949,33.391-33.391S424.703,211.478,406.261,211.478z"/>
	</g>
</g>
<g>
	<g>
		<path d="M106.723,311.652c8.341,75.016,72.073,133.565,149.277,133.565s140.936-58.549,149.277-133.565H106.723z"/>
	</g>
</g>
<g>
	<g>
		<path d="M371.604,488.924l-16.351-39.525c-28.727,18.473-62.8,29.21-99.253,29.21s-70.527-10.736-99.252-29.211l-16.351,39.525
			c-2.13,5.152-1.549,11.027,1.549,15.657c3.096,4.637,8.303,7.42,13.88,7.42h200.348c5.576,0,10.783-2.783,13.881-7.418
			C373.152,499.951,373.734,494.077,371.604,488.924z"/>
	</g>
</g>
<g>
	<g>
		<path d="M389.565,0h-267.13c-9.223,0-16.696,7.473-16.696,16.696v161.391h300.522V16.696C406.261,7.473,398.788,0,389.565,0z
			 M322.783,100.174h-33.391c-9.223,0-16.696-7.473-16.696-16.696s7.473-16.696,16.696-16.696h33.391
			c9.223,0,16.696,7.473,16.696,16.696S332.005,100.174,322.783,100.174z"/>
	</g>
</g>
<g>
</g>
<g>
</g>
<g>
</g>
<g>
</g>
<g>
</g>
<g>
</g>
<g>
</g>
<g>
</g>
<g>
</g>
<g>
</g>
<g>
</g>
<g>
</g>
<g>
</g>
<g>
</g>
<g>
</g>
</svg>
