<?xml version="1.0" encoding="iso-8859-1"?>
<!-- Generator: Adobe Illustrator 19.0.0, SVG Export Plug-In . SVG Version: 6.00 Build 0)  -->
<svg version="1.1" id="Capa_1" xmlns="http://www.w3.org/2000/svg" xmlns:xlink="http://www.w3.org/1999/xlink" x="0px" y="0px"
	 viewBox="0 0 512 512" style="enable-background:new 0 0 512 512;" xml:space="preserve">
<g>
	<g>
		<g>
			<path d="M288.937,93.396c-16.598-12.489-38.827-14.526-57.418-5.262c-18.591,9.264-30.351,28.238-30.376,49.009
				c-0.023,6.231,1.04,12.419,3.141,18.286h20.232c-3.294-5.533-5.05-11.846-5.087-18.286c0.021-20.189,16.383-36.55,36.571-36.571
				c8.711,0.035,17.118,3.207,23.682,8.935C282.061,103.76,285.172,98.346,288.937,93.396z"/>
			<circle cx="256" cy="137.143" r="18.286"/>
			<polygon points="484.571,173.714 298.789,173.714 207.36,173.714 27.429,173.714 0,173.714 0,192 210.286,192 265.143,192 
				301.714,192 512,192 512,173.714 			"/>
			<circle cx="164.571" cy="137.143" r="18.286"/>
			<path d="M197.508,93.396c-16.581-12.564-38.85-14.643-57.47-5.365s-30.37,28.309-30.324,49.112
				c-0.012,6.232,1.057,12.419,3.161,18.286h20.212c-3.294-5.533-5.05-11.846-5.087-18.286c0.022-20.189,16.383-36.55,36.571-36.571
				c8.711,0.035,17.118,3.207,23.682,8.935C190.633,103.76,193.744,98.346,197.508,93.396z"/>
			<path d="M54.857,45.714c0.017-15.142,12.287-27.412,27.429-27.429h347.429c15.142,0.017,27.412,12.287,27.429,27.429v109.714
				h18.286v-128C475.412,12.287,463.142,0.017,448,0H64C48.858,0.017,36.588,12.287,36.571,27.429v128h18.286V45.714z"/>
			<path d="M438.857,155.429V45.714c-0.005-5.047-4.096-9.138-9.143-9.143H82.286c-5.047,0.005-9.138,4.096-9.143,9.143v109.714
				h20.681c-5.758-21.901-1.011-45.235,12.848-63.145c13.859-17.91,35.254-28.361,57.9-28.284
				c16.629,0.044,32.747,5.745,45.706,16.166c26.665-21.554,64.763-21.554,91.429,0c21.913-17.657,52.021-21.154,77.398-8.99
				c25.377,12.164,41.508,37.826,41.468,65.967c-0.017,6.172-0.822,12.317-2.395,18.286H438.857z"/>
			<path d="M399.126,155.429c2.103-5.867,3.173-12.054,3.16-18.286c0.021-22.293-13.463-42.377-34.105-50.798
				s-44.327-3.498-59.904,12.449c-14.69,14.914-19.563,36.912-12.545,56.634h20.212c-3.294-5.533-5.05-11.846-5.086-18.286
				c0-20.198,16.374-36.571,36.571-36.571S384,116.945,384,137.143c-0.037,6.439-1.793,12.752-5.086,18.286H399.126z"/>
			<circle cx="347.429" cy="137.143" r="18.286"/>
			<path d="M283.429,228.571c5.047-0.005,9.138-4.095,9.143-9.143v-9.143h-73.143v9.143c0.005,5.047,4.095,9.138,9.143,9.143
				H283.429z"/>
			<path d="M76.681,210.286l28.39,85.174c1.245,3.736,4.741,6.256,8.679,6.254h284.5c3.938,0.001,7.434-2.519,8.679-6.254
				l28.39-85.174H310.857v9.143c-0.017,15.142-12.287,27.412-27.429,27.429h-54.857c-15.141-0.017-27.412-12.287-27.429-27.429
				v-9.143H76.681z M365.714,228.571c15.148,0,27.429,12.28,27.429,27.429s-12.28,27.429-27.429,27.429s-27.429-12.28-27.429-27.429
				C338.302,240.858,350.573,228.588,365.714,228.571z M146.286,237.714c-0.015-3.72,2.216-7.081,5.65-8.511
				s7.391-0.647,10.021,1.983c2.63,2.63,3.413,6.588,1.983,10.021c-1.43,3.434-4.791,5.665-8.511,5.65
				c-2.424-0.017-4.749-0.967-6.491-2.651C147.265,242.454,146.318,240.135,146.286,237.714z M171.063,280.777
				c-1.754,1.667-4.071,2.614-6.491,2.651c-2.424-0.017-4.748-0.967-6.491-2.651c-3.549-3.578-3.534-9.354,0.035-12.912
				c3.569-3.559,9.344-3.559,12.913,0C174.596,271.424,174.611,277.199,171.063,280.777L171.063,280.777z"/>
			<path d="M424.268,301.246c-3.724,11.206-14.209,18.764-26.018,18.754h-284.5c-11.808,0.01-22.294-7.549-26.018-18.754
				l-30.319-90.96H3.802l94.081,265.143h316.233l94.081-265.143h-53.611L424.268,301.246z"/>
			<rect x="100.571" y="493.714" width="310.857" height="18.286"/>
			<circle cx="365.714" cy="256" r="9.143"/>
		</g>
	</g>
</g>
<g>
</g>
<g>
</g>
<g>
</g>
<g>
</g>
<g>
</g>
<g>
</g>
<g>
</g>
<g>
</g>
<g>
</g>
<g>
</g>
<g>
</g>
<g>
</g>
<g>
</g>
<g>
</g>
<g>
</g>
</svg>
