<?xml version="1.0" encoding="iso-8859-1"?>
<!-- Generator: Adobe Illustrator 19.0.0, SVG Export Plug-In . SVG Version: 6.00 Build 0)  -->
<svg version="1.1" id="Capa_1" xmlns="http://www.w3.org/2000/svg" xmlns:xlink="http://www.w3.org/1999/xlink" x="0px" y="0px"
	 viewBox="0 0 512 512" style="enable-background:new 0 0 512 512;" xml:space="preserve">
<g>
	<g>
		<g>
			<path d="M379.586,494.345h-19.141l-37.788-203.576c37.942-22.106,62.461-61.58,65.464-105.39h-70.328v8.828
				c-0.016,14.619-11.863,26.467-26.483,26.483H220.69c-14.619-0.016-26.467-11.863-26.483-26.483v-8.828h-70.328
				c3.182,46.641,30.688,88.161,72.395,109.28l-28.788,129.088c-22.622,0.155-41.453,17.412-43.577,39.935
				c-2.124,22.523,13.15,42.996,35.344,47.377c22.194,4.381,44.101-8.753,50.695-30.394c6.594-21.64-4.268-44.759-25.135-53.498
				l10.611-47.582h125.758l21.301,114.759h-15.863c-4.875,0-8.828,3.952-8.828,8.828c0,4.875,3.952,8.828,8.828,8.828h52.966
				c4.875,0,8.828-3.952,8.828-8.828C388.414,498.297,384.462,494.345,379.586,494.345z M199.362,361.931l13.459-60.349
				c30.392,10.658,63.645,9.75,93.41-2.549l11.675,62.898H199.362z"/>
			<path d="M305.334,42.946c-0.151-0.05-0.297-0.089-0.445-0.147c-15.813-5-32.304-7.526-48.888-7.489
				c-69.297,0-126.332,42.81-131.957,97.103h263.914C383.747,91.777,350.731,57.583,305.334,42.946z"/>
			<path d="M294.078,21.841C286.166,8.314,271.671,0,256,0s-30.166,8.314-38.078,21.841C243.001,16.26,268.999,16.26,294.078,21.841
				z"/>
			<path d="M414.897,150.069H97.104c-4.875,0-8.828,3.952-8.828,8.828c0,4.875,3.952,8.828,8.828,8.828h317.793
				c4.875,0,8.828-3.952,8.828-8.828C423.724,154.021,419.772,150.069,414.897,150.069z"/>
			<path d="M291.31,203.035c4.873-0.006,8.821-3.955,8.828-8.828v-8.828h-88.276v8.828c0.006,4.873,3.955,8.821,8.828,8.828H291.31z
				"/>
		</g>
	</g>
</g>
<g>
</g>
<g>
</g>
<g>
</g>
<g>
</g>
<g>
</g>
<g>
</g>
<g>
</g>
<g>
</g>
<g>
</g>
<g>
</g>
<g>
</g>
<g>
</g>
<g>
</g>
<g>
</g>
<g>
</g>
</svg>
