<?xml version="1.0" encoding="iso-8859-1"?>
<!-- Generator: Adobe Illustrator 19.0.0, SVG Export Plug-In . SVG Version: 6.00 Build 0)  -->
<svg version="1.1" id="Capa_1" xmlns="http://www.w3.org/2000/svg" xmlns:xlink="http://www.w3.org/1999/xlink" x="0px" y="0px"
	 viewBox="0 0 409.611 409.611" style="enable-background:new 0 0 409.611 409.611;" xml:space="preserve">
<g>
	<g>
		<path d="M406.362,312.867c-58.921-23.178-119.014-36.552-178.657-39.869c-3.968-61.906-6.41-112.768-6.835-121.748
			c23.04,0.819,42.076,10.87,56.643,30.039c13.317,17.521,17.813,36.454,17.859,36.644c0.456,1.94,1.992,3.451,3.948,3.855
			c0.348,0.072,0.701,0.108,1.044,0.108c1.597,0,3.128-0.747,4.111-2.063c10.168-13.676,14.408-30.495,11.93-47.36
			c-2.473-16.86-11.377-31.749-25.052-41.923c-8.238-6.129-17.618-10.056-27.459-11.704c13.814-1.93,28.273-0.773,43.341,3.589
			c28.078,8.146,47.857,24.75,48.056,24.914c1.526,1.295,3.661,1.582,5.463,0.747c1.813-0.84,2.97-2.652,2.97-4.644
			c0-45.343-36.89-82.232-82.232-82.232c-16.42,0-31.698,4.89-44.554,13.215c12.273-13.681,28.488-22.728,48.563-26.941
			c25.697-5.402,48.348-0.579,48.579-0.527c1.961,0.41,3.968-0.323,5.176-1.915c1.203-1.592,1.377-3.732,0.44-5.494
			c-19.313-36.311-64.558-50.13-100.869-30.817c-15.979,8.499-28.017,22.226-34.463,38.948
			c-6.236-16.133-18.002-30.203-34.432-38.948C133.619-10.578,88.374,3.251,69.061,39.557c-0.937,1.761-0.763,3.907,0.44,5.494
			c1.198,1.587,3.195,2.324,5.176,1.915c0.23-0.046,22.892-4.859,48.579,0.527c20.106,4.219,36.337,13.286,48.62,27.003
			c-12.759-8.223-27.904-13.056-44.186-13.056c-45.107,0-81.802,36.695-81.802,81.807c0,1.997,1.162,3.809,2.97,4.644
			c1.813,0.835,3.942,0.548,5.463-0.747c0.195-0.164,19.86-16.671,47.78-24.771c15.437-4.475,30.239-5.571,44.355-3.395
			c-9.605,1.715-18.765,5.581-26.824,11.576c-13.676,10.173-22.574,25.062-25.052,41.923c-2.478,16.865,1.761,33.685,11.93,47.36
			c0.978,1.316,2.509,2.063,4.111,2.063c0.343,0,0.696-0.036,1.044-0.108c1.956-0.41,3.497-1.915,3.948-3.855
			c0.046-0.189,4.547-19.123,17.859-36.644c14.095-18.55,32.364-28.585,54.405-29.957c-0.435,9.201-2.862,59.653-6.794,121.093
			C72.707,275.993,5.507,311.618,2.686,313.139c-2.483,1.341-3.415,4.449-2.068,6.938c0.927,1.715,2.688,2.688,4.511,2.688
			c0.819,0,1.654-0.2,2.432-0.614c0.666-0.358,67.441-35.758,172.861-39.444c-2.575,39.296-5.729,82.232-9.354,121.318
			c-0.128,1.434,0.343,2.857,1.316,3.922c0.973,1.05,2.35,1.654,3.789,1.654h56.412c1.439,0,2.816-0.609,3.784-1.669
			c0.968-1.065,1.444-2.488,1.316-3.922c-3.599-38.876-6.743-81.572-9.308-120.699c58.148,3.374,116.746,16.476,174.239,39.091
			c0.614,0.241,1.249,0.358,1.874,0.358c2.038,0,3.968-1.234,4.767-3.246C410.289,316.876,408.993,313.907,406.362,312.867z
			 M285.243,138.772c11.484,8.54,18.949,21.038,21.028,35.195c1.557,10.588-0.046,21.161-4.526,30.618
			c-7.987-20.685-30.771-63.206-83.19-63.657c7.572-6.472,16.829-10.696,26.931-12.175
			C259.653,126.684,273.759,130.232,285.243,138.772z M216.271,254.3c0.789,12.805,1.649,26.271,2.575,40.1h-28.938
			c0.932-13.829,1.792-27.29,2.575-40.1H216.271z M193.109,244.065c0.881-14.587,1.649-28.093,2.309-40.1h17.92
			c0.66,12.006,1.434,25.513,2.309,40.1H193.109z M281.495,71.464c36.086,0,66.063,26.696,71.209,61.379
			c-14.008-9.303-42.573-24.965-76.099-24.965c-20.884,0-43.704,6.088-66.104,23.583C216.231,97.454,245.886,71.464,281.495,71.464z
			 M212.324,55.792c5.018-16.435,16.138-29.932,31.314-38.006c9.6-5.11,19.927-7.526,30.111-7.526
			c19.651,0,38.779,9.021,51.149,25.155c-25.155-2.258-85.407-0.845-112.507,58.276C208.556,81.443,208.489,68.336,212.324,55.792z
			 M205.535,151.772c0.404,0.051,0.814,0.087,1.234,0.041c1.306-0.148,2.581-0.241,3.861-0.343c0.2,4.214,0.937,19.676,2.15,42.255
			h-16.804c1.234-22.876,1.976-38.451,2.161-42.414c2.002,0.108,4.029,0.261,6.088,0.502
			C204.664,151.864,205.105,151.833,205.535,151.772z M97.042,34.836c-5.012,0-9.482,0.251-13.184,0.584
			c18.79-24.499,53.14-32.589,81.265-17.628c27.694,14.73,40.223,46.961,31.237,75.884C173.243,43.269,126.042,34.836,97.042,34.836
			z M56.917,132.633C62.057,98.186,91.84,71.68,127.69,71.68c35.374,0,64.835,25.8,70.559,59.566
			C140.265,86.005,79.567,117.606,56.917,132.633z M109.243,204.584c-4.48-9.462-6.083-20.029-4.526-30.618
			c2.079-14.157,9.549-26.66,21.028-35.2c9.339-6.948,20.424-10.598,31.862-10.598c2.616,0,5.253,0.195,7.895,0.579
			c10.102,1.485,19.354,5.709,26.931,12.175C140.019,141.388,117.225,183.905,109.243,204.584z M189.217,304.639h30.331
			c0.906,13.205,1.879,26.655,2.903,40.1h-36.137C187.338,331.294,188.306,317.844,189.217,304.639z M181.783,399.359
			c1.311-14.449,2.555-29.368,3.738-44.385h37.719c1.178,15.017,2.422,29.937,3.732,44.385H181.783z"/>
	</g>
</g>
<g>
</g>
<g>
</g>
<g>
</g>
<g>
</g>
<g>
</g>
<g>
</g>
<g>
</g>
<g>
</g>
<g>
</g>
<g>
</g>
<g>
</g>
<g>
</g>
<g>
</g>
<g>
</g>
<g>
</g>
</svg>
