<?xml version="1.0" encoding="iso-8859-1"?>
<!-- Generator: Adobe Illustrator 19.0.0, SVG Export Plug-In . SVG Version: 6.00 Build 0)  -->
<svg version="1.1" id="Capa_1" xmlns="http://www.w3.org/2000/svg" xmlns:xlink="http://www.w3.org/1999/xlink" x="0px" y="0px"
	 viewBox="0 0 43.05 43.05" style="enable-background:new 0 0 43.05 43.05;" xml:space="preserve">
<g>
	<path d="M21.523,27.725c-0.9,0-1.796,0.215-2.592,0.623c-0.491,0.251-0.686,0.853-0.434,1.346c0.252,0.491,0.851,0.686,1.346,0.434
		c0.521-0.267,1.087-0.402,1.68-0.402c2.036,0,3.693,1.657,3.693,3.693c0,2.037-1.657,3.694-3.693,3.694
		c-2.037,0-3.694-1.657-3.694-3.694c0-0.427,0.072-0.845,0.214-1.242c0.185-0.521-0.086-1.093-0.606-1.278
		c-0.524-0.185-1.093,0.086-1.278,0.607c-0.218,0.613-0.329,1.258-0.329,1.914c0,3.14,2.555,5.694,5.694,5.694
		c3.14,0,5.693-2.555,5.693-5.694C27.217,30.278,24.663,27.725,21.523,27.725z"/>
	<path d="M27.507,24.652c-3.69-2.006-8.275-2.006-11.965,0c-0.485,0.265-0.665,0.872-0.401,1.356
		c0.264,0.485,0.873,0.664,1.356,0.401c3.102-1.688,6.953-1.688,10.055,0c0.151,0.082,0.315,0.121,0.477,0.121
		c0.354,0,0.698-0.188,0.88-0.523C28.172,25.525,27.992,24.917,27.507,24.652z"/>
	<path d="M10.336,20.427c-0.444,0.328-0.539,0.955-0.211,1.399c0.328,0.444,0.953,0.538,1.398,0.211
		c5.888-4.352,14.113-4.353,20.003,0c0.179,0.132,0.387,0.195,0.593,0.195c0.307,0,0.609-0.141,0.806-0.406
		c0.328-0.443,0.233-1.07-0.211-1.399C26.126,15.56,16.924,15.561,10.336,20.427z"/>
	<path d="M5.308,16.255c-0.423,0.355-0.479,0.986-0.124,1.409c0.355,0.424,0.985,0.479,1.409,0.124
		c8.652-7.258,21.212-7.258,29.864,0c0.188,0.156,0.415,0.233,0.642,0.233c0.286,0,0.569-0.121,0.768-0.357
		c0.354-0.423,0.299-1.054-0.124-1.409C28.346,8.374,14.704,8.374,5.308,16.255z"/>
	<path d="M42.72,12.109C30.63,1.215,12.408,1.212,0.33,12.109c-0.41,0.369-0.442,1.002-0.072,1.412
		c0.197,0.219,0.469,0.33,0.742,0.33c0.239,0,0.479-0.085,0.67-0.258C12.984,3.389,30.056,3.388,41.38,13.595
		c0.41,0.368,1.042,0.336,1.413-0.073C43.162,13.11,43.13,12.479,42.72,12.109z"/>
</g>
<g>
</g>
<g>
</g>
<g>
</g>
<g>
</g>
<g>
</g>
<g>
</g>
<g>
</g>
<g>
</g>
<g>
</g>
<g>
</g>
<g>
</g>
<g>
</g>
<g>
</g>
<g>
</g>
<g>
</g>
</svg>
